<?xml version="1.0" encoding="utf-8"?>
<!-- Generator: Adobe Illustrator 16.0.0, SVG Export Plug-In . SVG Version: 6.00 Build 0)  -->
<!DOCTYPE svg PUBLIC "-//W3C//DTD SVG 1.1//EN" "http://www.w3.org/Graphics/SVG/1.1/DTD/svg11.dtd">
<svg version="1.1" id="Layer_1" xmlns="http://www.w3.org/2000/svg" xmlns:xlink="http://www.w3.org/1999/xlink" x="0px" y="0px"
	 width="52px" height="40px" viewBox="0 0 52 40" enable-background="new 0 0 52 40" xml:space="preserve">
<g>
	<polygon points="35.787,28.153 28.03,20.378 24.66,23.759 27.678,26.784 32.415,31.534 35.787,34.915 39.16,31.534 50.146,20.52 
		52,18.66 48.627,15.28 	"/>
	<path fill="#fff" d="M39.997,19.888C39.938,8.894,31.011,0,20,0C8.955,0,0,8.954,0,20c0,8.084,4.799,15.044,11.702,18.196
		c0.027,0.012,0.054,0.024,0.082,0.037c0.486,0.219,0.982,0.423,1.489,0.604c0.012,0.004,0.023,0.007,0.035,0.012
		c0.505,0.18,1.02,0.34,1.543,0.479c0.017,0.004,0.034,0.011,0.052,0.015c0.495,0.13,1,0.238,1.509,0.331
		c0.083,0.015,0.165,0.029,0.246,0.044c0.495,0.083,0.994,0.149,1.5,0.195c0.083,0.008,0.167,0.013,0.25,0.019
		C18.933,39.973,19.463,40,20,40c0.537,0,1.066-0.027,1.593-0.069c0.083-0.006,0.168-0.011,0.251-0.019
		c0.505-0.046,1.004-0.112,1.498-0.195c0.084-0.015,0.168-0.029,0.252-0.045c0.507-0.092,1.009-0.199,1.501-0.329
		c0.024-0.006,0.048-0.014,0.071-0.021c0.512-0.136,1.014-0.293,1.509-0.468c0.021-0.007,0.043-0.014,0.064-0.021
		c0.496-0.177,0.982-0.377,1.461-0.592c0.039-0.018,0.078-0.035,0.118-0.054c0.483-0.222,0.956-0.46,1.417-0.718l0.011-0.005
		c0.959-0.536,1.862-1.158,2.717-1.84c-0.921-0.562-1.796-0.969-2.499-1.257l-0.001,0.001c-1.74-0.72-3.567-1.14-5.815-1.356
		c-0.288-1.624-0.357-3.408-0.172-5.141c0.075-0.067,0.2-0.217,0.344-0.411l-3.692-3.702l6.662-6.925
		c0.091-0.628,0.165-1.283,0.2-1.898c0.135-2.292,0.631-4.759-1.617-7.011c-1.348-1.351-2.898-1.277-2.898-1.277
		s-0.771-0.944-3.572-0.606c-3.31,0.398-4.494,1.979-4.494,1.979s-2.379,1.122-2.514,4.086c-0.133,2.964,0.405,4.718,0.405,4.718
		s0.004,0.019,0.005,0.024l-0.142-0.024c0,0-1.078,0.115-0.943,0.818c0.135,0.704,0.808,2.345,0.808,2.345s0.112,2.522,1.193,2.221
		c0.163,0.867,0.333,1.615,0.426,2.028c0.332,1.462,1.229,3.075,1.763,3.636c0.19,1.739,0.169,3.471-0.131,5.149
		c-2.221,0.217-4.023,0.636-5.741,1.347C5.488,31.205,2.5,25.948,2.5,20c0-9.649,7.851-17.5,17.5-17.5c9.649,0,17.5,7.851,17.5,17.5
		c0,0.881-0.072,1.745-0.199,2.593L39.997,19.888z"/>
</g>
</svg>
