<?xml version="1.0" encoding="utf-8"?>
<!-- Generator: Adobe Illustrator 19.2.0, SVG Export Plug-In . SVG Version: 6.00 Build 0)  -->
<svg version="1.1" id="Layer_2" xmlns="http://www.w3.org/2000/svg" xmlns:xlink="http://www.w3.org/1999/xlink" x="0px" y="0px"
	 viewBox="0 0 74 74" style="enable-background:new 0 0 74 74;" xml:space="preserve">
<g id="Z0AhPt_1_">
	<g>
		<path d="M36.9,22.6c-0.2,0.2-0.3,0.4-0.5,0.6C25.9,33.8,15.3,44.4,4.7,55c-0.6,0.6-1.1,0.9-2,0.7c-1.3-0.3-1.8-1.9-0.9-3
			c0.1-0.1,0.2-0.2,0.4-0.4c11.1-11.1,22.2-22.2,33.3-33.3c1.1-1.1,2-1.1,3.1,0c11.1,11.1,22.2,22.2,33.2,33.2
			c0.5,0.5,0.9,0.9,0.8,1.6c0,0.7-0.4,1.3-1,1.6c-0.7,0.3-1.3,0.2-1.9-0.2c-0.2-0.1-0.3-0.3-0.5-0.5C64.1,49.8,59.1,44.7,54,39.6
			c-5.5-5.5-11-11-16.6-16.5C37.3,23,37.1,22.8,36.9,22.6z"/>
	</g>
</g>
</svg>
