<?xml version="1.0" encoding="utf-8"?>
<!-- Generator: Adobe Illustrator 19.1.1, SVG Export Plug-In . SVG Version: 6.00 Build 0)  -->
<svg version="1.1" xmlns="http://www.w3.org/2000/svg" xmlns:xlink="http://www.w3.org/1999/xlink" x="0px" y="0px" width="36px"
	 height="36px" viewBox="0 0 36 36" enable-background="new 0 0 36 36" xml:space="preserve">
<g id="_x33_2">
	<g>
		<g>
			<path fill="#F0F0F0" d="M37.5,77.7c0-5.5-4.5-10-10-10h-410c-5.5,0-10,4.5-10,10v97c0,5.5,4.5,10,10,10h410c5.5,0,10-4.5,10-10
				V77.7z"/>
		</g>
		<path fill="#F0F0F0" d="M-402.2,69.8c4,3.7,7.8,5.3,11,5.9c0,0,3.9,0.7,5.2,3.3c1.2,2.6,0,13.3-7.5,8.5
			C-401,82.6-402.2,69.8-402.2,69.8z"/>
	</g>
	<g>
		<rect x="-992.5" y="-249.9" fill="#339999" width="1050" height="50"/>
	</g>
	<text transform="matrix(1 0 0 1 -582.5912 -213.8649)" fill="#FFFFFF" font-family="'Comfortaa'" font-size="28px">Тренд от 31gate</text>
	
		<image overflow="visible" width="1439" height="85" xlink:href="AB3FDB0B.jpg"  transform="matrix(1.0007 0 0 1 -1187.4746 460.135)">
	</image>
	<rect x="-1061.2" y="340.1" fill="#FFFFFF" width="1187.5" height="347.4"/>
	<polygon fill="#FFFFFF" points="-946.9,-235.5 -949.3,-237.9 -962.5,-224.9 -949.3,-211.9 -946.9,-214.2 -957.7,-224.9 	"/>
	
		<image overflow="visible" width="640" height="640" xlink:href="AB3FDB09.jpg"  transform="matrix(0.9063 0 0 0.9063 -992.4755 -187.865)">
	</image>
	<rect x="-2314.9" y="-231.5" fill="#339999" width="750" height="102"/>
	<polygon fill="#FFFFFF" points="-2260.9,-196.9 -2264.6,-200.5 -2284.9,-180.5 -2264.6,-160.5 -2260.9,-164.1 -2277.6,-180.5 	"/>
	<text transform="matrix(1 0 0 1 -2087.9199 -166.4567)" fill="#FFFFFF" font-family="'Comfortaa'" font-size="36px">Тренд от 31gate</text>
	<rect x="-2314.9" y="-129.5" fill="#FFFFFF" width="750" height="100"/>
	<text transform="matrix(1 0 0 1 -2205.9131 -89.4528)"><tspan x="0" y="0" fill="#B2B2B2" font-family="'Comfortaa'" font-size="32px">нашел </tspan><tspan x="112.5" y="0" fill="#339999" font-family="'Comfortaa'" font-size="32px">evgesha</tspan><tspan x="0" y="38" fill="#B2B2B2" font-family="'Comfortaa'" font-size="32px">код тренда tg1234</tspan></text>
	
		<image overflow="visible" width="640" height="640" xlink:href="AB3FDB0F.jpg"  transform="matrix(1.1719 0 0 1.1719 -2315.1982 -29.5158)">
	</image>
	<text transform="matrix(1 0 0 1 -2285.9131 868.2108)" fill="#595959" font-family="'Comfortaa'" font-size="32px">Костюм c кристаллами</text>
	<text transform="matrix(1 0 0 1 -2285.9131 923.5428)" fill="#595959" font-family="'Comfortaa'" font-size="32px">Хлопковый удлиненный свитер</text>
	<text transform="matrix(1 0 0 1 -2285.9131 775.4598)"><tspan x="0" y="0" fill="#595959" font-family="'Comfortaa'" font-size="32px">Фетровая сумочка cross body</tspan><tspan x="0" y="38" fill="#595959" font-family="'Comfortaa'" font-size="32px">на цепочке с ремешками на...</tspan></text>
	<text transform="matrix(1 0 0 1 -1701.6138 782.8563)" fill="#595959" font-family="'Comfortaa'" font-size="32px">2 000</text>
	<path fill="#595959" d="M-1601.8,771.8c3.8,0,6.9-3.1,6.9-6.9c0-3.8-3.1-6.9-6.9-6.9h-10.3v11.6h-1.3v2.2h1.3v2h-1.3v2.2h1.3v7.1
		h2.2v-7.1h10v-2.2h-10v-2H-1601.8z M-1610,760.2h8.2c2.6,0,4.7,2.1,4.7,4.7s-2.1,4.7-4.7,4.7h-8.2V760.2z"/>
	
		<text transform="matrix(1 0 0 1 -1764.5854 782.8426)" fill="#B2B2B2" font-family="'Comfortaa'" font-size="22px" text-decoration=" line-through">2 800</text>
	<text transform="matrix(1 0 0 1 -1702.8638 875.5223)" fill="#595959" font-family="'Comfortaa'" font-size="32px">11 500</text>
	<path fill="#595959" d="M-1601.8,864.4c3.8,0,6.9-3.1,6.9-6.9c0-3.8-3.1-6.9-6.9-6.9h-10.3v11.6h-1.3v2.2h1.3v2h-1.3v2.2h1.3v7.1
		h2.2v-7.1h10v-2.2h-10v-2H-1601.8z M-1610,852.8h8.2c2.6,0,4.7,2.1,4.7,4.7s-2.1,4.7-4.7,4.7h-8.2V852.8z"/>
	
		<text transform="matrix(1 0 0 1 -1772.6011 875.5086)" fill="#B2B2B2" font-family="'Comfortaa'" font-size="22px" text-decoration=" line-through">10 000</text>
	<text transform="matrix(1 0 0 1 -1639.7388 931.1893)" fill="#595959" font-family="'Comfortaa'" font-size="32px">?</text>
	<path fill="#595959" d="M-1601.8,920.1c3.8,0,6.9-3.1,6.9-6.9c0-3.8-3.1-6.9-6.9-6.9h-10.3v11.6h-1.3v2.2h1.3v2h-1.3v2.2h1.3v7.1
		h2.2v-7.1h10v-2.2h-10v-2H-1601.8z M-1610,908.5h8.2c2.6,0,4.7,2.1,4.7,4.7c0,2.6-2.1,4.7-4.7,4.7h-8.2V908.5z"/>
	<g>
		<path fill="#F0F0F0" d="M-1594.9,1115.3c0-6.6-5.4-12-12-12h-666c-6.6,0-12,5.4-12,12v219.8c0,6.6,5.4,12,12,12h666
			c6.6,0,12-5.4,12-12V1115.3z"/>
	</g>
	<path fill="#F0F0F0" d="M-2296.9,1106.9c0,0,0.5,22.5,19.8,18.8c8.4-1.6,0-14,0-14S-2288.7,1116.4-2296.9,1106.9z"/>
	<text transform="matrix(1 0 0 1 -2271.5791 1143.4037)"><tspan x="0" y="0" fill="#595959" font-family="'Comfortaa'" font-size="32px">HOT NEW Тёплая парка бренда MABELLE</tspan><tspan x="0" y="38" fill="#595959" font-family="'Comfortaa'" font-size="32px">согреет тебя в самые холодные дни.</tspan><tspan x="0" y="76" fill="#595959" font-family="'Comfortaa'" font-size="32px">Сумка, ботильоны, шапка. Поспеши в</tspan><tspan x="0" y="114" fill="#595959" font-family="'Comfortaa'" font-size="32px">#lomonosova22 пока их не забрали. Все</tspan><tspan x="0" y="152" fill="#595959" font-family="'Comfortaa'" font-size="32px">вещи у нас в наличии и много чего ещё.</tspan><tspan x="0" y="190" fill="#595959" font-family="'Comfortaa'" font-size="32px">Все из новой коллекции.</tspan></text>
	<g>
		<defs>
			<circle id="SVGID_1_" cx="-1629.9" cy="-180.5" r="35"/>
		</defs>
		<clipPath id="SVGID_2_">
			<use xlink:href="#SVGID_1_"  overflow="visible"/>
		</clipPath>
		<g clip-path="url(#SVGID_2_)">
			
				<image overflow="visible" width="150" height="150" xlink:href="AB3FDB08.jpg"  transform="matrix(0.4667 0 0 0.4667 -1664.913 -215.5154)">
			</image>
		</g>
	</g>
	<g>
		<defs>
			<circle id="SVGID_3_" cx="7.5" cy="-224.9" r="20"/>
		</defs>
		<clipPath id="SVGID_4_">
			<use xlink:href="#SVGID_3_"  overflow="visible"/>
		</clipPath>
		<g clip-path="url(#SVGID_4_)">
			
				<image overflow="visible" width="150" height="150" xlink:href="AB3FDB06.jpg"  transform="matrix(0.2667 0 0 0.2667 -12.4755 -244.8654)">
			</image>
		</g>
	</g>
	<g>
		<defs>
			<circle id="SVGID_5_" cx="-2259.9" cy="-79.5" r="35"/>
		</defs>
		<clipPath id="SVGID_6_">
			<use xlink:href="#SVGID_5_"  overflow="visible"/>
		</clipPath>
		<g clip-path="url(#SVGID_6_)">
			
				<image overflow="visible" width="187" height="187" xlink:href="AB3FDB07.jpg"  transform="matrix(0.3743 0 0 0.3743 -2294.9126 -114.5158)">
			</image>
		</g>
	</g>
	<g>
		<text transform="matrix(1 0 0 1 -1685.5376 -66.9299)" fill="#B2B2B2" font-family="'Comfortaa'" font-size="32px">1 день</text>
	</g>
	<g>
		<defs>
			<circle id="SVGID_7_" cx="-372.5" cy="-164.9" r="20"/>
		</defs>
		<clipPath id="SVGID_8_">
			<use xlink:href="#SVGID_7_"  overflow="visible"/>
		</clipPath>
		<g clip-path="url(#SVGID_8_)">
			
				<image overflow="visible" width="187" height="187" xlink:href="AB3FDB17.jpg"  transform="matrix(0.2139 0 0 0.2139 -392.4755 -184.865)">
			</image>
		</g>
	</g>
	
		<image overflow="visible" width="1439" height="103" xlink:href="AB3FDB19.jpg"  transform="matrix(1.0007 0 0 1.0097 -1187.4746 -354.865)">
	</image>
	<text transform="matrix(1 0 0 1 -738.9589 570.4344)" fill="#595959" font-family="'Comfortaa'" font-size="40px">Больше трендов от 31gate</text>
	<g>
		<path fill="#339999" d="M-419,2020.3c-0.8-29.6-25.4-53.5-55.4-53.5c-30.6,0-55.5,24.7-55.5,55s24.9,55,55.5,55v-4.5
			c-28.1,0-50.9-22.7-50.9-50.5c0-27.8,22.8-50.5,50.9-50.5c27.6,0,50.1,21.8,50.9,49h-13.9l16.2,20.9l16.2-20.9H-419z"/>
		<text transform="matrix(1 0 0 1 -509.4731 2030.9462)" fill="#339999" font-family="'Comfortaa'" font-size="32px">еще</text>
	</g>
	<rect x="-992.5" y="1837.8" fill="#FFFFFF" width="1050" height="85"/>
	
		<image overflow="visible" width="306" height="306" xlink:href="AB3FDB1B.jpg"  transform="matrix(1.1372 0 0 1.1372 -290.4746 620.3782)">
	</image>
	<text transform="matrix(1 0 0 1 -982.4745 999.0145)"><tspan x="0" y="0" fill="#808080" font-family="'Comfortaa'" font-size="16px">Платье с расширением в поясе</tspan><tspan x="0" y="19.2" fill="#808080" font-family="'Comfortaa'" font-size="16px">(+3 товара)</tspan></text>
	<g>
		<text transform="matrix(1 0 0 1 -704.0605 999.0145)" fill="#808080" font-family="'Comfortaa'" font-size="16px">1 200</text>
		<path fill="#808080" d="M-657.8,993.5c1.8,0,3.3-1.5,3.3-3.3c0-1.8-1.5-3.3-3.3-3.3h-5v5.6h-0.6v1h0.6v1h-0.6v1h0.6v3.4h1v-3.4
			h4.8v-1h-4.8v-1H-657.8z M-661.7,987.9h3.9c1.2,0,2.3,1,2.3,2.3c0,1.2-1,2.3-2.3,2.3h-3.9V987.9z"/>
	</g>
	<g>
		<text transform="matrix(1 0 0 1 -353.0605 999.0145)" fill="#808080" font-family="'Comfortaa'" font-size="16px">1 200</text>
		<path fill="#808080" d="M-306.8,993.5c1.8,0,3.3-1.5,3.3-3.3c0-1.8-1.5-3.3-3.3-3.3h-5v5.6h-0.6v1h0.6v1h-0.6v1h0.6v3.4h1v-3.4
			h4.8v-1h-4.8v-1H-306.8z M-310.7,987.9h3.9c1.2,0,2.3,1,2.3,2.3c0,1.2-1,2.3-2.3,2.3h-3.9V987.9z"/>
	</g>
	<g>
		<text transform="matrix(1 0 0 1 -2.0605 999.0145)" fill="#808080" font-family="'Comfortaa'" font-size="16px">1 200</text>
		<path fill="#808080" d="M44.2,993.5c1.8,0,3.3-1.5,3.3-3.3c0-1.8-1.5-3.3-3.3-3.3h-5v5.6h-0.6v1h0.6v1h-0.6v1h0.6v3.4h1v-3.4h4.8
			v-1h-4.8v-1H44.2z M40.3,987.9h3.9c1.2,0,2.3,1,2.3,2.3c0,1.2-1,2.3-2.3,2.3h-3.9V987.9z"/>
	</g>
	<text transform="matrix(1 0 0 1 -631.475 999.0145)"><tspan x="0" y="0" fill="#808080" font-family="'Comfortaa'" font-size="16px">Юбка-пачка с поясом-резинкой</tspan><tspan x="0" y="19.2" fill="#808080" font-family="'Comfortaa'" font-size="16px">(+2 товара)</tspan></text>
	<text transform="matrix(1 0 0 1 -280.4741 999.0145)"><tspan x="0" y="0" fill="#808080" font-family="'Comfortaa'" font-size="16px">Блуза со удлиненной спинкой</tspan><tspan x="0" y="19.2" fill="#808080" font-family="'Comfortaa'" font-size="16px">(+2 товара)</tspan></text>
	<g>
		<rect x="-641.5" y="620.4" fill="#FFFFFF" width="348" height="348"/>
		<g>
			<defs>
				<rect id="SVGID_9_" x="-641.5" y="671.1" width="348" height="246.6"/>
			</defs>
			<clipPath id="SVGID_10_">
				<use xlink:href="#SVGID_9_"  overflow="visible"/>
			</clipPath>
			<g clip-path="url(#SVGID_10_)">
				
					<image overflow="visible" width="306" height="306" xlink:href="C03AA8A8.jpg"  transform="matrix(1.1373 0 0 1.1373 -641.4746 620.3782)">
				</image>
			</g>
		</g>
	</g>
	
		<image overflow="visible" width="480" height="480" xlink:href="C03AA8AF.jpg"  transform="matrix(0.725 0 0 0.725 -992.4746 620.3782)">
	</image>
	
		<image overflow="visible" width="480" height="480" xlink:href="C03AA8A9.jpg"  transform="matrix(0.725 0 0 0.725 -992.4746 1056.8274)">
	</image>
	
		<image overflow="visible" width="480" height="480" xlink:href="C03AA8AB.jpg"  transform="matrix(0.725 0 0 0.725 -641.4746 1056.8274)">
	</image>
	
		<image overflow="visible" width="480" height="480" xlink:href="C03AA8B6.jpg"  transform="matrix(0.725 0 0 0.725 -290.4746 1056.8274)">
	</image>
	<text transform="matrix(1 0 0 1 -982.4745 1432.0145)" fill="#808080" font-family="'Comfortaa'" font-size="16px">Кафф с кристаллами &quot;Swarovski&quot;</text>
	<g>
		<text transform="matrix(1 0 0 1 -677.498 1432.0145)" fill="#808080" font-family="'Comfortaa'" font-size="16px">?</text>
		<path fill="#808080" d="M-657.8,1426.5c1.8,0,3.3-1.5,3.3-3.3c0-1.8-1.5-3.3-3.3-3.3h-5v5.6h-0.6v1h0.6v1h-0.6v1h0.6v3.4h1v-3.4
			h4.8v-1h-4.8v-1H-657.8z M-661.7,1420.9h3.9c1.2,0,2.3,1,2.3,2.3c0,1.2-1,2.3-2.3,2.3h-3.9V1420.9z"/>
	</g>
	<g>
		<text transform="matrix(1 0 0 1 -357.4355 1432.0145)" fill="#808080" font-family="'Comfortaa'" font-size="16px">7 000</text>
		<path fill="#808080" d="M-306.8,1426.5c1.8,0,3.3-1.5,3.3-3.3c0-1.8-1.5-3.3-3.3-3.3h-5v5.6h-0.6v1h0.6v1h-0.6v1h0.6v3.4h1v-3.4
			h4.8v-1h-4.8v-1H-306.8z M-310.7,1420.9h3.9c1.2,0,2.3,1,2.3,2.3c0,1.2-1,2.3-2.3,2.3h-3.9V1420.9z"/>
	</g>
	<g>
		<text transform="matrix(1 0 0 1 -11.4355 1432.0145)" fill="#808080" font-family="'Comfortaa'" font-size="16px">13 500</text>
		<path fill="#808080" d="M44.2,1426.5c1.8,0,3.3-1.5,3.3-3.3c0-1.8-1.5-3.3-3.3-3.3h-5v5.6h-0.6v1h0.6v1h-0.6v1h0.6v3.4h1v-3.4h4.8
			v-1h-4.8v-1H44.2z M40.3,1420.9h3.9c1.2,0,2.3,1,2.3,2.3c0,1.2-1,2.3-2.3,2.3h-3.9V1420.9z"/>
	</g>
	<text transform="matrix(1 0 0 1 -631.475 1432.0145)"><tspan x="0" y="0" fill="#808080" font-family="'Comfortaa'" font-size="16px">Длинный свободный сарафан</tspan><tspan x="0" y="19.2" fill="#808080" font-family="'Comfortaa'" font-size="16px">(+1 товар)</tspan></text>
	<text transform="matrix(1 0 0 1 -280.4741 1432.0145)" fill="#808080" font-family="'Comfortaa'" font-size="16px">Комбинезон с принтом</text>
	<text transform="matrix(1 0 0 1 -982.4745 1865.0145)"><tspan x="0" y="0" fill="#808080" font-family="'Comfortaa'" font-size="16px">Хлопковый бадлон с высоким</tspan><tspan x="0" y="19.2" fill="#808080" font-family="'Comfortaa'" font-size="16px">воротом</tspan></text>
	<g>
		<text transform="matrix(1 0 0 1 -709.0605 1865.0145)" fill="#808080" font-family="'Comfortaa'" font-size="16px">6 500</text>
		<path fill="#808080" d="M-657.8,1859.5c1.8,0,3.3-1.5,3.3-3.3c0-1.8-1.5-3.3-3.3-3.3h-5v5.6h-0.6v1h0.6v1h-0.6v1h0.6v3.4h1v-3.4
			h4.8v-1h-4.8v-1H-657.8z M-661.7,1853.9h3.9c1.2,0,2.3,1,2.3,2.3c0,1.2-1,2.3-2.3,2.3h-3.9V1853.9z"/>
	</g>
	<g>
		<text transform="matrix(1 0 0 1 -326.498 1865.0145)" fill="#808080" font-family="'Comfortaa'" font-size="16px">?</text>
		<path fill="#808080" d="M-306.8,1859.5c1.8,0,3.3-1.5,3.3-3.3c0-1.8-1.5-3.3-3.3-3.3h-5v5.6h-0.6v1h0.6v1h-0.6v1h0.6v3.4h1v-3.4
			h4.8v-1h-4.8v-1H-306.8z M-310.7,1853.9h3.9c1.2,0,2.3,1,2.3,2.3c0,1.2-1,2.3-2.3,2.3h-3.9V1853.9z"/>
	</g>
	<g>
		<text transform="matrix(1 0 0 1 -2.0605 1865.0145)" fill="#808080" font-family="'Comfortaa'" font-size="16px">1 200</text>
		<path fill="#808080" d="M44.2,1859.5c1.8,0,3.3-1.5,3.3-3.3c0-1.8-1.5-3.3-3.3-3.3h-5v5.6h-0.6v1h0.6v1h-0.6v1h0.6v3.4h1v-3.4h4.8
			v-1h-4.8v-1H44.2z M40.3,1853.9h3.9c1.2,0,2.3,1,2.3,2.3c0,1.2-1,2.3-2.3,2.3h-3.9V1853.9z"/>
	</g>
	<text transform="matrix(1 0 0 1 -631.475 1865.0145)"><tspan x="0" y="0" fill="#808080" font-family="'Comfortaa'" font-size="16px">Шелковый топ с кружевной</tspan><tspan x="0" y="19.2" fill="#808080" font-family="'Comfortaa'" font-size="16px">отделкой (+1 товар)</tspan></text>
	<text transform="matrix(1 0 0 1 -280.4741 1865.0145)"><tspan x="0" y="0" fill="#808080" font-family="'Comfortaa'" font-size="16px">Букет свежих роз с лентами</tspan><tspan x="0" y="19.2" fill="#808080" font-family="'Comfortaa'" font-size="16px">из шелка (+2 товара)</tspan></text>
	
		<image overflow="visible" width="480" height="480" xlink:href="C03AA8B7.jpg"  transform="matrix(0.725 0 0 0.725 -992.4746 1489.8274)">
	</image>
	
		<image overflow="visible" width="480" height="480" xlink:href="C03AA8B8.jpg"  transform="matrix(0.725 0 0 0.725 -641.4746 1489.8274)">
	</image>
	
		<image overflow="visible" width="480" height="480" xlink:href="C03AA8BB.jpg"  transform="matrix(0.725 0 0 0.725 -290.4746 1489.8274)">
	</image>
	<g>
		<path fill="#339999" d="M-843.9,405.7v34.2h-147.7v-34.2H-843.9 M-843.1,404.8h-149.4v36h149.4V404.8L-843.1,404.8z"/>
	</g>
	<text transform="matrix(1 0 0 1 -974.3686 430.5516)" fill="#339999" font-family="'Comfortaa'" font-size="28px">красный</text>
	<g>
		<path fill="#339999" d="M-853.2,454.3v34.3h-138.4v-34.3H-853.2 M-852.4,453.5h-140.1v36h140.1V453.5L-852.4,453.5z"/>
	</g>
	<text transform="matrix(1 0 0 1 -961.5366 479.2166)" fill="#339999" font-family="'Comfortaa'" font-size="28px">обувь</text>
	<g>
		<path fill="#339999" d="M-608.5,454.6v33.8h-229.2v-33.8H-608.5 M-607.4,453.5h-231.4v36h231.4V453.5L-607.4,453.5z"/>
	</g>
	<text transform="matrix(1 0 0 1 -804.0366 479.2166)" fill="#339999" font-family="'Comfortaa'" font-size="28px">ботфорты</text>
	<g>
		<path fill="#339999" d="M-413.4,454.4v34.1h-180.1v-34.1H-413.4 M-412.5,453.5h-182.1v36h182.1V453.5L-412.5,453.5z"/>
	</g>
	<text transform="matrix(1 0 0 1 -559.2973 479.2166)" fill="#339999" font-family="'Comfortaa'" font-size="28px">одежда</text>
	<g>
		<path fill="#339999" d="M-671,405.7v34.2h-156.9v-34.2H-671 M-670.1,404.8h-158.7v36h158.7V404.8L-670.1,404.8z"/>
	</g>
	<text transform="matrix(1 0 0 1 -809.5903 430.5516)" fill="#339999" font-family="'Comfortaa'" font-size="28px">экокожа</text>
	<g>
		<path fill="#339999" d="M-522.9,405.6V440h-134.4v-34.3H-522.9 M-522.1,404.8h-136.1v36h136.1V404.8L-522.1,404.8z"/>
	</g>
	<text transform="matrix(1 0 0 1 -639.0473 430.5516)" fill="#339999" font-family="'Comfortaa'" font-size="28px">черный</text>
	<g>
		<path fill="#339999" d="M-413.2,405.5v34.6h-96.7v-34.6H-413.2 M-412.5,404.8h-98.1v36h98.1V404.8L-412.5,404.8z"/>
	</g>
	<text transform="matrix(1 0 0 1 -488.8598 430.5516)" fill="#339999" font-family="'Comfortaa'" font-size="28px">мех</text>
	<g>
		<g>
			<rect x="-2064.2" y="1568.5" fill="#FFFFFF" width="248" height="248"/>
			<g>
				<defs>
					<rect id="SVGID_11_" x="-2064.2" y="1604.6" width="248" height="175.7"/>
				</defs>
				<clipPath id="SVGID_12_">
					<use xlink:href="#SVGID_11_"  overflow="visible"/>
				</clipPath>
				<g clip-path="url(#SVGID_12_)">
					
						<image overflow="visible" width="306" height="306" xlink:href="C03AA8B9.jpg"  transform="matrix(0.8105 0 0 0.8105 -2064.1982 1568.5061)">
					</image>
				</g>
			</g>
		</g>
		
			<image overflow="visible" width="480" height="480" xlink:href="C03AA8BF.jpg"  transform="matrix(0.5167 0 0 0.5167 -2315.1982 1568.5061)">
		</image>
		
			<image overflow="visible" width="480" height="480" xlink:href="C03AA8D3.jpg"  transform="matrix(0.5167 0 0 0.5167 -2315.1982 1819.5061)">
		</image>
		
			<image overflow="visible" width="480" height="480" xlink:href="C03AA8DD.jpg"  transform="matrix(0.5167 0 0 0.5167 -2064.1982 1819.5061)">
		</image>
		
			<image overflow="visible" width="480" height="480" xlink:href="C03AA8DF.jpg"  transform="matrix(0.5167 0 0 0.5167 -1813.1982 1819.5061)">
		</image>
		
			<image overflow="visible" width="480" height="480" xlink:href="C03AA8D2.jpg"  transform="matrix(0.5167 0 0 0.5167 -2315.1982 2070.5061)">
		</image>
		
			<image overflow="visible" width="480" height="480" xlink:href="C03AA8D1.jpg"  transform="matrix(0.5167 0 0 0.5167 -2064.1982 2070.5061)">
		</image>
		
			<image overflow="visible" width="480" height="480" xlink:href="C03AA8D5.jpg"  transform="matrix(0.5167 0 0 0.5167 -1813.1982 2070.5061)">
		</image>
		
			<image overflow="visible" width="306" height="306" xlink:href="C03AA8D7.jpg"  transform="matrix(0.8111 0 0 0.8111 -2064.293 2321.5061)">
		</image>
		
			<image overflow="visible" width="248" height="248" xlink:href="C03AA8D0.jpg"  transform="matrix(1.0008 0 0 1.0008 -1813.3867 2321.5061)">
		</image>
		
			<image overflow="visible" width="306" height="306" xlink:href="C03AA8EF.jpg"  transform="matrix(0.8111 0 0 0.8111 -2315.1982 2321.5061)">
		</image>
		
			<image overflow="visible" width="306" height="306" xlink:href="C03AA8CD.jpg"  transform="matrix(0.8105 0 0 0.8105 -1813.1992 1568.5061)">
		</image>
		<g>
			<path fill="#339999" d="M-1891.4,2673.2c-0.8-29.6-25.4-53.5-55.4-53.5c-30.6,0-55.5,24.7-55.5,55s24.9,55,55.5,55v-4.5
				c-28.1,0-50.9-22.7-50.9-50.5c0-27.8,22.8-50.5,50.9-50.5c27.6,0,50.1,21.8,50.9,49h-13.9l16.2,20.9l16.2-20.9H-1891.4z"/>
			<text transform="matrix(1 0 0 1 -1981.9116 2683.8142)" fill="#339999" font-family="'Comfortaa'" font-size="32px">еще</text>
		</g>
		<text transform="matrix(1 0 0 1 -2211.397 1538.2505)" fill="#595959" font-family="'Comfortaa'" font-size="40px">Больше трендов от 31gate</text>
	</g>
	<g>
		<text transform="matrix(1 0 0 1 -2168.8701 1068.2958)" fill="#339999" font-family="'Comfortaa'" font-size="22px">купить</text>
		<text transform="matrix(1 0 0 1 -2284.3799 1068.2958)" fill="#339999" font-family="'Comfortaa'" font-size="22px">тренд</text>
		<path fill="#339999" d="M-2213.3,996.1c-2.8-9.1-13.1-16.7-24.7-12.7c-4.4,1.5-8,4.3-10.5,6.8c-2.5-2.5-6.1-5.3-10.5-6.8
			c-11.7-4-21.9,3.5-24.7,12.7c-3,9.8-3.5,28.2,34.5,49.8c0.3,0.1,0.5,0.3,0.8,0.4c0.3-0.1,0.5-0.3,0.8-0.4
			C-2209.7,1024.3-2210.2,1005.8-2213.3,996.1z"/>
		<text transform="matrix(1 0 0 1 -2048.623 1068.2958)" fill="#339999" font-family="'Comfortaa'" font-size="22px">узнать</text>
		<g>
			<path fill="#339999" d="M-2009.9,982.1c-17.7,0-32,14.3-32,32c0,9.2,3.9,17.4,10,23.2c-1,1.6-2.2,3.1-3.5,4.2
				c-1.9,1.7-4.1,3.1-6.4,4c1.7,0.2,3.2,0.3,4.6,0.3c2.3,0,4.4-0.3,7.2-1.1c1.9-0.6,3.8-1.3,5.5-2.1c4.4,2.2,9.3,3.5,14.6,3.5
				c17.7,0,32-14.3,32-32C-1977.9,996.5-1992.3,982.1-2009.9,982.1z"/>
			<g>
				<circle fill="#FFFFFF" cx="-2026" cy="1014.1" r="5"/>
				<circle fill="#FFFFFF" cx="-2010" cy="1014.1" r="5"/>
				<circle fill="#FFFFFF" cx="-1994" cy="1014.1" r="5"/>
			</g>
		</g>
		<text transform="matrix(1 0 0 1 -1655.7007 1068.2953)" fill="#339999" font-family="'Comfortaa'" font-size="22px">пост</text>
		<text transform="matrix(1 0 0 1 -1765.0171 1068.2953)" fill="#339999" font-family="'Comfortaa'" font-size="22px">блогер</text>
		<g>
			<path fill="#339999" d="M-1614.4,982.1h-25.1c-10.7,0-19.4,8.7-19.4,19.4v25.1c0,10.7,8.7,19.4,19.4,19.4h25.1
				c10.7,0,19.4-8.7,19.4-19.4v-25.1C-1594.9,990.9-1603.6,982.1-1614.4,982.1z"/>
			<path fill="#FFFFFF" d="M-1626.9,1028.1c-7.7,0-14-6.3-14-14s6.3-14,14-14c7.7,0,14,6.3,14,14S-1619.2,1028.1-1626.9,1028.1z"/>
			<circle fill="#FFFFFF" cx="-1608.7" cy="995.9" r="5"/>
		</g>
		<path fill="#339999" d="M-2143.9,985.1c1.8,0,3-1.4,3-3.2v-4.4c0-5.5,4.5-9.9,10-9.9c5.5,0,10,4.5,10,9.9v4.4c0,1.7,1.2,3.2,3,3.2
			c1.8,0,3-1.4,3-3.2v-4.4c0-9-7-16.3-16-16.3s-16,7.3-16,16.3v4.4C-2146.9,983.7-2145.6,985.1-2143.9,985.1z M-2088.4,1043.3
			l-9.8-52.9c-0.3-1.8-2.1-3.8-4-3.8h-57.3c-1.8,0-3.6,2.1-4,3.9l-9.8,52.4c-0.3,1.8,0.9,3.3,2.7,3.3h79.4
			C-2089.3,1046.2-2088.1,1045.1-2088.4,1043.3z M-2144,1003.8c-2.8,0-5-2.2-5-5c0-2.8,2.3-5,5-5c2.8,0,5,2.2,5,5
			C-2138.9,1001.6-2141.2,1003.8-2144,1003.8z M-2117.8,1003.8c-2.8,0-5-2.2-5-5c0-2.8,2.3-5,5-5c2.8,0,5,2.2,5,5
			C-2112.8,1001.6-2115,1003.8-2117.8,1003.8z"/>
		<g>
			<path fill="#339999" d="M-1699,1029.5c-2.4,0-4.5-1.9-4.6-4.4c-1-16.8-14.6-31.3-31.8-33.8c-2.5-0.4-4.3-2.7-3.9-5.3
				c0.4-2.5,2.7-4.3,5.2-3.9c10.4,1.5,20.1,6.6,27.3,14.2c7.4,7.8,11.8,17.8,12.4,28.2c0.1,2.6-1.8,4.8-4.3,4.9
				C-1698.8,1029.5-1698.9,1029.5-1699,1029.5z"/>
			<path fill="#339999" d="M-1716.2,1031.3c-2.3,0-4.2-1.8-4.4-4.1c-0.7-9.2-8.5-17.7-17.5-18.8c-2.4-0.3-4.2-2.5-3.9-5
				c0.3-2.4,2.5-4.2,4.9-3.9c13.2,1.6,24.3,13.5,25.3,26.9c0.2,2.5-1.7,4.6-4.1,4.8C-1716,1031.3-1716.1,1031.3-1716.2,1031.3z"/>
			<path fill="#339999" d="M-1742.9,1015.1c-2.2,0-4.3,0.5-6.2,1.3v-11.3c0-2.6-2.1-4.6-4.6-4.6c-2.5,0-4.6,2.1-4.6,4.6v25.5
				c0,8.6,6.9,15.5,15.4,15.5c8.5,0,15.4-7,15.4-15.5C-1727.5,1022.1-1734.4,1015.1-1742.9,1015.1z M-1742.9,1035.6
				c-2.7,0-5-2.2-5-5c0-2.7,2.2-5,5-5c2.7,0,5,2.2,5,5C-1738,1033.4-1740.2,1035.6-1742.9,1035.6z"/>
		</g>
	</g>
	<text transform="matrix(1 0 0 1 -327.8877 48.1883)" fill="#339999" font-family="'Comfortaa'" font-size="12px">купить</text>
	<text transform="matrix(1 0 0 1 -392.164 48.1883)" fill="#339999" font-family="'Comfortaa'" font-size="12px">тренд</text>
	<path fill="#339999" d="M-352.8,7.3c-1.6-5.1-7.3-9.4-13.9-7.1c-2.5,0.8-4.5,2.4-5.9,3.8c-1.4-1.4-3.4-3-5.9-3.8
		c-6.6-2.3-12.3,2-13.9,7.1c-1.7,5.5-2,15.9,19.4,28c0.1,0.1,0.3,0.2,0.4,0.2c0.1-0.1,0.3-0.2,0.4-0.2
		C-350.8,23.2-351.1,12.8-352.8,7.3z"/>
	<text transform="matrix(1 0 0 1 -261.0273 48.1883)" fill="#339999" font-family="'Comfortaa'" font-size="12px">узнать</text>
	<g>
		<path fill="#339999" d="M-239.9-0.6c-9.9,0-18,8.1-18,18c0,5.2,2.2,9.8,5.6,13.1c-0.6,0.9-1.3,1.7-2,2.4c-1.1,1-2.3,1.7-3.6,2.3
			c1,0.1,1.8,0.2,2.6,0.2c1.3,0,2.5-0.2,4.1-0.6c1.1-0.3,2.1-0.7,3.1-1.2c2.5,1.3,5.2,2,8.2,2c9.9,0,18-8.1,18-18
			C-221.9,7.5-230-0.6-239.9-0.6z"/>
		<g>
			<circle fill="#FFFFFF" cx="-248.9" cy="17.4" r="2.8"/>
			<circle fill="#FFFFFF" cx="-239.9" cy="17.4" r="2.8"/>
			<circle fill="#FFFFFF" cx="-230.9" cy="17.4" r="2.8"/>
		</g>
	</g>
	<path fill="#339999" d="M-314.4,2.2c1,0,1.7-0.8,1.7-1.8V-2c0-3,2.5-5.5,5.5-5.5c3,0,5.5,2.5,5.5,5.5v2.5c0,1,0.7,1.8,1.7,1.8
		c1,0,1.7-0.8,1.7-1.8V-2c0-5-3.9-9-8.8-9c-5,0-8.8,4-8.8,9v2.5C-316,1.5-315.3,2.2-314.4,2.2z M-283.7,34.4l-5.4-29.2
		c-0.2-1-1.2-2.1-2.2-2.1H-323c-1,0-2,1.2-2.2,2.2l-5.4,29c-0.2,1,0.5,1.8,1.5,1.8h43.9C-284.2,36-283.5,35.4-283.7,34.4z
		 M-314.4,12.6c-1.5,0-2.8-1.2-2.8-2.8c0-1.5,1.2-2.8,2.8-2.8c1.5,0,2.8,1.2,2.8,2.8S-312.9,12.6-314.4,12.6z M-299.9,12.6
		c-1.5,0-2.8-1.2-2.8-2.8c0-1.5,1.2-2.8,2.8-2.8c1.5,0,2.8,1.2,2.8,2.8S-298.4,12.6-299.9,12.6z"/>
	<text transform="matrix(1 0 0 1 -3.0942 48.1883)" fill="#339999" font-family="'Comfortaa'" font-size="12px">блогер</text>
	<g>
		<path fill="#339999" d="M33.4,26.7c-1.4,0-2.5-1.1-2.6-2.5c-0.5-9.4-8.2-17.6-17.9-19c-1.4-0.2-2.4-1.5-2.2-3
			c0.2-1.4,1.5-2.4,2.9-2.2C19.5,0.9,25,3.7,29,8c4.1,4.4,6.6,10,7,15.9c0.1,1.4-1,2.7-2.4,2.8C33.5,26.6,33.5,26.7,33.4,26.7z"/>
		<path fill="#339999" d="M23.7,27.7c-1.3,0-2.4-1-2.5-2.3c-0.4-5.2-4.8-9.9-9.8-10.6C10,14.6,9.1,13.4,9.2,12
			c0.2-1.4,1.4-2.4,2.8-2.2c7.4,0.9,13.6,7.6,14.2,15.2c0.1,1.4-0.9,2.6-2.3,2.7C23.8,27.6,23.8,27.7,23.7,27.7z"/>
		<path fill="#339999" d="M8.7,18.5c-1.2,0-2.4,0.3-3.5,0.7v-6.4c0-1.4-1.2-2.6-2.6-2.6c-1.4,0-2.6,1.2-2.6,2.6v14.3
			C0,32.1,3.9,36,8.7,36c4.8,0,8.7-3.9,8.7-8.7C17.3,22.5,13.5,18.5,8.7,18.5z M8.7,30.1c-1.5,0-2.8-1.3-2.8-2.8
			c0-1.5,1.3-2.8,2.8-2.8c1.5,0,2.8,1.3,2.8,2.8C11.5,28.8,10.2,30.1,8.7,30.1z"/>
	</g>
	<rect x="-352.5" y="-199.9" fill="none" width="202" height="70"/>
	<text transform="matrix(1 0 0 1 -332.6758 -170.0651)"><tspan x="0" y="0" fill="#BFBFBF" font-family="'Comfortaa'" font-size="16px">нашел </tspan><tspan x="56.3" y="0" fill="#339999" font-family="'Comfortaa'" font-size="16px">evgesha</tspan><tspan x="0" y="19.2" fill="#BFBFBF" font-family="'Comfortaa'" font-size="16px">код товара tg1234  </tspan></text>
	<rect x="-144.5" y="-199.9" fill="none" width="202" height="70"/>
	<text transform="matrix(1 0 0 1 -6.3877 -158.6647)" fill="#BFBFBF" font-family="'Comfortaa'" font-size="16px">1 день</text>
	<path fill="#595959" d="M33.9-116.4c1.8,0,3.3-1.5,3.3-3.3c0-1.8-1.5-3.3-3.3-3.3h-5v5.6h-0.6v1H29v1h-0.6v1H29v3.4h1v-3.4h4.8v-1
		H30v-1H33.9z M30-122h3.9c1.2,0,2.3,1,2.3,2.3c0,1.2-1,2.3-2.3,2.3H30V-122z"/>
	<rect x="-412.5" y="-144.9" fill="none" width="380" height="70"/>
	<text transform="matrix(1 0 0 1 -392.6758 -115.0651)"><tspan x="0" y="0" fill="#595959" font-family="'Comfortaa'" font-size="16px">Фетровая сумочка cross body на </tspan><tspan x="0" y="19.2" fill="#595959" font-family="'Comfortaa'" font-size="16px">цепочке</tspan></text>
	<rect x="-75.5" y="-144.9" fill="none" width="133" height="70"/>
	<text transform="matrix(1 0 0 1 -43.3564 -110.7648)"><tspan x="0" y="0" fill="#BFBFBF" font-family="'Comfortaa'" font-size="12px" text-decoration=" line-through">2 800</tspan><tspan x="29.8" y="0" fill="#BFBFBF" font-family="'Comfortaa'" font-size="12px"> </tspan><tspan x="33.3" y="0" fill="#595959" font-family="'Comfortaa'" font-size="16px">2000</tspan></text>
	<text transform="matrix(1 0 0 1 -392.4756 -63.5095)" fill="#595959" font-family="'Comfortaa'" font-size="16px">Костюм с кристаллами</text>
	<path fill="#595959" d="M33.9-65.1c1.8,0,3.3-1.5,3.3-3.3c0-1.8-1.5-3.3-3.3-3.3h-5v5.6h-0.6v1H29v1h-0.6v1H29v3.4h1v-3.4h4.8v-1
		H30v-1H33.9z M30-70.7h3.9c1.2,0,2.3,1,2.3,2.3c0,1.2-1,2.3-2.3,2.3H30V-70.7z"/>
	<text transform="matrix(1 0 0 1 -51.8994 -59.6345)"><tspan x="0" y="0" fill="#BFBFBF" font-family="'Comfortaa'" font-size="12px" text-decoration=" line-through">10 000</tspan><tspan x="33" y="0" fill="#BFBFBF" font-family="'Comfortaa'" font-size="12px"> </tspan><tspan x="36.6" y="0" fill="#595959" font-family="'Comfortaa'" font-size="16px">11 500</tspan></text>
	<text transform="matrix(1 0 0 1 -392.4756 -30.843)" fill="#595959" font-family="'Comfortaa'" font-size="16px">Хлопковый удлиненный свитер</text>
	<path fill="#595959" d="M33.9-32.5c1.8,0,3.3-1.5,3.3-3.3c0-1.8-1.5-3.3-3.3-3.3h-5v5.6h-0.6v1H29v1h-0.6v1H29v3.4h1v-3.4h4.8v-1
		H30v-1H33.9z M30-38h3.9c1.2,0,2.3,1,2.3,2.3c0,1.2-1,2.3-2.3,2.3H30V-38z"/>
	<text transform="matrix(1 0 0 1 16.2256 -26.968)" fill="#595959" font-family="'Comfortaa'" font-size="16px">?</text>
	<rect x="-378.5" y="81.7" fill="none" width="402" height="91"/>
	<text transform="matrix(1 0 0 1 -378.4756 94.2606)"><tspan x="0" y="0" fill="#595959" font-family="'Comfortaa'" font-size="16px">HOT NEW</tspan><tspan x="75.3" y="0" fill="#595959" font-family="'MyriadPro-Regular'" font-size="16px"> </tspan><tspan x="78.7" y="0" fill="#595959" font-family="'Comfortaa'" font-size="16px">Тёплая парка бренда MABELLE </tspan><tspan x="0" y="19.2" fill="#595959" font-family="'Comfortaa'" font-size="16px">согреет тебя в самые холодные дни. Сумка, </tspan><tspan x="0" y="38.4" fill="#595959" font-family="'Comfortaa'" font-size="16px">ботильоны,</tspan><tspan x="0" y="57.6" fill="#595959" font-family="'Comfortaa'" font-size="16px">шапка. Поспеши за ними в #lomonosova22 пока их </tspan><tspan x="0" y="76.8" fill="#595959" font-family="'Comfortaa'" font-size="16px">не забрали. Все вещи у нас в наличии и много </tspan></text>
	<g>
		<defs>
			<path id="SVGID_13_" d="M-2315.2-359.5v128h750v-128H-2315.2z"/>
		</defs>
		<clipPath id="SVGID_14_">
			<use xlink:href="#SVGID_13_"  overflow="visible"/>
		</clipPath>
		<g clip-path="url(#SVGID_14_)">
			
				<image overflow="visible" width="719" height="1280" xlink:href="C03AA8F2.jpg"  transform="matrix(1.0431 0 0 1.0422 -2314.8159 -359.3615)">
			</image>
		</g>
	</g>
	<rect x="-372.6" y="-189.3" fill="#595959" width="0.1" height="46.3"/>
</g>
<g id="Layer_2">
	<text transform="matrix(1 0 0 1 315.6397 -29.5563)"><tspan x="0" y="0" fill="#009245" font-family="'ArialMT'" font-size="30px">подписи кнопок</tspan><tspan x="0" y="36" fill="#009245" font-family="'ArialMT'" font-size="30px">и старая цена 12 рх</tspan></text>
	<line fill="none" stroke="#DD0000" stroke-width="0.6499" stroke-miterlimit="10" x1="278.9" y1="-38.8" x2="297.5" y2="-38.8"/>
	<text transform="matrix(1 0 0 1 315.6397 -213.5563)" fill="#009245" font-family="'ArialMT'" font-size="30px">заголовок 28 рх</text>
	<line fill="none" stroke="#DD0000" stroke-width="0.6499" stroke-miterlimit="10" x1="278.9" y1="-222.8" x2="297.5" y2="-222.8"/>
	<text transform="matrix(1 0 0 1 315.6397 -153.5563)" fill="#009245" font-family="'ArialMT'" font-size="30px">основной текст 16 рх</text>
	<line fill="none" stroke="#DD0000" stroke-width="0.6499" stroke-miterlimit="10" x1="278.9" y1="-160.8" x2="297.5" y2="-160.8"/>
	<text transform="matrix(1 0 0 1 -1517.9414 -69.5563)"><tspan x="0" y="0" fill="#F15A24" font-family="'ArialMT'" font-size="30px">показывает, сколько</tspan><tspan x="0" y="36" fill="#F15A24" font-family="'ArialMT'" font-size="30px">времени назад</tspan><tspan x="0" y="72" fill="#F15A24" font-family="'ArialMT'" font-size="30px">это фото было</tspan><tspan x="0" y="108" fill="#F15A24" font-family="'ArialMT'" font-size="30px">добавлено в Инсту</tspan><tspan x="0" y="144" fill="#F15A24" font-family="'ArialMT'" font-size="30px">в формате даты</tspan><tspan x="0" y="180" fill="#F15A24" font-family="'ArialMT'" font-size="30px">в спсике чатов</tspan></text>
	
		<line fill="none" stroke="#DD0000" stroke-width="0.6499" stroke-miterlimit="10" x1="-1548.7" y1="-76.8" x2="-1530.1" y2="-76.8"/>
	<text transform="matrix(1 0 0 1 -1384.0918 433.3528)" fill="#009245" font-family="'ArialMT'" font-size="30px">теги 28 рх</text>
	<line fill="none" stroke="#DD0000" stroke-width="0.6499" stroke-miterlimit="10" x1="-1229.6" y1="424.1" x2="-1211" y2="424.1"/>
	<text transform="matrix(1 0 0 1 -1467.7256 567.3553)" fill="#009245" font-family="'ArialMT'" font-size="30px">заголовок 40 рх</text>
	<line fill="none" stroke="#DD0000" stroke-width="0.6499" stroke-miterlimit="10" x1="-1232.6" y1="558.2" x2="-1214" y2="558.2"/>
	<text transform="matrix(1 0 0 1 -2590.8223 -169.5563)"><tspan x="0" y="0" fill="#009245" font-family="'ArialMT'" font-size="30px">заголовок 36 рх</tspan><tspan x="0" y="36" fill="#009245" font-family="'ArialMT'" font-size="30px">адаптивен</tspan></text>
	
		<line fill="none" stroke="#DD0000" stroke-width="0.6499" stroke-miterlimit="10" x1="-2360.7" y1="-178.8" x2="-2342.1" y2="-178.8"/>
	<text transform="matrix(1 0 0 1 -2524.0889 -67.5563)"><tspan x="0" y="0" fill="#009245" font-family="'ArialMT'" font-size="30px">текст 32 рх</tspan><tspan x="0" y="36" fill="#009245" font-family="'ArialMT'" font-size="30px">адаптивен </tspan></text>
	
		<line fill="none" stroke="#DD0000" stroke-width="0.6499" stroke-miterlimit="10" x1="-2360.7" y1="-76.8" x2="-2342.1" y2="-76.8"/>
	<text transform="matrix(1 0 0 1 -2690.2031 1028.4437)"><tspan x="0" y="0" fill="#009245" font-family="'ArialMT'" font-size="30px">старые цены и</tspan><tspan x="0" y="36" fill="#009245" font-family="'ArialMT'" font-size="30px">подписи кнопок - 22 рх</tspan><tspan x="0" y="72" fill="#009245" font-family="'ArialMT'" font-size="30px">адаптивны</tspan></text>
	
		<line fill="none" stroke="#DD0000" stroke-width="0.6499" stroke-miterlimit="10" x1="-2360.7" y1="1059.2" x2="-2342.1" y2="1059.2"/>
	<text transform="matrix(1 0 0 1 -2668.2031 810.4437)"><tspan x="0" y="0" fill="#009245" font-family="'ArialMT'" font-size="30px">список товаров</tspan><tspan x="0" y="36" fill="#009245" font-family="'ArialMT'" font-size="30px">и новые цены - 22 рх</tspan><tspan x="0" y="72" fill="#009245" font-family="'ArialMT'" font-size="30px">адаптивны</tspan></text>
	
		<line fill="none" stroke="#DD0000" stroke-width="0.6499" stroke-miterlimit="10" x1="-2360.7" y1="839.2" x2="-2342.1" y2="839.2"/>
	<text transform="matrix(1 0 0 1 -2509.9541 1403.9408)"><tspan x="0" y="0" fill="#009245" font-family="'ArialMT'" font-size="30px">теги 36 рх</tspan><tspan x="0" y="36" fill="#009245" font-family="'ArialMT'" font-size="30px">адаптивны</tspan></text>
	
		<line fill="none" stroke="#DD0000" stroke-width="0.6499" stroke-miterlimit="10" x1="-2360.7" y1="1394.7" x2="-2342.1" y2="1394.7"/>
	<text transform="matrix(1 0 0 1 -2665.9463 1225.4496)"><tspan x="0" y="0" fill="#009245" font-family="'ArialMT'" font-size="30px">осноаной текст 32 рх</tspan><tspan x="0" y="36" fill="#009245" font-family="'ArialMT'" font-size="30px">адаптивен</tspan></text>
	<text transform="matrix(1 0 0 1 -2665.9463 2659.3782)"><tspan x="0" y="0" fill="#009245" font-family="'ArialMT'" font-size="30px">текст в стрелке - 32 рх</tspan><tspan x="0" y="36" fill="#009245" font-family="'ArialMT'" font-size="30px">неадаптивен</tspan></text>
	
		<line fill="none" stroke="#DD0000" stroke-width="0.6499" stroke-miterlimit="10" x1="-2360.7" y1="1216.2" x2="-2342.1" y2="1216.2"/>
	<text transform="matrix(1 0 0 1 -2590.5879 1527.4613)"><tspan x="0" y="0" fill="#009245" font-family="'ArialMT'" font-size="30px">заголовок 40 рх</tspan><tspan x="0" y="36" fill="#009245" font-family="'ArialMT'" font-size="30px">неадапт.</tspan></text>
	
		<line fill="none" stroke="#DD0000" stroke-width="0.6499" stroke-miterlimit="10" x1="-2360.7" y1="1518.3" x2="-2342.1" y2="1518.3"/>
	<g>
		<g>
			<path fill="#339999" d="M-2059.9,1378.1v42h-254.3v-42H-2059.9 M-2058.9,1377.1h-256.3v44h256.3V1377.1L-2058.9,1377.1z"/>
		</g>
		<text transform="matrix(1 0 0 1 -2259.8418 1409.0653)" fill="#339999" font-family="'Comfortaa'" font-size="36px">красный</text>
		<g>
			<path fill="#339999" d="M-2133.5,1434.1v42h-180.7v-42H-2133.5 M-2132.5,1433.1h-182.7v44h182.7V1433.1L-2132.5,1433.1z"/>
		</g>
		<text transform="matrix(1 0 0 1 -2259.0088 1465.0653)" fill="#339999" font-family="'Comfortaa'" font-size="36px">мех</text>
		<g>
			<path fill="#339999" d="M-1905.5,1434.1v42h-214.2v-42H-1905.5 M-1904.5,1433.1h-216.2v44h216.2V1433.1L-1904.5,1433.1z"/>
		</g>
		<text transform="matrix(1 0 0 1 -2062.8975 1465.0653)" fill="#339999" font-family="'Comfortaa'" font-size="36px">обувь</text>
		<g>
			<path fill="#339999" d="M-1566.2,1434.1v42h-326v-42H-1566.2 M-1565.2,1433.1h-328v44h328V1433.1L-1565.2,1433.1z"/>
		</g>
		<text transform="matrix(1 0 0 1 -1833.2485 1465.0653)" fill="#339999" font-family="'Comfortaa'" font-size="36px">ботфорты</text>
		<g>
			<path fill="#339999" d="M-1796.2,1378.1v42h-249.8v-42H-1796.2 M-1795.2,1377.1h-251.8v44h251.8V1377.1L-1795.2,1377.1z"/>
		</g>
		<text transform="matrix(1 0 0 1 -1998.3911 1409.0653)" fill="#339999" font-family="'Comfortaa'" font-size="36px">экокожа</text>
		<g>
			<path fill="#339999" d="M-1566.2,1378.1v42h-216v-42H-1566.2 M-1565.2,1377.1h-218v44h218V1377.1L-1565.2,1377.1z"/>
		</g>
		<text transform="matrix(1 0 0 1 -1737.1069 1409.0653)" fill="#339999" font-family="'Comfortaa'" font-size="36px">черный</text>
	</g>
</g>
</svg>
