<?xml version="1.0" encoding="utf-8"?>
<!-- Generator: Adobe Illustrator 19.2.0, SVG Export Plug-In . SVG Version: 6.00 Build 0)  -->
<svg version="1.1" id="Layer_1" xmlns="http://www.w3.org/2000/svg" xmlns:xlink="http://www.w3.org/1999/xlink" x="0px" y="0px"
	 viewBox="0 0 100 100" style="enable-background:new 0 0 100 100;" xml:space="preserve">
<g>
	<path d="M92.8,74c-3.8,0-7-3-7.2-6.8C84.1,41,62.7,18.3,35.9,14.4c-3.9-0.6-6.7-4.3-6.1-8.2c0.6-4,4.2-6.7,8.2-6.1
		c16.2,2.4,31.3,10.2,42.7,22.2C92.2,34.5,99,50.1,100,66.4c0.2,4-2.8,7.4-6.8,7.7C93.1,74,92.9,74,92.8,74z"/>
	<path d="M65.9,76.8c-3.6,0-6.6-2.8-6.9-6.4C57.9,55.9,45.7,42.8,31.6,41c-3.8-0.5-6.5-3.9-6-7.8c0.5-3.8,3.9-6.5,7.7-6.1
		c20.6,2.5,37.9,21,39.5,42.1c0.3,3.8-2.6,7.2-6.4,7.5C66.2,76.8,66,76.8,65.9,76.8z"/>
	<path d="M24.1,51.5c-3.4,0-6.7,0.7-9.7,2V35.9c0-4-3.2-7.2-7.2-7.2c-4,0-7.2,3.2-7.2,7.2v39.8C0,89.1,10.8,100,24.1,100
		c13.3,0,24.1-10.9,24.1-24.2C48.2,62.4,37.4,51.5,24.1,51.5z M24.1,83.5c-4.3,0-7.8-3.5-7.8-7.8c0-4.3,3.5-7.8,7.8-7.8
		c4.3,0,7.8,3.5,7.8,7.8C31.8,80.1,28.4,83.5,24.1,83.5z"/>
</g>
</svg>
