<?xml version="1.0" encoding="utf-8"?>
<!-- Generator: Adobe Illustrator 18.0.0, SVG Export Plug-In . SVG Version: 6.00 Build 0)  -->
<!DOCTYPE svg PUBLIC "-//W3C//DTD SVG 1.1//EN" "http://www.w3.org/Graphics/SVG/1.1/DTD/svg11.dtd">
<svg version="1.1" id="Layer_1" xmlns="http://www.w3.org/2000/svg" xmlns:xlink="http://www.w3.org/1999/xlink" x="0px" y="0px"
	 viewBox="0 0 33 33" enable-background="new 0 0 33 33" xml:space="preserve">
<path fill="#FFFFFF" d="M17,1C8.2,1,1,8.2,1,17c0,4.6,1.9,8.7,5,11.6c-0.5,0.8-1.1,1.5-1.8,2.1c-1,0.9-2,1.5-3.2,2
	c0.9,0.1,1.6,0.1,2.3,0.1c1.1,0,2.2-0.1,3.6-0.6c1-0.3,1.9-0.7,2.7-1.1c2.2,1.1,4.7,1.8,7.3,1.8c8.8,0,16-7.2,16-16
	C33,8.2,25.8,1,17,1z M17,31C9.3,31,3,24.8,3,17C3,9.3,9.3,3,17,3c7.7,0,14,6.3,14,14C31,24.8,24.7,31,17,31z M17,5
	C10.4,5,5,10.4,5,17c0,6.6,5.4,12,12,12c6.6,0,12-5.4,12-12C29,10.4,23.6,5,17,5z M17,27c-5.5,0-10-4.5-10-10c0-5.5,4.5-10,10-10
	c5.5,0,10,4.5,10,10C27,22.5,22.5,27,17,27z M17,9c-4.4,0-8,3.6-8,8c0,4.4,3.6,8,8,8c4.4,0,8-3.6,8-8C25,12.6,21.4,9,17,9z M17,23
	c-3.3,0-6-2.7-6-6c0-3.3,2.7-6,6-6s6,2.7,6,6C23,20.3,20.3,23,17,23z M17,13c-2.2,0-4,1.8-4,4c0,2.2,1.8,4,4,4c2.2,0,4-1.8,4-4
	C21,14.8,19.2,13,17,13z M17,19c-1.1,0-2-0.9-2-2c0-1.1,0.9-2,2-2c1.1,0,2,0.9,2,2C19,18.1,18.1,19,17,19z"/>
</svg>
