<?xml version="1.0" encoding="utf-8"?>
<!-- Generator: Adobe Illustrator 20.1.0, SVG Export Plug-In . SVG Version: 6.00 Build 0)  -->
<svg version="1.1" id="Слой_1" xmlns="http://www.w3.org/2000/svg" xmlns:xlink="http://www.w3.org/1999/xlink" x="0px" y="0px"
	 viewBox="0 0 10 10" style="enable-background:new 0 0 10 10;" xml:space="preserve">
<style type="text/css">
	.st0{fill:#31BEBC;}
</style>
<path class="st0" d="M5,1.9L3.1,3.8C3,3.9,3,4.1,3.1,4.3c0.1,0.1,0.3,0.1,0.5,0l1.1-1.1v4.6c0,0.2,0.2,0.3,0.3,0.3
	c0.2,0,0.3-0.2,0.3-0.3V3.2l1.1,1.1c0.1,0.1,0.2,0.1,0.2,0.1s0.2,0,0.2-0.1C7,4.1,7,3.9,6.9,3.8L5,1.9z M5,0C2.2,0,0,2.2,0,5
	s2.2,5,5,5c2.8,0,5-2.2,5-5S7.8,0,5,0z M5,9.3C2.6,9.3,0.7,7.4,0.7,5c0-2.4,1.9-4.3,4.3-4.3S9.3,2.6,9.3,5C9.3,7.4,7.4,9.3,5,9.3z"
	/>
</svg>
