<?xml version="1.0" encoding="utf-8"?>
<!-- Generator: Adobe Illustrator 16.0.0, SVG Export Plug-In . SVG Version: 6.00 Build 0)  -->
<!DOCTYPE svg PUBLIC "-//W3C//DTD SVG 1.1//EN" "http://www.w3.org/Graphics/SVG/1.1/DTD/svg11.dtd">
<svg version="1.1" id="Layer_1" xmlns="http://www.w3.org/2000/svg" xmlns:xlink="http://www.w3.org/1999/xlink" x="0px" y="0px"
	 width="250px" height="250px" viewBox="0 0 250 250" enable-background="new 0 0 250 250" xml:space="preserve">
<g>
	<path d="M125,212.5c-48.245,0-87.5-39.256-87.5-87.5c0-48.245,39.255-87.5,87.5-87.5c48.244,0,87.5,39.255,87.5,87.5
		C212.5,173.244,173.244,212.5,125,212.5z M125,55c-38.598,0-70,31.402-70,70s31.402,70,70,70s70-31.402,70-70S163.598,55,125,55z"
		/>
	<polygon points="170.938,133.75 116.25,133.75 116.25,71.107 133.75,71.107 133.75,116.25 170.938,116.25 	"/>
</g>
</svg>
