<?xml version="1.0" encoding="utf-8"?>
<!-- Generator: Adobe Illustrator 16.0.0, SVG Export Plug-In . SVG Version: 6.00 Build 0)  -->
<!DOCTYPE svg PUBLIC "-//W3C//DTD SVG 1.1//EN" "http://www.w3.org/Graphics/SVG/1.1/DTD/svg11.dtd">
<svg version="1.1" id="Layer_1" xmlns="http://www.w3.org/2000/svg" xmlns:xlink="http://www.w3.org/1999/xlink" x="0px" y="0px"
	 width="44px" height="44px" viewBox="0 0 50 50" enable-background="new 0 0 50 50" xml:space="preserve">
<path d="M25,0C11.19,0,0,11.192,0,24.998c0,7.156,3.01,13.604,7.828,18.161c-0.795,1.263-1.746,2.386-2.749,3.298
	c-1.485,1.355-3.172,2.39-5.003,3.132c1.347,0.136,2.506,0.228,3.626,0.228c1.785,0,3.463-0.23,5.645-0.887
	c1.509-0.453,2.933-1.024,4.267-1.678C17.027,49.007,20.898,50,25,50c13.807,0,25-11.192,25-25.001C50,11.189,38.807,0,25,0z
	 M25,46.871c-12.08,0-21.875-9.794-21.875-21.873C3.125,12.92,12.92,3.125,25,3.125c12.083,0,21.875,9.795,21.875,21.873
	C46.875,37.077,37.08,46.871,25,46.871z M25,6.252c-10.341,0-18.749,8.408-18.749,18.746c0,10.337,8.408,18.747,18.749,18.747
	c10.338,0,18.748-8.41,18.748-18.747C43.748,14.66,35.338,6.252,25,6.252z M25,40.623c-8.616,0-15.625-7.01-15.625-15.625
	S16.384,9.373,25,9.373s15.626,7.01,15.626,15.625C40.626,33.614,33.616,40.623,25,40.623z M25,12.5
	c-6.893,0-12.5,5.605-12.5,12.498S18.107,37.497,25,37.497s12.5-5.606,12.5-12.499S31.893,12.5,25,12.5z M25,34.372
	c-5.168,0-9.375-4.206-9.375-9.374s4.206-9.373,9.375-9.373c5.168,0,9.374,4.205,9.374,9.373S30.168,34.372,25,34.372z M25,18.747
	c-3.448,0-6.251,2.804-6.251,6.251c0,3.448,2.806,6.251,6.251,6.251s6.252-2.803,6.252-6.251S28.448,18.747,25,18.747z M25,28.124
	c-1.724,0-3.125-1.402-3.125-3.126s1.402-3.125,3.125-3.125c1.725,0,3.126,1.401,3.126,3.125S26.725,28.124,25,28.124z"/>
</svg>
