<?xml version="1.0" encoding="utf-8"?>
<!-- Generator: Adobe Illustrator 19.0.0, SVG Export Plug-In . SVG Version: 6.00 Build 0)  -->
<svg version="1.1" id="Layer_1" xmlns="http://www.w3.org/2000/svg" xmlns:xlink="http://www.w3.org/1999/xlink" x="0px" y="0px"
	 viewBox="0 0 44 42" style="enable-background:new 0 0 44 42;" xml:space="preserve">
<style type="text/css">
	.st0{fill:#FFFFFF;}
</style>
<polygon id="XMLID_2_" class="st0" points="22,27.5 28.9,39.6 30,41.5 32,40.4 34,39.2 36,38.1 34.8,36.1 27.8,24.1 41.7,24.2 
	44,24.2 44,17.3 41.7,17.3 27.8,17.4 34.8,5.4 36,3.4 34,2.3 31.9,1.1 29.9,0 28.8,2 22,14 15.1,2 13.9,0 12,1.1 10,2.3 8,3.4 
	9.1,5.4 16.2,17.4 2.3,17.3 0,17.3 0,24.2 2.3,24.2 16.2,24.1 9.1,36.1 8,38.1 10,39.2 12.1,40.4 14,41.5 15.1,39.6 "/>
</svg>
