<?xml version="1.0" encoding="UTF-8" standalone="no"?>
<svg width="725px" height="1000px" viewBox="0 0 725 1000" version="1.1" xmlns="http://www.w3.org/2000/svg" xmlns:xlink="http://www.w3.org/1999/xlink" xmlns:sketch="http://www.bohemiancoding.com/sketch/ns">
    <!-- Generator: Sketch 3.5.2 (25235) - http://www.bohemiancoding.com/sketch -->
    <title>currency-rub</title>
    <desc>Created with Sketch.</desc>
    <defs></defs>
    <g id="Page-1" stroke="none" stroke-width="1" fill="none" fill-rule="evenodd" sketch:type="MSPage">
        <path d="M50,0 L450,0 C601.878306,9.29986408e-15 725,123.121694 725,275 C725,426.878306 601.878306,550 450,550 L150,550 L150,610 L530,610 L530,710 L150,710 L150,1000 L50,1000 L50,710 L0,710 L0,610 L50,610 L50,550 L0,550 L0,450 L50,450 L50,0 Z M150,100 L450,100 C546.649831,100 625,178.350169 625,275 C625,371.649831 546.649831,450 450,450 L150,450 L150,100 Z" id="currency-rub" fill="#000000" sketch:type="MSShapeGroup"></path>
    </g>
</svg>