<?xml version="1.0" encoding="utf-8"?>
<!-- Generator: Adobe Illustrator 19.2.0, SVG Export Plug-In . SVG Version: 6.00 Build 0)  -->
<svg version="1.1" id="Layer_1" xmlns="http://www.w3.org/2000/svg" xmlns:xlink="http://www.w3.org/1999/xlink" x="0px" y="0px"
	 viewBox="0 0 100 100" style="enable-background:new 0 0 100 100;" xml:space="preserve">
<path d="M50,0C22.4,0,0,22.4,0,50c0,14.3,6,27.2,15.6,36.3c-1.6,2.5-3.5,4.8-5.5,6.6c-3,2.7-6.3,4.8-10,6.3c2.7,0.3,5,0.5,7.3,0.5
	c3.6,0,6.9-0.5,11.3-1.8c3-0.9,5.9-2.1,8.5-3.4C34,98,41.8,100,50,100c27.6,0,50-22.4,50-50C100,22.4,77.6,0,50,0z M25,57.8
	c-4.3,0-7.8-3.5-7.8-7.8c0-4.3,3.5-7.8,7.8-7.8c4.3,0,7.8,3.5,7.8,7.8C32.8,54.3,29.3,57.8,25,57.8z M50,57.8
	c-4.3,0-7.8-3.5-7.8-7.8c0-4.3,3.5-7.8,7.8-7.8c4.3,0,7.8,3.5,7.8,7.8C57.8,54.3,54.3,57.8,50,57.8z M75,57.8
	c-4.3,0-7.8-3.5-7.8-7.8c0-4.3,3.5-7.8,7.8-7.8c4.3,0,7.8,3.5,7.8,7.8C82.8,54.3,79.3,57.8,75,57.8z"/>
</svg>
