<?xml version="1.0" encoding="utf-8"?>
<!-- Generator: Adobe Illustrator 16.0.0, SVG Export Plug-In . SVG Version: 6.00 Build 0)  -->
<!DOCTYPE svg PUBLIC "-//W3C//DTD SVG 1.1//EN" "http://www.w3.org/Graphics/SVG/1.1/DTD/svg11.dtd">
<svg version="1.1" id="Layer_1" xmlns="http://www.w3.org/2000/svg" xmlns:xlink="http://www.w3.org/1999/xlink" x="0px" y="0px"
	 width="40px" height="40px" viewBox="0 0 40 40" enable-background="new 0 0 40 40" xml:space="preserve">
<path d="M39.975,33.98V5.699c0-0.699,0-1.5-0.1-2.099c-0.3-1.1-0.898-2.099-1.799-2.698c-1.299-1-2.598-0.899-4.797-0.899H4.104
	c-0.1,0.1-0.399,0-0.5,0.1c-0.3,0.1-0.6,0.2-0.899,0.3C1.706,0.801,0.806,1.701,0.406,2.7c-0.4,0.899-0.4,2-0.4,3.297v27.782
	c0,1.399-0.1,2.799,0.5,3.697c0.699,1.1,1.599,2,2.998,2.398c0.6,0.1,1.499,0.1,2.198,0.1h28.077c0.801,0,1.8,0.101,2.498-0.1
	c0.9-0.3,1.5-0.699,2.199-1.199c0.699-0.499,1.199-1.697,1.398-2.697C40.074,35.48,39.975,34.58,39.975,33.98z M27.385,7.796
	c0,1.5,0,1.5,0,2.999c-1.1,0-2.299-0.099-3.396,0c-1.1,0.2-1.6,0.7-1.799,1.799c-0.201,1.3,0,3.897,0,3.897s0.799,0,1,0h3.996
	l-0.699,5.097h-4.297V34.98h-5.295V21.788h-4.497V16.69h4.497v-0.999c0-1.999-0.1-4.498,0.6-6.096
	c0.799-1.6,2.198-2.699,3.896-3.199c1.998-0.5,4.098-0.199,6.096-0.1C27.385,7.796,27.385,6.897,27.385,7.796z"/>
<g id="Layer_2" display="none">
	<g display="inline">
		<path fill="#FF0000" d="M803.8,49.2v896h-1436v-896H803.8 M805.8,47.2h-1440v900h1440V47.2L805.8,47.2z"/>
	</g>
	<g display="inline">
		<path fill="#FF0000" d="M-933.9,48.9v1330.5h-746.5V48.9H-933.9 M-932.2,47.2h-750v1334h750V47.2L-932.2,47.2z"/>
	</g>
</g>
</svg>
