<?xml version="1.0" encoding="utf-8"?>
<!-- Generator: Adobe Illustrator 16.0.0, SVG Export Plug-In . SVG Version: 6.00 Build 0)  -->
<!DOCTYPE svg PUBLIC "-//W3C//DTD SVG 1.1//EN" "http://www.w3.org/Graphics/SVG/1.1/DTD/svg11.dtd">
<svg version="1.1" id="Layer_1" xmlns="http://www.w3.org/2000/svg" xmlns:xlink="http://www.w3.org/1999/xlink" x="0px" y="0px"
	 width="50px" height="37px" viewBox="0 0 50 37" enable-background="new 0 0 50 37" xml:space="preserve">
<path d="M48.298,9.839L22.633,35.306C21.542,36.39,20.065,37,18.526,37s-3.02-0.61-4.106-1.694L1.703,22.687
	c-2.271-2.251-2.271-5.895,0-8.152c1.087-1.081,2.565-1.687,4.106-1.687c1.539,0,3.008,0.606,4.098,1.687l7.584,7.524
	c0.277,0.273,0.647,0.424,1.035,0.424c0.385,0,0.764-0.15,1.035-0.424L40.084,1.693C41.174,0.61,42.651,0,44.19,0
	c1.539,0.007,3.017,0.61,4.107,1.693C50.568,3.942,50.568,7.589,48.298,9.839L48.298,9.839z"/>
</svg>
