<?xml version="1.0" encoding="utf-8"?>
<!-- Generator: Adobe Illustrator 16.0.0, SVG Export Plug-In . SVG Version: 6.00 Build 0)  -->
<!DOCTYPE svg PUBLIC "-//W3C//DTD SVG 1.1//EN" "http://www.w3.org/Graphics/SVG/1.1/DTD/svg11.dtd">
<svg version="1.1" id="Layer_1" xmlns="http://www.w3.org/2000/svg" xmlns:xlink="http://www.w3.org/1999/xlink" x="0px" y="0px"
	 width="46px" height="46px" viewBox="0 0 46 46" enable-background="new 0 0 46 46" xml:space="preserve">
<path d="M23,0C10.299,0,0,10.297,0,23s10.299,23,23,23c12.703,0,23-10.297,23-23S35.703,0,23,0z M23,41c-9.924,0-18-8.075-18-18
	c0-9.926,8.076-18,18-18c9.926,0,18,8.074,18,18C41,32.925,32.926,41,23,41z M23.918,15.843c1.449-0.033,2.598-1.235,2.564-2.685
	c-0.033-1.448-1.234-2.597-2.684-2.563s-2.598,1.235-2.564,2.684C21.268,14.728,22.469,15.876,23.918,15.843z M27.744,30.422
	c-0.475,0.428-0.951,0.793-1.43,1.098c-0.477,0.305-0.928,0.461-1.35,0.471c-0.363,0.008-0.621-0.143-0.779-0.449
	c-0.156-0.307-0.27-0.723-0.336-1.248c-0.07-0.539-0.063-1.137,0.023-1.799c0.084-0.66,1.004-7.897,1.064-8.369
	c0.059-0.473,0.074-0.836,0.041-1.094c-0.039-0.304-0.158-0.545-0.352-0.723c-0.197-0.177-0.537-0.259-1.02-0.248
	c-0.266,0.006-0.557,0.045-0.877,0.118c-0.32,0.071-0.625,0.18-0.912,0.322s-0.537,0.324-0.752,0.542
	c-0.234,0.241-0.361,0.512-0.381,0.809c-0.051,0.424-0.209,1.338-0.475,2.745c-0.26,1.722-0.668,4.737-0.746,6.776
	c-0.037,0.984-0.008,1.846,0.086,2.582c0.066,0.525,0.184,1.006,0.352,1.441s0.4,0.805,0.697,1.102
	c0.297,0.299,0.664,0.527,1.102,0.686c0.438,0.16,0.961,0.234,1.57,0.221c0.68-0.016,1.381-0.154,2.105-0.418
	c0.723-0.262,1.426-0.586,2.105-0.971c0.678-0.385,1.303-0.805,1.873-1.256C29.928,32.307,28.217,29.994,27.744,30.422z"/>
</svg>
