<?xml version="1.0" encoding="utf-8"?>
<!-- Generator: Adobe Illustrator 19.2.0, SVG Export Plug-In . SVG Version: 6.00 Build 0)  -->
<svg version="1.1" id="Layer_1" xmlns="http://www.w3.org/2000/svg" xmlns:xlink="http://www.w3.org/1999/xlink" x="0px" y="0px"
	 viewBox="0 0 100 100" style="enable-background:new 0 0 100 100;" xml:space="preserve">
<path d="M69.6,0H30.4C13.6,0,0,13.6,0,30.4v39.2C0,86.4,13.6,100,30.4,100h39.2c16.8,0,30.4-13.6,30.4-30.4V30.4
	C100,13.6,86.4,0,69.6,0z M50,71.9c-12.1,0-21.9-9.8-21.9-21.9S37.9,28.1,50,28.1c12.1,0,21.9,9.8,21.9,21.9S62.1,71.9,50,71.9z
	 M78.5,29.3c-4.3,0-7.8-3.5-7.8-7.8c0-4.3,3.5-7.8,7.8-7.8s7.8,3.5,7.8,7.8C86.2,25.8,82.8,29.3,78.5,29.3z"/>
</svg>
