<?xml version="1.0" encoding="utf-8"?>
<!-- Generator: Adobe Illustrator 16.0.0, SVG Export Plug-In . SVG Version: 6.00 Build 0)  -->
<!DOCTYPE svg PUBLIC "-//W3C//DTD SVG 1.1//EN" "http://www.w3.org/Graphics/SVG/1.1/DTD/svg11.dtd">
<svg version="1.1" id="Layer_1" xmlns="http://www.w3.org/2000/svg" xmlns:xlink="http://www.w3.org/1999/xlink" x="0px" y="0px"
	 width="50px" height="50px" viewBox="0 0 50 50" enable-background="new 0 0 50 50" xml:space="preserve">
<path d="M32.845,8.39h-15.69c-4.833,0-8.766,3.933-8.766,8.765v15.691c0,4.832,3.933,8.766,8.766,8.766h15.69
	c4.832,0,8.766-3.934,8.766-8.766V17.154C41.608,12.322,37.677,8.39,32.845,8.39z M25,35.323c-5.693,0-10.326-4.63-10.326-10.323
	c0-5.694,4.632-10.325,10.326-10.325c5.691,0,10.322,4.631,10.322,10.325C35.321,30.693,30.69,35.323,25,35.323z M35.731,16.64
	c-1.311,0-2.373-1.062-2.373-2.373s1.063-2.373,2.373-2.373s2.373,1.062,2.373,2.373S37.042,16.64,35.731,16.64z M25,18.066
	c-3.823,0-6.935,3.111-6.935,6.934c0,3.823,3.113,6.933,6.935,6.933s6.933-3.109,6.933-6.933C31.933,21.176,28.821,18.066,25,18.066
	z M49.948,42.48V7.102c0-0.887,0.084-1.885-0.117-2.614c-0.394-1.435-1.157-2.63-2.222-3.394C45.966-0.084,44.357,0,41.563,0.001
	H5.109C4.938,0.11,4.662,0.06,4.446,0.119c-0.35,0.117-0.702,0.234-1.053,0.351C2.14,1.013,1.015,2.144,0.469,3.396
	c-0.465,1.07-0.467,2.464-0.467,4.057v34.718c0,1.8-0.068,3.517,0.584,4.642c0.834,1.437,1.994,2.482,3.743,3.004
	c0.783,0.232,1.862,0.154,2.847,0.154h35.169c1.021,0,2.234,0.117,3.08-0.117c1.142-0.313,1.918-0.826,2.729-1.441
	c0.861-0.648,1.459-2.104,1.756-3.354C50.086,44.314,49.948,43.297,49.948,42.48z M44.999,32.846C44.999,39.547,39.545,45,32.845,45
	h-15.69c-6.703,0-12.155-5.453-12.155-12.154V17.154C4.999,10.453,10.451,5,17.153,5h15.689c6.701,0,12.155,5.452,12.155,12.154
	L44.999,32.846L44.999,32.846z"/>
</svg>
