<?xml version="1.0" encoding="utf-8"?>
<!-- Generator: Adobe Illustrator 16.0.0, SVG Export Plug-In . SVG Version: 6.00 Build 0)  -->
<!DOCTYPE svg PUBLIC "-//W3C//DTD SVG 1.1//EN" "http://www.w3.org/Graphics/SVG/1.1/DTD/svg11.dtd">
<svg version="1.1" id="Layer_2" xmlns="http://www.w3.org/2000/svg" xmlns:xlink="http://www.w3.org/1999/xlink" x="0px" y="0px"
	 width="50px" height="50px" viewBox="0 0 50 50" enable-background="new 0 0 50 50" xml:space="preserve">
<path d="M34.805,0H15.192C6.814,0,0,6.815,0,15.193v19.612C0,43.184,6.814,50,15.192,50h19.612C43.183,50,50,43.184,50,34.806
	V15.193C50,6.815,43.183,0,34.805,0z M24.999,35.938c-6.03,0-10.938-4.906-10.938-10.938s4.907-10.938,10.938-10.938
	S35.937,18.969,35.937,25S31.029,35.938,24.999,35.938z M39.232,14.647c-2.145,0-3.881-1.737-3.881-3.881s1.736-3.879,3.881-3.879
	c2.144,0,3.881,1.735,3.881,3.879S41.376,14.647,39.232,14.647z"/>
</svg>
