<?xml version="1.0" encoding="utf-8"?>
<!-- Generator: Adobe Illustrator 16.0.0, SVG Export Plug-In . SVG Version: 6.00 Build 0)  -->
<!DOCTYPE svg PUBLIC "-//W3C//DTD SVG 1.1//EN" "http://www.w3.org/Graphics/SVG/1.1/DTD/svg11.dtd">
<svg version="1.1" id="Layer_1" xmlns="http://www.w3.org/2000/svg" xmlns:xlink="http://www.w3.org/1999/xlink" x="0px" y="0px"
	 width="40px" height="40px" viewBox="5 5 40 40" enable-background="new 5 5 40 40" xml:space="preserve">
<path d="M31.276,11.712H18.724c-3.867,0-7.013,3.146-7.013,7.012v12.552c0,3.866,3.146,7.013,7.013,7.013h12.552
	c3.865,0,7.013-3.146,7.013-7.013V18.723C38.286,14.858,35.142,11.712,31.276,11.712z M25,33.259c-4.555,0-8.261-3.704-8.261-8.258
	c0-4.555,3.706-8.26,8.261-8.26c4.552,0,8.257,3.705,8.257,8.26C33.256,29.555,29.552,33.259,25,33.259z M33.584,18.313
	c-1.048,0-1.898-0.85-1.898-1.898s0.852-1.898,1.898-1.898c1.049,0,1.898,0.85,1.898,1.898S34.634,18.313,33.584,18.313z M25,19.453
	c-3.059,0-5.548,2.489-5.548,5.547c0,3.058,2.491,5.546,5.548,5.546c3.057,0,5.546-2.487,5.546-5.546
	C30.547,21.941,28.057,19.453,25,19.453z M44.959,38.984V10.682c0-0.709,0.067-1.508-0.094-2.091
	c-0.315-1.147-0.926-2.104-1.777-2.715C41.772,4.933,40.486,5,38.25,5.001H9.087C8.95,5.088,8.729,5.048,8.557,5.096
	c-0.28,0.093-0.562,0.187-0.842,0.281c-1.002,0.434-1.902,1.339-2.34,2.34c-0.372,0.856-0.373,1.971-0.373,3.246v27.774
	c0,1.439-0.055,2.813,0.467,3.713c0.667,1.15,1.596,1.986,2.995,2.403c0.626,0.186,1.49,0.123,2.277,0.123h28.137
	c0.816,0,1.786,0.094,2.463-0.094c0.913-0.25,1.534-0.661,2.184-1.152c0.689-0.518,1.167-1.684,1.405-2.684
	C45.069,40.452,44.959,39.638,44.959,38.984z M40.999,31.276c0,5.361-4.363,9.724-9.723,9.724H18.724C13.361,41,9,36.638,9,31.276
	V18.723C8.999,13.363,13.361,9,18.723,9h12.551c5.361,0,9.725,4.362,9.725,9.723L40.999,31.276L40.999,31.276z"/>
</svg>
