<svg id="work" xmlns="http://www.w3.org/2000/svg" viewBox="0 0 291 65.61"><defs><style>.cls-1{fill:#fff;}</style></defs><title>logo</title><path class="cls-1" d="M234.9,73.64a9,9,0,0,1-.15-4.87,7.22,7.22,0,0,1,2.31-3.54,13.68,13.68,0,0,1,4.39-2.41,34.27,34.27,0,0,1,6.07-1.48,68.1,68.1,0,0,1,7.36-.72q4-.18,8.28-0.19,5.77,0,12.21.43T289,62.45a5,5,0,0,1,2.53,1.11,3.75,3.75,0,0,1,1.13,1.78,3.37,3.37,0,0,1,.08,1.43,3.73,3.73,0,0,1-.45,1.29,2.59,2.59,0,0,1-.91.93,2.45,2.45,0,0,1-1.3.35,47.56,47.56,0,0,1-5.41-.33q-2.86-.33-6-0.74l-6.41-.83q-3.3-.41-6.74-0.62a82.82,82.82,0,0,1,.58,9.31c0.06,2.82.16,5.91,0.19,8.87s-0.07,5,0,7.92,0,5.78.07,8.49,0,5.21.06,7.49,0,3.83.06,5.47a8.59,8.59,0,0,1-.31,2.47,4,4,0,0,1-.84,1.61,3.45,3.45,0,0,1-1.32,1,5.26,5.26,0,0,1-4.63-.33,4.28,4.28,0,0,1-2.07-2.74,8,8,0,0,1-.18-1.68q-0.05-2.93-.11-5.86c0-2,.11-4.82.07-6.95,0-1.21.12-3.36,0.28-8,0.09-2.8.15-3.79,0.28-6.63,0.19-4.2.28-4.67,0.37-7,0.14-3.53.81-9.09,1-13.42q-1.72.14-3.49,0.31t-3.39.47a24,24,0,0,0-3,.75,10.36,10.36,0,0,0-2.49,1.15A4.25,4.25,0,0,0,245,71.16a3.21,3.21,0,0,0-.12,2.3s0.05,0.3.13,0.76a3.37,3.37,0,0,1-.14,1.51,3.14,3.14,0,0,1-1.09,1.49,4.32,4.32,0,0,1-2.72.68,6.36,6.36,0,0,1-3.09-.67,6.71,6.71,0,0,1-1.9-1.46A5.9,5.9,0,0,1,234.9,73.64Z" transform="translate(-234.48 -54.61)"/><path class="cls-1" d="M273.13,113.43c-0.08-.91-0.12-2-0.12-3.17s0-2.47.08-3.81,0.14-2.7.26-4.09,0.29-2.88.52-4.45,0.44-2.89.61-3.94a19.94,19.94,0,0,1,.58-2.6,5.79,5.79,0,0,1,.4-1.08,1.87,1.87,0,0,1,.52-0.63,1.71,1.71,0,0,1,.77-0.31,7.63,7.63,0,0,1,1.18-.08,8.12,8.12,0,0,1,1.26.08,1.09,1.09,0,0,1,.7.37,1.75,1.75,0,0,1,.34.85c0.06,0.36.12,0.88,0.18,1.51s0.11,1.84.13,3.24a33.66,33.66,0,0,0,.23,3.68h0.34q0.51-1.24,1.26-3.24A15.71,15.71,0,0,1,284,92.42a9.25,9.25,0,0,1,2.12-2.24,4.72,4.72,0,0,1,2.92-.91,3.53,3.53,0,0,1,1.16.2,3.32,3.32,0,0,1,1,.57A3.21,3.21,0,0,1,292,91a3,3,0,0,1,.35,1.22,9.75,9.75,0,0,1,0,1.46c-0.05.62-.14,1.44-0.28,2.45s-0.23,1.84-.28,2.49a10.93,10.93,0,0,0,0,1.62,7.15,7.15,0,0,0,.38,1.85,3.85,3.85,0,0,0,.68,1.19,2.29,2.29,0,0,0,.86.64,2.61,2.61,0,0,0,1,.18,7.07,7.07,0,0,0,2.82-.62,16.81,16.81,0,0,0,2.6-1.39,22.33,22.33,0,0,0,2.67-2l0.17,7.23-1.72,1.17a20.94,20.94,0,0,1-2.07,1.22,14.56,14.56,0,0,1-2.33,1,8.22,8.22,0,0,1-2.52.38,7.08,7.08,0,0,1-3.82-.94,7.81,7.81,0,0,1-2.47-2.47,13.86,13.86,0,0,1-1.54-3.43c-0.38-1.27-.71-2.55-1-3.85h-0.5l-4.18,15.41a18.37,18.37,0,0,1-.65,2,6,6,0,0,1-.68,1.28,2,2,0,0,1-.8.7,2.46,2.46,0,0,1-1,.2,3.73,3.73,0,0,1-2.09-.54,4,4,0,0,1-1.32-1.45,7.42,7.42,0,0,1-.74-2.07A19.75,19.75,0,0,1,273.13,113.43Z" transform="translate(-234.48 -54.61)"/><path class="cls-1" d="M310.7,119.88a11.65,11.65,0,0,1-9-3.95,13.76,13.76,0,0,1-2.53-4.18,17.9,17.9,0,0,1-1.16-5,15.24,15.24,0,0,1,.29-4.07,42.66,42.66,0,0,1,1-4.19A17.68,17.68,0,0,1,300.7,95a12.09,12.09,0,0,1,2.19-2.92,10,10,0,0,1,3-2,9.22,9.22,0,0,1,3.79-.75,9.53,9.53,0,0,1,3.27.55,8.8,8.8,0,0,1,2.72,1.56,8.06,8.06,0,0,1,1.93,2.42,7.91,7.91,0,0,1,0,7.38,14.89,14.89,0,0,1-2.57,4,16.38,16.38,0,0,1-3.72,3,19.87,19.87,0,0,1-4.83,2,11.24,11.24,0,0,0,1,1.36,4.76,4.76,0,0,0,1,.85,3.4,3.4,0,0,0,1,.42,4.68,4.68,0,0,0,1.11.12,11.17,11.17,0,0,0,3.85-.73,23.24,23.24,0,0,0,3.84-1.81,30.36,30.36,0,0,0,3.47-2.37,27.9,27.9,0,0,0,2.72-2.43l4.34,4.05a36,36,0,0,1-5.33,5.12q-1.25,1-2.69,1.87a22.83,22.83,0,0,1-3.07,1.64,20.16,20.16,0,0,1-3.39,1.14A15.09,15.09,0,0,1,310.7,119.88Zm-5.41-14.71a6,6,0,0,0,2.39-.56,10,10,0,0,0,2.32-1.44,10.38,10.38,0,0,0,2-2.36,4.17,4.17,0,0,0,.87-2.44,4.71,4.71,0,0,0-.71-2.24,1.63,1.63,0,0,0-1.33-.87,4.66,4.66,0,0,0-2.23.48A4.35,4.35,0,0,0,307.13,97a5.64,5.64,0,0,0-.87,1.75c-0.2.65-.43,1.47-0.69,2.43a8.94,8.94,0,0,0-.36,2.38Q305.23,104.5,305.29,105.17Z" transform="translate(-234.48 -54.61)"/><path class="cls-1" d="M323.07,113.43c-0.12-1.36-.18-2.93-0.17-4.71s0-3.74.11-5.87,0.17-4.05.33-5.76,0.33-3.17.51-4.39a4.36,4.36,0,0,1,1.1-2.38,3.32,3.32,0,0,1,2.56-1,2.76,2.76,0,0,1,2.41,1,5.35,5.35,0,0,1,.89,2.72,10.35,10.35,0,0,1,0,1.25c0,0.52,0,1.1-.08,1.73s-0.08,1.28-.12,1.94-0.08,1.44-.1,2.29,0,1.49-.06,1.91a6.67,6.67,0,0,0,0,.85h0.62l0.49-1.09a17.46,17.46,0,0,0,.74-2.18,17.31,17.31,0,0,1,.91-2.52c0.34-.73.65-1.43,0.95-2.1s0.56-1.26.8-1.78l0.55-1.14A4.91,4.91,0,0,1,337.55,90a6,6,0,0,1,2.76-.62,3.16,3.16,0,0,1,2.57,1.3,6.62,6.62,0,0,1,1.22,3.58,7.24,7.24,0,0,1,0,1.14c0,0.54-.11,1.17-0.19,1.92s-0.15,1.7-.23,2.87-0.14,2.22-.2,3.15-0.1,1.84-.12,2.75,0,1.74.08,2.5a9.18,9.18,0,0,0,.76,3.15,1.78,1.78,0,0,0,1.61,1.23,2.89,2.89,0,0,0,1-.27A3.64,3.64,0,0,0,348,112a9.07,9.07,0,0,1,1.33-1,13.21,13.21,0,0,0,2-1.23q2.33-1.58,5.56-3.86l0.58,6.92L356,114q-0.17.16-2.77,1.61-3.74,2.1-4.69,2.53a25.73,25.73,0,0,1-2.89,1.24,10.08,10.08,0,0,1-3.2.5q-1.7,0-3.07-2.46a18.32,18.32,0,0,1-1.79-7.18,34.77,34.77,0,0,1-.1-4q0.06-2.14.21-4.61h-0.5l-6.69,16.06a3.56,3.56,0,0,1-1.24,1.73,3.23,3.23,0,0,1-1.76.46,3.74,3.74,0,0,1-2.08-.54,4,4,0,0,1-1.32-1.46,7.36,7.36,0,0,1-.74-2.07A20.09,20.09,0,0,1,323.07,113.43Z" transform="translate(-234.48 -54.61)"/><path class="cls-1" d="M388.07,113.45a45.64,45.64,0,0,1-4,3.22c-0.56.39-1.16,0.78-1.78,1.16s-1.24.72-1.86,1a14.52,14.52,0,0,1-1.8.72,5.59,5.59,0,0,1-1.63.27,6.58,6.58,0,0,1-1.33-.2,7.54,7.54,0,0,1-2-.8,10.13,10.13,0,0,1-2.21-1.75,11.58,11.58,0,0,1-2.05-3.05,26.26,26.26,0,0,1-2.24,2.24,16.81,16.81,0,0,1-2.51,1.85,14.38,14.38,0,0,1-2.68,1.27,8.54,8.54,0,0,1-2.8.47,7.33,7.33,0,0,1-3.55-.83,8.49,8.49,0,0,1-2.64-2.22,11.24,11.24,0,0,1-1.73-3.15,14.65,14.65,0,0,1-.8-3.64,16.52,16.52,0,0,1,.16-4.06,17.42,17.42,0,0,1,1.14-4q0.8-1.93,1.81-4a13,13,0,0,1,2.81-3.82,13.17,13.17,0,0,1,3.81-2.6,13.81,13.81,0,0,1,4.32-1.1,31.88,31.88,0,0,1,.23-7.07l1.06-6.58a33,33,0,0,1,1.69-6.49,24.91,24.91,0,0,1,2.58-5.13,12.67,12.67,0,0,1,3.21-3.38A6.47,6.47,0,0,1,377,60.58a4.33,4.33,0,0,1,2.54.76,6.39,6.39,0,0,1,1.83,2,10.94,10.94,0,0,1,1.17,2.91,21.68,21.68,0,0,1,.58,3.42c0.07,0.73.12,1.49,0.18,2.26a26.76,26.76,0,0,1-.65,8.26q-0.94,3.82-1.87,7.56a58,58,0,0,1-2.37,7.38q-2.21,5.59-2.77,7.59a10,10,0,0,0-.23,1.06q-0.1.63-.19,1.36c-0.05.49-.09,1-0.11,1.5a12,12,0,0,0,0,1.48,13.85,13.85,0,0,0,.26,1.72,6.81,6.81,0,0,0,.48,1.46,2.92,2.92,0,0,0,.74,1,1.56,1.56,0,0,0,1,.37,3.92,3.92,0,0,0,1.26-.23,9.32,9.32,0,0,0,1.41-.64,15.5,15.5,0,0,0,1.48-.92q0.74-.51,1.44-1,1.6-1.25,3.31-2.83ZM365,95.21a10.86,10.86,0,0,0-5.68,6.95,47.49,47.49,0,0,0-1.22,4.61,12.38,12.38,0,0,0-.25,3.49,3.64,3.64,0,0,0,.23,1,2.27,2.27,0,0,0,.58.87,3,3,0,0,0,1.11.63,5.61,5.61,0,0,0,1.78.24,2.44,2.44,0,0,0,1.08-.25,4.32,4.32,0,0,0,1-.64,6.89,6.89,0,0,0,.86-0.9,9.16,9.16,0,0,0,.73-1.06,16,16,0,0,0,1.33-2.85,11,11,0,0,1-.28-1.38c-0.1-.63-0.21-1.6-0.35-2.9s-0.25-2.36-.34-3.19-0.17-1.59-.24-2.27-0.14-1.25-.2-1.68A1.91,1.91,0,0,0,365,95.21Zm12.74-21.07c0-1.44,0-2.58-.11-3.43a6.4,6.4,0,0,0-.5-2.32,1,1,0,0,0-.92-0.65A2,2,0,0,0,374.54,69a9.86,9.86,0,0,0-1,3.22l-0.7,4.29a34.26,34.26,0,0,0-.45,4.54c-0.05,1.48-.08,2.81-0.08,4s0,2,0,2.53c0,1,0,2,0,3s0.06,1.81.11,2.6,0.1,1.46.14,2.05,0.09,1,.12,1.34l0,0.31q1.36-4.11,2.45-8.2c0.3-1.16.59-2.38,0.87-3.63l0.84-3.75c0.28-1.24.5-2.47,0.66-3.68A28.93,28.93,0,0,0,377.78,74.14Z" transform="translate(-234.48 -54.61)"/><path class="cls-1" d="M397.27,119.88a11.66,11.66,0,0,1-9-3.95,13.8,13.8,0,0,1-2.53-4.18,17.88,17.88,0,0,1-1.16-5,15.36,15.36,0,0,1,.29-4.07c0.29-1.58.62-3,1-4.19a17.51,17.51,0,0,1,1.43-3.5,12.07,12.07,0,0,1,2.19-2.92,10.05,10.05,0,0,1,3-2,9.21,9.21,0,0,1,3.79-.75,9.53,9.53,0,0,1,3.26.55,8.79,8.79,0,0,1,2.72,1.56,8.06,8.06,0,0,1,1.93,2.42A8.41,8.41,0,0,1,405,97a8.51,8.51,0,0,1-.89,4.2,14.86,14.86,0,0,1-2.58,4,16.28,16.28,0,0,1-3.72,3,19.88,19.88,0,0,1-4.82,2,10.77,10.77,0,0,0,1,1.36,4.78,4.78,0,0,0,1,.85,3.4,3.4,0,0,0,1,.42,4.7,4.7,0,0,0,1.11.12,11.13,11.13,0,0,0,3.84-.73,23,23,0,0,0,3.84-1.81,30.19,30.19,0,0,0,3.47-2.37,27.33,27.33,0,0,0,2.72-2.43l4.34,4.05a36.18,36.18,0,0,1-5.33,5.12q-1.24,1-2.69,1.87a23,23,0,0,1-3.07,1.64,20.35,20.35,0,0,1-3.39,1.14A15.1,15.1,0,0,1,397.27,119.88Zm-5.42-14.71a6,6,0,0,0,2.39-.56,10,10,0,0,0,2.33-1.44,10.37,10.37,0,0,0,2-2.36,4.19,4.19,0,0,0,.87-2.44,4.65,4.65,0,0,0-.71-2.24,1.64,1.64,0,0,0-1.33-.87,4.67,4.67,0,0,0-2.24.48A4.34,4.34,0,0,0,393.69,97a5.72,5.72,0,0,0-.87,1.75c-0.2.65-.43,1.47-0.69,2.43a9.12,9.12,0,0,0-.37,2.38C391.79,104.19,391.81,104.73,391.85,105.17Z" transform="translate(-234.48 -54.61)"/><path class="cls-1" d="M409.33,109.87c-0.2-1.54-.38-2.88-0.54-4l-0.44-3.11c-0.13-.93-0.25-1.78-0.33-2.56s-0.17-1.58-.24-2.41a38.11,38.11,0,0,1-.2-5.89q0.16-1.78,1.19-1.93l3.89-.59,0.29-.06h0.33a1.55,1.55,0,0,1,1.27.62,2.85,2.85,0,0,1,.58,1.42l1.21,20.48,0.21,0,6.63-20.6a1.92,1.92,0,0,1,.33-0.84,2.52,2.52,0,0,1,.74-0.69,4.64,4.64,0,0,1,1.06-.48,4.16,4.16,0,0,1,1.27-.19,5.38,5.38,0,0,1,2.94.73,2.42,2.42,0,0,1,1.25,1.87,5.22,5.22,0,0,1-.1,1.64,8.09,8.09,0,0,1-.47,1.7c-0.44,1-.72,1.72-0.81,2-0.74,2.23-1.15,3.51-1.24,3.86s-0.18.75-.27,1.14a10.07,10.07,0,0,0-.16,1.19,7.92,7.92,0,0,0,0,1.38A5.91,5.91,0,0,0,428,106a3.83,3.83,0,0,0,.76,1.28,3.62,3.62,0,0,0,1.35.91,5.57,5.57,0,0,0,2.1.34,5.69,5.69,0,0,0,2.1-.48,16,16,0,0,0,2.21-1.1c0.8-.47,1.62-1,2.46-1.61l0.63,7.26a18.66,18.66,0,0,1-4,2.07,12,12,0,0,1-4.09.77,8.58,8.58,0,0,1-3-.51,7.61,7.61,0,0,1-2.35-1.38,7.36,7.36,0,0,1-1.59-1.95,5.87,5.87,0,0,1-.74-2.25q-0.73,1.86-1.71,3.8a29,29,0,0,1-2.06,3.52,14.74,14.74,0,0,1-2.19,2.58,3.24,3.24,0,0,1-2.1,1,4.73,4.73,0,0,1-3-.91,6.2,6.2,0,0,1-1.77-2.31,12.44,12.44,0,0,1-.93-3q-0.29-1.64-.52-3.12Z" transform="translate(-234.48 -54.61)"/><path class="cls-1" d="M447.21,119.88a11.67,11.67,0,0,1-9-3.95,13.73,13.73,0,0,1-2.53-4.18,17.91,17.91,0,0,1-1.16-5,15.32,15.32,0,0,1,.29-4.07,42.76,42.76,0,0,1,1-4.19,17.68,17.68,0,0,1,1.43-3.5,12.11,12.11,0,0,1,2.19-2.92,10,10,0,0,1,3-2,9.21,9.21,0,0,1,3.8-.75,9.55,9.55,0,0,1,3.27.55,8.8,8.8,0,0,1,2.72,1.56,8,8,0,0,1,1.93,2.42,8,8,0,0,1,0,7.38,14.89,14.89,0,0,1-2.58,4,16.29,16.29,0,0,1-3.72,3,19.82,19.82,0,0,1-4.83,2,11.36,11.36,0,0,0,1,1.36,4.85,4.85,0,0,0,1,.85,3.37,3.37,0,0,0,1,.42,4.73,4.73,0,0,0,1.12.12,11.18,11.18,0,0,0,3.85-.73,23.12,23.12,0,0,0,3.84-1.81,30.29,30.29,0,0,0,3.47-2.37,27.32,27.32,0,0,0,2.72-2.43l4.34,4.05a36.38,36.38,0,0,1-5.33,5.12q-1.24,1-2.7,1.87a22.57,22.57,0,0,1-3.07,1.64,20.31,20.31,0,0,1-3.39,1.14A15.16,15.16,0,0,1,447.21,119.88Zm-5.41-14.71a6,6,0,0,0,2.39-.56,10,10,0,0,0,2.32-1.44,10.47,10.47,0,0,0,2-2.36,4.16,4.16,0,0,0,.87-2.44,4.65,4.65,0,0,0-.71-2.24,1.64,1.64,0,0,0-1.33-.87,4.66,4.66,0,0,0-2.24.48A4.27,4.27,0,0,0,443.64,97a5.74,5.74,0,0,0-.87,1.75c-0.2.65-.43,1.47-0.69,2.43a8.93,8.93,0,0,0-.36,2.38Q441.73,104.5,441.8,105.17Z" transform="translate(-234.48 -54.61)"/><path class="cls-1" d="M471.87,100.3c0.28,1.3.61,2.58,1,3.85a13.66,13.66,0,0,0,1.45,3.26c2.37,3.29,9.32-1.16,4.3-5.29l0-.05a7,7,0,0,1-.38-1.85,10.49,10.49,0,0,1,0-1.62c0-.65.14-1.48,0.27-2.49s0.23-1.83.28-2.45a10,10,0,0,0,0-1.47,3,3,0,0,0-.36-1.22,3.09,3.09,0,0,0-.74-0.91,3.44,3.44,0,0,0-1-.57,3.51,3.51,0,0,0-1.16-.2,4.73,4.73,0,0,0-2.91.91,9.32,9.32,0,0,0-2.12,2.24,15.84,15.84,0,0,0-1.66,3.34c-0.5,1.34-.92,2.42-1.26,3.24h-0.34a32.29,32.29,0,0,1-.23-3.68c0-1.4-.06-2.48-0.13-3.24s-0.12-1.14-.18-1.51a1.75,1.75,0,0,0-.34-0.85,1.1,1.1,0,0,0-.69-0.37,8,8,0,0,0-1.26-.08,7.76,7.76,0,0,0-1.19.08,1.7,1.7,0,0,0-.77.31,1.84,1.84,0,0,0-.51.64,5.48,5.48,0,0,0-.4,1.08,21.49,21.49,0,0,0-.58,2.6q-0.26,1.57-.61,3.94t-0.52,4.45q-0.17,2.09-.26,4.09c-0.06,1.34-.09,2.61-0.08,3.82s0,2.26.12,3.17a20.39,20.39,0,0,0,.35,2.39,7.46,7.46,0,0,0,.74,2.07,4,4,0,0,0,1.32,1.45,3.73,3.73,0,0,0,2.09.54,2.45,2.45,0,0,0,1-.2,2.06,2.06,0,0,0,.81-0.69,6.26,6.26,0,0,0,.67-1.29,18,18,0,0,0,.64-2l4.19-15.42h0.49Z" transform="translate(-234.48 -54.61)"/><path class="cls-1" d="M430.76,75.2a3.74,3.74,0,0,1-.26-3.72l7.24-14.79a3.73,3.73,0,0,1,5-1.7L523.4,94.46a3.67,3.67,0,0,1,1.44,1.26,3.73,3.73,0,0,1,.26,3.71l-7.25,14.79a3.73,3.73,0,0,1-5,1.7L432.21,76.46A3.71,3.71,0,0,1,430.76,75.2ZM524,96.31a2.63,2.63,0,0,0-1-.9L442.26,55.95a2.67,2.67,0,0,0-3.56,1.22L431.46,72a2.67,2.67,0,0,0,1.22,3.55L513.35,115a2.67,2.67,0,0,0,3.56-1.22L524.15,99A2.67,2.67,0,0,0,524,96.31Z" transform="translate(-234.48 -54.61)"/><path class="cls-1" d="M443.36,65.23c0.19-.38.23-0.44-0.08-0.73a0.32,0.32,0,0,1-.09-0.39,0.4,0.4,0,0,1,.54-0.13l2.74,1.34-3.23,6.59c-0.19.38-.23,0.44,0.08,0.73a0.32,0.32,0,0,1,.09.39,0.4,0.4,0,0,1-.54.13l-2.93-1.44a0.4,0.4,0,0,1-.23-0.51,0.32,0.32,0,0,1,.36-0.17c0.42,0.06.44,0,.63-0.39Zm3.57,0.31a4.39,4.39,0,0,1,1.86,1.39,2.7,2.7,0,0,1-2,4,4.36,4.36,0,0,1-2.24-.62l0.29-.6A0.92,0.92,0,0,0,446,69l0.77-1.56a0.89,0.89,0,0,0-.17-1.29Z" transform="translate(-234.48 -54.61)"/><path class="cls-1" d="M450.8,77.24a4.53,4.53,0,0,1-2-1.46c-0.68-1-.61-1.43-0.36-1.95l2.41-4.91c0.19-.38.23-0.44-0.08-0.73a0.32,0.32,0,0,1-.09-0.39,0.4,0.4,0,0,1,.54-0.13l2.93,1.43a0.4,0.4,0,0,1,.23.51,0.32,0.32,0,0,1-.37.17c-0.42-.06-0.44,0-0.63.39l-2.44,5a1.16,1.16,0,0,0,.12,1.49Zm4.93-5.36c0.47-1.38-.39-1.3-0.17-1.74s0.57-.09.69,0l1.18,0.58c0.11,0.06.55,0.24,0.39,0.56s-0.68-.28-1.48.93l-1.91,3.91a2.5,2.5,0,0,1-3.14,1.37l0.3-.61a1.93,1.93,0,0,0,2.25-1.07Z" transform="translate(-234.48 -54.61)"/><path class="cls-1" d="M458,80.55l-2.79-1.36A0.34,0.34,0,0,1,455,78.7a0.32,0.32,0,0,1,.36-0.17c0.42,0.06.44,0,.63-0.39l2.66-5.43c0.19-.39.23-0.44-0.08-0.73a0.32,0.32,0,0,1-.09-0.39,0.34,0.34,0,0,1,.49-0.16l2.79,1.36ZM462.22,73l0.32,0.16a4.82,4.82,0,0,1,1.77,1.24,1.9,1.9,0,0,1,.24,2.09c-0.56,1.14-1.77,1.2-2.85.86v0c1.06,0.75,1.72,1.7,1.09,3a2,2,0,0,1-1.8,1.2,4.29,4.29,0,0,1-2.22-.66l-0.33-.16,0.3-.6a0.77,0.77,0,0,0,1.17-.42l0.65-1.34a0.9,0.9,0,0,0-.3-1.35l0.29-.6a0.82,0.82,0,0,0,1.21-.51l0.51-1a0.89,0.89,0,0,0-.33-1.29Z" transform="translate(-234.48 -54.61)"/><path class="cls-1" d="M465.81,84.39l-2.74-1.34a0.4,0.4,0,0,1-.23-0.51,0.32,0.32,0,0,1,.37-0.17c0.42,0.06.44,0,.63-0.39l2.66-5.43c0.19-.38.23-0.44-0.08-0.73a0.32,0.32,0,0,1-.09-0.39,0.4,0.4,0,0,1,.54-0.13l2.94,1.44a0.4,0.4,0,0,1,.22.51,0.32,0.32,0,0,1-.36.17c-0.42-.06-0.44,0-0.63.39Zm0.76-.37A2.24,2.24,0,0,0,469,83a0.37,0.37,0,0,1,.54-0.1c0.24,0.12.16,0.32,0.07,0.52l-1.13,2.3-2.19-1.07Z" transform="translate(-234.48 -54.61)"/><path class="cls-1" d="M472.62,86.28c-0.19.38-.23,0.44,0.08,0.73a0.32,0.32,0,0,1,.09.39,0.4,0.4,0,0,1-.54.13l-2.93-1.43a0.4,0.4,0,0,1-.23-0.51,0.32,0.32,0,0,1,.37-0.17c0.42,0.06.44,0,.63-0.39l2.66-5.43c0.19-.38.23-0.44-0.08-0.73a0.32,0.32,0,0,1-.09-0.39,0.4,0.4,0,0,1,.54-0.13L476,79.79a0.4,0.4,0,0,1,.23.51,0.32,0.32,0,0,1-.37.17c-0.42-.06-0.44,0-0.63.39Z" transform="translate(-234.48 -54.61)"/><path class="cls-1" d="M476.61,89.86c-2.26-1.16-2.49-3.42-1.45-5.54,1.17-2.39,3.35-3.43,5.4-2.52l-0.29.6a1,1,0,0,0-1.14.64L476.72,88a1,1,0,0,0,.18,1.31ZM481,82c0.38,0.2,1,1,1.25,1.12a0.3,0.3,0,0,0,.38-0.06A0.33,0.33,0,0,1,483,83a0.37,0.37,0,0,1,.15.53L482,86a0.37,0.37,0,0,1-.51.21,0.46,0.46,0,0,1-.2-0.56,3,3,0,0,0-.56-3Zm-0.73,6.65a0.36,0.36,0,0,1,.14.5,2.93,2.93,0,0,1-3.36.9l0.29-.6a2.46,2.46,0,0,0,2.42-.64A0.41,0.41,0,0,1,480.3,88.69Z" transform="translate(-234.48 -54.61)"/><path class="cls-1" d="M486.89,94.7l-2.79-1.36a0.34,0.34,0,0,1-.18-0.48,0.32,0.32,0,0,1,.36-0.17c0.42,0.06.44,0,.63-0.39l2.66-5.43c0.19-.38.23-0.44-0.08-0.73a0.32,0.32,0,0,1-.09-0.39,0.34,0.34,0,0,1,.49-0.16L490.68,87Zm4.26-7.52,0.32,0.16a4.79,4.79,0,0,1,1.77,1.24,1.89,1.89,0,0,1,.23,2.09c-0.56,1.14-1.77,1.2-2.85.87v0c1.06,0.75,1.72,1.7,1.09,3a2,2,0,0,1-1.8,1.2,4.33,4.33,0,0,1-2.22-.66l-0.33-.16,0.29-.6a0.77,0.77,0,0,0,1.17-.42l0.65-1.34a0.9,0.9,0,0,0-.3-1.35l0.29-.6a0.82,0.82,0,0,0,1.21-.51l0.51-1a0.89,0.89,0,0,0-.33-1.29Z" transform="translate(-234.48 -54.61)"/><path class="cls-1" d="M495.77,89.44l2.74,1.34-3.8,7.75L492,97.19a0.4,0.4,0,0,1-.23-0.51,0.32,0.32,0,0,1,.37-0.17c0.42,0.06.44,0,.63-0.39l2.66-5.43c0.19-.38.23-0.44-0.08-0.73a0.32,0.32,0,0,1-.09-0.39A0.4,0.4,0,0,1,495.77,89.44ZM499,91l2.31,1.13-1,2.1a0.29,0.29,0,0,1-.44.09,0.31,0.31,0,0,1-.15-0.4,2.22,2.22,0,0,0-1-2.33Zm-1.7,3.46a1.23,1.23,0,0,0,1.17-.56,0.4,0.4,0,0,1,.5-0.18c0.32,0.16.09,0.5,0,.59l-1.1,2.24c0,0.08-.17.48-0.49,0.32a0.4,0.4,0,0,1-.17-0.5,1.23,1.23,0,0,0-.28-1.27Zm-1.81,3.69a2.37,2.37,0,0,0,2.5-.64,0.44,0.44,0,0,1,.48-0.16,0.32,0.32,0,0,1,.13.5l-1,2.07-2.38-1.17Z" transform="translate(-234.48 -54.61)"/><path class="cls-1" d="M502.05,92.51l1.49,0.73-0.29.6a2.62,2.62,0,0,0-1.57,1.24,0.49,0.49,0,0,1-.62.31,0.35,0.35,0,0,1-.19-0.47Zm2,1,2.54,1.24-3.23,6.59c-0.19.38-.23,0.44,0.08,0.73a0.32,0.32,0,0,1,.09.39,0.4,0.4,0,0,1-.54.13L500,101.13a0.4,0.4,0,0,1-.23-0.51,0.32,0.32,0,0,1,.36-0.17c0.42,0.06.44,0,.63-0.39Zm3.32,4.62a0.35,0.35,0,0,1-.49.13,0.49,0.49,0,0,1-.13-0.68,2.63,2.63,0,0,0,0-2l0.29-.6,1.49,0.73Z" transform="translate(-234.48 -54.61)"/><path class="cls-1" d="M510,99.65l-2.71,3.07c-0.48.55-.42,0.8-0.14,1.13a0.42,0.42,0,0,1,.14.5c-0.14.29-.47,0.12-0.68,0l-1.19-.58c-0.21-.1-0.58-0.3-0.43-0.59s0.29-.15.58-0.16a1.69,1.69,0,0,0,1.23-.75l3.47-3.94,0,0Zm-0.42,3.66-1.51-.74,0.44-.53,1.27,0.62L511,97.57l0.41-.49,2.29,1.12L512,105.51a0.73,0.73,0,0,0,.07.79,0.37,0.37,0,0,1,.1.45c-0.14.28-.5,0.09-0.7,0l-2.58-1.26c-0.21-.1-0.5-0.27-0.36-0.54a0.31,0.31,0,0,1,.34-0.19c0.35,0,.42-0.08.53-0.53Z" transform="translate(-234.48 -54.61)"/></svg>