<?xml version="1.0" encoding="utf-8"?>
<!-- Generator: Adobe Illustrator 19.0.0, SVG Export Plug-In . SVG Version: 6.00 Build 0)  -->
<svg version="1.1" id="Layer_1" xmlns="http://www.w3.org/2000/svg" xmlns:xlink="http://www.w3.org/1999/xlink" x="0px" y="0px"
	 viewBox="0 0 75 50" style="enable-background:new 0 0 75 50;" xml:space="preserve">
<style type="text/css">
	.st0{fill:#FFFFFF;}
</style>
<g>
	<g>
		<path id="XMLID_4_" class="st0" d="M18.6,18.8c-0.9,0-1.6-0.7-1.7-1.6l-1-13.6l-13.8,1C1.2,4.7,0.4,4,0.3,3.1s0.6-1.7,1.6-1.8
			L19,0l1.3,17c0.1,0.9-0.6,1.7-1.6,1.8C18.7,18.8,18.7,18.8,18.6,18.8z"/>
		<path id="XMLID_3_" class="st0" d="M17.4,49.9c-0.4,0-0.8-0.1-1.1-0.4C9.1,43.4,5,34.4,5,25C5,15.6,9.1,6.6,16.3,0.5
			c0.7-0.6,1.8-0.5,2.4,0.2c0.6,0.7,0.5,1.8-0.2,2.4C12.1,8.6,8.4,16.6,8.4,25s3.7,16.4,10.2,21.9c0.7,0.6,0.8,1.7,0.2,2.4
			C18.4,49.7,17.9,49.9,17.4,49.9z"/>
	</g>
	<g>
		<path id="XMLID_2_" class="st0" d="M55,50l-1.3-17c-0.1-0.9,0.6-1.7,1.6-1.8c0.9-0.1,1.7,0.6,1.8,1.6l1,13.6l13.8-1
			c0.9-0.1,1.7,0.6,1.8,1.6c0.1,0.9-0.6,1.7-1.6,1.8L55,50z"/>
		<path id="XMLID_1_" class="st0" d="M56.6,49.9c-0.5,0-1-0.2-1.3-0.6c-0.6-0.7-0.5-1.8,0.2-2.4c6.5-5.5,10.2-13.4,10.2-21.9
			S61.9,8.6,55.5,3.1c-0.7-0.6-0.8-1.7-0.2-2.4c0.6-0.7,1.7-0.8,2.4-0.2C64.9,6.6,69,15.6,69,25s-4.1,18.4-11.4,24.5
			C57.3,49.7,56.9,49.9,56.6,49.9z"/>
	</g>
</g>
</svg>
