<?xml version="1.0" encoding="utf-8"?>
<!-- Generator: Adobe Illustrator 20.1.0, SVG Export Plug-In . SVG Version: 6.00 Build 0)  -->
<svg version="1.1" id="Слой_1" xmlns="http://www.w3.org/2000/svg" xmlns:xlink="http://www.w3.org/1999/xlink" x="0px" y="0px"
	 viewBox="0 0 10 10" style="enable-background:new 0 0 10 10;" xml:space="preserve">
<style type="text/css">
	.st0{fill:#FFFFFF;}
</style>
<path class="st0" d="M10,5.7V4.3L8.7,4.1C8.6,3.7,8.4,3.4,8.2,3L9,1.9l-1-1L7,1.8C6.6,1.6,6.3,1.4,5.9,1.3L5.7,0H4.3L4.1,1.3
	C3.7,1.4,3.4,1.6,3,1.8L1.9,1l-1,1L1.8,3C1.6,3.4,1.4,3.7,1.3,4.1L0,4.3v1.4l1.3,0.2C1.4,6.3,1.6,6.6,1.8,7L1,8.1l1,1L3,8.2
	c0.3,0.2,0.7,0.4,1.1,0.5L4.3,10h1.4l0.2-1.3C6.3,8.6,6.6,8.4,7,8.2L8.1,9l1-1L8.2,7c0.2-0.3,0.4-0.7,0.5-1.1L10,5.7z M5,7.5
	C3.6,7.5,2.5,6.4,2.5,5c0-1.4,1.1-2.5,2.5-2.5c1.4,0,2.5,1.1,2.5,2.5C7.5,6.4,6.4,7.5,5,7.5z"/>
</svg>
