<?xml version="1.0" encoding="utf-8"?>
<!-- Generator: Adobe Illustrator 19.0.0, SVG Export Plug-In . SVG Version: 6.00 Build 0)  -->
<svg version="1.1" id="Layer_1" xmlns="http://www.w3.org/2000/svg" xmlns:xlink="http://www.w3.org/1999/xlink" x="0px" y="0px"
	 viewBox="0 0 40 50" style="enable-background:new 0 0 40 50;" xml:space="preserve">
<style type="text/css">
	.st0{fill:#FFFFFF;}
</style>
<path class="st0" d="M33.3,18.8v-5.6c0-7.3-6-13.3-13.3-13.3c-7.3,0-13.3,6-13.3,13.3v5.6H0.1v19c0,6.7,5.4,12.1,12.1,12.1h15.6
	c6.7,0,12.1-5.4,12.1-12.1v-19H33.3z M21.8,35.3v6.1h-3.6v-6.1c-1.5-0.7-2.5-2.1-2.5-3.8c0-2.3,1.9-4.3,4.3-4.3
	c2.3,0,4.2,1.9,4.2,4.3C24.2,33.2,23.2,34.6,21.8,35.3z M11.8,18.8v-5.6c0-4.5,3.7-8.2,8.3-8.2c4.5,0,8.2,3.7,8.2,8.2v5.6H11.8z"/>
</svg>
