<?xml version="1.0" encoding="utf-8"?>
<!-- Generator: Adobe Illustrator 19.0.0, SVG Export Plug-In . SVG Version: 6.00 Build 0)  -->
<svg version="1.1" id="Layer_1" xmlns="http://www.w3.org/2000/svg" xmlns:xlink="http://www.w3.org/1999/xlink" x="0px" y="0px"
	 viewBox="0 0 33 43" style="enable-background:new 0 0 33 43;" xml:space="preserve">
<style type="text/css">
	.st0{fill:#33BEBC;}
</style>
<g id="XMLID_2_">
	<path class="st0" d="M11.4,4.8v16.9h6.9c3,0,5.3-0.7,6.9-2.2c1.6-1.5,2.3-3.6,2.3-6.2c0-2.6-0.8-4.7-2.3-6.2
		c-1.6-1.5-3.8-2.2-6.9-2.2H11.4L11.4,4.8z M23.9,36.1H11.4V43H6v-6.9H0v-4.1h6v-5.8H0v-4.6h6V0h13.7c4,0,7.2,1.2,9.7,3.7
		c2.4,2.5,3.7,5.6,3.7,9.5c0,3.8-1.2,7-3.7,9.4c-2.5,2.5-5.7,3.7-9.7,3.7h-8.3v5.8h12.5V36.1L23.9,36.1z"/>
</g>
</svg>
