<?xml version="1.0" encoding="utf-8"?>
<!-- Generator: Adobe Illustrator 16.0.0, SVG Export Plug-In . SVG Version: 6.00 Build 0)  -->
<!DOCTYPE svg PUBLIC "-//W3C//DTD SVG 1.1//EN" "http://www.w3.org/Graphics/SVG/1.1/DTD/svg11.dtd">
<svg version="1.1" id="Layer_1" xmlns="http://www.w3.org/2000/svg" xmlns:xlink="http://www.w3.org/1999/xlink" x="0px" y="0px"
	 width="200px" height="200px" viewBox="0 0 200 200" enable-background="new 0 0 200 200" xml:space="preserve">
<g>
	<path d="M77.827,155.654C34.917,155.654,0,120.742,0,77.822C0,34.912,34.917,0,77.827,0c42.915,0,77.827,34.912,77.827,77.822
		C155.654,120.742,120.742,155.654,77.827,155.654z M77.827,12.617c-35.957,0-65.215,29.253-65.215,65.205
		c0,35.962,29.258,65.215,65.215,65.215s65.21-29.253,65.21-65.215C143.037,41.87,113.784,12.617,77.827,12.617z"/>
	
		<rect x="114.492" y="155.661" transform="matrix(0.7071 0.7071 -0.7071 0.7071 161.9761 -67.0892)" width="94.952" height="12.613"/>
</g>
</svg>
