<?xml version="1.0" encoding="utf-8"?>
<!-- Generator: Adobe Illustrator 16.0.0, SVG Export Plug-In . SVG Version: 6.00 Build 0)  -->
<!DOCTYPE svg PUBLIC "-//W3C//DTD SVG 1.1//EN" "http://www.w3.org/Graphics/SVG/1.1/DTD/svg11.dtd">
<svg version="1.1" id="Layer_1" xmlns="http://www.w3.org/2000/svg" xmlns:xlink="http://www.w3.org/1999/xlink" x="0px" y="0px"
	 width="100px" height="100px" viewBox="0 0 100 100" enable-background="new 0 0 100 100" xml:space="preserve">
<path d="M81.887,50.402c0.014-0.041,0.027-0.081,0.038-0.123C81.969,50.115,82,49.946,82,49.768c0-0.002-0.001-0.004-0.001-0.006
	S82,49.759,82,49.758c0-0.007-0.003-0.013-0.003-0.02c-0.002-0.173-0.032-0.338-0.075-0.499c-0.012-0.041-0.023-0.08-0.037-0.12
	c-0.055-0.158-0.122-0.31-0.212-0.447c-0.003-0.005-0.005-0.011-0.009-0.016c-0.095-0.143-0.212-0.267-0.339-0.38
	c-0.031-0.028-0.063-0.053-0.096-0.079c-0.14-0.109-0.288-0.207-0.453-0.276L20.785,22.311c-0.707-0.302-1.522-0.172-2.101,0.333
	c-0.579,0.505-0.816,1.296-0.613,2.037l6.877,25.006l-6.881,25.646c-0.199,0.742,0.044,1.532,0.626,2.033
	c0.37,0.319,0.835,0.485,1.306,0.485c0.27,0,0.541-0.055,0.797-0.166l59.977-26.076c0.003-0.001,0.005-0.002,0.007-0.003
	l0.017-0.007c0.008-0.004,0.015-0.01,0.022-0.014c0.15-0.068,0.287-0.157,0.415-0.259c0.034-0.026,0.066-0.053,0.099-0.081
	c0.125-0.112,0.239-0.236,0.332-0.377c0.011-0.016,0.018-0.034,0.027-0.05C81.774,50.689,81.837,50.549,81.887,50.402z
	 M23.028,27.617l47.157,20.132l-41.639-0.067L23.028,27.617z M28.555,51.682l41.863,0.067L23.006,72.363L28.555,51.682z"/>
</svg>
