<?xml version="1.0" encoding="utf-8"?>
<!-- Generator: Adobe Illustrator 19.0.0, SVG Export Plug-In . SVG Version: 6.00 Build 0)  -->
<svg version="1.1" id="Layer_1" xmlns="http://www.w3.org/2000/svg" xmlns:xlink="http://www.w3.org/1999/xlink" x="0px" y="0px"
	 viewBox="0 0 21 25" style="enable-background:new 0 0 21 25;" xml:space="preserve">
<style type="text/css">
	.st0{fill:#59595A;}
</style>
<g id="XMLID_1_">
	<path id="XMLID_3_" class="st0" d="M19.6,0L19.6,0L19.6,0H1.3l0,0C0.5,0-0.1,0.6-0.1,1.3c0,0.7,0.6,1.3,1.4,1.3l0,0h7.6v6.2H5.5
		l0,0c-0.8,0-1.4,0.6-1.4,1.3s0.6,1.3,1.4,1.3l0,0h3.4v2.1H5.5l0,0c-0.8,0-1.4,0.6-1.4,1.3c0,0.7,0.6,1.3,1.4,1.3l0,0h3.4v7.1
		c0,0.9,0.7,1.6,1.6,1.6c0.9,0,1.6-0.7,1.6-1.6v-7.1h3.4l0,0l0,0c0.8,0,1.4-0.6,1.4-1.3c0-0.7-0.6-1.3-1.4-1.3l0,0l0,0H12v-2.1h3.4
		l0,0l0,0c0.8,0,1.4-0.6,1.4-1.3s-0.6-1.3-1.4-1.3l0,0l0,0H12V2.7h7.6l0,0h0c0.8,0,1.4-0.6,1.4-1.3C21,0.6,20.4,0,19.6,0L19.6,0z"/>
</g>
</svg>
