<?xml version="1.0" encoding="utf-8"?>
<!-- Generator: Adobe Illustrator 19.0.0, SVG Export Plug-In . SVG Version: 6.00 Build 0)  -->
<svg version="1.1" id="Layer_1" xmlns="http://www.w3.org/2000/svg" xmlns:xlink="http://www.w3.org/1999/xlink" x="0px" y="0px"
	 viewBox="0 0 34 42" style="enable-background:new 0 0 34 42;" xml:space="preserve">
<style type="text/css">
	.st0{fill:#33BEBC;}
</style>
<g id="XMLID_2_">
	<path id="XMLID_3_" class="st0" d="M31.8,0L31.8,0L31.8,0H2.2l0,0C1,0,0,1,0,2.3c0,1.2,1,2.3,2.2,2.3l0,0h12.2v10.3H9l0,0
		c-1.2,0-2.2,1-2.2,2.3s1,2.3,2.2,2.3l0,0h5.4v3.5H9l0,0c-1.2,0-2.2,1-2.2,2.3c0,1.2,1,2.3,2.2,2.3l0,0h5.4v11.9
		c0,1.5,1.2,2.7,2.6,2.7c1.4,0,2.6-1.2,2.6-2.7V27.4H25l0,0l0,0c1.2,0,2.2-1,2.2-2.3c0-1.2-1-2.3-2.2-2.3l0,0l0,0h-5.5v-3.5H25l0,0
		l0,0c1.2,0,2.2-1,2.2-2.3s-1-2.3-2.2-2.3l0,0l0,0h-5.5V4.5h12.2l0,0h0c1.2,0,2.2-1,2.2-2.3C34,1,33,0,31.8,0L31.8,0z"/>
</g>
</svg>
