<?xml version="1.0" encoding="utf-8"?>
<!-- Generator: Adobe Illustrator 19.0.0, SVG Export Plug-In . SVG Version: 6.00 Build 0)  -->
<svg version="1.1" id="Layer_1" xmlns="http://www.w3.org/2000/svg" xmlns:xlink="http://www.w3.org/1999/xlink" x="0px" y="0px"
	 viewBox="0 0 44 44" style="enable-background:new 0 0 44 44;" xml:space="preserve">
<style type="text/css">
	.st0{fill:#FFFFFF;}
</style>
<g id="XMLID_2_">
	<path id="XMLID_3_" class="st0" d="M25.7,43.7c0.1,0,0.2,0,0.3,0c0.6-0.1,1.1-0.2,1.7-0.4c0,0,0.1,0,0.1,0c0.6-0.1,1.1-0.3,1.7-0.5
		c0,0,0,0,0.1,0c0.5-0.2,1.1-0.4,1.6-0.7c0,0,0.1,0,0.1-0.1c0.5-0.2,1.1-0.5,1.6-0.8c0,0,0,0,0,0C39.4,37.4,44,30.3,44,22
		C44,9.8,34.2,0,22,0C9.8,0,0,9.8,0,22c0,8.9,5.3,16.5,12.9,20c0,0,0.1,0,0.1,0c0.5,0.2,1.1,0.5,1.6,0.7c0,0,0,0,0,0
		c0.6,0.2,1.1,0.4,1.7,0.5c0,0,0,0,0.1,0c0.5,0.1,1.1,0.3,1.7,0.4c0.1,0,0.2,0,0.3,0c0.5,0.1,1.1,0.2,1.7,0.2c0.1,0,0.2,0,0.3,0
		c0.6,0,1.2,0.1,1.8,0.1c0.6,0,1.2,0,1.8-0.1c0.1,0,0.2,0,0.3,0C24.6,43.9,25.1,43.8,25.7,43.7z M2.8,22C2.8,11.4,11.4,2.8,22,2.8
		c10.6,0,19.2,8.6,19.2,19.2c0,6.5-3.3,12.3-8.3,15.8C31,37,29,36.6,26.6,36.3c-0.3-1.8-0.4-3.8-0.2-5.7c0.4-0.4,2-2.5,2.5-6.3
		c1.3,0.5,1.4-2.4,1.4-2.4s0.7-1.8,0.9-2.6c0.1-0.8-1-0.9-1-0.9l-0.1,0c0.1-0.7,0.2-1.4,0.2-2.1c0.1-2.5,0.7-5.2-1.8-7.7
		c-1.5-1.5-3.2-1.4-3.2-1.4s-0.8-1-3.9-0.7c-3.6,0.4-4.9,2.2-4.9,2.2s-2.6,1.2-2.8,4.5c-0.1,3.3,0.4,5.2,0.4,5.2s0,0,0,0l-0.2,0
		c0,0-1.2,0.1-1,0.9c0.1,0.8,0.9,2.6,0.9,2.6s0.1,2.8,1.3,2.4c0.2,1,0.4,1.8,0.5,2.2c0.4,1.6,1.4,3.4,1.9,4c0.2,1.9,0.2,3.8-0.1,5.7
		c-2.4,0.2-4.4,0.7-6.3,1.5C6,34.3,2.8,28.5,2.8,22z"/>
</g>
</svg>
