<?xml version="1.0" encoding="utf-8"?>
<!-- Generator: Adobe Illustrator 18.0.0, SVG Export Plug-In . SVG Version: 6.00 Build 0)  -->
<!DOCTYPE svg PUBLIC "-//W3C//DTD SVG 1.1//EN" "http://www.w3.org/Graphics/SVG/1.1/DTD/svg11.dtd">
<svg version="1.1" id="Layer_1" xmlns="http://www.w3.org/2000/svg" xmlns:xlink="http://www.w3.org/1999/xlink" x="0px" y="0px"
	 viewBox="0 0 33 33" enable-background="new 0 0 33 33" xml:space="preserve">
<g>
	<path fill="#FFFFFF" d="M33,17c0-8.8-7.2-16-16-16C8.2,1,1,8.2,1,17c0,5.1,2.4,9.6,6,12.5c0,0,0,0,0,0c0.1,0.1,0.3,0.2,0.4,0.3
		c0.4,0.3,0.8,0.6,1.2,0.8C8.8,30.7,9,30.9,9.3,31c0.2,0.1,0.4,0.2,0.6,0.3c0.2,0.1,0.5,0.2,0.7,0.3c0.2,0.1,0.4,0.2,0.6,0.2
		c0.3,0.1,0.5,0.2,0.8,0.3c0.2,0.1,0.4,0.1,0.6,0.2c0.3,0.1,0.6,0.2,0.8,0.2c0.2,0,0.4,0.1,0.6,0.1c0.3,0.1,0.7,0.1,1,0.1
		c0.2,0,0.3,0,0.5,0.1c0.5,0,1,0.1,1.5,0.1c0.5,0,1,0,1.5-0.1c0.2,0,0.3,0,0.5-0.1c0.3,0,0.7-0.1,1-0.1c0.2,0,0.4-0.1,0.6-0.1
		c0.3-0.1,0.6-0.1,0.9-0.2c0.2-0.1,0.4-0.1,0.6-0.2c0.3-0.1,0.5-0.2,0.8-0.3c0.2-0.1,0.4-0.2,0.6-0.2c0.2-0.1,0.5-0.2,0.7-0.3
		c0.2-0.1,0.4-0.2,0.6-0.3c0.2-0.1,0.5-0.3,0.7-0.4c0.4-0.2,0.8-0.5,1.1-0.8c0.1-0.1,0.3-0.2,0.4-0.3c0,0,0,0,0,0
		C30.6,26.6,33,22.1,33,17z M3,17C3,9.3,9.3,3,17,3c7.7,0,14,6.3,14,14c0,4.8-2.4,9-6,11.5c-1.4-0.6-2.9-0.9-4.7-1.1
		c-0.2-1.3-0.3-2.7-0.1-4.1c0.3-0.3,1.5-1.8,1.8-4.5c0.9,0.3,1-1.8,1-1.8s0.5-1.3,0.6-1.9c0.1-0.6-0.8-0.7-0.8-0.7l0,0
		c0.1-0.5,0.1-1,0.2-1.5c0.1-1.8,0.5-3.8-1.3-5.6c-1.1-1.1-2.3-1-2.3-1s-0.6-0.8-2.9-0.5c-2.6,0.3-3.6,1.6-3.6,1.6s-1.9,0.9-2,3.3
		c-0.1,2.4,0.3,3.8,0.3,3.8s0,0,0,0l-0.1,0c0,0-0.9,0.1-0.8,0.7C10.5,15.7,11,17,11,17s0.1,2,1,1.8c0.1,0.7,0.3,1.3,0.3,1.6
		c0.3,1.2,1,2.5,1.4,2.9c0.2,1.4,0.1,2.8-0.1,4.1c-1.8,0.2-3.2,0.5-4.6,1.1C5.4,26,3,21.8,3,17z"/>
</g>
</svg>
