<?xml version="1.0" encoding="utf-8"?>
<!-- Generator: Adobe Illustrator 16.0.0, SVG Export Plug-In . SVG Version: 6.00 Build 0)  -->
<!DOCTYPE svg PUBLIC "-//W3C//DTD SVG 1.1//EN" "http://www.w3.org/Graphics/SVG/1.1/DTD/svg11.dtd">
<svg version="1.1" id="Layer_1" xmlns="http://www.w3.org/2000/svg" xmlns:xlink="http://www.w3.org/1999/xlink" x="0px" y="0px"
	 width="50px" height="50px" viewBox="0 0 50 50" enable-background="new 0 0 50 50" xml:space="preserve">
<path d="M43.293,34.436c-5.662-3.387-10.103-5.988-11.469-6.787v-1.584c1.39-1.304,6.621-6.879,5.103-15.744
	c-0.896-5.213-5.246-10.416-11.91-10.318V0c-0.005,0-0.01,0.003-0.018,0c-0.006,0.003-0.008,0-0.016,0v0.003
	c-6.644-0.1-11.014,5.103-11.908,10.318c-1.518,8.865,3.71,14.439,5.105,15.744v1.584c-1.371,0.799-5.809,3.4-11.474,6.787
	C-0.946,39.007,0.017,49.551,0.061,50h49.875C49.985,49.551,50.946,39.007,43.293,34.436z"/>
</svg>
