<?xml version="1.0" encoding="utf-8"?>
<!-- Generator: Adobe Illustrator 19.1.0, SVG Export Plug-In . SVG Version: 6.00 Build 0)  -->
<svg version="1.1" id="Layer_1" xmlns="http://www.w3.org/2000/svg" xmlns:xlink="http://www.w3.org/1999/xlink" x="0px" y="0px"
	 viewBox="0 0 580 384.4" style="enable-background:new 0 0 580 384.4;" xml:space="preserve">
<style type="text/css">
	.st0{fill:#349999;}
	.st1{fill-rule:evenodd;clip-rule:evenodd;fill:#FFFFFF;}
</style>
<g>
	<path class="st0" d="M151.9,235.8c0,7.1-5.8,12.9-12.9,12.9c-7.1,0-12.9-5.8-12.9-12.9c0-7.1,5.8-12.9,12.9-12.9
		C146.1,222.9,151.9,228.7,151.9,235.8z"/>
	<path class="st1" d="M533.2,57.7l-0.3,1.2l-0.2,1c0,0,0,0,0,0C533.2,57.5,533.7,54.8,533.2,57.7z M45.1,213.8
		c1.9,6,4.9,12.4,9.7,18.4c4.7,6,11.1,11.6,19.2,15.5c2,0.9,4.1,1.9,6.3,2.5c1.1,0.3,2.2,0.8,3.3,1c1.1,0.3,2.3,0.5,3.4,0.8
		c4.6,0.8,9.5,1.4,14.5,0.9c6.7-0.5,13.6-2.4,20-5.6c-1.1-1.1-2.1-2.3-2.9-3.6c-3.4,1.6-6.9,2.9-10.6,3.6
		c-10.5,2.2-21.5,0.9-30.4-3.4c-2.3-0.9-4.3-2.3-6.4-3.5c-1.9-1.5-4-2.7-5.6-4.4c-1.8-1.5-3.3-3.1-4.7-4.8c1.6-0.2,4.3-0.7,7.9-1.6
		c1.9-0.5,4-1,6.3-1.7c0.5-0.1,1.5-0.4,2.3-0.7c0.9-0.3,1.9-0.6,2.8-0.9c2-0.7,4.1-1.4,6.3-2.2c0.8-0.9,1.6-1.8,2.4-2.9
		c0.4-0.5,0.8-1.1,1.3-1.7c0.2-0.3,0.4-0.6,0.7-1l0.3-0.5c0-0.1,0-0.3,0-0.4c-0.2-1.8-0.1-4.1,0.5-8.4c-1-1.4-1.9-2.9-2.8-4.5
		c-0.5-0.8-0.9-1.6-1.3-2.4l-0.3-0.6l-0.2-0.3l-0.1-0.2l-0.3-0.7c-0.7-1.8-1.4-3.7-1.9-5.5c-1.2-3.9-2.4-10.3,0-14.3
		c0.7-1.6,4.4-5.4,7.3-7.3c0.4-0.3,0.8-0.5,1.1-0.7c0.4-0.2,0.7-0.4,1.1-0.6l1.1-0.4l0.5-0.2l0.5-0.1c1.4-0.4,2.7-0.3,4-0.1
		c2.6,0.4,5.9,2.7,8.7,6.1c0.7,0.9,1.4,1.8,2,2.7l0.9,1.5c0.3,0.5,0.7,1.1,0.8,1.3c0.1,0.3,0.3,0.6,0.5,0.9c0.2,0.3,0.2,0.7,0.3,1
		c0.3,0.7,0.3,1.5,0.4,2.3c0.3,3.3-0.7,7.5-2.2,11.4c-0.2,0.5-0.4,1-0.6,1.5c-0.5,1-1,2-1.5,2.9c-0.5,0.9-1.1,1.8-1.6,2.7
		c-0.6,0.9-1.2,1.8-1.8,2.7c-2.5,3.5-4.8,6.8-7,9.8c0.4,0.2,0.7,0.5,1,0.7c0.5,0.2,1,0.4,1.5,0.6c1,0.4,1.9,0.8,2.9,1.1
		c1.9,0.7,3.6,1.4,5.3,2c2.5,0.9,4.9,1.8,7,2.6c0.7-1.8,1.7-3.4,2.8-4.9c-1.8-0.6-3.7-1.2-5.7-1.9c-1.1-0.4-2.3-0.8-3.4-1.2
		c-0.6-0.2-1.2-0.4-1.8-0.6l-0.5-0.2c-0.2-0.1-0.3-0.1-0.3-0.2c0-0.2-0.1-0.4-0.1-0.5c1.6-2.4,3.4-5.2,5.2-8.3
		c0.9-1.6,1.7-3.1,2.5-4.9c0.6-1.4,1-2.5,1.4-3.9c1.7-5.1,2.5-11,0.7-15.8c-0.9-2.1-2.8-5.2-4.8-7.7c-2-2.5-4.4-4.8-7-6.3
		c-2.6-1.6-5.4-2.4-8.3-2.2c-2.9,0.2-5.9,1.3-8.9,3.4l-1.3,0.9l-1.2,1.1l-1.2,1l-1.2,1.2c-1.7,1.6-2.7,2.8-3.7,4.4
		c-1.8,3-2.6,6.6-2.5,10.3c0,3.7,0.7,7.4,1.7,11c0.5,1.8,1,3.4,1.6,5.2c0.7,1.8,1.4,3.5,2,5.1c0.4,1.3,0.8,2.4,1.3,3.4
		c0.4,0.9,0.7,1.8,1,2.6l0.1,0.3c-0.2,0.1-0.4,0.1-0.6,0.1c-0.4,0.1-0.8,0.2-1.2,0.2c-0.8,0.1-1.5,0.3-2.3,0.4
		c-1.5,0.2-2.8,0.4-3.9,0.5c-4.1,0.5-5.7-0.1-9.5,0.4c-3.2,0.2-5.9,0.2-8.1,0.2c-4.3-0.1-6.5-0.4-6.5-0.4c-0.2,0.2-0.3,0.5-0.5,0.7
		c-1.8-4.2-2.9-8.3-3.5-11.7c-0.3-1.4-0.5-2.7-0.6-3.8c-0.1-1.2-0.3-2.3-0.3-3.2c-0.1-1.9-0.2-3.4-0.3-4.3c-0.1-1.8,0-3.6,0.2-5.2
		c0.4-1.6,0.9-3.1,1.5-4.4c1.5-2.5,3.1-4.5,4.9-5.9c0.9-0.7,1.7-1.3,2.4-1.8c0.8-0.5,1.5-0.8,2.1-1.2c1.1-0.7,1.7-1.2,1.5-2
		c-0.5-1.4-4.1-2.7-8.2-2.3c-1,0.1-2,0.4-3,0.7c-1,0.3-1.8,0.9-2.6,1.5c-1.6,1.2-2.8,2.9-2.8,5.1c0,1.1-0.5,3-0.8,6
		c-0.2,1.5-0.5,3.2-0.5,5.1c-0.1,1-0.1,2-0.2,3.1c-0.1,1.1,0,2.2,0,3.4c0,2.4,0.3,4.9,0.6,7.7C43.6,207.9,44.1,210.8,45.1,213.8z
		 M52.4,329.3c-1,0.1-2,0.3-3,0.7c-1,0.3-1.8,0.9-2.6,1.5c-1.6,1.2-2.8,2.9-2.8,5.1c0,1.1-0.5,3-0.8,6c-0.1,0.6-0.2,1.3-0.3,2.1
		c2-0.2,4-0.4,6.1-0.5c0.2-0.6,0.5-1.2,0.7-1.8c1.5-2.5,3.1-4.5,4.9-5.9c0.9-0.7,1.7-1.3,2.4-1.8c0.8-0.4,1.5-0.8,2.1-1.2
		c1.1-0.7,1.7-1.2,1.5-2C60.1,330.1,56.4,328.8,52.4,329.3z M531,38.3c0.2,0.1,0.3,0,0.4-0.1l0-0.1l0,0v0l-2.1-1.6
		c0.1,0.1,0.1,0.1,0.2,0.2c0.2,0.1,0.4,0.3,0.6,0.5c0.2,0.2,0.5,0.3,0.7,0.5c-0.1-0.1-0.2-0.2-0.4-0.2c-0.2-0.2-0.5-0.3-0.9-0.4
		c0,0,0,0,0,0C530.2,37.6,530.7,38.1,531,38.3z M579.7,338.5c-0.9-21.5-2-30.8-3.1-171.8c-0.3-45.6-0.6-39.4-0.9-55.2
		c3.2-1.4,3-2.9-0.1-4.3c-0.1-4.2-0.1-9.7-0.2-17.1c1.8-9.9,2.9-23.3,1.6-36.5c-0.2-2.3-0.5-6.2-0.8-11.8
		c-0.3-5.5-0.7-32.7-1.2-41.8c-9.7,0.2-21.4,0.4-35.2,0.7c-14,0.2-30,0.4-47.9,0.7c-35.8,0.3-59.4,0.8-109.7,1.2
		C332,2.8,274.9,3.1,211.9,3.5c-61.6,0.1-129,0.2-201.3,0.4c0,19.8,0,61,0,82.8c-0.1,5.3-0.1,10.5-0.2,15.6
		c-0.7,43.4-1.5,57.7-2.3,94.5c-1.7,73.6-3.6,83.8-5.4,131.8c-0.9,24.8-1.8,42.8-2.7,55.8c3.7-1.4,7.6-2.7,11.8-3.9
		c1.5-30.8,3.2-107.4,4.7-275.7c21-0.1,41.3-0.1,61-0.2c22.9,0,44.9,0,66.1,0.1c42.4,0.1,81.6,0.4,117.5,0.8
		c71.8,0.8,130.7,2.1,177.4,3.5c93.3,2.7,117.4,5.7,117.4,5.7c7.6-0.5,13.1-1.3,16.8-2.2l-1.9,43.5c0.5,126.9,1.1,99.6,1.8,127.9
		c0.7,30.6,0.7,73.3,0.2,90.5c2.4-1,4.7-2.1,7-3.2C580.1,360.6,580.1,349.5,579.7,338.5z M572.8,106.1c-0.8-0.2-1.7-0.5-2.7-0.7
		c-0.2,0.1-0.4,0-0.6-0.1c-5.4-1.1-13.2-2-23-2.3c-35.3-1.1-141.5-2.1-308.8-2.5c-23.2,0-56,0.1-95.5,0.2
		c-36.6,0.2-79.4,0.4-125.8,0.6c0-2.4,0-4.9,0.1-7.4l-2.5-28.1c0-12.6,0-45.5,0-58.5c58.1-0.1,118.8-0.2,177.8-0.2
		C253.3,6.9,313,6.7,366.4,6.5C473,6.1,534.3,5.5,554,4.7c3.8-0.2,7.5-0.3,11.1-0.3c2,0,4-0.1,5.8-0.1c0.1,1.5,0.1,2.9,0.1,4.3
		c0,2.8,0,25.6,0.1,28.2c0,5.4-0.1,10.5-0.2,15.3c-0.2,9.6-0.7,17.9-1.1,24.9c-0.9,14.1-1.7,23.1-0.8,26.9c0.2,0.7,0.4,1.1,0.6,1.3
		c0.2,0,0.4,0.1,0.6,0.1c0.9-0.3,1.9-2.5,3-5.9L572.8,106.1z M147.2,179.9c-3.6-10-9.9-18.1-16.9-24.2c-7.1-6.1-15.1-10-22.9-12.2
		c-7.8-2.3-15.4-2.8-22.1-2.4c-3.4,0.1-6.6,0.7-9.6,1.2c-1.5,0.4-2.9,0.7-4.3,1c-0.7,0.2-1.4,0.3-2,0.5c-0.7,0.2-1.3,0.4-1.9,0.6
		c-1.3,0.4-2.5,0.8-3.7,1.2c-1.1,0.4-2.2,0.9-3.2,1.4c-1.1,0.5-2,0.9-3,1.3c-0.9,0.5-1.8,0.9-2.6,1.4c-1.6,0.9-3.1,1.6-4.3,2.4
		c-1.2,0.8-2.2,1.4-2.9,1.9c-1.6,1-2.4,1.5-2.4,1.5c-2.5,5.4-0.7,8.9,2.4,10.2c1.5,0.7,3.4,0.9,5.3,0.5c1.9-0.3,3.7-1.2,5.6-2.5
		c1.8-1.4,4.7-3.6,8.8-6c4.1-2.4,9.6-4.9,16.2-6.3c6.6-1.5,14.5-1.7,22.6,0.1c8.1,1.7,16.3,5.9,23.3,12.2c3.4,3.2,7.7,8,11.2,14.8
		c1.6,3.4,3.2,7.2,4,11.5c0.6,2.1,0.7,4.3,1.1,6.6c0,2.3,0.3,4.6,0,7c-0.2,3.6-0.8,7.2-1.9,10.8c1.4,0.7,2.7,1.5,4,2.4
		c0.4-1.2,0.8-2.3,1-3.5c1.5-5.8,2-11.7,1.7-17.3C150.2,190.2,149,184.8,147.2,179.9z M545.3,58.6c-0.7,0.8-3.4,1.4-7.7,1.5
		c-1.5,0.1-3.2-0.1-4.8-0.1c-0.4,1.8-0.7,3.6-0.6,3.1h0l0,0l0.1,0l0.2,0l0.3,0l0.6,0.1c1.5,0.2,2.9,0.3,4.2,0.4c2.5,0.1,4.4,0,5-0.4
		c2.5-1.7,2.3,5.5,2.9,4C545.9,65.7,546.6,57,545.3,58.6z M528.9,60.3c0.1-3.2,0-7.4-0.3-11.4c-0.1-0.8-0.1-1.6-0.2-2.4
		c-0.1-0.6-0.1-1.3-0.2-1.9c-0.2-1.2-0.1-2.3-0.2-3.3c0-1.9-0.1-3.2-0.4-3.8c-0.3-0.5-0.2-0.8,0.3-0.9c0.4-0.1,1.1,0.1,1.7,0.3
		c-0.8-0.8-1.7-1.7-2.8-2.3c-1.8-1.1-3.6-1.5-3.1-0.6c0.5,0.9,0.4,3.5,0.8,7.3c0.2,1,0.2,1.9,0.4,3.1c0.2,1.1,0.3,2.2,0.5,3.6
		c0.3,2.7,0.4,5.8,0.4,9.1c0,1.2-0.1,2.3-0.3,3.4c-1.3,0.1-2.6,0.1-4,0.1c-6.8,0.1-11.8-2.7-15.2-5.5c-1.7-1.4-2.9-2.8-3.7-3.9
		c-0.7-1.1-1-1.8-1-1.8c-0.9,1.9-1,9.3,0.4,10.4c1.3,1.1,5.7,2.6,11.4,3.7c2.1,0.4,6.6,0.4,11.4,0.2C522,72.5,514.2,77,514.2,77
		c1.9,1.1,9.2,0.3,10.3-1c1.1-1.2,2.7-5.5,3.9-11.1c0.1-0.4,0.2-1,0.2-1.6c0.4,0,0.7,0,1.1-0.1l1.2-0.1l0.6,0c0.1,0,0.1,0,0.2,0
		l0.2-0.1l0.1,0l0.1,0l0.6-3.1c-0.7,0-1.3,0.1-1.9,0.2C530.2,60.2,529.5,60.3,528.9,60.3z M529.2,36.4L529.2,36.4
		C529.2,36.5,529.2,36.5,529.2,36.4L529.2,36.4z M332.2,57.7c-8.2,1.4-4.8-7.9-8.2-11.5c-5.1,10.8-1.3,15.5,13.4,16.1
		c0.3,2.4,0.5,4.8,0.8,7.2c3.9-7.6,4.4-15.2,1.6-22C337.1,51.1,335.1,57.1,332.2,57.7z M218.4,46c-3.3-0.4-9.7,1.7-9.9,3.4
		c-1,6.3,0,12.9,0.3,19.4c0.9-0.1,1.7-0.1,2.6-0.2c0.2-3.6,0.2-7.2,0.7-10.8c0.6-4.5,2.4-8.4,7.8-8c4.8,0.3,6.4,3.8,6.8,8.2
		c0.3,3.8,0.6,7.7,1,11.5c1.1,0,2.3,0.1,3.4,0.1c-0.5-6.1,0.1-12.6-1.9-18.1C228,48.8,222.3,46.5,218.4,46z M253.3,56.4
		c0.1,5.4-1.7,9.4-7.8,9.4c-5.9,0-7.1-4.3-7.3-9.1c-0.1-3.7-0.4-7.4-0.7-13c-4.2,7-4,18.6-0.8,22.6c3.7,4.7,17.6,5.3,20.2,0.9
		c2.1-3.4,0.1-16.1-3.7-20.5C253.3,50.5,253.2,53.5,253.3,56.4z M300.8,48.6c-0.8-1.1-1.6-2.3-2.4-3.4c-4.1,1.2-9,1.4-12.1,3.9
		c-3.6,2.9-2,17.1,1.5,21.2C291,62.2,282.2,48.3,300.8,48.6z M276.2,55.1H265c-0.7-3.2-1.3-6-1.9-8.8c-0.4,0.1-0.8,0.1-1.2,0.2V69
		c0.5,0,0.9,0,1.4,0c0.5-2.9,1.1-5.7,1.7-8.7h11.2c0.8,3.5,1.5,6.6,2.2,9.8c0.5-0.1,1.1-0.2,1.6-0.2V46.4c-0.6,0-1.2-0.1-1.8-0.1
		C277.5,49.2,276.9,52.2,276.2,55.1z M62.6,37.9c-0.6-2.1-1.4-3.6-1.6-2.7c-0.3,2.1-7,5.9-14.2,11.5c-0.8,0.8-1.9,1.2-2.7,1.8
		c-0.9,0.6-1.9,1-2.9,1.5c-2,0.9-4.2,1.5-6.1,1.7c-1.9,0.3-3.6,0-4.7-0.3c-1.1-0.3-1.8-0.6-1.8-0.6c1,1.7,6.6,6.6,8.1,6.4
		c0.4,0,1.2-0.3,2-0.6c-0.8,1.2-1.3,2.4-1.2,3c0.5,1.7,3.6,4.3,6.6,6.2c0.2,0.1,0.4,0.3,0.7,0.4c0.1,0.1,0.2,0.1,0.4,0.2
		c0.1,0.1,0.1,0.1,0.1,0.1c0.1,0.1,0.2,0.2,0.3,0.3c0.1,0.1,0.1,0.1,0.2,0.2l0.3,0.4c0.6,0.9,1.3,1.7,2,2.6c2.7,3.4,5.6,6.3,6.9,6.3
		c2.5-0.1-2.9,4.6-1.5,3.9c1.4-0.7,8.2-6.2,6.3-5.7c-0.9,0.2-2.9-0.5-5.1-2.2c-1.1-0.9-2.4-2-3.6-3.4c-0.6-0.7-1.3-1.4-1.9-2.3
		c-0.3-0.4-0.6-0.8-0.8-1.2c-0.2-0.2-0.3-0.5-0.5-0.7c-0.4-0.5-0.8-0.9-1.2-1.4c-0.3-0.5-1.2-1.2-1.8-1.9c-1.3-1.5-2.3-3.2-2.9-4.9
		c-0.2-0.5-0.3-1.1-0.4-1.6c0.3-0.2,0.7-0.5,1-0.8c0.8-0.6,1.7-1.2,2.5-1.9c0.5-0.4,0.9-0.7,1.3-1.1c0.4-0.5,1.1-1,1.7-1.5
		c0.6-0.6,1.3-1.2,2.1-1.8c0.8-0.6,1.6-1.3,2.5-1.8c3.5-2.4,7.5-4.3,7.9-5.5c0.4-1.3,1.3-0.1,2,1c0.7,1.2,1,2.5,0.9,1.7
		C63.7,42.4,63.2,39.9,62.6,37.9z M175.2,40.1c-0.2-1.9-1-3.8-1.5-5.7c-0.7,0.1-1.4,0.2-2,0.3c0.7,9.9,1.5,19.7,2.2,29.6
		c-4,0.3-7,0.5-11.2,0.8c-0.7-10-1.5-19.4-2.2-28.8c-0.8,0-1.6,0.1-2.4,0.1c0.3,9.7,0.5,19.4,0.8,29c-3.6,0.3-6.7,0.5-10.8,0.8
		c-0.8-10.2-1.5-20-2.2-29.8c-0.8,0.1-1.5,0.2-2.3,0.2c0.8,10.6,1.5,21.3,2.6,31.9c0.1,1,3.5,2.2,5.3,2.2c6.2-0.1,12.3-0.9,18.5-1.2
		c5.3-0.3,7.4-2.9,6.9-8.1C176.2,54.4,175.9,47.3,175.2,40.1z M191.8,45.5c-6.7,0.2-12,5.8-11.9,12.7c0.1,7.3,5.7,12.6,12.9,12.2
		c6.9-0.4,11.8-5.9,11.6-12.8C204.1,50.8,198.2,45.2,191.8,45.5z M200,58.5c-0.7,3.2-4.4,5.8-8.4,10.6c-3.7-5.1-7.3-8-7.7-11.2
		c-0.7-5.1,3.5-8.1,8.4-7.9C197.3,50.2,201.1,53.5,200,58.5z M112.9,331.6c-2-2.5-4.4-4.8-7-6.3c-2.6-1.6-5.4-2.4-8.3-2.2
		c-2.9,0.2-5.9,1.3-8.9,3.4l-1.3,0.9l-1.2,1.1l-1.2,1l-1.2,1.2c-1.7,1.6-2.7,2.8-3.7,4.4c-1.6,2.7-2.4,5.8-2.5,9.1
		c1.8,0.1,3.7,0.3,5.6,0.4c-0.2-2.6,0.1-5.3,1.3-7.3c0.7-1.7,4.4-5.4,7.3-7.3c0.4-0.3,0.8-0.5,1.1-0.7c0.4-0.2,0.7-0.4,1.1-0.6
		l1.1-0.4l0.5-0.2l0.5-0.1c1.4-0.4,2.7-0.3,4-0.1c2.6,0.4,5.9,2.7,8.7,6.1c0.7,0.9,1.4,1.8,2,2.7l0.9,1.5c0.3,0.5,0.7,1.1,0.8,1.3
		c0.1,0.3,0.3,0.6,0.5,1c0.2,0.3,0.2,0.7,0.3,1c0.3,0.6,0.3,1.5,0.4,2.3c0.1,1.7,0,3.5-0.4,5.5c1.6,0.3,3.1,0.7,4.7,1.1
		c0.7-3.8,0.7-7.6-0.5-11C116.8,337.1,114.9,334,112.9,331.6z M423.5,55.8c-1.9-1.2-5.1-0.5-7.7-0.7c-0.6-3.4-1-6.2-1.5-8.9
		c-0.8,0-1.6,0-2.4,0c-0.3,4.5-0.7,9.1-0.7,13.6c-0.1,10.8,2,12.8,12.3,10.2c2.5-0.6,6.1-4.5,6-6.7
		C429.3,60.6,426.1,57.5,423.5,55.8z M416.5,65.7c-0.2-1.7-0.4-3.4-0.6-5.1h9c0.1,1.2,0.2,2.4,0.3,3.6
		C422.3,64.7,419.4,65.2,416.5,65.7z M433.5,68.9c0.6,0,1.2,0,1.7,0V47.1c-0.6,0-1.2,0-1.7,0.1V68.9z M394.1,46.4
		c-2.4,0.7-5.3-0.3-7.9,0c-4.5,0.6-12.3,0.7-12.9,2.6c-1.7,6.1-0.6,12.9-0.6,19.5c1,0,2,0.1,3,0.1c0.2-2.8,0.5-5.5,0.6-8.3
		c0.1-4.5-0.3-10.1,5.8-10.1c6.6,0,5.9,5.9,6.2,10.6c0.2,3,0.6,6.1,0.9,9.1c0.8-0.1,1.6-0.1,2.3-0.2c0.2-3.9-0.3-7.9,0.7-11.5
		c0.9-3,3.3-7.4,5.6-7.8c5.1-0.9,5.9,3.8,6,8c0.2,3.9,0.6,7.8,0.9,11.8c1-0.1,1.9-0.2,2.9-0.3c0-5.1,0.4-10.3-0.1-15.3
		C406.9,47.4,400.9,44.3,394.1,46.4z M354.3,45.8c-7,1.5-11.4,8-9.8,14.9c1.5,6.8,7.2,10.3,14.6,9.1c3-0.5,6-0.4,9.7-0.6
		c0-4.4,0.6-9.2-0.1-13.7C367.5,48.7,360.7,44.4,354.3,45.8z M356.5,65.6c-5,0.7-9-3-7.9-7.9c0.7-3.1,4.9-6.9,8-7.5
		c4.7-0.8,8.1,2.6,8.2,10.6C362.8,62.1,359.9,65.2,356.5,65.6z M307.5,56.5c-3.7,0-6.8,1.4-6.8,3.2c0,1.8,3,3.2,6.8,3.2
		c3.7,0,6.8-1.4,6.8-3.2C314.3,57.9,311.3,56.5,307.5,56.5z M529.2,36.4L529.2,36.4L529.2,36.4L529.2,36.4z M533.7,180.8
		c1.4,0.2,2.8,0.3,4.2,0.5c0-0.3,0-0.6-0.1-0.8c-1.2-0.1-2.4-0.3-3.5-0.4C534.2,180.3,534,180.5,533.7,180.8z M537.5,177.1l-0.2-0.8
		c-0.2-1.1-0.5-2.1-0.8-3.2c-1.1,1.2-2.3,2.5-3.5,4.1c-0.5,0.6-1,1.4-1.7,2.5c1,0.1,2,0.2,3.1,0.4
		C535.4,178.9,536.5,177.9,537.5,177.1z M343.8,214.8c0-1.7-0.1-3.4-0.1-5.1c0,0-0.1,0-0.1,0c0.1,1.8,0.1,3.5,0.2,5.1
		C343.7,214.7,343.7,214.7,343.8,214.8z M535.3,159.4c-4.1,3.7-7.9,7.1-10.6,9.8c-0.6,0.7-1.3,1.3-1.8,1.8c-0.5,0.6-1.1,1.1-1.2,1.3
		c-0.4,0.6-0.7,1-0.8,1.3c-0.5,2.4-5-0.4-4.4,0.6c0.6,1,5.7,4.7,5.5,3.2c0-0.6,0.6-1.9,2.2-3.9c1.8-2.2,5.1-5.7,9.7-9.9
		c0.8,2.7,1.7,6,2.6,9.6c0.7-0.7,1.3-1.4,1.8-1.9C537.4,167.2,536.3,163.1,535.3,159.4z M264.2,214.9c13.6,0.6,29,1.2,45.7,1.7
		c7.9,0.3,19.4,0.6,33.9,0.9c0-0.9-0.1-1.8-0.1-2.8c-17.3-0.6-32.9-1.3-46.8-2.2C285.6,213.4,274.7,214.2,264.2,214.9z M172.9,224.5
		c3.3,2.2,7.3,4.1,11.6,5.7c33.1,2.8,54.8,4.6,61.4,4.8c1.9,0.1,3.7,0.2,5.4,0.3c1.1,0.1,2.3,0.1,3.3,0.2c2.2,0.2,4.2,0.5,6.1,0.8
		c3.8,0.6,7,1.4,9.7,2.2c5.4,1.6,8.8,3,10.2,2.5c2.9-1-5.8-8.7-15.1-8.2c-1,0.1-2.9,0-5.8,0c-1.4-0.1-3-0.1-4.9-0.2
		c-1.9-0.1-4-0.2-6.4-0.3c-10-0.6-25.2-1.7-46.4-3.3c-9.9-1.2-19.7-2.6-29.1-4.4c7.6-1.3,15-2.7,22.5-4.4
		c18.5-1.4,38.3-2.9,59.1-4.5c3.1-0.2,6.3-0.5,9.4-0.7c-7.4-0.3-14.3-0.6-20.5-0.9c-21.1,1.6-42.4,3.1-63.2,4.7
		C178.2,220.8,175.7,222.7,172.9,224.5z M203.5,203.6c-11.1,1.3-8.3,7.2,2.8,8.3c5.7,0.5,18.8,1.3,37.3,2.2
		c11.9-0.9,23.7-1.8,35.3-2.6C227.4,207.8,203.5,203.6,203.5,203.6z M417,168.5c4.5,0.4,9,0.9,13.3,1.3l-0.4,9
		c-170.7-4-248-17.1-248-17.1c-19.1,2.4-14.2,12.6,4.9,14.2c19.1,1.7,87.6,4.3,178.4,6.6c14.8,0.4,36.7,0.7,64.7,1l0.7-15.4
		c-0.4,0-0.9,0-1.3,0.1C426.8,168.3,422.6,168.5,417,168.5z M301.9,212.2c14.9-1,28.8-1.9,41.6-2.6c0-0.9-0.1-1.8-0.1-2.8
		c-17.5,1.2-38.8,2.7-61.6,4.3c-1,0.1-2,0.1-3,0.2c5.7,0.4,11.6,0.8,18,1.1C298.5,212.5,300.2,212.3,301.9,212.2z M540.9,325.7
		c-0.5,0.3-1.4,1-2.5,2.1c0.1,0.4,0.2,0.9,0.3,1.3c0.3,1.1,0.5,2.1,0.7,3.1c4.5-3,8.5-3.6,8.5-3.6
		C547.2,327.1,542.2,325,540.9,325.7z M535.3,316c-4.1,3.7-7.9,7.2-10.6,9.8c-0.6,0.7-1.3,1.3-1.8,1.8c-0.5,0.5-1.1,1.1-1.2,1.3
		c-0.4,0.6-0.7,1-0.8,1.3c-0.5,2.4-5-0.4-4.4,0.6c0.6,1,5.7,4.7,5.5,3.2c0-0.6,0.6-1.9,2.2-3.9c1.8-2.2,5.1-5.7,9.7-9.9
		c0.8,2.7,1.7,6,2.6,9.6c0.7-0.7,1.3-1.4,1.8-1.9C537.4,323.8,536.3,319.7,535.3,316z M537.5,333.7l0.1,0.6c0.1,0.4,0.1,0.8,0.2,1.2
		c0.1,0.5,0.1,1,0.1,1.4c0.8,0.1,1.7,0.2,2.7,0.3c-0.2-0.9-0.4-1.9-0.6-3c-0.2-0.7-0.3-1.4-0.5-2.1
		C538.8,332.7,538.1,333.1,537.5,333.7L537.5,333.7z M537.5,333.7l-0.2-0.8c-0.2-1.1-0.5-2.1-0.8-3.2c-1.1,1.2-2.2,2.6-3.5,4.1
		c-0.5,0.6-1,1.4-1.7,2.5c1,0.1,2,0.2,3.1,0.3C535.4,335.5,536.5,334.5,537.5,333.7z M540.9,169.1c-0.5,0.3-1.4,1-2.5,2.1
		c0.1,0.4,0.2,0.9,0.3,1.3c0.3,1.1,0.5,2.1,0.7,3.1c4.5-3,8.5-3.6,8.5-3.6C547.2,170.5,542.2,168.4,540.9,169.1z M537.5,177.1
		l0.1,0.6c0.1,0.4,0.1,0.8,0.2,1.2c0.1,0.5,0.1,1,0.1,1.5c0.8,0.1,1.7,0.2,2.7,0.3c-0.2-0.9-0.4-1.9-0.6-3c-0.2-0.7-0.3-1.4-0.5-2.1
		C538.8,176.1,538.1,176.5,537.5,177.1L537.5,177.1z M533.7,337.3c1.4,0.2,2.8,0.3,4.2,0.5c0-0.3,0-0.6-0.1-0.8
		c-1.2-0.1-2.4-0.3-3.5-0.4C534.2,336.8,534,337.1,533.7,337.3z M459.5,318.5c-4.9,0.7-22.3,1.2-50.4,1.4c7.5,0.6,14.7,1.2,21.6,1.8
		l-0.1,3c32.6-1.8,51.2,8,55.9,6C491.2,328.6,475.4,316.4,459.5,318.5z M221.5,309.1c-0.2,3.4-0.3,6.8-0.5,9.7c0,0,0.1,0,0.1,0
		c0.2-3.2,0.3-6.4,0.5-9.7C221.6,309.1,221.6,309.1,221.5,309.1z M360.3,163.5c-37.5,0-84.5-0.4-139.1-1.2c-0.1,1.4-0.1,2.8-0.2,4.2
		c85.5,1.5,164.3,2.4,196,2c-16.3-1.6-33.8-3.2-52.2-4.7C363.2,163.7,361.8,163.6,360.3,163.5z M147.2,336.4
		c-3.6-10-9.9-18.1-16.9-24.2c-7.1-6.1-15.1-10-22.9-12.2c-7.8-2.3-15.4-2.8-22.1-2.4c-3.4,0.1-6.6,0.7-9.6,1.2
		c-1.5,0.4-2.9,0.7-4.3,1c-0.7,0.2-1.4,0.3-2,0.5c-0.7,0.2-1.3,0.4-1.9,0.6c-1.3,0.4-2.5,0.8-3.7,1.2c-1.1,0.4-2.2,1-3.2,1.4
		c-1.1,0.5-2,0.9-3,1.3c-0.9,0.5-1.8,0.9-2.6,1.4c-1.6,0.9-3.1,1.6-4.3,2.3c-1.2,0.8-2.2,1.4-2.9,1.9c-1.6,1-2.4,1.5-2.4,1.5
		c-2.5,5.4-0.7,8.9,2.4,10.2c1.5,0.7,3.4,0.9,5.3,0.5c1.9-0.3,3.7-1.2,5.6-2.5c1.8-1.3,4.7-3.6,8.8-6c4.1-2.4,9.6-4.9,16.2-6.3
		c6.6-1.5,14.5-1.7,22.6,0.1c8.1,1.7,16.3,5.9,23.3,12.2c3.4,3.2,7.7,8,11.2,14.8c1.6,3.4,3.2,7.2,4,11.5c0.6,2.1,0.7,4.3,1.1,6.6
		c0,1,0.1,2,0.1,3c1.5,0.3,3.1,0.6,4.7,0.9c0-1.5,0-3-0.1-4.5C150.2,346.8,149,341.4,147.2,336.4z M409.1,319.9
		c-54.2-4.6-122.7-10.1-187.2-15c-0.1,1.4-0.1,2.8-0.2,4.2c41.8,3.1,88.4,6.7,138.6,10.9C379,320.1,395.3,320,409.1,319.9z
		 M409.1,163.3c-54.2-4.6-122.7-10.1-187.3-15c-0.1,1.4-0.1,2.8-0.2,4.2c41.8,3.1,88.4,6.7,138.6,10.9
		C379,163.5,395.3,163.4,409.1,163.3z M221.5,152.5c-0.2,3.4-0.3,6.8-0.5,9.7c0,0,0.1,0,0.1,0c0.2-3.2,0.3-6.4,0.5-9.7
		C221.6,152.5,221.6,152.5,221.5,152.5z M459.5,161.9c-4.9,0.7-22.3,1.2-50.3,1.4c7.5,0.6,14.6,1.2,21.5,1.8l-0.1,3
		c32.6-1.8,51.2,8,55.9,6C491.2,172,475.4,159.8,459.5,161.9z M417,325.1c4.5,0.4,8.9,0.9,13.3,1.3l-0.4,9c-170.7-4-248-17-248-17
		c-19.1,2.4-14.2,12.6,4.9,14.2c19.1,1.7,87.6,4.3,178.4,6.6c14.8,0.4,36.7,0.7,64.7,1l0.7-15.4c-0.4,0-0.9,0-1.3,0.1
		C426.8,324.9,422.6,325,417,325.1z M360.3,320c-37.5,0-84.5-0.4-139.1-1.2c-0.1,1.4-0.1,2.8-0.2,4.2c85.5,1.5,164.4,2.4,196.1,2
		c-16.4-1.6-33.9-3.2-52.3-4.7C363.3,320.3,361.8,320.2,360.3,320z"/>
</g>
</svg>
