<?xml version="1.0" encoding="utf-8"?>
<!-- Generator: Adobe Illustrator 19.1.0, SVG Export Plug-In . SVG Version: 6.00 Build 0)  -->
<svg version="1.1" id="Layer_1" xmlns="http://www.w3.org/2000/svg" xmlns:xlink="http://www.w3.org/1999/xlink" x="0px" y="0px"
	 viewBox="0 0 685.8 374.9" style="enable-background:new 0 0 685.8 374.9;" xml:space="preserve">
<style type="text/css">
	.st0{fill:#FFDE19;}
	.st1{fill-rule:evenodd;clip-rule:evenodd;fill:#FFFFFF;}
	.st2{fill:#FFFFFF;}
	.st3{fill:#EF3C5A;}
	.st4{fill:#FBD051;}
	.st5{fill:#5EA76F;}
	.st6{fill:#618AC7;}
</style>
<g>
	<g>
		<path class="st0" d="M521.7,207.1c0.2,1.8-0.9,4.2-3.4,7.6c-0.8,2.4-2.6,4.4-5,5.8c-2.4,2.6-4.4,4.4-4.5,4.5l-1.2,1.1l-2.7-3.7
			c-0.6,0-1.2-0.1-1.8-0.2c-6.5-0.9-8.1-7.5-8.7-12.4c-0.1-0.5-0.1-0.9-0.2-1.4l-6.3,5.6l-10.6-4.7l8.4-15l2.1-1.8l-3.4-1.9l1.5-1.4
			c0.2-0.2,2.4-2.2,4.8-2.6c1.2-0.2,2.3,0.1,3.2,0.7l3.1-2.6l14.7-0.1l-0.8,11l-2.9,2.2c4.9,2.5,10.3,5.5,12.6,7.3
			C521.2,205.6,521.6,206.3,521.7,207.1z M507.9,221.7c0.8-0.8,2-2,3.3-3.4l0.2-0.2l0.2-0.1c2-1.1,3.4-2.7,3.9-4.5l0.1-0.3l0.2-0.2
			c2.9-3.8,3-5.2,3-5.6c0-0.1,0-0.1,0-0.1c-1.9-1.5-7-4.4-14.3-8.1l-2.1-1.1l5.6-4.2l0.4-6.4l-10.4,0.1l-4.5,3.8l-1-1.3
			c-0.4-0.5-0.8-0.7-1.5-0.6c-0.5,0.1-1,0.3-1.5,0.5l3.3,1.8l-5,4.3l-6.6,11.7l5.9,2.6l7.7-6.8l2,2.7l0,0.4c0.1,0.9,0.2,1.8,0.3,2.6
			c1,8,3.7,9.4,6.2,9.8c0.8,0.1,1.5,0.2,2.2,0.2l0.8,0L507.9,221.7z"/>
		<path class="st1" d="M591,309.9c23,20.8,43.7,43.9,66.4,65c0.6-0.4,1.3-0.8,1.9-1.3c-0.5-1.3-0.7-2.9-1.6-3.8
			c-19.7-19.8-39.6-39.5-59.4-59.1c-4.5-4.5-9.3-8.7-13.7-13.3c-0.9-0.9-1.3-3.4-0.7-4.4c3.7-5.6,7.7-11,12-16.9
			c5.5,3.7,10.8,7.4,16.1,11c16.4,11,48.3,33.5,64.6,44.5c1.9,1.3,3.3,3.1,5.3,4.2c1,0.6,2.6,0.1,4,0.1c-0.6-1.2-0.8-2.9-1.8-3.5
			c-9.8-6.6-35.3-24.5-45.1-31.2c-13.5-9.2-27-18.6-40.7-28c0.3-1.5,0.7-3,1.2-5.7c-2.5,0.4-4.5,0.8-7,1.2
			c-6.3-1.8-6.2-6.6-3.2-11.9c-5.2-3.5-6.2,1.6-9.1,3.8c-2.4-2.5-4.7-5-7.1-7.4c-0.8-0.8-1.8-1.7-2.8-1.8c-0.6,0-1.9,1.3-2,2.1
			c0,1.1,0.5,2.5,1.3,3.4c1.5,1.5,3.2,2.8,5,3.9c3.5,2,3.9,4.4,1.8,7.8c-2.7,4.4-5,9.1-7.8,14.1c-10.3-11.8-23-18-38-19.8
			c4.9-5.4,9.7-10.6,14.5-15.8c1.6-7.9,7.9-14,3.9-20.1c0,0.9,0,1.8,0.1,2.7c0.4,6.1-3.2,9.6-7.4,13.5c-1.4-11-1.9-11.7-10.1-12.6
			c5.7-5.7,11.2-11.1,16.9-16.9c0-1.3-0.1-2.5-0.3-3.7c-0.7-1.1-1.3-2.2-2.1-3.4c-4.7-8.2-11.7-15.1-17.3-21.9
			c-2.8-3.5-5.2-6.9-6.7-10.5c-0.4,0.6-0.7,1.3-1.2,2.3c-10.1-9.7-20.1-18.9-29.8-28.4c-7.4-7.2-7.5-7.6-15.7-1.5
			c-4.2,3.1-8.2,6.4-12.1,9.7c0,0,0,0.1,0,0.1c-9,7.7-18.8,16.7-18.8,16.7l0.2,0.5c-5.5,5.6-10.9,11.3-16.1,17.2
			c-1.3,1.4-1.5,3.9-2.2,5.9c2,0.5,4.1,0.9,6.1,1.5c1.3,0.4,2.8,0.6,3.8,1.5c13.8,11.5,27.6,23.1,41.4,34.6c2.4,2.1,5.2,3.8,7.4,6.1
			c3,3.1,5.3,0.6,7.8-0.4c-0.9-1.9-1.5-4.2-2.9-5.5c-9.9-8.6-20-17-30.6-25.9c14.3-14.5,25.2-31.9,42.3-44.4
			c12.6,12.8,25.2,25.6,37.5,38.2c-2.6,2.1-5.4,3.7-7.5,6c-7.6,8.2-14.9,16.6-22.4,24.8c-1,1.1-2.4,1.8-3.6,2.8
			c-0.2-0.1-0.4-0.3-0.6-0.4c-0.9,2.2-1.6,4.6-1.8,7.2c-1.5-1.3-3.3-1.3-5-1.6c-0.6,3.8-1.3,7.5-2.3,11.2c3,1.2,5.4,3,7.5,5.2
			c1.6,0.8,3.1,1.5,4,2.7c3,3.9,5.3,8.4,8.4,12.3c0.3,0.4,0.8,0.7,1.4,0.9c1.3-0.8,2.7-1.5,4-2.2c1.8-1.2,3.5-2.5,5.3-3.8
			c0.6-0.6,1.1-1.2,1.7-1.8c9.6,1.4,17.9,6.5,26.5,10.6c4.1,1.9,7.2,5.9,10.7,9c0.6,0.5,1.1,2.1,0.7,2.6c-0.9,1.3-2.1,2.4-3.5,3.1
			c-0.8,0.5-2.1,0.2-3.4,1.2c4.3,2.9,8.6,5.9,13,8.8c0.1-0.2,0.2-0.5,0.3-0.7c0.5,1.2,1.1,2.4,1.6,3.6c1.6-0.8,3.2-1.7,5.3-2.8
			c0.8,1,2.1,2.4,3.2,4 M476.6,187.1c0,0-0.7-0.6-1.9-1.6c-3.8,4.4-7.5,8.8-11.1,13.1c-1.7-1.5-3.2-2.8-4.9-4.4l18.6-19.1
			c1.7-1,3.7-1.2,6.4,0c-2.8,3.3-5.7,6.7-8.5,10C475.6,186,476.1,186.7,476.6,187.1z M474.6,171c-0.6-1.3-1.2-2.2-1.8-3
			c0-0.1,0-0.2,0-0.2l-0.2,0c-1.6-1.8-3.3-2.2-5.4-1c0,0-7.5,3.5-10.6,8.2c-0.7,1.1-0.8,2.1-0.4,2.9c-0.2,0.6-0.4,1.3-0.7,1.8
			c2,0.1,4.3,0.8,6.2,0.5c2-0.1,4.2-0.9,6.1-2.7c1-1,1.9-1.9,2.5-2.9c0.1,0.3,0.2,0.5,0.3,0.8c-1.2,1.3-2.4,2.6-3.5,3.8
			c-0.1-0.1-0.1-0.1-0.2-0.1c-6.1,6.6-12.1,13.1-17.8,19.2c-7.3-1.6-7.1-8-9.6-13.9c2.5-2.3,5.1-4.6,7.7-6.9
			c3.4-2.6,26.3-22.9,32.8-28.7c3.7-2.3,5.3-0.7,10.3,5C485.1,159.5,479.8,165.2,474.6,171z M541.2,204.1c1.8,1.9,3.5,3.8,5.2,5.6
			c-2.9,2.6-5.4,4.9-8.1,7.4c-1.4-1.7-2.5-3.2-3.6-4.5C536.9,209.7,538.9,207.1,541.2,204.1z M525.9,219.9c1.5-1.4,3-2.8,4.7-4.4
			c2.1,1.6,3.6,2.8,5.4,4.2c-2.2,2.3-4.2,4.4-6.2,6.5C528.4,223.9,527.3,222.1,525.9,219.9z M523,224.4c1.2,1.5,2.5,3,3.8,4.6
			c-1.2,1.3-2.5,2.6-4,4.2C517.8,228.4,517.8,228.3,523,224.4z M515.4,231.9c1.5,1.4,3.1,2.7,4.7,4.2c-1.8,1.8-3.2,3.1-4.5,4.4
			C512,237.7,510.9,235.1,515.4,231.9z M502,248.3c2.3-3.3,4.2-6,6.4-9c1.8,1.8,3,3,4.6,4.7C509,245.4,508.2,252,502,248.3z
			 M511.1,253.5c-0.3-0.2-0.4-0.5-0.8-1.2c5.7-5.8,11.1-11.3,17.1-17.3c-0.8,9.7,2.1,11.9,12.4,10.3c-2.1,2.5-3.8,4.7-5.7,6.8
			C521.2,266.1,525.7,264.6,511.1,253.5z M575.2,289.1c-0.2-1.4-0.4-1.8-0.2-2.1c2.2-4.5,4.5-8.9,6.8-13.4c2.7-5.4,3.2-5.5,8-1
			C585,277.9,580.3,283.2,575.2,289.1z M552.5,208.7c0.1,1.1,0.1,2.2,0.1,3.4c0.1-0.1,0.2-0.2,0.4-0.3c-0.2,4.4-0.5,8.3-0.6,12.2
			c3.2,5.7-2.8,10.8-4.7,17.9c1.2-1.1,2.4-2.3,3.5-3.4c0,0,0,0,0.1-0.1c0.1,0.2,0.2,0.4,0.3,0.6c0.9,1.6,1.7,3,2.4,4.3
			c0.5-0.1,0.9-0.2,1.3-0.3c2.7-8.2,0.1-16.9,1.8-25.4c1.5,0.9,2.9,1.7,4.3,2.4c0.4-0.2,0.9-0.4,1.3-0.6c-0.5-1.6-0.4-3.6-1.5-4.6
			c-4.2-3.9-4.2-8.1-0.7-13.8c3.4,2.5,9,4.5,9.6,7.5c0.7,3.6,2.4,9.5-3.2,12.7c3.6,6.8-0.4,13.2-1.6,19.8c-0.6,3.6,0.5,5,3.8,6.3
			c0.5-3.8,0.6-7.4,1.5-10.7c2.6-9.3,4.4-18.6,4.5-28.3c0.1-3-0.8-4.2-2.8-5.3c-2.8-1.5-5.8-2.7-8.4-4.4
			c-9.6-6.1-17.3-14.2-23.6-23.7c-4.3-6.6-4.5-6.5-9.1-0.2c0,0.1-0.1,0.1-0.1,0.1c1.1,3.3,3.1,6.6,5.4,9.8
			c4.6,6.4,10.6,13,14.3,20.7C551.5,206.6,552,207.7,552.5,208.7z M535.9,177.6c2.4,2.4,4,5.3,6.1,7.7c3.8,4.3,7.9,8.3,11.7,12.6
			c0.9,1.1,1.1,2.8,1.6,4.3c-0.6,0.3-1.1,0.5-1.7,0.8C548.6,193.9,538.8,188.3,535.9,177.6z"/>
	</g>
	<g>
		<path class="st1" d="M408.7,121.1c0,0,0.2,0.2,0.5,0.5c0.4,0.3,0.8,0.8,1.4,1.4c0.6,0.6,1.3,1.3,2,2.2c0.8,0.8,1.6,1.7,2.6,2.8
			c1,1,2.1,2.1,3.3,3.3c0.6,0.6,1.2,1.2,1.9,1.8c0.6,0.6,1.2,1.2,1.9,1.8c2.8,2.5,7.4,5.8,13.8,9.7c0.5,0.1,1,0.1,1.5,0.1
			c0-0.7-0.2-1.8-0.3-2.7c-0.3-1.9-0.6-3.9-1.1-6.1c-0.9-4.4-2.7-9.9-5.4-15.6c-0.4-0.8-0.8-1.5-1.1-2.3l-0.6-1.1l-0.5-0.9
			c-0.6-1.1-1.2-2.2-1.9-3.3c-0.7-1-1.3-2.1-2-3.1c-0.7-1-1.4-1.9-2.1-2.8c-3.4-4.3-30.9-34.6-36.2-38.9c-5.3-4.8-9.5-9.2-13.7-11.7
			c-8.5-5.1-14-5.8-15-4.9c-0.5,0.4-1-0.1-1.4-1c-0.5-0.9-0.9-2.2-1.3-3.7c-0.8-2.9-2.1-6.3-1.6-7.3c0.8-0.9,1.9,1.1,3.3,3.2
			c0.7,1.1,1.5,2.2,2.4,2.9c0.9,0.8,1.9,1.4,3.1,1.3c0.3,0,0.8,0,1.4,0.2c0.6,0.2,1.4,0.5,2.2,0.9c0.9,0.4,1.9,0.8,3,1.4
			c1.1,0.6,2.3,1.4,3.6,2.1c5.1,3.1,10.6,9,16.8,14.7l1.2,1.1l1.3,1.3c0.8,0.9,2.5,0.9,3.3,1.9c2.5,3,27.3,31.2,29.4,33.9
			c0.8,1,1.5,2.1,2.3,3.1c1.4,2.1,2.8,4.3,4,6.6l0.5,0.8l0.6,1.3c0.4,0.9,0.8,1.7,1.3,2.6c0.9,1.6,1.6,3.5,2.3,5.3
			c0.8,1.8,1.3,3.4,1.9,5.1c0.6,1.7,1,3.2,1.5,4.8c0.9,3,1.4,5.7,1.9,8.1c0.5,2.4,0.9,4.6,1.3,6.7c0.1,0.5,0.2,1,0.3,1.5
			c0.1,0.3,0,0.4,0,0.5l0,0.4c0,0.6,0,1.2,0,1.7c-0.5-0.3-0.8-0.4-1-0.5c-5.3-2.8-10.2-5.4-14.8-7.7c-1.9-1-3.8-2-5.5-2.9
			c-0.4-0.2-0.8-0.4-1.2-0.6c-0.3-0.2-0.5-0.3-0.8-0.5c-0.5-0.3-1-0.6-1.5-0.9c-3.8-2.3-6.4-4-7.6-5c-0.5-0.4-1-1.4-1.5-2.6
			c-0.5-1.1-1.1-2.5-1.5-3.9c-0.5-1.4-0.7-2.9-0.4-4.2c0.2-0.6,0.5-1.3,1-1.7c0.3-0.2,0.4-0.4,0.6-0.6
			C408.3,121.4,408.5,121.2,408.7,121.1z"/>
		<path class="st1" d="M446.1,99.3c0,0,0,1.1,0.1,2.9c0,0.9,0.1,2,0.1,3.2c0.1,1.2,0.1,2.5,0.1,3.9c0.1,2.8,0.1,5.8-0.1,8.7
			c-0.1,2.9-0.4,5.5-0.4,8.6c-0.2,6.3-1.3,11.8-2,16.1c-0.7,4.3-1,7.4-0.6,8.7c0.4,1.2-1.1,0.1-2.8-1.7c-1.7-1.7-3.5-4.3-4.1-5
			c-0.6-0.8,0.6,0.3,1.7,1.1c1.2,0.8,2.5,1.3,2.1-0.5c-0.4-1.7,1.4-7.1,2.2-12.8c0.4-2.8,0.6-5.6,0.6-7.7c-0.1-2.2-0.3-3.8-0.3-4.9
			c0-4.2-1.6-9-1.8-10.9C441,107.2,444.1,99.7,446.1,99.3z"/>
	</g>
	<path class="st1" d="M26.4,55.7c0,0,45.3,7.8,146,8c100.7,0.3,170.3-1.6,177.7-2.8c7.4-1.2,14.9,4.6,12.7,5.7
		c-2.2,1.1-11.2-3.7-26.7-2.3c-15.5,1.4-182.1,2-224.4,1.1c-42.2-0.8-74.1-2-83-2.7C19.9,61.9,17.6,57,26.4,55.7z"/>
	<path class="st1" d="M26.4,2.3c0,0,45.3,7.8,146,8c100.7,0.3,170.3-1.6,177.7-2.9c7.4-1.2,14.9,4.6,12.7,5.7
		c-2.2,1.1-11.2-3.7-26.7-2.3c-15.5,1.4-182.1,2-224.4,1.1c-42.2-0.8-74.1-2-83-2.7C19.9,8.4,17.6,3.5,26.4,2.3z"/>
	<path class="st1" d="M274.2,294.5c0,0-35.1-7-113.1-7.5c-78.1-0.6-132,0.8-137.7,1.8c-5.7,1-11.5-4.1-9.8-5
		c1.7-0.9,8.6,3.3,20.7,2.1c12-1.2,141.2-1.1,173.9-0.2c32.7,0.9,57.4,2,64.3,2.7C279.4,289.1,281.1,293.5,274.2,294.5z"/>
	<path class="st1" d="M23.5,92.2c0,0,45.3,7.8,146,8c100.7,0.3,170.3-1.6,177.7-2.9c7.4-1.2,14.9,4.6,12.7,5.7
		c-2.2,1.1-11.2-3.7-26.7-2.3c-15.5,1.4-182.1,2-224.4,1.1c-42.2-0.8-74.1-2-83-2.7C16.9,98.4,14.6,93.5,23.5,92.2z"/>
	<path class="st1" d="M270.9,338.8c0,0,1.2-4.8,2.1-14.7c0.4-5,0.8-11.2,0.9-18.8c0.1-3.8,0-8-0.1-12.4c-0.1-4.2-0.4-2.8-0.4-4.7
		c0.5,0,1,0,1.6,0c0.6,0,1.3,0,2,0c45.5,0.2,77-1.5,80.3-2.5c3.3-1.1,6.7,4,5.7,5c-1,0.9-5-3.3-12.1-2c-2.7,0.5-15.3,0.8-30.9,1.1
		c-7.8,0.1-16.4,0.2-24.8,0.2c-4.2,0-8.4,0-12.5,0c-2,0-4,0-6,0c-0.5,0-0.9,0-1.3,0c0,0.2,0,0.4,0,0.6l0,0.3c0,0.5,0.1,1,0.1,1.5
		c0.1,2.1,0.3-3.4,0.4-1.6c0.2,3.7,0.4,6.7,0.5,9c0.7,19.1,0.8,33.5,0.5,37.6C276.5,341.4,272.3,342.7,270.9,338.8z"/>
	<path class="st1" d="M40.8,228.8c0,0,62.1,4.2,199.1,4.9l0.1-2.6c-16-0.9-33.6-1.7-52.4-2.5c-41.7-1.8-80.3-3.3-114.8-4.6
		c-0.1,1.9-0.1,3.8-0.2,5.5c110-0.2,181.4-1.5,191.1-2.5c12.7-1.4,25.6,5.4,21.8,6.6c-3.8,1.2-19.2-4.3-46-2.8
		c-12.9,0.8-86.2,1.1-166.9,1.1c0.1-3.3,0.3-6.8,0.4-10.3c58.8,2.2,121.7,4.8,167.2,6.9l-0.3,7.9c-22.6,0.1-40.2,2.6-52.1,2.5
		c-72.7-0.4-127.6-1.3-143-2.1C29.6,236.1,25.5,230.4,40.8,228.8z"/>
	<path class="st1" d="M125.4,166.7c-9.8,0.1-17.5,0.1-22.7,0c-31.7-0.4-55.7-1.3-62.4-2.1c-6.7-0.8-8.4-6.4-1.8-8
		c0,0,38.5,7.2,98.3,7.9"/>
	<path class="st1" d="M125.4,158.9c-7-0.9-14.7-1.7-22.9-2.5c-18.2-1.8-35-3.3-50.1-4.6c0,1.9-0.1,3.8-0.1,5.5
		c48-0.2,79.2-1.5,83.4-2.5c5.6-1.4,11.2,5.4,9.5,6.6s-8.4-4.3-20.1-2.8c-5.6,0.8-37.6,1.1-72.9,1.1c0.1-3.3,0.1-6.8,0.2-10.3
		c25.7,2.2,53.1,4.8,73,6.9"/>
	<path class="st1" d="M332.9,191.5c0,0-33-6.7-105.8-7.4l-0.1,5.1c8.5,0.9,17.9,1.7,27.8,2.5c22.2,1.8,42.7,3.3,61,4.6
		c0-1.9,0.1-3.8,0.1-5.5c-58.4,0.2-96.4,1.5-101.5,2.5c-6.8,1.4-13.6-5.4-11.6-6.6c2-1.2,10.2,4.3,24.4,2.8
		c6.9-0.8,45.8-1.1,88.7-1.1c-0.1,3.3-0.1,6.8-0.2,10.3c-31.3-2.2-64.7-4.8-88.9-6.9l0.2-10.4c12-0.1,21.3-0.1,27.7,0
		c38.7,0.4,67.8,1.3,76,2.1C338.9,184.2,341,189.9,332.9,191.5z"/>
	<path class="st1" d="M61.8,250.2c0,0,39.7,3.5,127.2,5.1c0-0.8-0.1-1.5-0.1-2.3c-11.7,0.3-24.3,0.7-37.9,1.2
		c-14.9,0.5-29.2,1.1-42.8,1.5c-18.9,0.7-36.8,1.4-53.6,2c-6.7,0.7-13.5,1.4-20.4,2c8.5,0.8,17.4,1.5,26.4,2
		c19.2,0.8,33,1.2,42.1,1.5c2.1,0.1,4.1,0.1,5.8,0.2c1.7,0,3.1,0.1,4.4,0.1c2.5,0,4.3,0,5.2,0c8.4-0.3,16.3,3.3,13.7,3.7
		c-1.3,0.2-4.3-0.4-9.3-1.1c-2.5-0.4-5.4-0.7-8.8-1c-1.7-0.1-3.5-0.3-5.5-0.3c-1,0-2-0.1-3-0.1c-1.6,0-3.2-0.1-4.9-0.1
		c-6.1-0.1-25.7-0.9-55.7-2.2c-3.9-0.7-7.5-1.6-10.5-2.6c2.6-0.8,4.9-1.7,6.9-2.6c30.3-1.1,62-2.3,91.9-3.4c20.6-0.7,40-1.4,55.8-2
		c0.1,1.9,0.2,3.4,0.3,4.8c-13.2-0.1-23.6-0.3-30.8-0.4c-47.8-0.8-83.8-1.7-93.8-2.2C54.3,253.5,51.8,250.8,61.8,250.2z"/>
	<path class="st1" d="M191.1,151.5c0,0,46.7,3.5,149.7,5.1c0-0.8-0.1-1.5-0.2-2.3c-13.7,0.3-28.6,0.7-44.6,1.2
		c-17.5,0.5-34.4,1.1-50.4,1.5c-22.3,0.7-43.3,1.4-63.1,2c-7.9,0.7-15.9,1.4-24,2c10,0.8,20.4,1.5,31,2c22.6,0.8,38.9,1.2,49.5,1.5
		c2.5,0.1,4.8,0.1,6.8,0.2c2,0,3.7,0.1,5.2,0.1c3,0,5.1,0,6.1,0c9.9-0.3,19.2,3.3,16.1,3.7c-1.5,0.2-5.1-0.4-10.9-1.1
		c-2.9-0.4-6.4-0.7-10.4-1c-2-0.1-4.2-0.3-6.5-0.3c-1.2,0-2.3-0.1-3.6-0.1c-1.9,0-3.8-0.1-5.8-0.1c-7.1-0.1-30.2-0.9-65.6-2.2
		c-4.6-0.7-8.8-1.6-12.4-2.6c3.1-0.8,5.7-1.7,8.1-2.6c35.6-1.1,73-2.3,108.2-3.4c24.3-0.7,47.1-1.4,65.7-2c0.1,1.9,0.2,3.4,0.3,4.8
		c-15.5-0.1-27.7-0.3-36.2-0.4c-56.2-0.8-98.7-1.7-110.5-2.2C182.2,154.8,179.3,152.1,191.1,151.5z"/>
	<g>
		<path class="st1" d="M100.7,136c-8.4,0-13.5,0.1-21.2,0.2c-0.6-1.5-1.7-4-2.7-6.5c-2.4-6.2,0.4-13,6.1-14.8
			c5.3-1.6,10.1,1.6,12.2,8.1c0.8,2.5,1.9,4.9,3.2,7.2C99.5,132.2,99.1,133.9,100.7,136z M94.1,130.9c-1.2-3.6-1.9-6.8-3.2-9.8
			c-1.8-3.8-5.8-4.6-8.2-2.1c-2.2,2.2-3.4,6.5-3.1,9.6c0.3,3.1,3,5.2,7,2.6C88,130.3,90.6,131,94.1,130.9z"/>
		<path class="st1" d="M130.7,122c0.6-2.5,1-4.1,1.4-5.6c0.5-0.1,1-0.3,1.4-0.4c1.7,4,3.4,8.1,5.3,12.6c-4.4,0.7-7.9,1.2-12.2,1.9
			c0.5-1.9,0.9-3.3,1.4-5.5c-4.3-1.1-8.6-2.3-14-3.7c0.5,5.7,0.9,10.2,1.4,14.6c-0.7,0.1-1.4,0.3-2,0.4c-0.9-4.7-2.4-9.4-2.6-14.1
			c-0.1-3.5,6.1-5.8,10.2-4.2C124.1,119.3,127.1,120.6,130.7,122z"/>
		<path class="st1" d="M63.9,121.2c-0.1,5.7-8.2,15-13.7,15.7c-4.4,0.5-14.1-7.2-15.5-12.2c-1.3-4.7,2.9-8.7,8.9-8.9
			c4.2-0.1,8.4-0.5,12.5-1.1C60.9,114.1,64,116.5,63.9,121.2z M50.8,121.5c-2.1-1-4.1-2.5-6.2-2.6c-2.2,0-4.7,1-6.6,2.2
			c-0.7,0.5-1,3.5-0.4,4c3.3,2.8,6.8,6.8,10.7,7.3c5.9,0.8,12.1-5.2,12.7-10.3c0.5-3.9-1.6-5.5-5.2-4.3
			C54.1,118.5,52.7,120.1,50.8,121.5z"/>
	</g>
	<g>
		<path class="st1" d="M343.5,112.9c0,1.6-1.4,2.9-3.1,2.9c-1.7,0-3.1-1.3-3.1-2.9c0-1.6,1.4-2.9,3.1-2.9
			C342.2,109.9,343.5,111.2,343.5,112.9z"/>
		<ellipse class="st1" cx="340.5" cy="125.7" rx="3.1" ry="2.9"/>
		<ellipse class="st1" cx="340.8" cy="137.6" rx="3.1" ry="2.9"/>
	</g>
	<path class="st1" d="M9.1,7.5c0,0-0.7,81.2-1.4,94.3c-0.7,13.1-1.3,33.1-1.1,60.7c0.2,13.8,0.3,26.5,0.7,37.9
		c0.3,11.4,0.6,21.5,1,29.9c0.2,4.2,0.4,8.1,0.6,11.5c0.2,3.4,0.3,6.4,0.6,8.9c0.5,5,0.8,8.1,1,9.1c0.7,4-1.2,8.3-1.7,7.1
		c-0.5-1.2,1-6.2-0.1-14.7c-0.1-1.1-0.4-3.4-0.6-6.8c-0.2-3.4-0.4-7.7-0.6-12.8c-0.5-10.1-0.8-23-1.1-36.4
		C6.1,182.8,5.9,169,5.8,157c-0.1-11.9-0.1-22-0.1-27.8C5.8,106.1,6.2,13.7,6.5,8.8C6.8,3.9,8.6,2.7,9.1,7.5z"/>
	<path class="st1" d="M362.1,350.9c0,0,0.8-9,1.7-28c0.9-19,1.8-40.6,2.1-80.6c0.7-80.1,1.3-135.5,1.6-141.4
		c-0.2-5.9-1.3-87.9-0.9-86.1c0.3,1.8,1.8,85,1.8,97.3c0,6.2-0.7,42.4-1.1,81.3c-0.2,19.4-0.4,39.5-0.5,56.9
		c-0.1,17.3-0.3,31.9-0.4,40.3c-0.5,33.6-1,51.4-1.3,58.5C364.7,356.1,362.7,357.9,362.1,350.9z"/>
	<path class="st2" d="M304.6,319.4c-0.6-0.7-1.2-1.3-1.9-1.9c-0.7-0.6-1.5-1.2-2.2-1.7c-0.9-0.7-1.7-1.3-2.5-1.9
		c-0.8-0.6-1.4-1.2-2-1.9c-0.5-0.6-1-1.3-1.3-2c-0.3-0.7-0.4-1.5-0.4-2.3c0-0.5,0.1-1.1,0.3-1.6c0.2-0.5,0.5-1,0.8-1.5
		c0.4-0.4,0.8-0.8,1.4-1.1c0.5-0.3,1.1-0.4,1.8-0.4c1.1,0,2,0.3,2.5,0.7c0.5,0.5,0.9,0.9,1.2,1.5c0.3,0.5,0.5,1,0.7,1.5
		c0.2,0.4,0.5,0.7,0.9,0.7c0.1,0,0.2,0,0.4,0c0.2,0,0.3-0.1,0.5-0.2c0.2-0.1,0.3-0.2,0.4-0.4c0.1-0.2,0.2-0.4,0.2-0.6
		c0-0.4,0.1-0.8,0.4-1.1c0.3-0.3,0.4-0.7,0.4-1.1c0-0.5-0.2-0.9-0.6-1.3c-0.4-0.4-1-0.7-1.7-0.9c-0.7-0.2-1.4-0.4-2.2-0.6
		c-0.8-0.1-1.6-0.2-2.3-0.2c-1,0-2,0.1-3,0.4c-1,0.3-2,0.7-2.9,1.3c-0.9,0.6-1.6,1.4-2.1,2.5c-0.6,1-0.9,2.3-0.9,3.7
		c0,1,0.2,1.9,0.6,2.7c0.4,0.9,1,1.7,1.7,2.5c0.7,0.8,1.5,1.6,2.4,2.3c0.9,0.8,1.8,1.5,2.7,2.2c0.6,0.5,1.2,1,1.8,1.5
		c0.6,0.5,1,1,1.5,1.4c0.4,0.5,0.8,0.9,1,1.4c0.2,0.4,0.4,0.9,0.4,1.3c0,0.5-0.2,0.9-0.6,1.3c-0.4,0.4-0.8,0.6-1.3,0.8
		c-0.5,0.2-1,0.4-1.5,0.5c-0.5,0.1-0.9,0.1-1.2,0.1c-0.5,0-1,0-1.7-0.1c-0.7-0.1-1.4-0.2-2-0.5c-0.7-0.2-1.2-0.6-1.7-1.1
		c-0.5-0.5-0.7-1.1-0.7-1.8c0-0.7,0.1-1.2,0.3-1.6c0.2-0.4,0.3-0.7,0.4-0.8c-1,0.2-1.8,0.5-2.4,1c-0.6,0.4-0.8,1.1-0.8,1.9
		c0,0.9,0.3,1.6,0.8,2.2c0.6,0.6,1.3,1.1,2.2,1.5c0.9,0.4,1.8,0.7,2.9,0.9c1,0.2,2,0.3,2.9,0.3c0.9,0,1.9,0,2.9-0.2
		c1-0.1,1.9-0.4,2.7-0.8c0.8-0.4,1.5-0.9,2.1-1.5c0.6-0.6,0.8-1.4,0.9-2.4c0-0.9-0.1-1.7-0.5-2.5C305.6,320.8,305.2,320,304.6,319.4
		z M346.9,318.2c-0.1-0.3-0.2-0.5-0.5-0.5c-0.3,0-0.4,0.1-0.5,0.2c-0.1,0.2-0.1,0.3-0.2,0.6c-0.3,1.9-0.6,3.3-1,4.2
		c-0.4,0.9-1,1.3-1.8,1.3c-0.3,0-0.6-0.2-0.8-0.5c-0.2-0.3-0.3-0.7-0.4-1.2c-0.1-0.5-0.1-1.1-0.2-1.8c0-0.7,0-1.4,0-2.1l0.1-4
		c0-1.8,0.1-3.6,0.2-5.2c0.1-1.6,0.2-3,0.3-4.3c0.1-1.2,0.2-2.2,0.3-3c0.1-0.8,0.1-1.2,0.1-1.4c0-0.4-0.2-0.6-0.5-0.7
		c-0.3-0.1-0.8-0.2-1.4-0.2c-0.4,0-0.8,0-1.2,0.1c-0.4,0-0.9,0.1-1.3,0.3c0.1,0.2,0.2,0.3,0.3,0.6c0.1,0.2,0.1,0.5,0.2,0.8
		c0.1,0.3,0.1,0.8,0.1,1.3c0,0.5,0,1.1,0,1.8c0,0.3,0,0.7,0,1.3c0,0.6,0,1.2,0,1.9c0,0.7,0,1.4-0.1,2.1c0,0.7-0.1,1.3-0.1,1.8
		c-0.3-0.1-0.7-0.3-1.3-0.5c-0.6-0.2-1.2-0.3-1.8-0.3c-0.6,0-1.1,0.2-1.6,0.6c-0.5,0.4-0.9,0.9-1.3,1.6c-0.4,0.6-0.7,1.3-0.9,2.1
		c-0.3,0.8-0.5,1.5-0.7,2.2c-0.2,0.7-0.3,1.3-0.4,1.8c0,0.2-0.1,0.4-0.1,0.5c0,0.1-0.1,0.2-0.1,0.4c0,0.4-0.1,0.8-0.3,1.3
		c-0.1,0.4-0.3,0.9-0.5,1.3c-0.2,0.4-0.4,0.7-0.7,1c-0.2,0.3-0.5,0.4-0.8,0.4c-0.4,0-0.7-0.3-0.8-0.8c-0.1-0.6-0.2-1.2-0.2-1.9
		c0-1.2,0.1-2.1,0.1-2.8c0.1-0.6,0.1-1,0.1-1.3c0-0.4,0-0.8,0-1.2c0-0.4-0.1-0.8-0.2-1.1c-0.1-0.3-0.3-0.6-0.6-0.9
		c-0.2-0.2-0.6-0.3-1.1-0.4c-0.4,0-0.7,0.2-1.1,0.7c-0.4,0.4-0.7,1-1,1.6c-0.3,0.6-0.6,1.3-0.9,2c-0.3,0.7-0.5,1.3-0.7,1.8
		c-0.1,0.2-0.1,0.3-0.1,0.3l0.1-8.1c0-0.2-0.1-0.3-0.3-0.4c-0.2-0.1-0.4-0.2-0.7-0.3c-0.3-0.1-0.5-0.1-0.8-0.2
		c-0.2,0-0.4-0.1-0.6-0.1c-0.4,0-0.6,0.2-0.6,0.5l-0.3,5.1c0.1,0.2,0.3,0.5,0.4,0.7c0.5,1.1,0.8,5.5,0.9,9c0.2,0,0.4,0,0.7,0
		c0.2,0,0.4,0,0.8-0.1c0.4,0,0.6-0.2,0.6-0.3c0.1-0.7,0.3-1.4,0.4-2.1c0.1-0.7,0.3-1.5,0.5-2.2c0.2-0.7,0.4-1.4,0.7-2.1
		c0.3-0.7,0.6-1.3,1-1.8l-0.1,2.9c0,1.7,0.1,3,0.4,3.9c0.3,0.9,1.1,1.3,2.3,1.3c0.8,0,1.4-0.2,2-0.6c0.5-0.4,1-0.9,1.3-1.5
		c0.1-0.1,0.1-0.2,0.2-0.4c0,0.1,0,0.1,0,0.2c0.2,0.6,0.4,1.1,0.7,1.6c0.3,0.5,0.8,1,1.4,1.3c0.4,0.2,0.8,0.4,1.2,0.6
		c0.4,0.2,0.8,0.2,1.2,0.2c0.6,0,1.1-0.1,1.4-0.4c0.4-0.3,0.7-0.6,1-1c0.3-0.4,0.5-0.9,0.6-1.4c0.2-0.5,0.3-1,0.4-1.4l0-0.2
		c0.3,1.1,0.7,2,1.3,2.5c0.5,0.5,1.3,0.8,2.5,0.8c0.8,0,1.4-0.2,2-0.6c0.6-0.4,1-1,1.3-1.7c0.3-0.7,0.6-1.4,0.8-2.1
		c0.2-0.7,0.3-1.4,0.4-2l0-0.6C347,318.8,347,318.5,346.9,318.2z M338.5,315.3c0,0.4-0.1,1-0.2,1.7c-0.1,0.7-0.2,1.4-0.4,2.2
		c-0.2,0.8-0.3,1.6-0.5,2.4c-0.2,0.8-0.4,1.5-0.7,2.1c-0.2,0.6-0.5,1.1-0.8,1.5c-0.3,0.4-0.6,0.6-1,0.6c-0.3,0-0.6-0.1-0.7-0.4
		c-0.2-0.3-0.3-0.6-0.4-1c-0.1-0.4-0.2-0.8-0.2-1.2c0-0.4,0-0.8,0-1.1c0-0.8,0.1-1.8,0.2-2.9c0.1-1.1,0.4-2.1,0.7-3.1
		c0.3-1,0.6-1.8,1.1-2.4c0.4-0.6,0.9-1,1.4-1c0.1,0,0.3,0,0.5,0.1c0.2,0.1,0.4,0.2,0.5,0.3c0.2,0.1,0.3,0.2,0.4,0.3
		c0.1,0.1,0.2,0.2,0.2,0.3L338.5,315.3z M316.4,312.5c-0.2-0.4-0.4-0.8-0.7-1.1c-0.3-0.3-0.7-0.6-1.1-0.8c-0.4-0.2-0.9-0.3-1.4-0.3
		c-1,0-1.8,0.3-2.5,0.9c-0.7,0.6-1.3,1.4-1.7,2.4c-0.5,1-0.8,2-1,3.1c-0.2,1.1-0.3,2.1-0.4,3.1c0,1,0.1,1.9,0.3,2.7
		c0.2,0.9,0.5,1.6,1,2.3c0.5,0.6,1,1.2,1.8,1.5c0.7,0.4,1.6,0.6,2.6,0.6c0.3,0,0.6,0,0.9,0c0.1-0.7,0.2-1.3,0.3-2
		c-0.1,0-0.3,0-0.4,0c-0.6,0-1-0.1-1.4-0.4c-0.4-0.3-0.7-0.6-0.9-0.9c-0.2-0.3-0.4-0.7-0.5-1c-0.1-0.3-0.2-0.6-0.2-0.8l0-1.2
		c0.2,0.1,0.4,0.1,0.6,0.1c0.2,0,0.4,0,0.5,0c0.7,0,1.4-0.2,2-0.6c0.6-0.4,1.1-1,1.5-1.6c0.1-0.5,0.2-0.9,0.4-1.2
		c0.2-0.5,0.4-0.9,0.7-1.2c0.2-0.7,0.3-1.3,0.3-1.8l0-0.6C316.7,313.4,316.6,313,316.4,312.5z M314.8,314c0,0.4-0.1,0.9-0.2,1.4
		c-0.1,0.6-0.3,1.2-0.5,1.7c-0.2,0.6-0.5,1-0.9,1.4c-0.4,0.4-0.8,0.6-1.4,0.6l-0.2,0c-0.2,0-0.4-0.1-0.4-0.2c0-0.1-0.1-0.3-0.1-0.6
		l0-0.1c0-0.2,0.1-0.6,0.2-1.2c0.1-0.6,0.3-1.2,0.5-1.9c0.2-0.6,0.5-1.2,0.9-1.7c0.4-0.5,0.8-0.7,1.2-0.7c0.3,0,0.5,0.1,0.7,0.4
		c0.1,0.2,0.2,0.5,0.2,0.7L314.8,314z"/>
	<path class="st1" d="M255.9,346.6c-37.7,0-77.9,0-120.3,0c-22.5-0.1-44-0.1-64.2-0.2c-16.7-0.1-32.6-0.3-47.7-0.4
		c9.8-0.5,26.5-1.1,48.8-1.5c33.4-0.7,79.5-1.3,134-1.5c43.3-0.2,77.1,0.2,102.1,0.8c-0.2-0.5-0.4-1-0.6-1.5
		c-10.8-0.1-22.9-0.2-35.8-0.2c-22.8-0.1-79.4,0.1-132.3,0.6c-26.4,0.3-52,0.6-72,1c-20,0.4-34.4,0.9-38.6,1.1
		c-6.7,0.4-12.2,0.4-16.7,0.4c0.1-11.6,0.3-22.9,0.4-33.8c0.2-10.5,0.3-13.2,0.5-22.9c0.3-19.5,0.7-37.6,1.1-54.1
		c0.8-33.1,1.6-60.3,2.4-81.8c1.6-43.1,2.9-63.6,2.9-63.6c-5.2-98.1-3.7-92.2-6.9,6.1c-0.8,23.4-1.9,99.6-2.7,210.6
		c0,10.1-0.1,22.5-0.2,39.5c-0.2,0-0.4,0-0.6,0c-4.9,0-7.9-0.2-9.1,0.1c-1.2,0.3,0.3,0.9,3.1,1.2c1.8,0.3,4.2,0.4,6.7,0.4
		c0,0.6,0,1.1,0,1.7c77.7,0.3,187.7,0.3,301.1,0.1c-0.5-0.7-0.9-1.4-1.3-2.1C292.6,346.5,274.6,346.5,255.9,346.6z M365,343.1
		c-0.2-50.9-0.4-89.9-0.5-126.1c-0.2-36.3-0.5-61.9-0.8-70.3c-1.4-40.8-0.4-140.6-1.5-146.4c-1.1-5.8-3.1,90.1-1.9,109.5
		c0.4,6.6,0.9,32.1,1.4,73.4c0.2,20.7,0.4,45.3,0.6,73.5c0.1,27.9,0.3,51.8,0.5,86.3c-0.3,0-0.5,0-0.8,0c-4.6-0.1-15-0.3-29.7-0.5
		l-0.6,1.8c17.1,0.5,27.3,1,31.1,1.2c0,0.3,0,0.5,0,0.8c-10.3,0-20.9,0.1-31.8,0.1l-0.7,2.1c11.6,0,23.1,0,34.7-0.1c0-1,0-1.9,0-2.9
		C373,345.1,372,343.6,365,343.1z"/>
	<g>
		<path class="st2" d="M232.9,266.5c0.6,0,1.2-0.2,1.7-0.7c0.5-0.5,1-1.1,1.3-1.9c0.4-0.8,0.6-1.8,0.8-2.9c0.2-1.1,0.3-2.4,0.3-3.7
			c0-1.5-0.2-3-0.6-4.5c-0.4-1.5-1.1-2.8-2.1-4c-1-1.2-2.3-2.2-3.9-2.9c-1.6-0.8-3.7-1.2-6.1-1.2c-1.9,0-3.6,0.3-5,0.8
			c-1.4,0.5-2.7,1.3-3.7,2.2c-1,0.9-1.9,1.9-2.6,3c-0.7,1.1-1.2,2.3-1.6,3.4c-0.4,1.1-0.7,2.2-0.8,3.3c-0.2,1.1-0.2,2-0.2,2.7
			c0,1.3,0.2,2.7,0.6,4.2c0.4,1.5,1,3,2,4.3c0.9,1.3,2.2,2.5,3.8,3.4c1.6,0.9,3.6,1.4,6.1,1.4c1.8,0,3.2-0.1,4.3-0.4
			c1.1-0.3,2-0.5,2.7-0.9c0.7-0.3,1.2-0.7,1.5-1c0.3-0.3,0.6-0.6,0.8-0.7c0.2,0.1,0.4,0.2,0.5,0.3c0.1,0.1,0.2,0.2,0.2,0.5
			c0,0.3-0.2,0.7-0.6,1.2c-0.4,0.5-1,1-1.9,1.4c-0.9,0.5-2,0.8-3.5,1.2c-1.4,0.3-3.2,0.5-5.3,0.5c-1.4,0-3-0.3-4.6-0.8
			c-1.7-0.6-3.2-1.5-4.7-2.7c-1.4-1.2-2.7-2.8-3.6-4.7c-1-1.9-1.5-4.2-1.5-6.9c0-2.9,0.5-5.5,1.6-7.7c1-2.2,2.4-4.1,4-5.6
			c1.6-1.5,3.5-2.7,5.5-3.4c2-0.8,4-1.2,5.9-1.2c1.9,0,3.8,0.3,5.6,0.8c1.9,0.5,3.5,1.4,5,2.5c1.5,1.1,2.7,2.6,3.6,4.5
			c0.9,1.8,1.4,4.1,1.4,6.7c0,1.2-0.1,2.5-0.4,3.9c-0.2,1.4-0.6,2.6-1.2,3.8c-0.6,1.1-1.3,2.1-2.3,2.8c-1,0.8-2.2,1.1-3.7,1.1
			c-1.4,0-2.6-0.4-3.4-1.2c-0.8-0.8-1.2-1.8-1.3-3c-0.2,0.5-0.5,1.1-0.8,1.7c-0.3,0.6-0.7,1.2-1.1,1.7c-0.4,0.5-0.9,1-1.5,1.3
			c-0.6,0.4-1.2,0.5-2,0.5c-0.2,0-0.4,0-0.5-0.1c-0.2-0.1-0.3-0.2-0.5-0.2c-0.2-0.1-0.3-0.2-0.5-0.2c-0.2-0.1-0.4-0.1-0.7-0.1
			c-0.8,0-1.5-0.2-2-0.6c-0.5-0.4-0.9-0.9-1.2-1.6c-0.3-0.6-0.5-1.3-0.6-2.1c-0.1-0.8-0.2-1.5-0.2-2.2c0-0.5,0-1.2,0.1-2
			c0.1-0.9,0.3-1.8,0.5-2.8c0.2-1,0.5-2,0.9-3c0.4-1,0.8-2,1.3-2.8c0.5-0.8,1.2-1.5,1.9-2c0.7-0.5,1.6-0.8,2.5-0.8
			c0.7,0,1.2,0.1,1.6,0.2c0.3,0.2,0.6,0.3,0.8,0.5c0.2,0.2,0.5,0.4,0.8,0.5c0.3,0.2,0.8,0.2,1.6,0.2c0.6,0.2,1,0.5,1.3,0.8
			c0.3,0.3,0.6,0.7,0.8,1.1c0.2,0.4,0.3,0.8,0.4,1.3c0,0.4,0.1,0.9,0.1,1.3c0,0.3,0,0.5,0,0.8c0,0.3,0,0.5,0,0.8
			c0,0.1,0.1,0.2,0.2,0.2c0.2,0,0.3,0.1,0.5,0.1c0.2,0,0.4,0.1,0.5,0.3c0.2,0.1,0.2,0.4,0.2,0.7v0.2c-0.4,0.8-0.7,1.5-0.9,2.2
			c-0.2,0.7-0.3,1.5-0.3,2.4c0,0.4,0,0.8,0.1,1.3c0.1,0.5,0.2,0.9,0.4,1.3c0.2,0.4,0.4,0.7,0.7,0.9S232.4,266.5,232.9,266.5z
			 M227.2,256.2c0-0.3,0-0.8-0.1-1.3c-0.1-0.5-0.2-1-0.4-1.5c-0.2-0.5-0.5-0.9-0.9-1.2c-0.4-0.3-0.9-0.5-1.5-0.5
			c-1.1,0-1.9,0.4-2.6,1.2c-0.7,0.8-1.2,1.8-1.6,3c-0.4,1.1-0.6,2.3-0.8,3.5c-0.1,1.2-0.2,2.1-0.2,2.7c0,0.5,0,1,0.1,1.7
			c0,0.6,0.1,1.2,0.3,1.8c0.1,0.6,0.3,1,0.6,1.4c0.3,0.4,0.6,0.6,1.1,0.6c0.8,0,1.5-0.3,2-1c0.6-0.7,1-1.5,1.4-2.4
			c0.4-1,0.7-2,0.9-3.2c0.2-1.1,0.4-2.2,0.5-3.1c0.1-0.5,0.2-0.8,0.5-0.9c0.3-0.2,0.4-0.3,0.4-0.3L227.2,256.2z"/>
		<path class="st2" d="M266.8,253.4c0.1,0.2,0.1,0.5,0.1,0.8c0,0.4-0.1,0.8-0.4,1.2c-0.3,0.4-0.7,0.8-1.1,1.1
			c-0.5,0.3-1,0.6-1.5,0.8c-0.6,0.2-1.1,0.4-1.7,0.4c0,0.3-0.1,0.9-0.2,1.5c-0.1,0.7-0.2,1.4-0.4,2.3c-0.2,0.8-0.4,1.7-0.7,2.5
			c-0.3,0.9-0.6,1.7-1,2.4c-0.4,0.7-0.8,1.3-1.4,1.8c-0.5,0.5-1.1,0.7-1.8,0.7c-0.5,0-1.1-0.1-1.6-0.4c-0.5-0.3-1-0.7-1.5-1.2
			c-0.5-0.5-0.9-1-1.2-1.6c-0.3-0.6-0.6-1.2-0.8-1.8c-0.1,0.4-0.3,1-0.5,1.7c-0.2,0.7-0.5,1.5-0.9,2.2c-0.4,0.7-0.8,1.4-1.3,1.9
			c-0.5,0.5-1.1,0.8-1.9,0.8c-0.6,0-1.2-0.1-2-0.3c-0.8-0.2-1.3-0.5-1.7-1c-0.2-0.3-0.4-0.8-0.6-1.4c-0.2-0.7-0.3-1.4-0.4-2.1
			c-0.1-0.7-0.2-1.4-0.2-2.1c0-0.7-0.1-1.1-0.1-1.4V260c0-0.4,0-1,0.1-2c0.1-0.9,0.1-1.9,0.2-2.9c0.1-1,0.2-2,0.2-2.8
			c0.1-0.8,0.1-1.4,0.2-1.6c0.1-0.2,0.2-0.3,0.4-0.3c0.2,0,0.4-0.1,0.5-0.1c0.2,0,0.4,0,0.8,0.1c0.4,0,0.8,0.1,1.1,0.2
			c0.4,0.1,0.7,0.2,1,0.3c0.3,0.1,0.4,0.3,0.4,0.4c0,0.1,0,0.2-0.2,0.3c-0.1,0.1-0.2,0.3-0.3,0.7c-0.1,0.4-0.1,1-0.2,1.7
			c-0.1,0.8-0.2,1.7-0.3,2.7c-0.1,1-0.2,2-0.2,3.1c-0.1,1.1-0.1,2.1-0.1,3.2c0,1.4,0.1,2.6,0.3,3.6c0.2,1,0.5,1.4,1,1.4
			c0.3,0,0.5-0.3,0.8-0.8c0.3-0.5,0.5-1.2,0.8-1.9c0.3-0.7,0.5-1.5,0.6-2.2c0.2-0.7,0.3-1.2,0.4-1.6c0.1-0.4,0.2-1.1,0.3-2.1
			c0.2-1,0.2-2,0.2-3.2c0-0.4,0-0.8,0-1c0-0.2,0-0.4,0-0.5c0-0.1,0-0.2,0-0.3c0-0.1,0-0.2,0-0.3c0-0.3,0.1-0.5,0.3-0.6
			c0.2-0.1,0.4-0.1,0.7-0.1c0.3,0,0.7,0,1.1,0.1c0.4,0.1,0.8,0.1,1.1,0.2c0.3,0.1,0.7,0.2,0.9,0.3c0.3,0.1,0.4,0.2,0.4,0.2v3.8
			c0,0.4,0,1.1,0,2c0,1,0.1,1.9,0.2,2.9c0.1,1,0.3,1.8,0.6,2.6c0.3,0.7,0.6,1.1,1,1.1c0.3,0,0.5-0.2,0.8-0.6c0.2-0.4,0.5-1,0.7-1.6
			c0.2-0.6,0.4-1.3,0.5-2.1c0.1-0.8,0.3-1.5,0.4-2.1c0.1-0.7,0.2-1.2,0.2-1.7c0-0.5,0.1-0.7,0.1-0.7c0-0.2-0.1-0.3-0.3-0.4
			c-0.2-0.1-0.4-0.3-0.6-0.5c-0.2-0.2-0.4-0.5-0.6-0.9c-0.2-0.4-0.3-0.9-0.3-1.6c0-0.4,0.1-0.9,0.2-1.5c0.1-0.5,0.3-1.1,0.4-1.5
			c0.2-0.5,0.4-0.9,0.6-1.2c0.2-0.3,0.5-0.5,0.8-0.5c0.4,0,0.7,0,1.1,0.1c0.3,0.1,0.7,0.3,0.9,0.6c0.3,0.3,0.5,0.7,0.6,1.2
			c0.1,0.5,0.2,1.1,0.2,1.9v1.9c0.7,0,1.4-0.2,2.2-0.5c0.7-0.3,1.4-0.9,2.1-1.6C266.7,253.2,266.8,253.2,266.8,253.4z"/>
		<path class="st2" d="M284.5,264c-0.1,0.4-0.2,1-0.5,1.6c-0.3,0.6-0.6,1.2-1,1.7c-0.4,0.5-0.8,1-1.4,1.4c-0.5,0.4-1.1,0.6-1.7,0.6
			c-0.9,0-1.8-0.4-2.5-1.1c-0.7-0.7-1.1-1.7-1.3-3.1c-0.2,0.5-0.4,1.1-0.7,1.7c-0.3,0.7-0.6,1.3-0.9,1.8c-0.4,0.6-0.8,1-1.3,1.4
			c-0.5,0.4-1.1,0.6-1.7,0.6c-0.2,0-0.3,0-0.4,0c-0.1,0-0.2-0.1-0.3-0.1c-0.1,0-0.2-0.1-0.4-0.1c-0.1,0-0.3,0-0.6,0
			c-0.8,0-1.4-0.2-1.9-0.7c-0.5-0.5-0.9-1.1-1.2-1.9c-0.3-0.8-0.5-1.6-0.7-2.5c-0.1-0.9-0.2-1.7-0.2-2.5c0-1.9,0.1-3.7,0.3-5.4
			c0.2-1.7,0.5-3.2,1-4.5c0.5-1.3,1.1-2.3,1.8-3.1c0.8-0.8,1.7-1.2,2.7-1.2c0.6,0,1.1,0.1,1.4,0.2c0.3,0.1,0.6,0.2,0.9,0.4
			c0.3,0.1,0.6,0.3,0.9,0.4c0.3,0.2,0.8,0.3,1.4,0.4c0.7,0.4,1.1,0.8,1.4,1.3c0.3,0.5,0.4,1.1,0.5,1.7c0.1,0.6,0.1,1.2,0.1,1.9
			c0,0.6,0,1.3,0.1,1.9c0,0,0.1,0.1,0.2,0.1c0.1,0.1,0.3,0.1,0.5,0.2c0.2,0.1,0.4,0.2,0.5,0.3c0.1,0.1,0.2,0.3,0.2,0.5v0.2
			c-0.3,0.8-0.5,1.5-0.6,2.2c-0.1,0.6-0.1,1.4-0.1,2.3c0,0.4,0,0.9,0.1,1.4c0,0.5,0.1,1,0.2,1.5c0.1,0.5,0.3,0.8,0.5,1.1
			c0.2,0.3,0.5,0.4,0.8,0.4c0.4,0,0.7-0.2,1-0.6c0.3-0.4,0.5-0.8,0.8-1.3c0.2-0.5,0.4-1,0.5-1.5c0.1-0.5,0.2-0.9,0.3-1.1
			c0.1-0.4,0.2-0.6,0.5-0.6c0.2,0,0.3,0.1,0.4,0.3c0.1,0.2,0.2,0.5,0.2,0.9c0,0.1,0,0.2,0,0.4C284.6,263.7,284.6,263.8,284.5,264z
			 M275.8,256.4c0-0.3,0-0.8-0.1-1.2c-0.1-0.5-0.2-0.9-0.3-1.3c-0.2-0.4-0.4-0.8-0.7-1c-0.3-0.3-0.7-0.4-1.3-0.4
			c-0.9,0-1.6,0.4-2.1,1.2c-0.5,0.8-1,1.7-1.3,2.8c-0.3,1.1-0.5,2.2-0.6,3.3c-0.1,1.1-0.1,2.1-0.1,2.7c0,0.5,0,1.1,0.1,1.8
			c0,0.7,0.1,1.4,0.3,2c0.1,0.6,0.3,1.2,0.5,1.6c0.2,0.4,0.5,0.7,0.9,0.7c0.9,0,1.6-0.4,2.1-1.1c0.5-0.7,0.9-1.6,1.1-2.6
			c0.2-1.1,0.4-2.2,0.5-3.4c0.1-1.2,0.2-2.3,0.3-3.3c0.1-0.5,0.2-0.9,0.4-1c0.2-0.1,0.3-0.2,0.3-0.3V256.4z"/>
		<path class="st2" d="M290.3,258.9c-0.5,0.7-0.9,1.4-1.2,2.2c-0.3,0.8-0.6,1.6-0.8,2.5c-0.2,0.9-0.4,1.7-0.5,2.6
			c-0.1,0.9-0.3,1.7-0.4,2.5c-0.1,0.2-0.3,0.3-0.7,0.4c-0.4,0.1-0.7,0.1-0.9,0.1c-0.6,0-1,0-1.4-0.1c-0.4-0.1-0.6-0.2-0.8-0.4
			c-0.2-0.2-0.3-0.6-0.4-1.1c-0.1-0.5-0.2-1.1-0.2-2l0.6-14c0-0.4,0.2-0.6,0.7-0.6c0.2,0,0.4,0,0.7,0.1c0.3,0,0.6,0.1,0.9,0.2
			c0.3,0.1,0.6,0.2,0.8,0.4c0.2,0.1,0.3,0.3,0.3,0.5v9.6c0,0,0.1-0.2,0.1-0.4c0.2-0.6,0.5-1.3,0.8-2.1c0.3-0.8,0.7-1.6,1-2.4
			c0.4-0.8,0.8-1.4,1.2-1.9c0.4-0.5,0.9-0.8,1.3-0.8c0.6,0,1,0.1,1.3,0.4c0.3,0.3,0.5,0.6,0.7,1c0.2,0.4,0.3,0.8,0.3,1.3
			c0,0.5,0,0.9,0,1.4c0,0.3,0,0.8-0.1,1.6c-0.1,0.7-0.1,1.8-0.1,3.3c0,0.8,0.1,1.6,0.2,2.2c0.2,0.7,0.5,1,0.9,1
			c0.3,0,0.7-0.2,0.9-0.5c0.3-0.3,0.5-0.7,0.8-1.2c0.2-0.5,0.4-1,0.6-1.5c0.2-0.5,0.3-1,0.3-1.5c0-0.6,0.3-0.9,0.7-0.9
			c0.3,0,0.5,0.1,0.6,0.3c0.1,0.2,0.1,0.4,0.1,0.7v0.1c0,0.6-0.1,1.3-0.4,2.1c-0.2,0.8-0.5,1.5-0.9,2.2c-0.4,0.7-0.9,1.3-1.5,1.7
			c-0.6,0.5-1.4,0.7-2.3,0.7c-1.4,0-2.3-0.5-2.7-1.5c-0.4-1-0.6-2.5-0.6-4.5L290.3,258.9z"/>
		<path class="st2" d="M296.8,260.6c0-1.6,0.1-3.2,0.1-4.9c0.1-1.7,0.1-3.2,0.2-4.6c0-0.3-0.3-0.4-0.8-0.5c-0.5-0.1-1.1-0.2-1.7-0.3
			c-0.6-0.1-1.2-0.2-1.7-0.5c-0.5-0.2-0.8-0.5-0.8-1c0-0.4,0.4-0.6,1.2-0.7c0.8-0.1,2-0.1,3.6-0.1c0.1,0,0.2-0.2,0.3-0.6
			c0-0.4,0.1-0.9,0.1-1.4c0-0.6,0-1.2,0-1.9c0-0.7,0-1.3,0.1-1.9c0-0.6,0.1-1.1,0.2-1.4c0.1-0.4,0.2-0.6,0.3-0.6
			c0.2,0,0.4,0,0.8,0.1c0.4,0.1,0.8,0.1,1.3,0.3c0.4,0.1,0.8,0.2,1.2,0.4c0.3,0.2,0.5,0.3,0.5,0.5l-0.5,6.1c0,0.2,0.2,0.3,0.5,0.4
			c0.3,0.1,0.8,0.1,1.3,0.1c0.5,0,1.1,0,1.6,0c0.6,0,1.1,0,1.6,0.1c0.5,0.1,0.9,0.2,1.3,0.4c0.3,0.2,0.5,0.5,0.5,0.9
			c0,0.1,0,0.2-0.1,0.3c-0.1,0.1-0.1,0.2-0.2,0.2c-0.1,0-0.1,0-0.3-0.1c-0.1-0.1-0.4-0.1-0.9-0.1c-0.1,0-0.5,0-1,0
			c-0.6,0-1.2,0.1-1.8,0.1c-0.6,0.1-1.2,0.1-1.7,0.2c-0.5,0.1-0.8,0.2-0.9,0.3c0,0.1-0.1,0.4-0.1,1.1c0,0.7-0.1,1.6-0.1,2.7
			c0,1.1-0.1,2.4-0.1,3.8c0,1.4,0,2.9,0,4.5c0,0.6,0,1.2,0.1,1.7c0.1,0.6,0.2,1.1,0.3,1.5c0.1,0.5,0.3,0.8,0.5,1.1
			c0.2,0.3,0.4,0.4,0.7,0.4c0.4,0,0.8-0.2,1.1-0.5c0.3-0.3,0.7-0.8,0.9-1.4c0.3-0.6,0.5-1.3,0.8-2c0.2-0.8,0.4-1.5,0.6-2.3
			c0.1-0.5,0.2-0.8,0.3-1c0.1-0.2,0.3-0.3,0.6-0.3c0.2,0,0.4,0.1,0.6,0.2c0.2,0.1,0.3,0.5,0.3,1c0,0.3,0,0.5,0,0.6
			c-0.1,0.6-0.3,1.3-0.5,2.3c-0.3,1-0.6,2-1.1,2.9c-0.5,1-1,1.8-1.7,2.5c-0.7,0.7-1.4,1.1-2.3,1.1c-0.8,0-1.6-0.2-2.2-0.7
			c-0.6-0.5-1.2-1.2-1.6-2c-0.4-0.9-0.7-1.9-1-3.1c-0.2-1.2-0.3-2.4-0.3-3.8V260.6z"/>
		<path class="st2" d="M317.9,260.6c0-1.6,0.1-3.2,0.1-4.9c0.1-1.7,0.1-3.2,0.2-4.6c0-0.3-0.3-0.4-0.8-0.5c-0.5-0.1-1.1-0.2-1.7-0.3
			c-0.6-0.1-1.2-0.2-1.7-0.5c-0.5-0.2-0.8-0.5-0.8-1c0-0.4,0.4-0.6,1.2-0.7c0.8-0.1,2-0.1,3.6-0.1c0.1,0,0.2-0.2,0.3-0.6
			c0-0.4,0.1-0.9,0.1-1.4c0-0.6,0-1.2,0-1.9c0-0.7,0-1.3,0.1-1.9c0-0.6,0.1-1.1,0.2-1.4c0.1-0.4,0.2-0.6,0.3-0.6
			c0.2,0,0.4,0,0.8,0.1c0.4,0.1,0.8,0.1,1.3,0.3c0.4,0.1,0.8,0.2,1.2,0.4c0.3,0.2,0.5,0.3,0.5,0.5l-0.5,6.1c0,0.2,0.2,0.3,0.5,0.4
			c0.3,0.1,0.8,0.1,1.3,0.1c0.5,0,1.1,0,1.6,0c0.6,0,1.1,0,1.6,0.1c0.5,0.1,0.9,0.2,1.3,0.4c0.3,0.2,0.5,0.5,0.5,0.9
			c0,0.1,0,0.2-0.1,0.3c-0.1,0.1-0.1,0.2-0.2,0.2c-0.1,0-0.1,0-0.3-0.1c-0.1-0.1-0.4-0.1-0.9-0.1c-0.1,0-0.5,0-1,0
			c-0.6,0-1.2,0.1-1.8,0.1c-0.6,0.1-1.2,0.1-1.7,0.2c-0.5,0.1-0.8,0.2-0.9,0.3c0,0.1-0.1,0.4-0.1,1.1c0,0.7-0.1,1.6-0.1,2.7
			c0,1.1-0.1,2.4-0.1,3.8c0,1.4,0,2.9,0,4.5c0,0.6,0,1.2,0.1,1.7c0.1,0.6,0.2,1.1,0.3,1.5c0.1,0.5,0.3,0.8,0.5,1.1
			c0.2,0.3,0.4,0.4,0.7,0.4c0.4,0,0.8-0.2,1.1-0.5c0.3-0.3,0.7-0.8,0.9-1.4c0.3-0.6,0.5-1.3,0.8-2c0.2-0.8,0.4-1.5,0.6-2.3
			c0.1-0.5,0.2-0.8,0.3-1c0.1-0.2,0.3-0.3,0.6-0.3c0.2,0,0.4,0.1,0.6,0.2c0.2,0.1,0.3,0.5,0.3,1c0,0.3,0,0.5,0,0.6
			c-0.1,0.6-0.3,1.3-0.5,2.3c-0.3,1-0.6,2-1.1,2.9c-0.5,1-1,1.8-1.7,2.5c-0.7,0.7-1.4,1.1-2.3,1.1c-0.8,0-1.6-0.2-2.2-0.7
			c-0.6-0.5-1.2-1.2-1.6-2c-0.4-0.9-0.7-1.9-1-3.1c-0.2-1.2-0.3-2.4-0.3-3.8V260.6z"/>
		<path class="st2" d="M312.4,247.3c0,0.2-0.1,0.4-0.3,0.5c-0.2,0.1-0.5,0.2-0.7,0.3c-0.3,0.1-0.5,0.1-0.8,0.1c-0.3,0-0.4,0-0.5,0
			c-0.7,0-1.3-0.2-2-0.6c-0.6-0.4-1.2-1-1.8-1.8c-0.1-0.1-0.2-0.2-0.3-0.4c-0.1-0.2-0.2-0.3-0.2-0.3c0-0.2,0.1-0.3,0.4-0.4
			c0.2-0.1,0.5-0.3,0.8-0.4c0.3-0.1,0.6-0.2,0.8-0.3c0.3-0.1,0.4-0.1,0.5-0.1c0.6,0,1.2,0.2,1.9,0.5c0.6,0.3,1.1,0.9,1.5,1.7
			c0.1,0.1,0.2,0.3,0.4,0.5C312.3,247.1,312.4,247.2,312.4,247.3z M317.2,261.6c-0.1,0.8-0.3,1.5-0.5,2.4c-0.3,0.8-0.6,1.6-1.1,2.3
			c-0.5,0.7-1,1.3-1.7,1.7c-0.7,0.5-1.5,0.7-2.5,0.7c-0.8,0-1.6-0.3-2.4-0.8c-0.8-0.6-1.4-1.3-1.7-2.2c-0.3-0.9-0.4-1.8-0.4-2.6
			c0-0.2,0-0.6,0-1.1c0-0.5,0-1.1,0-1.8v-5.2c0-0.3,0-0.5,0-0.8c0-0.3-0.1-0.6-0.1-0.8c0-0.1-0.1-0.3-0.2-0.4
			c-0.1-0.2-0.1-0.3-0.1-0.3c0-0.1,0.1-0.2,0.2-0.3c0.2-0.1,0.3-0.1,0.5-0.2c0.2,0,0.5,0,0.8,0c0.1,0,0.3,0,0.7,0
			c0.3,0,0.7,0.1,1.1,0.2c0.4,0.1,0.7,0.2,1,0.4c0.3,0.2,0.4,0.5,0.4,0.9c0,0.1,0,0.3-0.2,0.5c-0.1,0.3-0.3,0.7-0.4,1.3
			c0,0.3-0.1,0.5-0.1,0.7c0,0.2-0.1,0.4-0.1,0.7c0,0.3-0.1,0.6-0.1,0.9c0,0.4-0.1,0.8-0.1,1.4v2.8c0,0.5,0,1,0,1.5
			c0,0.5,0.1,1,0.2,1.4c0.1,0.4,0.3,0.8,0.5,1c0.3,0.3,0.6,0.4,1,0.4c0.6,0,1.1-0.2,1.4-0.5c0.3-0.3,0.6-0.6,0.8-0.9
			c0.3-0.5,0.6-1.1,0.8-1.8c0.2-0.7,0.4-1.4,0.5-2.2l0.1-0.5c0.1-0.5,0.4-0.7,0.8-0.7c0.5,0,0.7,0.3,0.7,1v0.2L317.2,261.6z"/>
	</g>
	<g>
		<path class="st0" d="M41.3,197.6c0.2-0.9,0.4-1.7,0.6-2.5c0.2-0.8,0.4-1.5,0.6-2.2h-2.7c-0.7,0-1.3-0.1-1.8-0.4
			c-0.5-0.2-0.8-0.7-0.8-1.4v0c0-0.3,0.1-0.6,0.2-0.9c0.1-0.3,0.5-0.4,1-0.4h0.1c0.5,0,1.1,0,1.6,0c0.5,0,1,0,1.6,0h1.6
			c0.3-1.2,0.6-2.3,0.9-3.4c0.3-1.1,0.4-2.5,0.5-4.1c0-0.4,0.1-0.6,0.2-0.8c0.2-0.1,0.4-0.2,0.8-0.2c0.5,0,1.1,0.1,1.6,0.4
			c0.5,0.3,0.9,0.7,1,1.3c-0.3,2.1-0.7,4.4-1.3,6.8h5.4c0.3-1.1,0.6-2.3,0.8-3.4c0.2-1.1,0.4-2.5,0.4-4c0-0.4,0.1-0.6,0.2-0.8
			c0.2-0.1,0.4-0.2,0.8-0.2c0.5,0,1.1,0.1,1.6,0.4c0.5,0.3,0.9,0.7,1,1.3c-0.1,1-0.3,2.1-0.5,3.2c-0.2,1.1-0.5,2.3-0.8,3.5h2.7
			c0.4,0,0.7,0.2,0.9,0.6c0.1,0.4,0.2,0.8,0.2,1.2c0,0.3-0.1,0.6-0.2,0.8c-0.2,0.2-0.5,0.4-0.9,0.4h-3.4l-1.2,4.7h3.4
			c0.4,0,0.7,0.2,0.9,0.6c0.1,0.4,0.2,0.8,0.2,1.2c0,0.3-0.1,0.6-0.2,0.8c-0.1,0.2-0.5,0.4-0.9,0.4h-4.1c-0.3,1.2-0.5,2.4-0.7,3.7
			c-0.2,1.2-0.3,2.3-0.3,3.3c0.1,0.2,0.2,0.4,0.2,0.5c0,0.2,0,0.3,0,0.5c0,0.3-0.1,0.5-0.2,0.7c-0.1,0.2-0.4,0.3-0.8,0.3
			c-0.4,0-0.7-0.1-1.1-0.2c-0.3-0.1-0.6-0.3-0.9-0.6c-0.3-0.2-0.5-0.5-0.6-0.8c-0.1-0.3-0.2-0.6-0.2-0.8c0-0.7,0.1-1.6,0.3-2.7
			c0.2-1.1,0.5-2.4,0.7-3.8h-5.4c-0.3,1.2-0.5,2.4-0.7,3.6c-0.2,1.2-0.3,2.3-0.4,3.2c0.1,0.2,0.2,0.3,0.2,0.5c0,0.2,0,0.4,0,0.5
			c0,0.3-0.1,0.5-0.2,0.7c-0.1,0.2-0.4,0.3-0.8,0.3c-0.4,0-0.7-0.1-1.1-0.2c-0.3-0.1-0.7-0.3-0.9-0.6c-0.3-0.2-0.5-0.5-0.6-0.8
			c-0.1-0.3-0.2-0.6-0.2-0.8c0-0.7,0.1-1.6,0.3-2.7c0.2-1.1,0.5-2.4,0.7-3.7h-2.1c-0.7,0-1.3-0.1-1.8-0.4c-0.5-0.2-0.8-0.7-0.8-1.4
			v0c0-0.3,0.1-0.6,0.2-0.9c0.1-0.3,0.5-0.4,1-0.4h0.1c0.5,0,1.1,0,1.6,0c0.5,0,1,0,1.6,0H41.3z M46.1,192.8
			c-0.2,0.8-0.4,1.6-0.6,2.4c-0.2,0.8-0.4,1.6-0.6,2.4h5.4c0.2-0.9,0.4-1.7,0.6-2.5c0.2-0.8,0.4-1.5,0.6-2.2H46.1z"/>
		<path class="st0" d="M62.9,199.3c0-1.8,0.1-3.6,0.2-5.5c0.1-1.9,0.1-3.6,0.2-5.2c0-0.3-0.3-0.5-0.8-0.6c-0.6-0.1-1.2-0.2-1.9-0.3
			c-0.7-0.1-1.3-0.3-1.9-0.5c-0.6-0.2-0.8-0.6-0.8-1.1c0-0.5,0.5-0.7,1.4-0.8c0.9-0.1,2.3-0.1,4.1-0.1c0.1,0,0.2-0.2,0.3-0.6
			c0.1-0.4,0.1-1,0.1-1.6c0-0.7,0-1.3,0.1-2.1c0-0.7,0-1.4,0.1-2.1c0-0.7,0.1-1.2,0.2-1.6c0.1-0.4,0.2-0.6,0.3-0.6
			c0.2,0,0.5,0,1,0.1c0.5,0.1,0.9,0.2,1.4,0.3c0.5,0.1,0.9,0.3,1.3,0.5c0.4,0.2,0.6,0.4,0.6,0.6l-0.6,6.9c0,0.2,0.2,0.4,0.6,0.4
			c0.4,0.1,0.8,0.1,1.4,0.2c0.6,0,1.2,0,1.8,0c0.7,0,1.3,0.1,1.8,0.2c0.6,0.1,1.1,0.3,1.4,0.5c0.4,0.2,0.6,0.6,0.6,1
			c0,0.1,0,0.2-0.1,0.3c-0.1,0.2-0.2,0.2-0.3,0.2c-0.1,0-0.2-0.1-0.3-0.2c-0.1-0.1-0.4-0.2-1-0.2c-0.1,0-0.5,0-1.2,0.1
			c-0.6,0-1.3,0.1-2,0.2c-0.7,0.1-1.3,0.2-1.9,0.2c-0.6,0.1-0.9,0.2-1,0.3c0,0.1-0.1,0.5-0.1,1.2c-0.1,0.8-0.1,1.8-0.2,3
			c-0.1,1.2-0.1,2.7-0.1,4.2c0,1.6-0.1,3.3-0.1,5c0,0.7,0,1.3,0.1,2c0.1,0.6,0.2,1.2,0.3,1.7c0.1,0.5,0.3,0.9,0.6,1.2
			c0.2,0.3,0.5,0.5,0.8,0.5c0.5,0,0.9-0.2,1.3-0.6c0.4-0.4,0.7-0.9,1.1-1.6c0.3-0.7,0.6-1.4,0.8-2.3c0.2-0.8,0.5-1.7,0.6-2.6
			c0.1-0.5,0.2-0.9,0.4-1.1c0.1-0.2,0.4-0.3,0.6-0.3c0.2,0,0.5,0.1,0.7,0.2c0.2,0.2,0.3,0.5,0.3,1.1c0,0.4,0,0.6-0.1,0.7
			c-0.1,0.6-0.3,1.5-0.6,2.6c-0.3,1.1-0.7,2.2-1.2,3.3c-0.5,1.1-1.1,2-1.9,2.8c-0.7,0.8-1.6,1.2-2.6,1.2c-1,0-1.8-0.3-2.5-0.8
			c-0.7-0.5-1.3-1.3-1.8-2.3c-0.5-1-0.8-2.1-1.1-3.4c-0.2-1.3-0.4-2.7-0.4-4.2V199.3z"/>
		<path class="st0" d="M88.2,201.4c0,0.2-0.1,0.8-0.2,1.8c-0.2,0.9-0.4,1.9-0.8,3c-0.4,1-1,2-1.6,2.8c-0.7,0.8-1.6,1.2-2.6,1.2
			c-1.1,0-2-0.4-2.7-1.2c-0.7-0.8-1.2-1.7-1.5-2.8c-0.4-1.1-0.6-2.3-0.7-3.5c-0.1-1.2-0.2-2.2-0.2-3c0-0.9,0.1-1.8,0.2-2.8
			c0.1-0.9,0.2-1.9,0.2-2.8c0-0.3-0.1-0.5-0.4-0.5c-0.3-0.1-0.5-0.1-0.8-0.1c-0.4,0-0.7,0.1-0.8,0.2c-0.1,0.1-0.2,0.2-0.2,0.4
			l-0.2,1.7c-0.1,1.1-0.3,2.2-0.5,3.2c-0.2,1-0.3,2-0.5,2.7c-0.2,0.8-0.4,1.4-0.7,1.9c-0.3,0.5-0.6,0.7-0.9,0.7h-0.1
			c-0.1,0-0.3,0-0.4-0.1c-0.1-0.1-0.2-0.2-0.2-0.5c0-0.1,0-0.4,0.1-0.6c0.3-1.2,0.5-2.3,0.5-3.1c0.1-0.8,0.1-1.5,0.2-2.2v-0.4
			c0-0.2,0-0.4,0-0.6c0-0.2,0-0.5,0-0.9v-1.4c0-0.4,0-0.8,0-1.2c0-0.4,0-0.9-0.1-1.4l-0.2-3.1c0-0.2,0.1-0.4,0.3-0.6
			c0.2-0.2,0.4-0.3,0.7-0.5c0.3-0.1,0.6-0.2,0.9-0.3c0.3-0.1,0.6-0.1,0.8-0.1c0.6,0,0.9,0.4,0.9,1.2v0.3l-0.1,1.2v0.3
			c0,0.2,0.1,0.4,0.2,0.4c0.1,0.1,0.3,0.1,0.6,0.2h0.2c0.3,0,0.7,0.1,1.4,0.1c0.6,0,1.3,0.1,1.9,0.2c0.6,0.1,1.2,0.3,1.7,0.5
			c0.5,0.2,0.7,0.6,0.7,1c0,0.1,0,0.3-0.1,0.6c-0.1,0.3-0.2,0.5-0.3,0.8c-0.1,0.3-0.2,0.5-0.3,0.7c-0.1,0.2-0.1,0.4-0.1,0.4
			c-0.6,2.4-0.9,5-0.9,7.6c0,0.2,0,0.6,0.1,1.2c0,0.6,0.1,1.1,0.2,1.7c0.1,0.6,0.3,1.1,0.5,1.6c0.2,0.5,0.5,0.7,0.8,0.7
			c0.5,0,1-0.3,1.4-1c0.4-0.7,0.8-1.4,1.1-2.3c0.3-0.9,0.6-1.7,0.8-2.6c0.2-0.9,0.3-1.5,0.4-2c0.1-0.4,0.2-0.6,0.3-0.7
			c0.2-0.1,0.3-0.1,0.4-0.1c0.5,0,0.7,0.3,0.7,1c0,0.1,0,0.3,0,0.6C88.3,201,88.3,201.2,88.2,201.4z"/>
		<path class="st0" d="M102.4,200.7c0,0.9-0.2,1.9-0.5,3c-0.3,1.1-0.8,2.1-1.5,3c-0.7,0.9-1.5,1.7-2.6,2.3c-1,0.6-2.3,1-3.7,1
			c-1.4,0-2.5-0.2-3.5-0.7c-1-0.5-1.7-1.2-2.3-2c-0.6-0.8-1.1-1.8-1.3-3c-0.3-1.1-0.4-2.3-0.4-3.6c0-1.2,0.1-2.6,0.4-4.1
			c0.3-1.5,0.7-2.9,1.3-4.1c0.6-1.3,1.4-2.4,2.3-3.2c0.9-0.9,2-1.3,3.3-1.3c0.6,0,1.2,0.1,1.8,0.4c0.6,0.3,1.1,0.6,1.5,1
			c0.4,0.4,0.8,0.9,1,1.5c0.2,0.6,0.4,1.1,0.4,1.7l0.1,0.7c0,0.8-0.1,1.8-0.4,2.8c-0.3,1-0.7,1.9-1.2,2.8c-0.5,0.9-1.2,1.6-2,2.2
			c-0.8,0.6-1.7,0.9-2.6,0.9c-0.2,0-0.4,0-0.7-0.1c-0.3,0-0.5-0.1-0.8-0.2v1.5c0,0.2,0.1,0.6,0.2,1.1c0.2,0.5,0.4,0.9,0.7,1.3
			c0.3,0.4,0.7,0.8,1.2,1.2c0.5,0.3,1.1,0.5,1.9,0.5c1,0,1.9-0.2,2.5-0.6c0.7-0.4,1.2-0.9,1.6-1.6c0.4-0.6,0.7-1.3,1-2.1
			c0.2-0.8,0.4-1.6,0.6-2.3c0.1-0.5,0.2-0.8,0.3-1c0.1-0.2,0.3-0.3,0.5-0.3c0.5,0,0.8,0.3,0.8,0.9V200.7z M96.2,192.5
			c0-0.3-0.1-0.6-0.2-0.9c-0.2-0.3-0.4-0.5-0.9-0.5c-0.6,0-1.2,0.3-1.6,1c-0.5,0.7-0.8,1.4-1.1,2.3c-0.3,0.9-0.5,1.7-0.7,2.5
			c-0.1,0.8-0.2,1.3-0.2,1.6v0.2c0,0.3,0,0.6,0.1,0.8c0.1,0.2,0.2,0.3,0.6,0.3h0.3c0.7,0,1.3-0.3,1.8-0.8c0.5-0.5,0.9-1.2,1.2-1.9
			c0.3-0.7,0.5-1.5,0.7-2.3c0.1-0.8,0.2-1.4,0.2-1.9V192.5z"/>
		<path class="st0" d="M109.2,197.3c-0.5,0.7-1,1.6-1.3,2.5c-0.3,0.9-0.6,1.8-0.9,2.8c-0.2,1-0.4,1.9-0.6,2.9
			c-0.2,1-0.3,1.9-0.5,2.8c-0.1,0.2-0.3,0.4-0.8,0.4c-0.5,0.1-0.8,0.1-1,0.1c-0.6,0-1.2,0-1.6-0.1c-0.4-0.1-0.7-0.2-0.9-0.5
			c-0.2-0.3-0.4-0.7-0.5-1.2c-0.1-0.5-0.2-1.3-0.3-2.2l0.7-15.7c0-0.5,0.2-0.7,0.7-0.7c0.2,0,0.4,0,0.7,0.1c0.3,0,0.6,0.1,1,0.2
			c0.4,0.1,0.7,0.2,0.9,0.4c0.2,0.2,0.4,0.3,0.4,0.6v10.7c0,0,0.1-0.2,0.2-0.4c0.2-0.6,0.5-1.4,0.9-2.3c0.4-0.9,0.7-1.8,1.2-2.7
			c0.4-0.8,0.9-1.6,1.3-2.2c0.5-0.6,1-0.9,1.5-0.9c0.6,0,1.1,0.1,1.5,0.4c0.3,0.3,0.6,0.7,0.8,1.1c0.2,0.5,0.3,0.9,0.3,1.5
			c0,0.5,0.1,1,0.1,1.5c0,0.4,0,0.9-0.1,1.7c-0.1,0.8-0.1,2-0.1,3.6c0,0.9,0.1,1.7,0.3,2.5c0.2,0.7,0.5,1.1,1.1,1.1
			c0.4,0,0.7-0.2,1.1-0.5c0.3-0.4,0.6-0.8,0.9-1.3c0.3-0.5,0.5-1.1,0.7-1.7c0.2-0.6,0.3-1.2,0.3-1.7c0-0.7,0.3-1,0.8-1
			c0.3,0,0.5,0.1,0.6,0.3c0.1,0.2,0.2,0.5,0.2,0.7v0.1c0,0.7-0.2,1.5-0.4,2.4c-0.2,0.9-0.6,1.7-1,2.5c-0.4,0.8-1,1.4-1.7,2
			c-0.7,0.5-1.6,0.8-2.6,0.8c-1.6,0-2.6-0.6-3-1.7c-0.4-1.1-0.7-2.8-0.7-5.1L109.2,197.3z"/>
		<path class="st0" d="M138.8,199.8c-0.1,0.8-0.2,1.7-0.4,2.6c-0.2,1-0.6,1.9-1,2.8c-0.4,0.9-1,1.6-1.7,2.2
			c-0.7,0.6-1.6,0.9-2.6,0.9c-1.5,0-2.6-0.4-3.3-1.1c-0.7-0.7-1.3-1.8-1.7-3.3l-0.1,0.3c-0.1,0.6-0.3,1.2-0.5,1.8
			c-0.2,0.7-0.5,1.3-0.8,1.8c-0.3,0.5-0.7,1-1.2,1.4c-0.5,0.4-1.1,0.6-1.9,0.6c-0.5,0-1-0.1-1.6-0.3c-0.5-0.2-1-0.4-1.6-0.7
			c-0.8-0.4-1.4-1-1.9-1.7c-0.5-0.7-0.8-1.4-1-2.2c-0.2-0.7-0.3-1.4-0.4-2.1c0-0.7-0.1-1.2-0.1-1.6v-0.9c0-0.2,0.1-0.7,0.2-1.4
			c0.1-0.7,0.3-1.5,0.5-2.5c0.2-0.9,0.5-1.9,0.8-2.9c0.3-1,0.7-2,1.2-2.8c0.5-0.8,1-1.5,1.6-2.1c0.6-0.6,1.3-0.8,2.1-0.8
			c0.8,0,1.7,0.1,2.5,0.4c0.8,0.3,1.4,0.5,1.7,0.6c0-0.6,0.1-1.4,0.1-2.3c0-0.9,0-1.8,0.1-2.7c0-0.9,0-1.7,0-2.5c0-0.8,0-1.4,0-1.7
			c0-0.9,0-1.7-0.1-2.4c0-0.7-0.1-1.2-0.2-1.7c-0.1-0.5-0.2-0.8-0.3-1.1c-0.1-0.3-0.2-0.5-0.4-0.7c0.6-0.2,1.2-0.3,1.8-0.4
			c0.6-0.1,1.1-0.1,1.6-0.1c0.8,0,1.4,0.1,1.9,0.2c0.4,0.1,0.7,0.4,0.7,0.9c0,0.2-0.1,0.8-0.2,1.8c-0.1,1-0.2,2.3-0.3,4
			c-0.1,1.6-0.2,3.5-0.3,5.7c-0.1,2.1-0.2,4.4-0.2,6.9v5.3c0,1,0,1.9,0.1,2.8c0,0.9,0.1,1.7,0.2,2.4c0.1,0.7,0.3,1.2,0.6,1.6
			c0.2,0.4,0.6,0.6,1.1,0.6c1,0,1.8-0.6,2.3-1.8c0.5-1.2,0.9-3,1.2-5.6c0-0.3,0.1-0.5,0.2-0.7c0.1-0.2,0.3-0.3,0.7-0.3
			c0.3,0,0.5,0.2,0.6,0.6c0.1,0.4,0.1,0.8,0.1,1.2L138.8,199.8z M127.6,192.1c0-0.1-0.1-0.2-0.2-0.4c-0.2-0.1-0.3-0.3-0.6-0.4
			c-0.2-0.1-0.5-0.3-0.7-0.4c-0.2-0.1-0.5-0.2-0.6-0.2c-0.7,0-1.3,0.4-1.9,1.3c-0.5,0.9-1,1.9-1.4,3.2c-0.4,1.3-0.6,2.6-0.8,4.1
			c-0.2,1.4-0.3,2.7-0.3,3.9c0,0.4,0,0.9,0.1,1.5c0,0.6,0.1,1.1,0.3,1.6c0.1,0.5,0.3,0.9,0.6,1.3c0.2,0.3,0.6,0.5,1,0.5
			c0.5,0,0.9-0.3,1.3-0.8c0.4-0.5,0.7-1.2,1-2.1c0.3-0.8,0.6-1.8,0.9-2.8c0.3-1.1,0.5-2.1,0.7-3.1c0.2-1,0.3-2,0.4-3
			c0.1-0.9,0.2-1.7,0.2-2.2L127.6,192.1z"/>
		<path class="st0" d="M152.5,200.7c0,0.9-0.2,1.9-0.5,3c-0.3,1.1-0.8,2.1-1.5,3c-0.7,0.9-1.5,1.7-2.6,2.3c-1,0.6-2.3,1-3.7,1
			c-1.4,0-2.5-0.2-3.5-0.7c-1-0.5-1.7-1.2-2.4-2c-0.6-0.8-1.1-1.8-1.3-3c-0.3-1.1-0.4-2.3-0.4-3.6c0-1.2,0.1-2.6,0.4-4.1
			c0.3-1.5,0.7-2.9,1.3-4.1c0.6-1.3,1.4-2.4,2.3-3.2c0.9-0.9,2-1.3,3.3-1.3c0.6,0,1.2,0.1,1.8,0.4c0.6,0.3,1.1,0.6,1.5,1
			c0.4,0.4,0.8,0.9,1,1.5c0.2,0.6,0.4,1.1,0.4,1.7l0.1,0.7c0,0.8-0.1,1.8-0.4,2.8c-0.3,1-0.7,1.9-1.2,2.8c-0.5,0.9-1.2,1.6-2,2.2
			c-0.8,0.6-1.7,0.9-2.6,0.9c-0.2,0-0.4,0-0.7-0.1c-0.3,0-0.5-0.1-0.8-0.2v1.5c0,0.2,0.1,0.6,0.2,1.1c0.2,0.5,0.4,0.9,0.7,1.3
			c0.3,0.4,0.7,0.8,1.2,1.2c0.5,0.3,1.1,0.5,1.9,0.5c1,0,1.9-0.2,2.5-0.6c0.7-0.4,1.2-0.9,1.6-1.6c0.4-0.6,0.7-1.3,1-2.1
			c0.2-0.8,0.4-1.6,0.6-2.3c0.1-0.5,0.2-0.8,0.3-1s0.3-0.3,0.5-0.3c0.5,0,0.8,0.3,0.8,0.9V200.7z M146.3,192.5
			c0-0.3-0.1-0.6-0.2-0.9c-0.2-0.3-0.5-0.5-0.9-0.5c-0.6,0-1.2,0.3-1.6,1c-0.5,0.7-0.8,1.4-1.1,2.3c-0.3,0.9-0.5,1.7-0.7,2.5
			c-0.1,0.8-0.2,1.3-0.2,1.6v0.2c0,0.3,0,0.6,0.1,0.8c0.1,0.2,0.2,0.3,0.6,0.3h0.3c0.7,0,1.3-0.3,1.8-0.8c0.5-0.5,0.9-1.2,1.2-1.9
			c0.3-0.7,0.5-1.5,0.7-2.3c0.1-0.8,0.2-1.4,0.2-1.9V192.5z"/>
		<path class="st0" d="M167.8,197.4c0,0.5-0.1,0.9-0.3,1.2c-0.2,0.3-0.5,0.5-0.8,0.6c-0.3,0.1-0.7,0.2-1.1,0.3
			c-0.4,0.1-0.8,0.1-1.2,0.1v0.3c0,0.7-0.1,1.7-0.3,2.8c-0.2,1.1-0.5,2.2-0.9,3.3c-0.4,1.1-0.9,2-1.5,2.7c-0.6,0.8-1.3,1.2-2.2,1.3
			c-0.2,0-0.4,0.1-0.5,0.1c-0.2,0-0.4,0-0.5,0c-1.7,0-3-0.4-4-1.2c-1-0.8-1.7-1.8-2.1-3c-0.5-1.2-0.7-2.5-0.8-4
			c-0.1-1.4-0.2-2.8-0.2-4.1c0-3,0.3-6,0.9-9.1c0.4,0,0.7-0.1,1.1-0.2c0.3-0.1,0.7-0.1,1.1-0.1c0.1,0,0.2,0,0.5,0
			c0.2,0,0.5,0,0.8,0.1c0.3,0,0.5,0.1,0.7,0.2c0.2,0.1,0.3,0.2,0.3,0.3c0,0.2,0,0.4-0.1,0.7c0,0.3-0.1,0.6-0.1,0.9
			c-0.1,0.3-0.1,0.7-0.2,1c-0.1,0.3-0.1,0.6-0.1,0.8c-0.2,1.2-0.3,2.5-0.4,3.8c-0.1,1.3-0.2,2.5-0.2,3.8c0,0.5,0,1.2,0.1,2
			c0.1,0.9,0.2,1.7,0.4,2.6c0.2,0.8,0.5,1.6,0.9,2.2c0.4,0.6,0.9,0.9,1.6,0.9c0.6,0,1.1-0.3,1.5-1c0.4-0.6,0.7-1.4,0.9-2.3
			c0.2-0.9,0.3-1.7,0.4-2.6c0.1-0.9,0.1-1.5,0.1-2c0-0.2-0.1-0.4-0.3-0.6c-0.2-0.2-0.5-0.5-0.8-0.8c-0.3-0.4-0.6-0.8-0.8-1.3
			c-0.3-0.5-0.4-1.1-0.5-1.8V194c0-0.3,0-0.6,0-1c0-0.4,0.1-0.8,0.1-1.2c0.1-0.4,0.1-0.8,0.2-1.2c0.1-0.4,0.2-0.7,0.3-0.9
			c0,0,0.1-0.1,0.2-0.2c0.1-0.1,0.3-0.1,0.4-0.2c0.1-0.1,0.3-0.1,0.4-0.2c0.1,0,0.2-0.1,0.3-0.1c0.1,0,0.3,0,0.4,0.1
			c0.2,0,0.4,0.1,0.6,0.1c0.2,0,0.4,0.1,0.6,0.1c0.2,0.1,0.3,0.1,0.4,0.1c0.2,0.1,0.3,0.3,0.3,0.5c0,0.2,0.1,0.4,0.2,0.6
			c0.2,0.6,0.3,1.1,0.4,1.6c0.1,0.5,0.1,1,0.2,1.4c0,0.5,0,1,0.1,1.5c0,0.5,0,1.1,0.1,1.7c0,0.1,0.2,0.2,0.5,0.3
			c0.3,0.1,0.6,0.2,0.7,0.2c0.5,0,0.9-0.1,1.2-0.4c0.3-0.3,0.5-0.4,0.6-0.4c0.2,0,0.3,0.1,0.3,0.3
			C167.8,197.1,167.8,197.3,167.8,197.4z"/>
		<path class="st0" d="M183.5,200.7c0,0.9-0.2,1.9-0.5,3c-0.3,1.1-0.8,2.1-1.5,3c-0.7,0.9-1.5,1.7-2.6,2.3c-1,0.6-2.3,1-3.7,1
			c-1.4,0-2.5-0.2-3.5-0.7c-1-0.5-1.7-1.2-2.3-2c-0.6-0.8-1.1-1.8-1.3-3c-0.3-1.1-0.4-2.3-0.4-3.6c0-1.2,0.1-2.6,0.4-4.1
			c0.3-1.5,0.7-2.9,1.3-4.1c0.6-1.3,1.4-2.4,2.3-3.2c0.9-0.9,2-1.3,3.3-1.3c0.6,0,1.2,0.1,1.8,0.4c0.6,0.3,1.1,0.6,1.5,1
			c0.4,0.4,0.8,0.9,1,1.5c0.2,0.6,0.4,1.1,0.4,1.7l0.1,0.7c0,0.8-0.1,1.8-0.4,2.8c-0.3,1-0.7,1.9-1.2,2.8c-0.5,0.9-1.2,1.6-2,2.2
			c-0.8,0.6-1.7,0.9-2.6,0.9c-0.2,0-0.4,0-0.7-0.1c-0.3,0-0.5-0.1-0.8-0.2v1.5c0,0.2,0.1,0.6,0.2,1.1c0.2,0.5,0.4,0.9,0.7,1.3
			c0.3,0.4,0.7,0.8,1.2,1.2c0.5,0.3,1.1,0.5,1.9,0.5c1,0,1.9-0.2,2.5-0.6c0.7-0.4,1.2-0.9,1.6-1.6c0.4-0.6,0.7-1.3,1-2.1
			c0.2-0.8,0.4-1.6,0.6-2.3c0.1-0.5,0.2-0.8,0.3-1c0.1-0.2,0.3-0.3,0.5-0.3c0.5,0,0.8,0.3,0.8,0.9V200.7z M177.2,192.5
			c0-0.3-0.1-0.6-0.2-0.9c-0.2-0.3-0.4-0.5-0.9-0.5c-0.6,0-1.2,0.3-1.6,1c-0.5,0.7-0.8,1.4-1.1,2.3c-0.3,0.9-0.5,1.7-0.7,2.5
			c-0.1,0.8-0.2,1.3-0.2,1.6v0.2c0,0.3,0,0.6,0.1,0.8c0.1,0.2,0.2,0.3,0.6,0.3h0.3c0.7,0,1.3-0.3,1.8-0.8c0.5-0.5,0.9-1.2,1.2-1.9
			c0.3-0.7,0.5-1.5,0.7-2.3c0.1-0.8,0.2-1.4,0.2-1.9V192.5z"/>
		<path class="st0" d="M196.9,201.4c0,0.2-0.1,0.8-0.2,1.8c-0.2,0.9-0.4,1.9-0.8,3c-0.4,1-0.9,2-1.6,2.8c-0.7,0.8-1.6,1.2-2.6,1.2
			c-1.1,0-2-0.4-2.7-1.2c-0.7-0.8-1.2-1.7-1.5-2.8c-0.4-1.1-0.6-2.3-0.7-3.5c-0.1-1.2-0.2-2.2-0.2-3c0-0.9,0.1-1.8,0.2-2.8
			c0.1-0.9,0.2-1.9,0.2-2.8c0-0.3-0.1-0.5-0.4-0.5c-0.3-0.1-0.5-0.1-0.8-0.1c-0.4,0-0.7,0.1-0.8,0.2c-0.1,0.1-0.2,0.2-0.2,0.4
			l-0.2,1.7c-0.1,1.1-0.3,2.2-0.5,3.2c-0.2,1-0.3,2-0.5,2.7c-0.2,0.8-0.4,1.4-0.7,1.9c-0.3,0.5-0.6,0.7-0.9,0.7h-0.1
			c-0.1,0-0.3,0-0.4-0.1c-0.1-0.1-0.2-0.2-0.2-0.5c0-0.1,0-0.4,0.1-0.6c0.3-1.2,0.5-2.3,0.5-3.1c0.1-0.8,0.1-1.5,0.2-2.2v-0.4
			c0-0.2,0-0.4,0-0.6c0-0.2,0-0.5,0-0.9v-1.4c0-0.4,0-0.8,0-1.2c0-0.4,0-0.9-0.1-1.4l-0.2-3.1c0-0.2,0.1-0.4,0.3-0.6
			c0.2-0.2,0.4-0.3,0.7-0.5c0.3-0.1,0.6-0.2,0.9-0.3c0.3-0.1,0.6-0.1,0.8-0.1c0.6,0,0.9,0.4,0.9,1.2v0.3l-0.1,1.2v0.3
			c0,0.2,0.1,0.4,0.2,0.4c0.1,0.1,0.3,0.1,0.6,0.2h0.2c0.3,0,0.7,0.1,1.4,0.1c0.6,0,1.3,0.1,1.9,0.2c0.6,0.1,1.2,0.3,1.7,0.5
			c0.5,0.2,0.7,0.6,0.7,1c0,0.1,0,0.3-0.1,0.6c-0.1,0.3-0.2,0.5-0.3,0.8c-0.1,0.3-0.2,0.5-0.3,0.7c-0.1,0.2-0.1,0.4-0.1,0.4
			c-0.6,2.4-1,5-1,7.6c0,0.2,0,0.6,0.1,1.2c0,0.6,0.1,1.1,0.2,1.7c0.1,0.6,0.3,1.1,0.5,1.6c0.2,0.5,0.5,0.7,0.8,0.7
			c0.5,0,1-0.3,1.4-1c0.4-0.7,0.8-1.4,1.1-2.3c0.3-0.9,0.6-1.7,0.8-2.6c0.2-0.9,0.3-1.5,0.4-2c0.1-0.4,0.2-0.6,0.3-0.7
			c0.2-0.1,0.3-0.1,0.4-0.1c0.5,0,0.7,0.3,0.7,1c0,0.1,0,0.3,0,0.6C197,201,197,201.2,196.9,201.4z"/>
	</g>
	<path class="st2" d="M110.6,69.3l-0.2,0.3c-0.6,0.8-1.2,1.6-1.8,2.3c-0.6,0.7-1.4,1.3-2.2,2c-1,0.9-2.1,1.8-3.2,2.6
		c-0.8,0.5-1.6,1-2.4,1.5c-0.3,0.2-0.7,0.4-1,0.6c-0.5,0.3-1,0.6-1.5,1c-1.2,0.7-2.3,1.5-3.6,2.2c-1.2,0.7-2.5,1.2-3.8,1.8
		c-0.5,0.2-0.9,0.4-1.4,0.6c-0.2,0.1-0.4,0.2-0.6,0.3c-0.3,0.1-0.6,0.2-0.9,0.4c-0.5,0.2-0.9,0.5-1.4,0.7c-0.3,0.2-0.6,0.3-0.9,0.5
		l0.1-0.1c0.7-1.1,1.3-2.2,1.9-3.4c0.3-0.5,0.5-1.1,0.6-1.7c0.1-0.2,0.2-0.5,0.2-0.7l0.2-0.4c0.1-0.3,0.2-0.6,0.3-1l0.4-1.4
		c0.4-1.4,0.8-2.8,1.2-4.3c0.2-0.9,0.2-1.8,0.3-2.7c0-0.3,0-0.6,0-0.9c0-0.8,0.1-1.6,0.1-2.4h-2.5c0,0.8,0,1.6,0,2.4
		c-0.1,1.6-0.4,3.2-0.8,4.7c-0.5,2.2-1,4-1.5,5.6c-0.4,1.2-1,2.3-1.7,3.5c-0.5,0.9-1.1,1.7-1.7,2.5l-0.4,0.5c-0.3,0.5-0.7,0.9-1,1.3
		l-0.9,1.2l0.6,0.4c1.5,1,2.7,1.1,4,0.3c0.9-0.5,1.8-1,2.7-1.5c1-0.5,2-0.9,3.2-1.4c0.4-0.2,0.8-0.3,1.2-0.5c0.8-0.3,1.6-0.6,2.4-1
		c0.8-0.4,1.5-1,2.1-1.5c0.4-0.3,0.8-0.6,1.2-0.9c0.2-0.2,0.5-0.3,0.7-0.4c0.3-0.1,0.5-0.3,0.8-0.4c0.4-0.3,0.8-0.5,1.2-0.8
		c0.7-0.5,1.3-0.9,2-1.3c1.3-0.6,2.4-1.5,3.4-2.3c0.3-0.2,0.5-0.4,0.8-0.6c1.3-1,2.4-2.3,3.4-3.5c0.6-0.7,1.2-1.4,1.8-2.1
		c0.3-0.3,0.7-0.7,1-1.1c0.1-0.2,0.3-0.4,0.4-0.6c0.2-0.3,0.3-0.6,0.5-0.7c0.6-0.5,1.1-1.2,1.5-1.8h-3.2
		C111.7,67.9,111.1,68.6,110.6,69.3z M63.5,70.1c0.1-0.1,0.1-0.3,0.2-0.4c0.6-0.9,1.1-1.8,1.7-2.6H63l-0.5,0.8
		c-0.3,0.6-0.7,1.2-1,1.8c-0.1,0.1-0.2,0.3-0.3,0.5l-1,1.3l1.2,0C62.8,71.5,63.3,70.6,63.5,70.1z M135.1,67.4c0-0.1,0-0.3,0-0.4
		h-2.5c0.1,0.4,0.1,0.8,0.2,1.1c0,0.2,0.1,0.5,0.2,0.7c0.1,0.3,0.2,0.6,0.1,0.7c-0.3,1-0.1,1.9,0.1,2.7c0.2,0.7,0.3,1.4,0.1,2
		c-0.1,0.4-0.1,0.8-0.1,1.2c0,0.2,0,0.4,0,0.6l0,0.3l1,0.9l0.4-0.1c0.5-0.2,1.6-0.6,1.4-1.9c0-0.1,0.1-0.3,0.2-0.6
		c0.2-0.4,0.4-0.8,0.5-1.2c0.3-0.6,0.5-1.2,0.8-1.8c0.3-0.6,0.5-1.2,0.7-1.9c0.3-0.9,0.7-1.8,1-2.6h-4
		C135.2,67.2,135.1,67.3,135.1,67.4z M77,67.4c-0.4,0.6-0.7,1.2-1.1,1.8c-0.9,1.9-2.1,3.8-3.5,5.7c-0.6,0.8-1.3,1.4-2.2,2
		c-0.3,0.2-0.5,0.4-0.8,0.7c-1,0.8-2,1.6-2.9,2.2c-0.2,0-0.4,0-0.7,0.2c-0.2,0.1-0.3,0.3-0.3,0.5h0c-0.3,0.1-0.6,0.2-0.9,0.3
		c-0.3,0.2-0.7,0.4-1,0.6c-0.4,0.2-0.8,0.5-1.2,0.7c-0.1,0.1-0.3,0.1-0.5,0.1c-0.1,0-0.3,0-0.5,0c-0.1,0-0.3,0-0.5,0.1
		c-1,0.5-2,0.7-3.1,0.9c-0.4,0.1-0.8,0.2-1.2,0.2c-0.7,0.2-1.4,0.4-2.1,0.6c-0.8,0.2-1.5,0.5-2.3,0.6c-1.4,0.3-2.8,0.5-4.2,0.7
		l-1.5,0.2c-0.2,0-0.4,0.1-0.6,0.1c0.2-0.3,0.3-0.6,0.5-0.8c0.2-0.4,0.4-0.8,0.7-1.2c0.9-1,1.8-2,2.6-3.1c1.1-1.5,2.3-3.2,3.5-5.1
		c0.4-0.6,0.8-1.3,1.1-2c0.3-0.5,0.5-1,0.8-1.5c0.3-0.4,0.5-0.9,0.8-1.3c0.3-0.5,0.6-0.9,0.9-1.4c0.3-0.5,0.6-1.1,0.9-1.7
		c0.1-0.2,0.2-0.4,0.3-0.6h-2.8c-0.1,0.1-0.1,0.2-0.2,0.3c-0.2,0.3-0.4,0.7-0.6,1c-0.2,0.3-0.3,0.6-0.5,0.9c-0.3,0.5-0.5,1-0.8,1.5
		c-0.5,0.7-0.9,1.5-1.4,2.2c-0.3,0.4-0.6,0.8-0.8,1.3l-0.9,1.4c-0.5,0.8-1,1.5-1.5,2.3c-0.3,0.5-0.7,1-1,1.3
		c-0.2,0.3-0.5,0.5-0.7,0.8c-0.3,0.3-0.6,0.7-0.9,1.1c-0.3,0.4-0.6,0.8-0.9,1.2c-0.6,0.9-1.2,1.8-2.1,2.2c-0.2,0.1-0.3,0.3-0.5,0.5
		l-1.8,2.2l0.3,0.4c0.4,0.6,0.9,1.2,1.8,1.2c0.1,0,0.3,0,0.4,0c1.6-0.2,3.3-0.5,4.9-0.7c1.3-0.2,2.5-0.4,3.8-0.7
		c0.3-0.1,0.5-0.1,0.8-0.2c0.2-0.1,0.5-0.1,0.7-0.2c0.8-0.2,1.6-0.3,2.4-0.4l1.6-0.3c0.4-0.1,0.9-0.2,1.3-0.3
		c0.3-0.1,0.6-0.2,0.9-0.3c0.5-0.2,1-0.4,1.5-0.5c1.4-0.3,2.7-0.9,3.9-1.6c0.4-0.2,0.8-0.4,1.2-0.6c0.6-0.3,1.1-0.7,1.6-1.1
		c0.6-0.5,1.1-0.9,1.8-1.1c1.2-0.4,2.1-1.3,3-2.2c0.3-0.3,0.6-0.6,0.9-0.8c1-0.8,1.6-2,2.3-3c0.2-0.3,0.3-0.6,0.5-0.9
		c0.3-0.5,0.6-1.1,0.9-1.7c0.2-0.4,0.4-0.7,0.6-1.1c0.4-0.7,0.8-1.4,1.2-2.1c0.4-0.7,0.8-1.3,1.1-2h-2.9
		C77.1,67.2,77.1,67.3,77,67.4z M217,72.3l-2.2-0.4l0.1,0.8c0,0.1,0,0.2,0,0.3c0,0.2,0,0.5,0.1,0.8c0.1,0.4,0.2,0.7,0.4,1
		c0.1,0.3,0.2,0.6,0.3,0.9c0.5,1.6,0.5,3.2,0,4.8c-0.7,2.4-2.4,4-5.2,4.9c-1.8,0.6-3,0.5-4-0.2c-0.5-0.3-1-0.4-1.5-0.5l-0.4-0.1
		c-0.4-0.1-0.8-0.2-1.2-0.2c-0.6-0.1-1.3-0.2-1.9-0.4c-0.2,0-0.4-0.2-0.6-0.4l-0.2-0.2c-0.3-0.2-0.5-0.4-0.8-0.6
		c-0.5-0.4-0.9-0.8-1.5-1.1c-1.2-0.7-1.9-1.6-2.3-2.8c-0.1-0.3-0.2-0.6-0.3-0.9c-0.1-0.2-0.1-0.4-0.2-0.6c-0.4-1.1-0.7-2.1-1-3.2
		c-0.2-0.6-0.4-1.2-0.6-1.9l-0.3-0.9c0-0.1,0.1-0.4,0.1-0.6c0-0.5-0.1-0.9-0.1-1.4c0-0.4-0.1-0.7-0.1-1.1c0-0.2,0-0.4,0-0.7
		c0-0.3,0-0.6,0-0.9h-2.4l0,0.2c0.1,0.9,0.1,1.8,0.2,2.6l0.1,1c0.1,1.2,0.2,2.5,0.5,3.7c0.2,0.8,0.5,1.6,0.8,2.3
		c0.1,0.3,0.3,0.7,0.4,1l0.4,1.3c0.3,0.9,0.6,1.9,1,2.8c0.2,0.5,0.5,1,0.8,1.5l0.6,1c0.4,0.7,0.8,1.3,1.2,2c0.4,0.6,0.8,1.1,1.3,1.7
		c0.2,0.3,0.5,0.6,0.7,0.9c0.5,0.7,1.1,1.1,1.8,1.5c0.3,0.2,0.5,0.3,0.7,0.5c0.2,0.1,0.3,0.3,0.5,0.4c-0.1,0-0.1-0.1-0.2-0.1
		c-0.8-0.5-1.7-0.8-2.6-1.1c-0.5-0.2-1-0.3-1.4-0.5c-0.7-0.3-1.5-0.7-2.2-1c-0.4-0.2-0.8-0.4-1.1-0.6c-0.2-0.1-0.4-0.2-0.6-0.3
		c-0.2-0.1-0.5-0.2-0.7-0.3c-0.5-0.3-1.3-0.7-1.9-1.1c-0.1-0.1-0.2-0.3-0.3-0.5c-0.2-0.2-0.5-0.4-0.7-0.5c-0.3-0.2-0.5-0.4-0.7-0.6
		c-0.3-0.3-0.5-0.6-0.8-1c-0.7-0.9-1.4-1.9-2.1-2.8c-0.6-0.9-1.1-1.6-1.6-2.5c-0.2-0.3-0.3-0.8-0.5-1.2l-0.1-0.3
		c-0.1-0.4-0.3-0.8-0.4-1.2c-0.1-0.4-0.3-0.9-0.4-1.3c-0.1-0.2-0.2-0.4-0.3-0.6c0-0.1,0.1-0.3,0-0.5c-0.1-0.3-0.1-0.7-0.1-1
		c-0.1-1-0.3-2-0.6-3c-0.2-0.8-0.2-1.6-0.2-2.4h-2.2c0,0.4,0,0.8-0.1,1.2l0,0.4l0.3,0.2c0.2,0.1,0.3,0.2,0.1,0.6
		c-0.1,0.3-0.5,1.2-0.2,1.9c0.2,0.5,0.3,1,0.3,1.6c0.1,0.9,0.3,1.9,0.9,2.9c-0.1,1.6,0.7,3,1.4,4.2c0.9,1.5,1.9,3,2.9,4.4
		c0.4,0.6,0.8,1.2,1.2,1.7l0.3,0.4l0.5-0.2l0.1,0.1c0.3,0.3,0.6,0.6,0.9,0.9c0.2,0.1,0.3,0.2,0.5,0.3c1.2,1.3,2.7,2,4.2,2.8l0.8,0.4
		c1,0.5,2.1,1,3.1,1.4c0.8,0.3,1.5,0.6,2.3,1c1.6,0.8,3.3,1.2,5,1.2l0.3,0c0.6,0,1.3-0.1,1.9-0.2c0.3-0.1,0.7-0.1,1-0.1
		c0.7-0.1,1.4-0.1,2.2-0.2c0.1,0,0.2,0,0.2,0c0.1,0,0.2,0,0.3,0l0.5,0l0.2-0.3c0-0.1,0.3-0.1,0.4-0.1c0.4,0,1-0.1,1.4-0.7
		c0.9-0.1,1.5-0.6,2-1.1c0.2-0.2,0.4-0.4,0.6-0.5c0.5-0.4,1-0.8,1.5-1.3c0.2-0.2,0.5-0.4,0.7-0.6l0.2-0.2l0-0.2
		c0.7-5,1.2-10.7-1.4-16.3L217,72.3z M216.4,87.6c-0.3,0.7-0.6,1.1-1.1,1.4c-0.4,0.2-0.8,0.4-1.2,0.7c-0.7,0.5-1.4,0.9-2.2,1.2
		c-1.1,0.5-1.9,0.6-2.8,0.3c-0.2-0.1-0.4-0.1-0.7-0.1c-0.2,0-0.5,0-0.8,0c-0.2,0-0.3,0-0.6,0c-0.8,0-2.3-0.7-3-1.4
		c-0.4-0.4-0.7-0.6-1.1-0.9c-0.2-0.2-0.5-0.4-0.7-0.6c-0.5-0.4-0.9-0.8-1.3-1.2c-0.1-0.2-0.3-0.3-0.4-0.5c0.1,0.1,0.3,0.1,0.4,0.2
		c0.8,0.3,1.5,0.4,2.3,0.6c0.4,0.1,0.8,0.1,1.2,0.2c0.5,0.1,1,0.3,1.5,0.4c0.8,0.2,1.7,0.5,2.6,0.6c0.5,0.1,1-0.1,1.5-0.2
		c0.2-0.1,0.4-0.1,0.6-0.1c1.6-0.3,3.2-1.1,4.6-2.4c0.6-0.5,1-1.2,1.4-1.9c0,0,0.1-0.1,0.1-0.1C216.8,85.1,216.8,86.4,216.4,87.6z
		 M169,69c0,0-0.2,0.1-0.2,0.1c-0.2,0.1-0.4,0.1-0.6,0.3c-1.2,0.9-2.6,1.2-4.4,1.1l-0.3,0c-1.6-0.1-3-0.8-4.4-1.6l-0.3-0.2
		c-0.2-0.1-0.4-0.3-0.6-0.5c-0.2-0.2-0.3-0.4-0.5-0.5c-0.2-0.1-0.4-0.3-0.5-0.4c-0.1-0.1-0.3-0.2-0.4-0.3h-3c0,0.1,0.1,0.1,0.1,0.2
		l0.1,0.2c1.2,1.6,2.7,3,4.4,3.9c2,1.1,4.3,1.4,6.3,1.6l0.3,0c0.6,0.1,1.2,0.1,1.6-0.1c1.4-0.6,2.6-1.2,3.7-1.9
		c0.6-0.4,1.3-1,1.8-2.1c0.9,0,1.4-0.6,1.7-1c0.1-0.2,0.2-0.3,0.4-0.4c0.2-0.1,0.3-0.3,0.4-0.4H171C170.3,67.8,169.7,68.4,169,69z
		 M345.6,69.1l-3.2-0.1c0,0,0.1,0.1,0.1,0.1c0.2,0.2,0.3,0.3,0.5,0.5c-1-0.1-1.8,0.1-2.7,0.4c-0.5,0.1-1,0.1-1.6,0.1
		c-0.2,0-0.5,0-0.7,0c-0.3,0-0.5,0-0.8,0.1c-0.6,0.1-1.2,0.1-1.8,0c-0.2,0-0.4,0-0.7-0.1c-0.8-0.1-1.6-0.2-2.3-0.6
		c-0.5-0.3-1.1-0.5-1.7-0.8c-0.2-0.1-0.5-0.2-0.7-0.3c-0.1,0-0.2-0.1-0.3-0.1l-7-0.3c0.5,0.1,1,0.3,1.4,0.5c0.4,0.2,0.9,0.3,1.3,0.5
		c0.1,0,0.2,0.1,0.3,0.1c-0.2,0-0.3,0-0.5-0.1c-0.8-0.1-1.6-0.3-2.3-0.4c-0.4-0.1-0.9-0.2-1.3-0.3l-0.3-0.1c-0.5-0.1-1-0.2-1.5-0.2
		c-0.5,0-0.9-0.1-1.3-0.2l-5.1-0.2c1.3,1,2.8,1.7,4.3,2.2c0.5,0.2,1.1,0.3,1.7,0.4c0.8,0.1,1.6,0.2,2.5,0.3l1.2,0.2
		c0.3,0,0.7,0.1,1,0.1l1.7,0.3c1.1,0.2,2.2,0.3,3.3,0.5c0.8,0.1,1.6,0.2,2.4,0.3l1.2,0.1c0.2,0,0.3,0,0.5,0.1
		c0.4,0.1,0.7,0.1,1.1,0.1c0.3,0,0.6-0.1,0.9-0.1c0.2,0,0.6-0.1,0.7-0.1c0.7,0.6,1.5,0.5,2,0.5c0.1,0,0.3,0,0.4,0
		c0.8,0,1.7-0.2,2.5-0.4c0.3-0.1,0.6-0.2,0.9-0.2c0.2,0,0.3-0.1,0.5-0.1c0.3-0.1,0.5-0.2,0.8-0.2c0.1,0,0.3,0.1,0.5,0.2
		c0.2,0.1,0.4,0.2,0.6,0.2c0.6,0.1,1.2,0,1.7-0.3c0.3-0.2,0.5-0.6,0.5-0.9C346.2,70.3,346,69.6,345.6,69.1z M324.5,81.7
		c0,0-0.2-0.1-0.3-0.1c-0.3-0.2-0.8-0.5-1.5-0.1l-0.1,0c-0.1,0-0.1,0-0.2,0c-0.2,0-0.5,0-0.7,0c-0.6,0-1.2,0-1.7-0.1
		c-0.8-0.1-1.6-0.3-2.3-0.5c-0.3-0.1-0.7-0.2-1-0.3c-0.4-0.1-0.8-0.2-1.1-0.3c-0.3-0.1-0.7-0.1-1-0.2c-0.5-0.1-0.9-0.1-1.3-0.3
		c-0.5-0.2-0.9-0.4-1.4-0.7c-0.2-0.1-0.5-0.2-0.7-0.4c-0.2-0.1-0.4-0.2-0.6-0.3c-0.4-0.2-0.8-0.4-1.2-0.6c-0.3-0.2-0.5-0.4-0.8-0.6
		c-0.3-0.3-0.7-0.5-1-0.7c-1.2-0.6-2.1-1.2-2.9-1.8c-0.9-0.6-1.7-1.3-2.5-2c-0.1-0.1-0.3-0.3-0.4-0.4c-0.1-0.1-0.2-0.2-0.3-0.3
		c-0.2-0.1-0.3-0.3-0.5-0.4c-0.3-0.2-0.6-0.5-0.8-0.8c-0.6-0.8-1.2-1.7-1.8-2.5l-0.9-1.3l-1,0h-1.5c0.1,0.2,0.2,0.3,0.3,0.5
		c0.1,0.1,0.1,0.2,0.2,0.3c0.1,0.2,0.2,0.4,0.3,0.6c0.2,0.4,0.5,0.9,0.8,1.3c0.6,0.8,1.2,1.6,1.9,2.3c0.7,0.7,1.5,1.4,2.2,2.1
		c0.3,0.3,0.6,0.5,0.9,0.8c0.2,0.2,0.4,0.4,0.6,0.6c0.5,0.5,1,1,1.6,1.4c0.6,0.5,1.3,0.8,1.9,1.2c0.3,0.2,0.6,0.3,0.9,0.5
		c0.3,0.2,0.6,0.4,0.9,0.6c0.6,0.4,1.3,0.8,1.9,1.2c0.3,0.2,0.6,0.3,0.9,0.4c-0.9-0.2-1.9-0.4-2.8-0.6c-0.9-0.2-2.1-0.6-3.1-1.1
		c-1-0.6-2-1.3-2.9-2c-0.4-0.3-0.8-0.6-1.1-0.8l-0.2-0.3l-0.3,0c-0.6,0-1.1-0.4-1.6-0.9c-0.4-0.4-0.9-0.8-1.4-1
		c-0.1-0.1-0.3-0.2-0.5-0.4c-0.1-0.1-0.1-0.2-0.2-0.2c-0.2-0.2-0.4-0.4-0.5-0.6c-0.3-0.3-0.6-0.6-0.9-0.9c-0.3-0.3-0.6-0.5-0.9-0.8
		c-0.3-0.3-0.6-0.5-0.9-0.8c-0.3-0.3-0.5-0.5-0.7-0.8c-0.2-0.2-0.4-0.5-0.6-0.7c-0.2-0.2-0.4-0.4-0.6-0.6c-0.3-0.3-0.6-0.6-0.9-0.9
		c-0.1-0.1-0.1-0.2-0.2-0.3h-2.7c0.2,0.2,0.3,0.4,0.5,0.6c0.5,0.6,0.9,1.1,1.3,1.7c0.3,0.5,0.8,0.9,1.3,1.3c0.2,0.1,0.3,0.3,0.4,0.4
		c0.9,0.8,1.7,1.6,2.6,2.4c0.6,0.5,1.1,1,1.6,1.3c0.3,0.3,0.7,0.5,1,0.7c0.3,0.2,0.6,0.4,0.9,0.6c0.3,0.2,0.6,0.5,1,0.7
		c0.5,0.4,0.9,0.7,1.4,1.1c0.4,0.3,0.8,0.5,1.3,0.7c0.7,0.4,1.3,0.7,1.8,1.1c1.4,1.2,3,1.8,4.7,2.3c1.3,0.4,2.6,0.7,3.9,0.9l0.9,0.2
		c0.3,0.1,0.7,0.1,1,0.1c0.2,0,0.5,0,0.7,0.1c0.3,0,0.6,0.1,0.9,0.2c0.5,0.1,1,0.2,1.5,0.2c1.1,0,2.1,0,3.1,0c0.5,0,1,0,1.5,0l0.5,0
		c1,0,1.9,0,2.9,0c0.6,0,1.1-0.3,1.4-0.9c0-0.1,0.1-0.3,0-0.4C325.3,82.6,325.2,81.7,324.5,81.7z"/>
	<g>
		<path class="st1" d="M198.6,31.2c1.2,0,2.6-0.3,3.6,0.1c0.6,0.2,1,1.7,1,2.6c0.1,3.4,0,6.9,0,10.3c0.2,0.1,0.5,0.2,0.7,0.3
			c1.4-2.8,2.9-5.6,4.3-8.5c0.2-0.4-0.3-1-0.3-1.5c-0.1-1.2-0.4-2.7,0.1-3.6c0.4-0.7,2.1-1.2,3-1c0.8,0.2,1.3,1.5,2.3,2.7
			c0.7-0.1,2-0.3,3.3-0.5c3.1-0.4,3.7,0.5,3.2,3.5c-0.5,2.9-0.7,5.9-0.8,8.8c0,1.5,0.7,3.2,2.7,2.8c1.8-0.4,2.1-1.9,2.1-3.7
			c0-2.8,0-5.7,0.9-8.3c1.7-5.2,5.9-6.4,10.4-4c1.2,0,2.6-0.3,3.6,0.1c0.6,0.2,1,1.7,1,2.6c0.1,3.6,0,7.3,0.2,10.9
			c0,0.8,1.1,1.6,1.6,2.5c0.8-0.6,2-1,2.4-1.8c0.7-1.4,1.1-3,1.2-4.5c0.2-3.4,0.1-6.8,0.1-10.1c4-0.5,4.3-0.2,4.3,3.2
			c0,1.1,0,2.2,0.4,3.4c0.7-1.7,1.4-3.3,2.1-5c0.7-1.6,1.7-2.3,3.5-1.9c1.7,0.4,2.5,1.4,2.5,3.2c0,2.1,0.2,4.3,0.6,6.5
			c1-2.6,1.9-5.3,2.9-7.9c0.6-1.6,1.6-2.3,3.3-1.8c1.6,0.5,3.2,0.8,3.1,3.2c-0.2,2.9-0.1,5.8-0.1,8.7c0,0.7,0,1.6,0.3,2.2
			c0.5,0.9,1.3,1.6,1.9,2.4c0.7-0.7,1.5-1.4,2-2.2c0.5-0.7,0.7-1.6,1.1-2.7c1.2,2.8,0.1,6-2.3,7c-2.4,1-5.4-0.2-6.2-3
			c-0.7-2.8-0.8-5.7-1.1-8.6c-0.1-0.7,0-1.4,0-2.7c-2.3,3.6-2.9,7.1-3.6,10.7c-0.2,0.9-0.9,1.7-1.3,2.5c-1.1-0.7-2.9-1.2-3.1-2.2
			c-0.7-2.8-0.8-5.7-1.2-8.6c-0.1-0.6-0.1-1.2-0.2-2.6c-2.4,3.4-3.2,6.6-3.7,10c-0.1,0.7,0,1.3-0.1,2c-0.1,1.1,0.5,2.7-1.4,2.9
			c-1.7,0.1-3.6,0.2-3.8-2.3c-4,3.4-6.4,3.1-9.1-1c-4.8,4.3-7.4,4.5-11.4,0.7c-1.7,2-3.7,3.4-6.5,2.2c-2.8-1.3-3.8-3.7-3.7-6.5
			c0-2.5,0.4-4.9,0.6-7.6c-1.9-0.5-3.2-0.3-4.4,1.9c-1.8,3.4-4.2,6.4-6.2,9.6c-0.6,0.9-1,2-1.1,3.1c-0.4,3-0.3,6.2-1,9.1
			c-0.9,3.6-4.7,5.5-8.2,4.7c-4.4-1-5.8-4.6-2.7-8c1.9-2.1,4.4-3.8,6.5-5.8c0.6-0.6,1-1.4,1.2-2.2c-5.5,3.1-7.5,3-10.9-0.6
			c-4.2,3.9-6.9,3.7-9.1-0.1c-2.4,1-4.6,2.4-6.9,2.7c-2.9,0.4-4.5-2-5.7-4.5c-1.8,2.4-3.2,5.3-6.6,4.5c-3.2-0.7-4-3.5-4.5-6.7
			c-0.7,1-1.2,1.6-1.7,2.3c-3,4.2-8.4,5.8-13.1,3.8c-0.6-0.3-1.4-1.6-1.2-2.1c0.3-1.1,1.2-2,2.7-1.1c1.5,0.9,3.3,2.1,4.6,0.2
			c1.5-2.1,0-3.8-1.5-5.2c-0.8-0.7-1.7-1.4-2.8-2.2c-1.4,2-2.7,4-4.1,5.9c-1.4,1.7-2.8,3.4-4.5,4.6c-2.4,1.7-4.8,0.6-5-2.4
			c-0.3-3.7-0.1-7.5-0.1-11.2c0-0.5,0-0.9-0.7-1.7c-1.1,1.7-2.5,3.2-3.3,5c-1.3,2.8-2.1,5.7-3.1,8.6c-0.4,1.1-0.2,2.5-2.2,2.4
			c-1.9-0.1-2.5-1.2-2.5-2.8c-0.1-3.7,0-7.3,0-11c0-1.7,0-3.4,0-5.1c3.8-0.3,4.2,0,4.2,3.3c0,1.7,0,3.5,0,5.9
			c1.4-2.6,2.4-4.8,3.7-6.7c1.8-2.6,3.8-3.2,6.2-2.3c1.6,0.6,2.4,1.6,2.2,3.4c-0.2,2.7-0.2,5.5-0.2,8.2c0,1,0.2,2.1,0.4,3.8
			c1.2-1,2.1-1.4,2.6-2.1c1.2-1.5,2.2-3.1,3.3-4.7c0.8-1.3,1.7-2.3,0.7-4.2c-0.5-0.9,0.4-3.2,1.4-4c1-0.9,2.9-0.8,4.4-0.9
			c0.2,0,0.8,1.6,0.7,2.2c-0.3,1.2-1.2,2.2-1.9,3.4c2.6,2.5,7.2,3.4,7.2,8.5c5.3-4.2,3-9.8,3.7-15c-2-0.1-3.7-0.3-5.4-0.4
			c0.1-2.4,0.1-2.4,5.5-2.7c0.1-1.3-0.1-2.7,0.3-4c0.2-0.7,1.1-1.7,1.7-1.7c1.2,0,3-0.3,3.2,1.8c0.1,1.3,0,2.6,0,4.1
			c2.2,0.2,4.2,0.3,6.3,0.5c0.1,2.3,0,2.3-2.3,2.4c-1.3,0-2.6,0-4.3,0c0,5.2-0.1,10,0.1,14.9c0,0.7,0.8,2,1.4,2.1
			c0.8,0.1,2-0.5,2.5-1.1c0.9-1.4,1.5-3.1,2-4.7c0.7-2.2,0.8-4.7,1.8-6.7c2.1-4.2,5.9-5,9.7-2.8c1.3,0,2.7-0.3,3.9,0.1
			c0.6,0.2,0.9,1.7,0.9,2.6c0.1,3.4,0,6.8,0.1,10.2c0,1.4,0.3,3.2,2.2,3c1.9-0.1,2.4-1.8,2.5-3.5c0.3-2.9,0.1-5.9,1-8.6
			C189.9,30,194,28.8,198.6,31.2z M227.8,40.4c0.3,1.7,0.2,2.9,0.6,3.8c0.6,1.1,1.6,2.7,2.5,2.8c1,0.1,2.5-1.2,3.1-2.2
			c1.6-2.9,1.8-6.1,0.8-9.2c-0.3-1-1.6-2.3-2.4-2.3c-1-0.1-2.7,0.8-3.1,1.7C228.5,36.8,228.2,38.9,227.8,40.4z M178.6,39.2
			c-0.1-0.1-0.3-0.1-0.4-0.2c0-0.8,0-1.7-0.2-2.5c-0.4-1.6-0.8-3.2-2.7-3.4c-2-0.2-3.4,1.1-3.6,2.8c-0.4,3-0.4,6-0.2,9
			c0,0.8,1.3,2,2,2.1c0.9,0.1,2.4-0.6,2.8-1.4C177.3,43.6,177.8,41.3,178.6,39.2z M191.3,40.4c0.2,1.6,0.1,2.6,0.5,3.4
			c0.7,1.2,1.7,2.2,2.5,3.4c1.2-0.9,3.1-1.6,3.4-2.7c0.7-2.8,0.8-5.8,0.8-8.8c0-0.9-1.4-2.4-2.2-2.4c-1.1-0.1-2.7,0.8-3.2,1.7
			C192.1,36.8,191.8,39,191.3,40.4z M199.8,52c-0.3-0.2-0.7-0.3-1-0.5c-1.7,1.9-3.5,3.7-4.9,5.7c-1.4,2-1,3.7,0.5,4.5
			c1.6,0.8,3.6-0.1,4.2-2.3C199.2,57,199.4,54.5,199.8,52z"/>
		<path class="st1" d="M107.8,23.1c-4.9,2.7-6,8.5-3.3,14.3c-3.2,0.2-5.9-2.6-5.6-6c0.3-4.1,4.6-9.4,8.5-10.6c3.1-1,5.1,0.3,5.1,3.5
			c-0.1,7.3-0.1,14.6-0.3,22c-0.1,3.8-2.2,6.1-5.4,6.7C108.6,43.1,107.3,33.2,107.8,23.1z"/>
	</g>
	<g>
		<path class="st0" d="M314.2,360.5c-0.6,0-1.1-0.4-1.2-1l-0.7-4l-0.1-0.1c-3.8-3.7-4.9-7.1-5.8-9.8c-0.8-2.5-1.4-4.3-3.6-6.1
			c-2.8-2.1-3-4.7-2-6.1c0.6-0.9,1.7-1.4,2.8-1.4c0.9,0,1.8,0.3,2.7,0.8c1.8,1.1,3.3,3.2,4.6,5.3l0.6,1l0.2-2.4
			c1.7-17.4,2.7-20.9,4.1-21.8c0.4-0.3,0.9-0.4,1.4-0.4c0.4,0,0.8,0.1,1.1,0.3c2,1.1,2.8,5.5,2.5,12.9l-0.1,1.8l0.5-0.1
			c0.1,0,0.3,0,0.4,0c0.5,0,1.1,0.1,1.6,0.4c1.6,0.7,2.4,1.9,2.7,2.7l0.1,0.3l0.3,0c0.2,0,0.4,0,0.7-0.1c0.1,0,0.3,0,0.4,0
			c1.1,0,2,0.7,2.8,2l0.1,0.2l0.3,0c0.2,0,0.5-0.1,0.7-0.1c0.8,0,1.9,0.2,2.4,1.2c1.3,2.6,0,8.2-0.9,11.3c-0.5,1.9-1.2,3.9-1.8,5.8
			c-0.9,2.7-1.6,4.9-1.6,5.5c0,0.7-0.6,1.2-1.2,1.2c-0.7,0-1.2-0.5-1.2-1.2c0-0.9,0.6-2.7,1.7-6.3c0.6-1.8,1.3-3.9,1.8-5.7
			c1.4-4.8,1.5-7.9,1.2-9.1l-0.1-0.3l-0.3,0c-0.3,0-0.8,0.1-1.2,0.3c-0.1,0-0.3,0.1-0.4,0.1c-0.5,0-1-0.3-1.1-0.8
			c-0.2-0.6-0.7-1.3-1-1.6l-0.1-0.1l-0.2,0c-0.4,0.1-0.8,0.1-1.1,0.1c-0.9,0-1.4-0.2-1.6-0.3c-0.4-0.2-0.7-0.6-0.7-1.1
			c0-0.2-0.2-1.2-1.5-1.8c-0.3-0.1-0.5-0.2-0.6-0.2h-0.3l0,0.2c-0.3,0.5-0.5,1.5-0.5,2.1c0,0.3-0.1,0.6-0.4,0.9
			c-0.2,0.2-0.5,0.3-0.9,0.3c-0.3,0-0.7-0.1-0.9-0.4c-0.4-0.4-0.6-0.6-0.3-7.3c0.3-6.6-0.5-9.2-0.9-10l-0.4-1l-0.3,1
			c-1.2,3.2-2.3,14.9-2.7,19.3c-0.2,1.7-0.3,3-0.4,3.8c-0.1,0.8-0.3,1.8-1.4,2.1c-0.1,0-0.2,0-0.4,0c-1.1,0-1.9-1.3-3-3
			c-1.1-1.7-2.5-4-4-4.9c-0.7-0.4-1.2-0.5-1.5-0.5c-0.4,0-0.7,0.1-0.8,0.3c-0.4,0.5,0,1.7,1.5,2.8c2.9,2.2,3.7,4.8,4.5,7.2
			c0.9,2.8,1.8,5.7,5.5,9.1c0.2,0.2,0.3,0.4,0.4,0.7l0.7,4.5c0.1,0.3,0,0.6-0.2,0.9c-0.2,0.3-0.5,0.4-0.8,0.5
			C314.3,360.5,314.2,360.5,314.2,360.5z"/>
		<g>
			<path class="st0" d="M57.5,322.6c0.6,0,1.2-0.2,1.7-0.7c0.5-0.5,1-1.1,1.3-1.9c0.4-0.8,0.6-1.8,0.8-2.9c0.2-1.1,0.3-2.4,0.3-3.7
				c0-1.5-0.2-3-0.6-4.5c-0.4-1.5-1.1-2.8-2.1-4c-1-1.2-2.3-2.2-3.9-2.9c-1.6-0.8-3.7-1.2-6.1-1.2c-1.9,0-3.6,0.3-5,0.8
				c-1.4,0.5-2.7,1.3-3.7,2.2c-1,0.9-1.9,1.9-2.6,3c-0.7,1.1-1.2,2.3-1.6,3.4c-0.4,1.1-0.7,2.2-0.8,3.3c-0.2,1.1-0.2,2-0.2,2.7
				c0,1.3,0.2,2.7,0.6,4.2c0.4,1.5,1,3,2,4.3c0.9,1.3,2.2,2.5,3.8,3.4c1.6,0.9,3.6,1.4,6.1,1.4c1.8,0,3.2-0.1,4.3-0.4
				c1.1-0.3,2-0.5,2.7-0.9c0.7-0.3,1.2-0.7,1.5-1c0.3-0.3,0.6-0.6,0.8-0.7c0.2,0.1,0.4,0.2,0.5,0.3c0.1,0.1,0.2,0.2,0.2,0.5
				c0,0.3-0.2,0.7-0.6,1.2c-0.4,0.5-1,1-1.9,1.4c-0.9,0.5-2,0.8-3.5,1.2c-1.4,0.3-3.2,0.5-5.3,0.5c-1.4,0-3-0.3-4.6-0.8
				c-1.7-0.6-3.2-1.5-4.7-2.7c-1.4-1.2-2.7-2.8-3.6-4.7c-1-1.9-1.5-4.2-1.5-6.9c0-2.9,0.5-5.5,1.6-7.7c1-2.2,2.4-4.1,4-5.6
				c1.6-1.5,3.5-2.7,5.5-3.4c2-0.8,4-1.2,5.9-1.2c1.9,0,3.8,0.3,5.6,0.8c1.9,0.5,3.5,1.4,5,2.5c1.5,1.1,2.7,2.6,3.6,4.5
				c0.9,1.9,1.4,4.1,1.4,6.7c0,1.2-0.1,2.5-0.4,3.9c-0.2,1.4-0.6,2.6-1.2,3.8c-0.6,1.1-1.3,2.1-2.3,2.8c-1,0.8-2.2,1.1-3.7,1.1
				c-1.4,0-2.6-0.4-3.4-1.2c-0.8-0.8-1.2-1.8-1.3-3c-0.2,0.5-0.5,1.1-0.8,1.7c-0.3,0.6-0.7,1.2-1.1,1.7c-0.4,0.5-0.9,1-1.5,1.3
				c-0.6,0.4-1.2,0.5-2,0.5c-0.2,0-0.4,0-0.5-0.1c-0.2-0.1-0.3-0.2-0.5-0.2c-0.2-0.1-0.3-0.2-0.5-0.2c-0.2-0.1-0.4-0.1-0.7-0.1
				c-0.8,0-1.5-0.2-2-0.6c-0.5-0.4-0.9-0.9-1.2-1.6c-0.3-0.6-0.5-1.4-0.6-2.1c-0.1-0.8-0.2-1.5-0.2-2.2c0-0.5,0-1.2,0.1-2
				c0.1-0.9,0.3-1.8,0.5-2.8c0.2-1,0.5-2,0.9-3c0.4-1,0.8-2,1.3-2.8c0.5-0.8,1.2-1.5,1.9-2c0.7-0.5,1.6-0.8,2.5-0.8
				c0.7,0,1.2,0.1,1.6,0.2c0.3,0.2,0.6,0.3,0.8,0.5c0.2,0.2,0.5,0.4,0.8,0.5c0.3,0.2,0.8,0.2,1.6,0.2c0.6,0.2,1,0.5,1.3,0.8
				c0.3,0.3,0.6,0.7,0.8,1.1s0.3,0.8,0.4,1.3c0,0.4,0.1,0.9,0.1,1.3c0,0.3,0,0.5,0,0.8c0,0.2,0,0.5,0,0.8c0,0.1,0.1,0.2,0.2,0.2
				c0.2,0,0.3,0.1,0.5,0.1c0.2,0,0.4,0.1,0.5,0.3c0.2,0.1,0.2,0.4,0.2,0.7v0.2c-0.4,0.8-0.7,1.5-0.9,2.2c-0.2,0.7-0.3,1.5-0.3,2.4
				c0,0.4,0,0.8,0.1,1.3c0.1,0.5,0.2,0.9,0.4,1.3c0.2,0.4,0.4,0.7,0.7,0.9C56.7,322.5,57.1,322.6,57.5,322.6z M51.8,312.4
				c0-0.3,0-0.8-0.1-1.3c-0.1-0.5-0.2-1-0.4-1.5c-0.2-0.5-0.5-0.9-0.9-1.2c-0.4-0.3-0.9-0.5-1.5-0.5c-1.1,0-1.9,0.4-2.6,1.3
				c-0.7,0.8-1.2,1.8-1.6,3c-0.4,1.1-0.6,2.3-0.8,3.5c-0.1,1.2-0.2,2.1-0.2,2.7c0,0.5,0,1,0.1,1.7c0,0.6,0.1,1.2,0.3,1.8
				c0.1,0.6,0.3,1,0.6,1.4c0.3,0.4,0.6,0.6,1.1,0.6c0.8,0,1.5-0.3,2-1c0.6-0.7,1-1.5,1.4-2.4c0.4-1,0.7-2,0.9-3.2
				c0.2-1.1,0.4-2.2,0.5-3.1c0.1-0.5,0.2-0.8,0.5-0.9c0.3-0.2,0.4-0.3,0.4-0.3L51.8,312.4z"/>
			<path class="st0" d="M91.5,309.5c0.1,0.2,0.1,0.5,0.1,0.8c0,0.4-0.1,0.8-0.4,1.2c-0.3,0.4-0.7,0.8-1.1,1.1
				c-0.5,0.3-1,0.6-1.5,0.8c-0.6,0.2-1.1,0.4-1.7,0.4c0,0.3-0.1,0.9-0.2,1.5c-0.1,0.7-0.2,1.4-0.4,2.3c-0.2,0.8-0.4,1.7-0.7,2.5
				c-0.3,0.9-0.6,1.7-1,2.4c-0.4,0.7-0.8,1.3-1.4,1.8c-0.5,0.5-1.1,0.7-1.8,0.7c-0.5,0-1.1-0.1-1.6-0.4c-0.5-0.3-1-0.7-1.5-1.2
				c-0.5-0.5-0.9-1-1.2-1.6c-0.3-0.6-0.6-1.2-0.8-1.8c-0.1,0.4-0.3,1-0.5,1.7c-0.2,0.7-0.5,1.5-0.9,2.2c-0.4,0.7-0.8,1.4-1.3,1.9
				c-0.5,0.5-1.1,0.8-1.9,0.8c-0.6,0-1.2-0.1-2-0.3c-0.8-0.2-1.3-0.5-1.7-1c-0.2-0.3-0.4-0.8-0.6-1.4c-0.2-0.7-0.3-1.4-0.4-2.1
				c-0.1-0.7-0.2-1.4-0.2-2.1c0-0.7-0.1-1.1-0.1-1.4v-2.3c0-0.4,0-1,0.1-2c0.1-0.9,0.1-1.9,0.2-2.9c0.1-1,0.2-2,0.2-2.8
				c0.1-0.8,0.1-1.4,0.2-1.6c0.1-0.2,0.2-0.3,0.4-0.3c0.2,0,0.4-0.1,0.5-0.1c0.2,0,0.4,0,0.8,0.1c0.4,0,0.8,0.1,1.1,0.2
				c0.4,0.1,0.7,0.2,1,0.3c0.3,0.1,0.4,0.3,0.4,0.4c0,0.1,0,0.2-0.2,0.3c-0.1,0.1-0.2,0.3-0.3,0.7c-0.1,0.4-0.1,1-0.2,1.7
				c-0.1,0.8-0.2,1.7-0.3,2.7c-0.1,1-0.2,2-0.2,3.1c-0.1,1.1-0.1,2.2-0.1,3.2c0,1.4,0.1,2.6,0.3,3.6c0.2,1,0.5,1.4,1,1.4
				c0.3,0,0.5-0.3,0.8-0.8c0.3-0.5,0.5-1.2,0.8-1.9c0.3-0.7,0.5-1.5,0.6-2.2c0.2-0.7,0.3-1.2,0.4-1.6c0.1-0.4,0.2-1.1,0.3-2
				c0.2-1,0.2-2,0.2-3.2c0-0.4,0-0.8,0-1c0-0.2,0-0.4,0-0.5c0-0.1,0-0.2,0-0.3c0-0.1,0-0.2,0-0.3c0-0.3,0.1-0.5,0.3-0.6
				c0.2-0.1,0.4-0.1,0.7-0.1c0.3,0,0.7,0,1.1,0.1c0.4,0.1,0.8,0.1,1.1,0.2c0.3,0.1,0.7,0.2,0.9,0.3c0.3,0.1,0.4,0.2,0.4,0.2v3.8
				c0,0.4,0,1.1,0,2c0,1,0.1,1.9,0.2,2.9c0.1,1,0.3,1.8,0.6,2.6c0.3,0.7,0.6,1.1,1,1.1c0.3,0,0.5-0.2,0.8-0.6c0.2-0.4,0.5-1,0.7-1.6
				c0.2-0.6,0.4-1.4,0.5-2.1c0.1-0.8,0.3-1.5,0.4-2.1c0.1-0.7,0.2-1.2,0.2-1.7c0-0.5,0.1-0.7,0.1-0.7c0-0.2-0.1-0.3-0.3-0.4
				c-0.2-0.1-0.4-0.3-0.6-0.5c-0.2-0.2-0.4-0.5-0.6-0.9c-0.2-0.4-0.3-0.9-0.3-1.6c0-0.4,0.1-0.9,0.2-1.5c0.1-0.5,0.3-1.1,0.4-1.5
				c0.2-0.5,0.4-0.9,0.6-1.2c0.2-0.3,0.5-0.5,0.8-0.5c0.4,0,0.7,0,1.1,0.1c0.3,0.1,0.7,0.3,0.9,0.6c0.3,0.3,0.5,0.7,0.6,1.2
				c0.1,0.5,0.2,1.1,0.2,1.9v1.9c0.7,0,1.4-0.2,2.2-0.5c0.7-0.3,1.4-0.9,2.1-1.6C91.3,309.3,91.4,309.4,91.5,309.5z"/>
			<path class="st0" d="M109.2,320.1c-0.1,0.4-0.2,1-0.5,1.6c-0.3,0.6-0.6,1.2-1,1.7c-0.4,0.5-0.8,1-1.4,1.4
				c-0.5,0.4-1.1,0.6-1.7,0.6c-0.9,0-1.8-0.4-2.5-1.1c-0.7-0.7-1.1-1.7-1.3-3.1c-0.2,0.5-0.4,1.1-0.7,1.7c-0.3,0.7-0.6,1.3-0.9,1.8
				c-0.4,0.6-0.8,1-1.3,1.4c-0.5,0.4-1.1,0.6-1.7,0.6c-0.2,0-0.3,0-0.4,0c-0.1,0-0.2-0.1-0.3-0.1c-0.1,0-0.2-0.1-0.4-0.1
				c-0.1,0-0.3,0-0.6,0c-0.8,0-1.4-0.2-1.9-0.7c-0.5-0.5-0.9-1.1-1.2-1.9c-0.3-0.8-0.5-1.6-0.7-2.5c-0.1-0.9-0.2-1.7-0.2-2.5
				c0-1.9,0.1-3.7,0.3-5.4c0.2-1.7,0.5-3.2,1-4.5c0.5-1.3,1.1-2.3,1.8-3.1c0.8-0.8,1.7-1.2,2.7-1.2c0.6,0,1.1,0.1,1.4,0.2
				c0.3,0.1,0.6,0.2,0.9,0.4c0.3,0.1,0.6,0.3,0.9,0.4c0.3,0.2,0.8,0.3,1.4,0.4c0.7,0.4,1.1,0.8,1.4,1.3c0.3,0.5,0.4,1.1,0.5,1.7
				c0.1,0.6,0.1,1.2,0.1,1.9c0,0.6,0,1.3,0.1,1.9c0,0,0.1,0.1,0.2,0.1c0.1,0.1,0.3,0.1,0.5,0.2c0.2,0.1,0.4,0.2,0.5,0.3
				c0.1,0.1,0.2,0.3,0.2,0.5v0.2c-0.3,0.8-0.5,1.5-0.6,2.2c-0.1,0.6-0.1,1.4-0.1,2.3c0,0.4,0,0.9,0.1,1.4c0,0.5,0.1,1,0.2,1.5
				c0.1,0.5,0.3,0.8,0.5,1.1c0.2,0.3,0.5,0.4,0.8,0.4c0.4,0,0.7-0.2,1-0.6c0.3-0.4,0.5-0.8,0.8-1.3c0.2-0.5,0.4-1,0.5-1.5
				c0.1-0.5,0.2-0.9,0.3-1.1c0.1-0.4,0.2-0.6,0.5-0.6c0.2,0,0.3,0.1,0.4,0.3c0.1,0.2,0.2,0.5,0.2,0.9c0,0.1,0,0.2,0,0.4
				C109.3,319.8,109.2,320,109.2,320.1z M100.5,312.5c0-0.3,0-0.8-0.1-1.2c-0.1-0.5-0.2-0.9-0.3-1.3c-0.2-0.4-0.4-0.8-0.7-1
				c-0.3-0.3-0.7-0.4-1.3-0.4c-0.9,0-1.6,0.4-2.1,1.2c-0.5,0.8-1,1.7-1.3,2.8c-0.3,1.1-0.5,2.2-0.6,3.3c-0.1,1.1-0.1,2.1-0.1,2.7
				c0,0.5,0,1.1,0.1,1.8c0,0.7,0.1,1.4,0.3,2c0.1,0.6,0.3,1.2,0.5,1.6c0.2,0.4,0.5,0.7,0.9,0.7c0.9,0,1.6-0.4,2.1-1.1
				c0.5-0.7,0.9-1.6,1.1-2.6c0.3-1.1,0.4-2.2,0.5-3.4c0.1-1.2,0.2-2.3,0.3-3.3c0.1-0.5,0.2-0.9,0.4-1c0.2-0.1,0.3-0.2,0.3-0.3V312.5
				z"/>
			<path class="st0" d="M115,315c-0.5,0.7-0.9,1.4-1.2,2.2c-0.3,0.8-0.6,1.6-0.8,2.5c-0.2,0.9-0.4,1.7-0.5,2.6
				c-0.1,0.9-0.3,1.7-0.4,2.5c-0.1,0.2-0.3,0.3-0.7,0.4c-0.4,0.1-0.7,0.1-0.9,0.1c-0.6,0-1,0-1.4-0.1c-0.4-0.1-0.6-0.2-0.8-0.4
				c-0.2-0.2-0.3-0.6-0.4-1.1c-0.1-0.5-0.2-1.1-0.2-2l0.6-14c0-0.4,0.2-0.6,0.7-0.6c0.2,0,0.4,0,0.7,0.1c0.3,0,0.6,0.1,0.9,0.2
				c0.3,0.1,0.6,0.2,0.8,0.4c0.2,0.1,0.3,0.3,0.3,0.5v9.6c0,0,0.1-0.2,0.1-0.4c0.2-0.6,0.5-1.3,0.8-2.1c0.3-0.8,0.7-1.6,1-2.4
				c0.4-0.8,0.8-1.4,1.2-1.9c0.4-0.5,0.9-0.8,1.3-0.8c0.6,0,1,0.1,1.3,0.4c0.3,0.3,0.5,0.6,0.7,1c0.2,0.4,0.2,0.8,0.3,1.3
				c0,0.5,0,0.9,0,1.4c0,0.3,0,0.8-0.1,1.6c-0.1,0.7-0.1,1.8-0.1,3.3c0,0.8,0.1,1.6,0.2,2.2c0.2,0.7,0.5,1,0.9,1
				c0.3,0,0.7-0.2,0.9-0.5c0.3-0.3,0.5-0.7,0.8-1.2c0.2-0.5,0.4-1,0.6-1.5c0.2-0.5,0.3-1,0.3-1.5c0-0.6,0.3-0.9,0.7-0.9
				c0.3,0,0.5,0.1,0.6,0.3c0.1,0.2,0.1,0.4,0.1,0.7v0.1c0,0.6-0.1,1.3-0.4,2.1c-0.2,0.8-0.5,1.5-0.9,2.2c-0.4,0.7-0.9,1.3-1.5,1.7
				c-0.6,0.5-1.4,0.7-2.3,0.7c-1.4,0-2.3-0.5-2.7-1.5c-0.4-1-0.6-2.5-0.6-4.5L115,315z"/>
			<path class="st0" d="M121.5,316.7c0-1.6,0.1-3.2,0.1-4.9c0.1-1.7,0.1-3.2,0.2-4.6c0-0.3-0.3-0.4-0.8-0.5
				c-0.5-0.1-1.1-0.2-1.7-0.3c-0.6-0.1-1.2-0.2-1.7-0.4c-0.5-0.2-0.8-0.5-0.8-1c0-0.4,0.4-0.6,1.2-0.7c0.8-0.1,2-0.1,3.6-0.1
				c0.1,0,0.2-0.2,0.3-0.6c0-0.4,0.1-0.9,0.1-1.4c0-0.6,0-1.2,0-1.9c0-0.7,0-1.3,0.1-1.9c0-0.6,0.1-1.1,0.2-1.4
				c0.1-0.4,0.2-0.6,0.3-0.6c0.2,0,0.4,0,0.8,0.1c0.4,0.1,0.8,0.1,1.3,0.3c0.4,0.1,0.8,0.2,1.2,0.4c0.3,0.2,0.5,0.3,0.5,0.5
				l-0.5,6.1c0,0.2,0.2,0.3,0.5,0.4c0.3,0.1,0.8,0.1,1.3,0.1c0.5,0,1.1,0,1.6,0c0.6,0,1.1,0,1.6,0.1c0.5,0.1,0.9,0.2,1.3,0.4
				c0.3,0.2,0.5,0.5,0.5,0.9c0,0.1,0,0.2-0.1,0.3c-0.1,0.1-0.1,0.2-0.2,0.2c-0.1,0-0.1,0-0.3-0.1c-0.1-0.1-0.4-0.1-0.9-0.1
				c-0.1,0-0.5,0-1,0c-0.6,0-1.2,0.1-1.8,0.1c-0.6,0.1-1.2,0.1-1.7,0.2c-0.5,0.1-0.8,0.2-0.9,0.3c0,0.1-0.1,0.4-0.1,1.1
				c0,0.7-0.1,1.6-0.1,2.7c0,1.1-0.1,2.4-0.1,3.8c0,1.4,0,2.9,0,4.5c0,0.6,0,1.2,0.1,1.7c0.1,0.6,0.2,1.1,0.3,1.5
				c0.1,0.5,0.3,0.8,0.5,1.1c0.2,0.3,0.4,0.4,0.7,0.4c0.4,0,0.8-0.2,1.1-0.5c0.3-0.3,0.7-0.8,0.9-1.4c0.3-0.6,0.5-1.3,0.8-2
				c0.2-0.8,0.4-1.5,0.6-2.3c0.1-0.5,0.2-0.8,0.3-1c0.1-0.2,0.3-0.3,0.6-0.3c0.2,0,0.4,0.1,0.6,0.2c0.2,0.1,0.3,0.5,0.3,1
				c0,0.3,0,0.5,0,0.6c-0.1,0.6-0.3,1.3-0.5,2.3c-0.3,1-0.6,2-1.1,2.9c-0.5,1-1,1.8-1.7,2.5c-0.7,0.7-1.4,1.1-2.3,1.1
				c-0.8,0-1.6-0.2-2.2-0.7c-0.6-0.5-1.2-1.2-1.6-2c-0.4-0.9-0.7-1.9-1-3.1c-0.2-1.2-0.3-2.4-0.3-3.8V316.7z"/>
			<path class="st0" d="M137,303.5c0,0.2-0.1,0.4-0.3,0.5c-0.2,0.1-0.5,0.2-0.7,0.3c-0.3,0.1-0.5,0.1-0.8,0.1c-0.3,0-0.4,0-0.5,0
				c-0.7,0-1.3-0.2-2-0.6c-0.6-0.4-1.2-1-1.8-1.8c-0.1-0.1-0.2-0.2-0.3-0.4c-0.1-0.2-0.2-0.3-0.2-0.3c0-0.2,0.1-0.3,0.4-0.4
				c0.2-0.1,0.5-0.3,0.8-0.4c0.3-0.1,0.6-0.2,0.8-0.3c0.3-0.1,0.4-0.1,0.5-0.1c0.6,0,1.2,0.2,1.9,0.5c0.6,0.3,1.1,0.9,1.5,1.7
				c0.1,0.1,0.2,0.3,0.4,0.5C137,303.2,137,303.4,137,303.5z M141.8,317.7c-0.1,0.8-0.3,1.5-0.5,2.4c-0.3,0.8-0.6,1.6-1.1,2.3
				c-0.5,0.7-1,1.3-1.7,1.7c-0.7,0.5-1.5,0.7-2.5,0.7c-0.8,0-1.6-0.3-2.4-0.8c-0.8-0.6-1.4-1.3-1.7-2.2c-0.3-0.9-0.4-1.8-0.4-2.6
				c0-0.2,0-0.6,0-1.1c0-0.5,0-1.1,0-1.8V311c0-0.3,0-0.5,0-0.8c0-0.3-0.1-0.5-0.1-0.8c0-0.1-0.1-0.3-0.2-0.4
				c-0.1-0.2-0.1-0.3-0.1-0.3c0-0.1,0.1-0.2,0.2-0.3c0.2-0.1,0.3-0.1,0.5-0.2c0.2,0,0.5,0,0.8,0c0.1,0,0.3,0,0.7,0
				c0.3,0,0.7,0.1,1.1,0.2c0.4,0.1,0.7,0.2,1,0.4c0.3,0.2,0.4,0.5,0.4,0.9c0,0.1,0,0.3-0.2,0.5c-0.1,0.3-0.3,0.7-0.4,1.3
				c0,0.3-0.1,0.5-0.1,0.7c0,0.2-0.1,0.4-0.1,0.7c0,0.3-0.1,0.6-0.1,0.9c0,0.4-0.1,0.8-0.1,1.4v2.8c0,0.5,0,1,0,1.5
				c0,0.5,0.1,1,0.2,1.4c0.1,0.4,0.3,0.8,0.5,1c0.3,0.3,0.6,0.4,1,0.4c0.6,0,1.1-0.2,1.4-0.5c0.3-0.3,0.6-0.6,0.8-0.9
				c0.3-0.5,0.6-1.1,0.8-1.8c0.2-0.7,0.4-1.4,0.5-2.2l0.1-0.5c0.1-0.5,0.4-0.7,0.8-0.7c0.5,0,0.7,0.3,0.7,1v0.2L141.8,317.7z"/>
			<path class="st0" d="M145.5,333.1c0,0.7-0.7,1.3-1.6,1.3l0,0c-0.9,0-1.6-0.6-1.6-1.3v-35.5c0-0.7,0.7-1.3,1.6-1.3l0,0
				c0.9,0,1.6,0.6,1.6,1.3V333.1z"/>
		</g>
	</g>
	<g>
		<path class="st3" d="M525.2,60.6c-19.3,0-35,15.7-35,35c0,10,4.2,19,11,25.4c-1.1,1.8-2.4,3.3-3.8,4.6c-2.1,1.9-4.4,3.3-7,4.4
			c1.9,0.2,3.5,0.3,5.1,0.3c2.5,0,4.8-0.3,7.9-1.2c2.1-0.6,4.1-1.4,6-2.3c4.8,2.5,10.2,3.8,15.9,3.8c19.3,0,35-15.7,35-35
			C560.2,76.3,544.6,60.6,525.2,60.6z"/>
		<path class="st4" d="M525.2,65.5c16.9,0,30.6,13.7,30.6,30.6c0,16.9-13.7,30.6-30.6,30.6c-16.9,0-30.6-13.7-30.6-30.6
			C494.6,79.2,508.3,65.5,525.2,65.5z"/>
		<path class="st5" d="M525.2,122.4c-14.5,0-26.2-11.8-26.2-26.3c0-14.5,11.8-26.3,26.2-26.3c14.5,0,26.3,11.8,26.3,26.3
			C551.5,110.6,539.7,122.4,525.2,122.4z"/>
		<path class="st6" d="M525.2,118c-12.1,0-21.9-9.8-21.9-21.9c0-12.1,9.8-21.9,21.9-21.9c12.1,0,21.9,9.8,21.9,21.9
			C547.1,108.2,537.3,118,525.2,118z"/>
		<path class="st3" d="M525.2,113.6c-9.6,0-17.5-7.9-17.5-17.5c0-9.7,7.9-17.5,17.5-17.5c9.6,0,17.5,7.8,17.5,17.5
			C542.7,105.8,534.9,113.6,525.2,113.6z"/>
		<path class="st4" d="M525.2,109.2c-7.2,0-13.1-5.9-13.1-13.1c0-7.2,5.9-13.1,13.1-13.1c7.2,0,13.1,5.9,13.1,13.1
			C538.4,103.3,532.5,109.2,525.2,109.2z"/>
		<circle class="st5" cx="525.2" cy="96.1" r="8.8"/>
		<circle class="st6" cx="525.2" cy="96.1" r="4.4"/>
	</g>
</g>
</svg>
