<?xml version="1.0" encoding="utf-8"?>
<!-- Generator: Adobe Illustrator 19.1.0, SVG Export Plug-In . SVG Version: 6.00 Build 0)  -->
<svg version="1.1" id="Layer_1" xmlns="http://www.w3.org/2000/svg" xmlns:xlink="http://www.w3.org/1999/xlink" x="0px" y="0px"
	 viewBox="0 0 688.5 369.1" style="enable-background:new 0 0 688.5 369.1;" xml:space="preserve">
<style type="text/css">
	.st0{fill:#FFFFFF;}
	.st1{fill-rule:evenodd;clip-rule:evenodd;fill:#FFFFFF;}
	.st2{fill:#FFDE19;}
	.st3{fill-rule:evenodd;clip-rule:evenodd;fill:#FFDE19;}
	.st4{fill:#EF3C5A;}
	.st5{fill:#FBD051;}
	.st6{fill:#5EA76F;}
	.st7{fill:#618AC7;}
	.st8{fill-rule:evenodd;clip-rule:evenodd;fill:#EE2631;}
</style>
<g>
	<path class="st0" d="M640.7,315.1"/>
	<g>
		<path class="st1" d="M284.2,85c0,0,0.1-0.1,0.4-0.4c0.3-0.3,0.7-0.6,1.2-1.1c0.5-0.5,1.1-1,1.8-1.6c0.7-0.6,1.5-1.3,2.4-2.1
			c0.9-0.8,1.8-1.6,2.8-2.6c0.5-0.5,1-1,1.5-1.5c0.5-0.4,1-0.9,1.6-1.5c2.2-2.3,5-6.1,8.5-11.5c0.1-0.5,0.2-0.9,0.2-1.4
			c-0.6-0.1-1.4-0.1-2.1-0.1c-1.5,0-3,0.1-4.7,0.2c-3.4,0.3-7.8,1.1-12.4,2.8c-0.6,0.2-1.2,0.5-1.9,0.7l-0.9,0.4l-0.7,0.3
			c-0.9,0.4-1.8,0.8-2.7,1.3c-0.8,0.5-1.7,0.9-2.5,1.4c-0.8,0.5-1.6,1-2.3,1.5c-3.6,2.6-29,24.1-32.8,28.4
			c-4.1,4.3-7.8,7.6-10.1,11.1c-4.6,7.2-5.6,12.3-5,13.3c0.3,0.5-0.1,0.9-0.8,1.2c-0.7,0.3-1.7,0.5-2.9,0.7c-2.3,0.3-5,1.1-5.7,0.4
			c-0.7-0.8,1-1.6,2.7-2.7c0.9-0.5,1.8-1.1,2.4-1.8c0.7-0.7,1.2-1.5,1.2-2.7c0-0.3,0.1-0.7,0.3-1.3c0.2-0.5,0.5-1.2,0.8-2
			c0.4-0.8,0.8-1.7,1.3-2.6c0.6-0.9,1.2-1.9,1.9-3c2.8-4.4,7.7-8.6,12.6-13.6l0.9-1l1.1-1c0.8-0.7,0.9-2.2,1.7-2.8
			c2.5-1.9,26.1-21.1,28.4-22.7c0.9-0.6,1.7-1.1,2.6-1.7c1.8-1,3.5-2,5.4-2.9l0.7-0.3l1-0.4c0.7-0.3,1.4-0.5,2.1-0.8
			c1.3-0.6,2.8-1,4.2-1.4c1.4-0.5,2.7-0.8,4.1-1.1c1.3-0.4,2.5-0.5,3.8-0.7c2.4-0.4,4.5-0.5,6.4-0.7c1.9-0.1,3.6-0.2,5.2-0.3
			c0.4,0,0.8,0,1.2,0c0.2,0,0.3,0,0.4,0l0.3,0.1c0.5,0.1,0.9,0.2,1.3,0.2c-0.2,0.4-0.4,0.7-0.5,0.9c-2.5,4.5-4.9,8.8-7.1,12.7
			c-0.9,1.7-1.8,3.2-2.7,4.8c-0.2,0.3-0.4,0.7-0.6,1c-0.1,0.2-0.3,0.4-0.4,0.7c-0.3,0.4-0.6,0.8-0.8,1.3c-2.1,3.2-3.6,5.4-4.4,6.4
			c-0.4,0.4-1.2,0.8-2.1,1c-0.9,0.3-2,0.6-3.1,0.9c-1.1,0.2-2.3,0.3-3.2-0.2c-0.5-0.2-0.9-0.6-1.2-1.1c-0.2-0.3-0.3-0.4-0.4-0.6
			C284.4,85.4,284.3,85.2,284.2,85z"/>
		<path class="st1" d="M270.6,47c0,0,0.8,0.2,2.2,0.4c0.7,0.1,1.5,0.2,2.5,0.3c0.9,0.1,1.9,0.3,3,0.4c2.1,0.3,4.5,0.7,6.6,1.3
			c2.2,0.5,4.1,1.1,6.5,1.6c4.8,1,8.9,2.9,12.2,4.1c3.2,1.3,5.6,2,6.6,1.8c1-0.2,0,1-1.5,2.3c-1.5,1.4-3.5,2.7-4.2,3.1
			c-0.6,0.4,0.3-0.5,1-1.5c0.7-1,1.2-2.1-0.2-2c-1.3,0.1-5.3-2.3-9.6-3.9c-2.1-0.8-4.2-1.4-5.9-1.6c-1.7-0.3-2.9-0.3-3.8-0.4
			c-3.2-0.6-7.1,0.2-8.5,0.1C276.2,52.8,270.7,48.9,270.6,47z"/>
	</g>
	<g>
		<g>
			<path class="st0" d="M654.5,106.7c0,0,12.3,5.6,18.1,14c5.8,8.4,5.8,8.4,5.8,8.4"/>
			<g>
				<path class="st1" d="M656.4,104c0,0,0.1,0.4,0.5,1.1c0.3,0.7,0.8,1.6,1.6,2.7c1.4,2.2,3.9,5,7.4,8.1c1.7,1.6,3.3,3,4.5,4.5
					c0.6,0.7,1.3,1.4,1.8,2.1c0.6,0.7,1.1,1.3,1.6,1.9c2,2.3,3.4,3.5,4,3.6c1,0.2-1.5,2.8-2.1,3c-0.7,0.2,1.2-2.2-0.3-2.9
					c-0.4-0.2-1.3-1.2-2.4-2.5c-1.1-1.4-2.5-3.3-3.9-4.8c-2.8-3.2-6.7-6.1-8.2-7.4c-3-2.6-5.4-4.6-5.9-5.4
					C654.2,107.1,655.2,104.2,656.4,104z"/>
			</g>
		</g>
		<g>
			<path class="st0" d="M656.1,127.6c0,0,8.9-10.7,15.2-17.6c4.6-5,8.4-5,8.4-5"/>
			<g>
				<path class="st1" d="M653.9,125c0,0,6.5-0.3,13-7.6c3.3-3.6,5.6-7.1,7.6-9.1c2-2.1,3.6-3,3.9-3.4c0.3-0.4,0.8,0.1,1.1,1
					c0.3,0.8,0.1,1.9,0.2,2.2c0.2,0.3,0-0.2-0.4-0.7c-0.4-0.5-1-0.8-1.5-0.2c-0.1,0.2-0.4,0.4-0.8,0.7c-0.4,0.4-0.9,0.7-1.5,1.3
					c-1.2,1-2.4,2.6-4,4.5c-3,3.7-6.3,7.5-7.9,8.8c-3.1,2.8-5.6,4.7-6.5,5C656.4,127.9,653.9,126.2,653.9,125z"/>
			</g>
		</g>
	</g>
	<g>
		<path class="st0" d="M688.5,152.9c0,0-142-0.7-204.9,0.9c-62.9,1.6-146.1-2.7-172.5-0.5c-26.4,2.3-42.6,2.4-42.6,2.4"/>
		<g>
			<path class="st1" d="M681.6,155.4c0,0-13.9-0.9-43.2-1.9c-7.3-0.2-15.6-0.5-24.9-0.7c-9.3-0.2-19.6-0.3-30.9-0.4
				c-22.6-0.2-49.2-0.2-80.1,0c-61.8,1.3-114-0.3-151.9-0.4c-9.5-0.1-18.1,0.1-25.7,0.2c-7.6,0.3-14.3,0.7-19.9,1.2
				c-11.2,0.9-18.2,1.5-20.4,1.8c-4.5,0.6-9.1,0.2-12.2-0.4c-3.1-0.6-4.7-1.3-3.4-1.6c1.3-0.3,4.7,0,10.2,0.3c5.5,0.1,13-0.1,22.4-1
				c2.4-0.2,7.6-0.7,15.2-1.1c1.9-0.1,3.9-0.2,6.1-0.3c2.2-0.1,4.4-0.1,6.8-0.1c4.8,0,10.1-0.2,15.8-0.1c22.7,0.1,51.6,0.8,81.6,1
				c30,0.4,60.9-0.4,87.7-0.5c26.8-0.1,49.3-0.3,62.2-0.3c13,0,25.1,0,36.2,0.1c11.1,0.1,21.2,0.3,30,0.4
				c17.6,0.3,30.1,0.5,35.6,0.7C689.7,152.6,692.5,154.9,681.6,155.4z"/>
		</g>
	</g>
	<g>
		<path class="st0" d="M278.7,80.1c0,0,135.3-2,195.2-1c59.9,1,139.1-4.1,164.2-2c25.1,2,40.6,2,40.6,2"/>
		<g>
			<path class="st1" d="M285.2,77.5c0,0,13.2,0.7,41.2,1.3c14,0.2,31.7,0.5,53.1,0.9c21.5,0.3,46.9,0.5,76.3,0.5
				c58.9,0.9,108.6-1.6,144.7-2.6c9-0.3,17.2-0.4,24.4-0.5c7.2,0.1,13.5,0.3,18.9,0.6c10.7,0.5,17.4,0.7,19.5,0.7
				c4.3,0.1,8.6,0.6,11.6,1.3c2.9,0.7,4.5,1.5,3.2,1.8c-1.3,0.2-4.6-0.3-9.8-0.8c-5.2-0.7-12.3-1.5-21.4-1.7
				c-2.3,0-7.4-0.4-14.4-0.5c-1.8-0.1-3.7-0.1-5.7-0.2c-2,0-4.2,0-6.5,0c-4.6,0.1-9.6,0-14.9,0.2c-21.5,0.5-49.1,1.6-77.7,2.2
				c-28.6,0.8-58.2,0.3-83.6,0.4c-25.5,0-46.9-0.1-59.2-0.1c-12.3-0.1-23.9-0.2-34.5-0.2c-10.6,0-20.2,0-28.6,0
				c-16.8,0-28.7-0.1-33.9-0.2C277.6,80.4,274.9,78.2,285.2,77.5z"/>
		</g>
	</g>
	<g>
		<path class="st0" d="M269.7,3.5c0,0,141.6-2,204.3-1c62.7,1,145.7-4.1,172-2c26.3,2,42.5,2,42.5,2"/>
		<g>
			<path class="st1" d="M276.5,0.9c0,0,13.9,0.7,43.1,1.3c14.7,0.2,33.1,0.5,55.6,0.9c22.5,0.3,49.1,0.5,79.9,0.5
				C516.8,4.5,568.9,2,606.7,1c9.4-0.3,18-0.4,25.6-0.5c7.6,0.1,14.2,0.3,19.8,0.6c11.2,0.5,18.2,0.7,20.4,0.7
				c4.5,0.1,9,0.6,12.1,1.3c3.1,0.7,4.7,1.5,3.4,1.8c-1.4,0.2-4.8-0.3-10.3-0.8c-5.5-0.7-12.9-1.5-22.4-1.7c-2.4,0-7.7-0.4-15.1-0.5
				c-1.9-0.1-3.9-0.1-6-0.2c-2.1,0-4.4,0-6.8,0c-4.8,0.1-10,0-15.6,0.2c-22.6,0.5-51.4,1.6-81.3,2.2c-29.9,0.8-60.9,0.3-87.5,0.4
				c-26.7,0-49.1-0.1-62-0.1c-12.9-0.1-25-0.2-36.1-0.2c-11.1,0-21.1,0-29.9,0c-17.6,0-30-0.1-35.5-0.2
				C268.5,3.9,265.7,1.6,276.5,0.9z"/>
		</g>
	</g>
	<g>
		<g>
			<g>
				<g>
					<path class="st0" d="M300.9,233.7c0.2-0.3,0.4-0.4,0.8-0.4c0.2,0,0.3,0.1,0.4,0.4c0.1,0.2,0.1,0.4,0.1,0.6
						c0,1.2-0.3,2.4-0.8,3.3c-0.5,1-1,1.8-1.6,2.6c-0.3,0.4-0.7,0.8-1.1,1.2c-0.4,0.4-0.8,0.7-1.2,1c0,0.7-0.1,1.2-0.1,1.4
						c0,0.3,0,0.5-0.1,0.6c-0.1,0.6-0.3,1.4-0.6,2.3c-0.3,0.9-0.8,1.8-1.4,2.7c-0.6,0.9-1.3,1.6-2.1,2.3c-0.8,0.6-1.8,0.9-2.9,0.9
						c-0.4,0-0.8,0-1.2-0.1c-0.5-0.1-0.9-0.2-1.4-0.3c-0.5-0.1-0.9-0.3-1.4-0.5c-0.4-0.2-0.8-0.4-1.1-0.6c-1-0.6-1.8-1.2-2.5-2
						c-0.6-0.8-1.1-1.6-1.5-2.4c-0.3-0.9-0.6-1.7-0.7-2.6c-0.1-0.9-0.2-1.8-0.2-2.6c0-1.4,0.2-2.9,0.5-4.4c0.3-1.5,0.7-2.9,1.1-4.3
						c0.4-1.4,0.9-2.6,1.5-3.7c0.6-1.1,1.1-1.9,1.6-2.5c0.5-0.6,1.1-1,1.8-1.2c0.6-0.2,1.2-0.3,1.7-0.3c0.6,0,1.3,0.2,1.9,0.5
						c0.6,0.3,1.3,0.7,1.9,1.2c0.6,0.5,1.2,1,1.8,1.7c0.6,0.6,1.1,1.2,1.7,1.8c0.4,0.4,0.7,1.2,0.9,2.1c0.2,1,0.4,2,0.5,3
						c0.1,0.6,0.1,1.2,0.2,1.8c0,0.6,0.1,1.3,0.1,2c0.6-0.5,1.1-1,1.4-1.5c0.4-0.5,0.7-1.1,0.9-1.5c0.2-0.5,0.4-0.9,0.5-1.3
						C300.6,234.3,300.7,234,300.9,233.7z M293.7,243.8c-0.5,0.3-1.1,0.6-2,0.7c-0.8,0.2-1.5,0.2-2.1,0.2c-1.1,0-1.9-0.1-2.5-0.2
						c-0.6-0.2-1.2-0.5-1.9-1l-0.1,1.3c0,0.4,0.1,0.9,0.2,1.4c0.1,0.5,0.3,0.9,0.6,1.3c0.3,0.4,0.6,0.7,1.1,1
						c0.5,0.3,1.1,0.4,1.8,0.4c0.9,0,1.6-0.2,2.3-0.5c0.6-0.3,1.1-0.8,1.5-1.3c0.4-0.5,0.7-1.1,0.8-1.7
						C293.7,244.8,293.7,244.3,293.7,243.8z M294,237.8c0-0.6-0.1-1.2-0.1-2c-0.1-0.8-0.2-1.6-0.3-2.4c-0.1-0.8-0.3-1.6-0.6-2.3
						c-0.3-0.7-0.6-1.3-1-1.7c-0.4-0.5-0.9-0.7-1.5-0.7c-0.6,0-1.2,0.2-1.7,0.7c-0.6,0.5-1.1,1.1-1.5,1.9c-0.4,0.8-0.8,1.6-1.1,2.6
						c-0.3,1-0.4,1.9-0.4,2.8c0,1.6,0.3,2.8,1,3.5c0.6,0.7,1.8,1.1,3.3,1.1c1.2,0,2.1-0.2,2.9-0.5c0.7-0.4,1.1-0.6,1.1-0.8v-1.1
						C294.1,238.7,294,238.3,294,237.8z"/>
				</g>
				<path class="st0" d="M339.4,240.1c0,1-0.2,2-0.5,3.2c-0.3,1.2-0.9,2.3-1.6,3.3c-0.7,1-1.7,1.9-2.8,2.6c-1.1,0.7-2.5,1-4,1
					c-1.5,0-2.7-0.3-3.8-0.8c-1-0.5-1.9-1.3-2.5-2.2c-0.7-0.9-1.1-2-1.4-3.2c-0.3-1.2-0.4-2.6-0.4-3.9c0-1.3,0.2-2.8,0.5-4.4
					c0.3-1.6,0.8-3.1,1.4-4.5c0.6-1.4,1.5-2.6,2.5-3.5c1-0.9,2.2-1.4,3.6-1.4c0.7,0,1.3,0.1,1.9,0.4c0.6,0.3,1.1,0.7,1.6,1.1
					c0.5,0.5,0.8,1,1.1,1.6c0.3,0.6,0.4,1.2,0.5,1.9l0.1,0.8c0,0.9-0.2,1.9-0.5,3c-0.3,1.1-0.7,2.1-1.3,3c-0.6,0.9-1.3,1.7-2.1,2.3
					c-0.8,0.6-1.8,0.9-2.9,0.9c-0.2,0-0.4,0-0.7-0.1c-0.3,0-0.6-0.1-0.8-0.2v1.7c0,0.3,0.1,0.6,0.3,1.1c0.2,0.5,0.4,1,0.8,1.5
					c0.3,0.5,0.8,0.9,1.3,1.3c0.6,0.4,1.2,0.5,2,0.5c1.1,0,2-0.2,2.7-0.7c0.7-0.4,1.3-1,1.8-1.7c0.5-0.7,0.8-1.5,1.1-2.3
					c0.2-0.9,0.4-1.7,0.6-2.5c0.1-0.5,0.2-0.9,0.3-1.1c0.1-0.2,0.3-0.3,0.6-0.3c0.6,0,0.9,0.3,0.9,1V240.1z M332.7,231.3
					c0-0.3-0.1-0.6-0.3-1c-0.2-0.3-0.5-0.5-0.9-0.5c-0.7,0-1.3,0.4-1.8,1.1c-0.5,0.7-0.9,1.6-1.2,2.5c-0.3,0.9-0.6,1.8-0.7,2.7
					c-0.2,0.9-0.2,1.4-0.2,1.7v0.2c0,0.3,0,0.6,0.1,0.8c0.1,0.2,0.3,0.3,0.6,0.3h0.3c0.8,0,1.4-0.3,2-0.9c0.5-0.6,1-1.3,1.3-2.1
					c0.3-0.8,0.6-1.6,0.7-2.5c0.1-0.8,0.2-1.5,0.2-2.1V231.3z"/>
				<path class="st0" d="M385.6,250.5c0,0.4-0.2,0.6-0.5,0.8c-0.3,0.2-0.7,0.2-1,0.2l-1.1-0.1c-0.2,0-0.3,0.1-0.3,0.3l-0.1,0.7
					c0,1,0.1,2.3,0.1,3.9c0,1.6,0,3.1,0,4.5c0,1.5,0,3-0.1,4.5c-0.1,1.5-0.3,2.8-0.7,4c-0.3,1.2-0.8,2.1-1.5,2.8
					c-0.6,0.7-1.5,1.1-2.6,1.1c-1,0-2-0.1-3-0.1c-1.1-0.1-2-0.3-2.9-0.7c-0.9-0.4-1.6-0.9-2.1-1.7c-0.6-0.8-0.8-1.8-0.8-3
					c0-1.3,0.1-2.6,0.4-3.9c0.3-1.3,0.7-2.6,1.2-3.8c0.5-1.2,1.2-2.4,1.9-3.5c0.7-1.1,1.6-2.1,2.5-3c0.5-0.5,1-0.9,1.5-1.4
					c0.6-0.5,1.1-0.9,1.5-1.2v-0.1c0.1-0.8,0.1-1.6,0.2-2.4c0-0.8,0.1-1.6,0.1-2.5c-0.2,0.3-0.4,0.8-0.7,1.4c-0.3,0.6-0.6,1.2-1,1.7
					c-0.4,0.5-0.8,1-1.2,1.4c-0.5,0.4-1,0.6-1.6,0.6c-0.3,0-0.6-0.1-0.8-0.2c-0.2-0.1-0.6-0.2-1-0.2c-1.1-0.1-2-0.4-2.7-0.9
					c-0.7-0.5-1.3-1.2-1.7-2.1c-0.4-0.9-0.7-1.9-0.8-3.1c-0.2-1.2-0.2-2.5-0.2-4c0-1.8,0.1-3.6,0.3-5.6c0.2-1.9,0.6-3.7,1.1-5.2
					c0.5-1.6,1.3-2.9,2.2-3.9c0.9-1,2-1.5,3.4-1.5c0.2,0,0.4,0.1,0.6,0.2c0.3,0.1,0.5,0.2,0.8,0.4c0.3,0.1,0.6,0.3,0.9,0.4
					c0.3,0.1,0.5,0.2,0.7,0.3c0.8,0.1,1.5,0.3,2.1,0.6c0.7,0.2,1.2,0.5,1.7,0.9c0.5,0.4,0.8,0.8,1.1,1.4c0.3,0.6,0.4,1.3,0.4,2.2
					c0,0.6,0,1.2-0.1,1.7c-0.1,0.5-0.1,1.1-0.1,1.9c0,0.3,0.1,0.5,0.3,0.6c0.2,0.1,0.5,0.2,0.7,0.3c0.3,0.1,0.5,0.2,0.8,0.3
					c0.2,0.1,0.3,0.3,0.3,0.6c0,0.1-0.1,0.3-0.3,0.5c-0.2,0.3-0.3,0.5-0.3,0.5c-0.1,0.3-0.2,0.8-0.3,1.5c-0.1,0.7-0.1,1.4-0.2,2.2
					c0,0.8-0.1,1.6-0.1,2.4c0,0.8,0,1.6,0,2.2c0,0.5,0,1.2,0,2c0,0.8,0,1.5,0.1,2h0.2c0.1,0,0.2,0,0.2,0c0.1,0,0.1,0,0.2,0
					c0.3,0,0.8,0.1,1.4,0.3C385.3,249.7,385.6,250,385.6,250.5z M378.4,232.8c0-0.4,0-0.9-0.1-1.4c-0.1-0.5-0.2-1-0.4-1.5
					c-0.2-0.5-0.5-0.9-0.8-1.2c-0.4-0.3-0.8-0.5-1.4-0.5c-0.7,0-1.4,0.3-2,0.9c-0.6,0.6-1.2,1.4-1.7,2.4c-0.5,1.1-0.9,2.3-1.2,3.8
					c-0.3,1.5-0.4,3.2-0.4,5.1c0,0.8,0,1.6,0.1,2.5c0.1,0.9,0.1,1.6,0.3,2.3c0.1,0.7,0.3,1.3,0.6,1.7c0.3,0.5,0.7,0.7,1.1,0.7
					c0.8,0,1.5-0.3,2.1-1c0.6-0.7,1.1-1.5,1.5-2.5c0.4-1,0.7-2.1,0.9-3.2c0.2-1.1,0.3-2,0.4-2.8c0-1.1,0.1-1.9,0.2-2.3
					c0.1-0.4,0.2-0.7,0.2-0.8c0.2-0.3,0.4-0.7,0.5-1.1C378.3,233.5,378.4,233.1,378.4,232.8z M378.1,252.6c-0.9,0.6-1.7,1.5-2.5,2.6
					c-0.8,1.1-1.5,2.3-2,3.6c-0.6,1.3-1,2.6-1.4,4c-0.3,1.3-0.5,2.5-0.5,3.6c0,0.4,0,0.8,0.1,1.3c0.1,0.5,0.2,0.9,0.4,1.3
					c0.2,0.4,0.4,0.7,0.8,1c0.3,0.3,0.7,0.4,1.2,0.4c0.8,0,1.5-0.3,2-1c0.5-0.7,0.9-1.5,1.2-2.4c0.3-0.9,0.5-1.9,0.6-2.8
					c0.1-1,0.1-1.7,0.1-2.3c0-0.1,0-0.3,0-0.5c0-0.2,0-0.7,0-1.3c0-0.7,0-1.6,0-2.7C378.1,256.1,378.1,254.6,378.1,252.6z"/>
				<path class="st0" d="M320,250.5c0,0.4-0.2,0.6-0.5,0.8c-0.3,0.2-0.7,0.2-1,0.2l-1.1-0.1c-0.2,0-0.3,0.1-0.3,0.3l-0.1,0.7
					c0,1,0.1,2.3,0.1,3.9c0,1.6,0,3.1,0,4.5c0,1.5,0,3-0.1,4.5c-0.1,1.5-0.3,2.8-0.7,4c-0.3,1.2-0.8,2.1-1.5,2.8
					c-0.6,0.7-1.5,1.1-2.6,1.1c-1,0-2-0.1-3-0.1c-1-0.1-2-0.3-2.9-0.7c-0.9-0.4-1.6-0.9-2.1-1.7c-0.5-0.8-0.8-1.8-0.8-3
					c0-1.3,0.1-2.6,0.4-3.9c0.3-1.3,0.7-2.6,1.2-3.8c0.5-1.2,1.2-2.4,1.9-3.5c0.8-1.1,1.6-2.1,2.5-3c0.5-0.5,1-0.9,1.5-1.4
					c0.6-0.5,1-0.9,1.5-1.2v-0.1c0.1-0.8,0.1-1.6,0.2-2.4c0-0.8,0.1-1.6,0.1-2.5c-0.2,0.3-0.4,0.8-0.7,1.4c-0.3,0.6-0.6,1.2-1,1.7
					c-0.4,0.5-0.8,1-1.2,1.4c-0.5,0.4-1,0.6-1.6,0.6c-0.3,0-0.6-0.1-0.8-0.2c-0.2-0.1-0.6-0.2-1-0.2c-1.1-0.1-2-0.4-2.7-0.9
					c-0.7-0.5-1.3-1.2-1.7-2.1c-0.4-0.9-0.7-1.9-0.8-3.1c-0.2-1.2-0.2-2.5-0.2-4c0-1.8,0.1-3.6,0.3-5.6c0.2-1.9,0.6-3.7,1.1-5.2
					c0.5-1.6,1.3-2.9,2.2-3.9c0.9-1,2-1.5,3.4-1.5c0.2,0,0.4,0.1,0.6,0.2c0.3,0.1,0.5,0.2,0.8,0.4c0.3,0.1,0.6,0.3,0.9,0.4
					c0.3,0.1,0.5,0.2,0.7,0.3c0.8,0.1,1.5,0.3,2.1,0.6c0.7,0.2,1.2,0.5,1.7,0.9c0.5,0.4,0.8,0.8,1.1,1.4c0.3,0.6,0.4,1.3,0.4,2.2
					c0,0.6,0,1.2-0.1,1.7c-0.1,0.5-0.1,1.1-0.1,1.9c0,0.3,0.1,0.5,0.3,0.6c0.2,0.1,0.5,0.2,0.7,0.3c0.3,0.1,0.5,0.2,0.8,0.3
					c0.2,0.1,0.3,0.3,0.3,0.6c0,0.1-0.1,0.3-0.3,0.5c-0.2,0.3-0.3,0.5-0.3,0.5c-0.1,0.3-0.2,0.8-0.3,1.5c-0.1,0.7-0.1,1.4-0.2,2.2
					c0,0.8-0.1,1.6-0.1,2.4c0,0.8,0,1.6,0,2.2c0,0.5,0,1.2,0,2c0,0.8,0,1.5,0.1,2h0.2c0.1,0,0.1,0,0.2,0c0.1,0,0.1,0,0.2,0
					c0.3,0,0.8,0.1,1.4,0.3C319.7,249.7,320,250,320,250.5z M312.7,232.8c0-0.4,0-0.9-0.1-1.4c-0.1-0.5-0.2-1-0.4-1.5
					c-0.2-0.5-0.5-0.9-0.8-1.2c-0.4-0.3-0.8-0.5-1.4-0.5c-0.7,0-1.4,0.3-2,0.9c-0.6,0.6-1.2,1.4-1.7,2.4c-0.5,1.1-0.9,2.3-1.2,3.8
					c-0.3,1.5-0.4,3.2-0.4,5.1c0,0.8,0,1.6,0.1,2.5c0.1,0.9,0.2,1.6,0.3,2.3c0.1,0.7,0.3,1.3,0.6,1.7c0.3,0.5,0.7,0.7,1.1,0.7
					c0.8,0,1.5-0.3,2.1-1c0.6-0.7,1.1-1.5,1.5-2.5c0.4-1,0.7-2.1,0.9-3.2c0.2-1.1,0.3-2,0.4-2.8c0-1.1,0.1-1.9,0.2-2.3
					c0.1-0.4,0.2-0.7,0.2-0.8c0.2-0.3,0.4-0.7,0.5-1.1C312.7,233.5,312.7,233.1,312.7,232.8z M312.5,252.6c-0.9,0.6-1.7,1.5-2.5,2.6
					c-0.8,1.1-1.5,2.3-2.1,3.6c-0.6,1.3-1,2.6-1.4,4c-0.3,1.3-0.5,2.5-0.5,3.6c0,0.4,0,0.8,0.1,1.3c0.1,0.5,0.2,0.9,0.4,1.3
					c0.2,0.4,0.4,0.7,0.7,1c0.3,0.3,0.7,0.4,1.2,0.4c0.8,0,1.5-0.3,2-1c0.5-0.7,0.9-1.5,1.2-2.4c0.3-0.9,0.5-1.9,0.6-2.8
					c0.1-1,0.1-1.7,0.1-2.3c0-0.1,0-0.3,0-0.5c0-0.2,0-0.7,0-1.3c0-0.7,0-1.6,0-2.7C312.5,256.1,312.5,254.6,312.5,252.6z"/>
				<path class="st0" d="M409.3,242.7c-0.1,0.5-0.3,1.2-0.6,1.9c-0.3,0.7-0.7,1.4-1.2,2.1c-0.5,0.7-1,1.2-1.7,1.7
					c-0.6,0.5-1.3,0.7-2.1,0.7c-1.1,0-2.2-0.4-3-1.3c-0.9-0.9-1.4-2.1-1.6-3.7c-0.2,0.6-0.5,1.3-0.8,2.1c-0.3,0.8-0.7,1.6-1.1,2.2
					c-0.5,0.7-1,1.3-1.6,1.7c-0.6,0.5-1.3,0.7-2.1,0.7c-0.2,0-0.4,0-0.5-0.1c-0.1,0-0.2-0.1-0.4-0.1c-0.1-0.1-0.3-0.1-0.5-0.1
					c-0.2,0-0.4-0.1-0.7-0.1c-0.9,0-1.7-0.3-2.3-0.9c-0.6-0.6-1.1-1.3-1.5-2.3c-0.4-0.9-0.7-1.9-0.8-3c-0.2-1.1-0.3-2.1-0.3-3.1
					c0-2.3,0.1-4.5,0.4-6.5s0.7-3.9,1.2-5.5c0.6-1.6,1.3-2.8,2.2-3.8c0.9-0.9,2-1.4,3.3-1.4c0.8,0,1.3,0.1,1.7,0.2
					c0.4,0.1,0.8,0.3,1.1,0.5c0.3,0.2,0.7,0.3,1.1,0.5c0.4,0.2,1,0.3,1.7,0.5c0.8,0.5,1.4,1,1.7,1.6c0.3,0.6,0.5,1.3,0.6,2
					c0.1,0.7,0.1,1.5,0.1,2.3c0,0.8,0,1.6,0.1,2.3c0,0,0.1,0.1,0.3,0.2c0.2,0.1,0.4,0.2,0.6,0.3c0.2,0.1,0.4,0.2,0.6,0.4
					c0.2,0.2,0.3,0.4,0.3,0.7v0.2c-0.4,1-0.6,1.9-0.7,2.6c-0.1,0.8-0.1,1.7-0.1,2.8c0,0.5,0,1.1,0.1,1.7c0.1,0.6,0.2,1.2,0.3,1.8
					c0.1,0.6,0.3,1,0.6,1.4c0.3,0.4,0.6,0.5,1,0.5c0.5,0,0.9-0.2,1.2-0.7c0.4-0.5,0.7-1,0.9-1.6c0.3-0.6,0.5-1.2,0.6-1.8
					c0.2-0.6,0.3-1.1,0.3-1.4c0.1-0.5,0.3-0.7,0.6-0.7c0.2,0,0.4,0.1,0.5,0.3c0.2,0.2,0.3,0.6,0.3,1.1c0,0.2,0,0.3,0,0.4
					C409.4,242.4,409.3,242.5,409.3,242.7z M398.7,233.4c0-0.4,0-0.9-0.1-1.5c-0.1-0.6-0.2-1.1-0.4-1.6c-0.2-0.5-0.5-0.9-0.9-1.3
					c-0.4-0.3-0.9-0.5-1.5-0.5c-1.1,0-1.9,0.5-2.6,1.5c-0.7,1-1.2,2.1-1.6,3.4c-0.4,1.3-0.6,2.7-0.7,4.1c-0.1,1.4-0.2,2.5-0.2,3.3
					c0,0.6,0,1.3,0.1,2.2c0.1,0.9,0.2,1.7,0.3,2.4c0.2,0.8,0.4,1.4,0.7,1.9c0.3,0.5,0.7,0.8,1.1,0.8c1.1,0,2-0.4,2.5-1.3
					c0.6-0.9,1-1.9,1.3-3.2c0.3-1.3,0.5-2.7,0.7-4.1c0.1-1.5,0.3-2.8,0.4-4c0.1-0.6,0.2-1.1,0.5-1.2c0.3-0.2,0.4-0.3,0.4-0.4V233.4z
					"/>
				<g>
					<path class="st0" d="M367.6,234.6c-0.2,0-0.4,0.1-0.6,0.3c-0.2,0.2-0.3,0.5-0.4,1.1c-0.2,1.4-0.4,2.8-0.6,4.1
						c-0.2,1.3-0.5,2.4-0.7,3.4c-0.3,1-0.6,1.7-1,2.3c-0.4,0.6-0.9,0.9-1.5,0.9c-0.4,0-0.7-0.1-1-0.3c-0.2-0.2-0.4-0.5-0.6-0.9
						c-0.2-0.3-0.3-0.7-0.4-1.1c-0.1-0.4-0.3-0.7-0.5-1c-0.2-0.3-0.4-0.6-0.6-0.9c-1.5-1.7-5-2.8-5-2.8c-0.4,0-0.6,0-0.7-0.1
						c-0.1-0.1-0.1-0.2-0.1-0.4c0-1.3,0.1-2.5,0.4-3.9c0.3-1.3,0.7-2.5,1.1-3.6c0.5-1.1,1-1.9,1.6-2.6c0.6-0.7,1.2-1,1.9-1
						c0.4,0,0.7,0.3,0.8,0.9c0,0.1,1.8,3.6,1.8,3.7c5.6-2.3,0.2-7.5,0.2-7.5c-0.5-0.5-1.2-0.8-2-0.8c-0.8,0-1.4,0.3-2.1,0.9
						c-0.6,0.6-1.1,1.2-1.6,2c-0.5,0.7-0.9,1.5-1.2,2.3c-0.3,0.8-0.6,1.3-0.7,1.7c0-1.5,0-3.2,0.1-5c0-0.4,0-0.7,0-1.1
						c-0.1,0-0.2,0-0.3,0c-0.9-0.5-3.6,0-4.6,0.2V248c0,1.1,0.2,1.7,0.5,1.9c0.4,0.2,1.1,0.3,2.3,0.3c0.2,0,0.5,0,1-0.1
						c0.5-0.1,0.8-0.1,1-0.2c-0.2-0.7-0.3-1.4-0.4-2.2c-0.1-0.8-0.1-1.5-0.1-2.1v-3.4h0.7c0.7,0,1.2,0.2,1.5,0.5
						c0.4,0.3,0.7,0.8,1,1.3c0.3,0.5,0.5,1.1,0.8,1.7c0.3,0.6,0.6,1.2,0.9,1.7c0.4,0.5,0.8,1,1.4,1.3c0.6,0.3,1.3,0.5,2.3,0.5
						c0.9,0,1.7-0.3,2.3-0.9c0.6-0.6,1.2-1.3,1.6-2.2c0.4-0.8,0.8-1.7,1-2.7c0.2-1,0.4-1.8,0.6-2.5c0.2-1.3,0.3-2.4,0.5-3.3
						c0.1-0.9,0.2-1.6,0.2-1.9C368.6,235,368.3,234.6,367.6,234.6z"/>
					<path class="st0" d="M339.6,243.4c0.3,1,0.6,1.7,1,2.3c0.4,0.6,0.8,0.9,1.4,0.9c0.4,0,0.7-0.1,0.9-0.3c0.2-0.2,0.4-0.5,0.5-0.9
						c0.1-0.3,0.3-0.7,0.4-1.1c0.1-0.4,0.2-0.7,0.4-1c0.2-0.3,0.3-0.6,0.5-0.9c1.4-1.7,4.7-2.8,4.7-2.8c0.4,0,0.6,0,0.6-0.1
						c0.1-0.1,0.1-0.2,0.1-0.4c0-1.3-0.1-2.5-0.4-3.9c-0.3-1.3-0.6-2.5-1.1-3.6c-0.4-1.1-1-1.9-1.5-2.6c-0.6-0.7-1.2-1-1.8-1
						c-0.4,0-0.7,0.3-0.8,0.9c0,0.1-1.7,3.6-1.7,3.7c-5.2-2.3-0.2-7.5-0.2-7.5c0.4-0.5,1.1-0.8,1.9-0.8c0.7,0,1.4,0.3,1.9,0.9
						c0.6,0.6,1.1,1.2,1.5,2c0.4,0.7,0.8,1.5,1.1,2.3c0.3,0.8,0.5,1.3,0.7,1.7c0-1.5,0-3.2-0.1-5c0-0.4,0-0.7,0-1.1
						c0.1,0,0.2,0,0.3,0c0.9-0.5,3.3,0,4.3,0.2V248c0,1.1-0.2,1.7-0.5,1.9c-0.3,0.2-1,0.3-2.1,0.3c-0.2,0-0.5,0-0.9-0.1
						c-0.4-0.1-0.7-0.1-0.9-0.2c0.1-0.7,0.3-1.4,0.3-2.2c0.1-0.8,0.1-1.5,0.1-2.1v-3.4h-0.7c-0.6,0-1.1,0.2-1.4,0.5
						c-0.4,0.3-0.7,0.8-0.9,1.3c-0.2,0.5-0.5,1.1-0.7,1.7c-0.2,0.6-0.5,1.2-0.9,1.7c-0.3,0.5-0.8,1-1.3,1.3
						c-0.6,0.3-1.3,0.5-2.1,0.5c-0.9,0-1.6-0.3-2.2-0.9c-0.6-0.6-1.1-1.3-1.5-2.2c-0.4-0.8-0.7-1.7-0.9-2.7"/>
				</g>
			</g>
			<g>
				<path class="st0" d="M413.7,262.5c0,0-46.8-1.1-67.5,0.9c-20.7,2.1-48.3-3.8-56.9-0.8c-8.6,3-13.9,3.2-13.9,3.2"/>
				<path class="st1" d="M411.4,264.2c0,0-4.6-0.7-14.3-1.4c-4.8-0.4-11-0.7-18.4-0.8c-3.8-0.1-7.8-0.1-12.2-0.2
					c-4.4,0.1-9.2,0.3-14.3,0.6c-20.3,2-37.5-0.6-50.1-1c-3.1-0.1-6-0.1-8.5,0.1c-2.6,0.2-4.7,1-6.4,1.6c-3.5,1.3-5.7,1.8-6.5,2
					c-1.4,0.5-3,0.4-4,0.1c-1-0.3-1.5-0.8-1.1-1c0.7-0.4,4.5,0.8,10.4-1.5c0.4-0.1,1-0.3,1.7-0.6c0.4-0.1,0.8-0.3,1.3-0.4
					c0.6-0.2,1.2-0.3,1.8-0.5c2.6-0.5,5.9-0.6,9.7-0.5c7.6,0.2,17.1,1.2,26.9,1.7c4.9,0.2,9.9,0.3,14.8,0.1
					c4.8-0.4,9.7-0.6,14.1-0.8c8.9-0.6,16.3-0.5,20.6-0.5c4.3,0,8.3,0,12,0.1c3.7,0.1,7,0.2,9.9,0.3c5.8,0.2,10,0.4,11.8,0.6
					C414.1,262.3,415,263.9,411.4,264.2z"/>
			</g>
		</g>
		<g>
			<g>
				<path class="st0" d="M605.5,236.2c0,0.1,0.1,0.4,0.2,0.9c0.1,0.5,0.3,1.1,0.6,1.8c0.2,0.7,0.5,1.5,0.9,2.3
					c0.3,0.8,0.7,1.6,1.1,2.3c0.4,0.7,0.9,1.3,1.3,1.7c0.5,0.5,0.9,0.7,1.4,0.7c0.8,0,1.4-0.2,1.9-0.6c0.5-0.4,1-1,1.3-1.6
					c0.4-0.7,0.6-1.4,0.9-2.2c0.2-0.8,0.4-1.5,0.5-2.3c0.1-0.3,0.2-0.6,0.3-0.9c0.1-0.2,0.3-0.3,0.5-0.3c0.3,0,0.5,0.1,0.6,0.2
					c0.2,0.2,0.3,0.3,0.3,0.6c0.1,0.2,0.1,0.5,0.1,0.7c0,0.3,0,0.5,0,0.7v0.2c0,0.4-0.2,1-0.4,2c-0.2,0.9-0.6,1.9-1.2,2.9
					c-0.6,1-1.3,1.8-2.3,2.6c-1,0.7-2.2,1.1-3.7,1.2h-0.1c-2,0-3.6-0.6-4.8-1.9c-1.2-1.3-2.3-3.4-3.3-6.3c-0.1,0-0.5,0.5-1,1.4
					c-0.6,0.9-1.2,2-1.8,3.1c-0.6,1.2-1.2,2.4-1.8,3.5c-0.5,1.2-0.8,2-0.8,2.6v0.1c0,0.1,0.1,0.3,0.3,0.3c0,0.2-0.2,0.3-0.4,0.4
					c-0.2,0.1-0.5,0.1-0.7,0.1c0,0-0.2,0-0.5-0.1c-0.3,0-0.7-0.1-1-0.2c-0.3-0.1-0.7-0.3-0.9-0.4c-0.3-0.2-0.4-0.4-0.4-0.7l7.8-14.2
					c0-0.2-0.1-0.8-0.2-1.6c-0.1-0.8-0.3-1.7-0.6-2.6c-0.2-0.9-0.6-1.7-0.9-2.5c-0.4-0.7-0.8-1.1-1.3-1.1c-0.6,0-1.1,0.2-1.5,0.6
					c-0.4,0.4-0.7,0.9-1,1.5c-0.3,0.6-0.5,1.1-0.6,1.7c-0.1,0.6-0.2,1-0.3,1.2c-0.2,0.3-0.5,0.7-1.1,1.2c-0.6,0.4-1.1,0.7-1.5,0.7
					c-0.4,0-0.6-0.2-0.6-0.6c0-0.9,0.3-1.9,1-3.2c0.7-1.2,1.5-2.4,2.4-3.6c1-1.1,2-2.1,3.1-2.9c1.1-0.8,2.1-1.2,3-1.2
					c0.8,0,1.5,0.3,2,0.9c0.5,0.6,0.9,1.3,1.3,2.1c0.3,0.8,0.6,1.6,0.8,2.5c0.2,0.8,0.3,1.5,0.4,2.1c0.2-0.2,0.4-0.5,0.9-0.9
					c0.4-0.5,1-1.1,1.5-1.7c0.6-0.7,1.2-1.4,1.9-2.1c0.7-0.7,1.4-1.4,2-2.1c0.6-0.6,1.2-1.1,1.7-1.5c0.5-0.4,0.9-0.6,1.1-0.6
					c0.6,0,1.2,0.2,1.9,0.6c0.7,0.4,1,1,1,1.7c0,0.2-0.1,0.3-0.3,0.3c-0.1,0-0.2,0-0.3-0.1c-0.1-0.1-0.2-0.1-0.4-0.1
					c-0.2,0-0.5,0.1-0.9,0.3c-0.3,0.2-0.8,0.6-1.5,1.3c-0.5,0.5-1.1,1.2-2,2.2c-0.9,1-1.7,1.9-2.5,2.9c-0.8,1-1.6,1.8-2.2,2.6
					C605.8,235.7,605.5,236.1,605.5,236.2z"/>
				<path class="st0" d="M638.5,242.7c-0.1,0.5-0.3,1.2-0.6,1.9c-0.3,0.7-0.7,1.4-1.2,2.1c-0.5,0.7-1,1.2-1.7,1.7
					c-0.6,0.5-1.3,0.7-2.1,0.7c-1.1,0-2.1-0.4-3-1.3c-0.9-0.9-1.4-2.1-1.6-3.7c-0.2,0.6-0.5,1.3-0.8,2.1c-0.3,0.8-0.7,1.6-1.1,2.2
					c-0.5,0.7-1,1.3-1.6,1.7c-0.6,0.5-1.3,0.7-2.1,0.7c-0.2,0-0.4,0-0.5-0.1c-0.1,0-0.2-0.1-0.4-0.1c-0.1-0.1-0.3-0.1-0.5-0.1
					c-0.2,0-0.4-0.1-0.7-0.1c-0.9,0-1.7-0.3-2.3-0.9c-0.6-0.6-1.1-1.3-1.5-2.3c-0.4-0.9-0.7-1.9-0.8-3c-0.2-1.1-0.3-2.1-0.3-3.1
					c0-2.3,0.1-4.5,0.4-6.5c0.2-2.1,0.7-3.9,1.2-5.5c0.6-1.6,1.3-2.8,2.2-3.8c0.9-0.9,2-1.4,3.3-1.4c0.8,0,1.3,0.1,1.7,0.2
					c0.4,0.1,0.8,0.3,1.1,0.5c0.3,0.2,0.7,0.3,1.1,0.5c0.4,0.2,1,0.3,1.7,0.5c0.8,0.5,1.4,1,1.7,1.6c0.3,0.6,0.5,1.3,0.6,2
					c0.1,0.7,0.1,1.5,0.1,2.3c0,0.8,0,1.6,0.1,2.3c0,0,0.1,0.1,0.3,0.2c0.2,0.1,0.4,0.2,0.6,0.3c0.2,0.1,0.4,0.2,0.6,0.4
					c0.2,0.2,0.3,0.4,0.3,0.7v0.2c-0.4,1-0.6,1.9-0.7,2.6c-0.1,0.8-0.1,1.7-0.1,2.8c0,0.5,0,1.1,0.1,1.7c0.1,0.6,0.2,1.2,0.3,1.8
					c0.1,0.6,0.3,1,0.6,1.4c0.3,0.4,0.6,0.5,1,0.5c0.5,0,0.9-0.2,1.2-0.7c0.4-0.5,0.7-1,0.9-1.6c0.3-0.6,0.5-1.2,0.6-1.8
					c0.2-0.6,0.3-1.1,0.3-1.4c0.1-0.5,0.3-0.7,0.6-0.7c0.2,0,0.4,0.1,0.5,0.3c0.2,0.2,0.3,0.6,0.3,1.1c0,0.2,0,0.3,0,0.4
					C638.5,242.4,638.5,242.5,638.5,242.7z M627.9,233.4c0-0.4,0-0.9-0.1-1.5c-0.1-0.6-0.2-1.1-0.4-1.6c-0.2-0.5-0.5-0.9-0.9-1.3
					c-0.4-0.3-0.9-0.5-1.5-0.5c-1.1,0-1.9,0.5-2.6,1.5c-0.7,1-1.2,2.1-1.6,3.4c-0.4,1.3-0.6,2.7-0.7,4.1c-0.1,1.4-0.2,2.5-0.2,3.3
					c0,0.6,0,1.3,0.1,2.2c0.1,0.9,0.2,1.7,0.3,2.4c0.2,0.8,0.4,1.4,0.7,1.9c0.3,0.5,0.7,0.8,1.1,0.8c1.1,0,2-0.4,2.5-1.3
					c0.6-0.9,1-1.9,1.4-3.2c0.3-1.3,0.5-2.7,0.7-4.1c0.1-1.5,0.3-2.8,0.4-4c0.1-0.6,0.3-1.1,0.5-1.2c0.3-0.2,0.4-0.3,0.4-0.4V233.4z
					"/>
				<path class="st0" d="M669.8,246.3c-0.8-0.8-1.4-1.9-1.9-3.5c-0.1,0.2-0.3,0.7-0.4,1.5c-0.2,0.8-0.4,1.6-0.8,2.4
					c-0.3,0.8-0.8,1.6-1.3,2.2c-0.6,0.7-1.2,1-2.1,1c-2.4,0-4.1-0.7-5-2.1c-0.9-1.4-1.5-3.5-1.6-6.2v-13.8c0.1-0.3,0.1-0.5,0.1-0.6
					c0-0.1,0.2-0.2,0.5-0.2c0.2,0,0.5,0,1,0.1c0.5,0.1,1,0.2,1.5,0.3c0.5,0.1,0.9,0.3,1.3,0.5c0.4,0.2,0.6,0.5,0.6,0.8v10.1
					c0,0.7,0,1.5,0,2.3c0,0.8,0.1,1.6,0.2,2.3c0.1,0.7,0.3,1.3,0.5,1.8c0.2,0.5,0.6,0.7,1,0.7c1.1,0,2-1.1,2.6-3.4
					c0.6-2.2,1-5.8,1-10.6c0-0.3-0.1-0.6-0.2-0.9c-0.2-0.3-0.2-0.7-0.2-1.1c0.1-0.3,0.4-0.5,0.9-0.6c0.6-0.1,1.1-0.1,1.5-0.1
					c1.1,0,2,0.1,2.5,0.3c0.5,0.2,0.8,0.9,0.8,2.1c-0.1,0.7-0.1,1.2-0.2,1.6c-0.1,0.4-0.1,0.8-0.1,1.1c0,0.3,0,0.7-0.1,1
					c0,0.4,0,0.9,0,1.6c0,0.9,0,1.8,0.1,2.8c0.1,1,0.2,1.8,0.4,2.6c0.2,0.8,0.4,1.5,0.7,2c0.3,0.5,0.7,0.8,1.1,0.8
					c0.4,0,0.7-0.1,1-0.4c0.2-0.2,0.4-0.5,0.6-0.8c0.2-0.3,0.4-0.6,0.6-0.8c0.2-0.2,0.5-0.4,0.8-0.4c0.3,0,0.5,0.1,0.7,0.3
					c0.2,0.2,0.2,0.4,0.2,0.6c0,0.7-0.2,1.3-0.5,1.8c-0.4,0.5-0.8,0.9-1.3,1.2c-0.5,0.3-1,0.5-1.6,0.7c-0.5,0.1-1,0.2-1.3,0.2
					c-0.6,0-1.2-0.1-1.7-0.2c-0.5-0.2-0.9-0.4-1.4-0.7L669.8,246.3z"/>
				<path class="st0" d="M656.3,234.6c-0.2,0-0.4,0.1-0.6,0.3c-0.2,0.2-0.3,0.5-0.4,1.1c-0.2,1.4-0.4,2.8-0.6,4.1
					c-0.2,1.3-0.5,2.4-0.7,3.4c-0.3,1-0.6,1.7-1,2.3c-0.4,0.6-0.9,0.9-1.5,0.9c-0.4,0-0.7-0.1-1-0.3c-0.2-0.2-0.4-0.5-0.6-0.9
					c-0.2-0.3-0.3-0.7-0.4-1.1c-0.1-0.4-0.3-0.7-0.5-1c-0.2-0.3-0.4-0.6-0.6-0.9c-1.5-1.7-5-2.8-5-2.8c-0.4,0-0.6,0-0.7-0.1
					c-0.1-0.1-0.1-0.2-0.1-0.4c0-1.3,0.1-2.5,0.4-3.9c0.3-1.3,0.7-2.5,1.1-3.6c0.5-1.1,1-1.9,1.6-2.6c0.6-0.7,1.2-1,1.9-1
					c0.4,0,0.7,0.3,0.8,0.9c0,0.1,1.8,3.6,1.8,3.7c5.6-2.3,0.2-7.5,0.2-7.5c-0.5-0.5-1.2-0.8-2-0.8c-0.8,0-1.5,0.3-2.1,0.9
					c-0.6,0.6-1.1,1.2-1.6,2c-0.5,0.7-0.9,1.5-1.2,2.3c-0.3,0.8-0.6,1.3-0.7,1.7c0-1.5,0-3.2,0.1-5c0-0.4,0-0.7,0-1.1
					c-0.1,0-0.2,0-0.3,0c-0.9-0.5-3.6,0-4.6,0.2V248c0,1.1,0.2,1.7,0.5,1.9c0.4,0.2,1.1,0.3,2.3,0.3c0.2,0,0.5,0,1-0.1
					c0.5-0.1,0.8-0.1,1-0.2c-0.2-0.7-0.3-1.4-0.4-2.2c-0.1-0.8-0.1-1.5-0.1-2.1v-3.4h0.7c0.6,0,1.2,0.2,1.5,0.5
					c0.4,0.3,0.7,0.8,1,1.3c0.3,0.5,0.5,1.1,0.8,1.7c0.2,0.6,0.6,1.2,0.9,1.7c0.4,0.5,0.8,1,1.4,1.3c0.6,0.3,1.3,0.5,2.3,0.5
					c0.9,0,1.7-0.3,2.3-0.9c0.6-0.6,1.2-1.3,1.6-2.2c0.4-0.8,0.8-1.7,1-2.7c0.2-1,0.4-1.8,0.6-2.5c0.2-1.3,0.3-2.4,0.5-3.3
					c0.1-0.9,0.2-1.6,0.2-1.9C657.3,235,656.9,234.6,656.3,234.6z"/>
			</g>
			<g>
				<path class="st1" d="M548.5,263.3l0.2,0C548.7,263.3,548.6,263.3,548.5,263.3c-0.1-0.2-0.3-0.3-0.5-0.4
					c-0.4-0.1-1.2-0.3-2.5-0.4c-0.6-0.1-1.3-0.1-2.1-0.2c-0.8,0-1.6,0-2.5-0.1c-0.9,0-2.5-0.1-4.3,0.3c-0.1,0-0.3,0-0.4,0.1
					c0,0.2,0,0.3-0.1,0.4c0.9-0.1,1.8-0.3,2.6-0.3c0.9,0,1.8,0.1,2.6,0.1c0.7,0,1.3,0.1,1.8,0.2c-2.3,0-5,0.1-7.1,0.5
					c0,0.3-0.1,0.5-0.1,0.8l9.5-0.8c1.8,0.4,2.7,0.9,2.7,0.9C548.7,264.2,548.8,263.7,548.5,263.3z"/>
				<g>
					<path class="st0" d="M508.1,262.8c0,0-19.6-0.8-28.2,0.6c-8.6,1.4-20.2-2.7-23.8-0.6c-3.6,2.1-5.8,2.2-5.8,2.2"/>
					<path class="st1" d="M507.1,263.9c0,0-1.9-0.5-6-1c-2-0.2-4.6-0.5-7.7-0.6c-1.6,0-3.3-0.1-5.1-0.1c-1.9,0-3.8,0.2-6,0.4
						c-8.5,1.4-15.7-0.4-20.9-0.7c-1.3-0.1-2.5-0.1-3.6,0.1c-1.1,0.2-2,0.7-2.7,1.1c-1.5,0.9-2.4,1.2-2.7,1.4
						c-0.6,0.4-1.3,0.3-1.7,0.1c-0.4-0.2-0.6-0.6-0.5-0.7c0.3-0.3,1.9,0.5,4.3-1c0.2-0.1,0.4-0.2,0.7-0.4c0.2-0.1,0.4-0.2,0.6-0.3
						c0.2-0.1,0.5-0.2,0.8-0.3c1.1-0.4,2.5-0.4,4.1-0.4c3.2,0.1,7.1,0.8,11.3,1.2c2.1,0.2,4.2,0.2,6.2,0c2-0.3,4-0.4,5.9-0.6
						c3.7-0.4,6.8-0.3,8.6-0.3c1.8,0,3.5,0,5,0.1c1.5,0.1,2.9,0.2,4.2,0.2c2.4,0.1,4.2,0.3,4.9,0.4
						C508.3,262.6,508.6,263.7,507.1,263.9z"/>
				</g>
			</g>
			<g>
				<path class="st0" d="M682.3,262.8c0,0-32.5-0.8-46.9,0.6c-14.4,1.4-33.5-2.7-39.5-0.6c-6,2.1-9.7,2.2-9.7,2.2"/>
				<path class="st1" d="M680.7,263.9c0,0-3.2-0.5-9.9-1c-3.4-0.2-7.6-0.5-12.8-0.6c-2.6,0-5.4-0.1-8.5-0.1c-3.1,0-6.4,0.2-9.9,0.4
					c-14.1,1.4-26.1-0.4-34.8-0.7c-2.2-0.1-4.2-0.1-5.9,0.1c-1.8,0.2-3.3,0.7-4.5,1.1c-2.4,0.9-4,1.2-4.5,1.4
					c-1,0.4-2.1,0.3-2.8,0.1c-0.7-0.2-1-0.6-0.8-0.7c0.5-0.3,3.1,0.5,7.2-1c0.3-0.1,0.7-0.2,1.2-0.4c0.3-0.1,0.6-0.2,0.9-0.3
					c0.4-0.1,0.8-0.2,1.3-0.3c1.8-0.4,4.1-0.4,6.7-0.4c5.3,0.1,11.9,0.8,18.7,1.2c3.4,0.2,6.9,0.2,10.3,0c3.3-0.3,6.7-0.4,9.8-0.6
					c6.2-0.4,11.3-0.3,14.3-0.3c3,0,5.8,0,8.3,0.1c2.5,0.1,4.9,0.2,6.9,0.2c4,0.1,6.9,0.3,8.2,0.4
					C682.6,262.6,683.2,263.7,680.7,263.9z"/>
			</g>
			<path class="st0" d="M546.6,243.2c-0.2-0.2-0.4-0.3-0.7-0.3c-0.3,0-0.6,0.1-0.8,0.4c-0.2,0.3-0.4,0.5-0.6,0.8
				c-0.2,0.3-0.4,0.6-0.6,0.8c-0.2,0.3-0.6,0.4-1,0.4c-0.5,0-0.8-0.3-1.1-0.8c-0.3-0.5-0.5-1.2-0.7-2c-0.2-0.8-0.3-1.7-0.4-2.6
				c-0.1-1-0.1-1.9-0.1-2.8c0-0.7,0-1.2,0-1.6c0-0.4,0-0.7,0.1-1c0-0.3,0.1-0.7,0.1-1.1c0.1-0.4,0.1-1,0.2-1.6
				c0-1.1-0.3-1.8-0.8-2.1c-0.5-0.2-1.4-0.3-2.5-0.3c-0.5,0-1,0-1.5,0.1c-0.6,0.1-0.9,0.3-0.9,0.6c0,0.4,0.1,0.8,0.2,1.1
				c0.2,0.3,0.2,0.6,0.2,0.9c-0.1,4.8-0.4,8.3-1,10.6c-0.6,2.2-1.5,3.4-2.6,3.4c-0.4,0-0.7-0.2-1-0.7c-0.2-0.5-0.4-1.1-0.5-1.8
				c-0.1-0.7-0.2-1.5-0.2-2.3c0-0.8,0-1.6,0-2.3v-10.1c0-0.3-0.2-0.6-0.6-0.8c-0.4-0.2-0.8-0.4-1.3-0.5c-0.5-0.1-1-0.2-1.5-0.3
				c-0.5-0.1-0.8-0.1-1-0.1c-0.3,0-0.5,0.1-0.5,0.2c0,0.1-0.1,0.3-0.1,0.6v7c-0.1-0.1-0.3-0.2-0.6-0.2c-0.2,0-0.4,0.1-0.6,0.3
				c-0.2,0.2-0.3,0.5-0.4,1.1c-0.2,1.4-0.4,2.8-0.6,4.1c-0.2,1.3-0.5,2.4-0.7,3.4c0,0.1,0,0.1-0.1,0.2c0.1,1.4,0.2,2.8,0.2,4.2
				c0.3-0.4,0.7-0.9,0.9-1.4c0.4-0.8,0.8-1.7,1-2.7c0.2-1,0.4-1.8,0.6-2.5c0.1-0.5,0.2-1,0.2-1.5v2c0.2,2.7,0.7,4.8,1.6,6.2
				c0.9,1.4,2.6,2.1,5,2.1c0.8,0,1.5-0.3,2.1-1c0.6-0.7,1-1.4,1.3-2.2c0.3-0.8,0.6-1.6,0.8-2.4c0.2-0.8,0.3-1.3,0.4-1.5
				c0.5,1.6,1.1,2.7,1.9,3.5l0.5,0.5c0.5,0.3,0.9,0.5,1.4,0.7c0.5,0.2,1,0.2,1.7,0.2c0.3,0,0.8-0.1,1.3-0.2c0.5-0.1,1.1-0.3,1.6-0.7
				c0.5-0.3,1-0.7,1.3-1.2c0.4-0.5,0.5-1.1,0.5-1.8C546.8,243.6,546.7,243.4,546.6,243.2z M519.1,225c-0.5-0.5-1.2-0.8-2-0.8
				c-0.8,0-1.5,0.3-2.1,0.9c-0.6,0.6-1.1,1.2-1.6,2c-0.5,0.7-0.8,1.5-1.2,2.3c-0.3,0.8-0.6,1.3-0.7,1.7c0-1.5,0-3.2,0.1-5
				c0-0.4,0-0.7,0.1-1.1c-0.1,0-0.2,0-0.3,0c-0.9-0.5-3.6,0-4.6,0.2V248c0,1.1,0.2,1.7,0.5,1.9c0.4,0.2,1.1,0.3,2.3,0.3
				c0.2,0,0.5,0,1-0.1c0.5-0.1,0.8-0.1,1-0.2c-0.2-0.7-0.3-1.4-0.4-2.2c-0.1-0.8-0.1-1.5-0.1-2.1v-3.4h0.7c0.6,0,1.2,0.2,1.5,0.5
				c0.4,0.3,0.7,0.8,1,1.3c0.3,0.5,0.5,1.1,0.8,1.7c0,0.1,0.1,0.2,0.2,0.3c0.2-1.6,0.4-3.2,0.6-4.7c-1.7-1.1-3.8-1.8-3.8-1.8
				c-0.4,0-0.6,0-0.7-0.1c-0.1-0.1-0.1-0.2-0.1-0.4c0-1.3,0.1-2.5,0.4-3.9c0.3-1.3,0.7-2.5,1.1-3.6c0.5-1.1,1-1.9,1.6-2.6
				c0.6-0.7,1.2-1,1.9-1c0.4,0,0.7,0.3,0.8,0.9c0,0.1,1.4,2.8,1.8,3.5c0.2-0.1,0.3-0.1,0.5,0C524.1,229.9,519.1,225,519.1,225z
				 M503.7,230.2c-0.5-1.2-1.1-2.2-1.9-3c-0.8-0.8-1.8-1.2-3-1.2c-1,0-1.9,0.3-2.5,1c-0.6,0.6-1.2,1.4-1.6,2.2
				c-0.4,0.9-0.7,1.7-0.9,2.6c-0.2,0.9-0.4,1.6-0.7,2.1v-8c0-1.2-0.2-2-0.5-2.5c-0.4-0.4-0.9-0.6-1.5-0.6c0,0-0.2,0-0.4,0.1
				c-0.2,0.1-0.5,0.2-0.8,0.3c-0.3,0.1-0.5,0.2-0.7,0.3c-0.2,0.1-0.3,0.2-0.3,0.3c0,0.1,0.1,0.2,0.1,0.4c0,0.1,0.1,0.3,0.1,0.4
				c0.1,0.5,0.2,1.1,0.2,1.8v14.3c0,0.1-0.1,0.2-0.1,0.3c0,0.3-0.1,0.8-0.3,1.4c-0.2,0.6-0.4,1.2-0.6,1.8c-0.2,0.6-0.6,1.1-0.9,1.6
				c-0.4,0.5-0.8,0.7-1.2,0.7c-0.4,0-0.8-0.2-1-0.5c-0.3-0.4-0.5-0.8-0.6-1.4c-0.1-0.6-0.2-1.1-0.3-1.8c-0.1-0.6-0.1-1.2-0.1-1.7
				c0-1.1,0-2,0.1-2.8c0.1-0.8,0.3-1.6,0.7-2.6v-0.2c0-0.3-0.1-0.5-0.3-0.7c-0.2-0.2-0.4-0.3-0.6-0.4c-0.2-0.1-0.4-0.2-0.6-0.3
				c-0.2-0.1-0.3-0.1-0.3-0.2c-0.1-0.8-0.2-1.5-0.1-2.3c0-0.8,0-1.5-0.1-2.3c-0.1-0.7-0.3-1.4-0.6-2c-0.3-0.6-0.9-1.2-1.7-1.6
				c-0.7-0.1-1.3-0.3-1.7-0.5c-0.4-0.2-0.8-0.4-1.1-0.5c-0.3-0.2-0.7-0.3-1.1-0.5c-0.4-0.1-1-0.2-1.8-0.2c-1.3,0-2.4,0.5-3.3,1.4
				c-0.9,0.9-1.7,2.2-2.2,3.8c-0.6,1.6-1,3.4-1.2,5.5c-0.2,1.3-0.2,2.7-0.3,4.1c-0.1,0.2-0.2,0.4-0.2,0.8c0,0.6-0.2,1.2-0.3,1.8
				c-0.2,0.7-0.4,1.3-0.7,1.8c-0.3,0.6-0.6,1.1-0.9,1.4c-0.3,0.4-0.7,0.6-1.1,0.6c-0.6,0-1-0.4-1.1-1.2c-0.2-0.8-0.3-1.7-0.3-2.7
				c0-1.8,0-3.1,0.1-4c0.1-0.9,0.1-1.5,0.1-1.9c0-0.5,0-1.1-0.1-1.7c0-0.6-0.2-1.1-0.3-1.6c-0.2-0.5-0.5-0.9-0.8-1.2
				c-0.4-0.3-0.9-0.5-1.6-0.5c-0.5,0-1.1,0.3-1.6,1c-0.5,0.6-1,1.4-1.5,2.3c-0.5,0.9-0.9,1.9-1.3,2.9c-0.4,1-0.7,1.9-1,2.6
				c-0.1,0.3-0.1,0.4-0.2,0.5v-11.6c0-0.2-0.1-0.4-0.4-0.6c-0.3-0.2-0.6-0.3-1-0.4c-0.4-0.1-0.7-0.2-1.1-0.3
				c-0.3-0.1-0.6-0.1-0.8-0.1c-0.5,0-0.8,0.2-0.8,0.7l-0.7,17c0.1,1,0.2,1.8,0.3,2.4c0.1,0.6,0.3,1,0.5,1.3c0.2,0.3,0.6,0.5,1,0.5
				c0.4,0.1,1,0.1,1.7,0.1c0.2,0,0.6,0,1.1-0.1c0.5-0.1,0.8-0.2,0.9-0.5c0.2-1,0.4-2,0.5-3c0.2-1,0.4-2.1,0.7-3.1
				c0.3-1,0.6-2.1,0.9-3c0.4-1,0.8-1.9,1.4-2.7l-0.1,4.2c0,2.4,0.2,4.3,0.7,5.5c0.5,1.2,1.6,1.9,3.3,1.9c1.1,0,2-0.3,2.8-0.9
				c0.8-0.6,1.4-1.3,1.9-2.1c0.1-0.2,0.2-0.4,0.3-0.6c0.2,1,0.4,1.9,0.8,2.8c0.4,0.9,0.9,1.7,1.5,2.3c0.6,0.6,1.4,0.9,2.3,0.9
				c0.3,0,0.5,0,0.7,0.1c0.2,0,0.3,0.1,0.5,0.1c0.1,0.1,0.3,0.1,0.4,0.1c0.1,0,0.3,0.1,0.5,0.1c0.8,0,1.5-0.2,2.1-0.7
				c0.6-0.5,1.1-1.1,1.6-1.7c0.5-0.7,0.8-1.4,1.1-2.2c0.3-0.8,0.6-1.5,0.8-2.1c0.2,1.6,0.7,2.8,1.6,3.7c0.9,0.9,1.9,1.3,3,1.3
				c0.8,0,1.5-0.2,2.1-0.7c0.6-0.5,1.2-1,1.7-1.7c0.2-0.3,0.4-0.6,0.5-0.9v14.2c0,0.6,0.2,0.9,0.7,1.1c0.5,0.1,0.9,0.2,1.4,0.2h0.8
				c0.3,0,0.6,0,1,0c0.4,0,0.7-0.1,1.1-0.2c0.3-0.1,0.6-0.2,0.8-0.4c0.2-0.2,0.3-0.4,0.3-0.7c0-0.3-0.1-0.4-0.4-0.5
				c-0.3-0.1-0.4-0.2-0.4-0.3c-0.2-0.6-0.3-1.2-0.4-1.6c-0.1-0.5-0.2-1-0.2-1.5c-0.1-0.5-0.1-1-0.1-1.6c0-0.6-0.1-1.2-0.1-2v-5.1
				c0-2,0.1-4.1,0.3-6.2c0.2-2.2,0.4-4.1,0.8-5.9c0.4-1.8,0.9-3.2,1.5-4.4c0.6-1.2,1.3-1.7,2.1-1.7c0.5,0,1,0.2,1.3,0.7
				c0.3,0.5,0.6,1,0.7,1.7c0.2,0.7,0.2,1.4,0.3,2.1c0,0.7,0.1,1.4,0.1,1.9v2.6c0,0.9,0,1.9-0.1,3c-0.1,1.1-0.2,2.1-0.4,3
				c-0.2,0.9-0.5,1.7-0.8,2.3c-0.4,0.6-0.9,0.9-1.5,0.9c-0.4,0-0.7-0.1-0.8-0.3c-0.2-0.2-0.3-0.4-0.5-0.6c-0.1-0.2-0.3-0.4-0.4-0.6
				c-0.1-0.2-0.4-0.3-0.7-0.3c-0.2,0-0.5,0.1-0.8,0.3c-0.3,0.2-0.4,0.6-0.4,1c0,1,0.4,1.7,1.1,2.1c0.7,0.4,1.6,0.6,2.6,0.6
				c1.1,0,2.2-0.3,3-0.9c0.9-0.6,1.6-1.5,2.2-2.5c0.6-1,1-2.3,1.3-3.7c0.3-1.4,0.4-3,0.4-4.6v-0.5c0-1-0.1-2.2-0.3-3.5
				C504.5,232.6,504.1,231.4,503.7,230.2z M479.9,234c0,0.1-0.1,0.2-0.4,0.4c-0.3,0.2-0.4,0.6-0.5,1.2c-0.1,1.2-0.2,2.6-0.4,4
				c-0.1,1.5-0.4,2.8-0.7,4.1c-0.3,1.3-0.8,2.3-1.3,3.2c-0.6,0.9-1.4,1.3-2.6,1.3c-0.5,0-0.8-0.3-1.1-0.8c-0.3-0.5-0.5-1.2-0.7-1.9
				c-0.2-0.8-0.3-1.6-0.3-2.4c-0.1-0.9-0.1-1.6-0.1-2.2c0-0.8,0.1-1.9,0.2-3.3c0.1-1.4,0.4-2.8,0.7-4.1c0.4-1.3,0.9-2.5,1.6-3.4
				c0.7-1,1.5-1.5,2.6-1.5c0.6,0,1.2,0.2,1.5,0.5c0.4,0.3,0.7,0.8,0.9,1.3c0.2,0.5,0.3,1,0.4,1.6c0.1,0.6,0.1,1.1,0.1,1.5V234z"/>
		</g>
	</g>
	<path class="st1" d="M403.3,356c-0.1-4.4-0.3-54.6-0.4-60.1c-0.9,0-1.7,0.1-2.6,0.1c-1.2,0-2.4,0.1-3.7,0.1c-2.7,0-5.6,0.1-8.5,0.1
		c-5.9,0.1-12.2,0.1-18.8,0.2c-13.3,0.1-28,0.2-43.9,0.1c-10.8,0-20.6-0.2-29.5-0.5c-4.4-0.2-8.6-0.3-12.6-0.5
		c-2-0.1-3.9-0.2-5.8-0.3c-1.7-0.1-3.3-0.2-4.9-0.3c-0.1,3.8-0.1,52.6-0.2,55.9c-0.1,3.5-0.2,6.7-0.3,9.6c0,0.2,0,0.4,0,0.6
		c1.3-0.2,2.6-0.4,3.9-0.6c0-1.5-0.1-3-0.1-4.6c-0.1-2.5-0.1-50.3-0.2-53c0-0.7,0-1.4-0.1-2.1l0-1c0-0.2,0-0.2,0-0.3l0-0.2
		c0-0.4,0-0.9,0.1-1.3c0.4,0,1,0.1,1.6,0.2c2,0.1,4.3,0.1,6.6,0.2c10.1,0.3,30.7,0.4,53.5,0.4c11.4,0,23.4-0.1,34.9-0.1
		c5.8,0,11.4-0.1,16.8-0.1c5-0.1,12.1-0.1,11.7-0.2c0,0.3,0,0.5,0,0.8l0,0.4c0,0.4,0,0.9,0,1.3c0,2,0.1,49.1,0.1,50.9
		c0.1,3.6,0.2,0.7,0.2,3.5c0.2,5.6,0.3,9.5,0.5,11c0.1,0.5,0.1,1,0.1,1.4c0.7,0.1,1.5,0.2,2.2,0.3c-0.1-1.5-0.2-3.2-0.3-5.1
		C403.7,359,403.5,360.8,403.3,356z M683,356c-0.1-4.4-0.3-54.6-0.4-60.1c-0.9,0-1.7,0.1-2.6,0.1c-1.2,0-2.4,0.1-3.7,0.1
		c-2.7,0-5.6,0.1-8.5,0.1c-5.9,0.1-12.2,0.1-18.8,0.2c-13.3,0.1-28,0.2-43.9,0.1c-10.8,0-20.6-0.2-29.5-0.5
		c-4.4-0.2-8.6-0.3-12.6-0.5c-2-0.1-3.9-0.2-5.8-0.3c-1.7-0.1-3.3-0.2-4.9-0.3c-0.1,3.8-0.1,52.6-0.2,55.9c-0.1,3.5-0.2,6.7-0.3,9.6
		c0,1-0.1,2-0.1,2.9c1.4-0.1,2.7-0.2,4.1-0.3c0-2.3-0.1-4.7-0.1-7.3c-0.1-2.5-0.1-50.3-0.2-53c0-0.7,0-1.4-0.1-2.1l0-1
		c0-0.2,0-0.2,0-0.3l0-0.2c0-0.4,0-0.9,0.1-1.3c0.4,0,1,0.1,1.6,0.2c2,0.1,4.3,0.1,6.6,0.2c10.1,0.3,30.7,0.4,53.5,0.4
		c11.4,0,23.4-0.1,34.9-0.1c5.8,0,11.4-0.1,16.8-0.1c5-0.1,12.1-0.1,11.7-0.2c0,0.3,0,0.5,0,0.8l0,0.4c0,0.4,0,0.9,0,1.3
		c0,2,0.1,49.1,0.1,50.9c0.1,3.6,0.1,6.8,0.2,9.6c0.1,2,0.1,3.8,0.2,5.3c0.8,0.1,1.6,0.3,2.3,0.4C683.3,363.5,683.1,360,683,356z
		 M542.7,295.9c-0.9,0-1.7,0.1-2.6,0.1c-1.2,0-2.4,0.1-3.7,0.1c-2.7,0-5.6,0.1-8.5,0.1c-5.9,0.1-12.2,0.1-18.8,0.2
		c-13.3,0.1-28,0.2-43.9,0.1c-10.8,0-20.6-0.2-29.5-0.5c-4.4-0.2-8.6-0.3-12.6-0.5c-2-0.1-3.9-0.2-5.8-0.3c-1.7-0.1-3.3-0.2-4.9-0.3
		c-0.1,3.8-0.1,52.6-0.2,55.9c-0.1,3.5-0.2,0.6-0.3,3.5c-0.3,5.8-0.6,10.5-0.9,14.3c1.7,0.2,3.3,0.4,5,0.6c0-1.9,0-4.1-0.1-6.4
		c-0.1-3.8-0.1-2.1-0.2-7c-0.1-2.5-0.1-50.3-0.2-53c0-0.7,0-1.4-0.1-2.1l0-1c0-0.2,0-0.2,0-0.3l0-0.2c0-0.4,0-0.9,0.1-1.3
		c0.4,0,1,0.1,1.6,0.2c2,0.1,4.3,0.1,6.6,0.2c10.1,0.3,30.7,0.4,53.5,0.4c11.4,0,23.4-0.1,34.9-0.1c5.8,0,11.4-0.1,16.8-0.1
		c5-0.1,12.1-0.1,11.7-0.2c0,0.3,0,0.5,0,0.8l0,0.4c0,0.4,0,0.9,0,1.3c0,2,0.1,49.1,0.1,50.9c0.1,3.6,0.2,6.8,0.2,9.6
		c0,1.1,0.1,2.1,0.1,3c0.8-0.1,1.5-0.1,2.3-0.2c-0.1-2.4-0.2-5-0.3-7.8C543,351.6,542.9,301.4,542.7,295.9z"/>
	<g>
		<g>
			<path class="st1" d="M305.8,116.4c0,0-0.1,0.2-0.3,0.6c-0.2,0.4-0.5,0.9-1,1.6c-0.9,1.3-2.5,3.3-4.9,4.8
				c-2.4,1.5-5.8,2.6-9.4,1.9c-3.5-0.6-7.2-3-8.7-7.2c-0.8-2.1-0.7-4.3-0.2-6.2c0.6-1.9,1.7-3.6,3.2-4.7c2.8-2.4,6.6-2.7,9.3-2
				c2.8,0.8,4.8,2.5,5.9,3.9c1.2,1.4,1.7,2.6,2,2.9c0.6,0.7-0.1,1.7-1.2,2.2c-1.1,0.5-2.4,0.7-2.8,0.5c-0.4-0.1,0.3-0.5,0.9-1.3
				c0.6-0.7,0.9-2.1-0.2-3c-0.5-0.4-1.9-2.3-4.6-3.3c-1.3-0.5-3-0.7-4.6-0.4c-1.7,0.3-3.3,1.2-4.5,2.5c-1.2,1.3-2,3.1-2.1,4.8
				c-0.1,1.8,0.3,3.5,1.1,4.9c0.8,1.4,2,2.4,3,3c1.1,0.6,2.2,0.9,2.9,1.1c3.2,0.6,6.3-0.7,8-2.4c1.8-1.7,2.5-3.6,2.9-4.3
				c0.4-0.8,1.5-1.3,2.6-1.5C304.2,114.7,305.4,115,305.8,116.4z"/>
		</g>
		<g>
			<path class="st1" d="M299.4,119.1c0,0,0,1.6,0.3,3.6c0.3,2,1.1,4.2,2.9,5.9c1.8,1.7,3.4,3,4.5,4c1.2,1,2,1.7,2.5,1.8
				c0.5,0-0.3,0.5-1.3,0.9c-1,0.4-2.3,0.8-2.7,0.8c-0.4,0.1,0.2-0.2,0.8-0.5c0.6-0.3,1.1-0.8,0.5-0.9c-0.6-0.1-1.7-1.6-3.4-3
				c-1.6-1.5-3.6-3-4.2-3.9c-1.3-1.7-2.3-3.2-2.4-3.9C296.9,123.1,298.4,119.6,299.4,119.1z"/>
		</g>
	</g>
	<g>
		<path class="st1" d="M641.7,120.9c0,0-0.1,0.2-0.4,0.7c-0.3,0.5-0.6,1.2-1.3,2c-1.2,1.7-3.2,4-6.6,6.1c-1.6,1-3.6,2-5.9,2.6
			c-2.3,0.6-4.9,1-7.7,0.6c-1.4-0.2-2.8-0.6-4.1-1.2c-1.3-0.6-2.6-1.5-3.8-2.6c-2.3-2.2-4.1-5.3-4.8-9c-0.7-3.6-0.5-7.4,0.9-10.4
			c1.3-3.1,3.7-5.5,6.3-7c2.7-1.5,5.5-2.3,8.2-2.3c2.7,0,5.2,0.5,7.3,1.5c4.3,1.9,6.8,5.1,8.1,7.5c1.3,2.5,1.6,4.3,1.8,4.9
			c0.2,0.6,0.2,1.2,0,1.7c-0.2,0.5-0.5,1-0.9,1.4c-0.7,0.7-1.5,0.9-1.7,0.6c-0.2-0.3,0.4-1,0.7-2.2c0.4-1.2,0.6-3.1-0.6-5.1
			c-0.3-0.5-0.8-1.6-1.9-3c-1.1-1.4-2.7-3-4.9-4.2c-2.3-1.2-5.2-2.1-8.4-2c-1.6,0.1-3.2,0.3-4.7,0.9c-1.6,0.6-3,1.4-4.3,2.4
			c-2.6,2.1-4.6,5.1-5.1,8.4c-0.3,1.6-0.4,3.4-0.2,5c0.2,1.6,0.5,3.2,1.1,4.6c1.1,2.9,2.8,5,4.7,6.4c1.9,1.4,3.8,2,5.2,2.3
			c2.8,0.5,5.7,0.2,8.2-0.7c2.5-0.8,4.6-2.1,6.2-3.4c3.3-2.6,4.7-5.5,5.3-6.7c0.3-0.6,0.6-1.1,1-1.4c0.3-0.3,0.7-0.6,1.1-0.6
			C641.2,118.6,641.8,119.2,641.7,120.9z"/>
	</g>
	<path class="st0" d="M623.6,122.1c-0.1-0.5-0.1-1-0.1-1.7V112c0-0.3,0-0.7,0.1-1c0.1-0.3,0.1-0.6,0.1-0.7c0-0.1,0-0.2,0-0.2
		c0-0.1,0-0.2-0.1-0.2c-0.1-0.1-0.2-0.2-0.3-0.3c-0.1-0.1-0.3-0.2-0.4-0.3c-0.1-0.1-0.3-0.2-0.4-0.3c-0.1-0.1-0.2-0.1-0.3-0.1
		c-0.2,0-0.4,0.1-0.4,0.2c-0.1,0.4-0.2,0.8-0.3,1.3c-1.3,1.8-1.9,4.6-2.8,5.2c0.8-0.3,1.3-1.1,2.7-1.7c0,0,0,0.1,0,0.1v9.2
		c0,0.1,0.1,0.2,0.2,0.3c0.1,0,0.2,0.1,0.4,0.1c0.1,0,0.3,0,0.5,0h0.5c0.2,0,0.5,0,0.6-0.1c0.2-0.1,0.3-0.1,0.4-0.2
		C623.8,123,623.7,122.5,623.6,122.1z M618.5,115.7c0.1,0,0.1-0.1,0.2-0.1C618.4,115.7,618.3,115.7,618.5,115.7z"/>
	<g>
		<g>
			<g>
				<path class="st2" d="M344.2,113.6c-0.5,1-1,2-1.4,3.1c-0.4,1.1-0.8,1.9-1,2.5c0,0.2-0.1,0.6-0.3,1.1c-0.2,0.6-0.3,1.2-0.5,1.9
					c-0.2,0.7-0.4,1.4-0.5,2.1c-0.1,0.7-0.2,1.2-0.2,1.7c0,0.2-0.2,0.3-0.5,0.5c-0.3,0.1-0.7,0.2-1.2,0.2c-0.8,0-1.4-0.1-1.9-0.3
					c-0.5-0.2-0.8-0.6-1.1-1c-0.2-0.5-0.4-1.1-0.4-1.9c-0.1-0.8-0.1-1.7-0.1-2.9v-4c0-0.3,0-0.6,0-0.9c0-0.3-0.1-0.5-0.2-0.5
					c-0.2,0.1-0.4,0.5-0.7,1.4c-0.3,0.9-0.5,1.9-0.8,3.1c-0.2,1.2-0.4,2.5-0.6,3.9c-0.2,1.4-0.3,2.6-0.3,3.7c0,0.4-0.2,0.6-0.6,0.7
					c-0.4,0.1-0.9,0.1-1.4,0.1c-0.1,0-0.4,0-0.7-0.1c-0.3-0.1-0.7-0.1-1-0.2c-0.3-0.1-0.6-0.2-0.9-0.3c-0.3-0.1-0.5-0.3-0.5-0.5
					c-0.2-0.5-0.3-1.2-0.4-2.3c-0.1-1.1-0.1-2.7-0.1-5c0-1.3,0-2.9,0.1-4.6c0.1-1.8,0.1-3.8,0.2-6.2c0-0.3,0-0.7-0.1-1.3
					c0-0.5-0.1-0.8-0.1-0.9c0-0.3,0.1-0.5,0.3-0.5c0.2-0.1,0.4-0.1,0.5-0.1c0.3,0,0.5,0,0.9,0.1c0.3,0.1,0.7,0.1,1,0.2
					c0.3,0.1,0.7,0.1,0.9,0.2c0.3,0.1,0.5,0.2,0.6,0.2v13c0.2-0.7,0.4-1.6,0.6-2.5c0.2-0.9,0.5-1.9,0.8-2.8c0.3-0.9,0.6-1.8,1-2.6
					c0.4-0.8,0.7-1.4,1.1-1.7c0.1-0.1,0.4-0.2,0.8-0.2c0.4-0.1,0.7-0.1,1-0.1c0.2,0,0.4,0,0.7,0.1c0.3,0.1,0.5,0.1,0.8,0.2
					c0.3,0.1,0.5,0.2,0.7,0.4c0.2,0.2,0.3,0.3,0.4,0.6v8.7v0.5c0,0.2,0,0.3,0.1,0.3c0.1,0,0.3-0.5,0.6-1.5c0.3-1,0.7-2.1,1.2-3.4
					c0.5-1.3,1-2.7,1.5-4.1c0.5-1.4,1-2.5,1.4-3.3c0.1-0.1,0.3-0.2,0.7-0.2c0.4,0,0.8,0,1.1,0c0.3,0,0.6,0.1,1,0.2
					c0.4,0.2,0.8,0.4,1.3,0.7c0.4,0.3,0.8,0.6,1.1,1c0.3,0.4,0.5,0.7,0.5,1.1c0,0.1-0.1,0.3-0.3,0.6c-0.2,0.3-0.4,0.7-0.4,1.1
					c-0.3,1-0.4,2-0.5,3c-0.1,1-0.1,2.2-0.1,3.7c0,0.6,0,1.3,0.1,1.9c0.1,0.6,0.1,1.2,0.3,1.7c0.1,0.5,0.3,0.9,0.5,1.3
					c0.2,0.3,0.5,0.5,0.9,0.5c0.5,0,1-0.2,1.3-0.5c0.4-0.3,0.7-0.8,1-1.4c0.3-0.6,0.5-1.2,0.8-2c0.2-0.8,0.4-1.6,0.5-2.4
					c0.2-0.9,0.5-1.3,1-1.3c0.3,0,0.5,0.1,0.6,0.2c0.1,0.1,0.1,0.5,0.1,1c0,0.3,0,0.5-0.1,0.6c0,0.5-0.2,1.2-0.5,2.2
					c-0.3,1-0.6,2-1.1,3c-0.5,1-1.1,1.8-1.8,2.6c-0.7,0.7-1.5,1.1-2.5,1.1c-1.1,0-2-0.3-2.7-0.8c-0.7-0.5-1.3-1.2-1.6-2.1
					c-0.4-0.9-0.7-1.9-0.8-3c-0.2-1.1-0.2-2.3-0.2-3.6V118L344.2,113.6z"/>
				<path class="st2" d="M369.2,116.5c0,1.5-0.1,2.9-0.4,4.3c-0.3,1.3-0.7,2.5-1.2,3.5c-0.5,1-1.2,1.8-2,2.4
					c-0.8,0.6-1.8,0.9-2.8,0.9c-1,0-1.8-0.2-2.5-0.6c-0.7-0.4-1-1-1-2c0-0.4,0.1-0.7,0.4-0.9c0.3-0.2,0.5-0.3,0.7-0.3
					c0.3,0,0.5,0.1,0.6,0.2c0.1,0.2,0.3,0.3,0.4,0.5c0.1,0.2,0.3,0.4,0.4,0.5c0.2,0.2,0.4,0.2,0.8,0.2c0.6,0,1.1-0.3,1.4-0.9
					c0.3-0.6,0.6-1.3,0.8-2.1c0.2-0.9,0.3-1.8,0.3-2.8c0.1-1,0.1-1.9,0.1-2.8v-2.5c0-0.5,0-1.1-0.1-1.8c0-0.7-0.1-1.4-0.3-2
					c-0.1-0.6-0.4-1.2-0.7-1.6c-0.3-0.4-0.7-0.7-1.2-0.7c-0.8,0-1.4,0.5-2,1.6c-0.6,1.1-1,2.5-1.4,4.1c-0.4,1.7-0.6,3.5-0.8,5.5
					c-0.2,2-0.2,4-0.2,5.8v4.8c0,0.7,0.1,1.3,0.1,1.9c0,0.5,0.1,1,0.1,1.5c0.1,0.5,0.1,0.9,0.2,1.4c0.1,0.4,0.2,1,0.4,1.5
					c0,0.1,0.2,0.2,0.4,0.3c0.2,0.1,0.3,0.3,0.3,0.5c0,0.3-0.1,0.5-0.3,0.7c-0.2,0.2-0.4,0.3-0.8,0.4c-0.3,0.1-0.6,0.1-1,0.2
					c-0.4,0-0.7,0-1,0h-0.8c-0.4,0-0.9-0.1-1.3-0.2c-0.4-0.1-0.6-0.5-0.6-1v-31.5c0-0.7-0.1-1.3-0.2-1.7c0-0.1-0.1-0.3-0.1-0.4
					c0-0.1-0.1-0.2-0.1-0.4c0-0.1,0.1-0.2,0.3-0.3c0.2-0.1,0.4-0.2,0.7-0.3c0.3-0.1,0.5-0.2,0.7-0.3c0.2-0.1,0.4-0.1,0.4-0.1
					c0.6,0,1.1,0.2,1.4,0.6c0.3,0.4,0.5,1.2,0.5,2.3v7.5c0.2-0.5,0.4-1.2,0.6-2c0.2-0.8,0.5-1.6,0.9-2.4c0.4-0.8,0.9-1.5,1.5-2.1
					c0.6-0.6,1.4-0.9,2.4-0.9c1.1,0,2.1,0.4,2.8,1.2c0.7,0.8,1.3,1.7,1.8,2.8c0.4,1.1,0.8,2.3,0.9,3.5c0.2,1.2,0.3,2.3,0.3,3.3
					V116.5z"/>
				<path class="st2" d="M387.1,118.5c0,0.9-0.2,1.9-0.5,3c-0.3,1.1-0.8,2.1-1.5,3.1c-0.7,0.9-1.6,1.7-2.6,2.4c-1.1,0.6-2.3,1-3.8,1
					c-1.4,0-2.6-0.3-3.5-0.8c-1-0.5-1.8-1.2-2.4-2c-0.6-0.9-1.1-1.9-1.3-3c-0.3-1.2-0.4-2.4-0.4-3.7c0-1.3,0.1-2.6,0.4-4.1
					c0.3-1.5,0.7-2.9,1.3-4.2c0.6-1.3,1.4-2.4,2.3-3.3c0.9-0.9,2.1-1.3,3.4-1.3c0.6,0,1.3,0.1,1.8,0.4c0.6,0.3,1.1,0.6,1.5,1
					c0.4,0.4,0.8,0.9,1,1.5c0.3,0.6,0.4,1.2,0.4,1.8l0.1,0.8c0,0.9-0.1,1.8-0.4,2.8c-0.3,1-0.7,2-1.2,2.8c-0.5,0.9-1.2,1.6-2,2.2
					c-0.8,0.6-1.7,0.9-2.7,0.9c-0.2,0-0.4,0-0.7-0.1c-0.3,0-0.5-0.1-0.8-0.2v1.6c0,0.3,0.1,0.6,0.2,1.1c0.2,0.5,0.4,0.9,0.7,1.4
					c0.3,0.4,0.7,0.8,1.3,1.2c0.5,0.3,1.2,0.5,1.9,0.5c1,0,1.9-0.2,2.6-0.6c0.7-0.4,1.2-0.9,1.6-1.6c0.4-0.6,0.8-1.4,1-2.2
					c0.2-0.8,0.4-1.6,0.6-2.3c0.1-0.5,0.2-0.8,0.3-1c0.1-0.2,0.3-0.3,0.5-0.3c0.5,0,0.8,0.3,0.8,0.9V118.5z M380.8,110.2
					c0-0.3-0.1-0.6-0.2-0.9c-0.2-0.3-0.5-0.5-0.9-0.5c-0.6,0-1.2,0.3-1.7,1c-0.5,0.7-0.9,1.5-1.2,2.3c-0.3,0.9-0.5,1.7-0.7,2.5
					c-0.1,0.8-0.2,1.3-0.2,1.6v0.2c0,0.3,0,0.6,0.1,0.8c0.1,0.2,0.2,0.3,0.6,0.3h0.3c0.7,0,1.3-0.3,1.8-0.8c0.5-0.5,0.9-1.2,1.2-1.9
					c0.3-0.8,0.5-1.5,0.7-2.3c0.1-0.8,0.2-1.4,0.2-1.9V110.2z"/>
			</g>
			<path class="st2" d="M393.4,137.5c0,0.9-0.9,1.6-1.9,1.6l0,0c-1.1,0-1.9-0.7-1.9-1.6V93c0-0.9,0.9-1.6,1.9-1.6l0,0
				c1.1,0,1.9,0.7,1.9,1.6V137.5z"/>
		</g>
		<g>
			<g>
				<g>
					<path class="st2" d="M384.9,179.5c0,0,10.8,4.9,15.8,12.2c5,7.3,5,7.3,5,7.3"/>
					<g>
						<path class="st3" d="M386.6,177.1c0,0,0.5,1.4,1.8,3.3c1.3,2,3.4,4.4,6.5,7.1c3.1,2.7,5.2,5.4,7,7.4c1.7,2,3,3.1,3.5,3.2
							c0.9,0.2-1.3,2.4-1.9,2.6c-0.6,0.2,1.1-1.9-0.3-2.5c-0.3-0.2-1.1-1-2.1-2.2c-1-1.2-2.2-2.9-3.4-4.2c-2.5-2.8-5.9-5.3-7.2-6.4
							c-2.6-2.3-4.7-4-5.2-4.7C384.7,179.9,385.5,177.3,386.6,177.1z"/>
					</g>
				</g>
				<g>
					<path class="st2" d="M386.4,197.8c0,0,7.8-9.4,13.3-15.4c4-4.4,7.3-4.4,7.3-4.4"/>
					<g>
						<path class="st3" d="M384.4,195.5c0,0,5.7-0.3,11.4-6.6c2.9-3.1,4.9-6.2,6.6-7.9c1.7-1.8,3.2-2.6,3.4-3c0.2-0.4,0.7,0.1,1,0.9
							c0.3,0.7,0.1,1.7,0.2,1.9c0.2,0.3,0-0.2-0.3-0.6c-0.3-0.4-0.9-0.7-1.3-0.1c-0.2,0.3-1,0.8-2,1.7c-1,0.9-2.1,2.2-3.5,3.9
							c-2.6,3.2-5.5,6.5-6.9,7.7c-2.7,2.4-4.9,4.1-5.7,4.4C386.6,198.1,384.4,196.5,384.4,195.5z"/>
					</g>
				</g>
			</g>
			<g>
				<g>
					<path class="st2" d="M288,187.4c-0.6,0.8-1,1.6-1.4,2.6c-0.4,1-0.7,1.9-0.9,3c-0.3,1-0.5,2-0.6,3.1c-0.2,1-0.3,2-0.5,2.9
						c-0.1,0.2-0.4,0.4-0.9,0.4c-0.5,0.1-0.9,0.1-1.1,0.1c-0.7,0-1.2,0-1.6-0.1c-0.4-0.1-0.8-0.3-1-0.5c-0.2-0.3-0.4-0.7-0.5-1.3
						c-0.1-0.6-0.2-1.3-0.3-2.3l0.7-16.6c0-0.5,0.3-0.7,0.8-0.7c0.2,0,0.4,0,0.8,0.1c0.3,0.1,0.7,0.1,1.1,0.3
						c0.4,0.1,0.7,0.3,0.9,0.4c0.3,0.2,0.4,0.4,0.4,0.6v11.3c0,0,0.1-0.2,0.2-0.4c0.3-0.7,0.6-1.5,0.9-2.5c0.4-1,0.8-1.9,1.2-2.8
						c0.4-0.9,0.9-1.7,1.4-2.3c0.5-0.6,1-1,1.5-1c0.7,0,1.2,0.2,1.5,0.5c0.4,0.3,0.6,0.7,0.8,1.2c0.2,0.5,0.3,1,0.3,1.6
						c0,0.6,0.1,1.1,0.1,1.6c0,0.4,0,1-0.1,1.8c-0.1,0.9-0.1,2.1-0.1,3.8c0,1,0.1,1.8,0.3,2.6c0.2,0.8,0.6,1.2,1.1,1.2
						c0.4,0,0.8-0.2,1.1-0.6c0.3-0.4,0.6-0.8,0.9-1.4c0.3-0.6,0.5-1.2,0.7-1.8c0.2-0.6,0.3-1.2,0.3-1.8c0-0.7,0.3-1.1,0.8-1.1
						c0.3,0,0.6,0.1,0.7,0.3c0.1,0.2,0.2,0.5,0.2,0.8v0.1c0,0.7-0.2,1.6-0.4,2.5c-0.2,0.9-0.6,1.8-1.1,2.6c-0.5,0.8-1.1,1.5-1.8,2.1
						c-0.7,0.6-1.7,0.8-2.7,0.8c-1.7,0-2.7-0.6-3.2-1.8c-0.5-1.2-0.7-3-0.7-5.4L288,187.4z"/>
					<path class="st2" d="M318.4,193.5c-0.1,0.5-0.3,1.1-0.6,1.8c-0.3,0.7-0.7,1.4-1.1,2c-0.5,0.7-1,1.2-1.6,1.6
						c-0.6,0.4-1.3,0.7-2,0.7c-1.1,0-2.1-0.4-2.9-1.3c-0.8-0.9-1.4-2.1-1.5-3.6c-0.2,0.6-0.5,1.3-0.8,2.1c-0.3,0.8-0.7,1.5-1.1,2.2
						c-0.4,0.7-1,1.2-1.5,1.7c-0.6,0.5-1.3,0.7-2,0.7c-0.2,0-0.4,0-0.5-0.1c-0.1,0-0.2-0.1-0.4-0.1c-0.1-0.1-0.3-0.1-0.4-0.1
						c-0.2,0-0.4-0.1-0.7-0.1c-0.9,0-1.6-0.3-2.3-0.9c-0.6-0.6-1.1-1.3-1.5-2.2c-0.4-0.9-0.6-1.9-0.8-2.9c-0.2-1.1-0.2-2.1-0.2-3
						c0-2.2,0.1-4.4,0.4-6.4c0.2-2,0.6-3.8,1.2-5.3s1.3-2.8,2.2-3.7c0.9-0.9,2-1.4,3.2-1.4c0.7,0,1.3,0.1,1.7,0.2
						c0.4,0.1,0.8,0.3,1.1,0.4c0.3,0.2,0.7,0.3,1.1,0.5c0.4,0.2,0.9,0.3,1.6,0.4c0.8,0.4,1.3,1,1.6,1.6c0.3,0.6,0.5,1.3,0.6,2
						c0.1,0.7,0.1,1.4,0.1,2.2c0,0.8,0,1.5,0.1,2.3c0,0,0.1,0.1,0.3,0.2c0.2,0.1,0.4,0.2,0.6,0.2c0.2,0.1,0.4,0.2,0.6,0.4
						c0.2,0.2,0.3,0.4,0.3,0.6v0.2c-0.4,1-0.6,1.8-0.7,2.6c-0.1,0.7-0.1,1.6-0.1,2.7c0,0.5,0,1.1,0.1,1.7c0.1,0.6,0.1,1.2,0.3,1.7
						c0.1,0.5,0.3,1,0.6,1.3c0.3,0.4,0.6,0.5,1,0.5c0.4,0,0.8-0.2,1.2-0.7c0.4-0.4,0.6-1,0.9-1.5c0.2-0.6,0.4-1.2,0.6-1.8
						c0.2-0.6,0.3-1,0.3-1.3c0.1-0.4,0.3-0.7,0.6-0.7c0.2,0,0.4,0.1,0.5,0.3c0.2,0.2,0.3,0.6,0.3,1.1c0,0.1,0,0.3,0,0.4
						C318.5,193.1,318.4,193.3,318.4,193.5z M308.1,184.4c0-0.4,0-0.9-0.1-1.4c-0.1-0.6-0.2-1.1-0.4-1.6c-0.2-0.5-0.5-0.9-0.8-1.2
						c-0.4-0.3-0.9-0.5-1.5-0.5c-1,0-1.9,0.5-2.5,1.4c-0.6,0.9-1.2,2.1-1.5,3.3c-0.4,1.3-0.6,2.6-0.7,4c-0.1,1.4-0.2,2.4-0.2,3.2
						c0,0.6,0,1.3,0.1,2.1c0.1,0.8,0.2,1.6,0.3,2.4c0.2,0.7,0.4,1.4,0.6,1.9c0.3,0.5,0.6,0.8,1.1,0.8c1.1,0,1.9-0.4,2.5-1.3
						c0.6-0.8,1-1.9,1.3-3.1c0.3-1.2,0.5-2.6,0.6-4c0.1-1.4,0.3-2.7,0.4-3.9c0.1-0.6,0.2-1,0.5-1.2c0.3-0.2,0.4-0.3,0.4-0.4V184.4z"
						/>
					<path class="st2" d="M332.5,188.8c0,1.6-0.1,3-0.4,4.4c-0.3,1.4-0.7,2.6-1.2,3.6c-0.5,1-1.2,1.8-2.1,2.5
						c-0.8,0.6-1.8,0.9-2.9,0.9c-1,0-1.9-0.2-2.6-0.6c-0.7-0.4-1.1-1.1-1.1-2c0-0.4,0.1-0.7,0.4-1c0.3-0.2,0.5-0.3,0.8-0.3
						c0.3,0,0.5,0.1,0.6,0.3c0.1,0.2,0.3,0.4,0.4,0.6c0.1,0.2,0.3,0.4,0.4,0.6c0.2,0.2,0.4,0.2,0.8,0.2c0.6,0,1.1-0.3,1.5-0.9
						c0.4-0.6,0.6-1.3,0.8-2.2c0.2-0.9,0.3-1.9,0.4-2.9c0.1-1,0.1-2,0.1-2.9v-2.6c0-0.5,0-1.1-0.1-1.9c0-0.7-0.1-1.4-0.3-2.1
						c-0.1-0.6-0.4-1.2-0.7-1.7c-0.3-0.5-0.7-0.7-1.3-0.7c-0.8,0-1.5,0.6-2,1.7c-0.6,1.1-1.1,2.6-1.4,4.3c-0.4,1.7-0.6,3.6-0.8,5.7
						c-0.2,2.1-0.3,4.1-0.3,6.1v5c0,0.7,0.1,1.4,0.1,2c0,0.6,0.1,1.1,0.1,1.6c0.1,0.5,0.1,1,0.2,1.4c0.1,0.5,0.2,1,0.4,1.6
						c0,0.1,0.2,0.2,0.4,0.3c0.2,0.1,0.4,0.3,0.4,0.5c0,0.3-0.1,0.5-0.3,0.7c-0.2,0.2-0.5,0.3-0.8,0.4c-0.3,0.1-0.7,0.2-1,0.2
						c-0.4,0-0.7,0-1,0h-0.8c-0.4,0-0.9-0.1-1.3-0.2c-0.4-0.1-0.7-0.5-0.7-1v-32.7c0-0.7-0.1-1.3-0.2-1.8c0-0.1-0.1-0.3-0.1-0.4
						c0-0.1-0.1-0.3-0.1-0.4c0-0.1,0.1-0.2,0.3-0.3c0.2-0.1,0.4-0.2,0.7-0.3c0.3-0.1,0.5-0.2,0.8-0.3c0.2-0.1,0.4-0.1,0.4-0.1
						c0.6,0,1.1,0.2,1.5,0.6c0.4,0.4,0.5,1.2,0.5,2.4v7.8c0.2-0.5,0.4-1.2,0.6-2.1c0.2-0.9,0.5-1.7,0.9-2.5c0.4-0.8,0.9-1.6,1.5-2.2
						c0.6-0.6,1.4-0.9,2.4-0.9c1.2,0,2.2,0.4,2.9,1.2c0.8,0.8,1.4,1.8,1.8,2.9c0.5,1.1,0.8,2.3,1,3.6c0.2,1.3,0.3,2.4,0.3,3.4V188.8
						z"/>
				</g>
				<path class="st2" d="M368.7,195.2c-0.8-0.8-1.4-1.9-1.9-3.5c-0.1,0.2-0.3,0.7-0.4,1.5c-0.2,0.8-0.4,1.5-0.8,2.4
					c-0.3,0.8-0.8,1.6-1.3,2.2c-0.5,0.7-1.2,1-2.1,1c-2.4,0-4.1-0.7-5-2.1c-0.9-1.4-1.4-3.5-1.6-6.2l0-13.7c0.1-0.3,0.1-0.5,0.1-0.6
					c0-0.1,0.2-0.2,0.5-0.2c0.2,0,0.5,0,1,0.1c0.5,0.1,1,0.2,1.4,0.3c0.5,0.1,0.9,0.3,1.3,0.5c0.4,0.2,0.6,0.5,0.6,0.8l0,10
					c0,0.7,0,1.4,0,2.3c0,0.8,0.1,1.6,0.2,2.3c0.1,0.7,0.3,1.3,0.5,1.8c0.2,0.5,0.6,0.7,1,0.7c1.1,0,1.9-1.1,2.5-3.3
					c0.6-2.2,0.9-5.7,1-10.5c0-0.3-0.1-0.6-0.2-0.9c-0.2-0.3-0.2-0.7-0.2-1.1c0.1-0.3,0.4-0.5,0.9-0.6c0.5-0.1,1-0.1,1.5-0.1
					c1.1,0,2,0.1,2.5,0.3c0.5,0.2,0.8,0.9,0.8,2c-0.1,0.7-0.1,1.2-0.2,1.6c-0.1,0.4-0.1,0.8-0.1,1.1c0,0.3,0,0.7-0.1,1
					c0,0.4,0,0.9,0,1.6c0,0.9,0,1.8,0.1,2.7c0.1,0.9,0.2,1.8,0.4,2.6c0.2,0.8,0.4,1.4,0.7,1.9c0.3,0.5,0.7,0.8,1.1,0.8
					c0.4,0,0.7-0.1,1-0.4c0.2-0.2,0.4-0.5,0.6-0.8c0.2-0.3,0.4-0.6,0.6-0.8c0.2-0.2,0.5-0.4,0.8-0.4c0.3,0,0.5,0.1,0.7,0.3
					c0.2,0.2,0.2,0.4,0.2,0.6c0,0.7-0.2,1.3-0.5,1.8c-0.4,0.5-0.8,0.9-1.3,1.2c-0.5,0.3-1,0.5-1.6,0.7c-0.5,0.1-1,0.2-1.3,0.2
					c-0.6,0-1.2-0.1-1.6-0.2c-0.5-0.1-0.9-0.4-1.4-0.7L368.7,195.2z"/>
				<path class="st2" d="M354.1,187.1c-0.2,0-0.4,0.1-0.6,0.2c-0.2,0.2-0.3,0.5-0.4,0.9c-0.2,1.3-0.4,2.5-0.6,3.6
					c-0.2,1.2-0.4,2.2-0.7,3c-0.3,0.9-0.6,1.5-1,2.1c-0.4,0.5-0.9,0.8-1.4,0.8c-0.4,0-0.7-0.1-1-0.3c-0.2-0.2-0.4-0.5-0.6-0.8
					c-0.2-0.3-0.3-0.6-0.4-1c-1.3-2.1-2.6-3-5.2-3.4c-1.4-0.2-1.5-0.5-1.3-0.8c-0.1,0-0.1,0-0.2-0.1c-0.1-0.1-0.1-0.2-0.1-0.3
					c0-1.1,0.1-2.3,0.4-3.4c0.3-1.2,0.7-2.2,1.1-3.2c0.5-0.9,1-1.7,1.6-2.3c0.6-0.6,1.2-0.9,1.9-0.9c0.4,0,0.7,0.3,0.8,0.8
					c0.1,0.5,0.2,1.1,0.2,1.8c0.2,1.2,3-0.4,3.2-1.7c0-0.7-0.2-1.3-0.4-1.9c-0.2-0.6-0.6-1.2-1-1.6c-0.5-0.5-1.1-0.7-2-0.7
					c-0.8,0-1.4,0.3-2,0.8c-0.6,0.5-1.1,1.1-1.6,1.8c-0.4,0.7-0.8,1.3-1.2,2c-0.3,0.7-0.6,1.2-0.7,1.5c0-1.3,0-2.8,0.1-4.4
					c0.1-1.6-0.4,6.5-0.3,4.9c0.1-1.6,0.2-3.2,0.4-4.6c0.2-1.4,0.4-2.6,0.6-3.4c-0.2-0.2-0.5-0.4-0.9-0.5c-0.3-0.1-0.7-0.2-1.2-0.3
					c-0.5-0.1-1-0.1-1.7-0.1c-1,0-1.7,0.1-2.1,0.3c-0.4,0.2-0.5,0.4-0.5,0.6c0,0.1,0,0.3,0.1,0.6c0.1,0.3,0.1,0.7,0.1,1.1l0.6,20.9
					c0,0.9,0.2,1.5,0.5,1.7c0.4,0.2,1.1,0.3,2.2,0.3c0.2,0,0.5,0,1-0.1c0.5-0.1,0.8-0.1,1-0.2c-0.2-0.6-0.3-1.2-0.4-1.9
					c-0.1-0.7-0.1-1.3-0.1-1.8l0-3h0.7c0.6,0,1.2,0.1,1.5,0.4c0.4,0.3,0.7,0.7,1,1.2c0.3,0.5,0.5,1,0.8,1.5c0.2,0.5,0.6,1,0.9,1.5
					c0.4,0.5,0.8,0.9,1.4,1.2c0.6,0.3,1.3,0.5,2.2,0.5c0.9,0,1.7-0.3,2.3-0.8c0.6-0.5,1.1-1.2,1.6-1.9c0.4-0.7,0.7-1.5,1-2.4
					c0.2-0.8,0.4-1.6,0.6-2.2c0.2-1.1,0.3-2.1,0.4-3c0.1-0.8,0.2-1.4,0.2-1.7C355.1,187.5,354.8,187.1,354.1,187.1z"/>
			</g>
		</g>
		<path class="st2" d="M515.7,282.4c-0.7,0-1.2-0.5-1.3-1.1l-0.8-4.6l-0.1-0.1c-4.3-4.2-5.5-8-6.5-11.1c-0.9-2.8-1.6-4.9-4.1-6.9
			c-3.1-2.4-3.4-5.3-2.2-6.9c0.7-1,1.9-1.6,3.2-1.6c1,0,2,0.3,3.1,1c2,1.2,3.7,3.6,5.2,6l0.7,1.1l0.3-2.8
			c1.9-19.6,3.1-23.6,4.7-24.6c0.5-0.3,1-0.5,1.6-0.5c0.5,0,0.9,0.1,1.3,0.4c2.2,1.3,3.2,6.2,2.9,14.6l-0.1,2l0.5-0.1
			c0.2,0,0.3,0,0.5,0c0.6,0,1.2,0.1,1.8,0.4c1.8,0.8,2.7,2.1,3,3l0.1,0.3l0.3,0c0.2,0,0.5,0,0.8-0.1c0.2,0,0.3,0,0.5,0
			c1.2,0,2.3,0.8,3.2,2.3l0.2,0.3l0.3,0c0.3,0,0.5-0.1,0.8-0.1c0.9,0,2.1,0.2,2.7,1.4c1.4,2.9,0,9.2-1,12.7c-0.6,2.1-1.4,4.5-2,6.5
			c-1,3.1-1.8,5.5-1.8,6.2c0,0.7-0.7,1.3-1.4,1.3c-0.8,0-1.4-0.6-1.4-1.3c0-1,0.6-3,2-7.1c0.7-2,1.4-4.4,2-6.4
			c1.6-5.4,1.7-8.9,1.4-10.3l-0.1-0.4l-0.4,0c-0.4,0-0.9,0.1-1.4,0.3c-0.2,0.1-0.3,0.1-0.5,0.1c-0.6,0-1.1-0.4-1.3-0.9
			c-0.3-0.7-0.7-1.5-1.1-1.8l-0.2-0.1l-0.2,0c-0.5,0.1-0.9,0.1-1.3,0.1c-1,0-1.6-0.2-1.8-0.3c-0.5-0.2-0.8-0.7-0.8-1.3
			c0-0.3-0.2-1.4-1.7-2c-0.4-0.2-0.6-0.2-0.7-0.2h-0.4l-0.1,0.3c-0.4,0.5-0.5,1.7-0.5,2.3c0,0.4-0.1,0.7-0.4,1
			c-0.2,0.2-0.6,0.4-1,0.4c-0.4,0-0.7-0.1-1-0.4c-0.4-0.5-0.7-0.7-0.4-8.3c0.3-7.5-0.6-10.4-1-11.3l-0.5-1.1l-0.4,1.1
			c-1.3,3.6-2.6,16.8-3.1,21.8c-0.2,1.9-0.3,3.4-0.4,4.2c-0.1,0.9-0.4,2.1-1.6,2.3c-0.1,0-0.3,0-0.4,0c-1.2,0-2.1-1.4-3.4-3.4
			c-1.2-1.9-2.9-4.5-4.5-5.5c-0.8-0.5-1.4-0.6-1.7-0.6c-0.4,0-0.8,0.1-0.9,0.4c-0.4,0.6,0,1.9,1.7,3.2c3.2,2.5,4.1,5.4,5,8.2
			c1,3.2,2,6.4,6.2,10.3c0.2,0.2,0.4,0.5,0.4,0.8l0.8,5c0.1,0.4,0,0.7-0.2,1c-0.2,0.3-0.5,0.5-0.9,0.6
			C515.9,282.4,515.8,282.4,515.7,282.4z"/>
	</g>
	<path class="st1" d="M195.6,106.1V69c0-0.9,0.1-2-0.1-2.7c-0.4-1.5-1.2-2.8-2.3-3.6c-1.7-1.2-3.4-1.1-6.3-1.1h-38.3
		c-0.2,0.1-0.5,0.1-0.7,0.1c-0.4,0.1-0.7,0.2-1.1,0.4c-1.3,0.6-2.5,1.8-3.1,3.1c-0.5,1.1-0.5,2.6-0.5,4.3v36.4
		c0,1.9-0.1,3.7,0.6,4.9c0.9,1.5,2.1,2.6,3.9,3.1c0.8,0.2,2,0.2,3,0.2h36.9c1.1,0,2.3,0.1,3.2-0.1c1.2-0.3,2-0.9,2.9-1.5
		c0.9-0.7,1.5-2.2,1.8-3.5C195.7,108,195.6,106.9,195.6,106.1z M169.4,77.7c5.6,0,10.1,4.5,10.1,10.1c0,5.6-4.5,10.1-10.1,10.1
		c-5.6,0-10.1-4.5-10.1-10.1C159.4,82.2,163.9,77.7,169.4,77.7z M189.6,106.1c0,1-0.8,1.7-1.7,1.7H151c-1,0-1.7-0.8-1.7-1.7V83.7
		h4.6c-0.3,1.3-0.5,2.6-0.5,4c0,8.9,7.2,16.1,16.1,16.1c8.9,0,16.1-7.2,16.1-16.1c0-1.4-0.2-2.7-0.5-4h4.6V106.1z M189.6,75.9
		c0,1-0.8,1.7-1.7,1.7h-6.5c-1,0-1.7-0.8-1.7-1.7v-6.5c0-1,0.8-1.7,1.7-1.7h6.5c1,0,1.7,0.8,1.7,1.7V75.9z"/>
	<g>
		<path class="st4" d="M557.3,18.3c-6.3,0-11.4,5.1-11.4,11.4c0,3.3,1.4,6.2,3.6,8.3c-0.4,0.6-0.8,1.1-1.3,1.5
			c-0.7,0.6-1.4,1.1-2.3,1.4c0.6,0.1,1.1,0.1,1.7,0.1c0.8,0,1.6-0.1,2.6-0.4c0.7-0.2,1.3-0.5,1.9-0.8c1.6,0.8,3.3,1.3,5.2,1.3
			c6.3,0,11.4-5.1,11.4-11.4S563.5,18.3,557.3,18.3z"/>
		<circle class="st5" cx="557.3" cy="29.9" r="10"/>
		<path class="st6" d="M557.3,38.4c-4.7,0-8.6-3.8-8.6-8.6c0-4.7,3.8-8.6,8.6-8.6c4.7,0,8.6,3.8,8.6,8.6
			C565.8,34.6,562,38.4,557.3,38.4z"/>
		<path class="st7" d="M557.3,37c-3.9,0-7.1-3.2-7.1-7.1c0-3.9,3.2-7.1,7.1-7.1c3.9,0,7.1,3.2,7.1,7.1C564.4,33.8,561.2,37,557.3,37
			z"/>
		<path class="st4" d="M557.3,35.6c-3.1,0-5.7-2.6-5.7-5.7c0-3.1,2.6-5.7,5.7-5.7c3.1,0,5.7,2.6,5.7,5.7
			C563,33,560.4,35.6,557.3,35.6z"/>
		<path class="st5" d="M557.3,34.2c-2.4,0-4.3-1.9-4.3-4.3c0-2.4,1.9-4.3,4.3-4.3c2.4,0,4.3,1.9,4.3,4.3
			C561.5,32.2,559.6,34.2,557.3,34.2z"/>
		<circle class="st6" cx="557.3" cy="29.9" r="2.9"/>
		<circle class="st7" cx="557.3" cy="29.9" r="1.4"/>
	</g>
	<g>
		<path class="st0" d="M390.8,30.5c-0.3-1.2-0.3-2.2-0.1-3c0.3-0.9,0.7-1.6,1.4-2.2c0.7-0.6,1.6-1.1,2.7-1.5
			c1.1-0.4,2.4-0.7,3.8-0.9c1.4-0.2,2.9-0.4,4.6-0.4c1.6-0.1,3.4-0.1,5.1-0.1c2.4,0,4.9,0.1,7.6,0.3c2.7,0.2,5.5,0.5,8.5,1
			c0.7,0.1,1.2,0.4,1.6,0.7c0.4,0.3,0.6,0.7,0.7,1.1c0.1,0.3,0.1,0.6,0.1,0.9c0,0.3-0.1,0.6-0.3,0.8c-0.1,0.2-0.3,0.4-0.6,0.6
			c-0.2,0.1-0.5,0.2-0.8,0.2c-1.1,0-2.2-0.1-3.4-0.2c-1.2-0.1-2.4-0.3-3.7-0.5c-1.3-0.2-2.6-0.3-4-0.5c-1.4-0.2-2.8-0.3-4.2-0.4
			c0.2,1.8,0.3,3.3,0.4,5.8c0,1.8,0.1,3.7,0.1,5.5c0,1.8,0,3.1,0,4.9c0,1.8,0,3.6,0,5.3c0,1.7,0,3.2,0,4.7c0,1.4,0,2.4,0,3.4
			c0,0.5-0.1,1.2-0.2,1.5c-0.1,0.4-0.2,0.6-0.5,1c-0.2,0.3-0.4,0.4-0.8,0.6c-0.3,0.1-0.7,0.2-1,0.2c-0.7,0.1-1.4-0.2-1.9-0.4
			c-0.6-0.4-1.1-0.9-1.3-1.7c-0.1-0.3-0.1-0.7-0.1-1c0-1.2,0-2.4-0.1-3.6c0-1.2,0.1-3,0-4.3c0-0.7,0.1-2.1,0.2-5
			c0.1-1.7,0.1-2.4,0.2-4.1c0.1-2.6,0.2-2.9,0.2-4.4c0.1-2.2,0.5-5.7,0.6-8.3c-0.7,0.1-1.4,0.1-2.2,0.2c-0.7,0.1-1.4,0.2-2.1,0.3
			c-0.7,0.1-1.3,0.3-1.9,0.5c-0.6,0.2-1.1,0.4-1.5,0.7c-0.4,0.3-0.8,0.6-1,1c-0.2,0.4-0.2,0.9-0.1,1.4c0,0,0,0.2,0.1,0.5
			c0,0.3,0,0.6-0.1,0.9c-0.1,0.3-0.3,0.6-0.7,0.9c-0.3,0.3-0.9,0.4-1.7,0.4c-0.8,0-1.4-0.1-1.9-0.4c-0.5-0.3-0.9-0.6-1.2-0.9
			C391.2,31.5,391,31,390.8,30.5z"/>
		<path class="st0" d="M414.6,55.3c-0.1-0.6-0.1-1.2-0.1-2c0-0.8,0-1.5,0.1-2.4c0-0.8,0.1-1.7,0.2-2.5c0.1-0.9,0.2-1.8,0.3-2.8
			c0.1-1,0.3-1.8,0.4-2.4c0.1-0.7,0.2-1.2,0.4-1.6c0.1-0.3,0.2-0.5,0.2-0.7c0.1-0.2,0.2-0.3,0.3-0.4c0.1-0.1,0.3-0.2,0.5-0.2
			c0.2,0,0.4,0,0.7,0c0.3,0,0.6,0,0.8,0c0.2,0,0.3,0.1,0.4,0.2c0.1,0.1,0.2,0.3,0.2,0.5c0,0.2,0.1,0.5,0.1,0.9c0,0.5,0.1,1.1,0.1,2
			c0,0.9,0.1,1.6,0.1,2.3h0.2c0.2-0.5,0.5-1.2,0.8-2c0.3-0.8,0.7-1.5,1-2.1c0.4-0.5,0.8-1,1.3-1.4c0.5-0.4,1.1-0.6,1.8-0.6
			c0.2,0,0.5,0,0.7,0.1c0.2,0.1,0.4,0.2,0.6,0.4c0.2,0.2,0.3,0.3,0.5,0.6c0.1,0.2,0.2,0.5,0.2,0.8c0,0.2,0,0.5,0,0.9
			c0,0.4-0.1,0.9-0.2,1.5c-0.1,0.6-0.1,1.1-0.2,1.5c0,0.4,0,0.7,0,1c0,0.5,0.1,0.8,0.2,1.2c0.1,0.3,0.3,0.6,0.4,0.7
			c0.2,0.2,0.3,0.3,0.5,0.4c0.2,0.1,0.4,0.1,0.6,0.1c0.6,0,1.2-0.1,1.8-0.4c0.6-0.3,1.1-0.5,1.6-0.9c0.6-0.4,1.1-0.8,1.7-1.3
			l0.1,4.5c-0.3,0.2-0.7,0.5-1.1,0.7c-0.4,0.3-0.8,0.5-1.3,0.8c-0.5,0.2-0.9,0.4-1.4,0.6c-0.5,0.2-1,0.2-1.6,0.2
			c-1,0-1.8-0.2-2.4-0.6c-0.6-0.4-1.1-0.9-1.5-1.5c-0.4-0.6-0.7-1.3-1-2.1c-0.2-0.8-0.4-1.6-0.6-2.4h-0.3l-2.6,9.6
			c-0.1,0.5-0.3,0.9-0.4,1.2c-0.1,0.3-0.3,0.6-0.4,0.8c-0.1,0.2-0.3,0.3-0.5,0.4c-0.2,0.1-0.4,0.1-0.6,0.1c-0.5,0-1-0.1-1.3-0.3
			c-0.3-0.2-0.6-0.5-0.8-0.9c-0.2-0.4-0.4-0.8-0.5-1.3C414.7,56.3,414.6,55.8,414.6,55.3z"/>
		<path class="st0" d="M437.9,59.3c-1.2,0-2.3-0.2-3.2-0.7c-0.9-0.4-1.7-1-2.4-1.8c-0.7-0.7-1.2-1.6-1.6-2.6c-0.4-1-0.6-2-0.7-3.1
			c-0.1-0.7,0-1.5,0.2-2.5c0.2-1,0.4-1.8,0.6-2.6c0.2-0.8,0.5-1.5,0.9-2.2c0.4-0.7,0.8-1.3,1.4-1.8c0.5-0.5,1.1-0.9,1.8-1.3
			c0.7-0.3,1.5-0.5,2.4-0.5c0.7,0,1.4,0.1,2,0.3c0.6,0.2,1.2,0.6,1.7,1c0.5,0.4,0.9,0.9,1.2,1.5c0.3,0.6,0.5,1.2,0.6,2
			c0.1,0.8-0.1,1.6-0.6,2.6c-0.4,1-1,1.8-1.6,2.5c-0.6,0.7-1.4,1.3-2.3,1.8c-0.9,0.5-1.9,1-3,1.3c0.2,0.3,0.4,0.6,0.6,0.8
			c0.2,0.2,0.4,0.4,0.6,0.5c0.2,0.1,0.4,0.2,0.6,0.3c0.2,0.1,0.4,0.1,0.7,0.1c0.8,0,1.6-0.1,2.4-0.5c0.8-0.3,1.6-0.7,2.4-1.1
			c0.8-0.4,1.5-0.9,2.2-1.5c0.7-0.5,1.2-1,1.7-1.5l2.7,2.5c-1,1.2-2.1,2.3-3.3,3.2c-0.5,0.4-1.1,0.8-1.7,1.2c-0.6,0.4-1.2,0.7-1.9,1
			c-0.7,0.3-1.4,0.5-2.1,0.7C439.5,59.2,438.7,59.3,437.9,59.3z M434.6,50.1c0.5,0,1-0.1,1.5-0.3c0.5-0.2,1-0.5,1.4-0.9
			c0.4-0.4,0.9-0.9,1.3-1.5c0.4-0.6,0.6-1.1,0.5-1.5c-0.1-0.6-0.2-1-0.4-1.4c-0.2-0.4-0.5-0.5-0.8-0.5c-0.6,0-1,0.1-1.4,0.3
			c-0.4,0.2-0.7,0.5-0.9,0.8c-0.2,0.3-0.4,0.7-0.5,1.1c-0.1,0.4-0.3,0.9-0.4,1.5c-0.2,0.6-0.2,1.1-0.2,1.5
			C434.5,49.5,434.5,49.8,434.6,50.1z"/>
		<path class="st0" d="M445.6,55.3c-0.1-0.8-0.1-1.8-0.1-2.9c0-1.1,0-2.3,0.1-3.7c0-1.3,0.1-2.5,0.2-3.6c0.1-1.1,0.2-2,0.3-2.7
			c0.1-0.6,0.3-1.1,0.7-1.5c0.4-0.4,0.9-0.6,1.6-0.6c0.7,0,1.2,0.2,1.5,0.6c0.3,0.4,0.5,1,0.6,1.7c0,0.2,0,0.5,0,0.8
			c0,0.3,0,0.7-0.1,1.1c0,0.4,0,0.8-0.1,1.2c0,0.4,0,0.9-0.1,1.4c0,0.5,0,0.9,0,1.2c0,0.3,0,0.4,0,0.5h0.4c0.1-0.1,0.2-0.4,0.3-0.7
			c0.1-0.3,0.3-0.8,0.5-1.4c0.2-0.6,0.4-1.1,0.6-1.6c0.2-0.5,0.4-0.9,0.6-1.3c0.2-0.4,0.3-0.8,0.5-1.1c0.2-0.3,0.3-0.6,0.3-0.7
			c0.3-0.7,0.8-1.2,1.3-1.4c0.5-0.3,1.1-0.4,1.7-0.4c0.6,0,1.2,0.3,1.6,0.8c0.4,0.5,0.7,1.3,0.8,2.2c0,0.1,0,0.4,0,0.7
			c0,0.3-0.1,0.7-0.1,1.2c-0.1,0.5-0.1,1.1-0.1,1.8c0,0.7-0.1,1.4-0.1,2c0,0.6-0.1,1.1-0.1,1.7c0,0.6,0,1.1,0,1.6
			c0.1,0.8,0.2,1.4,0.5,2c0.2,0.5,0.6,0.8,1,0.8c0.2,0,0.4-0.1,0.6-0.2c0.4-0.2,0.7-0.3,0.8-0.4c0.5-0.4,0.8-0.6,0.8-0.6
			c0,0,0.4-0.2,1.2-0.8c1-0.7,2.1-1.5,3.5-2.4l0.4,4.3l-0.9,0.7c-0.1,0.1-0.6,0.4-1.7,1c-1.5,0.9-2.5,1.4-2.9,1.6
			c-1,0.5-1.6,0.7-1.8,0.8c-0.6,0.2-1.3,0.3-2,0.3c-0.7,0-1.3-0.5-1.9-1.5c-0.6-1-0.9-2.5-1.1-4.5c-0.1-0.8-0.1-1.6-0.1-2.5
			c0-0.9,0.1-1.8,0.1-2.9h-0.3l-4.2,10c-0.2,0.5-0.5,0.9-0.8,1.1c-0.3,0.2-0.7,0.3-1.1,0.3c-0.5,0-1-0.1-1.3-0.3
			c-0.3-0.2-0.6-0.5-0.8-0.9c-0.2-0.4-0.4-0.8-0.5-1.3C445.7,56.3,445.7,55.8,445.6,55.3z"/>
		<path class="st0" d="M486,55.3c-0.8,0.7-1.7,1.4-2.5,2c-0.4,0.2-0.7,0.5-1.1,0.7c-0.4,0.2-0.8,0.4-1.2,0.6
			c-0.4,0.2-0.8,0.3-1.1,0.5c-0.4,0.1-0.7,0.2-1,0.2c-0.2,0-0.5,0-0.8-0.1c-0.4-0.1-0.8-0.2-1.2-0.5c-0.4-0.3-0.9-0.6-1.4-1.1
			c-0.5-0.5-0.9-1.1-1.3-1.9c-0.4,0.5-0.9,1-1.4,1.4c-0.5,0.4-1,0.8-1.6,1.2c-0.5,0.3-1.1,0.6-1.7,0.8c-0.6,0.2-1.1,0.3-1.7,0.3
			c-0.8,0-1.6-0.2-2.2-0.5c-0.6-0.3-1.2-0.8-1.6-1.4c-0.5-0.6-0.8-1.2-1.1-2c-0.3-0.7-0.4-1.5-0.5-2.3c-0.1-0.8,0-1.7,0.1-2.5
			c0.1-0.9,0.4-1.7,0.7-2.5c0.3-0.8,0.7-1.6,1.1-2.5c0.4-0.9,1-1.7,1.8-2.4c0.8-0.7,1.5-1.3,2.4-1.6c0.8-0.4,1.7-0.6,2.7-0.7
			c-0.1-1.7-0.1-3.1,0.1-4.4c0.2-1.3,0.4-2.6,0.7-4.1c0.2-1.5,0.6-2.8,1.1-4c0.5-1.2,1-2.3,1.6-3.2c0.6-0.9,1.3-1.6,2-2.1
			c0.7-0.5,1.5-0.8,2.3-0.8c0.6,0,1.1,0.2,1.6,0.5c0.5,0.3,0.8,0.7,1.1,1.3c0.3,0.5,0.6,1.1,0.7,1.8c0.2,0.7,0.3,1.4,0.4,2.1
			c0,0.5,0.1,0.9,0.1,1.4c0.1,1.8,0,3.6-0.4,5.1c-0.4,1.6-0.8,3.2-1.2,4.7c-0.4,1.5-0.9,3.1-1.5,4.6c-0.9,2.3-1.5,3.9-1.7,4.7
			c-0.1,0.2-0.1,0.4-0.1,0.7c0,0.3-0.1,0.5-0.1,0.8c0,0.3-0.1,0.6-0.1,0.9c0,0.3,0,0.6,0,0.9c0,0.4,0.1,0.7,0.2,1.1
			c0.1,0.3,0.2,0.6,0.3,0.9c0.1,0.3,0.3,0.5,0.5,0.6c0.2,0.2,0.4,0.2,0.6,0.2c0.2,0,0.5,0,0.8-0.1c0.3-0.1,0.6-0.2,0.9-0.4
			c0.3-0.2,0.6-0.4,0.9-0.6c0.3-0.2,0.6-0.4,0.9-0.6c0.7-0.5,1.3-1.1,2.1-1.8L486,55.3z M471.7,43.9c-0.8,0.4-1.5,1-2.1,1.6
			c-0.6,0.7-1.1,1.6-1.4,2.7c-0.3,1.1-0.6,2.1-0.8,2.9c-0.2,0.8-0.2,1.5-0.2,2.2c0,0.2,0.1,0.4,0.1,0.6c0.1,0.2,0.2,0.4,0.4,0.5
			c0.2,0.2,0.4,0.3,0.7,0.4c0.3,0.1,0.7,0.1,1.1,0.1c0.2,0,0.5-0.1,0.7-0.2c0.2-0.1,0.4-0.2,0.6-0.4c0.2-0.2,0.4-0.4,0.5-0.6
			c0.2-0.2,0.3-0.4,0.5-0.7c0.3-0.5,0.6-1.1,0.8-1.8c-0.1-0.2-0.1-0.5-0.2-0.9c-0.1-0.4-0.1-1-0.2-1.8c-0.1-0.8-0.2-1.5-0.2-2
			c-0.1-0.5-0.1-1-0.2-1.4c0-0.4-0.1-0.8-0.1-1C471.8,44,471.7,43.9,471.7,43.9z M479.6,30.8c0-0.9,0-1.6-0.1-2.1
			c-0.1-0.7-0.2-1.2-0.3-1.4c-0.1-0.3-0.3-0.4-0.6-0.4c-0.4,0-0.8,0.3-1.1,0.8c-0.3,0.5-0.5,1.2-0.6,2c-0.1,0.8-0.3,1.7-0.4,2.7
			c-0.2,1-0.3,1.9-0.3,2.8c0,0.9,0,1.8,0,2.5c0,0.7,0,1.3,0,1.6c0,0.6,0,1.3,0,1.8c0,0.6,0,1.1,0.1,1.6c0,0.5,0.1,0.9,0.1,1.3
			c0,0.4,0.1,0.6,0.1,0.8l0,0.2c0.6-1.7,1.1-3.4,1.5-5.1c0.2-0.7,0.4-1.5,0.5-2.3c0.2-0.8,0.3-1.6,0.5-2.3c0.2-0.8,0.3-1.5,0.4-2.3
			C479.6,32.2,479.6,31.5,479.6,30.8z"/>
		<path class="st0" d="M491.7,59.3c-1.2,0-2.3-0.2-3.2-0.7c-0.9-0.4-1.7-1-2.4-1.8c-0.7-0.7-1.2-1.6-1.6-2.6c-0.4-1-0.6-2-0.7-3.1
			c-0.1-0.7,0-1.5,0.2-2.5c0.2-1,0.4-1.8,0.6-2.6c0.2-0.8,0.5-1.5,0.9-2.2c0.4-0.7,0.8-1.3,1.4-1.8c0.5-0.5,1.1-0.9,1.8-1.3
			c0.7-0.3,1.5-0.5,2.4-0.5c0.7,0,1.4,0.1,2,0.3c0.6,0.2,1.2,0.6,1.7,1c0.5,0.4,0.9,0.9,1.2,1.5c0.3,0.6,0.5,1.2,0.6,2
			c0.1,0.8-0.1,1.6-0.6,2.6c-0.4,1-1,1.8-1.6,2.5c-0.6,0.7-1.4,1.3-2.3,1.8c-0.9,0.5-1.9,1-3,1.3c0.2,0.3,0.4,0.6,0.6,0.8
			c0.2,0.2,0.4,0.4,0.6,0.5c0.2,0.1,0.4,0.2,0.6,0.3c0.2,0.1,0.4,0.1,0.7,0.1c0.8,0,1.6-0.1,2.4-0.5c0.8-0.3,1.6-0.7,2.4-1.1
			c0.8-0.4,1.5-0.9,2.2-1.5c0.7-0.5,1.2-1,1.7-1.5l2.7,2.5c-1,1.2-2.1,2.3-3.3,3.2c-0.5,0.4-1.1,0.8-1.7,1.2c-0.6,0.4-1.2,0.7-1.9,1
			c-0.7,0.3-1.4,0.5-2.1,0.7C493.3,59.2,492.5,59.3,491.7,59.3z M488.4,50.1c0.5,0,1-0.1,1.5-0.3c0.5-0.2,1-0.5,1.4-0.9
			c0.4-0.4,0.9-0.9,1.3-1.5c0.4-0.6,0.6-1.1,0.5-1.5c0-0.6-0.2-1-0.4-1.4c-0.2-0.4-0.5-0.5-0.8-0.5c-0.6,0-1,0.1-1.4,0.3
			c-0.4,0.2-0.7,0.5-0.9,0.8c-0.2,0.3-0.4,0.7-0.5,1.1c-0.1,0.4-0.3,0.9-0.4,1.5c-0.2,0.6-0.2,1.1-0.2,1.5
			C488.3,49.5,488.3,49.8,488.4,50.1z"/>
		<path class="st0" d="M499.2,53c-0.1-1-0.2-1.8-0.3-2.5c-0.1-0.7-0.2-1.4-0.3-1.9c-0.1-0.6-0.2-1.1-0.2-1.6c-0.1-0.5-0.1-1-0.1-1.5
			c-0.1-1.7-0.2-2.9-0.1-3.7c0.1-0.7,0.3-1.1,0.7-1.2l2.4-0.4l0.2,0c0.1,0,0.1,0,0.2,0c0.3,0,0.6,0.1,0.8,0.4
			c0.2,0.3,0.3,0.6,0.4,0.9l0.8,12.7l0.1,0l4.1-12.8c0-0.2,0.1-0.4,0.2-0.5c0.1-0.2,0.3-0.3,0.5-0.4c0.2-0.1,0.4-0.2,0.7-0.3
			c0.2-0.1,0.5-0.1,0.8-0.1c0.7,0,1.3,0.2,1.8,0.5c0.5,0.3,0.7,0.7,0.8,1.2c0,0.4,0,0.7-0.1,1c-0.1,0.4-0.2,0.7-0.3,1.1
			c-0.3,0.7-0.4,1.1-0.5,1.2c-0.5,1.4-0.7,2.2-0.8,2.4c-0.1,0.2-0.1,0.5-0.2,0.7c0,0.2-0.1,0.5-0.1,0.7c0,0.3,0,0.6,0,0.9
			c0,0.3,0.1,0.6,0.2,0.9c0.1,0.3,0.3,0.6,0.5,0.8c0.2,0.2,0.5,0.4,0.8,0.6c0.3,0.1,0.8,0.2,1.3,0.2c0.4,0,0.8-0.1,1.3-0.3
			c0.5-0.2,0.9-0.4,1.4-0.7c0.5-0.3,1-0.6,1.5-1l0.4,4.5c-0.8,0.5-1.6,1-2.5,1.3c-0.9,0.3-1.7,0.5-2.5,0.5c-0.7,0-1.3-0.1-1.9-0.3
			c-0.6-0.2-1-0.5-1.5-0.9c-0.4-0.4-0.7-0.8-1-1.2c-0.3-0.4-0.4-0.9-0.5-1.4c-0.3,0.8-0.7,1.6-1.1,2.4c-0.4,0.8-0.8,1.5-1.3,2.2
			c-0.4,0.7-0.9,1.2-1.4,1.6c-0.5,0.4-0.9,0.6-1.3,0.6c-0.8,0-1.4-0.2-1.9-0.6c-0.5-0.4-0.8-0.9-1.1-1.4c-0.3-0.6-0.5-1.2-0.6-1.9
			c-0.1-0.7-0.2-1.3-0.3-1.9L499.2,53z"/>
		<path class="st0" d="M522.8,59.3c-1.2,0-2.3-0.2-3.2-0.7c-0.9-0.4-1.7-1-2.4-1.8c-0.7-0.7-1.2-1.6-1.6-2.6c-0.4-1-0.6-2-0.7-3.1
			c-0.1-0.7,0-1.5,0.2-2.5c0.2-1,0.4-1.8,0.6-2.6c0.2-0.8,0.5-1.5,0.9-2.2c0.4-0.7,0.8-1.3,1.4-1.8c0.5-0.5,1.1-0.9,1.8-1.3
			c0.7-0.3,1.5-0.5,2.4-0.5c0.7,0,1.4,0.1,2,0.3c0.6,0.2,1.2,0.6,1.7,1c0.5,0.4,0.9,0.9,1.2,1.5c0.3,0.6,0.5,1.2,0.6,2
			c0.1,0.8-0.1,1.6-0.5,2.6c-0.4,1-1,1.8-1.6,2.5c-0.6,0.7-1.4,1.3-2.3,1.8c-0.9,0.5-1.9,1-3,1.3c0.2,0.3,0.4,0.6,0.6,0.8
			c0.2,0.2,0.4,0.4,0.6,0.5c0.2,0.1,0.4,0.2,0.6,0.3c0.2,0.1,0.4,0.1,0.7,0.1c0.8,0,1.6-0.1,2.4-0.5c0.8-0.3,1.6-0.7,2.4-1.1
			c0.8-0.4,1.5-0.9,2.2-1.5c0.7-0.5,1.2-1,1.7-1.5l2.7,2.5c-1,1.2-2.1,2.3-3.3,3.2c-0.5,0.4-1.1,0.8-1.7,1.2c-0.6,0.4-1.2,0.7-1.9,1
			c-0.7,0.3-1.4,0.5-2.1,0.7C524.3,59.2,523.5,59.3,522.8,59.3z M519.4,50.1c0.5,0,1-0.1,1.5-0.3c0.5-0.2,1-0.5,1.4-0.9
			c0.4-0.4,0.9-0.9,1.3-1.5c0.4-0.6,0.6-1.1,0.5-1.5c0-0.6-0.2-1-0.4-1.4c-0.2-0.4-0.5-0.5-0.8-0.5c-0.6,0-1,0.1-1.4,0.3
			c-0.4,0.2-0.7,0.5-0.9,0.8c-0.2,0.3-0.4,0.7-0.5,1.1c-0.1,0.4-0.3,0.9-0.4,1.5c-0.2,0.6-0.2,1.1-0.2,1.5
			C519.4,49.5,519.4,49.8,519.4,50.1z"/>
		<path class="st0" d="M538.1,47.1c0.2,0.8,0.4,1.6,0.6,2.4c0.2,0.7,0.5,1.4,0.9,2c1.5,2,5.8-0.7,2.7-3.3c0,0,0,0,0,0
			c-0.1-0.3-0.2-0.7-0.2-1.2c0-0.3,0-0.6,0-1c0-0.4,0.1-0.9,0.2-1.5c0.1-0.6,0.1-1.1,0.2-1.5c0-0.4,0-0.7,0-0.9
			c0-0.3-0.1-0.5-0.2-0.8c-0.1-0.2-0.3-0.4-0.5-0.6c-0.2-0.2-0.4-0.3-0.6-0.4c-0.2-0.1-0.5-0.1-0.7-0.1c-0.7,0-1.3,0.2-1.8,0.6
			c-0.5,0.4-0.9,0.8-1.3,1.4c-0.4,0.6-0.7,1.2-1,2.1c-0.3,0.8-0.6,1.5-0.8,2h-0.2c-0.1-0.7-0.1-1.4-0.1-2.3c0-0.9,0-1.5-0.1-2
			c0-0.4-0.1-0.7-0.1-0.9c0-0.2-0.1-0.4-0.2-0.5c-0.1-0.1-0.2-0.2-0.4-0.2c-0.2,0-0.5,0-0.8,0c-0.3,0-0.5,0-0.7,0
			c-0.2,0-0.4,0.1-0.5,0.2c-0.1,0.1-0.2,0.2-0.3,0.4c-0.1,0.2-0.2,0.4-0.3,0.7c-0.1,0.4-0.2,1-0.4,1.6c-0.1,0.7-0.2,1.5-0.4,2.4
			c-0.1,1-0.3,1.9-0.3,2.8c-0.1,0.9-0.1,1.7-0.2,2.5c0,0.8-0.1,1.6-0.1,2.4c0,0.8,0,1.4,0.1,2c0,0.5,0.1,1,0.2,1.5
			c0.1,0.5,0.3,0.9,0.5,1.3c0.2,0.4,0.5,0.7,0.8,0.9c0.3,0.2,0.8,0.3,1.3,0.3c0.2,0,0.4,0,0.6-0.1c0.2-0.1,0.4-0.2,0.5-0.4
			c0.1-0.2,0.3-0.5,0.4-0.8c0.1-0.3,0.3-0.7,0.4-1.2l2.6-9.6L538.1,47.1L538.1,47.1z"/>
	</g>
	<g>
		<path class="st1" d="M76.7,267.6C51.8,286.1,25.1,301.9,0,320c0.3,0.7,0.6,1.4,0.9,2.1c1.4-0.3,3-0.1,4.1-0.9
			c23.2-15.5,46.4-31.1,69.6-46.6c5.3-3.6,10.4-7.5,15.7-10.9c1.1-0.7,3.6-0.6,4.5,0.2c4.8,4.7,9.3,9.7,14.3,15
			c-4.7,4.7-9.3,9.1-13.9,13.7c-14,13.9-53.2,51.2-67.2,65.1c-1.6,1.6-3.7,2.7-5.1,4.4c-0.8,0.9-0.6,2.5-0.9,3.9
			c1.3-0.3,3-0.3,3.8-1.1c8.4-8.3,41.9-40.2,50.3-48.5c11.7-11.5,23.5-22.8,35.5-34.4c1.4,0.6,2.9,1.2,5.3,2.3
			c0.1-2.5,0.1-4.6,0.2-7.1c3.1-5.8,7.7-4.7,12.3-0.8c4.5-4.4-0.4-6.4-2-9.7c2.9-1.8,5.8-3.6,8.7-5.5c0.9-0.6,2.1-1.5,2.3-2.4
			c0.2-0.6-0.9-2.1-1.7-2.3c-1.1-0.2-2.6,0-3.6,0.7c-1.8,1.1-3.4,2.6-4.8,4.2c-2.6,3-5,3-8,0.3c-3.8-3.5-7.9-6.7-12.3-10.4
			c13.5-7.8,22.2-19,26.8-33.4c4.3,5.9,8.5,11.6,12.6,17.3c7.5,3.1,12.2,10.5,19,7.8c-0.9-0.1-1.8-0.3-2.7-0.5
			c-6-0.8-8.8-5-11.8-9.9c11.1,0.8,11.8,0.4,14.3-7.5c4.5,6.7,8.7,13.1,13.2,19.9c1.3,0.2,2.5,0.4,3.7,0.4c1.2-0.4,2.4-0.8,3.7-1.4
			c9-3,17.1-8.5,24.9-12.6c3.9-2.1,7.8-3.7,11.6-4.5c-0.5-0.5-1.2-0.9-2.1-1.6c11.5-8.1,22.5-16,33.7-23.7c8.5-5.9,8.9-5.9,4.6-15.1
			c-2.2-4.7-4.6-9.3-7.1-13.8c0,0-0.1,0-0.1,0c-5.8-10.3-12.6-21.7-12.6-21.7l-0.5,0.1c-4.4-6.5-9-12.9-13.7-19.2
			c-1.2-1.6-3.5-2.2-5.3-3.3c-0.9,1.9-1.7,3.8-2.6,5.7c-0.6,1.2-1.2,2.6-2.2,3.4c-14,11.3-28.1,22.5-42.1,33.8c-2.5,2-4.8,4.3-7.5,6
			c-3.6,2.3-1.7,5.1-1.1,7.8c2-0.6,4.4-0.6,6-1.8c10.4-8,20.6-16.3,31.4-24.9c11.4,16.8,26.4,30.9,35.2,50.2
			c-15,9.8-30.1,19.7-44.8,29.3c-1.5-3-2.6-6-4.4-8.5c-6.5-9-13.3-17.9-20-26.9c-0.9-1.2-1.3-2.7-2-4.1c0.2-0.2,0.3-0.4,0.5-0.5
			c-2-1.4-4.2-2.4-6.7-3.1c1.6-1.2,1.9-2.9,2.5-4.6c-3.6-1.3-7.1-2.7-10.5-4.4c-1.8,2.7-4,4.8-6.6,6.3c-1.1,1.4-2.1,2.8-3.4,3.4
			c-4.4,2.2-9.3,3.5-13.7,5.8c-0.4,0.2-0.8,0.7-1.2,1.1c0.5,1.4,0.9,2.9,1.4,4.3c0.9,2,1.8,4,2.7,5.9c0.5,0.7,1,1.3,1.5,2
			c-3.3,9.2-9.9,16.3-15.6,23.9c-2.7,3.6-7.2,5.9-10.9,8.7c-0.6,0.5-2.3,0.6-2.7,0.2c-1.1-1.1-1.9-2.6-2.4-4
			c-0.3-0.9,0.3-2.1-0.5-3.6c-3.7,3.7-7.5,7.3-11.2,11c0.2,0.2,0.4,0.3,0.7,0.5c-1.3,0.3-2.6,0.6-3.9,0.8c0.5,1.7,1,3.4,1.7,5.7
			c-1.2,0.6-5.5,5-7.3,5.8L76.7,267.6z M219.5,179.5c0,0,0.7-0.6,2-1.6c-3.6-4.6-7.2-9.1-10.6-13.5c1.8-1.4,3.4-2.6,5.2-3.9
			l15.1,21.9c0.6,1.9,0.5,3.9-1.2,6.2c-2.7-3.4-5.4-6.9-8.1-10.3C220.9,178.7,220.1,179.1,219.5,179.5z M235.7,180.7
			c1.3-0.3,2.4-0.7,3.3-1.2c0.1,0,0.2,0,0.2,0l0.1-0.2c2.1-1.2,2.8-2.8,2.1-5.1c0,0-1.9-8-5.9-12c-0.9-0.9-1.9-1.2-2.8-1
			c-0.6-0.3-1.1-0.7-1.7-1c-0.5,2-1.6,4-1.7,5.9c-0.3,2,0.1,4.3,1.4,6.5c0.8,1.2,1.5,2.2,2.3,3c-0.3,0.1-0.6,0.1-0.9,0.2
			c-1-1.4-2-2.8-3-4.2c0.1-0.1,0.1-0.1,0.2-0.2c-5.2-7.2-10.5-14.4-15.4-21.2c3-6.9,9.2-5.4,15.5-6.7c1.7,2.9,3.5,5.9,5.3,8.9
			c1.9,3.9,17.3,30.3,21.7,37.8c1.5,4-0.3,5.3-7,9.2C245,193.2,240.4,187,235.7,180.7z M190.2,239.5c-2.3,1.4-4.5,2.7-6.5,4
			c-2-3.3-3.8-6.3-5.7-9.4c2-1,3.6-1.8,5.1-2.6C185.5,234.2,187.7,236.7,190.2,239.5z M177.7,221.4c1.1,1.8,2.1,3.4,3.4,5.5
			c-2,1.7-3.4,3-5.2,4.5c-1.8-2.6-3.5-5-5.2-7.4C173.3,223.1,175.3,222.3,177.7,221.4z M173.9,217.7c-1.7,0.9-3.4,1.9-5.3,2.9
			c-1-1.5-2.1-2.9-3.3-4.8C171,211.8,171.1,211.8,173.9,217.7z M168,208.8c-1.7,1.2-3.3,2.5-5.1,3.8c-1.4-2.1-2.4-3.7-3.4-5.3
			C163,204.3,165.8,203.7,168,208.8z M154.5,192.4c2.7,2.9,5,5.3,7.6,8.1c-2.1,1.4-3.6,2.3-5.5,3.6
			C156.1,199.9,149.7,197.7,154.5,192.4z M147.7,200.3c0.2-0.2,0.6-0.3,1.4-0.6c4.5,6.7,8.9,13.1,13.6,20.1
			c-9.3-2.6-12.1-0.3-12.5,10.1c-2-2.5-3.9-4.6-5.5-6.9C133.4,207.8,133.9,212.5,147.7,200.3z M100.2,256.2c1.4,0.1,1.9,0,2.2,0.2
			c4,3.1,7.9,6.2,11.8,9.3c4.8,3.8,4.8,4.3-0.6,8.1C109.3,268.1,105,262.4,100.2,256.2z M183.5,249.7c-1.1-0.1-2.2-0.3-3.3-0.6
			c0.1,0.1,0.1,0.3,0.2,0.4c-4.2-1.1-8.1-2.1-11.9-3c-6.2,2-10.1-4.8-16.6-8.1c0.9,1.4,1.8,2.8,2.6,4.1c0,0,0,0,0,0.1
			c-0.2,0.1-0.4,0.1-0.6,0.2c-1.7,0.6-3.2,1-4.7,1.5c0,0.5,0,0.9,0,1.4c7.5,4.2,16.5,3.4,24.5,6.8c-1.2,1.3-2.2,2.5-3.2,3.7
			c0.1,0.5,0.2,0.9,0.4,1.4c1.6-0.1,3.7,0.3,4.8-0.5c4.7-3.3,8.7-2.5,13.6,2c-3.1,2.8-6.1,7.9-9.2,7.9c-3.6,0-9.8,0.5-11.9-5.6
			c-7.4,2.2-12.9-3-19.1-5.5c-3.4-1.3-5-0.5-7,2.5c3.7,1.2,7.1,2,10.2,3.6c8.6,4.4,17.4,7.9,26.9,10c2.9,0.6,4.2,0.1,5.7-1.7
			c2-2.5,3.8-5.1,6-7.4c7.9-8.2,17.3-14.2,27.9-18.5c7.3-2.9,7.2-3.2,2-8.9c0,0-0.1-0.1-0.1-0.1c-3.5,0.5-7,1.7-10.7,3.4
			c-7.2,3.2-14.8,7.8-23.1,10C185.7,249.2,184.6,249.4,183.5,249.7z M217.3,239.5c-2.8,1.8-5.9,2.9-8.8,4.5c-5,2.8-9.7,6.1-14.7,9
			c-1.2,0.7-3,0.5-4.5,0.7c-0.1-0.6-0.3-1.2-0.4-1.8C198.8,248.7,206.2,240.2,217.3,239.5z"/>
		<path class="st0" d="M201.3,180.7l-5.9-8l8.1-5.9l-1.5-2l-9.3,6.8c-0.7,0.5-0.9,1.4-0.5,1.9l7.4,10c0.4,0.6,1.3,0.6,2,0.1l9.3-6.8
			l-1.5-2L201.3,180.7z M202.3,226.3l-7.4-10c-0.4-0.6-1.3-0.6-2-0.1l-6.8,5l1.5,2l5.6-4.1l5.9,8l-5.6,4.1l1.5,2l6.8-5
			C202.5,227.7,202.7,226.8,202.3,226.3z M181,197.2l-7.4-10c-0.4-0.6-1.3-0.6-2-0.1l-6.8,5l1.5,2l5.6-4.1l5.9,8l-5.6,4.1l1.5,2
			l6.8-5C181.1,198.6,181.4,197.8,181,197.2z M191.6,211.7l-7.4-10c-0.4-0.6-1.3-0.6-2-0.1l-6.8,5l1.5,2l5.6-4.1l5.9,8l-5.6,4.1
			l1.5,2l6.8-5C191.8,213.2,192,212.3,191.6,211.7z M212,195.3l-5.9-8l8.1-5.9l-1.5-2l-9.3,6.8c-0.7,0.5-0.9,1.4-0.5,1.9l7.4,10
			c0.4,0.6,1.3,0.6,2,0.1l9.3-6.8l-1.5-2L212,195.3z M219.1,214l-7.4-10c-0.4-0.6-1.3-0.6-2-0.1l-12.4,9.1c-0.7,0.5-0.9,1.4-0.5,1.9
			l7.4,10c0.4,0.6,1.3,0.6,2,0.1l12.4-9.1C219.2,215.4,219.5,214.5,219.1,214z M205.9,222.1l-5.9-8l9.9-7.3l5.9,8L205.9,222.1z
			 M197.7,184.9l-7.4-10c-0.4-0.6-1.3-0.6-2-0.1l-12.4,9.1c-0.7,0.5-0.9,1.4-0.5,1.9l7.4,10c0.4,0.6,1.3,0.6,2,0.1l12.4-9.1
			C197.9,186.3,198.1,185.5,197.7,184.9z M184.6,193l-5.9-8l9.9-7.3l5.9,8L184.6,193z M230.7,203.9l-8.1,5.9l-5.9-8l8.1-5.9l-1.5-2
			l-9.3,6.8c-0.7,0.5-0.9,1.4-0.5,1.9l7.4,10c0.4,0.6,1.3,0.6,2,0.1l9.3-6.8L230.7,203.9z M208.4,199.4l-7.4-10
			c-0.4-0.6-1.3-0.6-2-0.1l-12.4,9.1c-0.7,0.5-0.9,1.4-0.5,1.9l7.4,10c0.4,0.6,1.3,0.6,2,0.1l12.4-9.1
			C208.6,200.9,208.8,200,208.4,199.4z M195.2,207.6l-5.9-8l9.9-7.3l5.9,8L195.2,207.6z"/>
	</g>
	<g>
		<path class="st8" d="M179.4,140.4c-0.1-0.1-0.3-0.2-0.4-0.4c-0.4-0.3-0.8-0.6-1.3-0.9c-0.6-0.4-2.5-1.6-4.1-2.6
			c-0.8-0.5-1.5-0.9-1.8-1.1l-2.7-1.7l-1.3-0.8c-0.4-0.3-0.9-0.6-1.3-0.8c-1.8-1.2-3.3-2.5-4.4-3.8c-1.1-1.3-2-2.7-2.5-4
			c-0.3-0.9-0.5-1.8-0.6-2.6c-0.1-0.9-0.1-1.8,0.1-2.6c0.3-1.6,1-3.1,2.1-4.4c0.9-1.1,2.1-2,3.3-2.6c0.3-0.1,0.6-0.3,0.9-0.4l0.1,0
			c0.3-0.1,0.6-0.2,0.8-0.2c0.6-0.1,1.2-0.2,1.8-0.2c0,0,0,0,0,0c1,0,2,0.2,3.1,0.5c0.7,0.3,1.5,0.6,2.2,1c1.2,0.7,2,1.4,2.5,1.8
			c0.4,0.4,0.6,0.8,0.7,1.2c0.1-0.1,0.3-0.2,0.4-0.4c0.2-0.2,0.4-0.3,0.5-0.5c0.1-0.1,0.3-0.3,0.4-0.4c0.2-0.2,0.3-0.3,0.5-0.5
			c0.2-0.2,0.4-0.4,0.5-0.6l0.3-0.3c0.3-0.3,0.6-0.6,0.9-0.9c0.1-0.1,0.2-0.2,0.3-0.3c0.1-0.1,0.3-0.2,0.4-0.3
			c0.3-0.2,0.7-0.4,1.2-0.6c0.3-0.1,0.5-0.2,0.8-0.3c0.3-0.1,0.5-0.1,0.8-0.2l0.1,0c0.5-0.1,1-0.1,1.4-0.1c0.3,0,0.6,0,0.8,0.1
			c0.4,0,0.7,0.1,1.1,0.2l0.1,0l0.2,0c0.4,0.1,0.7,0.2,1.1,0.4c0.9,0.4,1.7,1,2.4,1.7c1.5,1.5,2.4,3.6,2.6,5.8
			c0.1,1.1,0,2.2-0.2,3.4c-0.2,0.9-0.5,1.6-0.8,2.4l-0.2,0.6c-0.8,1.9-1.9,3.8-3.1,5.6c-1.2,1.7-2.6,3.3-4.3,4.9
			c-0.8,0.8-1.6,1.5-2.4,2.1c-0.4,0.3-0.8,0.7-1.3,1c-0.2,0.2-0.4,0.3-0.7,0.5l-0.1,0.1c0,0,0.1,0.1,0.1,0.1l0,0l0,0
			c0,0,0.1,0.1,0.1,0.1l0,0l0.2,0.3l-0.2,0.2c-0.1,0.1-0.2,0.2-0.3,0.3l-0.1,0.1l-0.7,0.6L179.4,140.4z"/>
		<path class="st8" d="M168.6,135.3c-0.5-0.3-0.9-0.6-1.4-0.9c-0.5-0.3-1-0.6-1.5-0.9c-1.9-1.3-3.5-2.7-4.8-4.2
			c-0.5-0.6-0.9-1.1-1.3-1.7c0,0,0,0-0.1,0c-0.1,0.1-0.1,0.1-0.2,0.2c-0.4,0.3-0.6,0.6-0.9,0.9c-0.1,0.2-0.3,0.3-0.4,0.4
			c-0.1,0.1-0.3,0.3-0.4,0.4c-0.3,0.2-0.5,0.5-0.7,0.7c-0.2,0.2-0.4,0.4-0.6,0.6c0-0.4-0.2-0.9-0.6-1.2c-0.3-0.3-0.9-0.8-1.8-1.3
			c-0.5-0.3-1-0.5-1.6-0.7c-0.6-0.2-1.4-0.4-2.3-0.4c-0.4,0-0.9,0-1.4,0.2c-0.2,0-0.5,0.1-0.7,0.2c-0.2,0.1-0.4,0.2-0.7,0.3
			c-0.9,0.4-1.7,1.1-2.5,1.9c-0.7,0.9-1.3,1.9-1.5,3.2c-0.1,0.6-0.1,1.3-0.1,1.9c0.1,0.7,0.2,1.3,0.5,1.9c0.3,0.9,1,2,1.8,3
			c0.9,1,2,2,3.3,2.9c0.3,0.2,0.7,0.4,1,0.6c0.3,0.2,0.6,0.4,1,0.6c0.7,0.4,1.3,0.8,2,1.3c0.7,0.4,3.8,2.4,4.5,2.8
			c0.3,0.2,0.7,0.5,1,0.7c0.1,0.1,0.3,0.2,0.4,0.3l0,0l0,0c0,0,0,0,0,0l0.1-0.1l0.1-0.1l0.1-0.1c0.1-0.1,0.2-0.1,0.2-0.2l0.2-0.1
			l-0.1,0.1l-0.1,0h0l0,0c-0.1-0.1-0.2-0.2-0.3-0.3c0,0-0.1,0-0.1-0.1l0.1,0l0.3-0.2c0.2-0.1,0.3-0.2,0.5-0.4c0.3-0.2,0.7-0.5,1-0.7
			c0.6-0.5,1.2-1,1.8-1.6c1.2-1.1,2.3-2.3,3.2-3.7c0.9-1.3,1.7-2.7,2.3-4.2c0.2-0.7,0.5-1.3,0.7-2
			C168.7,135.4,168.7,135.3,168.6,135.3z"/>
	</g>
</g>
</svg>
