<?xml version="1.0" encoding="utf-8"?>
<!-- Generator: Adobe Illustrator 19.1.0, SVG Export Plug-In . SVG Version: 6.00 Build 0)  -->
<svg version="1.1" id="Layer_1" xmlns="http://www.w3.org/2000/svg" xmlns:xlink="http://www.w3.org/1999/xlink" x="0px" y="0px"
	 viewBox="0 0 164 172.2" style="enable-background:new 0 0 164 172.2;" xml:space="preserve">
<style type="text/css">
	.st0{fill-rule:evenodd;clip-rule:evenodd;fill:#FFFFFF;}
	.st1{fill:#FFFFFF;}
	.st2{fill-rule:evenodd;clip-rule:evenodd;fill:#FFDE19;}
</style>
<g>
	<g>
		<path class="st0" d="M122.3,46.3c2,4.1,4.3,8.2,6.1,12.4c2.9,6.8,5.5,13.7,7.3,21c0,0.2,0.3,0.4,0.4,0.5c0.1-0.2,0.3-0.5,0.3-0.7
			c-0.1-1.4-0.3-2.8-0.5-4.2c-0.1-0.6-0.2-1.2-0.3-1.7c-0.1-0.3-0.2-0.6-0.3-0.9c-0.2,0.2-0.4,0.5-0.6,0.7c-1-2.7-1.9-5.5-2.9-8.3
			c0.2,0.2,0.4,0.4,0.5,0.7c1.2,2.2,2.4,4.5,3.5,6.7c0.7,1.4,1.3,2.8,2,4.1c0.1,0.2,0.4,0.3,0.6,0.5c0.1-0.1,0.2-0.1,0.2-0.2
			c-0.1-0.4-0.2-0.8-0.4-1.2c-1.7-3.2-3.3-6.4-5-9.5c-0.4-0.8-0.8-1.7-1.5-2.2c-0.8-0.6-1-1.4-1.3-2.1c-0.1-0.1-0.1-0.4,0-0.5
			c0.2-0.4-0.1-1.8-0.5-2c-0.1,0-0.3,0.1-0.5,0.2c-0.2-0.5-0.5-1.1-0.5-1.6c0.2-1.1-0.6-1.7-1-2.5c-0.3-0.5-0.6-0.9-0.8-1.4
			c-0.2-0.3-0.1-0.7-0.3-1.1c-2.8-5.1-5.6-10.2-8.4-15.2c-0.4-0.7-0.7-1.5-1.1-2.2c1.3,3.4,3.2,6.6,4.5,9.8
			C122,45.8,122.1,46,122.3,46.3z"/>
		<path class="st0" d="M123.9,33.1c-0.1-0.1-0.2-0.2-0.2-0.3C123.7,32.9,123.8,33,123.9,33.1z"/>
		<path class="st0" d="M123.9,33.1c-0.1-0.1-0.2-0.2-0.2-0.3c0,0,0,0-0.1-0.1c0,0,0,0,0,0c-0.3-0.4-0.5-0.8-0.8-1.2
			c-0.1-0.1-0.2-0.1-0.3-0.2c-1.5-1.8-3-3.6-4.5-5.4c-1.5-1.8-3.1-3.5-4.5-5.2c0.2-0.2,0.5-0.5,0.5-0.6c-0.3-0.7-0.8-1.3-1.7-1.3
			c-0.2,0-0.5,0-0.6-0.1c-0.9-1-1.8-2-2.6-3.1c-0.4-0.5-0.6-1-0.9-1.5c0.1-0.2,0.5-0.7,0.4-0.9c-0.7-1.4-1.6-2.7-2.4-4
			c-0.3-0.5-1-1-1-1.5c-0.1-0.8-0.4-1.2-1-1.7c-0.4-0.3-0.7-0.7-1-1.1c-0.9-1.4-1.8-2.8-2.7-4.2c-0.2-0.3-0.5-0.5-0.8-0.7
			c0,0.4-0.1,0.7,0,1.1c0.2,0.9,0.5,1.9,0.7,2.8c0.1,0.6,0.2,1.3,0.3,2.1c-1-0.4-1.9-0.6-2.7-0.9c-2.4-1.1-4.8-2.2-7.1-3.3
			c-1-0.5-1-0.6-1.7,0.4c-0.3,0.4-0.6,0.9-0.9,1.4c-1.5-1.2-3-1.9-5-1.8c-1.9,0.1-3.4,1.2-3.6,3c-0.1,1.9,0.2,3.7,0.3,5.6
			c0,0.2,0.1,0.4,0.2,0.4c0.3,0.1,0.7,0.2,0.9,0.1c0.3-0.3,0.5-0.8,0.7-1.2c0,0-0.2-0.1-0.2-0.2c-0.4-0.4-0.9-0.8-1-1.2
			c-0.2-1-0.2-2-0.2-3.1c0-1.1,0.6-1.9,1.6-2.3C84,2,86.3,2.5,88,4.4c-0.3,0.5-0.6,1-1,1.5c-0.6-0.4-1.2-0.8-1.9-1.1
			c-0.4-0.2-0.8-0.5-1.3-0.6c-0.6-0.2-1.1,0.2-0.8,0.8c0.4,0.8,0.7,1.6,1.2,2.2c0.8,0.9,1.3,1.8,0.7,3.1c-0.2,0.4-0.1,0.9,0.5,0.8
			c1.2-0.2,1.6,0.5,2,1.4c0.2,0.5,0.6,1,0.8,1.5c0.1,0.3,0.3,0.7,0.3,1.1c0.4,0.7,0.7,1.4,1,2.1c0-0.1,0-0.1,0.1-0.2
			c0.3,0.4,0.5,0.6,0.7,0.8c0.4,0.6,0.8,0.9,1.5,0.4c0.2-0.2,0.5-0.2,0.8-0.2c2.5,0,5-0.1,7.4,0c0.7,0,1.5,0.4,2.2,0.5
			c0.6,0.1,1.3,0.1,1.9,0.2c0-0.1,0.1-0.2,0.1-0.3c0.7,0.7,1.3,1.5,2,2.2c-0.6,0.5-1.2,1-1.7,1.5c-0.4,0.4-0.7,0.8-0.9,1.2
			c-0.4,0.8-0.1,1.3,0.8,1.3c0.4,0,0.9-0.1,1.4-0.2c0,0,0.1,0.1,0.1,0.1c-0.2,1.5,0.1,1.9,1.6,1.7c0.8-0.1,1.5-0.4,2.4-0.6
			c0.5,0.7,1.1,1.6,1.7,2.5c0,0,0-0.1,0-0.1c0,0,0,0.1,0,0.1c0.1,0.1,0.1,0.2,0.2,0.3c0,0-0.1,0-0.1,0c0.6,1.6,2.2,2.2,2.4,3.6
			c0.7,1.1,1.4,2.3,2.1,3.4c0.3,0,0.7,0,1,0c-0.1-0.2-0.3-0.4-0.5-0.7c-1.2-1.4-2.1-3.2-3-4.8c0.2-0.1,0.4-0.2,0.6-0.4
			c-0.4-0.3-0.8-0.4-1-0.7c-0.7-0.9-1.4-1.8-2-2.7c-0.9-1.3-1.8-2.6-2.8-4.1c1-0.5,1.9-0.9,2.9-1.3c0.6-0.2,1.1-0.1,1.5,0.4
			c2.1,2.5,4.4,4.9,6.5,7.4c4.8,5.7,9.2,11.8,13.3,18.1c2.8,4.4,5.5,8.9,8.3,13.4c0.2,0.3,0.4,0.5,0.6,0.8c0.1-0.1,0.2-0.2,0.3-0.2
			C136.4,50.9,130.5,41.9,123.9,33.1z M101.1,3.1c0.6,0.9,1.1,1.8,1.7,2.8c-1.5,0.1-1.5,0.1-1.7-1.2C101.1,4.1,101.1,3.6,101.1,3.1z
			 M88.7,5c0.3,0.9,0.5,1.7,0.7,2.4c0,0-0.1,0.1-0.1,0.1c-0.5-0.3-1-0.7-1.5-1C88,6,88.3,5.6,88.7,5z M103.4,16.5
			c0,0.5,0,0.8-0.1,1.1c-0.1,0-0.1,0.1-0.1,0.1c-2.1-0.8-4.3-0.1-6.5-0.3c-1.7-0.1-3.4-0.1-5-0.1c-0.9,0-1.6-0.9-1.6-1.8
			c0-0.1,0-0.4,0-0.4c-1.3-1.1-1.6-2.8-2.5-4.2c-1.1-1.8-2.1-3.7-3.2-5.5c0-0.1,0.1-0.1,0.1-0.2c1.6,1.1,3.1,2.2,4.7,3.2
			c0.5,0.3,1,0.5,1.5,0.8c0.1-0.1,0.1-0.2,0.2-0.2c-0.2-0.5-0.2-1.2-0.5-1.4c-0.5-0.3-0.4-0.7-0.5-1c-0.2-0.6-0.4-1.2-0.7-1.7
			c-0.4-0.7-0.3-1.5,0.2-2c0.4-0.4,1.1-0.3,1.7,0c2.6,1.3,5.2,2.5,7.9,3.6c1,0.4,2.1,0.2,3.2,0.3c0.5,0,0.8,0.2,1.1,0.6
			c1.5,1.6,2.9,3.3,3.9,5.5c-1.1,0.4-2.2,0.8-3.3,1.2c-0.2,0.1-0.4,0.4-0.5,0.6c0.3,0,0.6,0.2,0.8,0.1c0.6-0.2,1.2-0.4,1.5-0.6
			c0.5,0.3,0.9,0.4,1.2,0.6c0.2,0.1,0.4,0.2,0.5,0.4c1,1.2,1.9,2.3,2.8,3.5c-1.2,0.4-2.3,0.8-3.5,1.2
			C105.7,19,105.3,17.2,103.4,16.5z M104.3,23.7c-0.1-0.1-0.1-0.2-0.2-0.4c0.8-0.8,1.6-1.5,2.4-2.3c0.9,0.8,0.9,1,0,1.7
			C105.9,23.2,105.1,23.4,104.3,23.7z M108.4,23.4c0.3,0.3,0.6,0.8,0.8,1.1c-0.6,0.2-1.2,0.5-1.8,0.6c-0.3,0.1-0.8,0-1-0.3
			c-0.2-0.3,0.4-1.2,0.9-1.3C107.6,23.6,108,23.5,108.4,23.4z M107.8,21.3c-0.1-0.1-0.2-0.3-0.4-0.6c1.3-0.6,2.5-1.3,4-1
			C110.2,20.3,109.1,20.8,107.8,21.3z"/>
		<path class="st0" d="M13.1,111.4c-0.2-0.2-0.3-0.3-0.5-0.5c-1.1-1.1-1.9-2.6-2.8-3.8C10.6,108.9,11.3,110.6,13.1,111.4z"/>
		<path class="st0" d="M28.1,106.6c-0.7-1-1.6-1.8-2.3-2.7c-0.2-0.3-0.3-0.7-0.4-1.1c-0.4-0.6-0.6-1.3-0.7-2.1
			c-0.9,0-1.8-0.1-2.7-0.2c0,0.4-0.2,0.8,0,1.3c-0.6-0.1-1.2-0.1-1.8,0c0,0.1,0,0.1,0,0.2c-0.3,0.2-0.5,0.5-0.9,0.7
			c-2.4,1.2-4.8,2.4-7.2,3.7c-0.7,0.3-1.2,0.9-1.9,1.4c-2.1-3.7-4.3-7.4-6.5-11.2c4-3.2,8.7-4.6,12.9-7c1.4,3,2.7,5.9,4.1,8.8
			c0.2,0.4,0.7,0.7,1.1,1c0.4-0.5,1.1-0.9,0.6-1.8c-0.4-0.7-0.6-1.4-1-2.1c-1.8-4-3.6-7.9-5.4-11.9c-0.1-0.3-0.1-0.6-0.1-1
			c0-0.5,0-1,0-1.5c-0.5,0-1.1-0.1-1.5,0.1C10,83.4,5.6,86,1.5,89.2c-1.9,1.5-1.8,1.6-0.6,3.8c1.6,2.9,3.1,5.8,4.7,8.8
			c-0.3,0.1-0.4,0.1-0.6,0.1c0.7,0.6,1.4,1.4,2,2.2c-0.4-0.9-0.9-1.9-1.5-2.8c0.6,0.9,1.1,1.8,1.5,2.8c1.2,1.7,2.4,3.8,4,5.4
			c0.2,0.3,0.4,0.5,0.6,0.7c0.3,0.1,0.5,0.2,0.8,0.3c1.7-1,3.3-1.9,5-2.9c-0.3,2-0.2,2.1,2.3,3.2c-1.2,0.7-2.2,1.3-3.6,0.9
			c-0.2-0.1-0.4-0.1-0.6-0.2c1.2,1.3,3,0.2,4.9,0.4c1.9-1,3.9-2,5.9-3.1c0.4-0.3,0.8-0.6,1.2-1c0.3-0.3,0.5-0.5,0.8-0.8
			C28.2,106.9,28.2,106.7,28.1,106.6z M7.7,92.9c-0.2-1.3,0.5-1.7,1.5-2.2c1.6-0.8,3.1-1.6,4.5-2.4c0.2,0.5,0.5,0.9,0.7,1.4
			C12.2,90.7,9.9,91.8,7.7,92.9z M2.8,89.6c3.3-2.2,6.6-4.4,9.8-6.4c1.2,1,2.7,1.3,2.6,3.1c-2,1.1-4.2,2.2-6.3,3.3
			c0-0.1-0.1-0.1-0.1-0.2c0.5-0.4,1.1-0.7,1.4-1.2c0.3-0.4,0.2-1.1,0.4-1.6c-0.5,0.1-1,0-1.4,0.2c-0.6,0.3-1.2,0.8-1.8,1.2
			c-1.1,0.8-1.2,1.5,0,2.4c-1.7,0.9-3.3,1.7-5,2.6C1,91.1,0.9,90.9,2.8,89.6z M23.4,101.9c0.5,1.7-1.1,1.4-1.7,2.3
			c-0.3-0.5-0.5-0.8-0.8-1.4C21.8,102.5,22.5,102.2,23.4,101.9z M20.8,104.5c-0.4,0.2-0.8,0.5-1.3,0.8c-0.2-0.5-0.5-0.9-0.7-1.4
			C19.8,103.1,20.3,103.5,20.8,104.5z M11.7,109.8c-0.3-0.5-0.6-1-1-1.6c0.8-0.3,1.6-0.6,2.4-1c0.2,0.3,0.5,0.7,0.8,1.1
			C13.2,108.8,12.5,109.3,11.7,109.8z M14.7,108c-0.2-0.5-0.4-1-0.6-1.5c0.5-0.3,0.9-0.6,1.3-0.8c0.4,0.5,0.8,0.8,1.2,1.3
			C15.9,107.3,15.3,107.6,14.7,108z M17.4,106.4c-0.3-0.4-0.6-0.8-0.8-1.2c1.2-1,1.3-1,2.1,0.5C18.2,106,17.8,106.2,17.4,106.4z
			 M22.3,109.6c-0.6,0.3-1.2,0.6-1.9,0.9c1-2.3,0.7-3.1-1.6-3.5c1.8-1,3.4-1.9,5.1-2.9c0.1,0.1,0.2,0.2,0.2,0.3
			C25.7,108.4,26.3,107.5,22.3,109.6z"/>
		<path class="st0" d="M23.7,110.2c0.2-0.2,0.3-0.3,0.5-0.5c-0.3,0.2-0.6,0.5-0.9,0.7C23.5,110.3,23.6,110.3,23.7,110.2z"/>
		<path class="st0" d="M15.8,112.3c-0.7-0.2-1.4-0.4-2.2-0.6c0,0,0,0,0.1,0c-0.2-0.1-0.4-0.1-0.6-0.2c1.5,1.6,3.3,2,5.1,1.6
			c-0.2,0-0.5-0.1-0.7-0.2c0.3,0.1,0.5,0.1,0.7,0.2c0.1,0,0.2,0,0.3,0c0.3-0.1,0.5-0.3,0.8-0.4C17.9,112.5,16.6,113.2,15.8,112.3z"
			/>
		<path class="st0" d="M18.5,113.1C18.4,113.1,18.4,113,18.5,113.1C18.4,113,18.4,113,18.5,113.1c-0.1-0.1-0.2-0.1-0.3-0.1
			C18.3,113,18.4,113.1,18.5,113.1z"/>
		<path class="st0" d="M13.1,111.4c-1.8-0.8-2.4-2.5-3.2-4.3c-0.4-0.6-0.9-1.2-1.4-1.6c0,0,0,0,0,0C7,106,7,106,7.9,107.2
			c1.3,1.7,2.3,3.5,2.8,5.6c0.1,0.6,0.2,1.2,0.3,1.8c0.1,0.4,0.2,0.7,0.8,0.8c1.7,0.6,3.5,0.8,5.3,0.9c0.6,0,1.3,0.2,2,0.4
			c0-0.7-0.2-1-0.9-1.1c-1.2-0.2-2.6,0.1-3.6-0.9c-0.9,0.8-1.8,0.1-2.4-0.2c-0.5-0.3-0.5-1.4-0.7-2.2c1.2-0.3,1.9,0,2.4,1
			c0.1,0.2,0.5,0.4,0.7,0.5c0.1-0.1,0.1-0.1,0.2-0.2c-0.1-0.3-0.1-0.6-0.2-0.9c1.6,0.2,3,1.2,4.6,1.2c0-0.1,0.1-0.1,0.1-0.2
			c-0.2-0.2-0.4-0.4-0.6-0.7c-0.1,0-0.2,0-0.3-0.1C16.3,113.4,14.6,113,13.1,111.4z M11.8,111.5c-0.2-0.2-0.5-0.3-0.7-0.5
			c-0.5-0.9-1-1.9-1.5-2.8c-0.3-0.5-0.7-1-1-1.6c1.7,1.2,2.1,3.2,3.4,4.7C11.9,111.3,11.9,111.4,11.8,111.5z"/>
		<path class="st0" d="M34,132.9c0.1,0,0.1-0.1,0.2-0.1c0.7,0.9,1.4,1.9,2.1,2.8c0.1-0.1,0.2-0.1,0.3-0.2c0.1-0.8-0.4-1.3-0.9-2
			c-2.5-3.6-5-7.2-7.5-10.7c-0.2-0.3-0.4-0.6-0.5-0.8c0.3-0.3,0.6-0.5,0.8-0.8c-0.2-0.2-0.4-0.3-0.5-0.5c0.1,0,0.1,0,0.2,0
			c-0.3-0.9-0.5-1.9-0.8-2.8c-0.3,0.2-0.3,0.4-0.4,0.5c-0.2,0.2-0.5,0.3-0.8,0.4c-0.1,0-0.4-0.1-0.4-0.3c-0.3-0.8-0.8-1.6-0.9-2.4
			c-0.2-2-0.7-4-0.1-6c0.1-0.2,0.1-0.5,0.1-0.7c-0.3,0.3-0.7,0.7-1,1c0.1-0.1,0.2-0.1,0.3-0.2c-0.8,3.1-0.6,5.9,1,8.7
			c-1.1,0.2-2,0.3-3,0.5c-0.7,0.2-1.1-0.1-1.3-0.8c-0.1-0.4-0.2-0.8-0.4-1.1c-0.1-0.2-0.3-0.4-0.5-0.4c-0.1,0-0.5,0.1-0.5,0.2
			c0,0.2,0.1,0.4,0.1,0.6c0.3,0.6,0.6,1.2,0.9,1.7c-0.6,0.4-1.5,0.3-1.2,1.4c1.1-0.2,2,0.1,1.9,1.3c-0.2,0.4-0.4,0.8-0.6,1.2
			c0.5,0.1,0.8,0.1,1.1,0.1c0.8,3,1.7,6,2.5,8.9c0.6,2.1,1.1,4.3,1.7,6.4c0.1,0.2,0.3,0.4,0.5,0.5c0.1-0.2,0.3-0.5,0.2-0.7
			c-0.1-0.4-0.3-0.8-0.4-1.2c-1-3.6-1.9-7.1-2.9-10.7c-0.3-1.2-0.6-2.3-1-3.5c1.3-0.4,2.5-0.8,3.7-1.1c0.2-0.1,0.6,0.2,0.7,0.4
			c0.5,1.1,1,2.2,1.5,3.3c2.3,4.7,4.6,9.4,6.9,14.1c0.1,0.2,0.4,0.4,0.6,0.5c0.1-0.1,0.2-0.2,0.3-0.3c-2.3-5.3-5.2-10.4-7.5-15.8
			c1.8,2.5,3.6,5.1,5.3,7.6C34.1,132.2,34,132.6,34,132.9z M22.1,121.9c-0.5-1.1-0.5-1.2,0.7-1.4c0.9-0.1,1.8-0.3,2.8-0.4
			c0.1,0,0.1,0.1,0.4,0.2C24.5,120.9,23.3,121.4,22.1,121.9z"/>
		<path class="st0" d="M86.6,161.6c-0.6,0.6-0.6,1.6-1.5,1.9c-0.1-0.1-0.2-0.1-0.3-0.2c0.3-0.7,0.6-1.4,0.9-2.1
			c-1-0.4-1.9-0.8-2.9-1.2c-0.2-0.1-0.4-0.4-0.5-0.6c-0.1-0.1,0.1-0.4,0.1-0.4c0.2,0,0.4,0,0.5,0.1c0.3,0.2,0.6,0.5,0.9,0.6
			c1.7,0.9,2.2,0.9,3.6-0.5c0.4-0.4,0.7-0.7,1.1-1.1c-1.5-1-2.9-2-4.5-3.1c-2.1,2.6-3.8,5.4-4,9c-0.1,1.4-0.2,2.9-0.4,4.3
			c0,0.3-0.3,0.6-0.5,0.9c-0.1-0.3-0.3-0.6-0.3-1c0-1.1,0.1-2.2,0.2-3.5c-0.3,0.6,0,1.5-1.1,1.4c0.2-0.7,0.2-1.3,0.5-1.9
			c1.7-4.4,2.8-9.1,5.4-13.1c2.7-4,6.3-7,10.8-8.8c7.7-3,15.3-2.9,22.8,0.5c3.7,1.7,6.7,4.2,8.6,7.8c0.5,0.8,1,1.7,0.8,2.7
			c-0.1,0-0.1,0.1-0.2,0.1c-0.5-1-1-2.1-1.6-3c-0.6-1-1.4-1.9-2.2-2.7c-0.8-0.9-1.8-1.6-2.7-2.4c-0.3,1.1-0.5,2-0.7,2.8
			c1.4,1.2,2.9,2.4,4.2,3.6c0.3,0.3,0.4,0.8,0.7,1.3c-1.8-1.5-3.4-2.8-5.1-4.1c-0.7,1.6-1.4,2.9-1.8,4.3c-0.3,0.8-0.7,1-1.4,1
			c-0.3,0-0.6,0-1.1,0.1c0.5-2.2,1.8-4,2.6-6.3c-2.4-0.8-4.7-1.6-7.1-2.3c-0.5,1.7-1.1,3.3-1.5,4.9c-0.1,0.3,0.2,0.7,0.4,1.2
			c-0.3,0-0.6,0-1,0c0,0.1,0,0.1,0,0.2c0.2,0.1,0.3,0.2,0.7,0.5c-0.6,0.1-1,0.2-1.4,0.2c-0.4,0-0.8-0.1-1.2-0.1
			c-0.9,0-1.7-0.1-2.6,0c-1.6,0.2-3.2,0.5-4.8,0.9c-1,0.2-2,0.6-3,0.8c0.1,0.3,0.2,0.5,0.2,0.8c-0.6-0.1-1.1-0.3-1.5-0.1
			c-0.6,0.2-1.1,0.6-1.6,1c-0.6,0.5-1.1,1.1-1.8,1.6c-0.2,0.2-0.6,0.2-0.8,0.2c-0.2,0-0.5,0-0.7,0c0,0.1,0,0.2,0,0.3
			c0.6,0.2,1.2,0.4,1.8,0.6c0.2,0.1,0.3,0.3,0.4,0.4c-0.2,0.1-0.4,0.3-0.5,0.2c-1-0.4-1.5,0.3-2.1,0.8
			C88.8,161,87.9,161.7,86.6,161.6z M92.3,148.2c0.8,1.6,1.5,3,2.2,4.4c0,0.1,0.1,0.2,0.2,0.2c0.4,0.1,0.6,0.3,0.6,0.8
			c0,0.1,0.2,0.3,0.4,0.4c0.1,0,0.3-0.2,0.4-0.3c0.3-0.3,0.7-0.7,1-1c0.3-0.3,0.9-0.4,1.1-0.8c0.7-1,1.5-1.6,2.8-1.6
			c-0.4-1.5-0.9-2.9-1.3-4.6C97.2,146.5,94.9,147.3,92.3,148.2z M90.2,149.5c-1.5,1.2-3,2.4-4.6,3.7c1.3,1.6,2.4,3,3.6,4.5
			c1.6-1.5,3.8-2.1,4.9-4C92.8,152.4,91.5,151,90.2,149.5z M109.1,145.5c-2.4-0.4-4.7-0.4-7.1-0.1c0.3,2.2,0.6,4.3,0.9,6.6
			c0.3,0,0.6,0,0.9,0c0.1-1.5,0.4-1.8,1.9-1.8c0.8,0,1.6,0.2,2.5,0.3C108.4,148.9,108.8,147.3,109.1,145.5z M110,141.4
			c-2.8-0.5-5.8-0.5-8.8,0c0.2,1.2,0.4,2.3,0.6,3.3c2.5,0,4.9,0,7.3,0C109.4,143.6,109.7,142.5,110,141.4z M92.3,147.4
			c2.4-0.8,4.8-1.6,7.1-2.4c0.3-1-1.3-2.2,0.2-3.2c-0.1-0.1-0.1-0.2-0.2-0.2c-2,0.7-4,1.4-6.1,2.2c1.2,1.1,0.3,2.2-1.3,3.1
			C92.2,147,92.3,147.3,92.3,147.4z M115.6,143.1c0-0.1,0-0.2,0-0.2c-1.5-0.4-3-0.9-4.4-1.3c-0.1,1.3-0.2,2.4-0.3,3.4
			c2.4,0.8,4.8,1.6,7.3,2.5c0.3-0.8,0.7-1.7,1-2.7c-0.4-0.2-0.7-0.4-1.2-0.7c0.1,0.4,0.1,0.6,0.1,0.8c0,1.1-0.6,1.5-1.5,1
			c-0.7-0.4-1.4-0.9-2-1.4c-0.2-0.2-0.3-0.6-0.3-1c0-0.1,0.5-0.3,0.8-0.3C115.2,143.1,115.4,143.1,115.6,143.1z M89.7,149
			c0-0.4-0.2-0.9-0.1-1.1c0.4-0.6,0.8-1.4,1.4-1.8c0.5-0.3,0.6-0.6,0.5-1.1c-2.9,1.4-7.4,6.3-8,8.8C85.7,152.1,87.8,150.5,89.7,149z
			 M101.9,151c0.1,0,0.2,0,0.2-0.1c-0.3-1.7-0.5-3.4-0.8-5.1c0-0.1-0.3-0.2-0.5-0.3c-0.1,0.2-0.3,0.4-0.2,0.6
			c0.3,1.2,0.6,2.3,0.9,3.5C101.6,150.1,101.7,150.5,101.9,151z M100.6,142c-1,1-1,1.3-0.3,3c0.2,0,0.5-0.1,0.8-0.1
			C101,143.9,100.8,143,100.6,142z M116.3,153.3c0.1,0,0.2,0.1,0.3,0.1c1-1.4,1.5-3.1,2.1-4.7c-0.1,0-0.2-0.1-0.3-0.1
			C117.7,150.2,117,151.7,116.3,153.3z M104.6,151.3c0.7,0.6,1.7,0.7,3,0.1C106.5,151,105.6,150.7,104.6,151.3z M92.6,151.1
			C92.7,151.1,92.7,151,92.6,151.1c-0.2-0.9-0.5-1.6-0.8-2.5c-0.3,0.2-0.6,0.3-0.9,0.5C91.6,149.9,92.1,150.5,92.6,151.1z
			 M86.3,155.8c0.1-0.1,0.1-0.1,0.2-0.2c-0.4-0.6-0.8-1.1-1.3-1.7c-0.2,0.2-0.4,0.4-0.6,0.6C85.2,155,85.8,155.4,86.3,155.8z
			 M115.3,143.7c0.9,1.1,1.5,1.4,2.3,1C116.7,144.3,116,144,115.3,143.7z M83.2,154c-0.3,0.7-0.6,1.4-0.9,2.1
			C83.7,154.7,83.7,154.7,83.2,154z"/>
		<path class="st0" d="M117.5,125.1c-0.3-0.2-0.5-0.3-0.6-0.5c-0.1-0.1-0.2-0.3-0.1-0.4c0-0.1,0.2-0.2,0.4-0.2
			c1-0.2,2.1-0.4,3.2-0.6c0.2,0,0.5,0,0.7,0.1c1.6,0.9,3.3,1.1,5,1.4c0.5,0.1,0.9,0.4,1.5,0.7c-0.9,0.4-0.7,0.9-0.4,1.4
			c0.5,0.8,1,1.6,1.5,2.4c0.3,0.4,0.4,0.9,0.6,1.4c0,0.1,0.1,0.2,0.2,0.3c1.9,1.9,3.8,3.9,5.7,5.8c0.8,0.8,1.8,1.3,2.6,2.1
			c0.8,0.7,1.4,1.5,2.1,2.3c0.1,0.1,0.1,0.3,0.1,0.8c-0.5-0.2-0.8-0.3-1-0.5c-1.5-1.2-2.8-2.7-4.4-3.7c-3.6-2.4-7.3-4.6-11-6.8
			c-2.7-1.6-5.5-2.9-8.3-4.4c-0.4-0.2-0.8-0.3-1.2-0.2c-6,1.4-12,2.6-17.6,5c-3.6,1.5-7,3.5-10.5,5.3c-4.4,2.2-8.8,4.4-13.2,6.5
			c-0.7,0.4-0.8,1.1-0.8,1.7c-0.2,4.4-0.4,8.9-0.5,13.4c-0.1,3.1,0,6.2,0,9.3c0,0.2,0,0.5-0.1,0.7c0,0.1-0.3,0.2-0.4,0.2
			c-0.1-0.1-0.3-0.3-0.3-0.5c-0.1-1.7,0-3.5-0.2-5.2c-0.3-3.7-0.6-7.4-0.9-11.1c-0.1-0.7-0.1-1.4-0.1-2.1c-1,0.4-1.1,0.6-0.9,1.5
			c0.4,1.8,0.8,3.6,1.2,5.4c0,0.2,0,0.4-0.1,0.7c-0.9-2-1.3-4.2-1.8-6.4c-1.7,1.5-3,3.1-4.2,4.9c-0.2,0.3-0.5,0.5-1,0.8
			c-0.2-1.5,0.3-2.5,0.8-3.4c1.7-3,3.5-6,5.2-8.9c0.2-0.4,0.3-0.8,0.4-1.3c0.1-0.4,0-0.8,0-1.2c0.1,0,0.2-0.1,0.3-0.1
			c0.3,0.6,0.7,1.1,1.1,1.9c7.1-3.5,14.3-7.1,21.5-10.7c0-0.1-0.1-0.1-0.1-0.2c-1.4,0.5-2.8,0.9-4.2,1.4c-4.3,1.5-8.5,3-12.8,4.6
			c-2.7,1-5.4,2.2-8.2,3.2c-0.2,0.1-0.6,0-0.9-0.1c0.2-0.2,0.4-0.5,0.6-0.7c9.9-4.1,19.9-7.7,30.1-10.8c5.3-1.6,10.7-3,16-4.5
			c0.3-0.1,0.5-0.4,0.8-0.5c0.2-0.1,0.4-0.2,0.5-0.1c0.3,0,0.6,0.2,0.9,0.2C115.7,125.4,116.5,125.3,117.5,125.1z M118.6,124.6
			c3.9,2.8,7.6,5.5,11.3,8.2c0-0.1,0.1-0.1,0.1-0.2c-2.6-2.4-5.3-4.8-7.8-7.3C121.1,124.4,120,124.6,118.6,124.6z M116.1,126
			c3.7,2,7.4,4,11,6c-2.4-1.9-5-3.7-7.5-5.5C118.5,125.6,117.3,125.8,116.1,126z M69.1,145.2c-0.1,0-0.1-0.1-0.2-0.1
			c-1.6,2.7-3.2,5.4-4.8,8.1c0.9-0.7,1.6-1.5,2.4-2.3c0.7-0.6,1.2-1.2,0.8-2.2c0-0.1,0-0.3,0-0.4c0.1,0,0.1-0.1,0.2-0.1
			c0.2,0.3,0.5,0.7,0.8,1.1c0.3-0.5,0.8-0.9,0.9-1.4C69.3,147,69.1,146.1,69.1,145.2z M71.1,144c-1.4,0.4-1.4,0.4-1.3,1.7
			c0.1,1,0.3,1.9,0.4,2.9c0.1,2.4,0.2,4.8,0.3,7.2c0.1,0,0.1,0,0.2,0C70.8,151.9,71,147.9,71.1,144z M123.2,125.1
			c0,0.1,0,0.1-0.1,0.2c1.5,1.4,3,2.8,4.5,4.1c-0.5-1.3-1.2-2.4-1.9-3.6c-0.1-0.2-0.3-0.3-0.5-0.3
			C124.6,125.3,123.9,125.2,123.2,125.1z"/>
		<path class="st0" d="M140.9,120.7c-0.2-5.1-0.3-10-0.5-14.9c0,0,0.1,0,0.1,0c0.1,0.2,0.1,0.3,0.2,0.5c0.2,4.5,0.5,8.9,0.6,13.4
			c0,1.1,0.1,1.9,0.8,2.8c0.3,0.4,0.5,1,0.8,1.7c-0.8-0.1-1.3-0.2-1.9-0.2c-0.2,1.4-0.3,2.8-0.5,4.3c0,0.3-0.3,0.5-0.5,0.7
			c-0.1-0.1-0.2-0.1-0.4-0.2c0.2-1.4,0.4-2.8,0.7-4.2c0.4-1.6,0.4-3-1-4.2c-5.2-4.6-10.8-8.4-17.2-11.1c-0.8-0.3-1.6-0.5-2.5-0.3
			c-2.1,0.4-4,1.4-5.9,2.3c-0.5,0.2-1,0.4-1.5,0.6c0-0.1-0.1-0.2-0.1-0.3c0.7-0.4,1.4-0.7,2.1-1.1c-7.9,1.9-15.6,4.4-23.1,7.6
			c0.2-0.1,0.5-0.2,0.7-0.1c0.2,0,0.3,0.2,0.5,0.3c-0.1,0.1-0.2,0.3-0.4,0.3c-2.9,0.3-5.6,1.3-8.3,2.5c-0.8,0.4-1.6,0.7-2.7,0.3
			c0.9-0.3,1.6-0.5,2.4-0.8c0-0.1-0.1-0.2-0.1-0.3c-8,1.8-16.2,2.7-24.3,5.1c6.6-0.2,13-0.4,19.4-0.5c0,0.1,0.1,0.2,0.1,0.4
			c-0.3,0.1-0.5,0.3-0.8,0.3c-4.1,0.1-8.2,0.1-12.3,0.2c-1.7,0-3.3,0.2-5,0.3c-0.6,0-1,0.3-1.1,1c0.4-0.1,0.8-0.2,1.2-0.3
			c-2.1,3.5-4.2,6.8-6.2,10.1c-0.3-0.9,0.2-1.9,4.7-9c-1-0.5-0.5-1.2-0.2-2c-0.7-0.3-1.2,0.1-1.5,0.6c-0.8,1.4-1.6,2.8-2.2,4.3
			c-0.9,2.3-2,4.5-1.8,7c0.1,2.6,0.4,5.2,0.7,7.8c0.3,2.2,0.7,4.4,1,6.7c0,0.2,0,0.5,0,0.7c-0.1,0-0.2,0.1-0.2,0.1
			c-0.1-0.2-0.4-0.4-0.4-0.6c-0.4-2.3-0.7-4.6-1-6.8c-0.2-1.4-0.3-2.7-0.4-4.1c-0.1-1-0.2-2-0.4-3c-0.6,3-1.2,6.1-1.8,9.1
			c-0.2,0.9-0.2,1.8-0.3,2.7c-0.1,0.4,0,0.9-0.8,0.8c0.2-1.3,0.2-2.7,0.5-4c1-5.9,2.3-11.7,4.6-17.3c0.4-1,1-1.9,1.4-2.9
			c0.7-1.7,2.2-2.2,3.7-2.6c3.5-0.9,7.1-1.7,10.6-2.4c5.1-1,10.3-1.8,15.4-3c1.9-0.4,3.8-1.5,5.6-2.2c8.7-3.5,17.7-6.2,26.8-8.4
			c0.5-0.1,1-0.1,1.4-0.3c0.7-0.2,1.3-0.3,2,0.1c2.4,1.3,5,2.3,7.4,3.7c4.2,2.3,8,5.2,11.4,8.5C140.5,120.4,140.6,120.5,140.9,120.7
			z"/>
		<path class="st0" d="M34.1,169.7c2.6-2,5-3.7,7.4-5.5c0.1,0.1,0.2,0.2,0.3,0.3c-2.9,2.3-5.8,4.6-8.8,7c0.5,0.2,0.9,0.4,1.3,0.6
			c-0.5,0.3-1.9,0.1-2-0.2c-0.1-0.2,0-0.7,0.2-0.9c1.2-0.7,0.7-1.8,0.7-2.8c0-0.1,0-0.2-0.1-0.2c-1.4-0.8-0.1-1.2,0.3-1.6
			c0.9-0.7,1.3-1.6,1.5-2.7c0.4-1.8,0.9-3.6,1.5-5.3c0.2-0.6,0.8-1.1,1.4-1.8c-0.9,2.7-1.7,5.2-2.5,7.6c0.1,0,0.1,0.1,0.2,0.1
			c0.9-0.7,1.8-1.5,2.7-2.2c2.9-2.3,6-4.5,9.3-6.2c0.4-0.2,0.8-0.2,1.3-0.3c0,0.3,0,0.4-0.1,0.4c-3.3,1.3-6,3.4-8.8,5.5
			c-1.4,1.1-2.8,2.2-4.2,3.4c-0.5,0.4-0.9,1-1.1,1.7C34.6,167.4,34.4,168.4,34.1,169.7z"/>
		<path class="st0" d="M111.6,112.2c-5.8,2.6-11.5,5.5-17.4,7.9c-0.1-0.8,0.3-1.3,1-1.4c0.8-0.2,1.5-0.3,2.2-0.6
			c2.3-1,4.6-2,6.8-3.1c2-0.9,4-1.8,6-2.7c0.4-0.2,0.9-0.3,1.3-0.5C111.5,111.9,111.5,112,111.6,112.2z"/>
		<path class="st0" d="M164,140.4c-0.2,1.5-0.6,2-1.5,1.9c0.6-4.7,0.5-9.4,0.3-14.1c-0.1-1.8-0.3-3.5-0.4-5.3c0-0.3,0-0.6,0-0.9
			c0.1,0,0.2,0,0.3,0c0.1,0.6,0.3,1.1,0.3,1.7c0.2,4.2,0.4,8.5,0.5,12.7c0,1-0.1,2-0.1,3C163.3,139.9,163.1,140.5,164,140.4z"/>
		<path class="st0" d="M91.2,126.9c0.1,0.3,0.1,0.5,0.1,0.7c0.7,0,1.2,0,1.8,0c0.2,0,0.4,0.2,0.5,0.4c-0.2,0.1-0.3,0.3-0.5,0.3
			c-0.7,0-1.4,0.1-2.1,0c-0.4,0-1,0.1-1-0.6C90.1,127,90.5,126.9,91.2,126.9z"/>
		<path class="st0" d="M113.9,152.7c-0.3,0.1-0.6,0.2-0.9,0.4c0,0.1,0,0.3,0,0.5c-1.1-0.4-2.1-0.8-3.1-1.1c0-0.1,0-0.1,0-0.2
			c0.5,0.1,1,0.2,1.6,0.3c0.3,0,0.7,0.3,1-0.2c0.1-0.2,0.9,0.1,1.3,0.1C113.8,152.5,113.8,152.6,113.9,152.7z"/>
		<path class="st0" d="M142,61.1c0.3,0.6,0.7,1.2,1.1,1.9c-0.8-0.2-1.3-0.9-1.3-1.8C141.8,61.2,141.9,61.1,142,61.1z"/>
		<path class="st0" d="M84,162.2c0.1-0.3,0.2-0.5,0.5-1.1c0.2,0.5,0.5,0.8,0.4,0.9c-0.1,0.2-0.5,0.3-0.7,0.5
			C84.1,162.4,84.1,162.3,84,162.2z"/>
		<path class="st0" d="M108.3,142.4c-0.4,0.3-0.7,0.6-1.1,0.8c-0.1,0-0.6-0.5-0.6-0.6c0.2-0.3,0.5-0.7,0.8-0.9
			c0.2-0.1,0.6,0.2,0.9,0.3C108.3,142.2,108.3,142.3,108.3,142.4z"/>
		<path class="st1" d="M161,106.6l-0.1-0.3c0.2,1,0.4,2,0.6,3c-0.1-1.1-0.3-2.3-0.6-3.4c-0.2-1.1-0.5-2.2-0.9-3
			c0.1-0.2-0.3-2.3-0.4-2.4c-0.1-0.5-0.3-0.9-0.4-1.3c0.1,0.3,0.2,0.6,0.3,0.9c-0.1-0.3-0.2-0.6-0.3-0.9c-0.5-1.4-0.9-2.8-1.3-4.3
			c-0.4-1.5-0.9-3-1.3-4.6c-0.1-0.4-0.3-1.1-0.5-1.8c-0.2-0.7-0.5-1.5-0.8-2.3c-0.5-1.6-1-3.2-1.4-4.1l-0.3-0.8
			c0.1,0.4,0.1,0.4,0.3,0.9c-0.5-1-0.9-2-1.3-2.9c0,0.2,0,0.2,0.1,0.6l-0.2-0.5c-0.2-0.4-0.6-1.4-0.8-1.9c0.1,0.1-0.1-0.3-0.2-0.6
			l0,0.1c-0.5-1.2-1.2-2.6-1.6-3.7c-0.1-0.2-0.1-0.3-0.1-0.3l-0.5-1c0.1,0.1-0.3-0.9-0.1-0.4c-0.4-0.7-0.8-1.5-1.2-2.2
			c-0.7-1.3-1.3-2.6-2-3.9c-0.8-1.3-1.5-2.6-2.3-3.9l0,0.1c-0.6-0.9-1.1-1.7-1.8-2.7c-0.6-0.7-1.3-1.8-1.6-2c-0.6-0.9-0.9-1.2-1.4-2
			c0.1,0.2-0.6-0.8-0.4-0.3c0.3,0.6,0.4,0.6,0.6,1.1l0,0c1.4,2.3,2.9,4.5,4.2,6.9c0.9,1.6,1.9,3.3,2.7,5c0.5,0.9,1,1.8,1.4,2.7
			c0.2,0.5,0.5,0.9,0.7,1.3c0.2,0.4,0.4,0.9,0.6,1.3c0.2,0.4,0.3,0.7,0.4,1c0.7,1.5,1.5,3.3,2.2,5c0,0,0-0.1,0-0.1
			c0.4,0.9,0.6,1.6,0.9,2.5c0,0,0.1,0.1,0.1,0.2c0,0.1,0.6,1.3,1,2.7c0.5,1.3,1,2.6,1,2.8c0,0.1,0.1,0.2,0.1,0.3
			c0.6,1.9,1.1,3.9,1.6,5.5c0.1,0.3,0.3,0.7,0.4,1c0.1,0.3,0.1,0.3,0.2,0.7c0.1,0.9,0.3,1.4,0.2,1c0.2,0.7,0.4,1.5,0.6,2.1
			c0.1,0.3,0.2,0.6,0.3,0.9c0.1,0.3,0.1,0.4,0.1,0.5c0.2,0.7,0.1,0.5,0.3,1.2c0,0.2,0.5,1.7,0.5,1.9l0-0.1c0.2,0.8,0.2,1.4,0.4,2.2
			c0.2,1.1,0.5,2.3,0.7,3.4c0.3,1.1,0.5,2.2,0.7,3.3c0.1,0-0.1-0.4,0-0.5c0.2,1.2,0.4,2.4,0.6,3.7c0,0.2,0,0.5,0,0.6
			c0,0.4,0.1,0.2,0.1,0.5l0,0c0.1,0.4,0.1,0.6,0.1,1c0,0,0.1,0.2,0.1,0.3c0,0,0.1,0.4,0,0.4l0,0c0,0.1,0,0.1,0,0.2
			c0,0.2,0.4,1.6,0.5,1.8l0,0.1c0,0.2,0.1,0.3,0.1,0.2l0,0.3l0,0l0,0.3c0,0.1,0,0.1,0,0c0,0.2,0.1,0.3,0.1,0.5
			c0-0.4-0.1-0.9-0.1-1.4c0,0.2,0.1,0.5,0.1,0.7c0,0.2,0,0.8,0.1,1.1c0,0.1,0.1,0.1,0.1,0.3c0,0.1,0,0.2,0,0.4
			c0-0.2-0.1-0.4-0.1-0.6c0,0,0,0.5,0,0.6c0,0.1,0,0.4,0.1,0.7c-0.1-0.1,0,0.2,0,0.3c0,0.2,0,0.3,0.1,0.2c0.1,0,0-0.6,0-0.4
			c0,0.1,0,0.4,0,0.5c0,0,0-0.1,0,0c0,0.2,0.1,0.4,0,0.5c0,0,0-0.1,0-0.2c0,0.2-0.3-1.2-0.3-0.9c0-0.1,0.3,1.3,0.3,1.2
			c0-0.1,0.1,0.1,0.1-0.1l0-0.2c0-0.2,0.7-0.3,0.7-0.2c0,0.3,0.4-0.9,0.4-0.7v-0.1c0,0.1,0,0.4,0,0.6c0,0,0,0.2,0,0.3v0
			c0,0.1-0.5,0.3-0.5,0.2c-0.1-0.8,0,0.5,0-0.3c0,0.3-0.2-0.1-0.3-0.5c0,0,0-0.2-0.1-0.5c0-0.2-0.1-0.1-0.1-0.2c0-0.1,0-0.4,0-0.3
			c-0.1-0.2,0-0.3-0.1-0.5c0-0.2,0,0-0.1-0.1c0-0.3-0.1-0.7-0.1-0.9c0-0.1,0-0.4,0.1-0.2c0.1,0.4-0.1-0.1,0,0.3
			c0-0.2,0.1,0.4,0.1,0.5c0-0.1,0-0.4-0.1-0.7l0,0c0-0.2-0.1-0.6-0.1-0.8c0,0,0,0,0.1,0.1l0-0.3c0,0,0-0.1,0,0c0-0.1,0-0.3-0.1-0.4
			c0,0-0.3-1.5-0.3-1.4c0-0.2,0-0.3-0.1-0.5c0,0,0,0.1,0.1,0.3c0,0.2,0.1,0.4,0.1,0.6c0.1,0.5,0.2,0.9,0.2,0.7
			c0-0.2-0.5-2.3-0.5-2.4c0-0.1-0.1-0.3-0.1-0.3c0-0.3,0.9,0.1,0.9-0.1c0,0,0.9,0,0.9,0v-0.2c-2-0.4-1-1-1.2-1.4
			c0,0.1-0.3,0.2-0.3,0.5l-0.2,0c0,0,0,0.3,0,0.2c0-0.3-0.1-0.5-0.2-0.7c0-0.1,0-0.1,0-0.1c0,0,0,0,0,0c0-0.1,0-0.1,0-0.1l0,0
			c0-0.2-0.2-1-0.3-1.4c0-0.1,0,0-0.1-0.2c-0.1-0.5-0.1-0.8-0.2-1.3c-0.1-0.2-0.1-0.2-0.1,0l-0.1-0.4c0.1,0.3-0.1-0.7,0.1-0.4
			c0-0.1,0-0.3-0.1-0.5c0,0-0.1,0-0.1-0.3c0-0.4,0-0.3-0.1-0.6c0-0.1,0,0,0.1,0c-0.1-0.5,0-0.4-0.1-0.8c-0.1-0.3-0.2-0.8-0.2-0.8
			C160.9,106.6,160.9,106.6,161,106.6z"/>
	</g>
	<g>
		<g>
			<g>
				<g>
					<path class="st2" d="M115.1,31.1c-0.1-0.1-0.1-0.2-0.2-0.3c-0.3,0-0.7,0-1,0c0,0,0.1,0.1,0.1,0.1c0.3,0.5,0.3,0.9-0.1,1.3
						c-0.7,0.6-1.5,1.2-2.1,2c-1.1,1.4-2.4,2.6-3.6,3.9c-3.6,3.9-7.2,7.7-11.5,10.8c-1.5,1.1-3.1,2-4.6,3c-0.3,0.2-0.5,0.5-0.8,0.7
						c0.1,0.1,0.1,0.1,0.2,0.2c7.5-3.5,12.9-9.5,18.4-15.4c-0.2,0.3-0.4,0.7-0.6,1c-2.4,3.5-4.7,7-7.1,10.4c-0.4,0.5-0.9,1-1.5,1.4
						c-3.5,2.2-7.1,4.2-11.2,5.2c-0.2,0-0.3,0.1-0.5,0.1c-0.1,0-0.3,0-0.6,0c0.9-0.8,1.6-1.5,2.4-2.2c-0.8-0.3-2.5,0.9-2.8,2
						c-6.4-1.6-12.7-3.3-18.7-6c-0.3-0.1-0.7,0-1.1,0.2c-5-2.6-9.9-5.4-14.1-9.3c-1.1-1-2-2.1-2.1-3.7c0-0.1-0.2-0.3-0.3-0.4
						c-0.1,0.1-0.2,0.2-0.2,0.4c0,0.2,0,0.4-0.1,0.6c-0.4-1.1-0.8-2.2-1.1-3.4c-1.5-4.9-2.9-9.9-4.6-14.8c-0.7-2.2-0.5-4.1,0.2-6.1
						c0.1-0.3,0.2-0.6,0.3-0.9c0.9,0.1,1.4,1,1,1.8c-0.1,0.3-0.1,0.7-0.1,1c0,0.7,0,1.5-0.1,2.2c-0.1,0.7-0.1,1.3,0.8,1.6
						c0.2,0.1,0.5,0.5,0.5,0.7c0.2,2.8,0.4,5.7,0.5,8.5c0,0.2,0.1,0.3,0.2,0.5c0.1,0,0.2,0,0.3,0c0.1-0.5,0.2-1,0.2-1.5
						c-0.2-4.6-0.3-9.1-0.5-13.7c0-0.1,0-0.3,0-0.6c1.2,0.2,2.4,0.4,3.6,0.7c7.6,1.6,15.1,3.3,22.7,4.9c2.6,0.6,5.2,1.1,7.8,1.7
						c0.4,0.1,1,0,1.1,0.7c0,0.1,0.4,0.3,0.5,0.3c0.9-0.1,1.8-0.2,2.8-0.3c0.2,0,0.4-0.1,0.5-0.1c5.6,1.2,11.3,2.4,16.9,3.6
						c1.7,0.4,3.3,0.7,4.9,1.1c0.3,0.1,0.7,0.4,0.9,0.7c0.3,0.5,0.6,0.9,0.9,1.4c-0.3-1.5-1.8-2-2.4-3.6c-2.3,0.1-4.3-0.3-6.4-0.8
						c-4-0.9-8-1.6-12-2.4c-1-0.2-2-0.4-3-0.6c-0.3-0.1-0.6-0.3-0.8-0.5c-0.4-0.4-0.7-1-1.1-1.4c-0.6-0.6-0.8-1.3-0.4-2.1
						c0.5-1.1,1-2.2,1.5-3.5c-0.3-0.7-0.6-1.4-1-2.1c0,0.1,0,0.2,0,0.3c-0.7,2.7-0.9,5.5-2.8,7.7c-0.4,0.4-0.6,0.5-1.1,0.4
						c-1.5-0.4-3-0.7-4.5-1c-8.7-1.9-17.5-3.8-26.2-5.6c-1.2-0.3-2.5-0.5-3.7-0.8c-0.4-0.1-0.7-0.7-1.1-0.8c-0.4-0.1-0.8,0.3-1,0.4
						c-0.4-0.3-0.6-0.7-0.9-0.8c-1.2-0.4-2.5-0.8-3.8-1.1c-0.3-0.1-0.6,0.2-0.9,0.2c-0.3,0-1-0.2-1-0.3c0-0.7-0.5-0.6-0.9-0.7
						c-0.2,0-0.5,0-0.7-0.1c-1.1-0.6-2.1-1.2-3.1-1.8c-0.5-0.3-0.9-0.2-0.9,0.4c-0.1,1.2,0,2.5,0,3.8c0,0.2,0.3,0.5,0.5,0.5
						c2,0.1,3.9,0.2,5.9,0.3c0.3,0,0.5-0.1,0.8-0.1c0-0.1,0-0.2,0-0.2c-0.2,0-0.4-0.1-0.6-0.1c-1-0.4-2.3,0-3.2-0.9
						c-0.3-0.3-0.8-0.4-1.2-0.5c-0.9-0.2-1.3-0.9-0.9-1.7C34.8,7.8,35,7.9,35.2,8c0.6,0.2,0.9,0.9,1.4,1.2c1,0.6,2.2,0.8,3.3,1.2
						c0.7,0.2,1.4,0.3,2.1,0.5c0,0,0,0.1,0,0.1c-0.4,0-0.7,0.1-1.1,0.1c0,0.1,0,0.2,0,0.2c1.2,0.2,2.3,0.5,3.7,0.7
						c-0.7,0.9-1.3,1.6-1.9,2.4c0,0-0.1-0.1-0.1-0.1c-0.1,0.5-0.2,1-0.3,1.5c1,0.2,0.7,1.1,1,1.8c-0.9-0.2-1,0.3-1,1
						c0,0.5-0.1,1.1-0.2,1.6c-0.1,0.6,0.1,1.1,0.7,1.5c0.2,0.1,0.5,0.5,0.5,0.7c0.1,0.4,0,0.9,0,1.3c-1.1,0.4-1.3,0.7-1,2.1
						c0.2,0.9,0.6,1.7,1,2.6c-0.4,0.3-0.8,0.6-0.4,1.3c0.2,0.5-0.1,1.2,0.1,1.6c0.2,0.4,0.7,0.7,1.2,1.1c-0.8,1.2-0.5,3.1,1.7,3.3
						c0,0.9-0.1,1.8-0.1,2.7c-1.7,0.2-2.2,0.9-1.8,2.5c0.3,1.3,1,2.2,1.9,2.7c0.1,0.7,0.3,1.1,0.4,1.6c-1.1,0.1-1.9,0.7-1.8,1.8
						c0.1,1.2,0.3,2.3,0.5,3.4c-1.1-0.2-1.6,0.1-1.6,1.5c-0.1,1.3,0.5,2.2,1.5,2.9c0.2,0.1,0.5,0.3,0.5,0.4c-0.1,0.9,0.6,0.9,1.3,1
						c-0.4,2.4-0.7,4.8-1.1,7.1c0.1,0,0.1,0,0.2,0c0.1-0.2,0.2-0.4,0.3-0.6c0,0.5,0.1,0.8,0.1,1.1c0.1,0,0.2,0.1,0.3,0.1
						c0.1-0.3,0.3-0.5,0.3-0.8c0.1-1.1,0.1-2.2,0.2-3.2c0.1-0.7,0.3-1.3,0.5-2.1c0.2,0.5,0.4,0.8,0.6,1.1c0.1,0,0.2-0.1,0.3-0.1
						c0-0.4,0-0.9-0.1-1.3c-0.1-0.3-0.4-0.6-0.4-0.9c-0.1-1.2-0.2-2.4-0.1-3.6c0.1-2.3,0.4-4.5,0.6-6.8c0.3,2.8,0.5,5.5,0.7,8.3
						c0.1,1.6,0.4,3.3,0.6,4.9c0,0.3,0.3,0.6,0.6,0.7c0.2,0.1,0.6-0.2,0.7-0.4c0.7-0.9,0.8-2,0.5-3.1c-0.5-2-1-4.1-1.5-6.1
						c0-0.1-0.1-0.1-0.3-0.2c-0.1,0.2-0.2,0.4-0.2,0.5c0-1.4,0-2.8,0-4.2c0-0.5-0.3-1-0.4-1.6c-0.3-2.4-0.5-4.8-0.8-7.2
						c0-0.2-0.3-0.4-0.6-0.6c-0.1-1.4-0.1-3-1-4.4c0,0.4,0,0.8,0,1c-0.5,0.3-0.9,0.6-1.5,0.9c-0.1-0.5-0.4-1.1-0.2-1.3
						c0.4-0.6,0.9-1,0.7-1.8c0-0.2,0-0.4,0-0.7c-0.3,0-0.6-0.1-0.9,0c-0.2,0-0.3,0.2-0.4,0.4c-0.1,0-0.2-0.1-0.3-0.1
						c0.1-0.4,0.1-0.7,0.2-1.1c0.1-0.4,0.1-0.7,0.2-1.1c-0.1-0.1-0.1-0.1,0-0.2c0.2-0.1,0.4-0.3,0.7-0.4c-0.2-0.2-0.4-0.4-0.5-0.6
						c-0.5-0.8-0.9-1.7-1.3-2.5c-0.1-0.2,0.1-0.6,0.3-1c0.3,0.2,0.6,0.3,0.6,0.4c0.7,1.7,1.5,3.3,2.2,5c-0.5-4.8-1.3-9.5-2.1-14.3
						c0.2,0.5,0.4,1.1,0.6,1.6c1,3.5,2.1,6.9,3.1,10.4c0.2,0.8,0.5,1.6,0.7,2.5c0.2,0.8,0.2,1.7,0.4,2.5c0,0.2,0.3,0.4,0.6,0.7
						c0,0.1-0.2,0.3-0.3,0.6c0.1,0,0.1,0.1,0.2,0.1c0.1-0.1,0.2-0.2,0.4-0.3c0.3,0.8,0.5,1.6,0.8,2.4c0.8,2.6,1.6,5.1,2.5,7.6
						c0.1,0.3,0.4,0.5,0.5,0.7c0.1-0.1,0.2-0.1,0.4-0.2c-0.5-1.7-1-3.5-1.5-5.2c0.9,0.9,1.6,1.9,2.5,2.6c2.5,1.9,4.9,3.9,7.6,5.5
						c3.8,2.2,7.7,4.2,11.6,6.2c0.4,0.2,0.8,0.2,1.2,0.3c0.1-0.1,0.1-0.2,0.2-0.3c-0.2-0.2-0.4-0.4-0.7-0.5c-1-0.5-2.1-0.9-3.1-1.4
						c0,0,0-0.1,0-0.1c4.4,1.4,8.7,2.8,13,4.2c-0.5,0.4-0.1,0.8,0.3,0.8c1.2,0.1,2.4,0.1,3.6,0.2c0.3,0,0.7,0.1,1,0.1
						c0.4,0,0.9-0.1,1.3-0.2c0.3-0.1,0.4-0.5,0.7-0.6c2.2-1,4.6-1.7,6.7-2.9c6.6-3.7,12.6-8.2,18-13.4c0.2-0.2,0.4-0.3,0.6-0.5
						c0,0,0.1,0.1,0.1,0.1c-0.1,0.3-0.2,0.5-0.3,0.8c-2.7,5.3-5.5,10.5-8.1,15.8c-2.7,5.4-7,9.4-11.6,13.1c-2.1,1.7-4.3,3.2-6.5,4.7
						c-0.7,0.5-1.5,1.1-2.4,1.3c-0.8,0.2-0.7,0.5-0.6,1.2c1.8-1.2,3.6-2.3,5.3-3.4c-0.3,0.4-0.6,0.8-1,1.1c-1.9,1.4-3.8,2.8-5.8,4.1
						c-4.6,2.9-9.3,5.6-13.9,8.5c-1,0.7-2.6,0.5-3.2,1.8c-0.1,0.1-0.3,0.1-0.5,0.2c-0.7,0.1-1.4,0.2-2,0.4c-1.8,0.7-3.7,1.4-5.5,2.2
						c-0.3,0.1-0.5,0.4-0.8,0.6c-0.3,0.2-0.6,0.3-0.9,0.4c-0.3,0.1-0.7-0.1-1.1,0c-4.5,1.3-9,2.6-13.4,4c-1.9,0.6-4,0.6-5.6,1.8
						c1.1-4.3,2.4-8.7,3.3-13.1c0.9-4.5,2-8.9,2-13.6c-0.2,0.2-0.3,0.4-0.3,0.6c-0.2,1.2-0.4,2.5-0.6,3.7c-0.6,3.7-1.6,7.2-3.5,10.4
						c-1.6,2.6-3.4,5.1-5.2,7.5c-0.7,1-1.9,1.6-2.9,2.5c-0.2,0.1-0.3,0.4-0.3,0.6c-0.1,0.3,0,0.6,0,1.2c-0.5-0.4-0.8-0.5-0.9-0.8
						c-0.3-0.6-0.6-0.5-1.1-0.3c-0.4,0.2-0.7,0.3-1.1,0.5c-1.2,0.5-2.3,1.1-3.6,1.7c0.3,0.1,0.4,0.2,0.5,0.2c1.1-0.3,2.1-0.6,3.2-1
						c0.7-0.3,1.3-0.8,2,0c0.2,0.3,0.6,0.4,0.9,0.6c0.5,0.3,0.9,0.1,0.8-0.4c-0.2-1.1,0.4-1.6,1.2-2.2c0.8-0.6,1.5-1.4,2.3-2.1
						c-0.3,1.1-1.6,1.7-1.6,3c0.4-0.1,0.7-0.3,0.9-0.6c2.2-2.9,4-6.1,5.5-9.4c0.2-0.4,0.4-0.9,0.6-1.3c0.2-0.4,0.4-0.8,0.6-1.2
						c0.1,0,0.2,0.1,0.3,0.1c-1,3.6-2,7.3-3.1,10.9c-0.3,1.1-0.9,2.2-1.4,3.2c-0.4,0.9-0.7,2.1-1.5,2.7c-0.6,0.5-1.8,0.3-2.7,0.4
						c-0.4,0-0.7,0-1.1,0c-3.7-0.2-7.5-0.5-11.2-0.7c0,0-0.1-0.1-0.1-0.1c0.2-0.1,0.4-0.2,0.7-0.2c0-0.1,0-0.2,0-0.3
						c-0.7,0.1-1.4,0.2-2,0.2c0.1,0.5,0.3,1,0.5,1.5c0-0.1-0.1-0.3-0.1-0.4c0.6,0.1,0.9,0.2,1.3,0.2c4.7,0.5,9.5,0.8,14.2,0.5
						c1.3-0.1,2.4-0.6,3.2-1.6c1.1-1.3,2.4-2.2,4-2.6c5.9-1.4,11.6-3.4,17.2-5.6c0.2-0.1,0.4-0.3,0.6-0.4c0.3-0.1,0.6-0.3,0.9-0.4
						c1-0.2,2.2-0.2,3.1-0.6c1.7-0.7,3.2-1.8,4.8-2.6c1.8-1,3.7-1.8,5.5-2.9c4.8-2.9,9.6-5.8,14.3-9c4-2.7,7.7-5.8,11.1-9.2
						c2.7-2.7,5.4-5.3,7.7-8.4c0.2-0.2,0.3-0.4,0.4-0.7c1-2.1,2-4.2,3-6.3c1.4,0.4,2,0.1,2.5-1.1c0.4-1,0.6-2,0.9-3
						c2.6,0,3.7-2.1,2.8-4c0.3-0.2,0.6-0.3,0.8-0.5c0.4-0.4,0.7-0.8,1-1.2c0.2-0.4,0.4-0.8,0.6-1.3c0.1,0.1,0.1,0.2,0.2,0.2
						C118.3,37.7,116.4,34.5,115.1,31.1z M49.3,53.2c0.3,2,1.8,3.8,0.6,5.9c-0.1,0-0.2,0-0.3,0c-0.2-2-0.4-3.9-0.6-5.9
						C49.1,53.2,49.2,53.2,49.3,53.2z M46.2,55.4c-0.4-0.4-0.7-0.7-1-1c-0.8-0.6-1.5-1.3-1.4-2.5c0.6,0.5,1.1,0.4,1.2-0.2
						c0.5,0.1,0.9,0.2,1.5,0.3C46.4,53,46.3,54.2,46.2,55.4z M46.6,50.1c-0.1,0.6-0.4,0.6-0.8,0.3c-0.8-0.6-1-1.5-0.5-2.5
						c0.2-0.4,0.1-0.7-0.6-1.1c0.3-0.3,0.6-0.5,0.9-0.8c0,0.9,0.1,1.7,1.2,1.4C46.8,48.3,46.7,49.2,46.6,50.1z M46.8,37.9
						c0.1,0.5,0.2,1,0.3,1.5c0,0-0.1,0.1-0.1,0.1c-0.3-0.3-0.7-0.6-1-0.9C46.3,38.4,46.5,38.1,46.8,37.9z M47.2,40.7
						c0.1,0.7,0.2,1.2,0.3,1.8c0.1,0.6-0.2,0.8-0.7,0.8c-1.3,0-2.9-2.2-2.4-3.4c0.1-0.2,0.3-0.4,0.6-0.5c0.1,0,0.4,0.2,0.5,0.4
						C45.7,40.6,46.3,40.8,47.2,40.7z M43.9,21.2c-0.5-0.1-0.9-0.2-1.4-0.3c0.4-0.2,0.7-0.3,0.9-0.5c-0.1-0.2-0.3-0.5-0.4-0.7
						c-0.1-0.3-0.2-0.6-0.4-1.1C43.9,19.2,43.8,20.1,43.9,21.2z M37.2,100.4c0.3-1.3,0.8-1.8,2-1.9C38.4,99.2,37.8,99.8,37.2,100.4z
						 M112.1,51.2c-0.1,0-0.3,0-0.4,0c-0.1-0.1-0.1-0.3-0.1-0.4c0.3-0.6,0.7-1.3,1.2-2C113.2,49.7,112.7,50.9,112.1,51.2z
						 M111.2,36.9c0.1-0.1,0.4-0.2,0.6-0.2c0.2,0,0.3,0.2,0.5,0.4c-0.4,0.4-1.6,0.7,0.1,1.4c-0.6,0.2-1.1,0.5-1.3,0.4
						c-0.6-0.3-1-0.1-1.3,0.6c-0.1-0.1-0.2-0.2-0.2-0.2C110.1,38.5,110.6,37.7,111.2,36.9z M103.6,48.5c-0.1,0-0.1-0.1-0.2-0.1
						c1.6-2.4,3.2-4.8,4.8-7.2c0.2,0,0.2,0,0.3,0c0.3,0.2,0.6,0.4,0.9,0.6c0.2-0.4,0.5-0.7,0.6-1.1c0.3-1.2,0.3-1.3,1.6-1.3
						c0.8,0,1-0.3,1.1-1.1c0.1-1.5,0.6-2.8,1.8-3.8c0.2-0.2,0.3-0.5,0.6-0.9c-1.6,0.3-1.7,2.2-3.4,2.4c1.1-1.3,2-2.4,3.1-3.7
						c1,1.6,1.9,3,2.8,4.4C113.3,41.2,108.7,45.1,103.6,48.5z M116.6,45.3c0,0.2-0.5,0.4-1,0.6c0,0.1,0.1,0.4,0.1,0.8
						c-0.5,0.1-1.1,0.2-1.6,0.3c-0.1-0.1-0.1-0.2-0.2-0.3c0.5-0.9,1.1-1.8,1.7-2.6c0.1-0.1,0.6-0.1,0.7,0
						C116.4,44.5,116.6,44.9,116.6,45.3z M118,40.5c0.1,0.3,0.1,0.5,0.2,0.8c0.2,0.7-0.1,1.1-0.8,1.2c-0.2,0-0.3,0.2-0.4,0.3
						c-0.2,0.1-0.4,0.2-0.6,0.4c-0.1-0.1-0.1-0.1-0.2-0.2c0.7-1.2,1.5-2.4,2.2-3.7c0.1,0,0.2,0.1,0.4,0.1c0.1,0.3,0.2,0.7,0.3,1.1
						C118.6,40.5,118.4,40.5,118,40.5z"/>
					<path class="st2" d="M76.1,57c0.2,0.1,0.4,0.3,0.7,0.3c2.2,0.6,4.3,1.2,6.5,1.8c0.4,0.1,0.9,0.4,1.2,0.8
						c0.2,0.2,0.3,0.6,0.2,0.8c0,0.1-0.5,0.3-0.7,0.3c-1-0.2-2.1-0.3-3.1-0.7c-2-0.8-3.9-1.7-5.9-2.7c-0.2-0.1-0.3-0.4-0.5-0.5
						c-0.5-0.4-1-0.4-1.7-0.3c-1,0.2-2.2-0.1-3.2-0.3c-0.5-0.1-0.9-0.5-1.4-0.6c-0.7-0.2-1.4-0.3-2.1-0.3c-1.1-0.1-2.1-0.1-3.2-0.2
						c-0.5-0.1-1.4-0.5-1.4-0.7c0-0.8,0.8-0.7,1.4-0.7c1.5,0,3,0,4.8,0c-1.8-1-3.5-1.8-5.1-2.8c-0.8-0.5-1.6-1-2.3-1.6
						c-0.3-0.2-0.3-0.6-0.5-1c0.4,0,0.8-0.2,1.1-0.1c1,0.4,2,0.8,2.8,1.4c0.9,0.6,1.7,1.5,2.6,2.2c0.8,0.6,1.6,1.1,2.4,1.7
						c1.3-1,1.9-1,3,0c0.6,0.5,1,1.2,1.5,1.7c0.3,0.3,0.6,0.8,0.9,0.2c-0.2-0.2-0.4-0.5-0.6-0.7c0.3-0.1,0.5-0.3,0.8-0.2
						c1.7,0.4,3.4,0.8,5.2,1.3c0.3,0.1,0.4,0.4,0.7,0.6c-0.3,0.1-0.6,0.3-0.8,0.3c-0.9,0-1.7-0.2-2.6-0.2c-0.3,0-0.5-0.1-0.8-0.1
						C76.2,56.8,76.2,56.9,76.1,57z M62.7,54.7c0,0.1,0,0.2,0,0.2c1.7,0.1,3.4,0.2,5.1,0.2c0.2,0,0.5-0.3,0.7-0.4
						c0-0.1-0.1-0.2-0.1-0.2C66.5,55.1,64.6,54,62.7,54.7z M79.3,58.5c-0.1,0.1-0.1,0.2-0.2,0.3c1.5,0.6,3.1,1.1,4.6,1.7
						c0.1-0.1,0.1-0.3,0.2-0.4C82.3,59.6,80.8,59.1,79.3,58.5z M61.2,49.1c-0.1,0.1-0.1,0.2-0.2,0.3c1.3,0.8,2.7,1.6,4,2.4
						c0.1-0.1,0.1-0.2,0.2-0.3C63.8,50.7,62.5,49.9,61.2,49.1z M71.6,56.2c0.1-0.1,0.2-0.2,0.2-0.4c-0.4-0.3-0.8-0.6-1.2-0.9
						c-0.1-0.1-0.4,0-0.6,0.1c0,0,0,0.3,0,0.4C70.3,56.5,71.1,55.9,71.6,56.2z"/>
					<path class="st2" d="M50.8,76.9c0,0.7,0.1,1.5,0,2.2c-0.2,1.4-0.6,2.7-1,4.1c0,0,0,0.1,0,0.1c-0.9,0.7-0.8,2-1.6,2.7
						c-0.2,0.2-0.7,0.2-0.8,0.1c-0.2-0.3-0.3-0.7-0.2-0.9c0.4-0.8,0.9-1.6,1.5-2.3c1-1.4,1.3-2.9,1.5-4.6c0.1-0.5,0.1-1,0.2-1.4
						C50.5,76.9,50.6,76.9,50.8,76.9z"/>
					<path class="st2" d="M49.6,36.3c0.1,0.3,0.2,0.7,0.3,1c0.2,0.7,0.4,1.5,0.6,2.2c0.1,0.3,0.1,0.6,0.1,0.8c0,0.1-0.2,0.3-0.3,0.3
						c-0.1,0-0.4-0.1-0.4-0.2c-0.2-1.3-0.5-2.7-0.7-4C49.4,36.3,49.5,36.3,49.6,36.3z"/>
					<path class="st2" d="M86.8,76.1c-1.2,0.8-2.4,1.5-3.6,2.3c-0.1-0.1-0.2-0.2-0.3-0.3c0.5-0.5,1-1.1,1.7-1.5
						c0.6-0.4,1.4-0.5,2.1-0.8C86.7,75.9,86.8,76,86.8,76.1z"/>
					<path class="st2" d="M48.8,65.6c-0.3-1.3-0.5-2.6-0.8-3.9c0.1,0,0.3-0.1,0.4-0.1c0.3,1.3,0.5,2.6,0.8,3.9
						C49.1,65.6,48.9,65.6,48.8,65.6z"/>
					<path class="st2" d="M20.5,99.2c0.5-0.1,1.1-0.2,1.6-0.3c0,0.1,0,0.2,0,0.3c-0.5,0.1-1.1,0.2-1.6,0.2
						C20.6,99.4,20.5,99.3,20.5,99.2z"/>
					<path class="st2" d="M49.2,36c-0.1-0.5-0.1-1-0.2-1.5c0.1,0,0.2,0,0.4,0c0.1,0.5,0.2,1,0.2,1.5C49.4,35.9,49.3,35.9,49.2,36z"
						/>
					<path class="st2" d="M44.6,65.3c0.1-0.5,0.2-1,0.2-1.4c0.1,0,0.2,0,0.3,0c-0.1,0.5-0.1,1-0.2,1.4
						C44.9,65.4,44.8,65.3,44.6,65.3z"/>
				</g>
			</g>
			<path class="st2" d="M124.2,29.1c1.1,0.5,2.1,1.1,3.1,1.6c0.3,0.2,0.8,0.5,0.9,0.5c0.5-0.4,0.9-0.9,1.3-1.4
				c0.3-0.4,0.3-0.9,0.5-1.4c0.2-0.5,0.2-0.8-0.5-0.8c-1.6-0.1-3.2-0.2-4.8-0.3c-0.4,0-0.9,0.3-1.3,0.4c-0.1-0.1-0.3-0.3-0.5-0.3
				c-0.5-0.1-1.1-0.1-1.6-0.1c-0.2,0-0.4-0.1-0.6-0.2c0.2,0.4,0.5,0.8,0.8,1.2C122.5,28.6,123.4,28.8,124.2,29.1z M128.7,28.9
				c-1.2,0.1-2.2-0.4-3.3-0.8C126.5,28.1,127.7,27.8,128.7,28.9z"/>
		</g>
		<path class="st2" d="M19.4,101.7c-0.2-0.4-0.1-0.8,0-1.3c-0.6-0.1-1.2-0.2-1.8-0.3c0.6,0,1.2-0.1,1.9-0.1c0-0.2-0.1-0.5-0.3-0.7
			c0,0-0.1,0-0.1,0c-1,0-1.9,0.1-2.9,0.1c-2.1-0.1-2.6-0.7-2.5-2.8c0-1.3-0.2-1.4-1.6-1c-0.1-1.1-0.7-1.1-1.4-0.6
			c-0.8,0.5-1.6,1-2.5,1.5c-0.7,0.4-0.6,0.8-0.1,1.3c0.5,0.4,0.9,0.8,1.3,1.3c0.2,0.2,0.2,0.6,0.3,0.9c0.1,0.3,0,0.6,0,0.9
			c0.3-0.2,0.6-0.4,0.9-0.6c0.5,0.3,1.1,0.9,1.7,0.9c1.8,0.1,3.6,0,5.4,0c0,0.1,0,0.2,0.1,0.2C18.2,101.6,18.8,101.6,19.4,101.7z
			 M11.1,96.9c-1.1,0.8-0.5,1.5-0.2,2.4c-0.7-0.6-1.4-1.3-2.2-2c0.8-0.5,1.4-1,2.3-1.5C11,96.3,11.2,96.8,11.1,96.9z"/>
	</g>
</g>
</svg>
