<?xml version="1.0" encoding="utf-8"?>
<!-- Generator: Adobe Illustrator 19.1.0, SVG Export Plug-In . SVG Version: 6.00 Build 0)  -->
<svg version="1.1" id="Layer_1" xmlns="http://www.w3.org/2000/svg" xmlns:xlink="http://www.w3.org/1999/xlink" x="0px" y="0px"
	 viewBox="0 0 522.4 530.8" style="enable-background:new 0 0 522.4 530.8;" xml:space="preserve">
<style type="text/css">
	.st0{fill-rule:evenodd;clip-rule:evenodd;fill:#FFFFFF;}
	.st1{fill-rule:evenodd;clip-rule:evenodd;fill:#FFDE19;}
</style>
<g>
	<g>
		<path class="st0" d="M253,210.2C253,210.2,253,210.1,253,210.2C253,210.1,253,210.1,253,210.2C253,210.1,253,210.1,253,210.2
			C253,210.2,253,210.2,253,210.2z"/>
		<path class="st0" d="M513.8,35c5.7-6.5,9.2-13.6,8.5-22.3c-0.5-5.8-3.5-10-9.1-11.7c-9.4-2.8-17.4,0.8-25.4,5.8
			c-2.3-1.1-5.1-1.5-7.8,0c-2.8,1.6-3.5,4.5-3.8,8.1c-10.9,0-21.7,0-32.5,0c-3.9,0-7.9-0.3-11.8-0.4c-9.3-0.2-18.6-0.2-27.9-0.8
			c-4.5-0.3-8.9-2-13.4-3.2c-0.6-0.2-1.3-1.2-1.4-2c-0.5-2.4-1.5-4.4-3.6-5.7c-3.6-2.3-7.2-0.5-7.8,3.6c-0.1,0.7-0.9,1.7-1.6,1.9
			c-2.2,0.7-4.5,1.2-6.7,1.4c-5.8,0.5-11.6,1.1-17.5,1.2c-2.5,0.1-5.1-0.7-6.2-3.6c-0.2-0.4-0.9-0.9-1.2-0.9
			c-2.2,0.3-4.5,0.6-6.7,1.1c-2.8,0.7-3.3,1.9-2,4.8c-2.2,0.7-4.4,1.6-6.6,2c-15.2,2.7-30.4,5.3-45.6,7.8
			c-6.7,1.1-13.5,1.8-20.3,2.6c-2.2,0.2-4.8,1.1-6.4-1.6c-0.1-0.2-0.7-0.1-0.9-0.3c-0.5-0.4-1.1-0.7-1.3-1.3c-1-2.3-2.7-3.3-5.1-3
			c-1.5,0.2-2.9,0.8-4.4,1.2c-5.2-14.5-24.1-19.7-33.6-9.4c1.8-0.8,3.6-1.6,5.4-2.4c-0.5,0.8-1.1,1.2-1.7,1.6
			c-6.6,5.3-9.7,12.3-9.8,20.6c-0.1,4.7,2,8.9,4.5,12.8c2.6,4,6.1,6.7,11.1,7.2c-3.1,4.7-3,7.9,0.4,10.5c1.3,1,3.3,1.6,5,1.6
			c1.5,0,3.1-1,4.7-1.5c7.1,38.2,13.3,76.8,14.9,116c0-22.1-2.4-44-5-66c0.5,2.1,1,4.1,1.4,6.2c1.5,8.8,2.9,17.7,4.4,26.5
			c0.6,3.8,1.4,7.5,1.9,11.3c0.3,2.3-0.1,4.7,0.1,7c0.4,7,0.8,14,1.4,20.9c0.8,9.1,1.7,18.1,2.6,27.2c0,0,0,0,0.1,0c0,0,0,0.1,0,0.1
			c0.2,1.9,0.4,3.7,0.6,5.6c-0.2,0.1-0.5,0.2-0.7,0.3c-0.5-0.9-1-1.8-1.4-2.7c-0.1,0.2-0.2,0.4-0.4,0.6c0.6-1.3,1.3-2.5,1.9-3.8
			c0,0,0,0,0,0c0,0,0,0,0,0c-1.4,0.3-2.8,0.7-4.8,1.1c0.7,0.8,1.2,1.3,1.8,1.9c-0.1,0.7-0.1,1.6-0.3,3.1c-0.5-1.1-0.6-1.8-1-2.1
			c-0.5-0.5-1.3-1-1.9-0.9c-2.5,0.5-5,1.2-7.5,1.9c-0.1,2.7-1,3.3-3.6,2.7c-1.3-0.3-2.6-0.5-4.4-0.8c-0.5-2.3-0.9-5.2-1.7-8
			c-0.6-2-0.1-3.3,1.2-4.8c4.3-5.3,8.4-10.7,12.6-16.1c1.3-1.7,0.7-2.9-1-3.8c-2-1-3.9-2.3-5.9-3c-11.5-4.2-22.9-8.6-34.5-12.4
			c-8.6-2.8-17.4-5-26-7.4c-3.8-1.1-7.6-2.1-11.4-3.1c-1.9-0.5-4.4-0.2-5.6-1.4c-1.6-1.5-3.1-1.2-4.6-0.9
			c-5.8,1.1-11.6,2.2-17.3,3.6c-1.8,0.4-3.4,1.6-4.9,2.7c-0.5,0.4-0.7,1.3-1,2c-0.6,1.8-0.9,3.8-1.8,5.5c-1.3,2.4-3.3,4.5-4.7,6.9
			c-8.5,14.7-14.1,30.5-17,47.3c-0.8,4.4-0.9,9-0.8,13.5c0.1,5.6,0.5,11.4,7.7,13.7c-2.9,9.4-5.5,18.5-8.5,27.5
			c-6.1,18.3-13.8,35.9-23.1,52.8c-11,19.9-25.2,36.9-44.1,49.8c-3.2,2.2-6.5,4.3-10.3,6.8c0.3-0.9,0.4-1.2,0.5-1.5
			c0.4-1.6,1.3-3.6-0.6-4.4c-1-0.4-3.1,0.4-4,1.3c-2.5,2.3-5,4.8-7,7.6c-4.6,6.4-8.9,13-13.4,19.8c-2.6,0.1-4,0.9-3.8,2.9
			c0.1,1.7,0.4,3.6,1.4,4.8c5.6,6.7,11.1,13.5,17.3,19.5c10.5,10.2,23.2,17.5,35.3,25.6c5.5,3.6,11,7.2,16.4,10.7
			c-0.5,1.4-1.1,2.6-1.3,3.9c-0.7,4.9-2.6,9.3-4.9,13.6c-1.1,2-2.2,4-3.1,6.1c-2.1,4.7-4.2,9.4-6.3,14.2c-1,2.3-2.3,4.6-3.2,6.9
			c-0.3,0.7,0.1,1.7,0.4,2.5c0.1,0.3,1.2,0.5,1.5,0.2c1.3-1,3.4-1.2,3.8-3.5c0.3-1.3,1.2-2.5,1.9-3.7c1.3-2.2,2.7-4.4,4-6.5
			c-0.2-0.1-0.3-0.3-0.5-0.4c-0.6,0.9-1.3,1.9-1.9,2.8c-0.3-0.2-0.6-0.4-0.9-0.6c4.7-11,9.3-22,14.1-33.3c4.2,2.6,8.3,5.3,12.5,7.9
			c-0.3,0.4-0.4,0.7-0.6,0.9c-2.3,2.5-4.5,5.1-7,7.5c-1.2,1.2-3,1.8-4.4,2.7c-0.6,0.4-1.2,0.9-1.5,1.5c-1,1.9-1.7,4-2.7,5.9
			c-2.7,4.8-5.5,9.5-8.2,14.3c-0.4,0.7-0.3,1.6-0.4,2.4c0.9-0.1,1.9,0,2.7-0.2c0.6-0.2,1.1-0.7,1.7-1c2.1-1,8,8.3,10.1,10.3
			c1.1,1,2.6,1.5,4,2.3c0.1-0.1,0.1-0.2,0.2-0.3c-1.6-1.2-3.2-2.3-4.8-3.5c0-0.3,0.1-0.6,0.1-1c5.3-0.3,10.6-0.6,16-1
			c-3.3-0.5-6.6-0.9-9.8-0.9c-3.3,0-10.5-9.6-14.2-9.4c4-6.2,7.6-11.8,10.8-16.9c9.2,5.6,18.3,11.3,27.6,16.6
			c3.3,1.9,5.2,4.3,6.5,7.6c20,8.7,21.1,13.2,23.2,0c-0.1-2.6-1.8-6.2-4.1-8.5c1.2,2.6,2.2,4.9,3.2,7.4c-4.8,0.6-44.4-19.1-48-23.6
			c3.6-0.5,3.6-0.5,2.6-3.8c-0.2-0.7-0.2-1.4-0.4-2.6c4.6-0.4,9.1-0.8,13.5-1.1c0-0.6,0-1.5,0-2.8c-2.1,2.2-3.4,0.3-4.9-0.6
			c-6.2-3.5-12.4-7.1-18.7-10.5c-2.6-1.5-5.1-2.9-5.1-6.9c-0.8,1.2-1.2,1.9-1.7,2.6c-1-0.6-1.8-1.1-2.6-1.6
			c-8.9-5.9-18-11.4-26.6-17.6c-8.7-6.3-17.3-12.8-25.5-19.9c-4.5-3.8-7.9-8.9-11.8-13.4c1.3-1.1,2-1.8,2.8-2.5
			c1.7,2,3.1,3.9,4.8,5.7c8.2,8.7,17.8,15.7,27.7,22.1c22.7,14.7,45.7,28.9,68.5,43.5c5,3.2,9.8,6.9,14.6,10.4
			c0.7,0.5,0.9,1.8,1.3,2.7c-0.9,0.3-1.8,1-2.6,0.9c-3.9-0.5-7.8-1.2-11.6-1.9c-1-0.2-2.3-1.2-2.5,1.1c5.2,1.5,10.4,2.7,15.8,2
			c2.5-0.3,3.3-2.2,1.9-4.3c-0.5-0.8-1.2-1.6-2-2.2c-3.1-2.4-6.2-4.9-9.5-7c-15.1-9.5-30.3-18.9-45.4-28.4
			c-15.9-10-32-19.9-46.5-31.9c-4.6-3.8-8.5-8.4-12.7-12.7c-0.5-0.6-0.8-1.4-1.1-2c0.6-0.7,1.1-1.2,1.6-1.8c-2.7-1-3.2-2.2-1.8-4.3
			c2.2-3.5,4.4-7.2,6.8-10.6c2.4-3.4,4.6-7.2,9.1-8.8c-0.9,3.4-3.7,6.7,0,9.9c1-1.3,1.8-2.9,3.1-4c10.6-9.1,21.4-17.9,31.8-27.3
			c10-9,18.6-19.3,26.4-30.2c0.5-0.7,1-1.3,1.6-2.1c-1.9,12.5-53.8,65.2-66.3,67.1c0.9-1,1.5-1.7,2.1-2.4c-2.3,1.4-4.5,2.8-7.1,4.4
			c0.3-0.6,0.4-0.8,0.5-1.1c0.1-0.3,0.1-0.6,0.2-1c-4.9,3.6-7.5,7.3-6.6,9.2c0.1,0,0.2,0.1,0.2,0c4.4-1.9,7.8-5.7,12.8-6.4
			c0.2,0,0.5-0.3,0.7-0.6c0.7-0.9,1.2-2,2-2.6C38,394,49.3,385,59.5,374.7c10.1-10.2,19.1-21.2,27-33.2c2-3,4.1-5.9,6.2-8.8
			c-0.2-0.3-0.5-0.7-0.4-0.9c2.5-5,5.1-10,7.7-15c0.2,0.1,0.4,0.2,0.6,0.3c-2.2,4.5-4.4,9-6.6,13.5c1-1.3,2.1-2.5,2.8-4
			c3.2-6.1,6.2-12.1,7.8-18.9c1.9-7.5,4.9-14.8,7.6-22.1c0.3-0.8-0.1-2.5,1.8-2.1c0.1-0.5,0.3-0.9,0.3-1.4c0-0.7-0.2-1.4-0.1-2
			c0.3-1.2,1-2.4,1.2-3.7c1.2-5.4,2.4-10.9,3.5-16.4c0.2-1.3,0.2-2.6,0.1-3.9c-0.1-1.4-0.5-2.7-0.6-4c-0.4-4.6-0.6-9.1-1-13.7
			c-0.1-0.7-0.7-1.4-1.1-2.1c-0.6,0.6-1.2,1.2-1.7,1.9c-0.4,0.5-0.5,1.2-0.7,1.9c-0.4-1.2-0.3-2.4-0.2-3.5c0.5-3,1.1-6,1.7-9
			c1.3-7.2,2.3-14.4,4-21.5c2-8.3,4.5-16.6,7.2-24.8c1.5-4.8,3.3-9.5,7.6-12.8c0.8-0.6,0.7-2.3,1.1-3.5c-0.2-0.1-0.4-0.2-0.6-0.3
			c4.2-4.2,9.2-1.7,13.9-2.1c-0.6,0.6-1,1-1.4,1.5c1,0.6,2.1,1.2,2.9,1.6c-3.2,3.3-6.4,6.8-9.7,10.2c-0.3-1.1-0.6-2.2-0.9-3.5
			c-0.3,2.6-0.6,5-0.8,7.3c0.2,0.1,0.4,0.1,0.7,0.2c0.6-0.7,1.2-1.3,1.7-2c2-2.5,4-5,6.1-7.4c2.7-3.2,5.8-5.2,10.5-4.5
			c6.4,1,12.9,1.1,19.4,2c9,1.2,18.1,2.1,26.7,4.5c9.6,2.7,18.8,6.8,28.2,10.4c1.5,0.6,1.9,1.6,1.5,3.3c-1.7,7.8-4.2,15.3-9.4,21.7
			c0.7,0.1,1.4,0.1,1.5,0.4c1.1,3.8,2.7,7.6,3.1,11.5c0.6,6,0.5,12.2,0.6,18.3c0,2.3-0.3,4.6,2.2,6.2c-1.8,1.2-1.5,2.3-0.3,3.6
			c1.4,1.6,2.7,3.3,3.7,5.2c3.8,7.2,7.6,14.4,11.1,21.8c6,12.6,12,25.1,16.3,38.5c5.9,18.7,10.4,37.8,13.1,57.3
			c1.9,13.3,2.7,26.7,2.7,40.1c0,12.1-1.2,24.2-4.4,35.9c-2.2,7.9-5.3,15.7-8.7,23.2c-4.3,9.6-9.8,18.4-17.4,25.8
			c-0.8,0.8-1.4,1.8-2.1,2.7c0.2,0.2,0.3,0.4,0.5,0.7c0.8-0.3,1.9-0.4,2.4-1c1.8-2.3,3.4-4.7,5.2-7c6-7.9,10.9-16.4,14.9-25.5
			c5.2-11.7,8.4-23.9,9.8-36.5c1.2-10.7,1.2-21.5,0.8-32.3c-0.8-18-3.6-35.6-7.3-53.2c-0.2-0.8-0.3-1.6-0.4-2.3
			c0.5,0.4,0.7,0.8,0.8,1.2c2.6,11.5,5.5,22.8,7.6,34.4c2,11.2,3.8,22.6,4.3,34c0.7,12.5,0.2,25.2-0.4,37.7
			c-0.6,12.5-3,24.8-6.6,36.8c-0.2,0.7-0.4,1.5-0.9,2c-1.6,1.6-3.2,3-4.9,4.5c0.1,0.1,0.2,0.2,0.2,0.3c0.7-0.5,1.4-1,2.6-1.8
			c-0.6,1.7-1.4,2.9-1.4,4.1c-0.3,5.1-2.3,9.5-5.3,13.5c-1,1.4-0.9,2.4,0.4,4.1c5.9-9.1,8.9-19.1,12.6-28.7
			c-2.1,9.3-4.6,18.5-7.2,27.6c-0.7,2.6-1.8,5.1-2.4,7.8c-0.2,0.8,0.6,1.8,0.9,2.7c0.7-0.6,1.7-1.1,2-1.9c0.6-1.4,0.9-3,1.3-4.5
			c3.5-11.5,7.1-22.9,10.7-34.4c0.2-0.8,0.9-1.8,1.5-2c5.5-1.2,8.5-5.3,11.3-9.6c0.8-1.2,1.4-1.7,2.9-1.6c3,0.2,4.4-1.1,4.6-4.1
			c0.1-1.7,0.9-2.2,2.5-2.3c14.3-0.8,28.6-1.8,42.9-2.3c22.2-0.9,44.3-0.8,66.4,1.4c3.7,0.4,7.4,0.9,11.1,1.4
			c-1.4,4.5-0.8,6.8,2.1,8.4c2.9,1.7,5.8,1,8.5-0.6c0.4,2,0.8,3.7,1,5.4c1.3,11.7,15,16,23.2,11.6c5.3-2.8,8-7.7,9.7-13
			c0.8-2.4,1-5.4,0.3-7.9c-0.9-3.5-2.9-6.8-4.4-10.2c3.7-3.4,3.4-8-0.9-11.5c-1-0.8-1.4-1.5-1.2-2.9c0.6-3.5-0.3-4.9-4-5.8
			c0.7-8.8,1.4-17.6,2.1-26.4c-0.4,0-0.7-0.1-1.1-0.1c-0.4,4-0.8,8-1.2,12.4c-0.1-0.8-0.1-1.1-0.1-1.5c0.3-9.6,0.5-19.3,0.9-28.9
			c0.6-14.1,1.3-28.1,2.1-42.2c0.9-15.3,1.8-30.6,3-45.8c1.1-13.9,2.5-27.7,3.8-41.5c0.3-3.2,1-6.3,1.6-9.5
			c2.6,3.9,1.5,7.9,1.5,11.9c0,0.2,0,0.3,0,0.5c0.1,29.3,0.3,58.6,0.4,88c0,10.1,0,20.3,0.1,30.4c0,1.9-0.5,2.9-2.5,3.1
			c-2,0.2-4,0.7-6.1,1c-1.7,0.2-2.7,2.2-1.6,3.6c0.3,0.4,0.9,0.5,1.6,0.9c-1.3,0.5-1.9,0.8-2.5,1c0,0.2,0.1,0.4,0.1,0.6
			c3.6,0,7.2,0,11.1,0c0,2.1,0,3.9,0,5.7c0,29.7,0,59.3,2,88.9c0.1,0.9,0.3,1.7,0.5,2.6c0.2,0,0.5,0,0.7,0c0.7-1.4,1.4-2.9,2.1-4.3
			c-0.2-0.1-0.4-0.2-0.6-0.4c-0.4,0.4-0.9,0.8-1.7,1.6c-3.5-64.4-1.3-128.5-2.3-192.5c0.5,8.3,0.8,16.6,1.1,24.9
			c1,27.9,2.2,55.8,3.2,83.7c0.5,14.7,0.7,29.5,1.1,44.2c0.2,10.4,0.4,20.8,0.6,31.1c0,0.8,0.3,1.5,0.4,2.3c0.2,0,0.4,0,0.6-0.1
			c0.7-3.5,1.3-7,2-10.5c0.2,0,0.4,0,0.6,0c0.2,1.6,0.4,3.2,0.5,4.9c0.2,0,0.5,0,0.7,0c0-2.5,0.1-4.9,0-7.4
			c-0.8-11.8-1.6-23.6-2.4-35.5c-0.6-10.4-1.1-20.9-1.7-31.3c-0.9-16.7-2-33.4-2.7-50c-0.8-17-1.3-34.1-1.9-51.1
			c-0.1-3.8,0-7.7,0-11.5c0,0,0.1,0,0.1,0c2.1,16.1,4.3,32.3,6.4,48.7c0-3,0.1-5.7,0-8.4c-0.8-17.1-1.8-34.2-2.6-51.3
			c-0.5-11.5-0.9-23-1.3-34.6c-0.1-3.9,0-7.8,0-11.9c1.1,0.1,1.5,0.2,1.9,0.2c3.8,0.1,7.7,0.4,11.5,0.4c0.7,0,1.7-0.6,2.1-1.3
			c1.2-1.9,2.6-2.2,4.1-0.5c2.8,3.1,6.7,3,9.2-0.3c2.7-3.5,2.3-7.3,1-11c-1.1-3-4.1-3.2-6.8-3.4c-0.1,0-0.1-0.1-0.2-0.1
			c0-1.6-0.1-3.4-1.1-4.2c-0.6-0.5-2.8-0.1-3.7,0.6c-2.1,1.8-4.1,2.6-6.7,1.1c-0.3-0.2-0.8,0-1.2,0c-2.7,0.6-5.3,1.2-8.6,1.9
			c1-3.7,1.8-6.5,2.4-9.4c0.1-0.6,0.1-1.6-0.3-2c-2-1.8-4.2-1.7-6.4,0c0.7,3.5-0.6,12.3-1.8,13c2.8-31.4,6.5-62.8,10.4-94.1
			c0.2,0,0.4,0,0.6,0c0.4,4.3,0.7,8.6,1.1,12.9c-0.3-2.7-0.3-5.4-0.3-8.1c0-5.8-0.4-11.7,0.1-17.5c1.2-11.9,2.9-23.8,4.4-35.7
			c0.5-3.8,0.9-7.7,1.4-11.5c0.1-1.2,0.5-1.7,1.9-2.1c3.2-0.9,6.5-1.7,8.1-5.3c1.8-4.1,0.7-7.5-2-10.7C507.3,42,510.6,38.7,513.8,35
			z M13.2,408.9c0.6-3,2.7-3.1,5.3-3.5C16.4,406.8,14.9,407.8,13.2,408.9z M79.8,342.8c7.2-12,13.7-24.3,19-37.2
			c5.3-13,10-26.2,14.6-38.3C109.4,294.9,97.8,320.2,79.8,342.8z M117.8,204.9c-1.6,6.8-3.1,13.6-4.3,20.5
			c-1.2,6.8-1.8,13.6-2.7,20.4c-0.2,0-0.4,0.1-0.6,0.1c-0.4-2.4-0.9-4.9-1.1-7.3c-0.6-8.3,0.6-16.5,3.1-24.4
			c3-9.5,6.7-18.8,10.2-28.2c0.1-0.3,0.3-0.5,0.8-0.7C121.4,191.8,119.4,198.3,117.8,204.9z M165.5,162.2c-2.8-0.4-5.6-1.3-8.4-1.9
			c-2.9-0.6-5.8-1-8.7-1.5c0-0.2,0.1-0.5,0.1-0.7c8.8-0.3,17.2,1.5,25.4,4.9C171.1,162.7,168.3,162.6,165.5,162.2z M235.3,187.3
			c0.5-1.7,2.7-1.8,5.3-0.2c-2.6,3.5-5,6.8-7.4,10c-0.2-0.1-0.4-0.2-0.5-0.3C233.5,193.7,234.3,190.5,235.3,187.3z M475.2,391.6
			c-2.6-0.1-5.1-0.2-7.7-0.4c-0.1,0-0.1-0.4-0.3-1.2c2.7-0.2,5.2-0.4,7.8-0.5c0.3,0,0.8,0.6,0.8,1
			C475.8,390.8,475.4,391.6,475.2,391.6z M469.6,388.5c0-0.2-0.1-0.5-0.1-0.7c2-0.3,4.1-0.6,6.1-0.9c0.1,0.3,0.1,0.6,0.2,0.9
			C473.7,388,471.7,388.3,469.6,388.5z M482.3,407c0.3,3.3,0.7,6.6,0.9,10c0.7,12.3,1.3,24.6,1.9,36.9c0.2,3.8,0.3,7.6,0.1,11.3
			c-0.1,2.6-0.9,5.1-1.4,7.6c-0.1,0-0.2-0.1-0.2-0.1c-0.5-21.9-1-43.9-1.5-65.8C482.1,407,482.2,407,482.3,407z M506.5,217.1
			c1.9,1,3.5,3.3,2.9,4.7c-0.8,1.9-4.2,3.4-5.9,2.8c0.6-1.7,1.1-3.2,1.7-4.7c-1-0.2-2-0.5-3.1-0.7
			C503.1,217.7,503.9,215.8,506.5,217.1z M509.3,224c0.3,2.6-1.2,4.8-3.5,5.3c-2.2,0.5-3.4-0.5-4.8-4.8
			C504.5,227.7,506.9,225.7,509.3,224z M498,216.9c0.4,0.1,0.8,0.1,1.2,0.2c-1.1,2.2,1.1,5-0.7,7c-0.4-0.1-0.7-0.1-1.1-0.2
			C497.5,221.7,497.7,219.3,498,216.9z M520.3,17.7c-0.5,3.3-1.8,6.4-2.8,10.1c-0.6-5.7-1.2-10.6-1.7-15.2c0.3,0.7,1,1.8,1.5,3
			c0.5,1.2,1,2.5,1.5,3.9c1-5.6-4.8-12.2-14.8-17.2C514.3-0.3,522.1,6.9,520.3,17.7z M482.1,9.9c0.3-0.5,1.9-0.6,2.5-0.3
			c2.2,1.2,1.3,3.3,0.9,6c-1.8-0.7-3.7-0.9-4.6-1.9C480.4,13.2,481.4,11,482.1,9.9z M385,5c-1.7,0.1-3.2,0.3-4.8,0.4
			C381.2,3.2,382.8,3.1,385,5z M259.6,26.3c12.6-1.7,25.2-3.2,37.9-4.8c2.7-0.3,5.4-0.6,8-1c-15.7,3.3-31.5,6.9-47.7,8.1
			c-0.2-0.2-0.3-0.5-0.5-0.7C258,27.4,258.8,26.5,259.6,26.3z M243.6,22c-2.2-5.4-5-10-9.4-13.2C239.7,10.6,244.8,17.5,243.6,22z
			 M240.8,216.2c2,0.3,3.8,0.7,5.6,1c0,0.2,0,0.4,0,0.6c-1.3,0-2.6,0-3.8,0c0,0.1,0,0.2,0,0.3c0.3,0.1,0.6,0.1,1.2,0.3
			c-0.6,0.5-1.1,1-2,1.8c2.1,0.5,3.7,0.8,5.4,1.2c-1.6,0.8-3.3,1.5-4.9,2.3c3.2,1.7,5.4,0.1,7.9-0.7c0-1.3,0-2.4,0-3.9
			c2.4,1.3,1.3,3.4,1.5,5c0.1,0.5-1.3,1.3-2.2,1.8c-1.8,0.8-3.6,1.5-5.4,2.2c-0.1-0.3-0.3-0.5-0.4-0.8c0.4-0.5,0.9-0.9,1.5-1.6
			c-2.2,0.3-4.2,0.5-6.4,0.8C238.1,222.8,239.7,219.5,240.8,216.2z M230.9,238.8c0-2.2,0-4.4,0-6.6c0.1,0,0.1,0,0.2,0
			c0.3,2.2,0.5,4.4,0.8,6.6C231.6,238.7,231.2,238.7,230.9,238.8z M233.3,218.2c1,0.7,2,1.4,3.4,2.2c-2.3,1.1-3.4,0.5-3.9-1
			C232.6,219.1,233.1,218.6,233.3,218.2z M286.1,472.6c-0.1,0.5-0.4,1-0.5,1.5c-0.2-0.1-0.3-0.1-0.5-0.2c0.5-4.1,1.1-8.1,1.6-12.2
			c0.5-4.2,0.9-8.5,1.3-12.7c1.2-12.3,0.9-24.5-0.7-36.7c-1.9-14.4-4-28.8-6-43.2c-0.1-0.4-0.1-0.8,0.2-1.2
			c2.8,12.2,6.5,24.3,6.7,37c0-0.7,0-1.4,0-2.1c0.2,0,0.4-0.1,0.6-0.1c0.3,1.8,0.6,3.6,0.8,5.4c0.1,1.1,0.1,2.1,0.2,3.2
			c0.3,1.7,0.9,3.5-0.8,4.1c0.6,1.6,1.5,2.9,1.5,4.3c0.5,10.8,0.9,21.6-0.8,32.4C288.5,458.9,287.3,465.7,286.1,472.6z M430.2,462.9
			c0.4,2,0.9,4.1,1.4,6.1C428.4,467.5,427.9,464.7,430.2,462.9z M454,485.5c-5.8-1.3-9.6-5-11.9-10.5c6.1,8,14.1,9.8,23.5,7.3
			C462.5,485.8,458.4,486.5,454,485.5z M493.9,229.4c-3.9-0.3-7.9-0.6-11.8-0.9c0-0.1,0.1-0.2,0.1-0.2c3.9,0,7.9,0,11.8,0
			C494,228.6,493.9,229,493.9,229.4z M490.9,215.1c3.7,0,4,0.3,3.5,4.1c-0.3,2.3-0.4,4.7-0.6,7.6c-4.2-0.3-8.2-0.5-12.1-0.9
			c-0.6-0.1-1.6-1.1-1.5-1.5c0.2-1.1,0.7-2.7,1.5-3c1.3-0.5,2.9-0.1,4.4,0.4c-1.1,0.3-2.2,0.6-3.3,0.8c0,0.2,0,0.4,0.1,0.6
			c2.6,0.1,5.2,2.2,7.5-0.1c-0.1-2-0.5-3.5-0.2-4.9c0.4-2.4,0.6-2.3-1.8-3C489.3,215.2,490.1,215.1,490.9,215.1z M487.6,219
			c-2.4,0.3-4.4,0.5-6.9,0.8C482.2,217.6,484.6,217.4,487.6,219z M480.9,204.4c0.2,0,0.3,0,0.5,0.1c-0.4,3-0.8,6.1-1.2,9.1
			c-0.1-0.1-0.2-0.2-0.4-0.3C480.2,210.4,480.6,207.4,480.9,204.4z M478.4,249.2c0.1,0.3,0.1,0.6,0.3,1c0-3.5,0-7,0-10.5
			c0.1,0,0.2,0,0.3,0c1.2,23.7,2.5,47.3,3.7,71c-0.3,0-0.6,0-0.8,0c-1.6-20.7-3.2-41.5-4.9-62.2c0.3-0.1,0.6-0.1,0.9-0.2
			C478.1,248.6,478.3,248.9,478.4,249.2z M476.9,218.6c0.2,0,0.4,0,0.5,0c-0.4,9-0.8,17.9-1.3,26.9c-0.9-0.4-1.7-0.7-3.1-1.3
			C474.3,235.8,475.6,227.2,476.9,218.6z M488.3,100.8c-0.2,0-0.5,0-0.7-0.1c0.1-12.2,2.5-24.2,3.6-36.3c0.3,0,0.6,0,0.9,0
			C490.9,76.6,489.6,88.7,488.3,100.8z M500.1,41.2c2.4-0.7,4.8-1.4,7.5-2.1C504.8,41.6,502.5,42.3,500.1,41.2z M501.3,38.6
			c-1.5,0-3-0.6-4.7-1c0,0-0.5,0.5-0.4,0.6c1.2,2.3-0.2,3.5-1.7,5c-0.6,0.6-0.5,1.9-0.8,3.7c2.6-1.6,4.5-2.5,6.3-0.3
			c1.9,2.3,2.3,6,0.8,8c-0.4,0.5-1.6,1.3-1.7,1.1c-1-0.9-1.8-2-2.5-2.5c-1.4-0.4-2.8-0.8-4.7-1.4c0,0-0.6,0.4-0.7,0.9
			c-0.9,7.7-1.6,15.5-2.9,23.2c0-2.4-0.2-4.9,0-7.3c0.7-8.7,1.5-17.4,2.4-26c0.3-2.3,1.6-4.4,2.1-6.7c0.3-1.5,0.1-3.1-0.2-4.6
			c-0.1-0.6-1.1-1.3-1.7-1.4c-0.4-0.1-1.4,0.8-1.5,1.3c-0.3,3.1-0.5,6.2-0.7,9.3c-0.1,2.7,0,5.4-0.1,8c-0.2,3.7-0.6,7.3-0.9,11
			c-0.3,0-0.5,0-0.8,0c-0.1-6.6-0.2-13.2-0.3-19.8c0-4.8,0.1-9.5,0-14.3c0-1.1-0.8-2.1-1.3-3.4c-2.1,1.7-1.8,3.5-1.2,5.1
			c1.5,3.6,1,7.2,0.5,10.9c-0.3,2.5-0.5,5.1-0.7,7.6c-0.8,10.2-1.5,20.3-2.3,30.5c-0.2,3.2-0.5,6.4-0.8,9.6
			c-0.1,1.8-0.7,2.6-2.9,2.4c-11.8-1.1-23.6-2.2-35.4-3.1c-31.9-2.4-63.9-2.9-95.9-1.9c-4.5,0.9-8.5,0.4-13,0.4
			c-0.6,0.2-1.2,0.4-1.7,0.4c-13.2,1.1-26.4,2-39.5,3.1c-11.4,0.9-22.8,1.9-34.2,2.9c-0.1,0-0.2,0-0.2,0c-5,0.4-4.9,0.4-5.1-4.7
			c-0.3-6.7-0.8-13.5-1.1-20.2c0-0.8,0.5-1.6,0.6-2.4c0.1-0.6,0.1-1.3,0-2c-0.5-2.4-1.2-4.9-1.8-7.3c1.9-0.3,3.5-0.2,4.4-0.9
			c0.7-0.5,0.5-2.1,0.7-3.7c9.5-2.4,19.7-4.8,30.4-4.6c-1.2-0.1-2.5-0.1-3.7-0.2c0-0.1,0-0.3,0-0.4c5.7-0.7,11.5-1.6,17.2-2
			c16.3-0.9,32.7-1.8,49.1-2.3c11.8-0.4,23.6-0.5,35.3-0.5c19.1,0,38.2-0.1,57.3,0.5c9.3,0.3,18.6,1.4,27.8,3.4
			c6.5,1.4,8.6,5.5,11.2,10.2c0.3,0.6,0.7,1.3,1,1.9c0,0,0.2,0,0.9,0.1c-0.1-1.2,0.3-2.7-0.3-3.5c-2.1-2.8-4.4-5.4-6.8-8
			c-1.2-1.3-2.6-2.6-4.7-1.7c-0.3,0.1-0.6,0-0.9-0.1c-10.5-3.1-21.4-3.5-32.3-3.6c-22.2-0.3-44.3-0.4-66.5-0.3
			c-12.1,0-24.2,0.6-36.3,1c-2.9,0.1-5.7,0.3-8.6,0c7.1-0.5,14.2-1.1,21.3-1.6c29.3-2,58.7-2.9,88.1-2.9c5.5,0,11,0.3,16.5,0.6
			c2.3,0.2,4.6,1,7,1.3c0.8,0.1,1.8-0.6,2.7-1c-0.7-0.6-1.3-1.6-2.1-1.8c-2-0.4-4.1-0.5-6.1-0.6c-27.8-1-55.5-0.4-83.2,1
			c-15,0.8-29.9,1.6-44.8,3c-15.1,1.4-30.2,3.4-45.3,5.3c-7.7,1-15.4,2.3-23.2,3.6c-1.9,0.3-3.8,0.8-6,1.3c-0.1-1.9-0.2-3.5-0.3-5.6
			c4.3-0.9,8.7-1.9,13.1-2.7c8.6-1.6,17.3-3.2,26-4.5c8.4-1.2,16.8-2.1,25.2-3c7.8-0.9,15.5-1.6,23.3-2.3c4.7-0.4,9.3-0.7,14-1.2
			c10.5-1,20.9-2,31.4-3.4c-19.8,1.7-39.5,3.4-59.3,5.1c0-0.2,0-0.3,0-0.4c17.2-2,34.5-4,51.7-6.1c0-0.1,0-0.2,0-0.3
			c-3.5,0.3-6.9,0.4-10.4,0.8c-11.7,1.3-23.4,2.5-35,4c-11.8,1.5-23.6,3.3-35.4,4.8c-4.6,0.6-9.3,0.7-14,1.1
			c-9.9,0.8-19.8,1.7-29.7,2.6c-2.8,0.2-5.6,0.2-8.3,0.4c-1,0.1-2,0.8-3.3,1.4c2.2,2.2,4.2,1.2,6.1,0.9c2.7-0.5,5.4-1.4,8.1-1.7
			c6.5-0.7,12.9-1.2,19.4-1.7c0.5,0,1,0,1.5,0.5c-5.1,0.8-10.3,1.7-15.4,2.5c-3.5,0.6-6.9,1.3-10.4,2c-0.8,0.2-1.5,0.9-2.7,1.7
			c1.3,0.5,1.9,0.7,2.6,1c-0.3,2.1,1.1,4.6-1.6,6.4c-0.3-2-0.6-3.8-0.8-5.5c-0.3,0-0.7,0-1,0c-0.1,2.1-0.4,4.1-0.3,6.2
			c0.3,4.8,0.8,9.7,1.3,14.5c0.7,7.1,1.5,14.2,2.3,21.3c0.2,1.5,0,3.1-0.4,4.7c-0.3-2.4-0.7-4.9-1-7.3c-1-9.1-2.1-18.1-3-27.2
			c-0.1-1.4,0.3-2.8,0.4-4.2c0-2.7-1.2-3.7-3.6-3.3c0.5,1.4,1.4,2.8,1.6,4.3c1.2,8.8,2.3,17.6,3.4,26.4c0.5,3.8,0.7,7.7,1.1,11.6
			c-1.3,0.3-2.2,0.5-3.2,0.7c1.5,1.1,4.3,0.1,4.2,3.3c0.1-0.9,0.3-1.7,0.5-3.2c0.5,1,0.7,1.3,0.7,1.6c1.2,12.3,2.5,24.6,3.6,36.8
			c1.5,16.3,3,32.6,4.4,48.9c1.3,14.5,2.6,29,3.8,43.5c1.1,13,2.1,26.1,3.1,39.1c0.9,11.8,1.8,23.6,2.7,35.4
			c0.1,1.5-0.1,2.9-0.2,4.4c0.4,0,0.7,0.1,1.1,0.1c0.8-4.2,1.5-8.4,2.3-12.6c-0.2,0-0.4-0.1-0.7-0.1c-0.4,2.1-0.7,4.2-1.1,6.3
			c-0.1,0-0.2,0-0.3-0.1c-4.1-50-8.3-100-12.4-150c0.2,0,0.3,0,0.5,0c2.4,26.4,4.8,52.8,7.2,79.2c0.1,0,0.2,0,0.4,0
			c-0.3-4.8-0.5-9.5-0.8-14.3c-0.7-8.7-1.5-17.4-2.2-26c-0.8-9.8-1.6-19.7-2.5-29.5c-0.7-8.5-1.5-17-2.1-25.6
			c-0.8-11.2-1.6-22.5-2.4-33.7c-0.2-3.2-0.1-3.1,3.2-3.3c7.2-0.5,14.4-1.2,21.6-1.8c7.2-0.6,14.4-1.4,21.6-2
			c10.6-0.9,21.1-1.6,31.7-2.4c0.3,0,0.6,0,1.2,0c0,0.1,0,0.2-0.1,0.2c2.3-0.4,4.6-0.6,7-0.7c0.4,0,0.8-0.1,1.1,0
			c1.1,0,2.3,0.1,3.4,0.2c0-0.1,0-0.2-0.1-0.3c5.3-0.2,10.5-0.7,15.7-0.6c24.1,0.4,48.3,0.5,72.4,1.5c15.3,0.6,30.6,2.6,46,3.9
			c1.4,0.1,2.1,0.5,1.9,2.3c-1.4,13.9-2.7,27.8-4,41.7c-1.3,13.2-2.6,26.3-4,39.5c-1.5,13.4-3.1,26.8-4.7,40.2
			c-0.7,5.7-1.3,11.4-2,17.1c0.3,0,0.5,0.1,0.8,0.1c1.8-15.8,3.6-31.6,5.6-47.4c0.5-4.1,1.5-8,2-12.1c0.5-4.1,0.6-8.2,1-12.3
			c1.6-15.6,3.3-31.2,5-46.8c0.7-6.3,1.3-12.6,2-18.9c0.1-1.1,0.8-2.1,1.4-3.4c-0.2-0.7-0.8-1.9-0.7-2.9c0.9-10.5,2-20.9,3.3-31.4
			c1.6,11.6,1.6,23.4,1,35c-0.6,11.7-2.1,23.4-2.8,35.1c0.9-6.9,1.8-13.8,2.6-20.7c0.2,0,0.4,0,0.6,0c-0.2,3.1-0.2,6.2-0.6,9.3
			c-1.5,12.6-3.2,25.1-4.8,37.7c-0.8,6.2-1.8,12.3-2.6,18.4c-0.3,2.5-0.2,5-0.5,7.4c-0.6,6.4-1.3,12.8-2.1,19.2
			c-0.8,6.4-1.8,12.8-2.7,19.2c-1.1,7.9-2.3,15.7-3.9,23.6c0.4-7.6,0.7-15.3,1.1-22.9c-0.1,0-0.2,0-0.3,0c-0.3,3.5-0.6,7.1-0.8,10.6
			c-0.6,11.2-0.8,22.3-1.7,33.5c-0.8,10.2-2.4,20.4-3.5,30.6c-1.2,10.8-2.1,21.6-3.2,32.4c-0.7,7.3-1.6,14.5-2.3,21.8
			c-0.7,7.6-1.4,15.2-2.1,22.9c-0.9,9.8-1.6,19.7-2.6,29.5c-1.4,13.7-3,27.4-4.6,41.2c-0.1,0.8-0.4,1.7-0.9,2.4
			c-1.4,1.7-1.2,2.7,1.1,4.2c1.2-1.7,3.3-3.1,1.1-5.6c-0.2-0.3,0-1,0-1.4c0.9-9.8,1.6-19.5,2.7-29.2c0.3-3.1,0.6-6.2,2.1-9.2
			c1.4-2.7,1.3-6.2,2.3-9.3c0,3.2,0.1,6.5,0,9.7c-0.6,13.2-1.2,26.5-1.8,39.7c-0.1,1.1-0.6,2.1-0.9,3.2c-0.3,0.8-0.9,1.8-0.7,2.5
			c0.2,0.8,1.1,1.7,1.8,1.9c0.5,0.1,1.8-0.8,1.9-1.4c0.3-1.5,0.6-3.3,0-4.6c-1.5-2.9-0.9-5.8-0.8-8.6c0.5-13,1-26,1.6-39
			c0.3-6.3,0.9-12.6,1.2-19c0.1-2.5-0.4-4.9-0.6-7.4c0,0,0,0,0,0c0.4,7-0.6,13.8-2.1,20.6c-0.3,0-0.5-0.1-0.8-0.1
			c0.8-6.6,1.6-13.2,2.4-19.8c0-0.3,0.3-0.5,0.5-0.7c0,0,0-0.1,0-0.1c0,0,0,0.1,0,0.1c0,0,0,0,0-0.1c0.7-5.3,1.4-10.6,2.1-15.9
			c-0.3,0-0.5-0.1-0.8-0.1c-0.3,2-0.6,4.1-0.9,6.1c-0.2,0-0.3,0-0.5-0.1c2.9-29,5.8-58,8.8-87c0.2,0,0.5,0,0.7,0.1
			c-0.5,6.3-0.9,12.5-1.4,18.8c-1.2,16.3-2.5,32.7-3.4,49c-1.1,19.7-2,39.5-2.9,59.2c-0.6,13.6-1.2,27.1-1.8,40.7
			c0,0.5,0.2,1.2,0.5,1.5c0.2,0.2,1-0.1,1.4-0.4c0.8-0.6,1.5-1.3,2.3-2c1.4,1.1,1.3,2-0.4,2.8c-1.2,0.6-2.5,3.7-1.9,4.8
			c0.2,0.4,0.6,0.8,1.1,0.9c1.2,0.4,2.4,0.6,3.9,1c-0.4-0.8-0.8-1.4-1.2-2.1c1.8,0.7,2.7,2.2,2.9,3.9c0.1,0.7-0.7,2-1.4,2.2
			c-1,0.4-2.2,0.2-3.3,0.1c-1.1-0.1-2.1-0.6-3.1-0.8c-0.5-0.1-1.2,0.1-1.6,0.4c-0.4,0.3-0.4,0.9-0.7,1.4c0.5,0.1,1,0.3,1.5,0.4
			c0.6,0.1,1.3-0.2,1.8,0c0.4,0.1,0.7,0.7,1,1.1c-0.5,0.2-0.9,0.4-1.3,0.5c0.7,1,1.3,2.1,2.2,2.9c0.5,0.4,1.6,0.6,2.2,0.3
			c1.5-0.7,2.2,0.1,2.7,1.2c3,6.1,3.3,12.3,0.9,18.6c-0.2,0.5-0.6,1-1,1.4c-7.8,6.5-22.9,2.7-25.4-6.7c-0.4-1.4-0.4-3.1-0.1-4.5
			c0.3-1.5,1.4-2.9,1.6-4.5c0.2-0.8-0.8-2.7-1-2.6c-3.4,0.8-2.5-1.7-2.7-3.2c-0.4,1.9-0.5,4-1.2,5.9c-0.5,1.5-1.5,2.9-2.7,3.9
			c-0.7,0.5-2.5,0.5-3.2-0.1c-0.7-0.6-0.9-2.2-0.6-3.2c0.4-1.6,1.4-3,2-4.5c0.2-0.5-0.1-1.1-0.2-1.7c-0.5,0.2-0.9,0.3-1.4,0.5
			c-0.5,0.2-0.9,0.5-1.4,0.4c-11.2-0.8-22.3-1.7-33.5-2.6c-7.6-0.6-15.1-1.1-22.7-1.4c-12.6-0.6-25.3-1.3-37.9-1.6
			c-11.6-0.3-23.2-0.1-34.8-0.1c-0.8,0-1.5,0.1-2.3,0.2c0,0.3,0,0.6-0.1,0.9c4,0.6,8.1,1.2,12.1,1.8c0-0.2,0.1-0.3,0.1-0.5
			c-1.4-0.3-2.8-0.7-4.2-1c17.6-0.8,35.2,0.1,52.8,1.1c-21.9,0.4-43.8,1.7-65.6,3.1c0,0.2,0,0.4-0.1,0.7c2.5,1.2,5,2.5,7.9,4
			c-2,1.3-3,1.1-4.1,0c-0.4-0.5-1.2-0.8-1.8-0.8c-0.4,0-0.7,1-0.9,1.6c-1,4.1-3.3,7.5-6.3,10.4c-0.7,0.7-2,0.8-3,1.2
			c0-1.1-0.3-2.2-0.1-3.2c1.2-5.8,2.8-11.5,3.6-17.4c0.8-6.2,0.8-12.4,1.2-18.6c0-0.5,0.1-1.1,0.2-1.8c0.8,0.2,1.5,0.4,2.4,0.6
			c0.1,1.3,0.2,2.7,0.3,3.9c1.8,0.2,3.4,0.4,5.4,0.6c0.2-1.9,0.4-4.4,0.6-7.1c1.4,0.1,2.4,0.2,3.5,0.3c0.2-0.2,0.3-0.4,0.5-0.6
			c-1-1.2-2-2.5-3.2-3.7c-1.6-1.5-3.5-2.8-5-4.4c-1.5-1.5-2.8-3.3-4.8,0c-0.2-2.8-0.4-5.1-0.6-7.3c5.9,0,11.7,0,17.8,0
			c0.5,10.1,1,19.9,1.5,29.8c0.3,0,0.6,0,0.9,0c1.8-9.7,1.1-19.6,1.3-29.6c9.9,0,19.7,0,29.8,0c0,1.2,0,2.3,0,3.4
			c0.3,8.7,0.5,17.4,0.9,26.2c0,0.6,0.6,1.2,0.9,1.9c0.2-0.6,0.6-1.2,0.6-1.8c0.4-9.4,0.7-18.8,1-28.1c0.1-1.9,1.3-1.5,2.4-1.5
			c9,0.1,18,0.3,26.9,0.4c1.5,0,3,0.1,4.4,0c1.3,0,1.9,0.4,1.9,1.8c-0.3,8.6-0.5,17.3-1,25.9c-0.1,2.1-0.1,4,0.2,6.1
			c0.1,0.5-0.5,1.5-1.1,1.7c-0.8,0.4-1.9,0.3-2.8,0.8c10.1-0.4,20.2-0.8,30.3-1.1c9.4-0.3,18.7-0.6,28.1-0.8c1.5,0,3.1,0.4,4.6,0.9
			c1.7,0.6,3.2,0.6,4.1-1c0.9-1.7,0.1-2.8-1.6-3.4c-0.4-0.2-0.6-0.8-0.9-1.2c-0.6,0.5-1.2,1.3-1.9,1.4c-4.2,0.8-8.5,1.7-12.8,2
			c-11.7,0.7-23.3,1.1-35,1.7c-3.4,0.2-6.8,0.5-10.6,0.7c0.6-6.4,1.1-12.3,1.7-18.2c0.5-5.1,1-10.1,1.5-15.2c0.1-1.4,0.4-2,2-2
			c8.5,0.2,17,0.3,25.4,0.4c1.2,0,2.4,0.3,3.6,0.4c0,9.6,0,19,0,28.4c0.2,0,0.4,0.1,0.6,0.1c0.2-0.6,0.4-1.2,0.5-1.8
			c1.1-8.3,2.3-16.6,3.3-24.9c0.2-1.9,1.1-2.2,2.7-2.2c4.8-0.1,9.7-0.3,14.5-0.6c0.4,0,0.9-0.2,1.8-0.5c-0.8-0.7-1.3-1.1-1.9-1.5
			c0.2-2.8,0.5-5.7,0.7-8.6c0,0-0.1,0-0.1,0c-0.4,2.7-0.7,5.5-1.3,8.2c-0.1,0.5-1.1,1.3-1.7,1.3c-4.1,0.3-8.2,0.6-12.3,0.6
			c-1.7,0-3.4-0.4-5.5-0.7c0.1-0.5,0.4-1.5,0.6-2.4c-0.1,0-0.8,0.1-1.6,0.2c-0.1,0.9-0.1,1.7-0.2,2.5c-10.3,0-20.4,0-30.6,0
			c-0.1-1.3-0.1-2.3-0.2-3.3c-0.2,0-0.5-0.1-0.7-0.1c-0.4,0.9-0.7,1.8-1.3,3.2c-0.2-1.6-0.3-2.6-0.4-3.6c-0.2,0-0.5,0-0.7-0.1
			c-0.2,1-0.4,2.1-0.6,3c-11.4,0-22.9,0-34.4,0c-0.2-1.2-0.4-1.9-0.6-2.9c-0.8,1-1.4,1.8-2.2,2.9c-0.5-1-0.8-1.6-1.4-2.7
			c-0.7,2.9-2.7,2.3-4.4,2.3c-6.4,0-12.8,0-19.3,0c-0.9,0-1.8-0.6-3-1c-1.6,0.3-3.6,0.9-5.7,0.9c-6.3,0.1-12.6,0-19.1,0
			c-0.6-4.7-1-9.1-1.8-13.3c-2.7-13.5-5.3-27.1-8.5-40.5c-1.7-7.2-4.6-14.2-6.9-21.3c-3.4-10.3-6.5-20.7-10.2-30.9
			c-2.4-6.6-6.1-12.8-8.1-19.5c-1.6-5.3-4.7-9.7-6.8-14.7c-2.1-5.3-4.9-10.4-7.5-15.6c-4.8-9.6-7.3-19.7-8.3-30.3
			c-0.2-1.8-0.6-3.6-1-5.5c1.3-0.3,2.7-0.6,4.5-1c0,2.1-0.1,4,0,5.9c0.3,3.2,1.1,3.6,4.2,2.6c4.4-1.3,8.8-2.3,13.5-3.6
			c2,16.4,4.2,33,3.2,50.4c1-0.8,1.4-1.2,1.9-1.6c0.3,2.5,0.6,4.8,0.8,7.1c0.3,0,0.5,0,0.8,0c0-1,0.2-2,0.1-3
			c-0.8-10.9-1.7-21.8-2.6-32.7c-0.8-11.4-1.4-22.8-2.4-34.2c-0.8-9.7-2.1-19.5-3.1-29.2c-0.7-6-1.3-12.1-2.1-18.1
			c-1-7-2.3-13.9-3.2-20.9c-1.1-8.6-2-17.3-2.9-26c-0.7-6.7-1.5-13.4-2.1-20.1c-0.9-9.2-1.8-18.3-2.8-27.5c-0.6-6-1.5-12.1-2.2-18.1
			c-0.2-1.7,0-3.5-0.4-5.1c-0.4-2-1.1-4-2-5.9c-0.2-0.5-1.5-0.6-2.3-0.8c-0.2,0.9-0.7,1.8-0.6,2.6c0.2,1.1,0.6,2.3,1.4,3.1
			c3.3,3.5,2.9,8.1,3.5,12.2c2,16.1,3.8,32.2,5.6,48.2c0.4,3.2,0.4,6.4,0.3,9.7c-1.5-8-3.2-16.1-4.6-24.1
			c-1.9-10.8-3.7-21.7-5.4-32.6c-0.4-2.6-0.1-5.4-0.4-8c-0.1-1-1.1-1.8-1.7-2.7c-0.7,0.7-1.6,1.4-1.9,2.3c-0.3,0.8,0.1,1.8,0.1,2.7
			c0,0.9,0,2.4-0.4,2.5c-1.8,0.6-3.7,1-5.6,1c-0.3,0-0.8-2.1-1-3.2c-0.4-2.8,1.3-3.7,3.6-4.6c1.8-0.6,3.2-2.1,4.8-3.2
			c-0.1-0.2-0.2-0.4-0.4-0.6c-1.9,0.7-3.7,1.4-5.1,2c-0.9-1.4-1.5-2.3-2-3.3c-0.7,0.7-1.4,1.3-2.5,2.4c-3.7,0.2-7-2-9.2-5.4
			c-5.2-8.3-4.2-23.7,5-30.8c6.8-5.2,14.4-4.5,19.5,2.3c2.4,3.2,5.1,6.5,4.9,11c0,0.8-0.3,1.6-0.5,2.3c-0.9-0.7-1.7-1.3-2.4-1.8
			c0.4,1.9,0.7,3.6,1.1,5.7c0.8-0.8,1.4-1.3,2-1.9c0.4,0.6,0.8,1.3,1.3,2.1c1-0.6,1.8-1.1,2.6-1.6c-1.2-3.8-0.8-6,1.5-7.2
			c0.8-0.4,2-0.2,3-0.3c0,1.1,0.3,2.2,0.1,3.2c-0.3,0.9-1.1,1.7-1.8,2.7c1.6,0.1,2.8,0.2,4.1,0.3c0,0.2,0.1,0.3,0.1,0.5
			c-1.2,0.6-2.5,1.2-3.8,1.8c1.5,2.3,2.7,2.7,4.6,1c2-1.9,6-1.6,9.4,0.5c-0.3-0.9-0.5-1.5-0.8-2.2c6.3-0.9,12.4-1.6,18.4-2.8
			c13.5-2.5,26.9-5.2,40.4-7.9c5.2-1.1,10.4-2.5,15.5-3.6c2.1-0.5,4.2-0.6,6.3-1.1c1.1-0.2,2.1-0.8,3-1.2c2.2,0.2,4.5,0.3,6.7,0.6
			c0.7,0.1,1.6,0.2,2.1,0.6c3.2,2.3,6.8,1.7,9.4-0.1c2.2-1.5,4.5-1.8,6.8-2.3c2.1-0.5,4.1-1.1,6.2-1.4c1-0.2,2,0.1,3,0
			c0.5,0,1.2-0.1,1.6-0.5c2-1.8,2.7-1.7,4.1,0.5c0.6,0.8,1.8,1.5,2.9,1.7c3.3,0.7,6.6,1.2,9.9,1.7c1.9,0.3,3.7,0.6,5.6,0.9
			c0.4,0.1,1,0.1,1.1,0.4c1.7,2.6,4.3,1.7,6.7,1.7c7.2-0.2,14.5-0.9,21.7-0.9c13.8,0.1,27.7,0.5,41.5,0.7c2.9,0,5.9,0.1,8.7-0.8
			c1.9-0.6,2.7,0.3,3,2.1c0.2,1,0.6,1.9,1.5,2.8c0.1-0.3,0.4-0.7,0.3-1c-0.8-2-1.9-4,0.9-5.3c0.2-0.1,0.2-0.7,0.4-1.1
			c1.8-5.8,6.8-9.2,12.9-8.6c6.2,0.5,11.2,5.1,12.2,11.7c0.5,3.1,0.5,6.4,0.1,9.5C514.2,33.2,508,38.5,501.3,38.6z M489.8,38.4
			c0.2-2.3,0.5-4.6,0.7-6.9c0.3,0,0.6,0.1,0.9,0.1c0.5,2.4,0.7,4.7-0.9,6.9C490.3,38.5,490.1,38.4,489.8,38.4z M249.1,79.4
			c0,0.3-0.1,0.6-0.2,0.9c-0.1,0-0.2,0-0.3,0c-0.8-9.3-1.6-18.6-2.3-27.9c0.1-0.1,0.2-0.1,0.3-0.2c0.4,0.9,1.2,1.7,1.3,2.6
			C248.4,63,248.7,71.2,249.1,79.4z M294.5,425.9c0.5-0.2,1.5-0.3,1.8,0c1.9,1.6,3.6,3.3,5.5,5c-4.3,0.7-1.4,4.2-2.9,6.4
			c-0.4,0.1-1.2,0.2-2.2,0.4c0-1.7,0.5-3.6-0.2-4.6c-0.7-1-2.6-1.1-4.2-1.7C292.9,429.6,291.9,427.1,294.5,425.9z M310.6,416.9
			c0.3,0,0.7,0,1,0c0,6,0,12.1,0,18.1c-0.1,0-0.2,0-0.3,0C311.1,429,310.9,423,310.6,416.9z M344.1,416.9c0.3,0,0.6,0,0.9,0
			c0,5.5,0,11,0,16.4C344.3,427.8,343.6,422.4,344.1,416.9z M382.9,429.6c0-3.5,0-7.7,0-11.8c0.3,0,0.7,0,1,0.1
			C383.6,422,383.2,426.2,382.9,429.6z M417,434.6c0-5,0-10,0-15c0-2,1.3-1.6,2.9-1.5c-0.8,5.7-1.7,11.1-2.5,16.5
			C417.3,434.6,417.1,434.6,417,434.6z"/>
		<path class="st0" d="M460,367.9C460,367.9,460,367.9,460,367.9c0,0,0-0.1,0-0.1C459.9,367.8,459.9,367.8,460,367.9z"/>
		<path class="st0" d="M235.2,522.1c-3.4-1-1.5-3.2-0.9-5.1c-2,0.4-3.7,0.7-6.2,1.2c0.3-3.2,0.5-6.2,0.7-9.2c0.3-3.1,0.7-6.1,1-9.2
			c-0.3-0.1-0.6-0.2-0.9-0.2c-1.9,5.9-3.7,11.8-5.6,17.8c-0.2,0-0.3,0.1-0.5,0.1c-0.1-0.9-0.4-1.9-0.2-2.8
			c1.1-6.2,3.2-12.2,6.3-17.7c0.5-0.9,1.7-1.5,2.6-2.3c0.3,1.1,0.7,2.3,0.9,3.4c0.1,0.7-0.2,1.4-0.3,2.1c-1.4,5-2.1,10.1-1.2,15.3
			c0.6-2.8,0.8-5.6,1-8.5c0.1-2.3,0.1-4.6,0.2-6.8c0.2,1.1,0.6,2.2,0.6,3.3c0.1,3.8,0,7.7,0,11.6c1.2,0.4,3.1-2,3.8,0.5
			c0.3,1.2-0.7,2.7-1.2,4.4c1.2-0.1,2.4-0.1,3.6-0.2c0.1,0.2,0.2,0.5,0.3,0.7c-1.1,0.6-2.2,1.1-3.4,1.7
			C235.5,522.1,235.3,522.1,235.2,522.1z"/>
		<path class="st0" d="M72,415.2c0.1-0.9,0-1.3,0.1-1.4c5.3-2.2,7.2-7.4,9.8-11.8c2-3.5,3.4-7.4,4.6-11.3c-2.2,3.4-4.3,6.8-6.6,10.1
			c-2.6,3.8-5.5,7.4-8.2,11.1c-0.6,0.8-2.5,1.4-1,3c-0.4,0.4-0.8,0.8-1.3,1.1c-0.3,0.1-1,0-1-0.2c-0.1-0.4-0.1-1,0.1-1.3
			c1.2-1.7,2.5-3.2,3.7-4.9c5.6-8.3,11.3-16.5,16.5-25.1c2.1-3.4,2.9-7.6,4.4-11.5c0.8-2.2,1.7-4.3,2.6-6.5c0.3,0.1,0.7,0.2,1,0.2
			c-0.3,1.3-0.4,2.6-0.8,3.8c-2.5,6.6-4.8,13.3-7.7,19.7c-2.7,6.2-5.9,12.3-9.1,18.2c-1.1,2-3,3.6-4.6,5.4
			C73.9,414.4,73.1,414.6,72,415.2z"/>
		<path class="st0" d="M145.6,383.8c1.7-14.3,3.4-28.7,5.2-43.1C150.5,355.3,148.7,369.7,145.6,383.8z"/>
		<path class="st0" d="M36,391.1c2.3-1.7,4.7-3.4,7-5.2c0.1,0.1,0.2,0.2,0.3,0.3c-2.3,1.8-4.6,3.5-6.9,5.3
			C36.3,391.4,36.1,391.3,36,391.1z"/>
		<path class="st0" d="M459.3,53.8c0,0.5,0,1-0.1,1.8c4.3-0.3,8.6-0.7,12.9-1c0,0.2,0.1,0.4,0.1,0.7c-0.5,0.4-0.9,0.7-1.7,1.4
			c2.2,3.5,4.5,7,6.7,10.6c0.4,0.6,0.2,1.7-0.1,2.5c-0.5,1.4-1.3,2.6-1.7,4c-0.3,1.2-0.2,2.5-0.3,4.4c-7.4,0.3-15.3-1-22.6-1.3
			c-0.1-1.7,0-3-0.3-4.2c-0.5-1.6-1.4-3.1-1.9-4.7c-0.2-0.6,0.3-1.4,0.7-2c1.8-2.9,3.6-5.8,5.4-8.7c0.8-1.2,1.5-2.4,2.2-3.7
			C458.8,53.6,459,53.7,459.3,53.8z M454.2,64.1c-1.8,1.5-2.9,3.2-1.6,5.6c0.6,1.1,0.7,2.4,1.4,3.4c0.6,1,1.4,2.5,2.3,2.6
			c4.9,0.6,9.8,0.9,14.8,1.1c0.9,0,2.1-0.8,2.6-1.5c1-1.8,1.6-3.8,2.2-5.7c0.5-1.6,0-2.6-2-2.3c-1.5,0.2-3,0.2-4.4,0.4
			c-0.5,0.1-1.4,0.4-1.5,0.8c-0.9,2.4-2.7,3.3-5,3.2c-2.4-0.1-3.8-1.5-4.1-3.9c-2-0.2-3.8-0.4-5.8-0.6
			C453.5,66,453.8,65.1,454.2,64.1z M460.5,66.5c0.2,1.3,0.1,2.8,0.5,2.9c1.2,0.5,2.7,0.8,3.8,0.4c0.9-0.3,1.2-1.9,2.1-3.4
			c1.3-0.1,3.5-0.2,5.7-0.4c-2.8-7.7-4.3-8.9-10.6-8.7c-0.9,0-2.2,0.3-2.6,1c-1.7,2.4-3.1,4.9-4.8,7.8
			C457.1,66.4,459,66.5,460.5,66.5z"/>
		<path class="st0" d="M352.7,426.4c-0.4-0.1-0.7-0.1-1-0.3c-0.5-0.3-0.9-0.6-1.4-1c0.5-0.4,0.9-1,1.5-1.1c2-0.4,4.1-0.8,6.1-0.8
			c3.3,0,6.6,0.4,9.8,0.5c0.9,0,1.7,0,2.6-0.1c1.3-0.1,2.7,2,2.5,3.5c-0.8,5.1-1.5,10.2-2.3,15.3c-0.1,0.6-1.3,1.5-1.9,1.4
			c-4.1-0.2-8.2-0.7-12.3-1.1c-2.2-0.2-2.8-2-2.9-3.6c-0.4-3.6-0.4-7.2-0.5-10.8C352.8,427.8,352.8,427.2,352.7,426.4z M370.1,426.9
			c-4.9,0.2-9,0.4-13,0.7c-0.5,0-1.3,1-1.3,1.5c-0.1,3.3-0.1,6.5-0.1,9.9c0.9-0.2,1.6-0.3,2.6-0.5c-0.8,0.9-1.3,1.5-1.9,2.2
			c0.1,0.2,0.1,0.4,0.2,0.6c3.5-0.3,7.1-0.5,10.6-0.8c0.4,0,0.9-0.5,1-0.9C368.8,435.6,369.4,431.6,370.1,426.9z M369.4,425.2
			c-4.2-0.2-8.5-0.5-12.9-0.7C357.4,426.4,365.4,426.9,369.4,425.2z"/>
		<path class="st0" d="M300.6,73.6c-0.5-0.9-1-1.6-1.5-2.5c-0.4,0.4-0.7,1-1.1,1.2c-0.9,0.6-1.9,1-2.8,1.5c-0.2-1-0.8-2.1-0.6-2.9
			c0.5-1.8,1.3-3.5,2.3-5.1c0.4-0.6,1.9-1.2,2.4-0.9c0.6,0.3,0.9,1.6,1.1,2.5c0.3,1.7,0.4,3.4,0.9,5.2c2.3-1.6,5.2-1.7,6.1-3.9
			c-1.2-0.7-2.1-1.3-2.9-1.8c1.1-1.1,2.1-2.3,3.2-3.4c0.3,0.1,0.6,0.3,1,0.4c0.1,1.5,0.2,2.9,0.4,5c1.7-1,3.2-1.9,4.5-2.9
			c0.2-0.2-0.4-1.3-0.7-2.4c-0.7,1.3-1.2,2.1-1.7,3c-0.3-0.1-0.5-0.2-0.8-0.4c0.6-1.2,1.2-2.5,1.9-3.7c0.1-0.1,1.3,0.6,2.3,1.1
			c0.3-0.2,1-0.7,2.2-1.6c-0.6,1.8-0.9,2.9-1.2,3.9c0.2,0,0.3,0.1,0.5,0.1c-0.6,0.7-1.4,1.3-1.7,2.1c-0.3,0.7-0.3,2,0.2,2.5
			c0.5,0.5,1.7,0.6,2.4,0.3c0.6-0.2,1-1.2,1.4-1.9c1-1.9,1.7-4,2.8-5.9c0.4-0.7,1.8-0.7,2.7-1c0.3,1,1,2,0.8,2.8
			c-0.7,2.5,0.2,4.1,2.4,5.4c-2.2,1.3-2.5-0.9-3.3-1c-2.5,1-5,2.1-7.6,2.9c-2.1,0.7-3.2-0.6-3.6-3.9c-4.1-0.1-4.5,3.4-5.8,6.1
			c-0.8,1.6-1.9,3-3.2,4.3c-1.2,1.2-2.8,1.6-4.2,0.4c-1.4-1.2-0.6-2.6,0.1-3.8C299.8,74.8,300.2,74.3,300.6,73.6z M307.2,71.5
			c-0.3-0.2-0.6-0.4-0.9-0.7c-1.9,1.5-4,2.9-5.7,4.6c-0.6,0.5-0.4,1.8-0.5,2.8c0.9-0.2,2.3,0,2.7-0.6
			C304.5,75.7,305.8,73.6,307.2,71.5z M320.2,69.9c2.9-2.3,3.6-4,2.9-6.4C320.8,64.6,319.9,66.6,320.2,69.9z M295.3,71.8
			c0.3,0.1,0.6,0.3,0.9,0.4c1.8-1.6,3.2-3.4,2.6-6.1c-0.3-0.1-0.5-0.2-0.8-0.3C297.1,67.8,296.2,69.8,295.3,71.8z"/>
		<path class="st0" d="M410.8,442.4c-2.3-2.5-4.8-2.7-7.9-1.5c-3.5,1.4-6.6-0.3-9.1-2.8c-2.8-2.9-3.7-6.4-2.5-10.2
			c1.2-3.9,4.1-6.3,8-7.4c4.6-1.3,10.2,3,10.4,7.9c0.1,1.9-0.1,3.9-0.7,5.6c-1.1,2.6,0.4,4.2,1.7,5.9c0.4,0.6,0.7,1.3,1,1.9
			C411.3,442,411.1,442.2,410.8,442.4z M407.6,439.2c0.2-0.1,0.4-0.3,0.7-0.4c-1.5-2.1-2.2-4.2-0.5-6.4c0.2-0.2,0.2-0.6,0.1-0.9
			c-0.8-3.4-2.2-6.4-5.3-8.2c-3.1-1.8-5-1.4-6.8,1.8c-1.1,2-2,4.3-2.3,6.6c-0.6,4.1,0.7,6.4,4.4,7.7c1.4,0.5,3.1,0.6,4.5,0.3
			c1.3-0.3,2.5-1.4,3.8-2.1C406.6,438,407.1,438.6,407.6,439.2z"/>
		<path class="st0" d="M329.1,436.3c-1.8,0.4-3.1,0.9-4.3,1c-1.3,0.1-3,0.5-3.8-0.2c-1.4-1.3-2.6-3-3.1-4.8
			c-1.2-4.2,0.7-8.1,4.1-9.4c2.9-1.1,8,2.5,8.3,5.9c0.1,0.6,0.2,1.2,0,1.7c-1.6,3.3,1,4.9,2.6,7c0.5,0.6,0.7,1.9,0.4,2.4
			c-1,1.4-2.6,0.9-3.1-0.7C329.9,438.3,329.5,437.3,329.1,436.3z M323.2,434.2c1.9,0,3.9-2.2,3.9-4.4c0-2-1.7-4.1-3.2-4.1
			c-1.8,0-4.5,2.8-4.5,4.6C319.3,432.3,321.2,434.2,323.2,434.2z"/>
		<path class="st0" d="M367.3,29c8.2-0.5,16.5-1.1,24.7-1.5c9.8-0.6,19.5-1,29.3-1.6c13.9-0.8,27.8-1.6,41.6-2.4
			c2.5-0.1,5.4,0.3,7.6-0.7c3.1-1.3,6-0.7,9-0.9c0.6,0,1.3,0.6,2,0.9c-0.6,0.4-1.1,1.1-1.8,1.3c-0.7,0.3-1.6,0.2-2.4,0.3
			c-10,0.4-20,0.8-30,1.2c-5.3,0.2-10.5,0.4-15.8,0.7c-12.3,0.6-24.6,1.2-37,1.8c-9.1,0.4-18.2,0.8-27.3,1.2
			C367.3,29.2,367.3,29.1,367.3,29z"/>
		<path class="st0" d="M435.5,430.1c-0.2,1.4-0.4,2.8-0.5,4.1c0,0.6,0.3,1.2,0.6,1.7c0.9,1.6,1.9,3.1,2.8,4.7
			c1.1,2.1-0.1,3.2-2.1,3.2c-1.9,0.1-3.4,0.4-3.5,3c0.5-3.1-1.2-3.1-3.1-2.7c-2,0.4-4,0.1-4.9-1.8c-1-2.1,0.1-4.1,1.8-5.1
			c2.1-1.3,4.6-2.1,6.9-3.1c0.2,0.2,0.3,0.5,0.5,0.7c0.3-1.1,0.5-2.1,1-4c-0.7,0.9-0.9,1.2-1.2,1.5c-1.9,2-4.5,1.4-5.2-1.4
			c-0.3-1.1-0.4-2.5,0.2-3.3c0.8-1.2,2.1-2.5,3.3-2.7c1.8-0.3,2.4,1.5,2.9,3.1C435.1,428.7,435.3,429.4,435.5,430.1L435.5,430.1z
			 M433.7,437.7c-2.6-0.7-4.8-0.4-6.6,1.4c-0.6,0.6-0.8,1.7-1.1,2.5c1,0.3,2.3,1.2,2.8,0.9c1.2-0.9,2,0,2.9,0.2
			c0.4,0.1,0.8-0.1,1.3-0.1C433.2,440.9,433.4,439.4,433.7,437.7z M432.4,427.3c-2.1,1.3-2.3,2.3-0.8,4.1
			C432.7,430.2,434.4,429.1,432.4,427.3z M437.9,442.1c-1.2-1.7-2-2.9-3.1-4.5C434,441,434.5,441.7,437.9,442.1z"/>
		<path class="st0" d="M228.3,38.9c-0.7,0.6-1.4,1.5-2.2,1.7c-3.3,0.7-5.7-0.8-7.6-3.3c-3.8-5.1-2.6-13.4,2.5-17
			c3.6-2.5,6.9-2.5,10-0.1c2.8,2.2,2.4,5.6,1.2,9.2c-1.1,3.1-2.2,4-4.1,4.1c2.5-3.3,2.5-3.3,1.4-4c2.1-1.5,2.6-3.3,1.8-6.2
			c-0.6-2.3-2.4-3.3-4.5-3.6c-3.2-0.4-6.7,2.3-8.2,6c0.5-0.3,0.8-0.6,1.5-1.1c-0.5,1-0.7,1.6-1.4,3c3.1-1.7,5.6-4.7,8.2-0.8
			c1.2,1.9,0.4,4.7-1.8,6.4c0.4-1.4,1-2.6,1.1-3.8c0.1-1-0.2-2.6-0.8-2.8c-1-0.4-2.8-0.4-3.4,0.3c-1.6,1.8-3.5,3.9-3.7,6
			c-0.3,2.9,3.2,6.2,6,6.6c1.1,0.1,2.3-0.5,3.5-0.8C227.9,38.8,228.1,38.9,228.3,38.9z"/>
		<path class="st0" d="M499.7,30.5c-2.4,0.5-3.5-1.2-4.5-2.7c-3.6-5.4-4.2-9.1-0.8-13.7c0.9-1.2,4.9-2.3,6.3-1.7
			c3.7,1.4,5.7,5.1,5.2,9.3c-0.1,1.1-0.2,2.3-0.3,3.4c-0.4,0-1.1-0.1-1.3,0.1c-2.6,2.5-5.4,3.2-8.6,0.7c-0.1,0.2-0.2,0.4-0.3,0.6
			C496.9,27.7,498.3,29.1,499.7,30.5z M495.2,25.1c0.4-1.3,0.5-2.4,1-3.2c0.4-0.7,1.1-1.7,1.9-1.8c0.6-0.1,1.9,0.8,1.9,1.4
			c0.1,0.8-0.5,1.8-1.1,2.4c-0.4,0.4-1.4,0.4-2.3,0.6c1.5,1.5,3,1.7,4.7,1.1c2.5-0.9,3.3-3,3.3-5.3c0-2.5-0.7-4.9-3.2-6.2
			c-2.1-1.1-4-0.7-5.6,0.9C493.3,17.3,493.1,20.9,495.2,25.1z"/>
		<path class="st0" d="M263.8,82.4c1.5-5.1,3.1-10.1,4.6-15c-2.8-0.2-3.6-1.3-2.4-4c0.8-1.8,1.8-3.5,2.9-5.1c0.4-0.6,1.3-1.1,2-1.1
			c0.3,0,0.8,1,1.1,1.6c1.2,1.8,0.8,3.7,0.2,5.6c-1.6,5.4-3.3,10.8-4.9,16.2C266.9,82.1,266.1,83.1,263.8,82.4z M266.2,65.6
			c3-0.1,4.1-2.3,3.6-7.1C268.7,60.9,267.5,63.3,266.2,65.6z M269.4,70.6c-0.2,0-0.5-0.1-0.7-0.1c-0.9,2.9-1.7,5.8-2.6,8.7
			c0.2,0.1,0.4,0.1,0.6,0.2C267.7,76.4,268.5,73.5,269.4,70.6z"/>
		<path class="st0" d="M451.1,465c1.1,1,1.6,1.5,2.3,2.1c0.3-0.2,0.6-0.6,0.8-0.6c1.1,0.2,2.2,0.5,3.3,0.7c-0.3,0.8-0.6,2.2-0.9,2.2
			c-1.1,0.1-2.4-0.1-3.2-0.8c-1-0.8-1.5-2.1-2.3-3.2c-2.1,1-2.9,2.7-3,4.7c-0.1,2.4,1.2,4,3.2,5.1c3.1,1.7,7,1,9.5-1.5
			c2.8-2.8,3.8-7.9,2-10.7c-0.6-0.9-1.6-1.5-2.3-2.8c0.8,0.3,1.9,0.4,2.2,0.9c1,1.7,2.1,3.6,2.3,5.5c0.4,6.5-5.4,11.7-11.8,10.8
			c-3.8-0.5-6.5-3.6-6.6-7.4c-0.1-3.1,3.2-7.1,6.3-7.6c0.5-0.1,1.2,0.2,1.7,0.5c0.2,0.2,0.1,0.8,0.2,1.3c-0.5,0-1-0.1-1.5,0
			C452.8,464.6,452.3,464.7,451.1,465z"/>
		<path class="st0" d="M468.7,28.8c-1.1,0-2.3,0-3.5,0c1.9-1.5,6.2-1,9.1,0.9c-0.8,1.9-2.6,1.5-4,1.5c-6.1-0.1-12.2-0.4-18.3-0.5
			c-16.2-0.3-32.4-0.6-48.6-1.1c0.3,0,0.6-0.1,0.9-0.1c20.7,0.2,41.3,0.4,62,0.6c0.9,0,1.8-0.3,2.6-0.5
			C468.8,29.3,468.7,29.1,468.7,28.8z"/>
		<path class="st0" d="M289.5,64.2c-0.2-0.1-0.3-0.2-0.3-0.2c-1-0.3-1.9-0.6-2.9-0.8c0.8-0.7,1.7-1.4,2.4-2.2
			c0.5-0.6,1.1-1.3,1.2-2.1c0.4-2.9,0.7-5.9,1.1-8.8c0.1-0.6,0.4-1.2,0.6-1.9c1,1.3,1,1.3,0.4,5.6c-0.3,1.9-0.6,3.9-0.9,6.1
			c1.3,0,2.5,0,4.4,0c-0.8,1-1.1,1.7-1.6,2c-2.6,1.4-3,3.7-2.9,6.3c0.1,2.6,0,5.1-0.4,7.7C289.1,72.1,289.9,68,289.5,64.2z"/>
		<path class="st0" d="M333.8,64.8c0.5-0.7,0.8-1.2,1.1-1.5c0.5-0.4,1.2-0.9,1.6-0.8c0.5,0.1,0.9,0.9,1,1.5c0.2,1.3,0.1,2.6,0.3,3.9
			c0.1,1,0.5,1.9,0.8,2.9c-1.5,0.3-2-0.1-2.2-2.3c-0.1-1.4-0.2-2.9-0.7-4.3c-0.7,1.7-1.4,3.3-2.1,5c-0.2,0-0.4,0-0.6,0
			c-0.2-1.3-0.4-2.6-0.6-3.9c-0.2,0-0.4-0.1-0.6-0.1c-0.8,2.1-1.7,4.1-2.5,6.2c-0.3-0.1-0.5-0.1-0.8-0.2c0-3,0-6,0-9.1
			c0.2-0.1,0.4-0.1,0.5-0.2c0.4,0.9,0.9,1.7,1.3,2.7C331.4,63.7,332.6,62.7,333.8,64.8z"/>
		<path class="st0" d="M276.9,77.3c0-2.3,0-4.6,0-6.9c-0.3-0.1-0.5-0.1-0.8-0.2c-0.8,2.4-1.5,4.8-2.4,7.5c-2.5-3.1-2.8-7.4-0.8-10
			c0.3,1.6,0.5,3,0.8,4.7c0.7-1.2,1.1-2.4,1.8-3.1c0.3-0.3,1.7-0.3,2,0C278.7,70.5,278.5,75.8,276.9,77.3z"/>
		<path class="st0" d="M285.8,74.9c-0.5-1.6-1-3.3-1.6-5.2c-1.6,2-3,3.6-4.3,5.3c-0.2-0.2-0.5-0.4-0.7-0.6c0.4-0.5,0.9-1,1.2-1.6
			c1-1.9,1.8-3.9,2.8-5.8c0.3-0.7,0.9-1.2,1.4-1.8c0.2,0.7,0.4,1.3,0.5,2c0.1,0.8,0.1,1.6,0.3,2.3c0.4,1.3,1.3,2.6,1.4,3.9
			c0,1.5-0.5,3.1-1.1,4.5c-0.2,0.4-1.6,0.2-2.5,0.2c0.3-0.8,0.4-1.7,0.8-2.3C284.2,75.3,285,75.2,285.8,74.9z"/>
		<path class="st0" d="M222.7,32.1c-0.7-1.3-1.5-2.2-1.3-2.6c0.5-0.9,1.5-1.6,2.3-2.3c0.7,0.8,1.4,1.5,2.1,2.3
			C225,30.2,224.2,30.9,222.7,32.1z"/>
		<path class="st0" d="M252.3,240.1c0.7,1.9,1.3,3.8,2.1,6c0.3-0.2,1-0.5,1.8-0.9c0.1,0.2,0.2,0.4,0.4,0.6c-2.2,1.3-4.3,2.7-6.5,4
			c-0.3-0.2-0.6-0.4-0.8-0.6C252.7,246.9,254.1,243.9,252.3,240.1L252.3,240.1z"/>
		<path class="st0" d="M393.3,449.6c6.7,0,13.4,0,20.1,0c0,0.1,0,0.2,0,0.3c-6.7,0-13.5,0-20.2,0
			C393.3,449.8,393.3,449.7,393.3,449.6z"/>
		<path class="st0" d="M252.3,240.1c-1.5-2.2-1.5-2.2-1.2-8.6c0.2,0,0.4,0,0.6,0C251.9,234.4,252.1,237.2,252.3,240.1
			C252.3,240.1,252.3,240.1,252.3,240.1z"/>
		<path class="st0" d="M431.2,449.6c-4.8,0-9.6,0-14.5,0c0-0.1,0-0.1,0-0.2c4.9,0,9.7,0,14.6,0C431.2,449.4,431.2,449.5,431.2,449.6
			z"/>
		<path class="st0" d="M435.5,430.1c0.2-3.6,0.4-7.3,0.6-10.9c0.2,0,0.5,0,0.7,0.1C436.4,422.8,436,426.4,435.5,430.1L435.5,430.1z"
			/>
		<path class="st0" d="M362,439c-0.9-0.8-1.2-1.3-1.7-1.6c-1.9-1.2-3.4-2.9-2.4-5c0.6-1.4,2.4-2.6,4-3c2.1-0.6,3.4,1,4.6,2.8
			c1.2,1.8,0.5,2.9-0.7,4C364.6,437.3,363.1,438.2,362,439z M362.5,429.9c-1.1,1.4-2,2.3-2.5,3.4c-0.1,0.2,1.4,1.6,1.5,1.5
			c1-0.6,2-1.4,2.7-2.4C364.3,432.2,363.3,431.1,362.5,429.9z"/>
		<path class="st0" d="M404.8,429.2c-0.6,1.6-0.7,3.3-1.6,4.3c-1,1.2-3,2.6-4.1,2.3c-1.3-0.4-2.5-2.3-3.1-3.8
			c-0.8-1.7,0.7-2.8,2.1-3.7c0.7-0.4,1.4-0.8,2.2-1.1c0.9-0.4,2.2-1.1,2.7-0.8C403.7,427,404.1,428.3,404.8,429.2z M398.2,430.2
			c-0.3,0.1-0.5,0.2-0.8,0.3c0.2,0.8,0.2,1.9,0.7,2.4c1.2,1.2,2.5,1,3.5-0.4c0.4-0.6,0.7-1.2,1-1.8c0-0.1-0.6-0.6-0.6-0.6
			c-0.5,0.5-0.9,1-1.4,1.5c-0.1,0.1-0.3,0.1-0.4,0.1C399.5,431.3,398.8,430.7,398.2,430.2z"/>
	</g>
	<g>
		<g>
			<g>
				<path class="st1" d="M356,293c1.4,5.8,2.7,11.5,4.1,17.3c0.2,0,0.4-0.1,0.6-0.1c-1-13.2-1.9-26.4-2.9-39.7
					c0.4-0.1,0.8-0.3,1.2-0.4c1.4,2.2,2.9,4.4,4.1,6.7c5.7,10.2,11.3,20.5,16.9,30.7c0.7,1.3,1.8,2.5,2.3,3.9
					c1.9,5,0.9,10.3,1.3,15.4c1.3,13.8,2.6,27.5,5.3,41c0.1,0.7,0,1.4,0,2.2c-0.3,0-0.6,0.1-0.8,0.1c-0.3-1.3-0.5-2.6-0.9-3.8
					c-3.3-11.6-2.8-23.8-5.7-35.4c-3.2-13.1-7.1-26-12.9-38.2c-0.6-1.3-2.6-2.5-0.9-4.3c0.1-0.1-0.2-0.6-0.3-0.9
					c-2.2-3.8-4.3-7.5-7.1-11.3c-0.2,1.5-0.6,3.1-0.5,4.6c0.7,6.6,1.5,13.2,2.3,19.8c0.1,0.7,0.1,1.5,0.2,2.3
					c-0.2-0.5-0.3-0.8-0.6-1.3c-0.1,0.4-0.3,0.6-0.2,0.8c0.5,5,1.3,9.9,1.6,14.9c0.7,9.4,3.9,18,7,26.8c2.1,6.2,3.2,12.8,4.3,19.3
					c0.7,4.1,1,8.3,1.3,12.4c0.1,1.5-0.1,3-0.5,4.4c-0.2,1-1,1.8-1.5,2.7c-0.2-0.1-0.5-0.2-0.7-0.3c0-2.3-0.8-5.1,0.2-6.7
					c1.7-2.7,0.7-4.9,0.4-7.5c-3.5,9.1-8.2,17.3-14.2,24.9c-0.3-0.2-0.7-0.4-1-0.7c1.8-2.6,3.7-5.2,5.5-7.9
					c3.9-5.8,7.1-11.8,8.7-18.7c0.4-1.5,0.3-3.2,0.4-5.3c-7,3.5-13.8,6.1-20.9,7.8c1.9-3.3,5.9-2.3,8.7-4.3
					c-2.6-1.7-5.1-3.3-7.5-4.8c-3.4,3.3-3.4,3.8-0.2,7c-1.3,0.2-2.3,0.6-3.2,0.4c-6.3-2-12.4-4.1-18.7-6.1c-2.7-0.8-5.6-1.4-8.4-1.9
					c-0.6-0.1-1.8,0.2-2,0.7c-2.5,5.3-4.8,10.6-7.1,15.9c-0.2,0.4,0,1,0.3,1.5c1-2.4,2.1-4.7,3.1-7.1c0.1,0.1,0.3,0.1,0.4,0.2
					c-1.5,4.3-3,8.5-4.8,13.5c4.7-0.3,8.8-0.5,12.9-0.7c0,0.3,0.1,0.6,0.1,0.9c-1.3,0.5-2.7,0.9-4.7,1.6c1.4,0.1,2.2,0.2,2.9,0.3
					c0,0.2,0,0.4,0,0.6c-4.1,0.4-8.6-2.1-12.5,1.8c1.9-0.4,3.4-0.7,5-1c0.1,0.2,0.1,0.4,0.2,0.6c-1.6,0.6-3.2,1.4-4.9,1.7
					c-4,0.7-7.8,1.9-10.9,4.6c-2.3,1.9-4.3,4.1-6.4,6.1c1.1,1.4,1.9,2.5,2.8,3.6c-0.1,0.2-0.3,0.4-0.4,0.7c2.4,0.2,4.8,0.4,7.2,0.5
					c0,0,0,0.1,0,0.1c-3.6,0-7.3,0-11.8,0c1.2-0.8,1.9-1.2,2.8-1.8c-2.2-1.6-2-2.8-0.6-5c3-4.8,8-6.8,12.4-9.7
					c0.7-0.5,1.5-0.9,2.3-1.3c-0.1-0.2-0.2-0.5-0.3-0.7c-4.7,1.9-9.5,3.8-14.2,5.7c-0.1-0.2-0.2-0.4-0.3-0.6c1.6-1.8,4-2.5,6.2-3.4
					c2.2-0.9,4.5-1.3,6.3-1.8c0-2-0.6-4,0.1-5.4c3.6-6.9,7.5-13.7,11.2-20.5c0.4-0.8,0.2-2.1,0.8-2.7c0.8-0.9,2.2-2,3.2-1.9
					c2.8,0.2,5.5,0.8,8.2,1.7c4.2,1.4,8.3,3.1,12.5,4.7c1,0.4,2,0.6,3.1,0.7c1.6,0.3,2.5-0.1,2.6-2.1c0.2-2.6,4.6-4.3,6.7-2.8
					c0.8,0.6,1.5,1.2,2.3,1.8c0.8,0.6,1.5,1.4,2.4,1.7c4.2,1.6,8.1,0.8,11.6-1.9c0.5-0.4,0.7-1.7,0.5-2.4
					c-1.5-5.9-3.1-11.7-4.7-17.6c-1.1-3.8-2.2-7.6-3.5-11.3c-0.6-1.8-1.5-3.4-2-5.2c-0.4-1.6,0-3.4-0.4-5
					c-1.6-6.4-3.5-12.8-5.1-19.3c-2.2-8.6-4.3-17.2-6.4-25.8c-1-4.1-2.2-8.2-2.9-12.4c-0.3-1.5-0.7-3.3,1.5-4.7
					c1.7-1.1,2.7-3.2,4.1-5c-0.9-0.7-1.6-1.3-2.4-1.7c-1.8-0.9-2.9-2-2.4-4.2c0.1-0.4-0.3-0.9-0.6-1.2c-2.2-2.6-4.4-5.1-6.7-7.8
					c-0.2,0.2-0.7,0.7-1.3,1.2c-4.3-3.1-6.1-8.8-11.5-11.4c0-0.8,0-2.1,0.2-3.3c0.5-2.3-0.2-4.2-1.7-5.9
					c-6.1-6.8-10.7-14.3-12.5-23.4c-0.8-4.1,0.8-8.9,3.9-10.4c0.8-0.4,1.9-0.1,2.9,0c0.6,0,1.2,0.3,1.8,0.4c1.3,0.2,2.5,0.4,3.8,0.6
					c-0.3,1.1-0.7,2.2-1,3.5c3.4,0.5,6.9-0.1,10.2-1.1c8.3-2.7,15.7-7.4,22.2-13c4.5-3.9,8-9.2,12-13.8c-1.7-2.3-3.5-4.6-5.3-7
					c-1.6-2.1-2.2-4.3-0.1-6.5c1-1.1,0.7-1.9-0.1-3c-2.3-2.8-3.9-6-3.5-9.7c0.1-1.2,0.6-2.7,1.5-3.4c3.9-3.5,8.1-6.7,12.1-10.1
					c1.1-0.9,1.9-2.3,3.1-3c1.3-0.7,2.9-1.4,4.3-1.3c7.7,0.6,14.7,3.3,21.3,7.2c3,1.8,3.5,3,2.7,6.4c-0.8,3.2-1.8,6.3-3,9.4
					c-0.9,2.4-0.5,4.3,0.7,6.4c0.5,0.8,0.4,1.9,0.8,2.7c4,10,8.4,19.8,11.9,30c5.1,14.6,9.2,29.5,9.9,45.1c0.3,6-0.6,12.1-0.6,18.2
					c0,2.9-1.9,4.6-3.1,6.7c-0.9,1.6-5.8,1.2-7.2-0.3c-1.9-2.1-1.9-2.1-5.3-1.7c2.9,2.1,1.6,4.2,0.2,6.2c-2.6,3.7-5.9,6.5-9.8,7.6
					c1.2,4.2,3,8.1,3.2,12.1c0.2,6-0.4,12-1.4,17.9c-2.1,13.4-5,26.6-7,40c-0.8,5.5-0.2,11.3,0.3,17c0.3,3.7,1.5,7.4,2.4,11
					c0.6,2.6,2.3,4.4,5,4.8c2.9,0.5,5.1-0.9,6.8-3.1c2.2-2.7,4.2-5.5,6.2-8.3c0.5-0.7,0.8-1.5,1.1-2.2c0.4,0.2,0.8,0.4,1.2,0.6
					c0.7,2,1.4,4.1,2.2,6.1c2.1,5.8,4.1,11.6,6.5,17.3c1.5,3.7,5.2,5.3,8.5,6.9c0.9,0.4,1.8,0.8,2.7,1.2c1.3,0.5,1.9,1.2,1.9,2.8
					c0,1,0.5,2,0.9,2.9c0.4,1,1,2,1.4,2.9c-0.2,0.1-0.4,0.2-0.6,0.3c-1.1-2.1-2.3-4.2-3.4-6.4c-0.1-0.2-0.3-0.4-0.5-0.5
					c-7-3.4-14.4-5.6-22.2-5.6c-0.2,0-0.4,0.2-0.9,0.3c0.5,0.3,0.8,0.6,1.2,0.9c-0.1,0.1-0.2,0.2-0.3,0.2c-2.2-0.2-4-1-5.6-3.6
					c1.4-0.1,2.6-0.6,3.4-0.3c3.2,1.2,6.4,0.9,9.4-0.1c0.8-0.3,1.8-2.2,1.6-3c-2.1-6.7-4.6-13.3-7.2-20.6c-1.9,2.9-4.8,5.3-4.8,7.7
					c0,3.2-1.6,4.1-3.7,5.2c-0.1,0.1-0.3,0.2-0.1,0.1c-2.9-0.2-5.4-0.3-8.1-0.5c0.3,1.1,0.7,2.2,1,3.4c0.1,0.4-0.3,0.9-0.4,1.4
					c-0.4-0.3-1.2-0.5-1.3-0.9c-1.1-3.1-2.3-6.2-3.2-9.4c-1.2-4-2.1-8.1-3.1-12.1c-1.4,2,0,5.3-1.9,7.3c-0.3-0.1-0.5-0.1-0.8-0.2
					c0.1-1.5,0.1-3,0.4-4.5c2.2-11.2,0.4-22.5,0.2-33.7c-0.1-7.2,0.6-14.5,1.4-21.6c0.9-7.4,2.5-14.7,3.7-22.1
					c0.2-1,0.3-2.3-0.1-3.2c-4-8.6-7.8-17.2-12.2-25.5c-2-3.8-5.2-7.1-8.2-11.1c0,1.7,0,2.8,0,4c-2.3-1.8-1.7-3.3,0.3-4.8
					c-3.3-2.8-2-5.4-0.1-8.2c1.1-1.6,1.8-3.6,2.7-5.4c-0.2-0.1-0.5-0.2-0.7-0.4c-2.4,4.7-4.8,9.4-7.4,14.6c-0.3-2.8,1.2-4.6,2.1-6.5
					c1-2.2,2.2-4.2,3.4-6.2c1.2-1.9,2.5-3.6,4.1-5.7c-4.5,0-8.6-0.3-12.6,0.1c-1.8,0.2-3.5,1.5-5.1,2.5c-0.4,0.2-0.3,1.5-0.1,2.2
					c1.4,4.3,2.9,8.6,4.3,12.8c0.3,1,0.5,2,0.7,3c0.6,0.2,1.4,0.5,2.6,0.9c-0.9,0.7-1.5,1.1-2.1,1.6c-1.6,1.3-4,1.7-4.4,4.5
					c-0.1,1-1.9,1.7-2.7,2.7c-3.4,4.7-6.7,9.5-10.2,14.2c-2,2.7-0.7,5.4-0.3,8c1,5.6,2.3,11.2,3.6,16.9c0.7,3.2,1.5,6.3,2.3,9.4
					C355.8,292,355.9,292.5,356,293z M344.9,204.1c2-1.8,4-3.6,6-5.5c-0.2-0.2-0.4-0.5-0.6-0.7c-0.5,0.3-1,0.6-1.5,0.8
					c1.5-1.6,3.2-3.2,4.5-4.9c2.5-3.2,4.7-6.6,7-10c1.1-1.6,2.4-3.1,3.2-4.8c0.6-1.3,0.5-2.9,0.7-4.5c-0.8-0.1-1.9-0.5-3-0.5
					c-0.7,0-1.6,0.4-2,1c-1.1,1.4-2,3-3,4.5c-6.3,9.7-12.6,19.4-18.8,29.1c-0.5,0.8-0.4,1.9-0.5,2.9c0.3,0,0.5,0.1,0.8,0.1
					c0.5-0.8,1-1.7,1.6-2.3C341.1,207.6,343,205.9,344.9,204.1z M348,231.2c-0.2,0.3-0.6,0.8-0.5,1c1.7,3.8,3.5,7.5,5.4,11.2
					c0.2,0.4,1.3,1,1.6,0.8c2.3-1.5,5.2-2.4,6.2-5.3c2.8-2.1,4.7-6.3,3.7-8.9c-3.2-8.8-6.4-17.6-9.7-26.4c-0.5-1.4-1.5-2.7-2.5-4.6
					c-3.9,4.1-7.4,7.7-10.8,11.3c-0.3,0.3-0.1,1.1,0,1.6c1,3.9,1.9,7.8,3.2,11.6C345.5,226.1,346.9,228.6,348,231.2z M391.8,147.1
					c-4.9,0.4-8.9-1.9-13-3.6c-1.3-0.5-2.2-0.8-2.3,0.1c0.7,1.6,1.1,2.6,1.5,3.5c-1.2-0.3-2.4-0.5-3.5-0.8c-0.2-0.1-0.3-0.6-0.5-0.7
					c-0.5-0.2-1.1-0.5-1.7-0.4c-1.2,0.1-2.4,0.6-3.5,0.4c-3.3-0.4-5.6,1.7-4.2,4.5c1.5,3,3.8,5.7,6.2,8.1c1.1,1,2.5,2.4,4.7,1.9
					c5.4-1.3,10.9-2.5,15.6-5.7c0.4-0.3,1.1-0.2,1.7-0.3c0.1,0.3,0.2,0.7,0.4,1c-1.7,0.9-3.4,1.9-5.2,2.6c-1.6,0.6-2.4,1.6-3.1,3.1
					c-1.7,3.9-1.1,7.9-1.3,11.9c0,0.6,0.2,1.2,0.4,2.1c1.4-0.2,2.8-0.1,3.8-0.7c2.2-1.4,1.7,1.8,3.1,1.7c0.1,0,0.2,0,0.2,0
					c0.9,0.9,2.1,1.7,2.6,2.9c2.2,5.4,4,11,6.4,16.2c3.1,6.9,6.8,13.5,10.1,20.3c1.3,2.7,2.5,5-0.1,8.2c-3.8,4.6-6.7,10.1-9.9,15.2
					c-2.4,3.9-6.3,7.2-5.6,12.3c-0.7-0.6-1.4-1.1-2.1-1.6c-0.2,0.2-0.4,0.5-0.5,0.7c1.1,1.5,2.3,2.9,3.3,4.5
					c0.8,1.2,1.6,1.2,2.7,0.7c1.6-0.7,3.3-2.1,4.9-2c2.5,0.1,2.7-1.1,2.9-2.9c0.4-3.8,0.8-7.7,1.6-11.4c0.3-1.3,1.6-2.4,2.5-3.6
					c0.3,1.3,0.7,2.5,1,3.8c0.3,1.3,0,3,1.9,3.2c2.7,0.3,5.4,0.5,8.5,0.7c0.6-5,1.5-9.6,1.6-14.2c0.6-18.6-3.6-36.4-10.2-53.6
					c-3.6-9.4-7.7-18.7-11.1-28.1c-1.2-3.4-3.9-7-0.2-11c1.6-1.8,1.9-4.8,2.3-7.4c0.2-1.2-0.4-3.2-1.3-3.8c-5.6-4.1-12-6.3-18.9-7.4
					c-0.9-0.1-2.1-0.1-2.8,0.4c-4.6,3.2-9.3,6.5-13.7,9.9c-1,0.8-1.4,2.4-2.3,3.5c-0.3,0.4-1.1,0.5-1.7,0.7
					c-0.2-0.2-0.3-0.4-0.5-0.6c-0.2,0.8-0.4,1.7-0.6,2.5c-0.5,3.8,2.4,6.2,4,9.1c0.1,0.2,1.1,0.3,1.4,0.1c0.5-0.3,0.9-0.9,1.2-1.3
					c2.2,0.5,4.2,0.9,6.8,1.5c-0.7-1.3-1.1-1.8-1.3-2.4c-0.2-0.6-0.1-1.3-0.2-1.9c0.5,0.2,1.1,0.4,1.6,0.7c3.7,1.7,7.4,3.4,11.1,5
					c0.4,0.2,1.1,0,1.6-0.2C391.3,143.4,391.3,143.4,391.8,147.1z M324.5,184.6c-2.1,0.1-3.8,0.7-5.1,0.2c-2.4-0.8-3.3,0.6-3.8,2.3
					c-0.5,1.6-0.7,3.4-0.6,5.1c0.7,7.4,4.3,13.5,8.6,19.3c1.5,2,2.6,5,6.1,3.8c-0.2,2.9-0.4,5.5-0.6,8.2c0,0.5,0,1.2,0.3,1.6
					c2.7,3,5.3,6,8.1,8.8c0.6,0.6,1.8,0.5,2.7,0.7c0.8,0.2,2,0.1,2.4,0.6c1.8,2.4,3.5,4.9,5.1,7.4c0.6,1,1.3,2,1.6,3.1
					c0.4,1.6,2.7,3.6,4.4,3.6c-0.4-0.6-0.9-1.1-1.2-1.7c-1.8-3.8-3.4-7.8-5.3-11.6c-1.9-3.7-4.4-7-6.3-10.8c-2-4.1-3.8-8.3-5.3-12.5
					c-0.7-2-1.3-4.3,1.3-5.8c0.4-0.2,0.5-0.8,0.8-1.2c5-7.7,10-15.4,15-23.1c1.3-2.1,2.5-4.3,3.8-6.4c-2.6,1.3-4.6,3-6.9,4.4
					c-8.5,5.3-17.2,10.3-28.5,7.8C322.2,187.2,323.2,186.1,324.5,184.6z M393.8,244.6c-0.1,0.1,0.2-0.1,0.3-0.3
					c3.9-8.1,7.8-16.3,11.4-24.5c0.5-1.2,0.1-3.2-0.7-4.4c-3.7-5.8-7.6-11.5-11.4-17.3c-0.4-0.7-0.7-1.5-1-2.2
					c-0.5,0.2-1,0.4-1.5,0.6c1.9,2.1,0.4,2.9-0.6,4c-2,2.3-3.9,4.6-5.8,7c-0.1,0.2-0.3,0.4-0.3,0.7c-0.3,2.3-1,4.5-1.6,6.7
					c-1.3,5.1-2.1,10.2-3.1,15.4c-0.1,0.7-0.5,1.3-0.8,1.9c0.2-0.2,0.3-0.4,0.5-0.5C382,238.4,387.1,242.3,393.8,244.6z
					 M373.1,175.8c2.7-2.2,4.1-4.6,4.1-8.1c0-3.9-1.2-5.6-4.9-6c-2.3-0.2-3.9,0.3-5.2,2.2c-0.4,0.7-1.1,1.2-1.7,1.8
					c-1.8,2.1-3.6,4.2-5.8,6.8c3.5-0.2,5.8,1.3,8.7,0.2c1.5-0.6,3.6,0.6,5.7,1.1c-1.8,1.5-5.1-1.2-5.3,2.9c2.7,0.6,5.4,1.5,8,1.7
					c2.6,0.2,5.3-0.3,8.7-0.6c-6.2,3.7-11.5,1.1-17.3-0.4c-0.2,2.4-0.3,4.6-0.7,6.7c-0.6,3.1,0.8,5.5,3.9,6.1
					c2.6,0.5,5.2,0.6,7.8,0.7c0.6,0,1.5-0.3,1.7-0.7c2-4.4,3.9-8.9,6-14c-3,0.3-5.2,0.9-7.3,0.7
					C377.4,176.9,374.9,178.1,373.1,175.8z M384.1,194.7c0.2-1.9-0.5-2.4-2.2-2.4c-3.9-0.1-7.8,0-11.6-0.7c-4.1-0.8-5.9-3.6-4.8-7.6
					c0.4-1.5,0.4-3.2,0.5-4.9c-0.8,0.5-1,1.3-1.6,1.8c-2.8,2.6-0.6,8.2-5.7,9.3c-1.7,2.7-3.3,5.5-4.9,8.1c2.2,3.8,5.3,5.3,9.5,5
					c2.1-0.2,4.3-0.1,6.4,0c2.5,0.1,4.8-0.4,7-1.7c2.2-1.2,4.6-2.1,7.1-2.8c2.4-0.7,3.4-1.9,2.9-4.6
					C385.9,194.4,385.1,194.6,384.1,194.7z M392.4,329.7c1.8-9.4,4-19.8,5.9-30.4c1.7-9.2,3.3-18.4,3.1-27.9
					c-0.1-3.7-1.4-6.9-3.1-9.9c-1.8-3.3-4.2-6.3-6.3-9.3c-0.6-0.8-1.4-1.4-2-2.1c-0.2,0.1-0.3,0.3-0.5,0.4c1.6,3.5,3.1,6.9,4.8,10.4
					c2.3,4.8,3.4,9.5,2,14.9c-1.7,7-3.3,14.1-3.7,21.3C391.9,308.4,392.4,319.7,392.4,329.7z M404.4,228.2c0.2,0.1,0.5,0.2,0.7,0.4
					c1.4-2.5,3.1-4.8,4.2-7.5c0.5-1.2,0.5-3.1-0.1-4.4c-1.6-3.9-3.5-7.6-5.3-11.3c-2.6-5.3-5.5-10.4-8-15.8
					c-1.6-3.6-2.7-7.4-4.1-11.1c-0.2-0.5-1-0.8-1.5-1.1c-0.3,0.5-0.9,0.9-1,1.4c-0.6,4.6-1.3,9.2-0.2,13.8c0.3,1.4,0.3,2.7,2.5,2.1
					c1.4-0.3,3,0.2,3.7,2c1.1,2.9,2.7,5.5,5.3,7.4c1.1,0.8,1.7,2.3,2.4,3.6c0.7,1.4,0.8,3.4,1.9,4.4c2.9,2.7,2.7,5.6,1.6,8.9
					C405.9,223.5,405.2,225.8,404.4,228.2z M365.5,210.8c0.1,0.2,0.2,0.4,0.3,0.5c4.3,0,8.7-0.2,13,0.1c2.9,0.1,3.3,0,3.8-2.7
					c-1,0-2,0-3,0c5.1-2.5,6.8-4.7,5.9-9.2C378.7,203.3,372.1,207,365.5,210.8z M371.4,204.9c-0.1-0.1-0.2-0.3-0.3-0.4
					c-4.1,0-8.3,0-12.4,0c0.6,2.4,1.3,5.1,2,8.1C364.4,210,367.9,207.4,371.4,204.9z M372.4,296.6c3.3,9.9,6.7,20,9.7,29
					C383.5,315.1,378.2,305.7,372.4,296.6z M314.8,368.6c-0.3-0.1-0.5-0.2-0.8-0.3c-2.2,4.8-4.5,9.6-6.6,14.4
					c-0.2,0.4,0.2,1.4,0.5,1.5c0.9,0.4,1.9,0.5,2.8,0.7C310.5,379.3,313.2,374.1,314.8,368.6z M377,161.3c0.8,2,1.5,3.7,2.3,5.5
					c3.5-1.2,3.2-4.3,4.4-7.4C381.1,160.1,379.1,160.7,377,161.3z M382.6,190.3c1,0.9,2,1.8,3,2.7c0.2-0.1,0.5-0.2,0.7-0.3
					c0.4-3.6,0.8-7.1,1.2-10.7c-0.1,0-0.3,0-0.4,0C385.6,184.7,384.1,187.4,382.6,190.3z M380.3,216.2c-0.2,0-0.4,0-0.5,0
					c-0.1,0.3-0.1,0.6-0.2,0.9c-1.4,3.9-4.6,7.4-2.3,12c0.1,0.1-0.1,0.4-0.2,0.6c0.2,0.1,0.4,0.1,0.6,0.2
					C378.5,225.3,379.4,220.8,380.3,216.2z M421.9,244.8c-2.6-0.2-5.1-0.3-7.8-0.5c1,2.2,2.2,3.4,4.6,3
					C420.4,247.1,421.6,246.8,421.9,244.8z M387.6,243.3c-0.1,0.1-0.2,0.2-0.4,0.3c1.2,1.6,2.4,3.2,3.7,5c0.8-1,1.4-1.7,2.1-2.5
					C391.1,245.1,389.3,244.2,387.6,243.3z M422.8,242.3c0.2,0,0.3,0,0.5,0.1c0.6-5.3,1.2-10.6,1.8-15.8c-0.2,0-0.3,0-0.5-0.1
					C424.1,231.8,423.4,237.1,422.8,242.3z M407,252.4c3.4-3.4,3.5-4.9,0.8-5.8C407.5,248.4,407.3,250.1,407,252.4z M399.6,258.3
					c1.8-1.2,3.2-2,5-3.1C401.7,254.6,400.2,255.5,399.6,258.3z M342.4,223.9c0.3-0.1,0.5-0.2,0.8-0.2c-0.8-1.8-1.5-3.7-2.3-5.5
					c-0.3,0.1-0.6,0.3-1,0.4C340.7,220.3,341.5,222.1,342.4,223.9z"/>
				<path class="st1" d="M366.8,373.9c-3.2,2.6-6.2,5.5-9.7,7.7c-5.1,3.2-10.6,5.9-16,8.7c-0.8,0.4-2.4,0.7-2.6,0.4
					c-0.6-1-1-2.3-1-3.4c0-0.6,1.1-1.5,1.9-1.6c9.7-2.2,18.6-5.9,26.3-12.2c0.1-0.1,0.4-0.1,0.7-0.1
					C366.5,373.6,366.7,373.8,366.8,373.9z M349.1,384.5c0-0.1-0.1-0.2-0.1-0.3c-2.8,0.8-5.5,1.7-8.4,2.3c-2.2,0.5-1.8,1.5-0.9,3.2
					C342.9,387.9,346,386.2,349.1,384.5z"/>
				<path class="st1" d="M358.5,256.4c1.1,1.5,2.2,3,3.4,4.4c1.8,2.1,3.7,4.2,5.7,6.1c2,1.9,2.8,1.8,4.6-0.2
					c3.4-3.7,6.8-7.3,10.2-11c0.2,0.1,0.4,0.3,0.6,0.4c-0.3,0.5-0.4,1-0.8,1.4c-2.9,3.1-5.7,6.4-8.8,9.3c-1.8,1.6-1.4,3-0.6,4.7
					c3.8,8,7.5,16,11.3,24.1c0.2,0.3,0.2,0.7-0.2,1.2c-1.1-2.5-2.2-5.1-3.3-7.6c-2.5-5.2-4.9-10.4-7.5-15.5
					c-0.9-1.7-2.4-3.1-3.9-4.4c-4.3-3.7-8.2-7.7-11.3-12.4C358,256.8,358.2,256.6,358.5,256.4z"/>
				<path class="st1" d="M346.9,402.5c-2.6,1.3-5.3,2.6-7.9,4c-0.2-0.3-0.3-0.6-0.5-0.9c2.7-1.3,5.4-2.5,8-3.8
					C346.6,402,346.7,402.2,346.9,402.5z"/>
				<path class="st1" d="M368.4,216.6c-1.1,2.9-2,3.1-4.6,0.9C365.4,217.1,366.7,216.9,368.4,216.6z"/>
				<path class="st1" d="M356,293c-0.1-0.5-0.1-1-0.2-1.5c0.4,0.5,1,1,1.2,1.5c0.8,2.5,1.5,5,2,7.6C358,298.1,357,295.6,356,293z"/>
				<path class="st1" d="M411.9,392.6c-1.2,0.7-3.6-0.9-5-3.8C408.8,390.1,410.3,391.3,411.9,392.6z"/>
				<path class="st1" d="M366.7,329.6c-0.4-2.1-0.8-4.3-1.1-6.4c0.2,0,0.5-0.1,0.7-0.1c0.4,2.1,0.8,4.3,1.2,6.4
					C367.2,329.5,367,329.6,366.7,329.6z"/>
				<path class="st1" d="M382,149.8c-1.1,0.8-2.4,1.5-3.3,2.5c-1.1,1.2-4.2,1.6-6.7,0.5c-1.2-0.5-2.4-0.9-3.4-1.6
					c-0.6-0.4-1.1-1.1-1.4-1.8c-0.1-0.3,0.4-1.3,0.7-1.3c0.7,0,1.7,0.1,2.1,0.6c1.2,1.5,2.1,0.8,3.1-0.1c1.6-1.3,3.1-1.2,4.6,0.2
					c1.5,1.4,2.8,0.5,4.2-0.4c0.8-0.5,1.6-0.9,2.4-1.4c0.4,0.8,1.3,1.9,1,2.2c-0.6,0.7-1.7,1.1-2.6,1.6
					C382.5,150.5,382.2,150.1,382,149.8z"/>
				<path class="st1" d="M335.6,207.1c-2.3,1-0.3,5.2-4,5.2c1.1-1.9,2.2-3.8,3.4-5.6C335.1,206.8,335.3,207,335.6,207.1z"/>
				<path class="st1" d="M360.8,238.9c-1.1-0.4-2.2-0.9-3.5-1.4c0.2-0.5,0.3-1.1,0.6-2.1c-4.4,1.3-6.2-2.7-9.3-4
					c1.4,0.6,3.2,0.9,4.2,1.9c2,2.1,4.2,1.8,6.5,1.1c1-0.3,2-0.4,3-0.6c0.1,0.3,0.2,0.5,0.3,0.8c-1.1,0.6-2.2,1.1-3.7,1.8
					C359.5,237.4,360.1,238.1,360.8,238.9z"/>
			</g>
			<g>
				<g>
					<path class="st1" d="M275.6,156c-1.1,0.6-2.5,1.9-3.3,1.7c-1.1-0.4-2.3-1.9-2.6-3.1c-0.3-1.3,0-2.9,0.6-4.2
						c0.3-0.7,1.7-1.4,2.5-1.3c0.7,0,1.6,0.9,2.1,1.6c0.6,0.8,0.8,1.8,1.3,2.9c2-2.8,1.1-6.7-1.6-7.8c-2.1-0.9-3.5,0.4-4.5,2
						c-1.8,2.8-1.8,5.9-0.5,9c0.9,2.2,3.3,3.2,5.8,2.5c1.7-0.5,3.3-1.3,5-2c0.6-0.3,1.2-0.5,2.2-1c-1.6,3.4-6.8,6.1-9.9,5.5
						c-3.3-0.6-5.7-3.7-6-7.5c-0.2-2.8,0.1-5.6,1.9-8c2.2-2.9,5.6-3.6,8.2-1.5c2.9,2.3,3.9,7.7,1.6,9.9c-0.7,0.7-2,0.8-3,1.2
						C275.5,155.9,275.5,155.9,275.6,156z M273,150.8c-1.9,1.7-1.9,3.2,0.2,4.8C273.1,154.1,273,152.6,273,150.8z"/>
					<path class="st1" d="M311.7,97.1c0.4,5.4,3.6,9,6,12.7c1.3-0.2,2.3-0.4,3.2-0.5c-0.5,1-0.9,2-1.4,3.1c0.8,1.3,1.8,2.8,3.1,4.8
						c-3.2-0.2-3.4-4.9-7.2-2.7c2.1-4.8-2.5-6.6-3.5-9.9c-0.6-2.1-1.8-4.1-2.2-6.2"/>
					<path class="st1" d="M305.9,114.7c1.5-0.5,2.7-0.9,4-1.3c0.2,0.3,0.3,0.6,0.5,0.9c-1.1,0.9-2.3,1.9-3.4,2.8
						c0.9,3.3,3.3,6.1,3.3,9.6c-0.3,0.1-0.6,0.3-0.9,0.4c-0.7-1.4-1.4-2.7-2-4.1c-1.3-3.1-1.9-3.4-5.2-2.4c-0.5,0.2-1.1,0.5-1.6,0.5
						c-0.4,0-1.2-0.2-1.3-0.4c-0.1-0.5,0.1-1,0.3-1.5c0.1-0.3,0.5-0.4,0.8-0.6c3.6-2.6,3.7-2.6,1.7-6.7c-0.7-1.5-1.6-2.9-2.3-4.4
						c-0.2-0.5,0.2-1.3,0.3-1.9c0.5,0.3,1.2,0.6,1.4,1C303,109.3,304.4,112,305.9,114.7z"/>
					<path class="st1" d="M281.6,140.8c0.7,1.4,1.4,2.7,2,4.1c0.2-0.1,0.4-0.1,0.6-0.2c-0.2-1.5-0.5-3-0.6-4.5c0-0.6,0.3-1.3,0.4-2
						c0.5,0.4,1.2,0.7,1.6,1.1c0.7,0.8,1.2,1.8,1.8,2.7c0.2-0.1,0.4-0.2,0.6-0.2c-0.3-1.7-0.6-3.5-0.7-5.2c-0.1-0.7,0.3-1.4,0.5-2.1
						c0.6,0.5,1.7,1,1.8,1.6c0.4,1.8,0.5,3.7,0.7,5.6c0.2,2.7-0.9,3.5-3.6,2.8c-0.1,0.1-0.2,0.2-0.3,0.4c-0.6,1.1-1.2,2.3-1.8,3.4
						c-1-0.9-2-1.7-2.9-2.7c-0.6-0.7-1-1.7-1.2-2.7c-0.2-0.7,0.1-1.4,0.2-2.2C281.1,140.8,281.4,140.8,281.6,140.8z"/>
					<path class="st1" d="M304.8,126.4c0.2-0.3,0.4-0.7,0.6-1.1c0.2,0,0.4,0.1,0.6,0.1c-0.2,1.5-0.5,3.1-0.7,4.6
						c-0.5-0.2-1.1-0.4-1.6-0.7c-0.1-0.1-0.3-0.1-0.5-0.2c0,0.2-0.1,0.5-0.1,0.7c-0.3,1-0.6,2-0.9,3c-0.7-0.7-1.4-1.4-2.1-2.1
						c-0.7-0.7-1.5-1.3-2-2.1c-0.4-0.6-0.5-1.4-0.7-2.1c0.8,0.1,1.6,0.2,2.3,0.4c0.3,0.1,0.6,0.5,0.7,0.6c0.7-1,1.1-2.1,2-2.6
						C302.7,124.8,303.8,125.8,304.8,126.4z"/>
					<path class="st1" d="M315.8,122.7c-2.7-3.3-3-4.7-1.8-6.8C315.4,117.8,316.1,119.7,315.8,122.7z"/>
					<path class="st1" d="M296.7,132.6c-1.1-1.1-2.5-1.8-3.7-2.7c-2.5,0.8-2.4,2.6-2,4.2c0.1,0.4-0.2,0.9,0,1.2
						c0.7,1.3,1.2,3.3,2.2,3.6c1.8,0.6,2.5-1.3,3-2.8c0-0.1,0.2-0.2,0.3-0.3c2.5,1,2.9,0.8,3.6-2.5
						C298,135.1,297.6,133.6,296.7,132.6z M294.1,136.4c-0.7,1.2-1.7-1-1.7-2.8c0-1.8,1-1.1,1-1.1
						C294.4,132.7,294.8,135.2,294.1,136.4z"/>
				</g>
				<path class="st1" d="M344.5,86.2c-0.1-0.7-0.2-1.5-0.4-2.3c0-0.1,0-0.1,0-0.2c-0.3-0.8-0.9-1.2-1.6-1.6
					c-2.7-1.7-5.2-1.9-7.8-0.2c-0.5,0.3-1.2,1.5-1.8,1.7c-0.3,1-0.8,2.4-1,3.2c-0.3,0.1-0.5,0.1-0.6,0.1c-2.1-0.4-4.2-0.6-5.4,1.7
					c-1.2,2.3,0,4.1,1.4,5.8c2.1,2.7,5.2,3.6,8.4,4.2c1.2,0.2,2.3,1.1,3.4,1.1c0.8,0,2.1-0.5,2.5-1.2
					C343.9,94.7,344.9,90.6,344.5,86.2z M341.9,92.1c0,0.6-0.4,1.1-0.5,1.6c-0.4,2.2-1.4,3.5-3.6,2.7c-3.7,0.4-6.6-1-8.9-3.4
					c-0.8-0.8-0.7-2.6-1-3.9c1.3,0.2,2.6,0.3,3.8,0.6c0.8,0.2,1.5,0.6,2.3,1c0-0.8,0-1.6-0.1-2.4c-0.5-2.3,0.9-4,3-5
					c0.3-0.1,0.6-0.3,0.9-0.4c1.2-0.2,2.2-0.2,3.3,0.5c-0.2,0-0.4,0-0.5,0c0.8,0.1,1.5,0.6,1.6,2.1C342.4,87.7,342,89.9,341.9,92.1z
					"/>
			</g>
		</g>
		<polygon class="st1" points="316.3,115.3 313.2,113.8 322.3,106.2 322.3,107.7 		"/>
		<circle class="st1" cx="311.9" cy="111.5" r="1.5"/>
	</g>
</g>
</svg>
