<?xml version="1.0" encoding="utf-8"?>
<!-- Generator: Adobe Illustrator 19.1.0, SVG Export Plug-In . SVG Version: 6.00 Build 0)  -->
<svg version="1.1" id="Layer_1" xmlns="http://www.w3.org/2000/svg" xmlns:xlink="http://www.w3.org/1999/xlink" x="0px" y="0px"
	 viewBox="0 0 691.4 477.8" style="enable-background:new 0 0 691.4 477.8;" xml:space="preserve">
<style type="text/css">
	.st0{opacity:0.85;}
	.st1{fill-rule:evenodd;clip-rule:evenodd;fill:#FFFFFF;}
	.st2{fill-rule:evenodd;clip-rule:evenodd;fill:#FFDE19;}
</style>
<g>
	<g class="st0">
		<path class="st1" d="M661.2,16.6c8-4.3,16.1-8.5,24.2-12.8c2-1,3.9-2.1,5.9-3.2c-0.1-0.2-0.3-0.4-0.4-0.7
			c-37.1,18.5-74.2,37-111.3,55.5c-0.5-0.8-0.7-1.5-1-1.7c-2.1-0.7-4.2-1.4-6.2-2c-0.2,1.4-0.7,2.9-0.6,4.3c0.2,2-0.2,3.2-2.2,4.1
			c-11,5-22,10.2-32.9,15.3c-1.2-1.3-2.2-2.5-3.5-4c-1.8,6.1-4.5,8.6-9.2,9.2c0.3-0.8,0.6-1.6,0.7-2.4c0.3-2.1-1.4-3.8-3.3-3.4
			c-2.8,0.5-4.8,3.4-4.3,6.2c0.2,1,0.4,2,0.6,3c-1.4,0.6-2.6,1.1-4,1.7c-1-2.9-3.4-3.5-5.3-2.5c-1,0.5-0.8,3.1-1.4,5.6
			c-6.1,2.6-13,5.6-19.9,8.5c-2-3.3-2.6-7.8-1.3-8.9c0.1-0.1,0.5,0.2,0.9,0.3c-0.1,0.9-0.2,1.8-0.2,2.7c0.3,0.1,0.7,0.3,1,0.4
			c0.3-0.7,0.9-1.3,1-2c0.3-2.2-1.1-3.1-2.9-3.1c-0.6,0-1.8,1.3-1.7,1.9c0.3,3.1,0.9,6.1,1.4,9.5c-7.3,2.9-14.7,5.7-21.4,10.3
			c-4.3,2.9-9.4,4.5-13.6,7.5c-2.7,1.9-5.2,3.2-8.4,3.3c-2.7,0.1-5.3,0.3-8,0.4c-0.4-1.3-0.7-2.5-1.1-3.8c-0.3,0-0.5,0.1-0.8,0.1
			c-0.2,1.4-0.3,2.7-0.5,4.3c-2.9-0.6-4.5,0-2.9,3.2c0.1,0.2,0,0.4,0,0.6c1.3,15.8,2.6,31.5,1.2,47.3c-0.1,1.1-1.3,2.1-1.8,3.2
			c-0.5,0.9-1,1.9-1.1,2.9c-0.2,1.5,0.6,3.4-0.1,4.4c-1.6,2.3-1.3,3.9,0.3,5.6c0.7,11.6,2.1,23.1,1.1,34.7c-1,11.7-1.3,23.5-2,35.3
			c-5.3-40.7-13.9-80.9-16.4-122.1c6.6-1,12.6-1.9,18.6-2.8c-0.1-0.4-0.1-0.9-0.2-1.3c-6.7,0.8-13.4,1.5-20.2,2.3
			c0.5,6.8,0.8,13.1,1.4,19.4c1,9.3,2.3,18.5,3.6,27.8c1.3,9.6,2.9,19.3,4.1,28.9c0.6,4.7,0.9,9.4,1.3,14.2c0.4,2.6,0.8,5.1,1.3,7.6
			c0.2,0,0.4,0,0.5-0.1c-0.2,1.3,0.7,2.6,0.3,4.3c0.6,2.8,1.1,5.7,1.7,8.5c0,0,0,0,0.1-0.1c0,0.3,0,0.5,0.1,0.7
			c0.5,2.6,1,5.2,1.4,7.9c-0.4-2.7-0.9-5.3-1.4-7.9c0.1,1.3,0.2,2.4,0.4,3.4c1.7,11.5,4.1,23.1,1.8,34.8c-0.1,0.6-0.1,1.2-0.1,1.9
			c-0.9,16.1-1.8,32.2-2.7,48.3c-0.2,4.3-0.6,8.7-0.9,13c-5,0.1-5.5,0.4-5.2,3.3c1.4-0.7,3.1-1.4,5.3-2.5c-0.3,5-0.5,9-0.9,13
			c-0.1,0.7-0.8,1.3-1.2,1.9c-0.5-0.4-1.2-0.6-1.5-1.1c-1-2-2.6-1.5-4-1c-8.9,2.6-17.7,5.3-26.5,8c-3.2,1-6.5,1.7-9.1,2.4
			c-2.2-34.9-3.7-69.6-6.8-104c-3.1-34.5-7.8-68.9-11.9-104c7.2,0.7,14.4,1.4,21.5,2.2c0.7,0.1,1.8,1.2,1.9,2
			c2.2,12.8,4.2,25.6,6.3,38.4c2,12.3,4.1,24.5,6,36.8c0.7,4.2,1.2,8.3,1.2,12.5c1.4,5,2.7,10,3,15c2.6,14.1,4.1,28.3,8.8,41.8
			c0.2-1.4-0.7-2.4-0.9-3.6c-0.7-3.2-1.4-6.5-1.8-9.8c-0.1-0.7,1.3-2.2,2-2.3c4.3-0.2,8.6-0.1,12.9-0.2c0.8,0,1.7-0.7,2.5-1.1
			c-0.7-0.4-1.4-1.3-2.1-1.3c-2.9,0.2-4-1.8-4.3-4c-0.2-1.2,0.7-2.6,1.3-3.9c0.5-1,1.4-1.9,1.8-2.9c0.8-1.9-0.3-3-2.3-2.7
			c-1,0.1-2-0.2-3-0.3c-1.2,0-2.8-0.3-3.3,0.3c-0.7,0.8-0.8,2.5-0.4,3.6c0.4,1.2,1.3,2.6,2.4,3.2c2.5,1.4,3.3,3.5,3.5,6.3
			c-3.8,0.4-7.5,0.7-11.2,1.1c-0.2-0.5-0.3-0.7-0.3-0.9c-2-18.3-3.9-36.5-6-54.8c-2.1-17.6-4.6-35.2-6.8-52.8
			c-1.9-16-3.5-32-5.2-48.1c-0.8-7.1-1.8-6.5,5.8-6.6c8.9,0,17.9,0.5,26.8,0.8c1,0,1.9-0.3,2.9-0.5c0-0.3-0.1-0.6-0.1-1
			c-1.6-0.1-3.2-0.1-4.8-0.3c-0.8-0.1-1.6-0.3-2.3-0.6c-1.3-0.6-2.4-1.9-3.7-2.1c-11-1.2-22.1-2.2-33.1-3.2c-1-0.1-2,0.4-2.7,0.5
			c3.1,6,2.1,12.3,3.5,18c-3.2,1-5.9,1.8-8.5,2.8c-4,1.5-4,1.5-5.7-2.3c-0.2-0.4-0.7-0.6-1.1-0.9c-0.2,0.1-0.4,0.2-0.6,0.3
			c0.4,1.4,0.9,2.9,1.4,4.6c-6.2,1.8-12.2,3.6-19,5.7c1.9-3.6,0.7-5.4-2.2-7.2c0.2,1.3,0.4,2.1,0.5,2.8c0.8,4.6,0.8,4.6-3.6,5.8
			c-10.4,2.8-20.8,5.7-31.2,8.5c-1.1,0.3-2.1,0.9-3.1,1.3c0.1,0.3,0.2,0.6,0.3,1c7.7,0.2,14.9-2.7,22.2-4.8c-2.4,0.5-4.7,1-7.1,1.5
			c-0.1-0.3-0.1-0.6-0.2-0.9c7.8-2.2,15.7-4.3,23.8-6.6c1.6,8.9,3.1,17.3,4.6,25.7c0.3,0,0.6-0.1,0.8-0.1
			c-1.3-7.4-2.3-14.9-3.9-22.3c-0.6-3,0.1-4.3,3-4.7c4.6-0.7,9.1-1.5,13.7-2.1c1.3-0.2,2.6,0.2,4.1,0.4c0.3-0.4,1-1.8,1.9-2
			c3.3-0.8,6.6-1.3,10.4-1.9c0.8,5.2,1.7,10.6,2.5,16.2c-5.2-0.6-9.8-1.1-14.4-1.6c-2.8-0.3-6,0.4-8.3-0.7c-2.4-1.2-3.3,0.3-5,0.7
			c1.1,1.3,2.7,2.3,2.9,3.4c1,6.8,1.8,13.7,2.6,20.8c-6.4-0.4-12.5-0.9-19.2-1.3c-1.6,3.9,1,8.8-0.5,13.5c-0.4,0-0.9,0.2-1.4,0.1
			c-7.1-0.8-14.2-1.5-21.3-2.5c-1.2-0.2-2.2-1.1-3.8-2c-2.5,1-0.5,3.3-0.5,5.1c0.5,28.7,1.1,57.4,1.6,86.2
			c0.3,19.5,0.5,38.9,0.8,58.4c0,1.6,0.3,3.1,0.4,4.9c5.9-3.6,11.5-6.4,18-7c2.3-0.2,3.1,0.6,2.8,2.8c-0.7,4.7-1.4,9.4-2.1,14.5
			c3.8-0.4,7.7-0.9,11.6-1.2c7.3-0.5,14.5-0.9,21.8-1.2c1.9-0.1,2.5,0.9,2.4,2.7c-0.2,3.1,0,6.3-0.3,9.4c-0.2,1.9-0.9,3.7-1.6,6.1
			c0.4,0.6,1.3,1.9,2.6,3.9c0.2-1.7,0.1-2.8,0.6-3.6c0.4-0.8,1.7-2.1,2.1-1.9c3.5,1.6,6.4-0.8,9.5-1.4c7.7-1.6,15.4-3.3,23.1-4.9
			c4.8-1,9.7-1.9,14.5-3c0.6-0.1,1.2-1.1,1.3-1.8c0.3-2.5,2-2.5,3.7-2.1c1,0.2,1.9,1.3,2.7,1.8c0.4-0.2,1.5-1.3,2.5-1.2
			c8.2,0.6,16.3,1.5,24.5,2.2c0.7,0.1,1.4-0.1,2.1-0.1c0-0.4,0-0.8,0-1.1c-11.9-1.2-23.8-2.4-35.3-3.6
			c3.4-65.9,6.7-131.4,10.1-196.8c0.7,6.6,1.4,13.4,2,20.1c1.6,16.7,3.3,33.5,4.8,50.2c1.1,12.3,1.8,24.7,2.7,37c1,13.5,2,27,3,40.4
			c0.9,12.6,1.8,25.1,2.6,37.7c0.2,2.4,1.1,3,3.4,2.4c2-0.5,4-0.5,6.1-0.8c1.6-0.2,3.3-0.4,4.9-0.5c0-0.4-0.1-0.9-0.1-1.3
			c-4-2.6-8.3,1-12.5,0c-0.2-2.3-0.5-4.3-0.7-6.4c-0.7-11.1-1.3-22.2-2.1-33.3c-1.1-16.4-2.4-32.7-3.6-49.1
			c-1.1-14.5-2.2-29-3.3-43.5c-1.2-15.3-2.6-30.7-3.6-46c-0.9-13.7-1.4-27.4-2-41c0-0.6,0.5-1.2,0.7-1.8c0.3,0.5,0.6,1.1,0.8,1.6
			c0.1,0.4,0.1,0.9,0.2,1.6c1-0.2,1.7-0.4,2.9-0.6c-1-0.5-1.4-0.8-2.5-1.3c6.1-2.1,11.5,0.3,17,0c5.5-0.4,11-0.2,16.5-0.3
			c5.5-0.1,11-0.3,16.5-0.4c0-0.4,0-0.8,0-1.2c-17.4-0.5-34.8,1.5-52.1-1.6c17.8-2.2,35.6-2.7,53.4-0.6c-12.4-3.5-25.3-2.7-38.4-2.8
			c1.6-1.3,2.7-2.5,4-3.2c10.2-5.1,20.5-10,30.8-14.9c0.9-0.4,2.3,0.1,2.9,0.2c0.9-0.8,1.6-2,2.6-2.3c3.9-1.4,7.9-2.5,11.9-3.7
			c0.9-0.3,1.7-0.7,2.6-0.9c1.5-0.4,3.1-0.8,4.7-1.2c0,2.4,0,4.3,0,6.3c0.1,0,0.1,0,0.2,0c0.1-1.2,0.2-2.5,0.3-3.7
			c0.2,0,0.4,0,0.6,0c0.5,2.3,1.1,4.6,1.7,7.1c-6.2-0.8-11.7-1.5-17.3-2.1c-2.5-0.2-4.9,0-4.9,3.5c-0.1,5-0.5,10.1-0.6,15.1
			c-0.1,3.8,0,7.6,0,11.2c-14.8,1.6-29.2,3.2-43.3,4.7c1.2,4.9,2.8,8.9,3.1,13.1c1,11.6,1.5,23.2,2.4,34.8c1,11.7,2.3,23.4,3.4,35.1
			c0.4,4.2,0.4,8.5,0.6,12.7l-0.1,0c0.6,3.1,1.6,6.1,1.9,9.2c1.1,11.1,2.1,22.2,3,33.3c0.1,1.5-0.3,3-0.5,4.5l0.1,0
			c0,1.1,0.1,2.3,0.2,3.4c1.2,14,2.5,27.9,3.6,41.9c0.6,7.9,0.9,15.8,1.2,23.6c0.3,7.6,0.8,15.1,0.8,22.7c0,4.9-0.3,4.8,4.6,4.7
			c28.9-0.5,57.9-1.1,86.8-1.2c10.1,0,20.2,1.4,30.4,2.1c0.8,0.1,1.7-0.6,2.8-1c-2.6-2.5-3.2-25.3-1.3-30.2c13.6,0,27.1,0,40.6,0
			c3.8,0,7.7-1,10.9,1.9c0,0,0.3-0.2,0.5-0.3c-0.1-0.9-0.1-1.7-0.2-2.6c-0.1-0.9-0.1-1.9-0.4-2.7c-0.5-1.6-1.8-3.1-1.7-4.7
			c0.4-9.4,0.9-18.9,1.8-28.3c1.4-15.8,5-31.3,6.2-47.2c0.4-5.1,1.3-10.1,2.1-15.1c2.8-19.4,5.7-38.9,8.4-58.3
			c2.3-16.6,4.3-33.1,6.2-49.7c0.4-3.6,0.3-7.2,0.2-10.8c0-0.6-0.9-1.2-1.3-1.9c-0.6,0.6-1.5,1.1-1.8,1.8c-0.3,0.7-0.1,1.7-0.1,3.2
			c0.7-1.3,1.1-2,1.5-2.7c0.4,0.1,0.7,0.2,1.1,0.3c-9,70.5-17.2,141.2-32.3,210.8c0.5,0.1,0.9,0.2,1.4,0.3
			c1.8-7.9,3.6-15.9,5.5-23.8c0.2,0,0.3,0.1,0.5,0.1c-0.5,9.2-0.9,18.3-1.4,27.5c-43.2,2.6-86.4-2.8-130.3-4.7
			c1.5-3.2,2.7-5.9,4-8.5c-3,2.3-2.8,7-6.9,8.7c-0.2-0.8-0.3-1-0.3-1.3c-1.1-22.8-2-45.5-3.3-68.3c-0.7-13-2.2-25.9-3.1-38.9
			c-1.5-22.3-3.2-44.6-4.2-66.9c-0.7-16.9-0.4-33.8-0.7-50.7c0-2.8,1.2-3.7,3.8-3.2c2.4,0.4,4.8,0.9,7.1,1.1
			c1.8,0.1,3.8-0.4,5.6-0.2c10,1.3,20,2.5,29.9,4.1c7.4,1.2,14.8,3,22.1,4.5c0.5,0.1,1.1-0.1,1.7-0.2c0.1-0.3,0.1-0.5,0.2-0.8
			c-1.5-0.5-2.9-1.2-4.4-1.4c-10.3-1.8-20.6-3.6-31-5.1c-10.5-1.5-21-2.5-31.5-3.8c-1-0.1-1.8-1.1-2.7-1.6c1-0.6,2.1-1.9,3-1.8
			c4.8,0.5,9.7,1.3,14.5,2.2c1.1,0.2,2.2,0.9,3.2,1.4c1.6-0.5,3.4-0.8,5-0.5c13.6,2.5,27.1,5.2,40.6,7.8
			c18.1,3.5,36.2,7.2,54.3,10.4c13.9,2.5,27.9,4.3,41.9,6.5c0.8,0.1,1.7,0,2.5,0c0-0.3,0.1-0.6,0.1-1c-1.3-0.3-2.7-0.6-4-0.7
			c-2.6-0.3-5.2-0.4-7.7-0.8c-17.6-3-35.2-6.1-52.8-9.2c-3.3-0.6-6.6-1-9.7-2c-2.3-0.7-5.2-1-5.3-4.9c-0.3-13.4-1.1-26.8-1.6-40.2
			c-0.2-5.1-0.1-5.1,4.8-7.1c13.2-5.5,26.5-11,39.6-16.6c12.9-5.5,25.7-11.1,38.5-16.8c4.2-1.9,8.3-4,11.4-5.6
			c-0.9-1.5-1.7-2.6-2.1-3.9c-1-3.4-3.4-3.8-6.4-3c-0.8,0.2-1.7,0.4-2.5,0.6c0,0-0.1,0.1-0.1,0.1c-0.1,0-0.2,0-0.3,0.1
			c-0.7,0.5-1.4,0.9-2,1.4c-0.6,0.5-1.2,1-1.8,1.4c0.1,0.2,0.3,0.5,0.4,0.7c1.5-0.6,3-1.2,4.5-1.8c5.4-2,5.4-2,8.2,4.1
			c-30.3,13.3-60.6,26.6-90.9,39.9c-1.8-5.4-1.7-5.5,2.7-7.7c24.1-12,48.1-24,72.2-35.9c2.1-1,4.5-1.5,6.7-2.2
			c0.1,0,0.1-0.1,0.2-0.1c0.1,0,0.1,0,0.2,0C659.8,17.9,660.4,17.1,661.2,16.6z M413.4,284.6c-1,0-2.1-2.3-3.1-3.5
			c0.3-0.4,0.7-0.8,1-1.2c1.2,0.7,2.5,1.4,4,2.2c0.4-0.3,1.2-0.8,2-1.4c0.3,0.4,0.6,0.8,0.9,1.2C416.6,282.9,415,284.5,413.4,284.6z
			 M385.6,124.8c8.8,1,17.4,1.9,26,2.9c0,0.4,0,0.8,0,1.2c-0.8,0.1-1.6,0.2-2.4,0.2c-7.1-0.2-14.1-0.5-21.2-0.6
			C385.6,128.5,385.1,127.5,385.6,124.8z M367.9,147.9c-0.1-0.3-0.2-0.6-0.3-1c3.6-1.2,7.3-2.3,10.9-3.5c0.1,0.4,0.3,0.8,0.4,1.2
			C375.2,145.8,371.5,146.8,367.9,147.9z M381.2,148.6c-0.1-0.8-0.1-1.6-0.1-2.4c0-0.9,0-1.7,0-3.3c-0.1,0,0.7-0.4,1.5-0.9
			c-0.3-0.3-0.5-0.8-0.7-0.7c-1.8,0.2-2-1.1-2.2-2.2c-0.6-4.5-1.1-9-1.7-13.9c1.8,0,3.5,0,5,0c4.6,38.9,9.2,77.6,13.7,116.4
			c-0.2,0-0.5,0.1-0.7,0.1c-4.1-25.3-8.1-50.6-12.2-76c1.2,0.2,1.9,0.3,2.7,0.4c0-0.5,0-1.1-0.1-1.1c-3.4-1.4-3.4-4.4-3.7-7.3
			C382.3,154.6,381.7,151.6,381.2,148.6z M317,345.4c-0.3-17.8-0.7-35.2-1-52.6c0.3,0,0.5,0.1,0.8,0.1c0.8,16.2,1.7,32.5,2.6,48.8
			c2.2-0.3,4.3-0.6,6.4-0.9c0.1,0.2,0.2,0.5,0.2,0.7C323.2,342.7,320.4,343.9,317,345.4z M333.7,339.9c-3.4-1.5-6.8-1.4-10.3-0.6
			c-2.3,0.6-2.8-0.7-2.9-2.7c-0.6-12.9-1.2-25.7-1.9-38.6c-1.3-26.5-2.6-53-3.8-79.5c-0.3-6.3-0.1-12.7-0.1-19
			c0-1.6,0.4-2.7,2.2-2.6c7.7,0.7,15.4,1.4,23.3,2.1c0,3.6,0,6.4,0,9.2c-0.1,6.3-0.5,12.7-0.4,19c0,1.3-0.2,2.2-0.6,2.9
			c0,0.7,0,1.4,0,2.1c0.2,0,0.3,0,0.5,0c0,6,0.1,12,0,18c-0.4,20.6-0.8,41.2-1.3,61.8c-0.1,4.7-0.4,9.4-0.7,14
			c-0.1,0.8-0.5,1.9-1.1,2.2c-0.7,0.3-1.9,0.1-2.5-0.4c-1.4-1.1-2.6-2.9-4.2-0.5c-1.1,1.5,0,4.6,2,5.6c0.6,0.3,1.3,0.3,2.5,0.5
			c-1.5-1.3-2.7-2-3.4-3.1c-0.4-0.6,0.1-1.8,0.2-2.7c0.8,0.4,1.6,0.6,2.2,1.2c0.5,0.5,0.7,1.3,1,2c0.8-0.5,1.7-0.9,2.8-1.6
			c0,3.3,0.1,6.2,0,9.2C337.1,341,335.1,340.5,333.7,339.9z M364.9,354.6c-9.3,0.6-18.6,1-28,1.5c3.8-35.9,4.5-72.1,4.8-108.4
			c0.1,0.7,0.3,1.4,0.4,2c0.5,13.9,1.1,27.8,1.5,41.8c0.5,19.7,0.8,39.5,1.2,59.2c0.1,4.2,0.2,4.2,4.3,3.2
			c6.3-1.5,12.8-2.1,19.3-1.8c0.1,0.3,0.2,0.6,0.3,0.9C367.4,353.6,366.2,354.5,364.9,354.6z M370.1,349.5c0,0.2-1,0.6-1.6,0.6
			c-7.2,0.6-14.4,1.1-21.4,1.6c-1.8-54.6-3.6-109.7-5.4-165c6.4,0,12.1,0,18.2,0c1.7,14.4,3.5,28.7,5.3,43.7c0-0.2,0.1-0.5,0.2-0.7
			c-0.1,0.2-0.1,0.5-0.2,0.7c0,0.2,0,0.3,0.1,0.5c0,0-0.1,0-0.1,0c-0.1,1.1,0,2.2,0.1,3.3c0.2,0.7,0.4,1.5,0.4,2.6
			c1,17.2,2.1,34.5,2.9,51.7c0.7,13.5,1.1,27,1.5,40.5c0,1.3-0.4,2.8-1,4c-1.2,2.5-1,4.5,0.2,7.2
			C370.5,342.9,369.9,346.4,370.1,349.5z M372.6,370.7c-1.2-35.4-2.3-70.8-3.5-105.6c1.1,14.2,2.3,28.9,3.2,43.7
			c0.9,14.7,1.3,29.5,1.9,44.2c0.2,5.1,0.4,10.2,0.6,15.3C374.9,370.2,374.2,371.1,372.6,370.7z M401.7,366.1
			c-0.1-0.3-0.2-0.6-0.3-0.9c4.2-1.3,8.5-2.5,12.7-3.8c0.1,0.4,0.2,0.7,0.3,1.1C410.3,363.7,406,364.9,401.7,366.1z M429.3,186.8
			c-2.1-1-3.2-1.7-1.9-3.9c0.7-1.2,0.5-3.1,0.6-4.7c0.1-0.9,0.2-1.8,0.3-2.7c0.3,0,0.6,0.1,1,0.1
			C429.3,179.2,429.3,182.8,429.3,186.8z M430.1,124.5c2.1,1.5,3.2,12.1,2,16.7c-0.3,0.1-0.6,0.1-0.9,0.2
			C430.9,135.9,430.5,130.3,430.1,124.5z M432.7,155.3c-0.4-4-0.8-7.9-1.1-11.9c0.4,0,0.7-0.1,1.1-0.1c0.3,4,0.6,8,0.9,11.9
			C433.2,155.3,433,155.3,432.7,155.3z M450.3,135.8c5.6-0.7,11.1-1.4,16.7-2c0,0.2,0.1,0.4,0.1,0.7c-5,1.3-9.9,2.6-14.9,3.7
			c-0.6,0.1-1.4-1-2.1-1.5C450.1,136.4,450.2,136.1,450.3,135.8z M507.7,338.2c6.5,0.2,12.9,0.5,19.4,0.8c0,0.3,0,0.6,0.1,1
			c-8.2,1-16.4,2-24.7,3.1C503.3,338.4,503.6,338,507.7,338.2z M493,220.4c-0.1,0-0.3,0-0.4-0.1c1.2,7.7,2,15.5,2.1,23.2
			c0.1,0,0.2,0.1,0.2,0.1c1.9,30.2,3.8,61,5.8,92.2c-4,0.2-7.4,0.4-10.7,0.6c-1.5,0.1-3.1,0.2-4.6,0.7c-0.8,0.2-1.3,1.2-2,1.9
			c0.9,0.4,1.7,1.1,2.6,1.1c1.8,0,3.7-0.4,5.6-0.6c2.1-3.3,5.4-0.7,8.3-1.4c-0.6,1.6-1,2.9-1.5,4.2c-1.5,0.5-3.1,1.1-4.6,1.6
			c0.1,0.4,0.1,0.7,0.2,1.1c1.2,0,2.5,0.1,3.7,0c11-1.3,22.1-2.2,33-4.2c9.1-1.6,18,0,26.9,0.4c8.5,0.3,17,1,25.5,1.5
			c0.8,0,1.6,0.1,2.5,0.1c0,9.6,0,19.1,0,28.7c-39.7-2.6-79.2,0.3-118.8,0c0-4.7,0.2-9.1,0-13.6c-1.1-20-2.1-40.1-3.5-60.1
			c-1.1-16.3-2.8-32.5-4.2-48.7c-1.1-12.7-2.3-25.5-3.3-38.2c-0.4-5-0.1-10.1-0.5-15.1c0,2.4,0,4.9,0,7.3c-0.4,0-0.7,0-1.1,0.1
			c-1.6-20.3-3.3-40.7-4.9-61.2c5.6-3.3,29.7-8.6,39-8.3C489.9,162.5,491.5,191.3,493,220.4z M532.1,79.3c0.8-0.4,2-0.3,3.7-0.5
			c3.3-4.1,9.2-5.4,14.3-7.9c6.7-3.4,13.7-6.5,20.5-9.6c0.4-0.2,0.8-0.2,1.3-0.3c1.1,3.5,0.2,5.3-3.2,6.6
			c-11.3,4.3-22.5,8.9-33.8,13.4c-0.9,0.4-1.9,0.6-3.6,1.1C531.7,80.7,531.7,79.5,532.1,79.3z M529.9,80.1c0,1.2,0.2,2.5,0,2.6
			c-3.1,1.4-6.3,2.5-9.5,3.8c-0.2-0.5-0.4-0.9-0.6-1.4C522.9,83.5,526,82,529.9,80.1z M522.8,76.9c-1.7,1.7,0.8,5.4-3.1,6
			C518,78.4,518.6,77.2,522.8,76.9z M526.2,105.1c-3.8-0.7-7.6-1.4-11.3-2.3c-0.8-0.2-1.9-1.2-2.1-2c-0.8-2.3-1.3-4.8-1.9-7.2
			c-0.4-1.6-0.1-2.8,1.8-3.3c2.1-0.6,4-1.5,6.4-2.4c1.6,5.3,3.2,10.3,4.7,15.4c0.3-0.1,0.6-0.1,0.9-0.2c-0.1-1.2-0.1-2.5-0.4-3.7
			c-0.9-3.4-2.1-6.7-2.9-10.2c-0.2-0.8,0.6-2.3,1.3-2.7c2.4-1.2,5-1.9,8.1-3c1.2,7.6,2.4,14.8,3.6,22.5
			C531.2,105.8,528.7,105.6,526.2,105.1z M573.3,109.9c-0.2,0-0.6,0.3-0.7,0.5c-0.9,3.8-3.6,2.9-6.1,2.4c-9.3-1.9-18.7-3.8-28-5.5
			c-2.5-0.4-2.9-1.5-3.2-3.8c-0.7-6.1-1.8-12.1-2.9-18.1c-0.3-1.6,0-2.5,1.6-3.1c12.8-5,25.6-10.1,38.5-15.1
			c0.4-0.1,0.8-0.2,1.6-0.4c0.5,10.9,1,21.4,1.5,32c0.1,2.3,0.2,4.6,0.4,6.8C575.9,107.7,576.4,109.8,573.3,109.9z M574.3,58.2
			c-0.3-0.2-0.6-0.4-0.8-0.6c-0.1-1.2-0.3-2.4-0.5-4.4c1.7,0.8,2.9,1.3,4.1,1.9C576.2,56.2,575.2,57.2,574.3,58.2z"/>
		<path class="st1" d="M483,318.6C482.9,318.6,482.9,318.6,483,318.6C482.9,318.6,482.9,318.6,483,318.6
			C482.9,318.6,482.9,318.6,483,318.6C482.9,318.6,482.9,318.6,483,318.6z"/>
		<path class="st1" d="M658.8,18.7c0.1,0,0.2,0,0.3-0.1c0,0,0.1-0.1,0.1-0.1c-0.1,0-0.1,0-0.2,0C658.9,18.6,658.9,18.6,658.8,18.7z"
			/>
		<path class="st1" d="M130.6,171.7c2.1,0.1,4.3,0.2,6.5,0.4c1.8,0.2,2.5-0.7,2.9-2.4c0.5-2.2,1.3-4.3,2.1-6.7
			c2.6,1.5,2.3,3.8,2.3,5.7c0,2.4,0.7,3.2,3.3,3.1c7.7-0.2,15.4-0.1,22-0.1c7.4-8.7,13.9-16.7,26.1-12.2c1.4-5.2-3.9-9.4-0.5-14.2
			c-1.1-0.5-2.4-1.1-3.8-1.7c0.2-0.3,0.4-0.7,0.5-1c8.8,2.7,16.6,7.2,24.2,12.3c-0.2,0.4-0.3,0.7-0.5,1.1c-1-0.4-2-0.8-2.9-1.2
			c-3.6-1.8-7.1-3.9-10.8-5.5c-1.4-0.6-3.1-0.5-4.7-0.6c-0.1,1.7-0.4,3.4-0.2,5c0.1,1.1,1.1,2.2,1.7,3.5c2.1-1.3,3.8-1.4,5.5,0.6
			c0.5,0.6,1.9,0.8,2.7,0.7c9.4-1.7,18.8-3.5,28.1-5.2c1.3-0.2,2.5-0.4,3.8-0.6c0.2,0.3,0.3,0.6,0.5,1c-0.7,0.6-1.4,1.6-2.2,1.8
			c-4.6,1-9.3,1.8-13.9,2.6c-3.3,0.6-6.7,1.2-10,2c15.5,1.3,30.9,2.5,46.8,3.8c-0.2-1.2-0.1-1.8-0.4-2.3c-1.7-3.3-4.7-5-8-6.4
			c-7.6-3.2-15.1-6.9-22.8-10c-8.9-3.5-17.9-6.7-26.8-9.9c-2.5-0.9-5-1.8-7.6-2.5c-0.9-0.2-1.9-0.1-2.9,0.2
			c-6.7,1.7-13.4,3.6-20.1,5.3c-1,0.3-2.2-0.3-3.3-0.4c0-0.3,0-0.6,0-0.8c0.7-0.2,1.4-0.5,2.1-0.7c6.6-1.6,13.3-2.9,19.8-4.8
			c2.4-0.7,4.2-1.2,6.7-0.2c10.8,4.3,21.9,7.9,32.6,12.3c10.2,4.2,20.1,9,30.1,13.6c1.6,0.7,3.5,1.3,1.6,3.8
			c-0.4,0.5,1.4,2.5,2.4,4.3c-4.9,0.9-10-0.2-15.2,0c0.1,1.2,0.2,2.2,0.3,3.3c1.7,0.1,3.2,0.2,4.8,0.2c0,0.4,0.1,0.8,0.1,1.2
			c-1.3,0.2-2.6,0.4-4.5,0.8c6.3,47.6,12.6,95.4,19,143.4c-1.5,0.2-3.7,0.8-5.9,0.9c-12.3,0.9-24.7,1.8-37,2.7
			c-4,0.3-8.1,0.4-12.2,0.4c-1.8,0-2.6,0.6-3.1,2.3c-3.1,10.1-6.2,20.2-9.5,30.2c-2,6.2-4.3,12.3-6.5,18.4
			c-1.7,4.8-2.2,9.5-1.4,14.6c1.2,7.2,2,14.5,3,21.7c0.3,2.4,0.4,4.8,0.6,7.1c0.8,9.1-2.5,17.6-3.4,26.4c-0.2,2.5-0.7,4.9-1,7.4
			c-0.5,4.3-1.7,8.4-5.2,12.1c-1.1-17.4-0.3-34.5-3.4-51.4c-2.9,13-6.7,25.8-6.7,39.2c0,7.6,0,15.3-0.4,22.9c0.5-3.9,1-7.8,1.4-11.7
			c0.3,0,0.5,0.1,0.8,0.1c-0.7,5.4-1.3,10.8-2.4,16.1c-0.2,1.3-2,2.2-3.8,4.1c-0.3-2.2-0.7-3.6-0.7-4.9c0.4-11.8,1-23.7,1.1-35.5
			c0-4-1.4-8.1-2-12.1c-0.3-2.3-0.6-4.7-0.2-6.9c2-10.1,4.3-20.1,6.5-30.1c0.2-0.8,0.3-2.1-0.1-2.3c-2.5-1.4-1.8-4-2.5-6
			c-2-5.9-4-11.7-6.3-17.4c-1.6-4-4.1-7.6-5.7-11.6c-3.8-9.7-7.5-19.5-11-29.4c-0.9-2.4-1.9-3.4-4.6-3.3c-7.7,0.2-15.4,0.1-23.5,0.1
			c-0.9,4.1-1.8,8.2-2.7,12.3c-0.2,0.1-0.4,0.1-0.6,0.2c-0.8-4.2-1.5-8.4-2.3-12.7c-0.1,0.1-0.2,0.1-0.3,0.2
			c0.1-1.9,0.5-3.9,0.3-5.8c-1.6-17.2-3.4-34.3-4.8-51.5c-1-12.1-1.4-24.3-2-36.4c-0.1-2.5-0.7-4-3.5-5.2
			c-5.9-2.5-11.4-5.8-17.1-8.8c-0.7-0.4-1.4-0.8-2.6-1.3c4.3,42.3,11.2,83.8,17.8,125.5c1,0,1.9-0.2,2.6,0.1
			c0.5,0.2,1.3,1.2,1.1,1.6c-0.7,1.9-1.7,3.7-3,6.3c-0.9-2.3-1.5-3.7-2.2-5.4c-25.3,6.9-50.6,13.8-76,20.7c-0.1,0-0.4-0.6-1.1-1.4
			c17.4-4.7,34.4-9.2,51.3-13.8c7.9-2.2,15.6-4.8,23.5-7c2.2-0.6,2.1-1.7,1.8-3.4c-1.4-8.6-2.7-17.2-4-25.8
			c-2.3-15.6-4.6-31.2-6.8-46.8c-2-13.9-3.9-27.8-5.8-41.7c-0.4-2.8-0.5-5.6-1-8.3c-0.2-1.1-1-2.5-2-3c-2.6-1.5-4.5-4.4-8.1-3.9
			c-0.3,0.1-1-0.5-1.1-0.9c-0.8-3.1-3.3-2.7-5.4-2.7c-3,0-5.9,0.3-9.8,0.6c-0.8-1-2.5-2.7-3.7-4.7c-1.6-2.7-4-3.2-6.7-3.2
			c-2.2-0.1-4.4-0.2-6.6-0.2c-13-0.5-25.9-0.9-39.3-1.4c0.7,0.5,1.2,0.8,1.7,1.1c-2.9,1.7-1.6,4.6-1.3,6.9
			c2.1,14.9,4.2,29.8,6.8,44.5c3.8,21.7,8.1,43.4,12.2,65.1c2.6,13.6,5.1,27.1,7.8,40.7c0.3,1.7,1.1,3.3,1.8,5.4
			c-1,1.1-1.6,0.1-2-1.4c-1.2-5-2.5-10.1-3.5-15.2c-2.9-14.7-5.7-29.3-8.5-44c-3.5-18.8-7.1-37.7-10.4-56.6
			c-2-11.4-3.8-22.8-5.3-34.2c-0.8-5.9-0.9-11.8-0.8-18c0.9,4.3,4.1,3.9,6.9,4c11.9,0.5,23.9,0.9,35.9,1.2c1.1,0,2.3-1.1,3.4-1.7
			c-0.6-1-1.1-2.1-1.9-2.8c-1.5-1.4-2.2-2.7-1-4.8c1.4-2.3,2.4-4.8,3.4-6.8c5,1,9.5,2,14.3,3c0.8-3.5,1.6-6.7,2.3-9.9
			c0.4,0,0.9,0,1.3,0c0.3,1.6,0.8,3.2,0.9,4.8c0.3,6.3-0.2,12.7,2.6,18.7c0.3,0.7,1.4,1.6,2.1,1.6c4.2,0,8.4-0.2,12.6-0.2
			c0.6,0,1.6,1.1,1.6,1.7c0,2.3-0.4,4.7-1,7.3c-0.7-2.1-1.3-4.2-2.1-6.6c-3.7-0.2-7.6-0.5-11.7-0.7c-0.1,2.2,0.6,2.6,2.4,3.2
			c4.3,1.4,8.3,3.6,12.4,5.4c3.2,1.3,6.5,2.5,10,3.4c-7.2-7.6-8.8-16.8-8.7-26.6c-0.5,0.1-0.6,0.1-0.7,0.2c-5.2,3.8-5.4,4-9.7-1.2
			c-2.3-2.8-3.8-6.3-5.5-9.6c-0.8-1.5,0.1-2.5,1.6-3c3.6-1.3,7.5-2.2,10.7-4.1c3-1.8,5.8-4.4,8.1-7.1c5.3-6.2,10.3-12.8,15.5-19.1
			c1.4-1.7,1.5-3.2,0.9-5.4c-1.7-6-2.9-12.1-4.4-18.1c-0.3-1.2-0.7-2.4-1.2-4.5c-0.9,1.7-1.3,2.4-1.7,3.2c-5.7-2.1-6.1-3.4-3.5-6.6
			c-0.5-3-1.7-5.6-1-7.4c0.9-2.2,4.9-1.6,8.5,0.9c4-4.6,7.9-9.3,12.2-13.7c1.1-1.2,3.2-2,4.9-2c7.3,0.1,14.5,0.6,21.8,0.9
			c0-1,0-2.1,0-3.4c1.6,1.1,2.7,1.9,4.5,3.1c-0.6-3.1-4.7-3.8-2.6-6.5c0.8-1.1,2.9-1.2,4.4-1.7c0.7,2.1,1.4,4.1,2.4,6.8
			c1,0.1,2.9,0.2,4.9,0.5c2.1,0.3,2.8,1.3,1.2,3.1c-1,1.1-2.9,2.5-2.7,3.4c0.7,2.6,1.9,5.2,3.4,7.4c1.4,2.1,3.6,3.8,5.4,5.6
			c1.4,1.4,2.8,2.7,1.8,5.1c-0.3,0.8,1.1,2.3,1.9,3.3c5.1,5.9,9.4,12.4,12.1,19.8c0.5,1.2,0.6,2.6,0.9,3.9c-0.3,0.1-0.6,0.2-0.8,0.3
			c-1.4-2-2.8-4.1-4.7-6.7c1.1,0.6,1.6,0.9,2.4,1.3c-3.2-7.5-7.6-13.8-12.9-19.3c-1.5-1.5-4.5-1.7-2.9-5.1c0.8,0.4,1.5,0.9,2.3,1.3
			c0.2-0.2,0.4-0.4,0.6-0.5c-2.3-2.4-4.7-4.9-7.5-7.8c-0.2,2.6-0.4,4.6-0.4,6.6c0,0.5,1.2,0.9,1.8,1.3c0.7,0.5,2.1,1,2,1.4
			c-0.3,3.6,2.4,5.6,4.1,8.1c1.8,2.6,3.1,4.9,1,8.2c-1.5,2.4-2.4,5.3-3.4,8c-1.7,4.6-0.9,5.9,4.1,6.8c0.5,3.8,1.9,7.7-0.4,11.6
			c-0.4,0.6-0.6,1.5-1.1,1.7c-4,1.5-7.4,5.4-12.4,3.2c-2.7-1.2-4-4.8-2.9-8.9c-4,0.6-8,0.6-11.6,1.8c-1.8,0.7-3.6,3.4-4.1,5.6
			C132.8,158,131.9,164.8,130.6,171.7z M248.4,182.5c-0.2-3.8-0.4-7.6-0.6-11.9c-8.5,0.9-16.2,1.5-23.9,2.6
			c-7.6,1-15.2,2.6-22.7,3.7c-1.1,0.2-3.2-0.1-3.5-0.8c-1.1-2.4-3-2.9-5.2-3c-2.2-0.2-4.4,0-6.5-0.5c-3.1-0.8-5.1,0.4-6.9,2.8
			c-1.4,1.8-3,3.4-4.5,5.1c-0.4-0.2-0.8-0.4-1.2-0.6c0.4-2.2,0.8-4.5,1.2-6.8c-0.5-0.1-1-0.3-1.5-0.2c-9.4,0.8-18.9-0.1-28.4,1.6
			c-3,0.5-5.7,0.5-8.5,2.5c0.2-1,0.5-2,0.8-3.4c-8.3,1.6-16.7,0-25,1c0.2,1.4,0.5,2.5,0.4,3.5c-0.3,1.7-1.2,3.3-1.3,4.9
			c-0.1,7.5-0.1,15,0.1,22.5c0,1.1,0.8,2.2,1.2,3.5c-2.1,2.8-1.7,5.9,1.2,8.8c0.4,0.4,0.3,2.2-0.2,2.5c-2.1,1.5-1.8,3.5-1.7,5.6
			c0.4,8.6,0.8,17.2,1.4,25.8c0.4,6.3,0.8,12.6,1.4,19c0.9,10.7,1.9,21.5,3,32.2c0.5,4.6,1.1,9.1,1.7,13.7c0.3,0.1,0.6,0.1,0.8,0.2
			c0.8-1.1,1.6-2.2,2.8-3.8c0,1.5,0,2.4,0,3.6c8.6,0,17,0,25.4,0c0.6,0,1.1-0.6,1.9-1.1c6.9,3.7,101.3,1.7,112-2.5
			c0-0.8,0-1.7,0-3.1c0.3,0.8,0.3,1.1,0.5,1.3c0.8,0.7,1.6,1.4,2.4,2.1c0.4-1,1.2-2,1.1-3c-0.3-3.2-0.9-6.3-1.4-9.5
			c-1.8-13.6-3.6-27.1-5.4-40.7c-1.1-8.7-2.2-17.5-3.3-26.2c-1.2-9.4-2.3-18.7-3.7-28C251.2,198,249.7,190.2,248.4,182.5
			L248.4,182.5z M140.6,129.9c8.1-6.3,12.3-14.5,14.1-24c1-5,2-10-1.4-14.6c-0.4-0.5-0.2-1.5-0.3-2.4c0.6,0.4,1.1,0.7,1.6,1
			c-0.1-1.1-0.4-2.1-1.1-2.4c-2.6-1.2-5.3-2.8-8-3.1c-7-0.6-14.1-0.6-21.1-0.7c-1.9,0-3.9,0.5-6.1,0.7c-3.4,3.8-7.1,7.9-10.8,12.1
			c0.1,0.2,0.3,0.4,0.4,0.6c0.8-0.1,1.6-0.2,2.5-0.3c-0.6,2.8-3.2,5.2-6.8,5.5c2,9.4,3.9,18.6,5.9,28.2c1.2-0.5,1.5-0.7,1.9-0.8
			c0.3-0.1,0.6,0,0.9,0c0.2,0.3,0.4,0.6,0.6,0.9c-12.5,13.8-21.6,30.8-39.2,40.5c2.6,3,5.1,6,7.8,9.1c2.9-2.2,5.6-4.1,8.6-6.3
			c0.1,1.2,0.4,1.9,0.2,2.5c-2.8,8.8-0.6,16.7,4.1,24.3c1.3,2,3.2,2.1,4.9,1.3c1-0.5,1.4-2.1,2-3.3c0.3-0.7,0.2-1.5,0.3-2.2
			c0.9,3.8,1.1,7.4-3.8,9.3c0.2,0.2,0.5,0.5,0.7,0.7c3.6,0.7,7.2,1.4,11.1,2.2c0-11.7,0-22.9,0-34.2c-1.7-0.2-3.1-0.4-4.6-0.5
			c0-0.3,0-0.7,0-1c1.5-0.3,2.9-0.5,4.6-0.8c0.3-2.2,0.6-4.5,0.9-6.8c0.3,0,0.6,0.1,1,0.1c0.1,1.6,0,3.3,0.5,4.8
			c0.3,0.9,1.3,2.1,2.1,2.2c4.3,0.2,8.5,0.1,12.8,0c0.7,0,1.9-0.8,2-1.4c1.3-6.9,2.6-13.8,3.4-20.7c0.4-4,2.1-6.3,6-6.6
			c2.8-0.2,5.6-0.4,8.4-0.8c1.2-0.2,2.3-0.8,3.4-1.2c0-0.4,0-0.9,0-1.3c-4.5-1.1-8.9-2.2-13.3-3.5c-2.2-0.7-4.4-1.7-6.3-3
			c-0.7-0.5-0.5-2.2-0.9-3.9c2.3,1.3,3.6,2.2,5,3c1.5,0.8,3,1.7,4.6,2.2c3.3,0.9,6.7,1.5,10,2.2c4.3,0.8,8-1.3,9.7-4.1
			c2.4-4.1,4.1-8.6,6-12.9c0.4-0.9,0.9-2.3,0.5-2.9c-2.4-3.8-5.1-7.3-7.7-11c-0.3,0.2-0.7,0.3-1,0.5c-0.2,0.8-0.5,1.5-0.7,2.3
			c-2.4,8.8-6.5,16.6-14,22.2c-1.9,1.4-3.9,1.5-4.8-0.3c-1.6-3.1-4.1-2.5-6.6-2.4c-3.1,0-6.2,0-9.4-0.1c-1,0-2.1-0.5-3.1-0.7
			c0-0.3,0-0.5,0-0.8c6.5-0.5,13.1-1,19.3-1.5C138.4,126.6,139.4,128.1,140.6,129.9z M187.9,318.8c-0.3,1.6-0.5,3-0.8,4.4
			c-0.4,0.2-0.9,0.3-1.3,0.5c1.3-4.9-1.3-5-4.4-4.8c-3.6,0.2-7.3,0-10.9,0c-5.9,0-11.7,0-18,0c2.3,10.5,7.2,20,11.1,30
			c9.1-3.3,17.9-6.5,26.8-9.7c0.2,0.5,0.3,0.9,0.5,1.4c-7.2,2.6-14.5,5.3-21.7,7.9c0.1,0.4,0.2,0.7,0.3,1.1
			c7.3-1.1,14.6-2.3,21.9-3.4c0.4-2,0.8-3.7,1.1-5.5c0.4-0.1,0.7-0.2,1.1-0.3c-2.9,5.9-0.5,9,5.3,10.6c3.3-10.6,6.6-21.3,9.9-32
			C201.5,318.8,194.5,318.8,187.9,318.8z M164.9,351.7c3.1,7.1,6.1,14.1,9.1,21.2c1.1,2.7,1.4,6.1,3.3,8c2.2,2.2,1.6,4.2,1.1,6.3
			c-2.2,10.4-4.5,20.9-6.6,31.3c-1.1,5.4,1.1,10.1,3,15.1c3.4-14.7,6.7-29.1,9.9-43.4c0.4-2,1.2-4.4-1.2-6.3
			c2.2-3.1,4.1-6.1,4.3-10.2c0.4-8.4,1.5-16.8,2.4-25.2C182,349.5,173.6,350.6,164.9,351.7z M187.8,450.5c0.3,0,0.6,0,0.8,0
			c0.2-0.4,0.4-0.9,0.5-1.3c1-6.4,2-12.9,3-19.3c1-6.4,2.9-12.6,1.8-19.3c-1.3-7.4-1.7-15-2.6-22.5c-0.3-2.4-0.9-4.7-1.3-7.1
			c-0.3,0-0.5,0-0.8,0c-1.2,4.8-2.6,9.5-3.6,14.4c-0.6,3.1-1.4,6.4-1,9.5c1.8,11.6,2.8,23.3,2.8,35
			C187.3,443.4,187.7,446.9,187.8,450.5z M246.6,164.5c-13.3-1-26.2-1.9-39.4-2.9c1,4.8,1,4.8-3.3,5.2c-1.9,0.2-3.9,0.3-6,0.5
			c0,0.8,0.1,1.8,0.2,2.6c8.3,0,16.3,0.1,24.3,0c8-0.1,16.1-0.4,24.2-0.7C246.6,167.3,246.6,166.2,246.6,164.5z M61.4,178.1
			c-4.2,3.1-4.3,11.3-12.8,6.7c2.3,2.7,3.7,4.4,5.2,6.2c1.5,1.8,2.9,3.5,4.4,5.3c0.5,0.5,1.1,1.2,1.7,1.2c3.1,0.1,6.1,0.1,9.2,0.1
			c0.2-0.3,0.3-0.7,0.5-1c-0.8-1.1-1.6-2.2-2.4-3.3c0.1,0,0.3,0,0.4,0C65.6,188.3,63.6,183.4,61.4,178.1z M176.5,175.5
			c1.5-1.6,2.8-3.3,4.4-4.8c0.6-0.5,1.6-0.9,2.4-0.9c3.2,0.3,6.3,0.9,9.5,1.1c3,0.2,3.9-1.1,3.3-4c-0.5-2.9,0.6-4.4,3.5-4.6
			c-0.1-0.2-0.1-0.5-0.2-0.5c-4.7-0.5-9.3-1.1-14-1.5c-0.6-0.1-1.3,0.5-1.9,0.9C178.7,164.8,178,170.3,176.5,175.5z M79.9,202.4
			c9.9,6.4,19.3,12.1,29.7,16c0.2-0.2,0.3-0.5,0.5-0.7c-1.8-1.4-3.6-2.7-5.4-4.1c0.1-0.2,0.2-0.3,0.3-0.5c1.5,0.8,3.1,1.6,5,2.6
			c0-2.1,0-3.7,0-4.5C99.9,208.2,90.3,205.4,79.9,202.4z M158.9,145.3c-2.9,1.6-3.9-3-6.5-1.8c0.6,0.9,1.1,1.7,1.7,2.6
			c-0.7,0-1.3-0.1-2-0.1c-0.2,0.3-0.3,0.6-0.5,0.9c1.4,0.9,2.9,2.6,4.2,2.6c1.9-0.1,3.9-1.5,5.7-2.4c0.3-0.2,0.4-1.1,0.3-1.6
			c-0.2-1.8-0.6-3.6-0.8-5.4c-0.2-1.6-0.3-3.1-0.4-4.7c-0.2,0-0.5,0-0.7-0.1c-1,1.6-2,3.2-2.9,4.7c-1.5,0-2.8,0-4.8,0
			C154.6,141.7,156.3,143.1,158.9,145.3z M189.6,371.7c0.3,0,0.6,0.1,0.8,0.1c0.7-3.1,1.3-6.2,2-9.3c0.1,0,0.3,0.1,0.4,0.1
			c-0.2,1.4-0.3,2.8-0.5,4.2c0.2,0.1,0.4,0.1,0.6,0.2c1.6-4.4,3.1-8.8,4.8-13.5c-2.3-0.6-4.2-1.1-6.5-1.7
			C190.7,358.7,190.2,365.2,189.6,371.7z M197.4,174c7.4,2.3,13.6-1.3,20.1-1.9C206.8,171.1,199.4,171.7,197.4,174z M49,182.3
			c0.1,0.3,0.2,0.6,0.4,0.9c5.7,1.3,5.7,1.3,6.8-3.2C53.5,180.9,51.3,181.6,49,182.3z M72.7,167.7c0.2,0.4,0.5,0.8,0.7,1.2
			c2.9-1.8,5.9-3.6,8.8-5.5c-0.1-0.2-0.3-0.4-0.4-0.7C78.9,164.5,74.9,164.6,72.7,167.7z M46.9,181c0.2,0.2,0.4,0.4,0.6,0.6
			c1.7-1.4,3.3-2.7,5.4-4.4c-1.5-0.3-2.5-0.6-3.4-0.8C48.5,178.1,47.7,179.6,46.9,181z M175,435c-0.3,0-0.6,0-0.9,0c0,5,0,10,0,13.9
			C174.4,445,174.7,440,175,435z"/>
		<path class="st1" d="M297.1,173.2c0.8-0.5,1.5-1,1.6-1.1c2.2,1,3.9,1.8,5.6,2.4c6.4,2,12.9,3.8,19.4,5.8c1,0.3,1.9,0.9,2.6,1.8
			c-8.7-2.3-17.3-4.7-26.6-7.1c-0.2,2.4-0.6,4.4-0.6,6.4c0.5,19.3,1,38.7,1.7,58c0.4,11.7,1.4,23.4,2.1,35.2c0.1,1.2,0,2.4-0.6,3.6
			c-2.6-26.7-3.7-53.4-4.9-80.2c-0.3,1.8-0.7,3.6-0.8,5.5c-0.5,11-1.1,22-1.3,33c-0.1,4.1,0.9,8.2,1.1,12.4c0.1,1.7-0.4,3.5-1.2,5.2
			c-1.5-13.4-0.9-26.8,0-40.2c0.9-13.4,1.7-26.8,2.5-40.2C297.6,173.5,297.3,173.3,297.1,173.2z"/>
		<path class="st1" d="M521.2,120.1c-5.7-1.4-11.4-2.7-17.1-4.1c0-0.5,0.1-1.1,0.1-1.6c2-0.2,4-0.8,6-0.6c2.6,0.2,5,1.2,7.6,1.6
			C520.1,115.9,521.7,116.8,521.2,120.1z"/>
		<path class="st1" d="M546,332.7c-3.9-0.6-7.3-1.1-10.8-1.6c-0.2-0.7-0.5-2-0.8-3.2c-0.7-3,1.1-6,3.9-6.4c2.6-0.4,4.5,1.5,5.1,4.6
			c0.2,1.2,0.5,2.4,1,3.6C544.7,330.7,545.4,331.6,546,332.7z M542.3,329.7c-0.3-1.8-0.4-3.3-0.8-4.7c-0.5-1.9-2.3-2.5-3.6-1.6
			c-1.2,0.9-2,2.8-2.1,4.2c-0.1,1.5,1,2.6,3.1,1.7C539.6,329,540.7,329.5,542.3,329.7z"/>
		<path class="st1" d="M459.1,277.2c-1.3-5.6-3.1-11.1-3.8-16.8c-1-8.2-1.3-16.5-1.7-24.7c-0.1-1.8,0.7-3.6,1.1-5.4l-0.1,0
			c0,0.8,0,1.7,0,2.5c-0.2,10.2-0.2,20.4,1.8,30.4C457.5,267.8,458.2,272.5,459.1,277.2L459.1,277.2z"/>
		<path class="st1" d="M559.8,326.8c0.3-1.2,0.4-1.9,0.6-2.7c0.2-0.1,0.5-0.1,0.7-0.2c0.8,1.9,1.7,3.8,2.6,5.9c-2,0.4-3.7,0.6-5.7,1
			c0.2-0.9,0.4-1.6,0.6-2.6c-2-0.5-4.1-1-6.6-1.6c0.3,2.7,0.5,4.8,0.8,6.8c-0.3,0.1-0.6,0.1-1,0.2c-0.5-2.2-1.2-4.4-1.3-6.6
			c-0.1-1.6,2.8-2.7,4.7-2C556.7,325.6,558.1,326.1,559.8,326.8z"/>
		<path class="st1" d="M528.5,325c0,2.7-3.7,7.1-6.3,7.5c-2,0.3-6.7-3.2-7.4-5.6c-0.6-2.2,1.3-4.1,4.1-4.2c2-0.1,3.9-0.3,5.9-0.6
			C527.1,321.7,528.5,322.8,528.5,325z M522.4,325.3c-1-0.4-2-1.1-2.9-1.1c-1,0-2.2,0.5-3.1,1.1c-0.3,0.2-0.5,1.6-0.2,1.9
			c1.6,1.3,3.3,3.1,5.1,3.3c2.8,0.3,5.6-2.6,5.9-4.9c0.2-1.8-0.8-2.5-2.5-2C523.9,323.8,523.3,324.6,522.4,325.3z"/>
		<path class="st1" d="M387.3,349.8c1.4-0.4,2.7-1,4.1-1.2c1-0.1,2.4-0.1,3.1,0.6c0.6,0.6,0.7,2.1,0.4,3c-0.3,1.1-1.1,2.2-1.9,3.2
			c-3.2,3.7-6.6,3.3-9.1-1C382.4,351.9,384.1,349.3,387.3,349.8z M389.1,357.1c1.6-1.9,3.1-3.4,4.3-5.1c0.3-0.4-0.2-1.5-0.3-2.2
			c-0.7,0.2-1.3,0.3-2,0.5c-0.9,0.3-1.8,0.8-2.7,1c-1.2,0.3-2.5,0.4-3.6,0.7c-0.1,0-0.2,1.3,0.1,1.6
			C386.1,354.8,387.4,355.7,389.1,357.1z"/>
		<path class="st1" d="M404.6,136.9c-0.8,1-1.7,2.8-2.5,2.8c-2.9,0-5.8-0.7-8.7-1.2c-0.1,0-0.2-1.6,0.2-2
			C395.2,134.7,402.1,134.9,404.6,136.9z"/>
		<path class="st1" d="M441.5,345.4c-1.3,2-2.4,5.3-3.9,5.6c-2.3,0.3-5.2-1-7.2-2.5c-2.1-1.7,0.3-2.7,1.6-2.9c2-0.3,3.7-0.6,5-2.4
			c0.4-0.5,1.8-0.7,2.4-0.4C440.2,343.1,440.6,344.2,441.5,345.4z M435.9,346.6c-1.5,0.1-3,0.3-4.4,0.4c0,0.3,0,0.6,0,0.9
			c1.9,1,3.7,3.3,6.1,1.3c1.5-1.2,2.5-3.2,0.8-5.8C437.5,344.7,436.7,345.7,435.9,346.6z"/>
		<path class="st1" d="M416,138.4c4.1,0,7.2,0,10.5,0c-1.9,3.6-4.3,4.7-8.2,3.6C417.3,141.7,416.8,139.7,416,138.4z"/>
		<path class="st1" d="M411,353.8c-1.6,0.2-3.4,0.4-5.1,0.6c-2.7,0.4-4.2-1.3-4.8-3.5c-0.3-1.3,0.3-3.7,1.2-4.2
			c1.3-0.7,3.4-0.3,5.1-0.1c0.5,0.1,1,1,1.3,1.6C409.6,350.1,410.3,352,411,353.8z M408.3,352.2c-0.4-1.1-0.5-2.1-1-2.8
			c-0.6-0.9-1.3-1.9-2.2-2.1c-0.7-0.2-2.2,0.5-2.5,1.1c-0.4,0.8-0.3,2.3,0.1,3.1C404.1,354.4,406.3,352.6,408.3,352.2z"/>
		<path class="st1" d="M439.8,130.4c2-2.3,5.9-3.4,8.2-2.4c1.5,0.6,2.2,1.7,0.6,3C446.6,132.8,441.7,132.5,439.8,130.4z"/>
		<path class="st1" d="M458.2,340.2c-1.4-1.3-2.8-2.3-3.7-3.7c-0.6-0.8-0.8-2.4-0.4-3.3c0.3-0.6,1.8-0.7,2.9-0.9
			c0.6-0.1,1.3,0,1.9-0.2c2.4-0.8,3.3-0.3,3.2,2.2C462.1,337.1,461.1,339.2,458.2,340.2z M456.4,333.1c-0.5,0.2-0.9,0.4-1.4,0.6
			c0.4,1.1,0.6,2.4,1.4,3.2c0.7,0.7,2.8,1.3,3,1c0.8-1.3,1.2-2.8,1.7-4.3c-0.4-0.3-0.9-0.5-1.3-0.8c-0.4,0.9-0.8,1.9-1.4,3.4
			C457.3,334.6,456.8,333.8,456.4,333.1z"/>
		<path class="st1" d="M181.5,144.2c-2,3.6-17.2,12.3-19.3,11.5C168.5,152,174.9,148.2,181.5,144.2z"/>
		<path class="st1" d="M366.9,169.1c3.9-2.4,8-1.9,11.2,2.2c-3.8-0.3-7.5-0.7-11.3-1C366.8,169.8,366.9,169.5,366.9,169.1z"/>
		<path class="st1" d="M158.2,156.6c-3.1,0-6.2,0-9.6,0c0.3-0.8,0.6-1.6,0.7-2c3,0.3,5.9,0.7,8.8,1
			C158.1,155.9,158.1,156.2,158.2,156.6z"/>
		<path class="st1" d="M646.1,134.5c1.3,0.4,2.6,0.8,3.9,1.3c-0.2,0.5-0.5,1.4-0.6,1.4c-1.3-0.2-2.6-0.6-3.9-0.9
			C645.8,135.6,645.9,135.1,646.1,134.5z"/>
		<path class="st1" d="M455.4,150.6c2-5.9,5.7-6.8,14.2-3.7C464.4,148.2,460.1,149.3,455.4,150.6z"/>
		<path class="st1" d="M357.3,333c2-0.1,3.9-0.3,5.9-0.3c1.9,0,2.4,1.3,2.3,3c-0.2,3.2-4.6,7.7-7.4,6.5c-2.2-0.9-4.1-3.9-4.9-6.4
			C352.6,333.6,355.2,332.7,357.3,333z M360,335.9c0,0.1-0.2-0.3-0.3-0.6c-1.1-1.9-3-1.9-4.2-0.6c-0.6,0.7-0.3,2.9,0.4,3.9
			c1.6,2.2,4.9,2.3,6.5,0.2c0.9-1.1,0.9-2.9,1.4-4.3C362.6,334.9,361.4,335.3,360,335.9z"/>
		<path class="st1" d="M347.5,191.2c3.8-2.4,6.3-1.9,9.4,1.6C353.3,194.3,349.7,193.7,347.5,191.2z"/>
		<path class="st1" d="M327.7,207.2c-2.4-0.4-4.7-0.8-7.1-1.2c0-0.3,0-0.7,0-1c1-0.4,2.1-0.8,3.4-1.3c-0.9-0.8-1.6-1.5-2.3-2.2
			c0.2-0.2,0.4-0.4,0.5-0.6c2,1.8,3.9,3.5,5.9,5.3C328,206.6,327.9,206.9,327.7,207.2z"/>
		<path class="st1" d="M160.3,299.3c0.2,2.5,0.4,5,0.8,7.4c0.1,0.8,1,1.4,1.9,2.7c-3.6-0.5-6.6-0.5-9.3-1.3
			c-1.1-0.3-2.6-2.3-2.5-3.4c0.2-1.7,1.2-3.7,2.4-4.9C155.6,297.9,158.1,298.5,160.3,299.3C160.4,299.3,160.3,299.3,160.3,299.3z
			 M158.5,306.5c-0.1-2.5,1.4-5.6-2.5-6c-2.1-0.2-3.5,1.6-3.4,3.7C152.8,308.3,156,306.5,158.5,306.5z"/>
		<path class="st1" d="M145,302.9c-0.3,0.4-0.7,1.4-1.4,2c-0.8,0.7-1.8,1.1-2.7,1.4c-4.7,1.8-7.8,0.1-8.5-4.9
			c-0.1-0.9,0.4-2.5,1.2-2.9c1-0.5,2.7-0.7,3.7-0.2c1.5,0.7,2.6,1.5,4.5,0.9C143.5,298.7,145,300.4,145,302.9z M139,302.7
			c-0.5-0.8-0.7-1.7-1.3-2c-1.1-0.5-2.4-0.6-3.6-0.9c0,1-0.3,2.2,0.1,3c1.5,3.1,6.8,3.3,8.8,0.4c0.3-0.4,0.4-1.4,0.2-1.6
			c-0.4-0.4-1.3-0.8-1.8-0.6C140.7,301.3,140,302,139,302.7z"/>
		<path class="st1" d="M116.6,184.1c2.3-4.5,10.6-4.5,14.8-1.2C126.5,186.1,121.6,183.2,116.6,184.1z"/>
		<path class="st1" d="M248.5,182.5c-3.6,0.3-7.2,0.5-10.8,0.8c-0.1-0.3-0.3-0.7-0.4-1c1.2-1.7,2.4-3.3,3.8-5.2
			c1.1,0.9,1.9,1.6,2.7,2.4c0.4-0.5,0.8-1,0.7-0.9C245.9,179.9,247.1,181.2,248.5,182.5C248.4,182.5,248.5,182.5,248.5,182.5z"/>
		<path class="st1" d="M254.5,302.3c-0.3-1.3-0.7-2.6-1.1-3.9c1-0.2,2-0.3,3-0.5c0,1.4,0,2.8,0,4.2
			C255.8,302.1,255.2,302.2,254.5,302.3z"/>
		<path class="st1" d="M156.8,128c-1.3,1.4-2.5,2.9-4,4.1c-0.4,0.4-1.4,0-2.2,0c0.2-0.7,0.1-1.8,0.6-2.1c1.5-1.1,3.2-2,4.8-3
			C156.3,127.4,156.5,127.7,156.8,128z"/>
		<path class="st1" d="M177.7,302.3c0.3-1.2,0.4-1.9,0.6-2.7c0.2-0.1,0.5-0.1,0.7-0.2c0.8,1.9,1.7,3.8,2.6,5.9c-2,0.4-3.7,0.6-5.7,1
			c0.2-0.9,0.4-1.6,0.6-2.6c-2-0.5-4.1-1-6.6-1.6c0.3,2.7,0.5,4.8,0.8,6.8c-0.3,0.1-0.6,0.1-0.9,0.2c-0.5-2.2-1.2-4.4-1.3-6.6
			c-0.1-1.6,2.8-2.7,4.7-2C174.6,301,176,301.6,177.7,302.3z"/>
	</g>
	<g>
		<path class="st2" d="M395.4,259.8c-0.9,5.9-2.3,12.1-0.3,18.2c0.3,0.9,0.6,2,0.4,2.9c-0.4,2.3-1.1,4.6-1.8,6.9c-1.6,0-3.3,0.1-5,0
			c-4.7-0.3-8.2,1.8-10.1,5.9c-2.1,4.5-2.3,9.3,1,13.3c1.9,2.3,3.4,4.7,4.7,7.4c2.4,4.9,7,6.8,12.8,7.3c-0.7,1-1,1.9-1.6,2.2
			c-3.3,1.7-4.6,3.9-4.4,7.7c0,1.3-0.4,2.6-0.7,4.1c2.8,1.8,5.8-0.4,8.8-1c5.8-1.2,11.5-2.8,17.2-4.4c0.9-0.2,1.6-1.1,2.5-1.7
			c-0.2-0.2-0.4-0.5-0.5-0.7c-0.8,0.5-1.6,1.2-2.5,1.5c-7,1.8-14.1,3.5-21.1,5.1c-0.5,0.1-1.7-1-1.9-1.7c-1-4.9,0.4-6.9,4.9-7.9
			c0.3-2,0.6-3.8,0.9-5.6c-6.7,1.6-13-1.9-14.3-8.1c0.5,0,1.1,0.1,1.5-0.1c0.8-0.4,1.5-1,2.3-1.4c-1-0.4-2.1-1.4-2.8-1.1
			c-1.9,0.8-2.9-0.2-4.1-1.3c-4.3-4.4-3.6-12.8,1.4-16.4c1.1-0.8,2.5-1.1,4-1.8c0,3,0.6,5.2,3.4,4.4c1.1-0.3,1.6-2.4,2.4-3.6
			c0.8-0.8,3.7,1.4,3.3-2.1c-0.5-4.3,1.8-8.1,0.5-12.8c-1.4-5.2-0.1-11.3,0.1-17c1,3.8,1.7,7.5,2.4,11.3c-0.3-5-1.5-10-3-15
			C395.8,256,395.7,257.9,395.4,259.8z"/>
		<g>
			<path class="st2" d="M419.7,237.1c-1.2,1.7,0.6,5.4,1.1,8.5c0.6-0.7,0.8-1,1.3-1.5c-0.6-2.9-1.1-5.7-1.7-8.5
				C420.2,236.1,420,236.5,419.7,237.1z"/>
			<path class="st2" d="M418.6,228.5c0.1,1.5-0.3,2.5-2.3,2.4c-6.9-0.4-10.7,5.3-7.9,11.6c0.7,1.7,1.9,3.1,2.6,4.1
				c-0.7,2.4-1.5,4.3-1.9,6.3c-0.3,1.3,0.2,2.8,0.1,4.2c-0.1,2.9,1.8,6.2,4.4,7.3c3.1,1.4,6.2,0.7,8.5-1.8
				c-7.8,2.5-11.7,0.5-11.4-5.7c1-0.6,1.8-1.2,2.7-1.7c-0.5-0.6-0.9-1.7-1.4-1.7c-3.9-0.4-1.9-2.3-1-3.7c0.6-0.9,1.6-1.5,2.5-2.3
				c-3.1-3.8-6.6-7.3-3.9-12.3c1.7,0.3,2.9,0.5,4.2,0.7c-0.2-1.2-0.3-2.5-0.5-3.7c1.9-0.2,4.1-0.5,6.4-0.8c-0.5-2.5-0.9-5.1-1.3-7.6
				C418.4,225.4,418.5,226.9,418.6,228.5z"/>
		</g>
		<path class="st2" d="M489.3,225c0.7,2.9,1.4,5.8,2.4,8.7c0.7,2,0.2,3.2-1.6,4c-1.4,0.6-1.7,1.4-1.7,3.1c-0.1,3.6-0.9,7.2-1.9,10.8
			c0-1.4,0-2.7,0-4.1c-0.3,0-0.6,0-0.8-0.1c-0.3,3-0.6,6.1-0.9,9.1c-0.8,10.3-1.8,20.7-2.4,31.1c-0.5,9.1-0.6,18.3-0.7,27.4
			c0,1.2,0.8,2.5,1.2,3.7c0,0,0,0,0,0c0,0,0,0,0,0c0.3-0.2,0.8-0.4,0.8-0.7c0.3-4.8,0.6-9.7,0.5-14.6c-0.2,1.5-0.3,3.1-0.5,4.6
			c-0.3,0-0.6,0-0.9-0.1c0.4-7.8,0.8-15.5,1.2-23.3c0.4,0,0.8,0,1.2,0c0,2.9-0.1,5.8,0,8.7c0.2,4.1,0.6,8.2,1,12.3
			c0.3,2.8,0.8,5.5,1.1,8.3c0.4,3.3-0.9,4.5-4.4,4.6c0,0,0,0,0,0c0,0,0,0,0,0c-0.8,4.4-0.6,4.5,4,4.3c2.8-0.2,5.6-0.1,8.4-0.3
			c1.1-0.1,2.1-0.5,3.1-0.8c0-0.3,0.1-0.6,0.1-0.9c-1.4-0.6-2.9-1.1-4.3-1.7c-1.6,2-5.1,2.5-9.9,1.4c7.5-2.5,4-7.8,3.8-12.2
			c-0.6-12.8-2.2-25.5-2-38.3c0.2-9.8,2.5-19.5,3.8-28.9c1.6,0.8,2.9,1.4,4.8,2.3c-0.1-7.7-0.9-15.5-2.1-23.2
			c-1.3-0.2-2.5-0.4-4.2-0.6C488.7,221.6,488.9,223.3,489.3,225z M491.9,228.7c-0.6-2.2-1.2-4.4-2-7.2
			C493.5,222.2,493.7,223.2,491.9,228.7z"/>
		<path class="st2" d="M335.8,231.7c-1.6,0.1-3.3,0-5.4,0c2.4,11,4.8,21.6,7.2,32.3c0.3,0,0.5-0.1,0.8-0.2
			c-2.2-10.3-4.3-20.5-6.5-30.9c2.5-0.2,4.8-0.4,7.4-0.7c0-0.7,0-1.4,0-2.1C338.6,231.2,337.5,231.6,335.8,231.7z"/>
		<path class="st2" d="M357.7,234.6c1.5,9.8,2.8,19.7,4.9,29.5c1.2,5.7,0,10.2-3.3,14.5c-1.2,1.7-1.2,2.9,0.4,4.2
			c0.1,0.1,0.1,0.2,0.2,0.2c5.5,3.2,5.4,7.9,4,13.3c-0.9,3.5-1.2,7.2-1.6,10.8c-0.1,1,0,2.8,0.4,2.9c1.3,0.4,2.9,0.3,4.3,0.3
			c0-0.4,0.1-0.8,0.1-1.1c-1-0.3-2-0.6-3.6-1c1.1-7.3,2.2-14.6,3.2-21.8c-1.3-0.7-2.7-1.3-3.9-2.3c-3.3-2.7-3.4-3.3-1.3-7
			c2.3-4,3.7-7.6,2.4-12.8c-2.6-10.1-3.7-20.6-5.3-30.9c-0.1-0.6,0-1.2,0-1.7c3.8-0.4,5.7,0.2,6.5,2.6c-0.1-1.1-0.2-2.2-0.1-3.3
			c-2.8-0.6-4.9-1-7.7-1.6C357.5,231.1,357.4,232.9,357.7,234.6z"/>
		<path class="st2" d="M567.8,189.8c4.6-1.6,8.4-2.7,12.1-4.3c1-0.4,2-2,2.1-3.2c1.3-10.3,2.4-20.6,3.7-30.9
			c0.7-5.4,1.7-10.9,2.7-16.3c0.2-0.9,1.2-1.6,1.8-2.5c0.2,0.9,0.6,1.8,0.7,2.6c0.3,12.6,0.6,25.1,0.9,37.7c0,2.3,0,4.6,0,6.8
			c0.3-0.1,0.6-0.3,0.9-0.4c0.7,0.8,1.9,1.4,2.1,2.3c2.7,12.5,5.2,25,7.9,37.4c2,9,4,18,6.5,26.9c5,17.8,10.3,35.4,15.5,53.1
			c1.2,4,1.1,3.8-2.9,5.4c-1.9,0.7-3.4,2.4-5.2,3.5c-10.4,6.2-21.7,10-33.5,11.9c-9.2,1.5-18.5,2-27.8,2.9c-0.5,0-1-0.1-2.3-0.3
			c-1-18.7,1.3-37.3,2.2-55.9c0.5-10.8,1.5-21.6,1.7-32.4c0.1-4.3-1.5-8.5-2.4-12.8c-0.9-4.5-1.9-8.9-2.7-13.4
			c-0.1-0.8,0.4-2,1.1-2.7c2.6-2.7,5.2-5.4,7.9-7.9c2.9-2.6,3.2-4.7,1.3-8c-2-3.5-3.6-7.2-5.5-10.8c-3.7-7.1-3.5-14.4-1.4-21.8
			c1.5-5.6,3.6-11.1,5-16.7c0.6-2.2,0.1-4.6,0.2-6.9c0.1-1.2,0.5-2.4,0.7-3.6c0.3,0.1,0.6,0.1,0.9,0.2c0.6,9.9,0.8,19.8,1.7,29.7
			C564.7,169.4,565,179.4,567.8,189.8z M560,314.6c0.8-0.6,1.7-1.4,2.6-2c10-5.7,18.8-12.8,25.5-22.5c3.8-5.4,8.4-10.3,12.9-15.2
			c2.9-3.2,4-3,6.2,0.5c4.5,7.2,8.7,14.6,13.1,21.9c0.9,1.5,2,3,3,4.5c0.2-0.1,0.5-0.2,0.7-0.3c-14-38.6-21.8-78.8-31.2-118.8
			c-0.9,0.3-1.9,0.6-2.8,1c-0.9,0.3-1.8,0.7-2.6,1.1c-0.4-1-1.2-2-1.1-3c0.2-6.3,0.5-12.7,0.8-19c0.2-3.4,0.4-6.8,0.6-10.1
			c-0.3,0-0.5-0.1-0.8-0.1c-1.2,9.7-2.4,19.3-3.5,29c-0.1,0.8,1,1.7,1.8,2.9c-1.6,1.7-3.2,4-5.3,5.4c-5.5,3.8-5.6,3.6-7.6,2.7
			c1.9-1.1,3.7-2.2,5.5-3.2c-0.1-0.2-0.2-0.4-0.3-0.6c-3.3,1-6.6,2-10,3.1c-0.7-1.2-1.4-2.4-2.4-4.1c-0.2,1-0.5,1.4-0.4,1.7
			c0.6,4.6-0.5,8.4-4.9,10.9c-0.8,0.5-0.9,2.5-1,3.9c0,2.4,0.4,4.8,0.4,7.3c-0.1,8.2-0.5,16.4-0.2,24.5c0.1,3.5,1.5,7,2.4,10.4
			c-0.2,0.1-0.4,0.1-0.6,0.2c-0.8-2.6-1.6-5.2-2.4-7.8c-0.2,0.1-0.4,0.1-0.5,0.2c-1.4,26.2-2.8,52.4-4.2,78.7c3,0.4,5.4,0.7,7.8,1.1
			c0.6,0.1,1.2,0.4,1.7,0.6c1.2,0.4,2.5,1.3,3.7,1.2c5.7-0.6,11.3-1.4,16.9-2.5c11.3-2.2,22.1-5.6,32.1-11.4
			c1.9-1.1,3.6-2.5,5.4-3.7c-0.1-0.2-0.2-0.4-0.4-0.7c-1-0.1-2-0.3-3-0.4c0-0.2,0-0.4,0-0.5c0.7-0.3,1.4-0.5,2.1-0.8
			c-1.9-4.5-12-16.2-15.5-17.5c2.2,2.4,4,4.4,5.8,6.3c-2-0.9-3.6-2-4.9-3.5c-1.6-1.8-2.8-1.9-4.7-0.4c-3.3,2.7-6.8,5.2-10.1,7.9
			c-4,3.3-8.1,6.5-11.8,10.1c-3.3,3.3-6,7.2-9,10.8c-0.4,0.5-1.3,1.1-1.9,1C565.5,315.5,562.9,315,560,314.6z M561.1,142.5
			c-8.2,16.4-7,37.6,2.2,45.5C562.6,172.9,561.8,158,561.1,142.5z M601.8,279.1c5.8,2.6,9.2,7.6,13.6,11.6
			c-2.8-4.9-5.9-9.6-8.9-14.4c-1.4-2.2-2.9-2.2-4.5-0.4c-5.6,6.5-11.1,12.9-16.7,19.4c0.2,0.2,0.4,0.4,0.7,0.6
			c4.6-3.6,9.2-7.2,13.9-10.7C602.1,283.7,603.9,282.3,601.8,279.1z M557,224.6c0.1,0,0.2,0,0.4,0c0.3-5.9,0.7-11.8,1-17.7
			c-0.3,0-0.5-0.1-0.8-0.1c-0.3,0.8-0.5,1.7-0.7,2.3c-0.1-0.9-0.3-2-0.5-3.1c-0.3-0.1-0.6-0.3-1-0.4c-0.6,1.2-2,2.6-1.8,3.6
			C554.5,214.4,555.8,219.5,557,224.6z M590.2,155.9c-0.5,0-0.9-0.1-1.4-0.1c-0.4,8.7-0.7,17.4-1.1,26.2c0.4,0.1,0.8,0.2,1.1,0.4
			c0.4-0.9,1.2-1.8,1.2-2.7C590.3,171.7,590.2,163.8,590.2,155.9z M574.5,307.6c-0.2-0.2-0.3-0.3-0.5-0.5c-3.1,2.1-6.2,4.1-9.3,6.2
			c0.1,0.3,0.1,0.5,0.2,0.8c1.2,0,2.8,0.5,3.5-0.1C570.6,312.1,572.5,309.8,574.5,307.6z"/>
		<g>
			<path class="st2" d="M162.1,262.3c-3.3,0.3-5.5-0.5-6.6-3.4c-0.8-2.3,0.5-4.7,3.2-6.3c2.5-1.4,7.1-1,9,1c2.6,2.6,1.1,7.2-2.7,8.3
				C163.9,262.2,162.8,262.2,162.1,262.3z M162.1,254.8c1.1,1.8,2.2,3.4,3.3,5.1c1.7-0.9,2.6-2.2,1.6-4
				C165.8,253.7,164.1,253.5,162.1,254.8z"/>
			<path class="st2" d="M186.8,283.2c0.5-0.3,1.2-0.5,1.6-1c2.6-2.8,6.3-3.6,8.8-1.2c1.4,1.3,2.7,3.8,2.4,5.5
				c-0.3,1.7-2.4,3.7-4.1,4.4c-2.3,0.9-4.8-0.2-6.1-2.5C188.2,286.7,187.5,284.8,186.8,283.2z M193.2,287.6c0.1,0.3,0.1,0.5,0.2,0.8
				c1.4-0.4,3.1-0.5,4.1-1.4c0.6-0.5,0.5-2.6,0-3.3c-1-1.2-2.6-1.8-4-2.7c-0.1,0.3-0.3,0.5-0.4,0.8
				C196.1,284.9,196.1,285.2,193.2,287.6z"/>
			<path class="st2" d="M220.5,279.5c0,2.7-1.3,3.9-4.4,4c-3,0.1-4.9-1.6-5-4.2c-0.1-2.8,2-5,4.7-5.1
				C218.8,274.1,220.4,276,220.5,279.5z M216,274.3c-1.8,2.2-3.5,3.4-3.7,4.8c-0.3,2,1.6,3,3.5,3c2.2,0,3.6-1.5,3.4-3.5
				C219,277.4,217.5,276.3,216,274.3z"/>
			<path class="st2" d="M209.9,265.1c-1.5,0.8-2.8,2-4.4,2.4c-0.9,0.3-2.6-0.3-3.2-1c-0.5-0.7-0.5-2.5,0.1-3.3c0.6-1,2-1.5,3.2-1.9
				c0.3-0.1,1.2,0.7,1.5,1.2c0.2,0.4-0.1,1.3-0.5,1.6c-0.3,0.3-1,0-1.6,0c-0.6,0-1.4-0.2-1.7,0.1c-0.3,0.2-0.4,1.3-0.1,1.6
				c0.4,0.5,1.3,1,1.7,0.9c1.6-0.5,3.1-1.4,4.6-2.1C209.7,264.7,209.8,264.9,209.9,265.1z"/>
			<path class="st2" d="M141.7,286.1c-2.6-3.5-1.5-5.3,0.8-6.7c0.5-0.3,1.4-0.3,1.9,0c0.4,0.2,0.8,1.2,0.6,1.5
				C144.1,282.6,143,284.1,141.7,286.1z"/>
			<path class="st2" d="M202.9,270c-1.8,2.1-2.9,2.4-4.5,0.8c-0.9-1-2.2-1.6-3.2-2.4c1.6-0.1,3.6-0.3,5.7-0.4
				C202.1,268.3,198.9,271.4,202.9,270z"/>
			<path class="st2" d="M156.7,282.8c-1.2,0.7-2,1.5-2.8,1.4c-0.5,0-1.5-1.4-1.4-1.8c0.3-0.8,1.2-1.5,2-1.7
				C155,280.6,155.7,281.8,156.7,282.8z"/>
			<path class="st2" d="M236.5,279.4c-1.4-0.8-2.4-1.1-3.1-1.7c-2.1-1.9-4.1-3.9-6.1-5.8c-11.5-10.6-23.1-21.3-34.6-31.9
				c-2.2-2.1-3.4-4.6-3.4-7.8c0.1-5.6,0.9-10.9,3.9-15.8c1.1-1.8,1.8-3.8,3-5.5c3.6-5.2,7.4-10.3,11.3-15.6c-1.3-2-2.8-4.7-4.7-6.9
				c-1.9-2.2-6.1-1.1-7.4-4.9c1.2,0.4,2.1,0.7,3.2,1.1c-1.6-3.6-5.8-6.1-9.4-5.9c1.6,2,3.2,3.9,4.8,5.9c-0.1,0.4-0.1,0.7-0.2,1.1
				c-12.6,1.4-25.3,2.8-38.4,4.3c1.1-4.9,2-8.8,2.8-12.6l-0.7-0.5c-0.4,0.6-0.8,1.1-1.1,1.7c-3.9,7.1-7.6,14.2-11.7,21.2
				c-1.6,2.7-0.6,4.3,1.7,5.5c2.6,1.4,5.4,2.6,8,4.1c1.2,0.7,3.1,1.1,2.3,3.4c-0.1,0.4,0.8,1.6,1.4,1.8c3,0.9,4,3.2,4.5,5.9
				c0.4,2.6,0.6,5.2,1.3,7.7c0.5,1.7,1.8,3.2,3,5.4c-4.6,6.7-9.6,14.3-15,21.6c-4.6,6.2-8.4,13.2-15.5,17.2
				c-2.9,1.6-5.6,3.6-8.4,5.4c-1.7,1.1-2.1,2.3-0.8,3.8c1.9,2.3,4.1,4.4,5.9,6.7c2.7,3.5,6.3,4.7,9.5,5.3c-3.6-2.9-7.8-6.1-12-9.4
				c0.2-0.3,0.4-0.5,0.6-0.8c3.5,2.1,7,4.4,10.6,6.3c6.2,3.4,12.5,6.5,18.7,9.8l0,0c2.1,0.9,4.1,1.8,6.1,2.6c0,0.1,0,0.1,0,0.1
				c0.7,0.3,1.5,0.6,2.3,0.9c1-0.4,2.4,0.1,3.6,1.3c0.9,0.3,1.8,0.6,2.6,0.9c0.4-0.2,0.7-0.4,1.1-0.5c-0.1,0.3-0.1,0.5-0.2,0.8
				c0.4,0.1,0.8,0.3,1.2,0.4c0.9,0.3,1.7,0.4,2.3,0.5c0.5,0.1,1,0.1,1.4,0.3c5.4-0.3,10.8,1.6,16.3-0.1c11.4-3.5,22.2-8.4,32.1-14.9
				C233.3,288.8,238.2,285.4,236.5,279.4z M165.3,228.1c-0.6-6.7-1.9-12.3-6.8-17.4c5.9-1.3,10.8-2.5,15.8-3.5
				c2.2-0.4,4.5-0.5,6.8-0.8c0.4-0.1,1.1-0.7,1.1-1c0-0.4-0.5-1.1-0.9-1.2c-4.7-0.8-9.4-1.6-14.1-2.3c-0.5-0.1-1,0.4-1.5,0.7
				c0.4,0.5,0.8,1.2,1.3,1.4c1.6,0.4,3.2,0.6,5,1.6c-4.1,1.3-8.2,2.6-12.4,3.8c-0.7,0.2-1.6,0-2.3-0.3c-2.8-1.4-5.5-2.9-8.3-4.3
				c-3.4-1.7-3.8-3.7-1.2-6.6c0.9-1,2-1.8,2.8-2.9c0.7-0.9,1.1-2.1,1.8-3.6c0.4,1.3,0.6,2,0.9,2.8c0.6-3,2.8-2.7,5-3
				c10.9-1.2,21.8-2.7,32.8-3.9c1.1-0.1,2.4,0.4,3.3,1c1.1,0.7,1.9,1.9,3.3,2.7c-0.3-0.6-0.6-1.2-1-1.8c2.7-0.5,2.7-0.5,8.5,6.1
				c-4.5,6.5-9.2,12.8-16.8,16.4c0.2,0.3,0.4,0.6,0.6,1c1.5-0.3,2.9-0.6,4.4-0.8c-3.1,6.6-6.2,13.4-9.3,20.1
				c0.4,0.2,0.7,0.4,1.1,0.6c0.7-1,1.4-2,2.1-3c0.2,0.1,0.5,0.3,0.7,0.4c-0.6,1-1,2.6-1.8,2.8c-1.6,0.4-3.3,0-5.1-0.1
				c1-1.9,1.6-3.1,2-4.3c0-0.1-1.3-1-1.7-0.9c-1.5,0.5-2.9,1.4-4.3,2c-0.1-1.9-0.2-4.5-4-4c-0.1,0-0.2-0.1-0.3-0.1
				c-1.5-0.5-1.9-3.7-4.1-2C167.7,224.4,166.9,226,165.3,228.1z M187.9,238.1c-2.3,1.9-4.6,3.9-7.1,6c-1-2.7-1.9-5.1-2.7-7.5
				c0.2-0.2,0.4-0.4,0.6-0.6c0.6,0.4,1.6,0.6,1.8,1.1c1.1,2.5,2.2,2.7,4.3,1c0.7-0.6,1.7-0.7,2.6-1.1
				C187.5,237.3,187.7,237.7,187.9,238.1z M173.1,228.1c1,1.2,1.6,2,2.2,2.8c-3.1,3-5.3-0.2-8.5-0.5c1.2-2.3,2.1-4,3.4-6.5
				c1,2.7,1.6,4.6,2.3,6.5c0.2-0.1,0.4-0.1,0.6-0.2C173.2,229.7,173.1,229.2,173.1,228.1z M228.1,290.4c-7.2,5.4-15.7,8.4-23.9,11.8
				c-4.8,2-9.7,2.4-14.7,2.6c-1,0-2.1,0.6-3.1,0.4c-0.3-0.1-0.6-0.1-1-0.2c-0.7,0.2-1.5,0.2-2.3,0c-1.4-0.4-3.2-0.9-5.2-1.6
				c-0.5-0.1-1-0.2-1.5-0.3c0-0.1,0-0.1,0.1-0.1c-2.6-0.9-5.4-1.8-7.6-2.6c-0.7-0.1-1.5-0.2-2.3-0.6c-11.9-4.8-23.7-10-34.2-17.7
				c-0.7-0.5-1.6-0.7-2.5-1.1c-0.6-0.2-1.1-0.5-1.7-0.7c0.3-0.6,0.5-1.3,1-1.6c3.7-2.5,7.6-4.7,11.2-7.3c3.4-2.4,6.6-5.1,9.9-7.8
				c0.3-0.3,0.4-0.9,0.6-1.3c-0.2-0.1-0.4-0.2-0.5-0.4c-0.7,0.5-1.4,1.1-2.1,1.6c-0.2-0.1-0.4-0.2-0.6-0.3c0.4-0.8,0.8-1.6,1.4-2.3
				c4.9-6.9,9.8-13.7,14.7-20.5c1.5-2.1,9.7-4.4,11.6-2.8c1.5,1.2,2.2,3.4,3.1,5.2c0.5,1.1,0.7,2.3,1.3,4.1c1.9-1.6,3.4-2.8,4.9-4
				c1.5-1.2,3-2.5,4.5-3.8c7.7,7.3,15.1,14.5,22.7,21.6c5.7,5.3,11.6,10.4,17.5,15.5c3.8,3.3,4,5.6,0.1,8.7c-3.7,3-7.7,5.7-11.5,8.5
				c-0.5,0.4-1,0.9-1.2,1.6c6.6-2,11.2-7.2,16.7-10.9c0.2,0.2,0.4,0.4,0.6,0.6C232.1,286.6,230.3,288.7,228.1,290.4z"/>
		</g>
	</g>
</g>
</svg>
