<?xml version="1.0" encoding="utf-8"?>
<!-- Generator: Adobe Illustrator 19.0.0, SVG Export Plug-In . SVG Version: 6.00 Build 0)  -->
<svg version="1.1" id="Layer_1" xmlns="http://www.w3.org/2000/svg" xmlns:xlink="http://www.w3.org/1999/xlink" x="0px" y="0px"
	 viewBox="0 0 55 85" style="enable-background:new 0 0 55 85;" xml:space="preserve">
<style type="text/css">
	.st0{fill:#FFFFFF;}
	.st1{fill:#FFFFFF;stroke:#35BEBC;stroke-width:2;stroke-linecap:round;stroke-miterlimit:10;}
	.st2{fill:none;stroke:#5A5A5A;stroke-width:2;stroke-linecap:round;stroke-miterlimit:10;}
</style>
<g>
	<path class="st0" d="M53,76.5c0,3.1-2.5,5.5-5.5,5.5H8.5C5.5,82,3,79.5,3,76.5V7.5C3,4.5,5.5,2,8.5,2h38.9C50.5,2,53,4.5,53,7.5
		V76.5z"/>
	<line class="st1" x1="3.8" y1="13.1" x2="52.5" y2="13.1"/>
	<line class="st1" x1="3.8" y1="64.5" x2="52.5" y2="64.5"/>
	<circle class="st2" cx="28" cy="73.3" r="3.3"/>
	<path class="st2" d="M53,76.5c0,3.1-2.5,5.5-5.5,5.5H8.5C5.5,82,3,79.5,3,76.5V7.5C3,4.5,5.5,2,8.5,2h38.9C50.5,2,53,4.5,53,7.5
		V76.5z"/>
	<g>
		<path class="st1" d="M16.6,19.9h25.6c1.6,0,2.9,1.3,2.9,3c0.1,0,2.5-0.5,3.4-1.1c0.3,1.7,0,4-3.4,6.3v4.9c0,1.7-1.3,3.1-2.9,3.1
			H16.6c-1.6,0-2.9-1.4-2.9-3.1V23C13.6,21.3,14.9,19.9,16.6,19.9z"/>
		<path class="st1" d="M39.7,41.6H14.1c-1.6,0-2.9,1.3-2.9,3c-0.1,0-2.5-0.5-3.4-1.1c-0.3,1.7,0,4,3.4,6.3v4.9
			c0,1.7,1.3,3.1,2.9,3.1h25.6c1.6,0,2.9-1.4,2.9-3.1v-9.9C42.7,43,41.3,41.6,39.7,41.6z"/>
	</g>
</g>
</svg>
