<?xml version="1.0" encoding="utf-8"?>
<!-- Generator: Adobe Illustrator 19.0.0, SVG Export Plug-In . SVG Version: 6.00 Build 0)  -->
<svg version="1.1" id="Layer_1" xmlns="http://www.w3.org/2000/svg" xmlns:xlink="http://www.w3.org/1999/xlink" x="0px" y="0px"
	 viewBox="0 0 80 125" style="enable-background:new 0 0 80 125;" xml:space="preserve">
<style type="text/css">
	.st0{fill:#FFFFFF;stroke:#35BEBC;stroke-width:2.8;stroke-linecap:round;stroke-linejoin:round;stroke-miterlimit:10;}
	.st1{fill:none;stroke:#5A5A5A;stroke-width:2.8;stroke-linecap:round;stroke-linejoin:round;stroke-miterlimit:10;}
	.st2{fill:none;stroke:#5A5A5A;stroke-width:3;stroke-linecap:round;stroke-linejoin:round;stroke-miterlimit:10;}
</style>
<g id="XMLID_2_">
	<line id="XMLID_9_" class="st0" x1="1.8" y1="18.6" x2="76.3" y2="18.6"/>
	<line id="XMLID_8_" class="st0" x1="1.8" y1="95.8" x2="76.3" y2="95.8"/>
	<ellipse id="XMLID_7_" class="st1" cx="39.4" cy="108.9" rx="5" ry="5"/>
	<path id="XMLID_6_" class="st2" d="M77.5,114.2c0,4.6-3.3,8.3-8,8.3H9.8c-4.6,0-8.3-3.7-8.3-8.3V10.8c0-4.6,3.7-8.3,8.3-8.3h59.8
		c4.6,0,8,3.7,8,8.3V114.2z"/>
	<g id="XMLID_3_">
		<path id="XMLID_5_" class="st0" d="M22.1,28.8h38.7c2.4,0,4.3,2,4.4,4.4c0.1,0,3.8-0.8,5.2-1.6c0.4,2.6,0,5.9-5.2,9.4v7.3
			c0,2.5-2,4.6-4.4,4.6H22.1c-2.4,0-4.4-2.1-4.4-4.6V33.4C17.7,30.9,19.7,28.8,22.1,28.8z"/>
		<path id="XMLID_4_" class="st0" d="M57.1,61.4H18.4c-2.4,0-4.3,2-4.4,4.4c-0.1,0-3.8-0.8-5.2-1.6c-0.4,2.6,0,5.9,5.2,9.4v7.3
			c0,2.5,2,4.6,4.4,4.6h38.7c2.4,0,4.4-2.1,4.4-4.6V66C61.5,63.5,59.5,61.4,57.1,61.4z"/>
	</g>
</g>
</svg>
