<?xml version="1.0" encoding="utf-8"?>
<!-- Generator: Adobe Illustrator 19.0.0, SVG Export Plug-In . SVG Version: 6.00 Build 0)  -->
<svg version="1.1" id="Layer_1" xmlns="http://www.w3.org/2000/svg" xmlns:xlink="http://www.w3.org/1999/xlink" x="0px" y="0px"
	 viewBox="0 0 40 38" style="enable-background:new 0 0 40 38;" xml:space="preserve">
<style type="text/css">
	.st0{fill-rule:evenodd;clip-rule:evenodd;fill:#5A5A5A;}
</style>
<g id="XMLID_17_">
	<path id="XMLID_14_" class="st0" d="M8.4,33.4c0.7-0.5,1.4-1.1,2.1-1.6c0.2-0.1,0.2-0.2,0.2-0.4c0-2.1,0-4.2,0-6.3
		c0-0.2,0-0.2,0.2-0.3c1.3-0.9,2.7-1.8,4-2.6c1.5-1,3.1-2,4.7-3c0.8-0.5,1.6-1.1,2.5-1.6c0.1,0,0.1-0.1,0.2-0.1
		c1.3,6.8,2.7,13.6,4,20.4c0.1,0,0.1-0.1,0.2-0.1c1.1-0.8,2.1-1.5,3.2-2.3c0.1-0.1,0.2-0.2,0.2-0.4c0.2-7.6,0.5-15.2,0.7-22.8
		c0-0.1,0-0.2,0.2-0.3c2.3-1.7,4.5-3.4,6.8-5.1c1.1-0.8,1.6-1.9,1.6-3.3c0-0.3-0.1-0.6-0.1-0.8c-0.1-0.2-0.3-0.4-0.4-0.6
		c-0.6-0.5-1.3-0.5-2-0.4c-0.2,0-0.5,0.1-0.7,0.2c-1.1,0.4-2.1,0.9-3.1,1.6c-1.8,1.3-3.5,2.7-5.3,4c-0.1,0.1-0.2,0.1-0.4,0.1
		C24.4,6.7,21.7,5.8,19,5c-4.5-1.4-8.9-2.8-13.4-4.3c-0.2-0.1-0.3,0-0.4,0.1C4.3,1.4,3.4,2,2.6,2.6c-0.1,0-0.1,0.1-0.2,0.1
		C2.1,2.8,1.9,3,1.8,3.1c0.1,0,0.1,0.1,0.2,0.1c5.4,3.2,10.9,6.5,16.3,9.7c0.5,0.3,0.9,0.5,1.4,0.8c-0.1,0.1-0.1,0.1-0.2,0.2
		c-0.7,0.6-1.5,1.1-2.2,1.7c-1.6,1.2-3.1,2.5-4.7,3.7c-1.2,0.9-2.4,1.8-3.6,2.8c-0.1,0.1-0.2,0.1-0.4,0.1c-2-0.7-4-1.4-5.9-2.1
		c-0.1-0.1-0.3,0-0.4,0c-0.7,0.5-1.3,0.9-2,1.3c-0.1,0-0.1,0.1-0.2,0.2c0.1,0.1,0.1,0.1,0.2,0.2c1.8,1.5,3.6,3,5.4,4.6
		c0.1,0.1,0.2,0.3,0.3,0.4c0.6,1.7,1.3,3.4,1.9,5.1C8,32.3,8.1,32.8,8.4,33.4C8.3,33.4,8.4,33.4,8.4,33.4z"/>
</g>
</svg>
