<?xml version="1.0" encoding="utf-8"?>
<!-- Generator: Adobe Illustrator 19.0.0, SVG Export Plug-In . SVG Version: 6.00 Build 0)  -->
<svg version="1.1" id="Layer_1" xmlns="http://www.w3.org/2000/svg" xmlns:xlink="http://www.w3.org/1999/xlink" x="0px" y="0px"
	 viewBox="0 0 115 125" style="enable-background:new 0 0 115 125;" xml:space="preserve">
<style type="text/css">
	.st0{fill:none;stroke:#5A5A5A;stroke-width:2.8;stroke-linecap:round;stroke-linejoin:round;stroke-miterlimit:10;}
	.st1{fill:#FFFFFF;stroke:#35BEBC;stroke-width:2.8;stroke-linecap:round;stroke-linejoin:round;stroke-miterlimit:10;}
	.st2{fill:none;stroke:#35BEBC;stroke-width:2.8;stroke-linecap:round;stroke-linejoin:round;stroke-miterlimit:10;}
</style>
<g>
	<g>
		<polygon class="st0" points="57.3,88.7 64.2,96.4 79.6,97.7 69.4,103.7 73.6,112.2 57.7,108.2 41.9,112.2 45.8,103.7 35.4,97.7 
			50.8,96.4 		"/>
		<g>
			<g>
				<line class="st0" x1="11.5" y1="122.5" x2="11.5" y2="85.5"/>
				<path class="st0" d="M19.6,77.4c0,4.5-3.6,8.1-8.1,8.1c-4.5,0-8.1-3.6-8.1-8.1c0-4.5,3.6-8.1,8.1-8.1
					C15.9,69.3,19.6,73,19.6,77.4z"/>
				<line class="st0" x1="36.2" y1="80.3" x2="36.2" y2="41.8"/>
				<ellipse class="st0" cx="36.2" cy="36.6" rx="5.6" ry="5.2"/>
				<path class="st0" d="M11.5,85.5c0.5,0.3,18.5,16.7,24.8-43.7"/>
			</g>
			<g>
				<line class="st0" x1="103.5" y1="85.5" x2="103.5" y2="122.5"/>
				<path class="st0" d="M95.4,77.4c0,4.5,3.6,8.1,8.1,8.1c4.5,0,8.1-3.6,8.1-8.1c0-4.5-3.6-8.1-8.1-8.1
					C99.1,69.3,95.4,73,95.4,77.4z"/>
				<line class="st0" x1="78.8" y1="80.3" x2="78.8" y2="41.8"/>
				<ellipse class="st0" cx="78.8" cy="36.6" rx="5.6" ry="5.2"/>
				<path class="st0" d="M103.5,85.5c-0.5,0.3-18.5,16.7-24.8-43.7"/>
			</g>
		</g>
		<polygon class="st0" points="78.8,80.3 36.2,80.3 11.5,122.5 103.5,122.5 		"/>
	</g>
	<g>
		<line class="st1" x1="50.6" y1="31.9" x2="63.1" y2="31.9"/>
		<path class="st1" d="M56.8,66.8V99c0,3.1-2.6,5.7-5.7,5.7l0,0c-3.1,0-5.7-2.6-5.7-5.7V38.2"/>
		<path class="st1" d="M68.2,42v57c0,3.1-2.6,5.7-5.7,5.7l0,0c-3.1,0-5.7-2.6-5.7-5.7V66.8"/>
		<path class="st1" d="M45.3,38.2C44.9,38,34.9,33,31.5,22.4c-2.4-7.5-0.2-16.6-0.1-17c0.5-2,2.5-3.2,4.5-2.7c2,0.5,3.2,2.5,2.7,4.5
			c0,0.1-1.7,7.5-0.1,13c2.8,9.3,11.6,11.5,11.7,11.6"/>
		<path class="st2" d="M50.3,31.7c0,6.1,2.6,11.9,6.6,17.4c4-5.5,6.6-11,6.6-17.1"/>
		<circle class="st1" cx="56.9" cy="18" r="9.7"/>
		<g>
			<line class="st1" x1="51.8" y1="39" x2="56.8" y2="33"/>
			<line class="st1" x1="61.8" y1="39" x2="56.8" y2="33"/>
		</g>
		<path class="st1" d="M63.5,32c4.8,0.3,9.9,3.1,11.4,4.4c1.6,1.3,7.8,5.3,10.1,15.7c1.9,8.3,0.1,18.3,0,18.8c-0.4,1.8-1.9,3-3.7,3
			c-0.3,0-0.5,0-0.8-0.1c-2-0.4-3.3-2.4-2.9-4.4c0-0.1,1.8-8.8,0-15.4c-2.3-8.8-9.5-11.9-9.5-12"/>
	</g>
</g>
</svg>
