<?xml version="1.0" encoding="utf-8"?>
<!-- Generator: Adobe Illustrator 19.0.0, SVG Export Plug-In . SVG Version: 6.00 Build 0)  -->
<svg version="1.1" id="Layer_1" xmlns="http://www.w3.org/2000/svg" xmlns:xlink="http://www.w3.org/1999/xlink" x="0px" y="0px"
	 viewBox="0 0 75 85" style="enable-background:new 0 0 75 85;" xml:space="preserve">
<style type="text/css">
	.st0{fill:none;stroke:#5A5A5A;stroke-width:2;stroke-linecap:round;stroke-linejoin:round;stroke-miterlimit:10;}
	.st1{fill:#FFFFFF;stroke:#35BEBC;stroke-width:2;stroke-linecap:round;stroke-linejoin:round;stroke-miterlimit:10;}
	.st2{fill:none;stroke:#35BEBC;stroke-width:2;stroke-linecap:round;stroke-linejoin:round;stroke-miterlimit:10;}
</style>
<g id="XMLID_2_">
	<g id="XMLID_14_">
		<polygon id="XMLID_29_" class="st0" points="37.4,59.3 42,64.5 52.2,65.3 45.4,69.3 48.2,75 37.6,72.3 27.1,75 29.7,69.3 
			22.8,65.3 33,64.5 		"/>
		<g id="XMLID_16_">
			<g id="XMLID_23_">
				<line id="XMLID_28_" class="st0" x1="6.8" y1="81.9" x2="6.8" y2="57.2"/>
				<circle id="XMLID_27_" class="st0" cx="6.8" cy="51.8" r="5.4"/>
				<line id="XMLID_26_" class="st0" x1="23.3" y1="53.8" x2="23.3" y2="28.1"/>
				<ellipse id="XMLID_25_" class="st0" cx="23.3" cy="24.6" rx="3.8" ry="3.5"/>
				<path id="XMLID_24_" class="st0" d="M6.8,57.2c0.4,0.2,12.3,11.1,16.5-29.2"/>
			</g>
			<g id="XMLID_17_">
				<line id="XMLID_22_" class="st0" x1="68.2" y1="57.2" x2="68.2" y2="81.9"/>
				<circle id="XMLID_21_" class="st0" cx="68.2" cy="51.8" r="5.4"/>
				<line id="XMLID_20_" class="st0" x1="51.7" y1="53.8" x2="51.7" y2="28.1"/>
				<ellipse id="XMLID_19_" class="st0" cx="51.7" cy="24.6" rx="3.8" ry="3.5"/>
				<path id="XMLID_18_" class="st0" d="M68.2,57.2c-0.4,0.2-12.3,11.1-16.5-29.2"/>
			</g>
		</g>
		<polygon id="XMLID_15_" class="st0" points="51.7,53.8 23.3,53.8 6.8,81.9 68.2,81.9 		"/>
	</g>
	<g id="XMLID_3_">
		<line id="XMLID_13_" class="st1" x1="32.9" y1="21.5" x2="41.2" y2="21.5"/>
		<path id="XMLID_12_" class="st1" d="M37,44.8v21.4c0,2.1-1.7,3.8-3.8,3.8l0,0c-2.1,0-3.8-1.7-3.8-3.8V25.7"/>
		<path id="XMLID_11_" class="st1" d="M44.7,28.2v38c0,2.1-1.7,3.8-3.8,3.8l0,0c-2.1,0-3.8-1.7-3.8-3.8V44.8"/>
		<path id="XMLID_10_" class="st1" d="M29.4,25.7c-0.3-0.1-7-3.4-9.2-10.6c-1.6-5-0.1-11.1,0-11.4c0.3-1.3,1.7-2.1,3-1.8
			c1.3,0.3,2.1,1.7,1.8,3c0,0-1.2,5,0,8.6c1.9,6.2,7.8,7.7,7.8,7.7"/>
		<path id="XMLID_9_" class="st2" d="M32.7,21.3c0,4.1,1.7,8,4.4,11.6c2.7-3.7,4.4-7.3,4.4-11.4"/>
		<circle id="XMLID_8_" class="st1" cx="37.1" cy="12.2" r="6.5"/>
		<g id="XMLID_5_">
			<line id="XMLID_7_" class="st1" x1="33.7" y1="26.2" x2="37" y2="22.2"/>
			<line id="XMLID_6_" class="st1" x1="40.4" y1="26.2" x2="37" y2="22.2"/>
		</g>
		<path id="XMLID_4_" class="st1" d="M41.5,21.5c3.2,0.2,6.6,2,7.6,2.9c1,0.9,5.2,3.5,6.7,10.5c1.2,5.6,0.1,12.2,0,12.5
			c-0.2,1.2-1.3,2-2.4,2c-0.2,0-0.3,0-0.5-0.1c-1.3-0.3-2.2-1.6-1.9-2.9c0-0.1,1.2-5.9,0-10.2c-1.5-5.9-6.3-8-6.4-8"/>
	</g>
</g>
</svg>
