<?xml version="1.0" encoding="utf-8"?>
<!-- Generator: Adobe Illustrator 19.0.0, SVG Export Plug-In . SVG Version: 6.00 Build 0)  -->
<svg version="1.1" id="Layer_1" xmlns="http://www.w3.org/2000/svg" xmlns:xlink="http://www.w3.org/1999/xlink" x="0px" y="0px"
	 viewBox="0 0 54 33" style="enable-background:new 0 0 54 33;" xml:space="preserve">
<style type="text/css">
	.st0{fill:#5A5A5A;}
	.st1{fill:#FFFFFF;}
</style>
<g id="XMLID_17_">
	<path id="XMLID_25_" class="st0" d="M54.1,27.7c0,2.9-2.3,5.2-5.2,5.2H5.4c-2.9,0-5.2-2.4-5.2-5.2v-22c0-2.9,2.3-5.2,5.2-5.2H49
		c2.9,0,5.2,2.4,5.2,5.2V27.7z"/>
	<g id="XMLID_18_">
		<g id="XMLID_20_">
			<rect id="XMLID_24_" x="6.7" y="8.5" class="st1" width="8" height="3.1"/>
			<rect id="XMLID_23_" x="17.7" y="8.5" class="st1" width="8" height="3.1"/>
			<rect id="XMLID_22_" x="28.7" y="8.5" class="st1" width="8" height="3.1"/>
			<rect id="XMLID_21_" x="39.7" y="8.5" class="st1" width="8" height="3.1"/>
		</g>
		<path id="XMLID_19_" class="st1" d="M44.1,18.2c-1.2,0-2.2,0.5-3,1.3c-0.8-0.8-1.8-1.3-3-1.3c-2.3,0-4.1,1.9-4.1,4.2
			c0,2.3,1.9,4.2,4.1,4.2c1.2,0,2.2-0.5,3-1.3c0.8,0.8,1.8,1.3,3,1.3c2.3,0,4.1-1.9,4.1-4.2C48.3,20.1,46.4,18.2,44.1,18.2z"/>
	</g>
</g>
</svg>
