<?xml version="1.0" encoding="utf-8"?>
<!-- Generator: Adobe Illustrator 19.0.0, SVG Export Plug-In . SVG Version: 6.00 Build 0)  -->
<svg version="1.1" id="Layer_1" xmlns="http://www.w3.org/2000/svg" xmlns:xlink="http://www.w3.org/1999/xlink" x="0px" y="0px"
	 viewBox="0 0 33 50" style="enable-background:new 0 0 33 50;" xml:space="preserve">
<style type="text/css">
	.st0{fill:#5A5A5A;}
	.st1{fill:#FFFFFF;}
</style>
<g id="XMLID_17_">
	<rect id="XMLID_34_" y="10" class="st0" width="33" height="30"/>
	<g id="XMLID_30_">
		<path id="XMLID_14_" class="st1" d="M19,26.1H5.9c-0.8,0-1.5,0.7-1.5,1.5c0,0-0.1,0-0.1,0c-0.6-0.1-1.2-0.3-1.7-0.5
			c-0.1,0.2-0.2,0.4-0.2,0.6c-0.3,1.3,0.6,2.5,2,3.1v2c0,0.9,0.7,1.6,1.5,1.6H19c0.8,0,1.5-0.7,1.5-1.6v-5.1
			C20.5,26.8,19.8,26.1,19,26.1z"/>
	</g>
	<g id="XMLID_27_">
		<path id="XMLID_32_" class="st1" d="M12.1,15.3h13.1c0.8,0,1.5,0.7,1.5,1.5c0,0,0.1,0,0.1,0c0.6-0.1,1.2-0.3,1.7-0.5
			c0.1,0.2,0.2,0.4,0.2,0.6c0.3,1.3-0.6,2.5-2,3.1v2c0,0.9-0.7,1.6-1.5,1.6H12.1c-0.8,0-1.5-0.7-1.5-1.6v-5.1
			C10.6,16,11.3,15.3,12.1,15.3z"/>
	</g>
	<g id="XMLID_21_">
		<path id="XMLID_26_" class="st0" d="M0,44.6C0,47.2,1.8,50,4.3,50h23.6c2.5,0,5.1-2.8,5.1-5.4V41H0V44.6z"/>
		<g id="XMLID_22_">
			<rect id="XMLID_25_" x="5.7" y="43.6" class="st1" width="4.1" height="3.3"/>
			<rect id="XMLID_24_" x="14.2" y="43.6" class="st1" width="4.1" height="3.3"/>
			<rect id="XMLID_23_" x="22.7" y="43.6" class="st1" width="4.1" height="3.3"/>
		</g>
	</g>
	<g id="XMLID_18_">
		<path id="XMLID_20_" class="st0" d="M27.9,0H4.3C1.8,0,0,1.5,0,4.1V9h33V4.1C33,1.5,30.4,0,27.9,0z"/>
		<rect id="XMLID_19_" x="9.5" y="3" class="st1" width="13.4" height="3.3"/>
	</g>
</g>
</svg>
