<?xml version="1.0" encoding="utf-8"?>
<!-- Generator: Adobe Illustrator 19.0.0, SVG Export Plug-In . SVG Version: 6.00 Build 0)  -->
<svg version="1.1" id="Layer_1" xmlns="http://www.w3.org/2000/svg" xmlns:xlink="http://www.w3.org/1999/xlink" x="0px" y="0px"
	 viewBox="0 0 180 125" style="enable-background:new 0 0 180 125;" xml:space="preserve">
<style type="text/css">
	.st0{fill:#FFFFFF;stroke:#35BEBC;stroke-width:2.8;stroke-linecap:round;stroke-linejoin:round;stroke-miterlimit:10;}
	.st1{fill:none;stroke:#5A5A5A;stroke-width:2.8;stroke-linecap:round;stroke-linejoin:round;stroke-miterlimit:10;}
	.st2{fill:none;stroke:#5A5A5A;stroke-width:3;stroke-linecap:round;stroke-linejoin:round;stroke-miterlimit:10;}
	.st3{fill:#FFFFFF;stroke:#5A5A5A;stroke-width:3;stroke-linecap:round;stroke-linejoin:round;stroke-miterlimit:10;}
	.st4{fill:none;stroke:#35BEBC;stroke-width:3;stroke-linecap:round;stroke-linejoin:round;stroke-miterlimit:10;}
	.st5{fill:none;stroke:#35BEBC;stroke-width:2.8;stroke-linecap:round;stroke-linejoin:round;stroke-miterlimit:10;}
</style>
<g>
	<g>
		<line class="st0" x1="3.6" y1="16.2" x2="64.9" y2="16.2"/>
		<line class="st0" x1="3.6" y1="81.5" x2="64.9" y2="81.5"/>
		<path class="st1" d="M41.2,92.5c0,2.3-1.9,4.2-4.2,4.2c-2.3,0-4.2-1.9-4.2-4.2c0-2.3,1.9-4.2,4.2-4.2
			C39.3,88.3,41.2,90.2,41.2,92.5z"/>
		<path class="st2" d="M64.5,96.5c0,3.9-3.1,7-7,7h-48c-3.9,0-7-3.1-7-7v-87c0-3.9,3.1-7,7-7h48c3.9,0,7,3.1,7,7V96.5z"/>
	</g>
	<g>
		<path class="st3" d="M176.5,112.1c0,5.8-4.7,10.4-10.4,10.4H47.9c-5.8,0-10.4-4.7-10.4-10.4V48.9c0-5.8,4.7-10.4,10.4-10.4h118.1
			c5.8,0,10.4,4.7,10.4,10.4V112.1z"/>
		<g>
			<line class="st4" x1="55" y1="58.5" x2="72" y2="58.5"/>
			<line class="st4" x1="84" y1="58.5" x2="101" y2="58.5"/>
			<line class="st4" x1="112" y1="58.5" x2="128" y2="58.5"/>
			<line class="st4" x1="139" y1="58.5" x2="156" y2="58.5"/>
		</g>
		<path class="st5" d="M148.1,78.4c-4.7,0-8.9,2.2-11.7,5.6c-2.7-3.4-6.9-5.6-11.7-5.6c-8.3,0-15,6.7-15,15c0,8.3,6.7,15,15,15
			c4.7,0,8.9-2.2,11.7-5.6c2.7,3.4,6.9,5.6,11.7,5.6c8.3,0,15-6.7,15-15C163.1,85.1,156.4,78.4,148.1,78.4z"/>
	</g>
</g>
</svg>
