<?xml version="1.0" encoding="utf-8"?>
<!-- Generator: Adobe Illustrator 19.0.0, SVG Export Plug-In . SVG Version: 6.00 Build 0)  -->
<svg version="1.1" id="Layer_1" xmlns="http://www.w3.org/2000/svg" xmlns:xlink="http://www.w3.org/1999/xlink" x="0px" y="0px"
	 viewBox="0 0 105 75" style="enable-background:new 0 0 105 75;" xml:space="preserve">
<style type="text/css">
	.st0{fill:#FFFFFF;}
	.st1{fill:#FFFFFF;stroke:#35BEBC;stroke-width:2;stroke-linecap:round;stroke-miterlimit:10;}
	.st2{fill:none;stroke:#5A5A5A;stroke-width:2;stroke-linecap:round;stroke-miterlimit:10;}
	.st3{fill:#FFFFFF;stroke:#5A5A5A;stroke-width:2;stroke-miterlimit:10;}
	.st4{fill:none;stroke:#35BEBC;stroke-width:2;stroke-linecap:round;stroke-miterlimit:10;}
	.st5{fill:none;stroke:#35BEBC;stroke-width:2;stroke-miterlimit:10;}
</style>
<g>
	<path class="st0" d="M39,57c0,2.2-1.8,4-4,4H7c-2.2,0-4-1.8-4-4V7c0-2.2,1.8-4,4-4h28c2.2,0,4,1.8,4,4V57z"/>
	<line class="st1" x1="4.2" y1="11" x2="38.5" y2="11"/>
	<line class="st1" x1="4.2" y1="48.3" x2="38.5" y2="48.3"/>
	<circle class="st2" cx="21.9" cy="54.7" r="2.4"/>
	<path class="st2" d="M39,57c0,2.2-1.8,4-4,4H7c-2.2,0-4-1.8-4-4V7c0-2.2,1.8-4,4-4h28c2.2,0,4,1.8,4,4V57z"/>
</g>
<g>
	<path class="st3" d="M102,66c0,3.3-2.7,6-6,6H29c-3.3,0-6-2.7-6-6V30c0-3.3,2.7-6,6-6H96c3.3,0,6,2.7,6,6V66z"/>
	<g>
		<line class="st4" x1="33" y1="35" x2="43" y2="35"/>
		<line class="st4" x1="49" y1="35" x2="59" y2="35"/>
		<line class="st4" x1="65" y1="35" x2="75" y2="35"/>
		<line class="st4" x1="81" y1="35" x2="91" y2="35"/>
	</g>
	<path class="st5" d="M85.4,46.6c-2.7,0-5.1,1.2-6.7,3.2c-1.6-1.9-4-3.2-6.7-3.2c-4.7,0-8.6,3.8-8.6,8.6c0,4.7,3.8,8.6,8.6,8.6
		c2.7,0,5.1-1.2,6.7-3.2c1.6,1.9,4,3.2,6.7,3.2c4.7,0,8.6-3.8,8.6-8.6C93.9,50.4,90.1,46.6,85.4,46.6z"/>
</g>
</svg>
