<?xml version="1.0" encoding="utf-8"?>
<!-- Generator: Adobe Illustrator 19.0.0, SVG Export Plug-In . SVG Version: 6.00 Build 0)  -->
<svg version="1.1" id="Layer_1" xmlns="http://www.w3.org/2000/svg" xmlns:xlink="http://www.w3.org/1999/xlink" x="0px" y="0px"
	 viewBox="0 0 36 25" style="enable-background:new 0 0 36 25;" xml:space="preserve">
<style type="text/css">
	.st0{fill:#5A5A5A;}
</style>
<path fill="#595959" id="XMLID_2_" class="st0" d="M33.4,6.7L16.2,23.8c-0.7,0.7-1.7,1.1-2.8,1.1c-1,0-2-0.4-2.8-1.1l-8.5-8.5c-1.5-1.5-1.5-4,0-5.5
	c0.7-0.7,1.7-1.1,2.8-1.1c1,0,2,0.4,2.7,1.1l5.1,5.1c0.2,0.2,0.4,0.3,0.7,0.3c0.3,0,0.5-0.1,0.7-0.3L27.9,1.2
	C28.6,0.4,29.6,0,30.6,0c1,0,2,0.4,2.8,1.1C34.9,2.7,34.9,5.1,33.4,6.7L33.4,6.7z"/>
</svg>
