<?xml version="1.0" encoding="utf-8"?>
<!-- Generator: Adobe Illustrator 19.0.0, SVG Export Plug-In . SVG Version: 6.00 Build 0)  -->
<svg version="1.1" id="Layer_1" xmlns="http://www.w3.org/2000/svg" xmlns:xlink="http://www.w3.org/1999/xlink" x="0px" y="0px"
	 viewBox="0 0 115 125" style="enable-background:new 0 0 115 125;" xml:space="preserve">
<style type="text/css">
	.st0{fill:none;stroke:#5A5A5A;stroke-width:3;stroke-linecap:round;stroke-linejoin:round;stroke-miterlimit:10;}
	.st1{fill:none;stroke:#35BEBC;stroke-width:3;stroke-linecap:round;stroke-linejoin:round;stroke-miterlimit:10;}
	.st2{fill:#FFFFFF;stroke:#35BEBC;stroke-width:3;stroke-linecap:round;stroke-linejoin:round;stroke-miterlimit:10;}
	.st3{fill:none;stroke:#35BEBC;stroke-width:2.8943;stroke-linecap:round;stroke-linejoin:round;stroke-miterlimit:10;}
	.st4{fill:none;stroke:#35BEBC;stroke-width:2.5959;stroke-linecap:round;stroke-linejoin:round;stroke-miterlimit:10;}
</style>
<g id="XMLID_2_">
	<path id="XMLID_16_" class="st0" d="M66.2,48.4c-0.2-2.6-1.1-5.2-3.6-7.7c-2.8-2.8-6-2.7-6-2.7s-1.6-2-7.4-1.3
		c-6.9,0.8-9.3,4.1-9.3,4.1s-4.1,1.9-5,6.9"/>
	<path id="XMLID_15_" class="st0" d="M98.4,109.5c-0.6-0.3-1.1-0.7-1.8-1c-4.7-2.5-9.4-3.9-15.5-4.4c-0.6-3.4-0.7-7.1-0.4-10.7
		c0.8-0.7,3.8-4.8,4.7-11.8C87.8,82.4,88,77,88,77s1.4-3.4,1.7-4.9c0.3-1.5-2-1.7-2-1.7l-0.1,0c0.2-1.3,0.3-2.7,0.4-3.9
		c0.3-4.8,1.3-9.9-3.4-14.6c-2.8-2.8-6-2.7-6-2.7s-1.6-2-7.4-1.3c-6.9,0.8-9.3,4.1-9.3,4.1S59.5,53.2,58,56"/>
	<path id="XMLID_14_" class="st0" d="M2.4,109.5c0.6-0.3,1.1-0.7,1.8-1c4.7-2.5,9.4-3.9,15.5-4.4c0.6-3.4,0.7-7.1,0.4-10.7
		c-0.8-0.7-3.8-4.8-4.7-11.8C13,82.4,12.7,77,12.7,77s-1.4-3.4-1.7-4.9c-0.3-1.5,2-1.7,2-1.7l0.1,0c-0.2-1.3-0.3-2.7-0.4-3.9
		c-0.3-4.8-1.3-9.9,3.4-14.6c2.8-2.8,6-2.7,6-2.7s1.6-2,7.4-1.3c6.9,0.8,9.3,4.1,9.3,4.1s2.5,1.2,4,4"/>
	<path id="XMLID_13_" class="st1" d="M62.9,96.9c0.2-0.8,0.2-1.2,0.4-2.3c2.4,0.9,2.6-4.6,2.6-4.6s1.4-3.4,1.7-4.9
		c0.3-1.5-2-1.7-2-1.7l-0.1,0c0.2-1.3,0.3-2.7,0.4-3.9c0.3-4.8,1.3-9.9-3.4-14.6c-2.8-2.8-6-2.7-6-2.7s-1.6-2-7.4-1.3
		c-6.9,0.8-9.3,4.1-9.3,4.1s-4.9,2.3-5.2,8.5c-0.3,6.2,0.8,9.8,0.8,9.8s0,0,0,0l-0.3,0c0,0-2.2,0.2-2,1.7c0.3,1.5,1.7,4.9,1.7,4.9
		s0.2,5.2,2.5,4.6c0.3,1.8,0.7,3.4,0.9,4.2c0.7,3,2.6,6.4,3.7,7.6c0.4,3.6,0.4,7.2-0.3,10.7c-6.1,0.6-10.7,1.9-15.4,4.4
		c-0.6,0.3-1.2,0.7-1.8,1"/>
	<path id="XMLID_12_" class="st1" d="M76.3,122.5c-0.6-0.3-1.1-0.7-1.8-1c-4.7-2.5-9.4-3.9-15.5-4.4c-0.6-3.4-0.6-8.3-0.2-11.9"/>
	<path id="XMLID_11_" class="st0" d="M39.1,26.4c2.9-2.5,4.8-6.2,4.8-10.3c0-7.5-6.1-13.6-13.6-13.6H16C8.4,2.5,2.4,8.6,2.4,16.1
		c0,7.5,6.1,13.6,13.6,13.6h13.2c0.7,0.6,1.3,1,1.9,1.3c3.2,1.6,7.9,3,12.6,1.1C41.2,30.4,39.7,28.4,39.1,26.4z"/>
	<path id="XMLID_10_" class="st2" d="M76.9,51.9c-2.9-2.5-4.8-6.2-4.8-10.3c0-7.5,6.1-13.6,13.6-13.6h14.3c7.5,0,13.6,6.1,13.6,13.6
		c0,7.5-6.1,13.6-13.6,13.6H86.9c-0.7,0.6-1.3,1-1.9,1.3c-3.2,1.6-7.9,3-12.6,1.1C74.8,55.9,76.3,53.9,76.9,51.9z"/>
	<g id="XMLID_5_">
		<path id="XMLID_9_" class="st3" d="M72.2,90.5c1.3-3.1,2.1-6.6,2.1-10.2c0-13.9-10.6-25.1-23.7-25.1c-13.1,0-23.7,11.2-23.7,25.1
			c0,3.7,0.7,7.1,2.1,10.2"/>
		<g id="XMLID_6_">
			<path id="XMLID_8_" class="st3" d="M36.5,94.1c-0.4,0.6-1,1-1.7,1.3l0,0c-2,0.7-4.1-0.3-4.8-2.3l-1.3-3.8c-0.7-2,0.3-4.1,2.3-4.8
				l0,0c0.5-0.2,2-1.2,2.5-1.2"/>
			<path id="XMLID_7_" class="st3" d="M64.7,94.1c0.4,0.6,1,1,1.7,1.3l0,0c2,0.7,4.1-0.3,4.8-2.3l1.3-3.8c0.7-2-0.3-4.1-2.3-4.8l0,0
				c-0.5-0.2-2-1.2-2.5-1.2"/>
		</g>
	</g>
	<path id="XMLID_4_" class="st3" d="M60.8,101.4c0,1.9-1.5,3.4-3.4,3.4H54c-1.9,0-3.4-1.5-3.4-3.4l0,0c0-1.9,1.5-3.4,3.4-3.4h3.4
		C59.3,98,60.8,99.5,60.8,101.4L60.8,101.4z"/>
	<path id="XMLID_3_" class="st4" d="M60.8,101.1c11.2,4.2,13.7-7.8,13.7-7.8l-2.7-1.8"/>
</g>
</svg>
