<?xml version="1.0" encoding="utf-8"?>
<!-- Generator: Adobe Illustrator 19.0.0, SVG Export Plug-In . SVG Version: 6.00 Build 0)  -->
<svg version="1.1" id="Layer_1" xmlns="http://www.w3.org/2000/svg" xmlns:xlink="http://www.w3.org/1999/xlink" x="0px" y="0px"
	 viewBox="0 0 75 83" style="enable-background:new 0 0 75 83;" xml:space="preserve">
<style type="text/css">
	.st0{fill:none;stroke:#5A5A5A;stroke-width:2;stroke-linecap:round;stroke-miterlimit:10;}
	.st1{fill:none;stroke:#35BEBC;stroke-width:2;stroke-linecap:round;stroke-miterlimit:10;}
	.st2{fill:#FFFFFF;stroke:#35BEBC;stroke-width:2;stroke-linecap:round;stroke-miterlimit:10;}
</style>
<g id="XMLID_2_">
	<g id="XMLID_5_">
		<path id="XMLID_10_" class="st0" d="M45.8,32.4c-0.2-1.7-0.7-3.5-2.4-5.1c-1.9-1.9-4-1.8-4-1.8s-1.1-1.3-5-0.8
			c-4.6,0.6-6.2,2.7-6.2,2.7s-2.7,1.3-3.4,4.6"/>
		<g id="XMLID_7_">
			<path id="XMLID_9_" class="st0" d="M67.3,73.2c-0.4-0.2-0.8-0.4-1.2-0.7c-3.1-1.7-6.2-2.6-10.4-3c-0.4-2.3-0.5-4.7-0.2-7.1
				c0.5-0.5,2.5-3.2,3.1-7.9c1.6,0.6,1.7-3,1.7-3s0.9-2.3,1.1-3.2c0.2-1-1.3-1.1-1.3-1.1l-0.1,0c0.1-0.9,0.2-1.8,0.3-2.6
				c0.2-3.2,0.9-6.6-2.2-9.7c-1.9-1.9-4-1.8-4-1.8s-1.1-1.3-5-0.8c-4.6,0.6-6.2,2.7-6.2,2.7s-3.3,1.6-3.5,5.7"/>
			<path id="XMLID_8_" class="st0" d="M3.2,73.2C3.6,73,4,72.8,4.4,72.5c3.1-1.7,6.2-2.6,10.4-3c0.4-2.3,0.5-4.7,0.2-7.1
				c-0.5-0.5-2.5-3.2-3.1-7.9c-1.6,0.6-1.7-3-1.7-3S9.2,49.2,9,48.3c-0.2-1,1.3-1.1,1.3-1.1l0.1,0c-0.1-0.9-0.2-1.8-0.3-2.6
				c-0.2-3.2-0.9-6.6,2.2-9.7c1.9-1.9,4-1.8,4-1.8s1.1-1.3,5-0.8c4.6,0.6,6.2,2.7,6.2,2.7s3.3,1.6,3.5,5.7"/>
		</g>
		<path id="XMLID_6_" class="st1" d="M52.5,81.9c-0.4-0.2-0.8-0.4-1.2-0.7c-3.1-1.7-6.2-2.6-10.4-3c-0.4-2.3-0.5-4.7-0.2-7.1
			c0.5-0.5,2.5-3.2,3.1-7.9c1.6,0.6,1.7-3.1,1.7-3.1s0.9-2.3,1.1-3.2c0.2-1-1.3-1.1-1.3-1.1l-0.1,0c0.1-0.9,0.2-1.8,0.3-2.6
			c0.2-3.2,0.9-6.6-2.2-9.7c-1.9-1.9-4-1.8-4-1.8s-1.1-1.3-5-0.8c-4.6,0.6-6.2,2.7-6.2,2.7s-3.3,1.6-3.5,5.7
			c-0.2,4.1,0.6,6.5,0.6,6.5s0,0,0,0l-0.2,0c0,0-1.5,0.2-1.3,1.1c0.2,1,1.1,3.2,1.1,3.2s0.2,3.5,1.7,3.1c0.2,1.2,0.5,2.2,0.6,2.8
			c0.5,2,1.7,4.3,2.4,5c0.3,2.4,0.2,4.8-0.2,7.1c-4.1,0.4-7.1,1.3-10.2,3c-0.4,0.2-0.8,0.4-1.2,0.7"/>
	</g>
	<path id="XMLID_4_" class="st0" d="M27.7,17.8c2-1.7,3.2-4.1,3.2-6.9c0-5-4.1-9.1-9.1-9.1h-9.5c-5,0-9.1,4.1-9.1,9.1
		c0,5,4.1,9.1,9.1,9.1h8.8c0.4,0.4,0.9,0.7,1.3,0.9c2.1,1.1,5.3,2,8.4,0.8C29.1,20.4,28.2,19.1,27.7,17.8z"/>
	<path id="XMLID_3_" class="st2" d="M48.3,36.9c-2-1.7-3.2-4.1-3.2-6.9c0-5,4.1-9.1,9.1-9.1h9.5c5,0,9.1,4.1,9.1,9.1
		c0,5-4.1,9.1-9.1,9.1h-8.8c-0.4,0.4-0.9,0.7-1.3,0.9c-2.1,1.1-5.3,2-8.4,0.8C46.9,39.6,47.8,38.2,48.3,36.9z"/>
</g>
</svg>
