<?xml version="1.0" encoding="utf-8"?>
<!-- Generator: Adobe Illustrator 19.0.0, SVG Export Plug-In . SVG Version: 6.00 Build 0)  -->
<svg version="1.1" id="Layer_1" xmlns="http://www.w3.org/2000/svg" xmlns:xlink="http://www.w3.org/1999/xlink" x="0px" y="0px"
	 viewBox="0 0 80 85" style="enable-background:new 0 0 80 85;" xml:space="preserve">
<style type="text/css">
	.st0{fill:none;stroke:#5A5A5A;stroke-width:2;stroke-linecap:round;stroke-linejoin:round;stroke-miterlimit:10;}
	.st1{fill:none;stroke:#35BEBC;stroke-width:2;stroke-linecap:round;stroke-linejoin:round;stroke-miterlimit:10;}
	.st2{fill:#FFFFFF;stroke:#35BEBC;stroke-width:2;stroke-linecap:round;stroke-linejoin:round;stroke-miterlimit:10;}
	.st3{fill:none;stroke:#35BEBC;stroke-width:1.9296;stroke-linecap:round;stroke-linejoin:round;stroke-miterlimit:10;}
	.st4{fill:none;stroke:#35BEBC;stroke-width:1.7306;stroke-linecap:round;stroke-linejoin:round;stroke-miterlimit:10;}
</style>
<g>
	<path class="st0" d="M45.4,32.4c-0.2-1.7-0.7-3.5-2.4-5.1c-1.9-1.9-4-1.8-4-1.8s-1.1-1.3-5-0.8c-4.6,0.6-6.2,2.7-6.2,2.7
		s-2.7,1.3-3.4,4.6"/>
	<path class="st0" d="M66.9,73.2c-0.4-0.2-0.8-0.4-1.2-0.7c-3.1-1.7-6.2-2.6-10.4-3c-0.4-2.3-0.5-4.7-0.2-7.1
		c0.5-0.5,2.5-3.2,3.1-7.9c1.6,0.6,1.7-3,1.7-3s0.9-2.3,1.1-3.2c0.2-1-1.3-1.1-1.3-1.1l-0.1,0c0.1-0.9,0.2-1.8,0.3-2.6
		c0.2-3.2,0.9-6.6-2.2-9.7c-1.9-1.9-4-1.8-4-1.8s-1.1-1.3-4.9-0.8c-4.6,0.6-6.2,2.7-6.2,2.7S41,35.7,40,37.5"/>
	<path class="st0" d="M2.9,73.2c0.4-0.2,0.8-0.4,1.2-0.7c3.1-1.7,6.2-2.6,10.4-3c0.4-2.3,0.5-4.7,0.2-7.1c-0.5-0.5-2.5-3.2-3.1-7.9
		c-1.6,0.6-1.7-3-1.7-3s-0.9-2.3-1.1-3.2c-0.2-1,1.3-1.1,1.3-1.1l0.1,0c-0.1-0.9-0.2-1.8-0.3-2.6c-0.2-3.2-0.9-6.6,2.2-9.7
		c1.9-1.9,4-1.8,4-1.8s1.1-1.3,5-0.8c4.6,0.6,6.2,2.7,6.2,2.7s1.7,0.8,2.7,2.7"/>
	<path class="st1" d="M43.2,64.8c0.1-0.5,0.2-0.8,0.3-1.5c1.6,0.6,1.7-3.1,1.7-3.1s0.9-2.3,1.1-3.2c0.2-1-1.3-1.1-1.3-1.1l-0.1,0
		c0.1-0.9,0.2-1.8,0.3-2.6c0.2-3.2,0.9-6.6-2.2-9.7c-1.9-1.9-4-1.8-4-1.8s-1.1-1.3-5-0.8c-4.6,0.6-6.2,2.7-6.2,2.7s-3.3,1.6-3.5,5.7
		c-0.2,4.1,0.6,6.5,0.6,6.5s0,0,0,0l-0.2,0c0,0-1.5,0.2-1.3,1.1c0.2,1,1.1,3.2,1.1,3.2s0.2,3.5,1.7,3.1c0.2,1.2,0.5,2.2,0.6,2.8
		c0.5,2,1.7,4.3,2.4,5c0.3,2.4,0.2,4.8-0.2,7.1c-4.1,0.4-7.1,1.3-10.2,3c-0.4,0.2-0.8,0.4-1.2,0.7"/>
	<path class="st1" d="M52.2,81.9c-0.4-0.2-0.8-0.4-1.2-0.7c-3.1-1.7-6.2-2.6-10.4-3c-0.4-2.3-0.4-5.5-0.1-7.9"/>
	<path class="st0" d="M27.4,17.8c1.9-1.7,3.2-4.1,3.2-6.9c0-5-4.1-9.1-9.1-9.1H12c-5,0-9.1,4.1-9.1,9.1c0,5,4.1,9.1,9.1,9.1h8.8
		c0.4,0.4,0.9,0.7,1.3,0.9c2.1,1.1,5.3,2,8.4,0.8C28.8,20.4,27.8,19.1,27.4,17.8z"/>
	<path class="st2" d="M52.6,34.8c-1.9-1.7-3.2-4.1-3.2-6.9c0-5,4.1-9.1,9.1-9.1H68c5,0,9.1,4.1,9.1,9.1c0,5-4.1,9.1-9.1,9.1h-8.8
		c-0.4,0.4-0.9,0.7-1.3,0.9c-2.1,1.1-5.3,2-8.4,0.8C51.2,37.4,52.2,36.1,52.6,34.8z"/>
	<g>
		<path class="st3" d="M49.5,60.5c0.9-2.1,1.4-4.4,1.4-6.8c0-9.2-7.1-16.7-15.8-16.7c-8.7,0-15.8,7.5-15.8,16.7
			c0,2.4,0.5,4.7,1.4,6.8"/>
		<g>
			<path class="st3" d="M25.7,62.9c-0.3,0.4-0.7,0.7-1.2,0.9l0,0c-1.3,0.5-2.7-0.2-3.2-1.5l-0.9-2.5C20,58.4,20.6,57,22,56.5l0,0
				c0.3-0.1,1.3-0.8,1.6-0.8"/>
			<path class="st3" d="M44.5,62.9c0.3,0.4,0.7,0.7,1.2,0.9l0,0c1.3,0.5,2.7-0.2,3.2-1.5l0.9-2.5c0.5-1.3-0.2-2.7-1.5-3.2l0,0
				c-0.3-0.1-1.3-0.8-1.6-0.8"/>
		</g>
	</g>
	<path class="st3" d="M41.9,67.8c0,1.3-1,2.3-2.3,2.3h-2.3c-1.3,0-2.3-1-2.3-2.3l0,0c0-1.3,1-2.3,2.3-2.3h2.3
		C40.9,65.5,41.9,66.5,41.9,67.8L41.9,67.8z"/>
	<path class="st4" d="M41.9,67.6c7.5,2.8,9.1-5.2,9.1-5.2l-1.8-1.2"/>
</g>
</svg>
