<?xml version="1.0" encoding="utf-8"?>
<!-- Generator: Adobe Illustrator 19.0.0, SVG Export Plug-In . SVG Version: 6.00 Build 0)  -->
<svg version="1.1" id="Layer_1" xmlns="http://www.w3.org/2000/svg" xmlns:xlink="http://www.w3.org/1999/xlink" x="0px" y="0px"
	 viewBox="0 0 145 125" style="enable-background:new 0 0 145 125;" xml:space="preserve">
<style type="text/css">
	.st0{fill:#FFFFFF;stroke:#5A5A5A;stroke-width:2.8;stroke-linecap:round;stroke-linejoin:round;stroke-miterlimit:10;}
	.st1{fill:none;stroke:#5A5A5A;stroke-width:2.8;stroke-linecap:round;stroke-linejoin:round;stroke-miterlimit:10;}
	.st2{fill:#FFFFFF;stroke:#35BEBC;stroke-width:2.8;stroke-linecap:round;stroke-linejoin:round;stroke-miterlimit:10;}
	.st3{fill:#FFFFFF;stroke:#5A5A5A;stroke-width:3;stroke-linecap:round;stroke-linejoin:round;stroke-miterlimit:10;}
	.st4{fill:#FFFFFF;}
	.st5{fill:none;stroke:#5A5A5A;stroke-width:3;stroke-linecap:round;stroke-linejoin:round;stroke-miterlimit:10;}
</style>
<g>
	<g>
		<g>
			<path class="st0" d="M12.3,82.1v-72C12.3,5.7,16,2,20.5,2h105c4.5,0,8.1,3.7,8.1,8.1v72H12.3z"/>
			<g>
				<line class="st1" x1="71.7" y1="7.4" x2="74.3" y2="7.4"/>
				<rect x="18.5" y="12.9" class="st2" width="109.1" height="63.4"/>
			</g>
		</g>
		<path class="st0" d="M8.5,89.6h129c3.4-1.4,6.1-4.1,6.1-7.5H2.4C2.4,85.5,5.1,88.2,8.5,89.6z"/>
	</g>
	<g>
		<path class="st3" d="M96.5,111.9c0,3.1-2.5,5.6-5.6,5.6H31.1c-3.1,0-5.6-2.5-5.6-5.6V28.1c0-3.1,2.5-5.6,5.6-5.6h59.7
			c3.1,0,5.6,2.5,5.6,5.6V111.9z"/>
		<rect x="32.8" y="33.4" class="st2" width="55.3" height="67"/>
		<circle class="st1" cx="60.3" cy="107.8" r="2.8"/>
		<line class="st1" x1="59" y1="27.6" x2="61.6" y2="27.6"/>
	</g>
	<g>
		<path class="st4" d="M117,117.1c0,2.7-2.2,4.9-4.9,4.9H77.9c-2.7,0-4.9-2.2-4.9-4.9V55.9c0-2.7,2.2-4.9,4.9-4.9h34.2
			c2.7,0,4.9,2.2,4.9,4.9V117.1z"/>
		<line class="st2" x1="73.8" y1="60.6" x2="115.9" y2="60.6"/>
		<line class="st2" x1="73.8" y1="106" x2="115.9" y2="106"/>
		<circle class="st1" cx="94.9" cy="113.7" r="2.9"/>
		<path class="st5" d="M116.5,116.6c0,2.7-2.2,4.9-4.9,4.9H77.4c-2.7,0-4.9-2.2-4.9-4.9V55.4c0-2.7,2.2-4.9,4.9-4.9h34.2
			c2.7,0,4.9,2.2,4.9,4.9V116.6z"/>
	</g>
</g>
</svg>
