<svg id="Layer_1" data-name="Layer 1" xmlns="http://www.w3.org/2000/svg" viewBox="0 0 137.65 29.39"><defs><style>.cls-1{fill:#ee3959;}.cls-2{fill:#fbd050;}.cls-3{fill:#5fa76e;}.cls-4{fill:#608ac7;}.cls-5{fill:#fff;}</style></defs><title>logo</title><path class="cls-1" d="M355.21,115.94a7.43,7.43,0,0,0-5.11,12.84,4.77,4.77,0,0,1-.82,1,4.92,4.92,0,0,1-1.49.93c0.4,0,.75.07,1.08,0.07a5.56,5.56,0,0,0,1.68-.26,8.39,8.39,0,0,0,1.27-.5A7.44,7.44,0,1,0,355.21,115.94Z" transform="translate(-225 -115.94)"/><circle class="cls-2" cx="130.21" cy="7.54" r="6.51"/><path class="cls-3" d="M355.21,129.07a5.58,5.58,0,1,1,5.58-5.58A5.58,5.58,0,0,1,355.21,129.07Z" transform="translate(-225 -115.94)"/><path class="cls-4" d="M355.21,128.14a4.65,4.65,0,1,1,4.65-4.65A4.65,4.65,0,0,1,355.21,128.14Z" transform="translate(-225 -115.94)"/><path class="cls-1" d="M355.21,127.21a3.72,3.72,0,1,1,3.72-3.72A3.72,3.72,0,0,1,355.21,127.21Z" transform="translate(-225 -115.94)"/><path class="cls-2" d="M355.21,126.28a2.79,2.79,0,1,1,2.79-2.79A2.79,2.79,0,0,1,355.21,126.28Z" transform="translate(-225 -115.94)"/><circle class="cls-3" cx="130.21" cy="7.54" r="1.86"/><circle class="cls-4" cx="130.21" cy="7.54" r="0.93"/><path class="cls-5" d="M225.2,122.43a4.43,4.43,0,0,1-.07-2.39,3.55,3.55,0,0,1,1.13-1.74,6.72,6.72,0,0,1,2.16-1.18,16.76,16.76,0,0,1,3-.73A33.53,33.53,0,0,1,235,116q2-.09,4.07-0.09,2.84,0,6,.21t6.69,0.77a2.45,2.45,0,0,1,1.25.54,1.85,1.85,0,0,1,.55.88,1.67,1.67,0,0,1,0,.7,1.84,1.84,0,0,1-.22.63,1.27,1.27,0,0,1-.45.46,1.21,1.21,0,0,1-.64.17,23.5,23.5,0,0,1-2.66-.16l-2.94-.37-3.15-.41q-1.62-.2-3.31-0.3a40.84,40.84,0,0,1,.29,4.58c0,1.39.08,2.91,0.09,4.36s0,2.44,0,3.89,0,2.84,0,4.17,0,2.56,0,3.68,0,1.88,0,2.69a4.23,4.23,0,0,1-.15,1.21,2,2,0,0,1-.42.79,1.7,1.7,0,0,1-.65.5,2.58,2.58,0,0,1-2.27-.16,2.1,2.1,0,0,1-1-1.35,3.92,3.92,0,0,1-.09-0.83q0-1.44-.06-2.88c0-1,.06-2.37,0-3.42,0-.59.06-1.65,0.14-3.95,0-1.38.08-1.86,0.14-3.26,0.09-2.07.14-2.3,0.18-3.44,0.07-1.74.4-4.47,0.49-6.6l-1.71.15q-0.87.09-1.67,0.23a11.94,11.94,0,0,0-1.49.37,5.12,5.12,0,0,0-1.22.56,2.1,2.1,0,0,0-.77.82,1.59,1.59,0,0,0-.06,1.13s0,0.15.06,0.38a1.66,1.66,0,0,1-.07.74,1.55,1.55,0,0,1-.53.73,2.13,2.13,0,0,1-1.34.33,3.13,3.13,0,0,1-1.52-.33,3.3,3.3,0,0,1-.93-0.72A2.89,2.89,0,0,1,225.2,122.43Z" transform="translate(-225 -115.94)"/><path class="cls-5" d="M244,142q-0.06-.67-0.06-1.56c0-.59,0-1.22,0-1.88s0.07-1.33.13-2,0.14-1.41.26-2.19,0.21-1.42.3-1.94a9.91,9.91,0,0,1,.28-1.28,2.81,2.81,0,0,1,.2-0.53,0.92,0.92,0,0,1,.25-0.31,0.84,0.84,0,0,1,.38-0.15,3.7,3.7,0,0,1,.58,0,3.89,3.89,0,0,1,.62,0,0.53,0.53,0,0,1,.34.18,0.86,0.86,0,0,1,.17.42c0,0.18.06,0.43,0.09,0.74s0.05,0.91.06,1.59a16.51,16.51,0,0,0,.11,1.81h0.17c0.17-.41.37-0.94,0.62-1.6a7.75,7.75,0,0,1,.81-1.64,4.58,4.58,0,0,1,1-1.1,2.32,2.32,0,0,1,1.43-.45,1.73,1.73,0,0,1,.57.1,1.64,1.64,0,0,1,.5.28,1.57,1.57,0,0,1,.37.45,1.49,1.49,0,0,1,.17.6,4.8,4.8,0,0,1,0,.72c0,0.31-.07.71-0.14,1.21s-0.11.9-.14,1.23a5.33,5.33,0,0,0,0,.79,3.52,3.52,0,0,0,.19.91,1.91,1.91,0,0,0,.33.58,1.13,1.13,0,0,0,.42.31,1.27,1.27,0,0,0,.47.09,3.49,3.49,0,0,0,1.39-.3,8.3,8.3,0,0,0,1.28-.68,11,11,0,0,0,1.31-1l0.08,3.55-0.84.58a10.17,10.17,0,0,1-1,.6,7.09,7.09,0,0,1-1.14.47,4,4,0,0,1-1.24.19,3.47,3.47,0,0,1-1.88-.46,3.85,3.85,0,0,1-1.21-1.21,6.82,6.82,0,0,1-.76-1.69c-0.19-.62-0.35-1.25-0.48-1.89h-0.24l-2.06,7.58a9,9,0,0,1-.32,1,3,3,0,0,1-.33.63,1,1,0,0,1-.39.34,1.2,1.2,0,0,1-.49.1,1.83,1.83,0,0,1-1-.27,1.94,1.94,0,0,1-.65-0.71,3.63,3.63,0,0,1-.36-1A9.84,9.84,0,0,1,244,142Z" transform="translate(-225 -115.94)"/><path class="cls-5" d="M262.45,145.17a5.73,5.73,0,0,1-4.42-1.94,6.79,6.79,0,0,1-1.24-2.06,8.79,8.79,0,0,1-.57-2.45,7.48,7.48,0,0,1,.14-2q0.22-1.16.48-2.06a8.7,8.7,0,0,1,.7-1.72,5.94,5.94,0,0,1,1.08-1.44,4.88,4.88,0,0,1,1.45-1,4.52,4.52,0,0,1,1.86-.37,4.68,4.68,0,0,1,1.61.27,4.32,4.32,0,0,1,1.34.77,4,4,0,0,1,.95,1.19,3.89,3.89,0,0,1,0,3.63,7.35,7.35,0,0,1-1.27,2,8,8,0,0,1-1.83,1.46,9.75,9.75,0,0,1-2.37,1,5.51,5.51,0,0,0,.51.67,2.3,2.3,0,0,0,.48.42,1.66,1.66,0,0,0,.5.21,2.33,2.33,0,0,0,.55.06,5.47,5.47,0,0,0,1.89-.36,11.34,11.34,0,0,0,1.89-.89,14.78,14.78,0,0,0,1.71-1.17,13.78,13.78,0,0,0,1.34-1.2l2.13,2a17.61,17.61,0,0,1-2.62,2.52q-0.61.47-1.32,0.92a11.16,11.16,0,0,1-1.51.81,9.85,9.85,0,0,1-1.67.56A7.38,7.38,0,0,1,262.45,145.17Zm-2.66-7.23a3,3,0,0,0,1.17-.27,4.85,4.85,0,0,0,1.14-.71,5.09,5.09,0,0,0,1-1.16,2.06,2.06,0,0,0,.43-1.2,2.32,2.32,0,0,0-.35-1.1,0.8,0.8,0,0,0-.65-0.43,2.28,2.28,0,0,0-1.1.24,2.14,2.14,0,0,0-.72.62,2.78,2.78,0,0,0-.43.86c-0.1.32-.21,0.72-0.34,1.19a4.37,4.37,0,0,0-.18,1.17C259.76,137.45,259.77,137.72,259.79,137.93Z" transform="translate(-225 -115.94)"/><path class="cls-5" d="M268.53,142c-0.06-.67-0.09-1.44-0.08-2.32s0-1.84.05-2.88,0.08-2,.16-2.83,0.16-1.56.25-2.16a2.15,2.15,0,0,1,.54-1.17,1.63,1.63,0,0,1,1.26-.47,1.36,1.36,0,0,1,1.18.5,2.64,2.64,0,0,1,.44,1.34,5.12,5.12,0,0,1,0,.62c0,0.26,0,.54,0,0.85s0,0.63-.06,1,0,0.71,0,1.13,0,0.73,0,.94a3.19,3.19,0,0,0,0,.42h0.3l0.24-.54a8.71,8.71,0,0,0,.36-1.07,8.61,8.61,0,0,1,.44-1.24c0.17-.36.32-0.7,0.46-1s0.27-.62.39-0.87l0.27-.56a2.42,2.42,0,0,1,1-1.13,3,3,0,0,1,1.35-.3,1.55,1.55,0,0,1,1.26.64,3.25,3.25,0,0,1,.6,1.76,3.58,3.58,0,0,1,0,.56c0,0.26-.05.58-0.09,0.94s-0.08.83-.11,1.41-0.07,1.09-.1,1.55,0,0.91-.06,1.35,0,0.85,0,1.23a4.55,4.55,0,0,0,.37,1.55,0.87,0.87,0,0,0,.79.61,1.42,1.42,0,0,0,.5-0.13,1.77,1.77,0,0,0,.61-0.32,4.46,4.46,0,0,1,.65-0.5,6.45,6.45,0,0,0,1-.61q1.15-.77,2.73-1.9l0.28,3.4-0.71.58q-0.09.08-1.36,0.79-1.84,1-2.31,1.25a12.45,12.45,0,0,1-1.42.61,4.94,4.94,0,0,1-1.57.24,1.88,1.88,0,0,1-1.51-1.21,9,9,0,0,1-.88-3.53,17.11,17.11,0,0,1-.05-2q0-1.05.1-2.27h-0.24l-3.29,7.9a1.75,1.75,0,0,1-.61.85,1.59,1.59,0,0,1-.86.23,1.84,1.84,0,0,1-1-.27,2,2,0,0,1-.65-0.72,3.64,3.64,0,0,1-.36-1A9.89,9.89,0,0,1,268.53,142Z" transform="translate(-225 -115.94)"/><path class="cls-5" d="M300.47,142a22.43,22.43,0,0,1-2,1.58c-0.28.19-.57,0.38-0.88,0.57s-0.61.35-.91,0.5a7.06,7.06,0,0,1-.88.36,2.74,2.74,0,0,1-.8.14,3.22,3.22,0,0,1-.65-0.1,3.65,3.65,0,0,1-1-.39,4.92,4.92,0,0,1-1.09-.86,5.7,5.7,0,0,1-1-1.5,12.82,12.82,0,0,1-1.1,1.1,8.19,8.19,0,0,1-1.23.91,7,7,0,0,1-1.32.62,4.2,4.2,0,0,1-1.38.23,3.6,3.6,0,0,1-1.74-.41,4.17,4.17,0,0,1-1.3-1.09,5.54,5.54,0,0,1-.85-1.55,7.21,7.21,0,0,1-.39-1.79,8.13,8.13,0,0,1,.08-2,8.64,8.64,0,0,1,.56-2c0.26-.63.56-1.29,0.89-2a6.39,6.39,0,0,1,1.38-1.88,6.48,6.48,0,0,1,1.87-1.28,6.78,6.78,0,0,1,2.12-.54,15.66,15.66,0,0,1,.11-3.48l0.52-3.24a16.2,16.2,0,0,1,.83-3.19,12.26,12.26,0,0,1,1.27-2.52,6.22,6.22,0,0,1,1.58-1.66,3.17,3.17,0,0,1,1.84-.6,2.12,2.12,0,0,1,1.25.37,3.13,3.13,0,0,1,.9,1,5.37,5.37,0,0,1,.57,1.43,10.36,10.36,0,0,1,.28,1.68c0,0.36.06,0.73,0.09,1.11a13.17,13.17,0,0,1-.32,4.06l-0.92,3.71a28.46,28.46,0,0,1-1.17,3.63q-1.09,2.75-1.36,3.73a4.94,4.94,0,0,0-.11.52q-0.05.31-.09,0.67c0,0.24,0,.49-0.06.74a5.9,5.9,0,0,0,0,.73,6.73,6.73,0,0,0,.13.84,3.35,3.35,0,0,0,.23.72,1.42,1.42,0,0,0,.36.5,0.77,0.77,0,0,0,.51.18,1.91,1.91,0,0,0,.62-0.11,4.59,4.59,0,0,0,.69-0.31,8.07,8.07,0,0,0,.73-0.45l0.71-.51q0.78-.61,1.63-1.39Zm-11.31-9a5.34,5.34,0,0,0-2.79,3.41,23.43,23.43,0,0,0-.6,2.27,6.08,6.08,0,0,0-.12,1.71,1.8,1.8,0,0,0,.11.47,1.12,1.12,0,0,0,.29.43,1.49,1.49,0,0,0,.54.31,2.78,2.78,0,0,0,.88.12,1.2,1.2,0,0,0,.53-0.12,2.13,2.13,0,0,0,.48-0.32,3.47,3.47,0,0,0,.42-0.44,4.49,4.49,0,0,0,.36-0.52,8,8,0,0,0,.65-1.4,5.21,5.21,0,0,1-.14-0.68q-0.07-.47-0.17-1.43c-0.07-.64-0.12-1.16-0.17-1.57s-0.09-.78-0.12-1.12-0.07-.61-0.1-0.83A1,1,0,0,0,289.16,133Zm6.26-10.36c0-.71,0-1.27-0.05-1.69a3.16,3.16,0,0,0-.25-1.14,0.51,0.51,0,0,0-.45-0.32,1,1,0,0,0-.84.62,4.88,4.88,0,0,0-.51,1.58L293,123.84a17,17,0,0,0-.22,2.23c0,0.73,0,1.38,0,2s0,1,0,1.25c0,0.5,0,1,0,1.46s0,0.89.05,1.28,0,0.72.07,1l0.06,0.66v0.15q0.67-2,1.2-4c0.15-.57.29-1.17,0.43-1.79l0.41-1.84c0.14-.61.25-1.21,0.32-1.81A14.39,14.39,0,0,0,295.42,122.68Z" transform="translate(-225 -115.94)"/><path class="cls-5" d="M305,145.17a5.73,5.73,0,0,1-4.42-1.94,6.78,6.78,0,0,1-1.24-2.06,8.77,8.77,0,0,1-.57-2.45,7.56,7.56,0,0,1,.14-2c0.14-.78.3-1.46,0.48-2.06a8.64,8.64,0,0,1,.7-1.72,6,6,0,0,1,1.07-1.44,4.91,4.91,0,0,1,1.45-1,4.51,4.51,0,0,1,1.86-.37,4.68,4.68,0,0,1,1.6.27,4.32,4.32,0,0,1,1.34.77,4,4,0,0,1,.95,1.19,4.13,4.13,0,0,1,.44,1.56,4.18,4.18,0,0,1-.44,2.06,7.35,7.35,0,0,1-1.27,2,8,8,0,0,1-1.83,1.46,9.74,9.74,0,0,1-2.37,1,5.41,5.41,0,0,0,.51.67,2.3,2.3,0,0,0,.48.42,1.67,1.67,0,0,0,.5.21,2.35,2.35,0,0,0,.55.06,5.45,5.45,0,0,0,1.89-.36,11.21,11.21,0,0,0,1.89-.89,14.59,14.59,0,0,0,1.71-1.17,13.68,13.68,0,0,0,1.34-1.2l2.13,2a17.64,17.64,0,0,1-2.62,2.52c-0.41.31-.85,0.62-1.32,0.92a11.24,11.24,0,0,1-1.51.81,9.94,9.94,0,0,1-1.67.56A7.38,7.38,0,0,1,305,145.17Zm-2.66-7.23a3,3,0,0,0,1.17-.27,4.87,4.87,0,0,0,1.14-.71,5.09,5.09,0,0,0,1-1.16,2.07,2.07,0,0,0,.43-1.2,2.3,2.3,0,0,0-.35-1.1,0.8,0.8,0,0,0-.66-0.43,2.29,2.29,0,0,0-1.1.24,2.14,2.14,0,0,0-.72.62,2.81,2.81,0,0,0-.43.86c-0.1.32-.21,0.72-0.34,1.19a4.52,4.52,0,0,0-.18,1.17C302.3,137.45,302.31,137.72,302.33,137.93Z" transform="translate(-225 -115.94)"/><path class="cls-5" d="M310.92,140.25c-0.1-.76-0.19-1.42-0.27-2l-0.22-1.53c-0.07-.46-0.12-0.88-0.16-1.26s-0.08-.78-0.12-1.18a18.72,18.72,0,0,1-.1-2.89,0.86,0.86,0,0,1,.59-0.95l1.91-.29,0.14,0h0.16a0.76,0.76,0,0,1,.63.3,1.4,1.4,0,0,1,.29.7l0.59,10.07,0.1,0,3.26-10.13a1,1,0,0,1,.16-0.41,1.26,1.26,0,0,1,.37-0.34,2.3,2.3,0,0,1,.52-0.23,2,2,0,0,1,.62-0.09,2.64,2.64,0,0,1,1.44.36,1.19,1.19,0,0,1,.61.92,2.56,2.56,0,0,1-.05.81,3.87,3.87,0,0,1-.23.83c-0.22.52-.35,0.85-0.4,1-0.36,1.09-.56,1.73-0.61,1.9s-0.09.37-.13,0.56a4.58,4.58,0,0,0-.08.59,3.93,3.93,0,0,0,0,.68,3.1,3.1,0,0,0,.15.71,1.9,1.9,0,0,0,.38.63,1.76,1.76,0,0,0,.66.45,2.72,2.72,0,0,0,1,.17,2.79,2.79,0,0,0,1-.23,7.82,7.82,0,0,0,1.09-.54c0.39-.23.8-0.49,1.21-0.79l0.31,3.57a9.26,9.26,0,0,1-2,1,5.9,5.9,0,0,1-2,.38,4.21,4.21,0,0,1-1.49-.25,3.74,3.74,0,0,1-1.15-.68,3.58,3.58,0,0,1-.78-1A2.91,2.91,0,0,1,318,140c-0.24.61-.52,1.23-0.84,1.87a14.5,14.5,0,0,1-1,1.73,7.25,7.25,0,0,1-1.08,1.27,1.59,1.59,0,0,1-1,.49,2.32,2.32,0,0,1-1.5-.45,3.07,3.07,0,0,1-.87-1.13,6.1,6.1,0,0,1-.45-1.49q-0.14-.81-0.25-1.54Z" transform="translate(-225 -115.94)"/><path class="cls-5" d="M329.53,145.17a5.79,5.79,0,0,1-2.53-.53,5.86,5.86,0,0,1-1.9-1.41,6.75,6.75,0,0,1-1.24-2.06,8.84,8.84,0,0,1-.57-2.45,7.51,7.51,0,0,1,.14-2,21.12,21.12,0,0,1,.48-2.06,8.76,8.76,0,0,1,.7-1.72,5.93,5.93,0,0,1,1.08-1.44,4.87,4.87,0,0,1,1.45-1,4.51,4.51,0,0,1,1.87-.37,4.68,4.68,0,0,1,1.6.27,4.33,4.33,0,0,1,1.34.77,3.91,3.91,0,0,1,.95,1.19,4.11,4.11,0,0,1,.44,1.56,4.17,4.17,0,0,1-.44,2.06,7.34,7.34,0,0,1-1.27,2,8,8,0,0,1-1.83,1.46,9.73,9.73,0,0,1-2.37,1,5.61,5.61,0,0,0,.51.67,2.35,2.35,0,0,0,.49.42,1.66,1.66,0,0,0,.5.21,2.34,2.34,0,0,0,.55.06,5.48,5.48,0,0,0,1.89-.36,11.27,11.27,0,0,0,1.89-.89,14.75,14.75,0,0,0,1.71-1.17,13.54,13.54,0,0,0,1.34-1.2l2.13,2a17.78,17.78,0,0,1-2.62,2.52q-0.61.47-1.32,0.92a11.14,11.14,0,0,1-1.51.81,10,10,0,0,1-1.67.56A7.42,7.42,0,0,1,329.53,145.17Zm-2.66-7.23a3,3,0,0,0,1.17-.27,4.89,4.89,0,0,0,1.14-.71,5.07,5.07,0,0,0,1-1.16,2.06,2.06,0,0,0,.43-1.2,2.3,2.3,0,0,0-.35-1.1,0.8,0.8,0,0,0-.65-0.43,2.29,2.29,0,0,0-1.1.24,2.11,2.11,0,0,0-.72.62,2.85,2.85,0,0,0-.43.86c-0.1.32-.21,0.72-0.34,1.19a4.4,4.4,0,0,0-.18,1.17C326.84,137.45,326.85,137.72,326.88,137.93Z" transform="translate(-225 -115.94)"/><path class="cls-5" d="M341.65,135.54c0.14,0.64.3,1.27,0.48,1.89a6.69,6.69,0,0,0,.71,1.6c1.16,1.62,4.58-.57,2.11-2.6v0a3.45,3.45,0,0,1-.19-0.91,5.23,5.23,0,0,1,0-.79c0-.32.07-0.73,0.13-1.23s0.12-.9.14-1.21a4.43,4.43,0,0,0,0-.72,1.47,1.47,0,0,0-.17-0.6,1.54,1.54,0,0,0-.37-0.45,1.7,1.7,0,0,0-.5-0.28,1.75,1.75,0,0,0-.57-0.1,2.32,2.32,0,0,0-1.43.45,4.63,4.63,0,0,0-1,1.1,7.9,7.9,0,0,0-.81,1.64c-0.24.66-.45,1.19-0.62,1.59h-0.17a15.71,15.71,0,0,1-.11-1.81c0-.69,0-1.22-0.06-1.6s-0.06-.56-0.09-0.74a0.88,0.88,0,0,0-.16-0.42,0.54,0.54,0,0,0-.34-0.18,4,4,0,0,0-.62,0,3.84,3.84,0,0,0-.58,0,0.84,0.84,0,0,0-.38.15,0.9,0.9,0,0,0-.25.31,2.62,2.62,0,0,0-.2.53,10.24,10.24,0,0,0-.28,1.28q-0.13.77-.3,1.94t-0.26,2.19c-0.06.68-.1,1.36-0.13,2s0,1.28,0,1.88,0,1.11.06,1.56a10.21,10.21,0,0,0,.17,1.18,3.67,3.67,0,0,0,.36,1,2,2,0,0,0,.65.71,1.82,1.82,0,0,0,1,.27,1.21,1.21,0,0,0,.49-0.1,1,1,0,0,0,.4-0.34,3,3,0,0,0,.33-0.63,8.63,8.63,0,0,0,.32-1l2.06-7.58h0.24Z" transform="translate(-225 -115.94)"/></svg>