<?xml version="1.0" encoding="utf-8"?>
<!-- Generator: Adobe Illustrator 16.0.0, SVG Export Plug-In . SVG Version: 6.00 Build 0)  -->
<!DOCTYPE svg PUBLIC "-//W3C//DTD SVG 1.1//EN" "http://www.w3.org/Graphics/SVG/1.1/DTD/svg11.dtd">
<svg version="1.1" id="Layer_1" xmlns="http://www.w3.org/2000/svg" xmlns:xlink="http://www.w3.org/1999/xlink" x="0px" y="0px"
	 width="450px" height="110px" viewBox="0 0 450 110" enable-background="new 0 0 450 110" xml:space="preserve">
<path fill="#FFFFFF" d="M80.887,14.384c3.796,0.502,7.438,0.958,10.932,1.366c3.489,0.4,6.788,0.605,9.905,0.605
	c0.893,0,1.684-0.211,2.38-0.639c0.696-0.421,1.25-0.999,1.666-1.72c0.416-0.719,0.69-1.509,0.829-2.364
	c0.135-0.849,0.084-1.732-0.156-2.63c-0.32-1.209-1.007-2.296-2.062-3.282c-1.048-0.985-2.596-1.658-4.638-2.039
	C90.986,2.29,82.685,1.325,74.832,0.794C66.979,0.265,59.528,0,52.483,0c-5.242,0-10.293,0.116-15.15,0.34
	c-4.854,0.23-9.348,0.665-13.476,1.318c-4.13,0.653-7.828,1.562-11.106,2.724C9.479,5.543,6.802,7.019,4.716,8.813
	c-2.083,1.788-3.492,3.968-4.222,6.51c-0.737,2.549-0.649,5.532,0.264,8.957c0.466,1.474,1.197,2.779,2.19,3.914
	c0.835,0.979,1.987,1.875,3.468,2.69c1.48,0.816,3.363,1.223,5.659,1.223c2.292,0,3.947-0.415,4.969-1.25
	c1.021-0.83,1.684-1.747,1.988-2.746c0.311-0.999,0.398-1.924,0.264-2.779c-0.132-0.856-0.209-1.325-0.23-1.4
	c-0.433-1.625-0.357-3.031,0.224-4.227c0.582-1.189,1.535-2.215,2.85-3.065c1.318-0.849,2.839-1.556,4.561-2.106
	c1.724-0.557,3.575-1.012,5.563-1.379c1.988-0.36,4.057-0.646,6.207-0.863c2.15-0.211,4.273-0.401,6.375-0.571
	c-0.345,7.964-1.572,18.191-1.832,24.694c-0.173,4.294-0.345,5.157-0.683,12.89c-0.23,5.238-0.346,7.046-0.515,12.203
	c-0.283,8.604-0.555,12.564-0.514,14.779c0.075,3.93-0.199,9.195-0.135,12.789c0.066,3.596,0.138,7.189,0.203,10.777
	c0.007,0.938,0.128,2.321,0.338,3.098c0.648,2.441,1.937,3.949,3.783,5.051c1.342,0.795,3.336,1.461,5.473,1.289
	c0.797-0.066,2.167-0.275,2.995-0.691c1.196-0.598,1.737-1.047,2.407-1.86c1.014-1.23,1.155-1.828,1.545-2.964
	c0.392-1.143,0.604-3.182,0.577-4.539c-0.026-3.028-0.08-5.862-0.114-10.077c-0.03-4.205-0.064-8.808-0.103-13.787
	c-0.041-4.979-0.081-10.187-0.122-15.621c-0.041-5.43,0.125-9.121,0.081-14.569c-0.041-5.449-0.223-11.137-0.341-16.329
	c-0.169-7.393-0.382-11.844-1.064-17.131c4.198,0.251,8.306,0.632,12.328,1.135C73.172,13.367,77.083,13.875,80.887,14.384z
	 M446.738,76.67c-0.016-0.035-0.027-0.063-0.044-0.096c-0.347-0.91-0.575-2.045-0.693-3.412c-0.067-0.795-0.061-1.785,0.027-2.975
	c0.081-1.203,0.25-2.728,0.504-4.588c0.25-1.855,0.423-3.363,0.514-4.513c0.085-1.162,0.104-2.062,0.044-2.696
	c-0.071-0.845-0.287-1.593-0.646-2.25c-0.359-0.659-0.814-1.224-1.362-1.68c-0.548-0.455-1.173-0.802-1.876-1.053
	c-0.696-0.245-1.41-0.367-2.123-0.367c-2.076,0-3.851,0.558-5.338,1.679c-1.487,1.115-2.782,2.492-3.884,4.117
	c-1.104,1.631-2.113,3.701-3.032,6.168c-0.913,2.461-1.688,3.992-2.303,5.992h-0.625c-0.247-2-0.388-4.211-0.419-6.795
	c-0.037-2.574-0.115-4.57-0.237-5.978c-0.103-1.17-0.213-2.113-0.327-2.787c-0.115-0.687-0.321-1.212-0.615-1.565
	c-0.298-0.367-0.724-0.593-1.272-0.688c-0.56-0.095-1.325-0.144-2.308-0.144c-0.863,0-1.589,0.046-2.167,0.142
	c-0.572,0.094-1.048,0.278-1.42,0.563c-0.372,0.286-0.686,0.673-0.941,1.169c-0.262,0.496-0.503,1.155-0.733,1.989
	c-0.382,1.244-0.733,2.843-1.055,4.777c-0.321,1.933-0.696,4.342-1.122,7.242c-0.426,2.896-0.743,5.629-0.957,8.184
	c-0.209,2.563-0.368,5.076-0.474,7.535c-0.017,0.353-0.021,0.681-0.033,1.023c-0.721,0.633-1.479,1.277-2.311,1.939
	c-1.975,1.567-4.09,3.03-6.352,4.36c-2.255,1.33-4.604,2.445-7.031,3.33c-2.431,0.896-4.776,1.34-7.038,1.34
	c-0.72,0-1.397-0.069-2.038-0.227c-0.636-0.144-1.251-0.398-1.853-0.773c-0.604-0.366-1.204-0.891-1.813-1.557
	c-0.606-0.666-1.235-1.502-1.893-2.5c3.211-0.892,6.152-2.136,8.829-3.726c2.678-1.598,4.949-3.41,6.809-5.448
	c1.862-2.039,3.438-4.484,4.725-7.341c1.275-2.848,1.816-5.43,1.617-7.727c-0.188-2.152-0.731-4.104-1.64-5.85
	c-0.906-1.734-2.086-3.223-3.532-4.451c-1.446-1.23-3.105-2.188-4.977-2.87c-1.873-0.679-3.863-1.018-5.979-1.018
	c-2.586,0-4.896,0.455-6.938,1.371c-2.035,0.918-3.84,2.147-5.412,3.705c-1.571,1.551-2.91,3.344-4.006,5.383
	c-1.097,2.037-1.973,4.186-2.616,6.428c-0.649,2.242-1.244,4.813-1.778,7.713c-0.534,2.902-0.71,5.396-0.525,7.488
	c0.059,0.676,0.146,1.344,0.242,2.006c-0.199,0.088-0.391,0.188-0.596,0.271c-1.437,0.584-2.721,0.877-3.854,0.877
	c-1.545,0-2.826-0.205-3.846-0.625c-1.018-0.414-1.835-0.98-2.464-1.681c-0.626-0.699-1.092-1.487-1.393-2.356
	s-0.494-1.761-0.571-2.67c-0.078-0.869-0.085-1.714-0.021-2.527c0.061-0.816,0.156-1.551,0.288-2.188
	c0.162-0.721,0.331-1.422,0.494-2.106c0.172-0.646,0.928-3.01,2.27-7.107c0.18-0.529,0.677-1.76,1.485-3.689
	c0.376-0.91,0.659-1.948,0.862-3.125c0.217-0.95,0.28-1.957,0.189-3.018c-0.122-1.4-0.888-2.549-2.278-3.432
	c-1.399-0.896-3.191-1.339-5.379-1.339c-0.828,0-1.599,0.109-2.315,0.34c-0.716,0.225-1.36,0.522-1.934,0.876
	c-0.574,0.361-1.024,0.789-1.358,1.278c-0.335,0.496-0.533,1.005-0.602,1.542l-12.14,37.918l-0.384,0.054l-2.204-37.691
	c-0.112-0.979-0.466-1.897-1.062-2.665c-0.586-0.753-1.363-1.181-2.33-1.181h-0.602l-0.527,0.165l-7.116,1.104
	c-1.265,0.19-1.994,1.386-2.181,3.565c-0.195,2.174-0.067,5.797,0.369,10.838c0.132,1.519,0.278,2.992,0.44,4.437
	c0.162,1.438,0.365,3.01,0.608,4.717c0.244,1.705,0.514,3.609,0.812,5.715c0.131,0.936,0.271,1.951,0.414,3.027
	c-0.41,0.344-0.831,0.69-1.271,1.045c-1.977,1.567-4.094,3.031-6.355,4.363c-2.258,1.329-4.601,2.442-7.03,3.327
	c-2.432,0.896-4.775,1.341-7.037,1.341c-0.721,0-1.399-0.07-2.035-0.228c-0.635-0.144-1.258-0.397-1.858-0.772
	c-0.596-0.367-1.2-0.892-1.806-1.558c-0.608-0.666-1.237-1.502-1.893-2.5c3.211-0.892,6.15-2.135,8.828-3.726
	c2.674-1.598,4.944-3.409,6.809-5.448c1.861-2.039,3.436-4.484,4.72-7.341c1.277-2.848,1.818-5.43,1.623-7.727
	c-0.189-2.152-0.737-4.104-1.646-5.85c-0.903-1.732-2.086-3.223-3.53-4.451c-1.447-1.23-3.106-2.188-4.979-2.87
	c-1.865-0.679-3.859-1.018-5.974-1.018c-2.587,0-4.897,0.455-6.938,1.371c-2.039,0.918-3.848,2.147-5.416,3.705
	c-1.574,1.551-2.906,3.344-4.003,5.383c-1.102,2.037-1.974,4.186-2.622,6.428c-0.646,2.242-1.238,4.813-1.771,7.713
	c-0.537,2.902-0.714,5.396-0.53,7.488c0.098,1.125,0.268,2.225,0.471,3.313c-0.97,0.832-1.922,1.617-2.854,2.354
	c-0.847,0.65-1.726,1.291-2.632,1.916c-0.903,0.639-1.812,1.201-2.711,1.691c-0.897,0.502-1.758,0.891-2.582,1.182
	c-0.823,0.285-1.596,0.428-2.313,0.428c-0.73,0-1.369-0.229-1.902-0.686c-0.537-0.463-0.982-1.086-1.347-1.869
	c-0.364-0.787-0.651-1.678-0.868-2.676c-0.217-1-0.371-2.047-0.467-3.16c-0.074-0.885-0.1-1.787-0.061-2.732
	c0.033-0.938,0.101-1.861,0.199-2.758c0.098-0.896,0.213-1.732,0.34-2.502c0.129-0.768,0.269-1.42,0.42-1.949
	c0.687-2.461,2.381-7.113,5.078-13.971c1.765-4.479,3.211-9.02,4.34-13.591c1.125-4.58,2.269-9.215,3.422-13.903
	c1.154-4.689,1.548-9.751,1.188-15.194c-0.104-1.427-0.211-2.814-0.328-4.166c-0.188-2.168-0.541-4.261-1.06-6.292
	c-0.515-2.025-1.228-3.813-2.133-5.354c-0.909-1.529-2.021-2.766-3.351-3.697c-1.322-0.931-2.869-1.393-4.646-1.393
	c-2.429,0-4.716,0.748-6.858,2.243c-2.144,1.495-4.106,3.574-5.886,6.224c-1.78,2.65-3.356,5.797-4.728,9.433
	c-1.371,3.642-2.402,7.617-3.094,11.938c-0.688,4.321-1.338,8.358-1.938,12.109c-0.597,3.751-0.74,8.092-0.427,13.013
	c-2.84,0.271-5.478,0.944-7.909,2.026c-2.435,1.064-4.758,2.662-6.965,4.781c-2.211,2.112-3.928,4.465-5.157,7.041
	c-1.228,2.574-2.329,5.049-3.313,7.412c-0.979,2.371-1.67,4.813-2.076,7.332c-0.401,2.516-0.5,5.002-0.284,7.469
	c0.018,0.188,0.047,0.373,0.067,0.562c-1.286,0.854-1.974,1.271-2.062,1.239c-0.078-0.032-0.89,0.593-2.435,1.878
	c-0.311,0.34-1.067,0.739-2.271,1.192c-0.802,0.342-1.427,0.512-1.879,0.512c-1.244,0-2.225-0.756-2.941-2.271
	c-0.717-1.514-1.176-3.451-1.379-5.803c-0.125-1.398-0.172-2.937-0.148-4.603c0.023-1.672,0.096-3.354,0.209-5.063
	c0.115-1.705,0.24-3.635,0.372-5.795s0.271-3.922,0.419-5.287c0.143-1.366,0.258-2.535,0.338-3.526
	c0.089-0.984,0.108-1.687,0.075-2.104c-0.244-2.8-0.994-5.002-2.245-6.593c-1.251-1.59-2.818-2.386-4.706-2.386
	c-1.88,0-3.563,0.381-5.044,1.135c-1.479,0.762-2.737,2.162-3.762,4.214c-0.227,0.449-0.558,1.148-1.004,2.101
	c-0.446,0.945-0.94,2.039-1.471,3.27c-0.537,1.23-1.108,2.516-1.728,3.859c-0.615,1.346-1.17,2.896-1.66,4.635
	c-0.489,1.746-0.938,2.857-1.349,3.789c-0.409,0.924-0.71,1.787-0.899,1.787h-1.129c-0.026,0-0.013-0.557,0.034-1.338
	c0.041-0.775,0.081-1.838,0.115-3.406c0.034-1.576,0.088-2.92,0.172-4.156c0.078-1.225,0.155-2.396,0.228-3.555
	c0.066-1.152,0.114-2.201,0.142-3.166c0.034-0.965,0.02-1.725-0.027-2.297c-0.183-2.078-0.723-3.74-1.623-4.998
	c-0.898-1.25-2.37-1.874-4.407-1.874c-2.035,0-3.598,0.587-4.679,1.761c-1.088,1.178-1.761,2.639-2.021,4.378
	c-0.338,2.234-0.649,4.927-0.94,8.07c-0.291,3.147-0.493,6.682-0.604,10.603c-0.079,2.766-0.13,5.356-0.163,7.799
	c-0.671,0.586-1.374,1.18-2.141,1.791c-1.974,1.567-4.09,3.03-6.348,4.362c-2.258,1.328-4.604,2.443-7.035,3.328
	c-2.431,0.896-4.775,1.34-7.035,1.34c-0.723,0-1.402-0.069-2.039-0.227c-0.635-0.144-1.254-0.398-1.854-0.773
	c-0.603-0.366-1.204-0.891-1.81-1.557c-0.607-0.666-1.24-1.502-1.896-2.5c3.215-0.892,6.152-2.136,8.833-3.726
	c2.674-1.598,4.945-3.41,6.808-5.448c1.863-2.039,3.436-4.484,4.717-7.341c1.284-2.848,1.824-5.43,1.626-7.727
	c-0.189-2.152-0.74-4.104-1.646-5.85c-0.906-1.734-2.082-3.223-3.529-4.451c-1.446-1.23-3.106-2.188-4.976-2.87
	c-1.87-0.679-3.864-1.018-5.977-1.018c-2.59,0-4.902,0.455-6.943,1.371c-2.035,0.918-3.84,2.147-5.412,3.705
	c-1.572,1.551-2.911,3.344-4.006,5.383c-1.095,2.037-1.971,4.186-2.617,6.428c-0.649,2.242-1.244,4.813-1.774,7.713
	c-0.045,0.24-0.071,0.463-0.111,0.699c-0.476,0.232-0.958,0.461-1.46,0.68c-1.745,0.756-3.461,1.137-5.162,1.137
	c-0.605,0-1.188-0.117-1.754-0.34c-0.568-0.232-1.088-0.619-1.568-1.17c-0.487-0.545-0.898-1.275-1.241-2.188
	c-0.342-0.912-0.57-2.047-0.692-3.412c-0.068-0.795-0.062-1.787,0.026-2.978c0.081-1.202,0.25-2.725,0.504-4.586
	c0.254-1.854,0.423-3.364,0.515-4.514c0.084-1.162,0.102-2.06,0.044-2.695c-0.071-0.846-0.288-1.592-0.646-2.25
	c-0.361-0.659-0.814-1.224-1.361-1.68c-0.549-0.455-1.174-0.802-1.873-1.053c-0.703-0.245-1.413-0.367-2.123-0.367
	c-2.076,0-3.854,0.558-5.341,1.679c-1.487,1.115-2.782,2.494-3.885,4.119c-1.104,1.629-2.111,3.701-3.031,6.168
	C86.708,67.469,85.937,69,85.314,71h-0.622c-0.242-2-0.385-4.211-0.419-6.795c-0.038-2.574-0.114-4.572-0.236-5.979
	c-0.103-1.168-0.213-2.113-0.328-2.787c-0.115-0.687-0.321-1.212-0.618-1.565c-0.294-0.367-0.72-0.593-1.271-0.688
	c-0.558-0.095-1.324-0.144-2.305-0.144c-0.865,0-1.589,0.046-2.164,0.142c-0.578,0.094-1.051,0.278-1.423,0.563
	c-0.369,0.286-0.687,0.673-0.943,1.169c-0.26,0.496-0.504,1.155-0.732,1.991c-0.382,1.242-0.733,2.84-1.056,4.777
	c-0.32,1.93-0.695,4.342-1.122,7.241c-0.427,2.896-0.747,5.628-0.957,8.185c-0.209,2.561-0.369,5.074-0.474,7.535
	c-0.107,2.467-0.159,4.797-0.151,7.02c0.003,2.223,0.077,4.166,0.227,5.83c0.128,1.516,0.341,2.982,0.636,4.402
	c0.291,1.42,0.744,2.69,1.353,3.807c0.602,1.121,1.405,2.01,2.406,2.678c1,0.658,2.272,0.992,3.82,0.992
	c0.676,0,1.288-0.123,1.832-0.367s1.035-0.674,1.475-1.277c0.436-0.61,0.849-1.395,1.236-2.364c0.385-0.966,0.777-2.354,1.181-3.83
	L92.313,73h0.902c0.511,3,1.112,4.91,1.802,7.246c0.693,2.332,1.629,4.514,2.813,6.396c1.183,1.866,2.69,3.434,4.522,4.582
	c1.835,1.159,4.168,1.754,6.998,1.754c1.582,0,3.117-0.224,4.604-0.697c1.146-0.363,2.245-0.814,3.314-1.316
	c0.312,1.168,0.666,2.324,1.104,3.451c1.132,2.914,2.674,5.479,4.628,7.693c1.954,2.217,4.307,3.981,7.064,5.295
	c2.751,1.318,5.89,1.971,9.411,1.971c2.266,0,4.477-0.26,6.64-0.795c2.155-0.523,4.225-1.225,6.205-2.1
	c1.975-0.877,3.854-1.883,5.618-3.021c1.621-1.037,3.121-2.09,4.529-3.153c0.086,0.534,0.171,1.069,0.278,1.594
	c0.297,1.42,0.744,2.688,1.352,3.805c0.603,1.121,1.406,2.012,2.41,2.678c0.998,0.658,2.269,0.992,3.817,0.992
	c1.243,0,2.314-0.285,3.208-0.85c0.857-0.529,1.611-1.486,2.268-3.076L188.045,76h0.906c-0.189,3-0.318,5.754-0.393,8.385
	c-0.075,2.637-0.007,5.041,0.189,7.311c0.507,5.798,1.596,10.181,3.271,13.185c1.677,3.019,3.549,4.513,5.622,4.513
	c2.076,0,4.029-0.308,5.862-0.918c0.7-0.189,2.464-0.947,5.29-2.279c1.022-0.463,3.393-1.74,7.087-3.818
	c0.309,0.477,0.635,0.934,0.981,1.377c1.334,1.697,2.943,3.064,4.823,4.09c1.88,1.026,4.047,1.535,6.499,1.535
	c1.735,0,3.442-0.293,5.116-0.871c1.67-0.584,3.304-1.363,4.901-2.33c1.596-0.965,3.123-2.104,4.584-3.41
	c1.451-1.305,2.818-2.678,4.09-4.133c1.13,2.34,2.384,4.207,3.76,5.621c1.381,1.406,2.727,2.479,4.044,3.229
	c1.32,0.74,2.521,1.229,3.605,1.476c1.081,0.244,1.89,0.358,2.431,0.358c0.919,0,1.913-0.17,2.988-0.502
	c1.074-0.348,2.17-0.795,3.292-1.332c1.123-0.551,2.252-1.17,3.399-1.877c1.145-0.698,2.23-1.412,3.26-2.141
	c1.844-1.303,3.693-2.736,5.555-4.311c0.671,1.041,1.396,2.037,2.207,2.959c1.951,2.215,4.309,3.982,7.061,5.293
	c2.754,1.318,5.896,1.971,9.414,1.971c2.262,0,4.479-0.26,6.635-0.795c2.163-0.523,4.231-1.225,6.208-2.1
	c1.979-0.877,3.854-1.883,5.625-3.021c1.765-1.135,3.405-2.28,4.929-3.448c0.063-0.052,0.125-0.105,0.188-0.156
	c0.351,1.5,0.816,2.912,1.416,4.229c0.77,1.707,1.851,3.121,3.231,4.24c1.383,1.114,3.242,1.672,5.574,1.672
	c1.211,0,2.493-0.617,3.844-1.849c1.353-1.229,2.688-2.813,4.013-4.741c1.318-1.931,2.572-4.099,3.763-6.484
	c1.188-2.385,2.229-4.715,3.12-6.989c0.162,1.438,0.615,2.828,1.354,4.151c0.735,1.324,1.711,2.515,2.914,3.58
	c1.203,1.062,2.637,1.901,4.293,2.526s3.506,0.938,5.537,0.938c2.414,0,4.906-0.477,7.482-1.42c0.784-0.289,1.557-0.614,2.318-0.965
	c0.737,1.194,1.557,2.322,2.476,3.362c1.953,2.216,4.309,3.98,7.063,5.294c2.755,1.317,5.892,1.971,9.414,1.971
	c2.265,0,4.476-0.26,6.64-0.795c2.156-0.522,4.227-1.226,6.206-2.101c1.979-0.877,3.852-1.883,5.618-3.02
	c1.618-1.037,3.119-2.09,4.53-3.156c0.087,0.535,0.172,1.07,0.278,1.596c0.29,1.421,0.743,2.689,1.351,3.806
	c0.604,1.121,1.409,2.012,2.41,2.678c1.001,0.658,2.271,0.992,3.814,0.992c0.681,0,1.295-0.123,1.836-0.367
	c0.544-0.243,1.034-0.674,1.476-1.276c0.436-0.611,0.849-1.394,1.235-2.363c0.387-0.965,0.777-2.354,1.182-3.832L433.521,73h0.897
	c0.514,3,1.115,4.91,1.806,7.246c0.655,2.207,1.553,4.277,2.646,6.078C443.206,92.371,455.938,84.268,446.738,76.67z M129.57,82.303
	c-0.073-0.813-0.121-1.801-0.146-2.949c-0.023-1.147,0.2-2.606,0.666-4.391c0.473-1.771,0.893-3.268,1.261-4.471
	c0.369-1.209,0.896-2.283,1.592-3.227c0.693-0.945,1.593-1.714,2.694-2.306c1.103-0.599,2.464-0.892,4.094-0.892
	c0.909,0,1.725,0.537,2.44,1.609c0.717,1.074,1.148,2.445,1.295,4.119c0.104,1.182-0.426,2.678-1.596,4.498
	c-1.166,1.813-2.391,3.254-3.682,4.334c-1.288,1.074-2.708,1.951-4.256,2.645C132.387,81.957,130.93,82.303,129.57,82.303z
	 M239.3,91.396c-0.399,0.678-0.842,1.321-1.336,1.94c-0.493,0.619-1.019,1.179-1.577,1.664c-0.568,0.49-1.164,0.885-1.8,1.185
	c-0.629,0.307-1.288,0.457-1.967,0.457c-1.317,0-2.407-0.15-3.263-0.443c-0.855-0.299-1.531-0.686-2.024-1.162
	c-0.494-0.475-0.853-1.006-1.067-1.604c-0.225-0.584-0.357-1.185-0.412-1.773c-0.166-1.916-0.015-4.049,0.459-6.414
	c0.475-2.371,1.217-5.197,2.23-8.486s2.402-5.934,4.172-7.938c1.764-2.006,3.844-3.621,6.223-4.846
	c0.035-0.033,0.105,0.34,0.213,1.146c0.108,0.797,0.229,1.83,0.355,3.092c0.128,1.267,0.28,2.658,0.449,4.188
	c0.176,1.529,0.382,3.486,0.629,5.873c0.243,2.391,0.456,4.17,0.637,5.332c0.176,1.17,0.344,2.012,0.506,2.549
	C241.029,88.105,240.219,89.854,239.3,91.396z M252.945,67.014l-0.051-0.576c-0.047-0.578-0.121-1.399-0.217-2.475
	c-0.092-1.08-0.184-2.338-0.265-3.777c-0.088-1.44-0.147-3.03-0.202-4.777c-0.048-1.746-0.072-3.561-0.07-5.449
	c0.004-0.917,0.004-2.474,0.014-4.662c0.004-2.193,0.055-4.647,0.148-7.372c0.092-2.732,0.367-5.518,0.831-8.366
	c0.464-2.84,0.894-5.477,1.288-7.902c0.396-2.413,1.021-4.397,1.887-5.932c0.864-1.536,1.905-2.304,3.137-2.304
	c0.689,0,1.252,0.4,1.685,1.195c0.433,0.795,0.74,2.215,0.916,4.268c0.14,1.556,0.203,3.656,0.2,6.313
	c-0.021,2.011-0.18,4.131-0.475,6.373c-0.293,2.229-0.695,4.493-1.203,6.775c-0.508,2.276-1.021,4.58-1.541,6.898
	c-0.514,2.316-1.051,4.552-1.596,6.686C256.098,56.938,254.605,61.965,252.945,67.014z M287.984,82.303
	c-0.068-0.813-0.115-1.801-0.145-2.949c-0.025-1.147,0.199-2.606,0.671-4.391c0.47-1.771,0.886-3.268,1.257-4.471
	c0.364-1.209,0.898-2.283,1.59-3.227c0.694-0.945,1.596-1.714,2.697-2.306c1.103-0.599,2.469-0.892,4.094-0.892
	c0.91,0,1.721,0.537,2.438,1.609c0.725,1.074,1.152,2.445,1.299,4.119c0.102,1.182-0.427,2.678-1.596,4.498
	c-1.17,1.813-2.395,3.254-3.686,4.334c-1.285,1.074-2.705,1.951-4.252,2.645C290.805,81.957,289.35,82.303,287.984,82.303z
	 M379.38,82.303c-0.07-0.813-0.118-1.801-0.142-2.949c-0.024-1.147,0.194-2.606,0.666-4.391c0.473-1.771,0.889-3.268,1.258-4.471
	c0.368-1.209,0.896-2.283,1.595-3.227c0.69-0.945,1.589-1.714,2.694-2.306c1.103-0.599,2.465-0.892,4.094-0.892
	c0.906,0,1.721,0.537,2.44,1.609c0.717,1.074,1.147,2.445,1.292,4.119c0.105,1.182-0.428,2.678-1.595,4.498
	c-1.166,1.813-2.396,3.254-3.681,4.334c-1.292,1.074-2.708,1.951-4.256,2.645C382.196,81.957,380.742,82.303,379.38,82.303z"/>
</svg>
