<?xml version="1.0" encoding="utf-8"?>
<!-- Generator: Adobe Illustrator 16.0.0, SVG Export Plug-In . SVG Version: 6.00 Build 0)  -->
<!DOCTYPE svg PUBLIC "-//W3C//DTD SVG 1.1//EN" "http://www.w3.org/Graphics/SVG/1.1/DTD/svg11.dtd">
<svg version="1.1" id="Layer_1" xmlns="http://www.w3.org/2000/svg" xmlns:xlink="http://www.w3.org/1999/xlink" x="0px" y="0px"
	 width="150px" height="32px" viewBox="0 0 150 32" enable-background="new 0 0 150 32" xml:space="preserve">
<g>
	<g>
		<path fill="#EE3959" d="M141.896,0c-4.477,0-8.104,3.625-8.104,8.096c0,2.318,0.976,4.407,2.538,5.882
			c-0.258,0.411-0.564,0.773-0.891,1.069c-0.482,0.44-1.028,0.774-1.623,1.014c0.437,0.043,0.813,0.074,1.176,0.074
			c0.576,0,1.121-0.075,1.828-0.288c0.49-0.147,0.951-0.332,1.383-0.543c1.107,0.568,2.361,0.89,3.691,0.89
			c4.477,0,8.104-3.625,8.104-8.098C150,3.624,146.372,0,141.896,0z"/>
		<ellipse fill="#FBD050" cx="141.896" cy="8.214" rx="7.085" ry="7.085"/>
		<path fill="#5FA76E" d="M141.896,14.287c-3.353,0-6.078-2.724-6.078-6.072c0-3.35,2.727-6.073,6.078-6.073
			c3.353,0,6.078,2.723,6.078,6.073C147.975,11.563,145.249,14.287,141.896,14.287z"/>
		<path fill="#608AC7" d="M141.896,13.275c-2.793,0-5.064-2.271-5.064-5.061c0-2.791,2.271-5.061,5.064-5.061
			s5.063,2.271,5.063,5.061C146.961,11.003,144.689,13.275,141.896,13.275z"/>
		<path fill="#EE3959" d="M141.896,12.262c-2.233,0-4.053-1.815-4.053-4.048s1.818-4.048,4.053-4.048
			c2.233,0,4.052,1.815,4.052,4.048S144.13,12.262,141.896,12.262z"/>
		<path fill="#FBD050" d="M141.896,11.25c-1.676,0-3.039-1.363-3.039-3.036c0-1.674,1.363-3.037,3.039-3.037
			s3.039,1.362,3.039,3.037C144.936,9.887,143.572,11.25,141.896,11.25z"/>
		<circle fill="#5FA76E" cx="141.896" cy="8.213" r="2.024"/>
		<circle fill="#608AC7" cx="141.896" cy="8.214" r="1.012"/>
	</g>
	<path fill="#FFFFFF" d="M23.673,4.187c1.111,0.146,2.177,0.279,3.198,0.397c1.02,0.116,1.986,0.176,2.898,0.176
		c0.26,0,0.492-0.062,0.697-0.187c0.202-0.123,0.365-0.291,0.487-0.5c0.12-0.209,0.201-0.439,0.241-0.688
		c0.041-0.247,0.026-0.504-0.044-0.765c-0.094-0.351-0.296-0.668-0.604-0.955c-0.308-0.286-0.76-0.483-1.358-0.593
		c-2.561-0.405-4.99-0.686-7.288-0.84C19.601,0.077,17.42,0,15.359,0c-1.534,0-3.012,0.035-4.434,0.1
		C9.504,0.167,8.19,0.293,6.981,0.483C5.774,0.672,4.69,0.937,3.731,1.275c-0.957,0.339-1.74,0.767-2.35,1.289
		c-0.61,0.521-1.022,1.155-1.236,1.894c-0.216,0.741-0.19,1.609,0.078,2.605c0.136,0.429,0.349,0.809,0.641,1.138
		c0.244,0.285,0.581,0.546,1.014,0.783C2.31,9.221,2.863,9.34,3.533,9.34c0.671,0,1.155-0.12,1.454-0.362
		C5.286,8.736,5.48,8.469,5.57,8.179c0.09-0.291,0.115-0.56,0.077-0.809C5.608,7.121,5.585,6.984,5.58,6.961
		C5.453,6.49,5.474,6.08,5.644,5.732c0.171-0.344,0.451-0.643,0.835-0.891C6.864,4.594,7.31,4.388,7.817,4.228
		c0.504-0.161,1.046-0.294,1.628-0.4c0.582-0.105,1.187-0.188,1.816-0.251c0.628-0.061,1.251-0.117,1.866-0.166
		c-0.101,2.317-0.46,5.292-0.537,7.184c-0.05,1.249-0.099,1.5-0.2,3.75c-0.067,1.524-0.099,2.05-0.15,3.549
		c-0.083,2.502-0.161,3.654-0.149,4.301c0.022,1.143-0.059,2.676-0.039,3.721c0.02,1.047,0.041,2.093,0.06,3.135
		c0.001,0.274,0.037,0.676,0.098,0.902c0.19,0.71,0.567,1.148,1.108,1.468c0.393,0.229,0.975,0.427,1.601,0.376
		c0.232-0.018,0.634-0.081,0.875-0.199c0.35-0.177,0.51-0.307,0.706-0.541c0.295-0.359,0.337-0.533,0.451-0.865
		c0.114-0.33,0.176-0.924,0.168-1.32c-0.007-0.882-0.023-1.704-0.032-2.93c-0.01-1.225-0.019-2.563-0.031-4.012
		c-0.011-1.449-0.022-2.963-0.036-4.545c-0.011-1.58,0.038-2.654,0.025-4.239c-0.013-1.585-0.067-3.24-0.101-4.75
		c-0.05-2.15-0.114-3.445-0.312-4.983c1.228,0.073,2.431,0.184,3.608,0.33C21.416,3.891,22.561,4.039,23.673,4.187z M130.723,22.305
		c-0.004-0.011-0.008-0.019-0.014-0.025c-0.102-0.268-0.168-0.596-0.201-0.99c-0.021-0.232-0.02-0.521,0.008-0.866
		c0.023-0.35,0.073-0.793,0.148-1.335c0.07-0.539,0.124-0.979,0.148-1.313c0.024-0.338,0.028-0.6,0.016-0.784
		c-0.021-0.245-0.085-0.462-0.189-0.653c-0.105-0.191-0.238-0.356-0.398-0.488c-0.161-0.131-0.346-0.232-0.551-0.307
		c-0.203-0.071-0.41-0.106-0.621-0.106c-0.607,0-1.125,0.163-1.562,0.488c-0.435,0.324-0.813,0.726-1.137,1.199
		c-0.322,0.476-0.616,1.069-0.888,1.788c-0.267,0.715-0.492,1.295-0.674,1.734h-0.183c-0.073-0.562-0.112-1.217-0.123-1.967
		c-0.013-0.75-0.033-1.328-0.067-1.736c-0.029-0.342-0.063-0.611-0.099-0.81c-0.032-0.199-0.093-0.352-0.181-0.454
		c-0.088-0.106-0.213-0.172-0.371-0.2c-0.164-0.027-0.389-0.042-0.676-0.042c-0.252,0-0.465,0.015-0.635,0.042
		c-0.168,0.028-0.308,0.082-0.416,0.165c-0.106,0.083-0.197,0.195-0.272,0.34c-0.077,0.145-0.147,0.335-0.216,0.58
		c-0.109,0.36-0.215,0.826-0.311,1.391c-0.093,0.563-0.203,1.262-0.326,2.105c-0.125,0.842-0.22,1.637-0.279,2.381
		c-0.063,0.746-0.107,1.477-0.139,2.192c-0.005,0.098-0.002,0.183-0.006,0.279c-0.213,0.187-0.434,0.375-0.68,0.569
		c-0.575,0.457-1.196,0.882-1.857,1.27c-0.66,0.389-1.346,0.713-2.056,0.969c-0.712,0.262-1.399,0.391-2.06,0.391
		c-0.213,0-0.41-0.018-0.599-0.064c-0.185-0.041-0.364-0.117-0.542-0.227c-0.174-0.104-0.351-0.26-0.529-0.45
		c-0.178-0.196-0.362-0.438-0.554-0.729c0.94-0.26,1.802-0.619,2.584-1.082c0.784-0.466,1.447-0.992,1.991-1.586
		c0.546-0.593,1.007-1.305,1.383-2.134c0.374-0.829,0.535-1.58,0.473-2.248c-0.056-0.625-0.213-1.194-0.479-1.702
		c-0.264-0.504-0.611-0.937-1.035-1.293c-0.423-0.358-0.906-0.638-1.455-0.835c-0.548-0.197-1.132-0.297-1.748-0.297
		c-0.759,0-1.435,0.134-2.033,0.401c-0.596,0.265-1.125,0.623-1.584,1.076c-0.461,0.449-0.852,0.972-1.172,1.565
		c-0.322,0.593-0.576,1.218-0.767,1.87s-0.365,1.398-0.521,2.245c-0.155,0.844-0.207,1.567-0.153,2.177
		c0.017,0.194,0.063,0.379,0.09,0.569c-0.065,0.028-0.121,0.066-0.188,0.094c-0.42,0.17-0.795,0.255-1.127,0.255
		c-0.451,0-0.826-0.061-1.123-0.183c-0.299-0.121-0.537-0.284-0.724-0.487c-0.179-0.203-0.317-0.434-0.405-0.688
		s-0.146-0.51-0.166-0.776c-0.026-0.253-0.029-0.5-0.009-0.737c0.019-0.236,0.048-0.449,0.085-0.637
		c0.047-0.209,0.098-0.412,0.146-0.611c0.05-0.188,0.268-0.875,0.662-2.066c0.053-0.156,0.201-0.514,0.437-1.075
		c0.106-0.263,0.19-0.565,0.251-0.907c0.064-0.275,0.083-0.568,0.057-0.878c-0.035-0.407-0.26-0.741-0.666-0.998
		c-0.412-0.261-0.934-0.39-1.573-0.39c-0.242,0-0.47,0.033-0.679,0.1c-0.211,0.065-0.398,0.151-0.567,0.255
		c-0.168,0.104-0.298,0.229-0.397,0.371c-0.098,0.144-0.156,0.293-0.176,0.449l-3.552,11.028l-0.112,0.018L96.734,16.54
		c-0.036-0.285-0.137-0.538-0.31-0.762c-0.175-0.22-0.403-0.33-0.683-0.33h-0.18l-0.153,0.033l-2.082,0.315
		c-0.369,0.056-0.582,0.4-0.64,1.033c-0.059,0.632-0.021,1.685,0.107,3.151c0.038,0.439,0.081,0.869,0.129,1.289
		c0.049,0.418,0.108,0.873,0.18,1.371c0.069,0.495,0.148,1.049,0.235,1.661c0.038,0.267,0.079,0.562,0.121,0.868
		c-0.125,0.104-0.238,0.206-0.373,0.313c-0.576,0.457-1.198,0.882-1.858,1.27c-0.66,0.389-1.347,0.713-2.059,0.969
		c-0.709,0.262-1.396,0.391-2.059,0.391c-0.211,0-0.409-0.018-0.596-0.064c-0.186-0.041-0.367-0.117-0.543-0.227
		c-0.174-0.104-0.35-0.258-0.529-0.45c-0.178-0.196-0.362-0.438-0.553-0.729c0.938-0.26,1.801-0.619,2.584-1.082
		c0.783-0.466,1.448-0.992,1.992-1.586c0.545-0.593,1.004-1.305,1.381-2.134c0.373-0.829,0.534-1.58,0.476-2.248
		c-0.056-0.625-0.216-1.194-0.481-1.702c-0.266-0.504-0.611-0.937-1.033-1.293c-0.423-0.358-0.91-0.638-1.457-0.835
		c-0.547-0.197-1.131-0.297-1.748-0.297c-0.758,0-1.434,0.134-2.031,0.401c-0.596,0.265-1.125,0.623-1.586,1.076
		c-0.459,0.449-0.851,0.972-1.17,1.565c-0.322,0.593-0.578,1.218-0.768,1.87s-0.365,1.398-0.52,2.245
		c-0.155,0.844-0.209,1.567-0.153,2.177c0.028,0.327,0.092,0.643,0.151,0.959c-0.287,0.245-0.57,0.478-0.848,0.693
		c-0.248,0.191-0.505,0.375-0.771,0.558c-0.265,0.185-0.529,0.349-0.792,0.491c-0.266,0.146-0.516,0.26-0.756,0.346
		c-0.241,0.082-0.467,0.123-0.676,0.123c-0.215,0-0.402-0.066-0.559-0.199c-0.159-0.135-0.289-0.313-0.395-0.543
		c-0.106-0.229-0.19-0.49-0.254-0.778c-0.063-0.29-0.108-0.597-0.137-0.921c-0.023-0.256-0.029-0.52-0.019-0.793
		c0.011-0.274,0.031-0.543,0.06-0.803c0.029-0.262,0.062-0.505,0.1-0.729c0.04-0.225,0.079-0.415,0.124-0.567
		c0.201-0.716,0.696-2.071,1.485-4.065c0.517-1.303,0.941-2.622,1.271-3.953c0.33-1.332,0.666-2.68,1.002-4.044
		c0.338-1.363,0.453-2.837,0.348-4.42c-0.033-0.415-0.063-0.817-0.1-1.211c-0.055-0.63-0.16-1.241-0.309-1.832
		C79.154,2.521,78.945,2,78.675,1.553c-0.264-0.445-0.591-0.806-0.979-1.076c-0.387-0.271-0.84-0.405-1.36-0.405
		c-0.708,0-1.377,0.219-2.005,0.654c-0.627,0.436-1.2,1.04-1.721,1.811s-0.982,1.686-1.383,2.744
		c-0.403,1.059-0.704,2.216-0.907,3.473c-0.202,1.257-0.391,2.431-0.567,3.522c-0.175,1.091-0.217,2.354-0.124,3.786
		c-0.832,0.079-1.604,0.274-2.316,0.588c-0.712,0.313-1.391,0.777-2.038,1.393c-0.646,0.614-1.15,1.298-1.508,2.047
		c-0.359,0.748-0.682,1.469-0.97,2.157s-0.489,1.397-0.608,2.131c-0.116,0.731-0.146,1.454-0.083,2.172
		c0.005,0.055,0.019,0.107,0.025,0.162c-0.379,0.251-0.582,0.374-0.608,0.364c-0.022-0.01-0.26,0.173-0.712,0.545
		c-0.092,0.1-0.312,0.216-0.665,0.35c-0.233,0.098-0.418,0.146-0.55,0.146c-0.364,0-0.651-0.219-0.86-0.659
		c-0.211-0.44-0.344-1.002-0.404-1.688c-0.035-0.405-0.049-0.853-0.043-1.336c0.008-0.485,0.028-0.978,0.063-1.474
		c0.032-0.497,0.069-1.056,0.108-1.687s0.079-1.141,0.122-1.539c0.042-0.397,0.078-0.737,0.101-1.026
		c0.025-0.286,0.032-0.49,0.021-0.612c-0.072-0.814-0.29-1.457-0.656-1.917c-0.367-0.463-0.824-0.694-1.377-0.694
		c-0.551,0-1.043,0.11-1.476,0.329c-0.434,0.223-0.801,0.629-1.101,1.227c-0.066,0.13-0.164,0.334-0.295,0.61
		c-0.13,0.273-0.274,0.592-0.429,0.951c-0.156,0.355-0.323,0.729-0.506,1.121c-0.18,0.394-0.342,0.842-0.485,1.348
		c-0.145,0.508-0.275,0.896-0.396,1.169c-0.118,0.269-0.207,0.464-0.263,0.584h-0.33c-0.008-0.077-0.005-0.226,0.01-0.454
		c0.012-0.227,0.024-0.569,0.033-1.023c0.01-0.459,0.026-0.869,0.052-1.228c0.023-0.354,0.044-0.704,0.065-1.041
		c0.02-0.335,0.034-0.646,0.042-0.925c0.009-0.279,0.006-0.504-0.009-0.67c-0.053-0.605-0.211-1.09-0.475-1.456
		c-0.263-0.363-0.692-0.546-1.288-0.546c-0.598,0-1.054,0.172-1.371,0.513c-0.317,0.341-0.515,0.766-0.592,1.273
		c-0.097,0.647-0.189,1.433-0.274,2.348c-0.085,0.912-0.145,1.943-0.176,3.084c-0.024,0.805-0.038,1.546-0.047,2.258
		c-0.199,0.172-0.399,0.346-0.627,0.525c-0.577,0.457-1.197,0.882-1.859,1.27c-0.661,0.389-1.348,0.713-2.057,0.969
		c-0.713,0.262-1.4,0.391-2.06,0.391c-0.212,0-0.409-0.018-0.596-0.064c-0.185-0.041-0.367-0.117-0.544-0.227
		c-0.174-0.104-0.351-0.26-0.528-0.45c-0.178-0.196-0.364-0.438-0.555-0.729c0.94-0.26,1.8-0.619,2.584-1.082
		c0.784-0.466,1.447-0.992,1.993-1.586c0.544-0.593,1.004-1.305,1.379-2.134s0.535-1.58,0.477-2.248
		c-0.056-0.625-0.217-1.194-0.482-1.702c-0.265-0.504-0.611-0.937-1.033-1.293c-0.423-0.358-0.909-0.638-1.457-0.835
		c-0.546-0.197-1.13-0.297-1.749-0.297c-0.757,0-1.436,0.135-2.031,0.401c-0.595,0.265-1.124,0.623-1.583,1.076
		c-0.461,0.449-0.852,0.972-1.172,1.565c-0.323,0.593-0.577,1.218-0.767,1.87s-0.364,1.398-0.519,2.245
		c-0.012,0.065-0.014,0.118-0.024,0.182c-0.144,0.071-0.283,0.144-0.436,0.21c-0.509,0.219-1.012,0.33-1.509,0.33
		c-0.178,0-0.348-0.033-0.515-0.099c-0.165-0.068-0.318-0.181-0.459-0.341c-0.14-0.158-0.261-0.372-0.361-0.637
		c-0.101-0.265-0.169-0.596-0.204-0.992c-0.02-0.229-0.018-0.518,0.008-0.865c0.022-0.346,0.073-0.791,0.147-1.333
		c0.073-0.54,0.122-0.979,0.15-1.312c0.024-0.339,0.03-0.598,0.013-0.785c-0.021-0.244-0.084-0.461-0.189-0.652
		c-0.107-0.191-0.239-0.355-0.4-0.488c-0.16-0.133-0.342-0.233-0.548-0.306c-0.204-0.071-0.413-0.106-0.621-0.106
		c-0.608,0-1.127,0.162-1.563,0.488c-0.435,0.325-0.813,0.725-1.135,1.198c-0.325,0.476-0.619,1.071-0.888,1.788
		c-0.268,0.715-0.493,1.293-0.675,1.736h-0.182c-0.072-0.561-0.113-1.219-0.124-1.97c-0.009-0.748-0.033-1.326-0.069-1.735
		c-0.03-0.34-0.062-0.614-0.095-0.809c-0.033-0.2-0.094-0.352-0.181-0.455c-0.086-0.106-0.211-0.172-0.373-0.199
		c-0.161-0.028-0.386-0.042-0.673-0.042c-0.254,0-0.465,0.015-0.634,0.042c-0.168,0.027-0.307,0.081-0.415,0.164
		c-0.108,0.083-0.2,0.195-0.276,0.34c-0.075,0.144-0.147,0.336-0.214,0.58c-0.113,0.361-0.216,0.825-0.309,1.389
		c-0.094,0.563-0.203,1.263-0.328,2.107c-0.125,0.842-0.218,1.639-0.28,2.383c-0.062,0.742-0.108,1.475-0.139,2.191
		c-0.031,0.717-0.046,1.395-0.044,2.041c0,0.646,0.022,1.212,0.065,1.697c0.038,0.439,0.101,0.867,0.185,1.273
		c0.086,0.412,0.218,0.783,0.396,1.108c0.176,0.328,0.412,0.586,0.704,0.778c0.293,0.19,0.665,0.289,1.118,0.289
		c0.199,0,0.378-0.037,0.537-0.105c0.159-0.07,0.303-0.195,0.43-0.372c0.129-0.178,0.25-0.407,0.362-0.688
		c0.115-0.281,0.229-0.638,0.347-1.066l2.239-8.25h0.265c0.149,0.693,0.325,1.377,0.528,2.059c0.203,0.674,0.477,1.287,0.823,1.836
		c0.345,0.541,0.787,0.985,1.324,1.319c0.538,0.338,1.221,0.504,2.047,0.504c0.464,0,0.913-0.065,1.349-0.205
		c0.339-0.106,0.657-0.252,0.972-0.4c0.092,0.347,0.188,0.692,0.319,1.026c0.331,0.848,0.783,1.592,1.355,2.237
		c0.57,0.642,1.26,1.157,2.066,1.538c0.806,0.384,1.724,0.574,2.754,0.574c0.663,0,1.311-0.075,1.944-0.234
		c0.632-0.152,1.237-0.357,1.816-0.611c0.578-0.256,1.127-0.549,1.645-0.879c0.478-0.304,0.918-0.613,1.335-0.928
		c0.025,0.16,0.038,0.326,0.069,0.482c0.086,0.412,0.218,0.783,0.396,1.107c0.176,0.327,0.411,0.586,0.705,0.779
		c0.293,0.189,0.664,0.288,1.116,0.288c0.366,0,0.679-0.083,0.94-0.246c0.251-0.154,0.473-0.466,0.664-0.929l3.582-8.599h0.265
		c-0.053,0.882-0.092,1.705-0.113,2.47c-0.021,0.768-0.003,1.484,0.055,2.144c0.148,1.687,0.467,2.97,0.958,3.844
		c0.49,0.877,1.039,1.316,1.646,1.316s1.179-0.087,1.715-0.267c0.203-0.054,0.719-0.272,1.546-0.66
		c0.299-0.136,1.012-0.519,2.091-1.122c0.09,0.137,0.17,0.282,0.271,0.409c0.391,0.494,0.861,0.893,1.412,1.19
		c0.55,0.299,1.184,0.446,1.9,0.446c0.509,0,1.01-0.086,1.498-0.254c0.489-0.17,0.968-0.399,1.435-0.678
		c0.467-0.279,0.914-0.611,1.341-0.992c0.426-0.379,0.825-0.779,1.197-1.203c0.332,0.682,0.699,1.225,1.101,1.636
		c0.403,0.411,0.798,0.722,1.184,0.938c0.387,0.215,0.739,0.359,1.056,0.43c0.315,0.072,0.554,0.104,0.709,0.104
		c0.269,0,0.56-0.05,0.874-0.147c0.314-0.102,0.636-0.232,0.963-0.389c0.328-0.16,0.659-0.339,0.994-0.545
		c0.336-0.203,0.65-0.41,0.955-0.623c0.54-0.377,1.082-0.809,1.627-1.267c0.197,0.307,0.404,0.604,0.645,0.875
		c0.569,0.642,1.258,1.157,2.065,1.538c0.806,0.384,1.724,0.574,2.756,0.574c0.661,0,1.31-0.075,1.94-0.234
		c0.631-0.152,1.236-0.357,1.816-0.611c0.577-0.256,1.125-0.549,1.645-0.879c0.516-0.328,0.998-0.662,1.441-1.003
		c0.023-0.019,0.044-0.04,0.067-0.059c0.102,0.441,0.229,0.862,0.407,1.249c0.225,0.496,0.541,0.906,0.947,1.234
		C95.837,31.838,96.383,32,97.066,32c0.352,0,0.729-0.18,1.125-0.538c0.396-0.358,0.785-0.817,1.172-1.379
		c0.39-0.56,0.755-1.19,1.104-1.886c0.346-0.694,0.65-1.373,0.912-2.033c0.047,0.418,0.18,0.82,0.398,1.207
		c0.215,0.386,0.496,0.729,0.851,1.041c0.353,0.307,0.771,0.552,1.256,0.736c0.486,0.181,1.026,0.271,1.622,0.271
		c0.706,0,1.436-0.137,2.189-0.412c0.228-0.083,0.446-0.191,0.668-0.292c0.217,0.352,0.457,0.685,0.729,0.99
		c0.57,0.642,1.26,1.157,2.067,1.538c0.806,0.384,1.725,0.574,2.754,0.574c0.662,0,1.31-0.075,1.942-0.234
		c0.631-0.152,1.237-0.357,1.815-0.611c0.581-0.256,1.128-0.549,1.644-0.879c0.48-0.303,0.923-0.611,1.337-0.924
		c0.025,0.16,0.038,0.328,0.071,0.484c0.084,0.412,0.217,0.783,0.394,1.107c0.179,0.326,0.413,0.584,0.706,0.779
		c0.293,0.191,0.664,0.289,1.117,0.289c0.197,0,0.379-0.036,0.537-0.105c0.157-0.07,0.303-0.195,0.432-0.371
		c0.127-0.18,0.246-0.404,0.361-0.688c0.111-0.28,0.229-0.638,0.344-1.065l2.242-8.252h0.264v-0.013h0.001v-0.001
		c0.149,0.695,0.325,1.379,0.526,2.061c0.192,0.642,0.453,1.22,0.775,1.741C129.691,26.896,133.416,24.516,130.723,22.305z
		 M37.916,23.941c-0.022-0.235-0.036-0.522-0.039-0.858c-0.009-0.335,0.056-0.758,0.194-1.276c0.136-0.517,0.26-0.951,0.368-1.302
		c0.106-0.351,0.262-0.665,0.465-0.938c0.204-0.274,0.467-0.498,0.789-0.67c0.323-0.174,0.721-0.26,1.197-0.26
		c0.267,0,0.505,0.155,0.714,0.469c0.211,0.313,0.337,0.713,0.38,1.197c0.03,0.346-0.124,0.78-0.467,1.309
		c-0.342,0.529-0.7,0.949-1.078,1.263c-0.377,0.313-0.792,0.567-1.245,0.771C38.74,23.841,38.314,23.941,37.916,23.941z
		 M70.022,26.586c-0.117,0.2-0.245,0.385-0.39,0.568c-0.145,0.179-0.299,0.34-0.463,0.482c-0.167,0.143-0.34,0.258-0.526,0.346
		c-0.184,0.088-0.377,0.132-0.576,0.132c-0.386,0-0.704-0.044-0.954-0.128c-0.251-0.088-0.447-0.2-0.593-0.34
		c-0.145-0.139-0.249-0.291-0.313-0.465c-0.064-0.171-0.104-0.345-0.12-0.518c-0.048-0.557-0.004-1.178,0.135-1.865
		c0.138-0.691,0.356-1.513,0.653-2.469c0.297-0.957,0.704-1.727,1.221-2.309c0.517-0.584,1.125-1.055,1.822-1.41
		c0.011-0.01,0.032,0.099,0.059,0.334c0.032,0.232,0.067,0.533,0.105,0.9c0.037,0.367,0.081,0.771,0.131,1.217
		c0.051,0.445,0.113,1.014,0.184,1.709c0.072,0.695,0.135,1.211,0.187,1.553c0.05,0.338,0.101,0.583,0.148,0.738
		C70.528,25.632,70.292,26.141,70.022,26.586z M74.019,19.494l-0.015-0.169c-0.014-0.168-0.037-0.406-0.064-0.72
		c-0.025-0.315-0.052-0.682-0.077-1.099c-0.025-0.42-0.044-0.883-0.06-1.39c-0.015-0.507-0.023-1.035-0.021-1.585
		c0-0.267,0.001-0.719,0.004-1.356c0.002-0.638,0.017-1.352,0.044-2.145c0.025-0.794,0.106-1.605,0.243-2.433
		c0.134-0.825,0.261-1.593,0.376-2.298C74.565,5.599,74.75,5.021,75,4.575c0.253-0.446,0.559-0.67,0.918-0.67
		c0.201,0,0.365,0.117,0.491,0.348c0.129,0.232,0.218,0.645,0.271,1.242c0.039,0.452,0.061,1.062,0.059,1.835
		c-0.006,0.586-0.051,1.202-0.137,1.854c-0.086,0.648-0.207,1.306-0.354,1.97c-0.148,0.662-0.299,1.332-0.45,2.006
		c-0.151,0.674-0.307,1.324-0.467,1.945C74.94,16.563,74.504,18.023,74.019,19.494z M84.27,23.941
		c-0.02-0.235-0.033-0.522-0.043-0.858c-0.006-0.335,0.06-0.758,0.195-1.276c0.139-0.517,0.26-0.951,0.368-1.302
		s0.263-0.665,0.466-0.938c0.204-0.274,0.467-0.498,0.787-0.67c0.324-0.174,0.723-0.26,1.2-0.26c0.266,0,0.503,0.155,0.713,0.469
		c0.211,0.313,0.338,0.713,0.379,1.197c0.028,0.346-0.125,0.78-0.466,1.309c-0.34,0.529-0.698,0.949-1.076,1.263
		s-0.791,0.567-1.245,0.771C85.093,23.841,84.669,23.941,84.27,23.941z M111.016,23.941c-0.021-0.235-0.035-0.522-0.039-0.858
		c-0.009-0.335,0.056-0.758,0.193-1.276c0.137-0.517,0.262-0.951,0.366-1.302c0.108-0.351,0.265-0.665,0.468-0.938
		c0.201-0.274,0.465-0.498,0.788-0.67c0.324-0.174,0.72-0.26,1.198-0.26c0.266,0,0.505,0.155,0.714,0.469
		c0.209,0.313,0.336,0.713,0.377,1.197c0.032,0.346-0.123,0.78-0.465,1.309c-0.341,0.529-0.7,0.949-1.077,1.263
		c-0.379,0.313-0.792,0.567-1.245,0.771C111.84,23.841,111.415,23.941,111.016,23.941z"/>
</g>
</svg>
