<svg id="Layer_1" data-name="Layer 1" xmlns="http://www.w3.org/2000/svg" viewBox="0 0 30 29.92"><defs><style>.cls-1{fill:#fff;}</style></defs><title>checked</title><path class="cls-1" d="M517,2377.09H498a5.46,5.46,0,0,0-5.46,5.46v19A5.46,5.46,0,0,0,498,2407H517a5.46,5.46,0,0,0,5.46-5.46v-19a5.46,5.46,0,0,0-5.46-5.46h0Zm0.18,12.41-10.32,10.32a2.33,2.33,0,0,1-3.3,0l-5.11-5.11a2.33,2.33,0,1,1,3.3-3.3l3,3a0.59,0.59,0,0,0,.83,0l8.25-8.25a2.33,2.33,0,0,1,3.3,3.3h0Zm0,0" transform="translate(-492.49 -2377.09)"/></svg>