<?xml version="1.0" encoding="UTF-8" standalone="no"?>
<svg width="98px" height="21px" viewBox="0 0 98 21" version="1.1" xmlns="http://www.w3.org/2000/svg" xmlns:xlink="http://www.w3.org/1999/xlink" xmlns:sketch="http://www.bohemiancoding.com/sketch/ns">
    <!-- Generator: Sketch 3.5.2 (25235) - http://www.bohemiancoding.com/sketch -->
    <title>logo-beta</title>
    <desc>Created with Sketch.</desc>
    <defs></defs>
    <g id="Page-1" stroke="none" stroke-width="1" fill="none" fill-rule="evenodd" sketch:type="MSPage">
        <g id="logo-beta" sketch:type="MSLayerGroup" fill="#000000">
            <g id="Group" sketch:type="MSShapeGroup">
                <g transform="translate(87.000000, 0.000000)" id="Shape">
                    <path d="M5.705,0 C2.782,0 0.412,2.378 0.412,5.313 C0.412,6.834 1.049,8.205 2.068,9.173 C1.901,9.442 1.7,9.68 1.485,9.874 C1.172,10.163 0.813,10.383 0.425,10.541 C0.711,10.569 0.957,10.589 1.194,10.589 C1.571,10.589 1.928,10.54 2.39,10.4 C2.71,10.304 3.009,10.182 3.291,10.044 C4.016,10.416 4.834,10.628 5.704,10.628 C8.629,10.628 10.999,8.248 10.999,5.313 C10.999,2.378 8.63,0 5.705,0 L5.705,0 Z"></path>
                </g>
                <g id="Shape">
                    <path d="M0.145,4.635 C-0.029,3.981 -0.046,3.411 0.094,2.925 C0.234,2.441 0.504,2.024 0.902,1.682 C1.3,1.34 1.812,1.059 2.437,0.837 C3.063,0.614 3.771,0.441 4.562,0.316 C5.35,0.191 6.208,0.109 7.137,0.065 C8.067,0.023 9.032,0 10.034,0 C11.381,0 12.805,0.05 14.307,0.152 C15.809,0.254 17.396,0.438 19.069,0.703 C19.458,0.776 19.755,0.905 19.955,1.092 C20.157,1.28 20.288,1.489 20.35,1.719 C20.396,1.891 20.407,2.059 20.378,2.221 C20.353,2.384 20.3,2.535 20.221,2.672 C20.142,2.811 20.034,2.92 19.903,3.001 C19.77,3.083 19.618,3.123 19.45,3.123 C18.853,3.123 18.221,3.084 17.554,3.007 C16.886,2.93 16.191,2.843 15.465,2.747 C14.738,2.649 13.991,2.552 13.223,2.455 C12.453,2.359 11.666,2.286 10.864,2.238 C10.993,3.248 11.035,4.098 11.07,5.509 C11.091,6.501 11.126,7.586 11.134,8.626 C11.142,9.667 11.111,10.371 11.119,11.409 C11.128,12.446 11.134,13.44 11.141,14.391 C11.149,15.342 11.155,16.22 11.162,17.023 C11.169,17.826 11.178,18.367 11.183,18.946 C11.188,19.206 11.148,19.595 11.075,19.814 C10.999,20.03 10.972,20.145 10.779,20.379 C10.651,20.535 10.547,20.62 10.318,20.734 C10.161,20.813 9.897,20.853 9.746,20.866 C9.336,20.898 8.956,20.771 8.699,20.619 C8.348,20.409 8.1,20.12 7.976,19.655 C7.936,19.507 7.913,19.243 7.913,19.063 C7.899,18.378 7.886,17.692 7.873,17.005 C7.861,16.318 7.913,15.313 7.898,14.564 C7.89,14.14 7.941,13.383 7.996,11.742 C8.029,10.757 8.051,10.411 8.094,9.411 C8.16,7.934 8.192,7.769 8.224,6.95 C8.274,5.708 8.508,3.756 8.575,2.235 C8.172,2.271 7.767,2.307 7.355,2.347 C6.944,2.388 6.548,2.443 6.168,2.512 C5.788,2.581 5.435,2.667 5.104,2.774 C4.774,2.879 4.483,3.014 4.233,3.177 C3.981,3.339 3.8,3.534 3.687,3.761 C3.576,3.99 3.563,4.259 3.645,4.568 C3.65,4.584 3.665,4.673 3.689,4.836 C3.714,5 3.698,5.176 3.639,5.366 C3.58,5.557 3.453,5.732 3.258,5.891 C3.063,6.05 2.746,6.129 2.308,6.129 C1.87,6.129 1.509,6.051 1.227,5.895 C0.944,5.74 0.724,5.569 0.563,5.382 C0.374,5.166 0.234,4.917 0.145,4.635 L0.145,4.635 Z"></path>
                    <path d="M13.521,18.613 C13.491,18.295 13.478,17.924 13.478,17.5 C13.477,17.076 13.485,16.631 13.506,16.16 C13.527,15.69 13.557,15.209 13.597,14.722 C13.638,14.234 13.699,13.712 13.78,13.159 C13.861,12.606 13.932,12.145 13.995,11.776 C14.055,11.407 14.122,11.102 14.196,10.864 C14.24,10.704 14.287,10.579 14.336,10.484 C14.385,10.39 14.446,10.315 14.518,10.26 C14.588,10.207 14.679,10.171 14.788,10.154 C14.899,10.135 15.037,10.126 15.202,10.126 C15.39,10.126 15.536,10.135 15.642,10.154 C15.748,10.171 15.829,10.214 15.886,10.284 C15.943,10.352 15.983,10.451 16.006,10.582 C16.027,10.709 16.048,10.889 16.067,11.112 C16.091,11.38 16.107,11.759 16.112,12.251 C16.119,12.744 16.148,13.175 16.194,13.543 L16.312,13.543 C16.432,13.253 16.579,12.874 16.753,12.404 C16.928,11.933 17.121,11.543 17.333,11.231 C17.543,10.921 17.79,10.658 18.075,10.445 C18.36,10.231 18.699,10.124 19.096,10.124 C19.231,10.124 19.367,10.148 19.502,10.195 C19.637,10.242 19.755,10.308 19.859,10.396 C19.964,10.483 20.05,10.59 20.122,10.716 C20.19,10.841 20.231,10.985 20.245,11.146 C20.257,11.268 20.253,11.438 20.237,11.66 C20.219,11.88 20.187,12.168 20.139,12.521 C20.091,12.877 20.058,13.168 20.042,13.396 C20.027,13.623 20.026,13.813 20.037,13.964 C20.061,14.226 20.105,14.441 20.171,14.616 C20.236,14.789 20.316,14.93 20.408,15.033 C20.5,15.138 20.6,15.211 20.707,15.256 C20.815,15.299 20.928,15.321 21.043,15.321 C21.369,15.321 21.697,15.249 22.03,15.105 C22.363,14.959 22.666,14.797 22.939,14.616 C23.259,14.407 23.571,14.168 23.872,13.9 L23.93,16.44 C23.754,16.564 23.554,16.699 23.33,16.852 C23.103,17.005 22.862,17.147 22.604,17.281 C22.344,17.416 22.074,17.528 21.791,17.616 C21.507,17.707 21.213,17.752 20.91,17.752 C20.37,17.752 19.924,17.643 19.572,17.42 C19.222,17.201 18.934,16.91 18.707,16.554 C18.481,16.195 18.304,15.793 18.17,15.349 C18.037,14.903 17.923,14.454 17.825,13.998 L17.651,13.998 L16.188,19.413 C16.111,19.695 16.037,19.928 15.962,20.112 C15.888,20.298 15.81,20.446 15.726,20.564 C15.642,20.68 15.548,20.761 15.444,20.808 C15.34,20.854 15.223,20.877 15.094,20.877 C14.797,20.877 14.554,20.814 14.363,20.687 C14.172,20.561 14.017,20.392 13.904,20.177 C13.787,19.964 13.7,19.721 13.645,19.45 C13.584,19.183 13.543,18.903 13.521,18.613 L13.521,18.613 Z"></path>
                    <path d="M26.665,20.88 C25.992,20.88 25.392,20.756 24.865,20.504 C24.339,20.254 23.888,19.917 23.517,19.494 C23.142,19.072 22.847,18.582 22.63,18.026 C22.414,17.469 22.277,16.886 22.225,16.274 C22.188,15.876 22.224,15.4 22.326,14.846 C22.428,14.292 22.54,13.802 22.665,13.374 C22.79,12.945 22.955,12.535 23.166,12.145 C23.376,11.755 23.631,11.413 23.932,11.118 C24.232,10.821 24.577,10.586 24.966,10.411 C25.355,10.236 25.799,10.149 26.293,10.149 C26.697,10.149 27.079,10.213 27.437,10.344 C27.794,10.473 28.112,10.657 28.388,10.891 C28.663,11.125 28.889,11.41 29.063,11.741 C29.236,12.074 29.342,12.446 29.378,12.857 C29.415,13.296 29.312,13.789 29.067,14.333 C28.821,14.876 28.521,15.345 28.165,15.734 C27.808,16.122 27.374,16.468 26.864,16.774 C26.35,17.078 25.789,17.314 25.175,17.484 C25.3,17.673 25.421,17.834 25.537,17.962 C25.653,18.088 25.769,18.189 25.882,18.259 C25.998,18.33 26.116,18.38 26.238,18.407 C26.36,18.436 26.489,18.449 26.628,18.449 C27.059,18.449 27.507,18.365 27.972,18.193 C28.436,18.025 28.884,17.811 29.316,17.558 C29.748,17.303 30.154,17.025 30.531,16.725 C30.909,16.424 31.226,16.138 31.484,15.87 L33,17.293 C32.425,17.971 31.805,18.571 31.136,19.093 C30.845,19.315 30.531,19.534 30.194,19.751 C29.856,19.967 29.497,20.159 29.119,20.327 C28.742,20.494 28.347,20.629 27.932,20.729 C27.521,20.831 27.097,20.88 26.665,20.88 L26.665,20.88 Z M24.771,15.712 C25.031,15.712 25.31,15.645 25.606,15.516 C25.902,15.384 26.172,15.216 26.419,15.012 C26.666,14.805 26.9,14.531 27.123,14.184 C27.347,13.836 27.448,13.551 27.428,13.326 C27.399,13.006 27.317,12.744 27.18,12.539 C27.043,12.333 26.888,12.231 26.714,12.231 C26.402,12.231 26.143,12.287 25.932,12.402 C25.722,12.515 25.549,12.661 25.416,12.842 C25.284,13.021 25.181,13.227 25.112,13.458 C25.041,13.687 24.961,13.973 24.871,14.312 C24.781,14.652 24.739,14.931 24.744,15.15 C24.749,15.368 24.758,15.556 24.771,15.712 L24.771,15.712 Z"></path>
                    <path d="M30.991,18.613 C30.949,18.134 30.93,17.584 30.934,16.957 C30.937,16.332 30.949,15.644 30.971,14.895 C30.991,14.147 31.032,13.472 31.086,12.871 C31.142,12.271 31.202,11.756 31.267,11.33 C31.317,10.998 31.445,10.719 31.654,10.495 C31.86,10.27 32.158,10.159 32.548,10.159 C32.939,10.159 33.219,10.278 33.389,10.516 C33.562,10.755 33.665,11.074 33.7,11.471 C33.71,11.58 33.712,11.728 33.706,11.911 C33.701,12.094 33.691,12.297 33.678,12.518 C33.665,12.739 33.65,12.968 33.636,13.201 C33.619,13.437 33.61,13.706 33.603,14.007 C33.596,14.305 33.589,14.53 33.581,14.679 C33.572,14.828 33.57,14.927 33.574,14.977 L33.79,14.977 C33.826,14.898 33.885,14.769 33.962,14.593 C34.041,14.415 34.127,14.159 34.221,13.826 C34.314,13.494 34.42,13.199 34.537,12.942 C34.657,12.685 34.766,12.44 34.868,12.205 C34.97,11.97 35.063,11.761 35.149,11.581 C35.235,11.399 35.299,11.266 35.342,11.179 C35.538,10.787 35.777,10.521 36.062,10.375 C36.345,10.231 36.666,10.16 37.026,10.16 C37.387,10.16 37.686,10.311 37.926,10.614 C38.165,10.918 38.307,11.339 38.355,11.873 C38.361,11.954 38.357,12.086 38.34,12.276 C38.324,12.465 38.302,12.688 38.274,12.949 C38.246,13.21 38.22,13.546 38.195,13.959 C38.17,14.373 38.146,14.74 38.124,15.065 C38.103,15.392 38.089,15.713 38.083,16.032 C38.079,16.351 38.088,16.643 38.112,16.91 C38.151,17.36 38.237,17.729 38.375,18.017 C38.511,18.308 38.698,18.451 38.937,18.451 C39.024,18.451 39.145,18.419 39.297,18.354 C39.527,18.267 39.671,18.19 39.732,18.125 C40.028,17.88 40.182,17.759 40.197,17.767 C40.22,17.776 40.449,17.629 40.884,17.333 C41.427,16.964 42.077,16.511 42.83,15.977 L43.032,18.409 L42.527,18.82 C42.486,18.857 42.165,19.046 41.56,19.384 C40.687,19.875 40.139,20.173 39.918,20.274 C39.378,20.529 39.041,20.673 38.908,20.708 C38.557,20.825 38.183,20.881 37.787,20.881 C37.391,20.881 37.032,20.593 36.712,20.017 C36.392,19.444 36.183,18.602 36.087,17.496 C36.049,17.062 36.037,16.593 36.051,16.089 C36.064,15.588 36.089,15.047 36.124,14.468 L35.951,14.468 L33.612,20.11 C33.486,20.414 33.342,20.618 33.178,20.719 C33.007,20.826 32.803,20.88 32.565,20.88 C32.269,20.88 32.026,20.817 31.835,20.691 C31.644,20.565 31.489,20.395 31.374,20.18 C31.258,19.967 31.172,19.723 31.116,19.453 C31.057,19.185 31.017,18.903 30.991,18.613 L30.991,18.613 Z"></path>
                    <path d="M53.733,18.622 C53.257,19.047 52.787,19.422 52.318,19.752 C52.12,19.891 51.913,20.027 51.693,20.161 C51.474,20.296 51.258,20.414 51.043,20.519 C50.83,20.622 50.619,20.707 50.414,20.773 C50.209,20.836 50.018,20.87 49.843,20.87 C49.741,20.87 49.587,20.848 49.38,20.8 C49.172,20.754 48.942,20.66 48.69,20.519 C48.438,20.376 48.18,20.171 47.918,19.903 C47.655,19.632 47.415,19.276 47.199,18.83 C46.956,19.108 46.694,19.37 46.417,19.619 C46.138,19.868 45.846,20.086 45.54,20.27 C45.236,20.454 44.922,20.603 44.603,20.715 C44.285,20.825 43.956,20.881 43.624,20.881 C43.156,20.881 42.743,20.783 42.383,20.588 C42.023,20.393 41.716,20.132 41.461,19.807 C41.206,19.483 41.004,19.113 40.856,18.702 C40.709,18.289 40.616,17.863 40.577,17.422 C40.536,16.952 40.555,16.477 40.632,15.997 C40.709,15.516 40.841,15.05 41.03,14.598 C41.218,14.147 41.428,13.673 41.663,13.183 C41.897,12.691 42.227,12.242 42.648,11.839 C43.071,11.434 43.515,11.129 43.98,10.925 C44.445,10.718 44.95,10.59 45.493,10.539 C45.433,9.599 45.459,8.77 45.575,8.054 C45.689,7.338 45.813,6.568 45.945,5.742 C46.077,4.918 46.275,4.158 46.538,3.463 C46.799,2.768 47.101,2.169 47.441,1.661 C47.781,1.156 48.156,0.759 48.565,0.473 C48.976,0.188 49.413,0.044 49.877,0.044 C50.216,0.044 50.511,0.132 50.765,0.311 C51.019,0.487 51.232,0.724 51.405,1.017 C51.579,1.311 51.716,1.652 51.813,2.039 C51.91,2.427 51.98,2.826 52.015,3.241 C52.039,3.499 52.058,3.763 52.079,4.036 C52.147,5.074 52.072,6.041 51.85,6.936 C51.631,7.832 51.413,8.716 51.197,9.59 C50.981,10.463 50.704,11.33 50.367,12.184 C49.851,13.494 49.527,14.384 49.396,14.852 C49.366,14.953 49.34,15.078 49.315,15.225 C49.291,15.371 49.269,15.532 49.251,15.703 C49.232,15.875 49.219,16.051 49.212,16.23 C49.206,16.41 49.209,16.583 49.224,16.751 C49.243,16.965 49.272,17.165 49.314,17.355 C49.355,17.545 49.41,17.715 49.481,17.866 C49.55,18.015 49.635,18.135 49.738,18.223 C49.84,18.31 49.962,18.354 50.101,18.354 C50.237,18.354 50.385,18.327 50.543,18.272 C50.701,18.216 50.864,18.141 51.037,18.045 C51.208,17.951 51.381,17.845 51.555,17.723 C51.728,17.604 51.896,17.481 52.058,17.358 C52.43,17.066 52.815,16.734 53.215,16.362 L53.733,18.622 L53.733,18.622 Z M45.679,12.214 C45.224,12.447 44.827,12.756 44.489,13.139 C44.152,13.522 43.886,14.026 43.692,14.654 C43.498,15.282 43.357,15.822 43.266,16.274 C43.176,16.726 43.147,17.133 43.179,17.499 C43.19,17.612 43.215,17.726 43.257,17.838 C43.299,17.951 43.367,18.053 43.462,18.143 C43.558,18.235 43.686,18.309 43.85,18.366 C44.012,18.422 44.221,18.45 44.473,18.45 C44.603,18.45 44.728,18.422 44.849,18.363 C44.97,18.306 45.084,18.231 45.193,18.137 C45.3,18.044 45.401,17.938 45.495,17.82 C45.589,17.702 45.674,17.578 45.75,17.448 C45.925,17.155 46.081,16.821 46.213,16.448 C46.183,16.345 46.15,16.184 46.116,15.962 C46.082,15.739 46.041,15.4 45.994,14.943 C45.948,14.487 45.908,14.114 45.873,13.821 C45.841,13.529 45.813,13.264 45.788,13.023 C45.764,12.782 45.74,12.584 45.72,12.432 C45.7,12.278 45.686,12.207 45.679,12.214 L45.679,12.214 Z M50.135,4.81 C50.136,4.302 50.124,3.902 50.098,3.605 C50.064,3.214 50.006,2.942 49.922,2.791 C49.839,2.639 49.732,2.562 49.601,2.562 C49.365,2.562 49.167,2.709 49.001,3.002 C48.836,3.294 48.716,3.674 48.641,4.134 C48.565,4.597 48.482,5.1 48.395,5.643 C48.305,6.185 48.252,6.718 48.236,7.239 C48.217,7.76 48.208,8.228 48.207,8.647 C48.205,9.064 48.204,9.361 48.204,9.537 C48.203,9.897 48.209,10.244 48.217,10.578 C48.228,10.911 48.239,11.215 48.257,11.49 C48.273,11.763 48.29,12.004 48.307,12.211 C48.325,12.416 48.34,12.572 48.349,12.683 L48.358,12.793 C48.676,11.829 48.961,10.87 49.216,9.913 C49.32,9.506 49.423,9.079 49.521,8.636 C49.62,8.194 49.718,7.755 49.815,7.32 C49.911,6.884 49.989,6.452 50.045,6.027 C50.102,5.598 50.131,5.194 50.135,4.81 L50.135,4.81 Z"></path>
                    <path d="M56.951,20.88 C56.277,20.88 55.677,20.756 55.15,20.504 C54.623,20.254 54.174,19.917 53.801,19.494 C53.427,19.072 53.133,18.582 52.915,18.026 C52.699,17.469 52.565,16.886 52.512,16.274 C52.476,15.876 52.511,15.4 52.612,14.846 C52.713,14.292 52.828,13.802 52.951,13.374 C53.076,12.945 53.242,12.535 53.453,12.145 C53.662,11.755 53.916,11.413 54.217,11.118 C54.518,10.821 54.863,10.586 55.252,10.411 C55.643,10.236 56.085,10.149 56.58,10.149 C56.982,10.149 57.365,10.213 57.722,10.344 C58.08,10.473 58.398,10.657 58.674,10.891 C58.949,11.125 59.175,11.41 59.349,11.741 C59.522,12.074 59.627,12.446 59.663,12.857 C59.701,13.296 59.597,13.789 59.353,14.333 C59.107,14.876 58.807,15.345 58.451,15.734 C58.095,16.122 57.661,16.468 57.149,16.774 C56.636,17.078 56.074,17.314 55.461,17.484 C55.586,17.673 55.706,17.834 55.823,17.962 C55.94,18.089 56.055,18.189 56.168,18.259 C56.283,18.33 56.401,18.38 56.523,18.407 C56.644,18.436 56.775,18.449 56.912,18.449 C57.345,18.449 57.793,18.365 58.257,18.193 C58.722,18.025 59.17,17.811 59.6,17.558 C60.032,17.303 60.438,17.025 60.816,16.725 C61.194,16.424 61.511,16.138 61.769,15.87 L63.287,17.293 C62.713,17.971 62.09,18.571 61.422,19.093 C61.132,19.315 60.818,19.534 60.48,19.751 C60.141,19.967 59.784,20.159 59.406,20.327 C59.027,20.494 58.632,20.629 58.219,20.729 C57.807,20.831 57.383,20.88 56.951,20.88 L56.951,20.88 Z M55.054,15.712 C55.317,15.712 55.594,15.645 55.89,15.516 C56.187,15.384 56.457,15.216 56.703,15.012 C56.95,14.805 57.184,14.531 57.407,14.184 C57.631,13.836 57.732,13.551 57.712,13.326 C57.685,13.006 57.602,12.744 57.464,12.539 C57.327,12.333 57.171,12.231 56.998,12.231 C56.686,12.231 56.426,12.287 56.214,12.402 C56.005,12.515 55.832,12.661 55.699,12.842 C55.567,13.021 55.465,13.227 55.394,13.458 C55.324,13.687 55.244,13.973 55.154,14.312 C55.065,14.652 55.022,14.931 55.026,15.15 C55.034,15.368 55.043,15.556 55.054,15.712 L55.054,15.712 Z"></path>
                    <path d="M61.172,17.364 C61.103,16.821 61.038,16.351 60.982,15.948 C60.924,15.545 60.874,15.183 60.826,14.857 C60.78,14.53 60.741,14.232 60.712,13.957 C60.68,13.682 60.651,13.401 60.627,13.111 C60.542,12.149 60.52,11.459 60.555,11.043 C60.592,10.628 60.731,10.402 60.974,10.365 L62.334,10.159 L62.435,10.136 L62.549,10.136 C62.733,10.136 62.882,10.209 62.996,10.353 C63.109,10.499 63.176,10.666 63.199,10.853 L63.62,18.048 L63.692,18.038 L66.013,10.799 C66.027,10.696 66.065,10.599 66.128,10.505 C66.192,10.412 66.277,10.33 66.387,10.261 C66.497,10.195 66.621,10.136 66.757,10.094 C66.895,10.051 67.041,10.028 67.201,10.028 C67.617,10.028 67.961,10.113 68.228,10.284 C68.494,10.452 68.641,10.672 68.664,10.939 C68.682,11.142 68.667,11.334 68.628,11.515 C68.589,11.74 68.535,11.938 68.465,12.111 C68.309,12.48 68.213,12.714 68.181,12.816 C67.922,13.599 67.78,14.05 67.745,14.173 C67.712,14.303 67.682,14.437 67.65,14.575 C67.626,14.698 67.607,14.837 67.595,14.992 C67.582,15.148 67.584,15.309 67.6,15.475 C67.614,15.649 67.652,15.819 67.707,15.985 C67.767,16.152 67.855,16.303 67.975,16.437 C68.094,16.57 68.251,16.677 68.446,16.756 C68.641,16.837 68.885,16.877 69.18,16.877 C69.397,16.877 69.641,16.821 69.914,16.709 C70.19,16.596 70.449,16.468 70.687,16.323 C70.968,16.157 71.253,15.97 71.546,15.759 L71.769,18.309 C71.321,18.614 70.849,18.856 70.358,19.038 C69.865,19.217 69.388,19.308 68.927,19.308 C68.537,19.308 68.184,19.247 67.866,19.129 C67.549,19.008 67.276,18.848 67.045,18.646 C66.816,18.442 66.631,18.216 66.489,17.962 C66.347,17.708 66.261,17.445 66.23,17.17 C66.059,17.605 65.86,18.049 65.633,18.504 C65.405,18.959 65.166,19.375 64.913,19.742 C64.659,20.11 64.404,20.412 64.147,20.647 C63.891,20.881 63.646,21 63.414,21 C62.97,21 62.613,20.894 62.349,20.682 C62.085,20.468 61.877,20.197 61.732,19.87 C61.583,19.546 61.476,19.192 61.407,18.809 C61.34,18.425 61.28,18.059 61.226,17.711 L61.172,17.364 L61.172,17.364 Z"></path>
                    <path d="M74.422,20.88 C73.749,20.88 73.151,20.756 72.623,20.504 C72.098,20.254 71.645,19.917 71.272,19.494 C70.899,19.072 70.603,18.582 70.387,18.026 C70.171,17.469 70.035,16.886 69.983,16.274 C69.947,15.876 69.982,15.4 70.084,14.846 C70.187,14.292 70.298,13.802 70.424,13.374 C70.549,12.945 70.714,12.535 70.925,12.145 C71.135,11.755 71.39,11.413 71.691,11.118 C71.992,10.821 72.337,10.586 72.725,10.411 C73.116,10.236 73.557,10.149 74.052,10.149 C74.456,10.149 74.838,10.213 75.195,10.344 C75.553,10.473 75.871,10.657 76.146,10.891 C76.422,11.125 76.65,11.41 76.823,11.741 C76.995,12.074 77.099,12.446 77.136,12.857 C77.176,13.296 77.072,13.789 76.826,14.333 C76.581,14.876 76.28,15.345 75.924,15.734 C75.567,16.122 75.134,16.468 74.621,16.774 C74.111,17.078 73.548,17.314 72.934,17.484 C73.059,17.673 73.178,17.834 73.294,17.962 C73.411,18.088 73.527,18.189 73.641,18.259 C73.755,18.33 73.874,18.38 73.995,18.407 C74.117,18.436 74.246,18.449 74.386,18.449 C74.817,18.449 75.265,18.365 75.732,18.193 C76.196,18.025 76.643,17.811 77.076,17.558 C77.507,17.303 77.912,17.025 78.289,16.725 C78.666,16.424 78.985,16.138 79.241,15.87 L80.76,17.293 C80.185,17.971 79.564,18.571 78.898,19.093 C78.607,19.315 78.293,19.534 77.952,19.751 C77.616,19.967 77.259,20.159 76.88,20.327 C76.502,20.494 76.106,20.629 75.693,20.729 C75.276,20.831 74.855,20.88 74.422,20.88 L74.422,20.88 Z M72.53,15.712 C72.79,15.712 73.067,15.645 73.364,15.516 C73.66,15.384 73.93,15.216 74.178,15.012 C74.423,14.805 74.658,14.531 74.882,14.184 C75.104,13.836 75.205,13.551 75.185,13.326 C75.159,13.006 75.076,12.744 74.939,12.539 C74.801,12.333 74.646,12.231 74.472,12.231 C74.16,12.231 73.901,12.287 73.69,12.402 C73.478,12.515 73.306,12.661 73.173,12.842 C73.042,13.021 72.94,13.227 72.87,13.458 C72.799,13.687 72.719,13.973 72.629,14.312 C72.539,14.652 72.496,14.931 72.5,15.15 C72.506,15.368 72.516,15.556 72.53,15.712 L72.53,15.712 Z"></path>
                    <path d="M83.052,14 C83.15,14.457 83.265,14.905 83.397,15.351 C83.522,15.773 83.693,16.152 83.902,16.496 C84.732,17.651 87.165,16.088 85.408,14.636 C85.405,14.63 85.402,14.625 85.398,14.619 C85.33,14.443 85.289,14.228 85.265,13.968 C85.252,13.815 85.253,13.625 85.271,13.401 C85.287,13.172 85.318,12.88 85.367,12.525 C85.414,12.171 85.449,11.883 85.465,11.664 C85.483,11.442 85.486,11.27 85.475,11.149 C85.462,10.988 85.417,10.845 85.35,10.72 C85.283,10.594 85.196,10.486 85.091,10.4 C84.986,10.313 84.865,10.247 84.732,10.199 C84.598,10.152 84.461,10.128 84.326,10.128 C83.93,10.128 83.591,10.235 83.306,10.449 C83.022,10.662 82.773,10.926 82.562,11.236 C82.352,11.548 82.16,11.938 81.983,12.409 C81.809,12.879 81.661,13.258 81.544,13.548 L81.424,13.548 C81.377,13.18 81.351,12.749 81.345,12.256 C81.337,11.763 81.323,11.385 81.299,11.117 C81.28,10.893 81.258,10.715 81.236,10.586 C81.213,10.454 81.176,10.355 81.117,10.288 C81.062,10.218 80.981,10.175 80.876,10.157 C80.769,10.138 80.623,10.129 80.436,10.129 C80.27,10.129 80.132,10.138 80.021,10.157 C79.911,10.175 79.821,10.21 79.75,10.264 C79.677,10.319 79.618,10.393 79.57,10.488 C79.518,10.583 79.473,10.708 79.428,10.868 C79.357,11.105 79.288,11.41 79.226,11.78 C79.166,12.149 79.093,12.61 79.01,13.163 C78.93,13.716 78.869,14.238 78.828,14.726 C78.79,15.213 78.759,15.693 78.738,16.164 C78.717,16.635 78.708,17.081 78.71,17.505 C78.71,17.93 78.723,18.3 78.751,18.618 C78.777,18.908 78.815,19.187 78.875,19.46 C78.93,19.73 79.016,19.972 79.131,20.186 C79.249,20.4 79.402,20.57 79.593,20.697 C79.783,20.823 80.028,20.886 80.323,20.886 C80.452,20.886 80.57,20.864 80.673,20.818 C80.777,20.771 80.872,20.689 80.956,20.574 C81.038,20.457 81.115,20.307 81.192,20.122 C81.265,19.938 81.34,19.705 81.416,19.423 L82.881,14.007 L83.054,14.007 L83.054,14 L83.052,14 Z"></path>
                </g>
                <g transform="translate(61.000000, 0.000000)" id="Shape">
                    <g transform="translate(3.000000, 1.000000)">
                        <path d="M2.578,5.691 L0.858,5.69 C0.814,5.69 0.653,5.676 0.654,5.49 C0.654,5.399 0.714,5.341 0.796,5.316 C1.02,5.244 1.014,5.205 1.014,4.965 L1.016,1.576 C1.015,1.336 1.023,1.298 0.798,1.228 C0.715,1.202 0.656,1.143 0.656,1.052 C0.656,0.865 0.817,0.852 0.861,0.852 L2.582,0.852 L2.578,5.691 L2.578,5.691 Z M2.869,0.852 L3.066,0.852 C3.469,0.852 3.88,0.858 4.25,1.04 C4.646,1.239 4.875,1.577 4.875,2.037 C4.875,2.747 4.286,3.078 3.667,3.174 L3.667,3.187 C4.376,3.303 4.939,3.621 4.938,4.429 C4.938,4.888 4.739,5.25 4.335,5.476 C3.926,5.707 3.522,5.689 3.068,5.69 L2.865,5.69 L2.866,5.315 C3.295,5.296 3.346,5.05 3.346,4.816 L3.346,3.983 C3.346,3.685 3.276,3.408 2.866,3.376 L2.867,3 C3.334,2.961 3.346,2.683 3.347,2.443 L3.347,1.797 C3.347,1.526 3.251,1.267 2.868,1.228 L2.869,0.852 L2.869,0.852 Z"></path>
                        <path d="M5.72,0.854 L7.409,0.854 L7.405,5.692 L5.717,5.692 C5.693,5.692 5.482,5.679 5.481,5.491 C5.482,5.401 5.539,5.343 5.623,5.317 C5.847,5.245 5.84,5.207 5.84,4.968 L5.842,1.578 C5.842,1.338 5.849,1.3 5.625,1.229 C5.542,1.203 5.484,1.144 5.485,1.054 C5.484,0.865 5.695,0.854 5.72,0.854 L5.72,0.854 Z M7.696,0.853 L9.121,0.853 L9.12,2.167 C9.121,2.2 9.113,2.323 8.922,2.323 C8.814,2.323 8.782,2.258 8.749,2.16 C8.585,1.636 8.258,1.319 7.696,1.229 L7.696,0.853 L7.696,0.853 Z M7.694,3.014 C7.963,2.943 8.084,2.691 8.141,2.445 C8.173,2.336 8.21,2.232 8.346,2.232 C8.543,2.232 8.512,2.465 8.511,2.517 L8.51,3.913 C8.51,3.966 8.543,4.198 8.345,4.198 C8.21,4.198 8.173,4.094 8.14,3.984 C8.083,3.739 7.961,3.487 7.694,3.415 L7.694,3.014 L7.694,3.014 Z M7.694,5.316 C8.209,5.252 8.606,4.895 8.78,4.378 C8.824,4.281 8.863,4.178 8.976,4.178 C9.182,4.178 9.163,4.371 9.163,4.398 L9.163,5.692 L7.693,5.691 L7.694,5.316 L7.694,5.316 Z"></path>
                        <path d="M9.594,0.854 L10.514,0.854 L10.514,1.23 C10.183,1.469 10.093,1.895 10.035,2.239 C10.017,2.382 9.984,2.549 9.806,2.549 C9.615,2.549 9.594,2.387 9.594,2.361 L9.594,0.854 L9.594,0.854 Z M10.802,0.854 L12.368,0.854 L12.365,4.967 C12.365,5.207 12.359,5.245 12.585,5.317 C12.667,5.343 12.724,5.401 12.723,5.492 C12.723,5.68 12.513,5.692 12.488,5.692 L10.678,5.692 C10.653,5.692 10.441,5.678 10.442,5.49 C10.443,5.4 10.501,5.342 10.584,5.316 C10.807,5.244 10.799,5.206 10.799,4.966 L10.802,0.854 L10.802,0.854 Z M13.575,2.362 C13.575,2.388 13.557,2.55 13.366,2.55 C13.184,2.55 13.153,2.382 13.136,2.24 C13.077,1.897 12.989,1.47 12.656,1.23 L12.657,0.854 L13.576,0.854 L13.576,2.362 L13.575,2.362 Z"></path>
                        <path d="M15.288,2.491 L14.686,4.703 C14.584,5.098 14.673,5.207 14.89,5.305 C14.994,5.35 15.082,5.389 15.082,5.518 C15.081,5.7 14.877,5.693 14.747,5.693 L14.013,5.693 C13.886,5.693 13.656,5.686 13.657,5.499 C13.657,5.344 13.763,5.35 13.906,5.279 C14.04,5.208 14.214,5.059 14.334,4.599 L15.102,1.761 L15.123,1.761 L15.288,2.491 L15.288,2.491 Z M15.972,4.439 L15.038,4.438 L15.127,4.064 L15.908,4.064 L15.263,1.206 L15.347,0.855 L16.759,0.855 L17.715,4.942 C17.755,5.124 17.761,5.247 17.94,5.324 C18.029,5.364 18.1,5.409 18.1,5.525 C18.1,5.701 17.87,5.693 17.747,5.694 L16.153,5.693 C16.028,5.693 15.842,5.68 15.843,5.511 C15.843,5.408 15.88,5.375 15.963,5.331 C16.131,5.232 16.154,5.187 16.098,4.935 L15.972,4.439 L15.972,4.439 Z"></path>
                    </g>
                    <path d="M23.203,0 L1.55,0 C0.838,0 0.255,0.585 0.255,1.301 L0.255,7.244 C0.255,7.96 0.838,8.546 1.55,8.546 L23.203,8.546 C23.917,8.546 24.5,7.96 24.5,7.244 L24.5,1.301 C24.5,0.585 23.917,0 23.203,0 Z M23.203,0.371 C23.714,0.371 24.128,0.789 24.128,1.301 L24.128,7.244 C24.128,7.757 23.714,8.174 23.203,8.174 L1.55,8.174 C1.041,8.174 0.625,7.757 0.625,7.244 L0.625,1.301 C0.625,0.789 1.041,0.371 1.55,0.371 L23.203,0.371 L23.203,0.371 Z"></path>
                </g>
            </g>
        </g>
    </g>
</svg>