<?xml version="1.0" encoding="utf-8"?>
<!-- Generator: Adobe Illustrator 16.0.0, SVG Export Plug-In . SVG Version: 6.00 Build 0)  -->
<!DOCTYPE svg PUBLIC "-//W3C//DTD SVG 1.1//EN" "http://www.w3.org/Graphics/SVG/1.1/DTD/svg11.dtd">
<svg version="1.1" id="Layer_1" xmlns="http://www.w3.org/2000/svg" xmlns:xlink="http://www.w3.org/1999/xlink" x="0px" y="0px"
	 width="140px" height="40px" viewBox="0 0 140 40" enable-background="new 0 0 140 40" xml:space="preserve">
<path d="M140,35c0,2.75-2.25,5-5,5H5c-2.75,0-5-2.25-5-5V5c0-2.75,2.25-5,5-5h130c2.75,0,5,2.25,5,5V35z"/>
<g>
	<path fill="#FFFFFF" d="M55.534,32.053h-2.375l-1.306-4.095h-4.526l-1.239,4.095h-2.316l4.486-13.935h2.771L55.534,32.053z
		 M51.462,26.242l-1.177-3.639c-0.125-0.373-0.359-1.248-0.703-2.625H49.54c-0.136,0.592-0.357,1.467-0.661,2.625l-1.155,3.639
		H51.462z"/>
	<path fill="#FFFFFF" d="M67.066,26.902c0,1.711-0.46,3.061-1.381,4.052c-0.829,0.883-1.856,1.323-3.084,1.323
		c-1.322,0-2.271-0.475-2.854-1.428H59.71v5.291h-2.232v-10.83c0-1.071-0.031-2.175-0.083-3.306h1.963l0.125,1.593h0.043
		c0.743-1.201,1.872-1.801,3.39-1.801c1.185,0,2.174,0.469,2.967,1.406C66.673,24.143,67.066,25.375,67.066,26.902 M64.795,26.986
		c0-0.979-0.22-1.784-0.66-2.42c-0.485-0.66-1.132-0.994-1.943-0.994c-0.552,0-1.054,0.188-1.499,0.55
		c-0.449,0.367-0.741,0.846-0.879,1.438c-0.068,0.275-0.104,0.504-0.104,0.683v1.675c0,0.729,0.222,1.348,0.672,1.85
		c0.448,0.504,1.03,0.756,1.748,0.756c0.84,0,1.493-0.325,1.962-0.971C64.562,28.9,64.795,28.045,64.795,26.986"/>
	<path fill="#FFFFFF" d="M78.623,26.902c0,1.711-0.461,3.061-1.387,4.052c-0.826,0.883-1.853,1.323-3.078,1.323
		c-1.322,0-2.273-0.475-2.852-1.428h-0.043v5.291h-2.23v-10.83c0-1.071-0.027-2.175-0.083-3.306h1.963l0.124,1.593h0.041
		c0.744-1.201,1.875-1.801,3.393-1.801c1.182,0,2.172,0.469,2.967,1.406C78.227,24.143,78.623,25.375,78.623,26.902 M76.35,26.986
		c0-0.979-0.221-1.784-0.662-2.42c-0.481-0.66-1.129-0.994-1.942-0.994c-0.55,0-1.052,0.188-1.498,0.55
		c-0.445,0.367-0.74,0.846-0.877,1.438c-0.07,0.275-0.104,0.504-0.104,0.683v1.675c0,0.729,0.227,1.348,0.672,1.85
		c0.451,0.504,1.028,0.756,1.75,0.756c0.84,0,1.494-0.325,1.961-0.971C76.113,28.9,76.35,28.045,76.35,26.986"/>
	<path fill="#FFFFFF" d="M91.543,28.145c0,1.187-0.412,2.15-1.236,2.894c-0.908,0.815-2.174,1.219-3.797,1.219
		c-1.498,0-2.699-0.288-3.609-0.866l0.517-1.859c0.981,0.592,2.058,0.888,3.226,0.888c0.844,0,1.496-0.188,1.969-0.569
		c0.467-0.377,0.699-0.885,0.699-1.521c0-0.565-0.189-1.041-0.578-1.431c-0.383-0.385-1.025-0.744-1.922-1.076
		c-2.438-0.909-3.658-2.242-3.658-3.997c0-1.144,0.428-2.083,1.283-2.814c0.852-0.731,1.989-1.099,3.41-1.099
		c1.268,0,2.321,0.222,3.161,0.662l-0.559,1.822c-0.785-0.426-1.673-0.642-2.666-0.642c-0.783,0-1.398,0.191-1.841,0.58
		c-0.371,0.344-0.557,0.764-0.557,1.26c0,0.553,0.211,1.006,0.641,1.363c0.369,0.332,1.045,0.688,2.023,1.077
		c1.199,0.479,2.08,1.046,2.648,1.692C91.26,26.374,91.543,27.18,91.543,28.145"/>
	<path fill="#FFFFFF" d="M98.922,23.68h-2.461v4.877c0,1.239,0.438,1.86,1.307,1.86c0.396,0,0.728-0.036,0.988-0.103l0.064,1.693
		c-0.443,0.165-1.023,0.247-1.74,0.247c-0.881,0-1.566-0.271-2.066-0.805c-0.494-0.537-0.74-1.441-0.74-2.708v-5.064h-1.471v-1.674
		h1.471v-1.838l2.188-0.663v2.501h2.461L98.922,23.68L98.922,23.68z"/>
	<path fill="#FFFFFF" d="M110.023,26.945c0,1.541-0.441,2.811-1.326,3.803c-0.92,1.02-2.146,1.529-3.676,1.529
		c-1.478,0-2.65-0.489-3.525-1.469c-0.877-0.977-1.313-2.213-1.313-3.699c0-1.558,0.45-2.832,1.354-3.822
		c0.901-0.992,2.116-1.49,3.646-1.49c1.474,0,2.66,0.49,3.553,1.469C109.594,24.217,110.023,25.443,110.023,26.945 M107.707,27.018
		c0-0.926-0.197-1.722-0.602-2.385c-0.465-0.802-1.135-1.201-2.004-1.201c-0.896,0-1.576,0.399-2.045,1.201
		c-0.4,0.663-0.601,1.471-0.601,2.426c0,0.928,0.198,1.721,0.601,2.383c0.481,0.804,1.155,1.203,2.024,1.203
		c0.853,0,1.522-0.406,2.004-1.225C107.5,28.746,107.707,27.943,107.707,27.018"/>
	<path fill="#FFFFFF" d="M117.277,23.969c-0.221-0.039-0.457-0.063-0.703-0.063c-0.783,0-1.393,0.297-1.82,0.889
		c-0.369,0.525-0.557,1.186-0.557,1.982v5.273h-2.232l0.021-6.884c0-1.159-0.029-2.213-0.084-3.163h1.943l0.084,1.924h0.061
		c0.234-0.66,0.607-1.195,1.115-1.594c0.498-0.357,1.035-0.538,1.612-0.538c0.207,0,0.396,0.017,0.56,0.042V23.969L117.277,23.969z"
		/>
	<path fill="#FFFFFF" d="M127.26,26.552c0,0.399-0.025,0.737-0.082,1.013h-6.695c0.025,0.992,0.349,1.754,0.974,2.274
		c0.563,0.47,1.293,0.704,2.188,0.704c0.992,0,1.896-0.159,2.709-0.477l0.352,1.549c-0.951,0.414-2.072,0.621-3.367,0.621
		c-1.563,0-2.783-0.459-3.672-1.377c-0.887-0.914-1.334-2.144-1.334-3.688c0-1.515,0.41-2.776,1.24-3.78
		c0.869-1.076,2.041-1.613,3.514-1.613c1.449,0,2.543,0.537,3.289,1.613C126.963,24.243,127.26,25.299,127.26,26.552
		 M125.129,25.975c0.016-0.664-0.129-1.233-0.432-1.718c-0.387-0.62-0.979-0.93-1.777-0.93c-0.73,0-1.324,0.302-1.777,0.911
		c-0.373,0.482-0.594,1.061-0.66,1.734h4.646V25.975z"/>
</g>
<g>
	<path fill="#FFFFFF" d="M50.726,9.545c0,1.234-0.371,2.16-1.107,2.785c-0.685,0.575-1.655,0.864-2.916,0.864
		c-0.624,0-1.156-0.028-1.604-0.083V6.379c0.582-0.096,1.212-0.142,1.889-0.142c1.2,0,2.103,0.259,2.713,0.78
		C50.379,7.606,50.726,8.45,50.726,9.545 M49.565,9.577c0-0.799-0.211-1.411-0.632-1.838C48.509,7.313,47.891,7.1,47.079,7.1
		c-0.346,0-0.644,0.023-0.886,0.07v5.118c0.135,0.02,0.387,0.03,0.743,0.03c0.841,0,1.487-0.232,1.944-0.701
		C49.339,11.15,49.565,10.472,49.565,9.577"/>
	<path fill="#FFFFFF" d="M56.854,10.623c0,0.757-0.216,1.381-0.648,1.871c-0.453,0.5-1.056,0.75-1.804,0.75
		c-0.727,0-1.305-0.239-1.735-0.722c-0.43-0.479-0.645-1.086-0.645-1.818c0-0.765,0.223-1.392,0.666-1.877
		c0.445-0.488,1.039-0.73,1.792-0.73c0.726,0,1.307,0.24,1.747,0.722C56.646,9.283,56.854,9.888,56.854,10.623 M55.721,10.659
		c0-0.455-0.102-0.846-0.295-1.173c-0.23-0.393-0.56-0.589-0.987-0.589c-0.438,0-0.772,0.196-1.005,0.589
		c-0.196,0.327-0.291,0.726-0.291,1.191c0,0.458,0.095,0.848,0.291,1.174c0.238,0.393,0.572,0.588,0.997,0.588
		c0.419,0,0.746-0.2,0.982-0.602C55.619,11.506,55.721,11.116,55.721,10.659"/>
	<path fill="#FFFFFF" d="M65.084,8.196l-1.544,4.936h-1.008l-0.64-2.142C61.733,10.455,61.6,9.922,61.5,9.395h-0.021
		c-0.097,0.542-0.228,1.074-0.397,1.596l-0.684,2.142h-1.014l-1.453-4.936h1.131l0.559,2.347c0.133,0.554,0.246,1.082,0.332,1.584
		h0.021c0.082-0.413,0.216-0.938,0.409-1.574l0.699-2.356h0.893l0.672,2.307c0.163,0.561,0.296,1.103,0.396,1.624h0.03
		c0.075-0.509,0.186-1.049,0.336-1.624l0.6-2.307h1.075V8.196z"/>
	<path fill="#FFFFFF" d="M70.771,13.132h-1.101v-2.826c0-0.871-0.33-1.307-0.993-1.307c-0.324,0-0.589,0.119-0.793,0.359
		c-0.201,0.239-0.306,0.521-0.306,0.846v2.928h-1.094V9.608c0-0.434-0.017-0.903-0.04-1.412h0.961l0.053,0.772h0.031
		c0.13-0.24,0.318-0.438,0.566-0.598c0.301-0.185,0.633-0.275,0.997-0.275c0.46,0,0.844,0.148,1.148,0.447
		c0.379,0.363,0.568,0.911,0.568,1.636v2.954H70.771z"/>
	<rect x="72.701" y="5.934" fill="#FFFFFF" width="1.096" height="7.198"/>
	<path fill="#FFFFFF" d="M80.258,10.623c0,0.757-0.219,1.381-0.652,1.871c-0.453,0.5-1.057,0.75-1.809,0.75
		c-0.727,0-1.301-0.239-1.732-0.722c-0.428-0.479-0.645-1.086-0.645-1.818c0-0.765,0.223-1.392,0.668-1.877
		c0.443-0.488,1.039-0.73,1.787-0.73c0.727,0,1.311,0.24,1.752,0.722C80.047,9.283,80.258,9.888,80.258,10.623 M79.117,10.659
		c0-0.455-0.1-0.846-0.295-1.173c-0.227-0.393-0.559-0.589-0.984-0.589c-0.439,0-0.777,0.196-1.006,0.589
		c-0.197,0.327-0.295,0.726-0.295,1.191c0,0.458,0.098,0.848,0.295,1.174c0.234,0.393,0.57,0.588,0.998,0.588
		c0.418,0,0.746-0.2,0.982-0.602C79.018,11.506,79.117,11.116,79.117,10.659"/>
	<path fill="#FFFFFF" d="M85.564,13.132H84.58l-0.084-0.567h-0.029c-0.336,0.451-0.816,0.679-1.441,0.679
		c-0.465,0-0.842-0.148-1.125-0.448c-0.258-0.269-0.387-0.605-0.387-1.006c0-0.602,0.252-1.061,0.756-1.38
		c0.508-0.317,1.215-0.474,2.129-0.467V9.852c0-0.652-0.342-0.973-1.022-0.973c-0.49,0-0.918,0.12-1.287,0.365l-0.221-0.723
		c0.457-0.283,1.022-0.425,1.69-0.425c1.289,0,1.937,0.678,1.937,2.04v1.818C85.494,12.448,85.518,12.838,85.564,13.132
		 M84.426,11.438v-0.762c-1.207-0.022-1.813,0.31-1.813,0.995c0,0.257,0.068,0.448,0.209,0.579c0.141,0.129,0.32,0.19,0.537,0.19
		c0.242,0,0.465-0.075,0.67-0.228c0.205-0.153,0.33-0.348,0.379-0.584C84.42,11.575,84.426,11.512,84.426,11.438"/>
	<path fill="#FFFFFF" d="M91.799,13.132h-0.975l-0.049-0.793h-0.031c-0.309,0.602-0.84,0.905-1.582,0.905
		c-0.598,0-1.092-0.235-1.484-0.701c-0.395-0.466-0.588-1.072-0.588-1.817c0-0.798,0.209-1.445,0.639-1.939
		c0.414-0.459,0.922-0.69,1.523-0.69c0.664,0,1.127,0.225,1.391,0.669h0.021V5.934h1.1v5.87
		C91.764,12.283,91.773,12.726,91.799,13.132 M90.664,11.049v-0.821c0-0.141-0.006-0.256-0.029-0.346
		c-0.064-0.263-0.197-0.485-0.4-0.665c-0.202-0.178-0.45-0.271-0.731-0.271c-0.41,0-0.729,0.164-0.963,0.49
		c-0.233,0.324-0.354,0.742-0.354,1.248c0,0.487,0.113,0.883,0.336,1.188c0.238,0.324,0.56,0.488,0.959,0.488
		c0.359,0,0.648-0.138,0.867-0.407C90.561,11.703,90.664,11.401,90.664,11.049"/>
	<path fill="#FFFFFF" d="M101.184,10.623c0,0.757-0.219,1.381-0.651,1.871c-0.451,0.5-1.054,0.75-1.806,0.75
		c-0.725,0-1.301-0.239-1.733-0.722c-0.429-0.479-0.644-1.086-0.644-1.818c0-0.765,0.224-1.392,0.664-1.877
		c0.443-0.488,1.041-0.73,1.795-0.73c0.721,0,1.305,0.24,1.748,0.722C100.973,9.283,101.184,9.888,101.184,10.623 M100.049,10.659
		c0-0.455-0.102-0.846-0.299-1.173c-0.229-0.393-0.555-0.589-0.982-0.589c-0.44,0-0.774,0.196-1.008,0.589
		c-0.193,0.327-0.295,0.726-0.295,1.191c0,0.458,0.102,0.848,0.295,1.174c0.238,0.393,0.57,0.588,0.996,0.588
		c0.418,0,0.748-0.2,0.986-0.602C99.943,11.506,100.049,11.116,100.049,10.659"/>
	<path fill="#FFFFFF" d="M107.08,13.132h-1.094v-2.826c0-0.871-0.328-1.307-0.996-1.307c-0.324,0-0.586,0.119-0.793,0.359
		c-0.199,0.239-0.303,0.521-0.303,0.846v2.928h-1.099V9.608c0-0.434-0.014-0.903-0.039-1.412h0.964l0.053,0.772h0.031
		c0.127-0.24,0.315-0.438,0.565-0.598c0.301-0.185,0.629-0.275,0.991-0.275c0.466,0,0.849,0.148,1.15,0.447
		c0.383,0.363,0.566,0.911,0.566,1.636v2.954H107.08z"/>
	<path fill="#FFFFFF" d="M114.465,9.021h-1.205v2.396c0,0.608,0.211,0.913,0.639,0.913c0.197,0,0.361-0.017,0.488-0.053l0.031,0.834
		c-0.221,0.083-0.506,0.123-0.854,0.123c-0.437,0-0.773-0.132-1.019-0.398c-0.244-0.263-0.364-0.705-0.364-1.33V9.021h-0.722V8.198
		h0.722V7.292l1.077-0.324v1.23h1.205L114.465,9.021L114.465,9.021z"/>
	<path fill="#FFFFFF" d="M120.275,13.132h-1.099v-2.807c0-0.884-0.331-1.326-0.991-1.326c-0.513,0-0.857,0.258-1.049,0.77
		c-0.033,0.11-0.052,0.241-0.052,0.395v2.969h-1.099V5.934h1.099v2.973h0.021c0.344-0.542,0.842-0.811,1.481-0.811
		c0.453,0,0.832,0.148,1.129,0.447c0.373,0.37,0.56,0.922,0.56,1.653V13.132z"/>
	<path fill="#FFFFFF" d="M126.268,10.431c0,0.197-0.016,0.363-0.041,0.498h-3.291c0.015,0.488,0.17,0.859,0.476,1.116
		c0.278,0.23,0.637,0.344,1.077,0.344c0.488,0,0.933-0.075,1.332-0.231l0.173,0.763c-0.468,0.2-1.021,0.303-1.656,0.303
		c-0.764,0-1.364-0.223-1.801-0.676c-0.438-0.449-0.654-1.053-0.654-1.813c0-0.743,0.201-1.364,0.609-1.855
		c0.426-0.531,0.997-0.792,1.725-0.792c0.709,0,1.248,0.261,1.613,0.792C126.121,9.297,126.268,9.816,126.268,10.431
		 M125.219,10.147c0.01-0.327-0.063-0.605-0.213-0.844c-0.189-0.305-0.479-0.456-0.875-0.456c-0.354,0-0.645,0.146-0.871,0.444
		c-0.18,0.237-0.289,0.524-0.324,0.855L125.219,10.147L125.219,10.147z"/>
</g>
<g>
	<g>
		<g>
			<defs>
				<polyline id="SVGID_1_" points="12.766,5.577 12.766,32.287 35.744,32.287 35.744,5.577 				"/>
			</defs>
			<clipPath id="SVGID_2_">
				<use xlink:href="#SVGID_1_"  overflow="visible"/>
			</clipPath>
			<path clip-path="url(#SVGID_2_)" fill="#009CDC" d="M15.659,29.008c1.458,2.063,3.11,3.258,4.04,3.278
				c1.914,0.043,3.577-1.251,4.949-1.218c0.014,0.004,0.029,0.005,0.043,0.004l0.017-0.002l0.018,0.002
				c0.014,0.001,0.028,0,0.042-0.004c1.372-0.034,3.036,1.261,4.95,1.218c0.931-0.021,2.582-1.216,4.041-3.278H15.659"/>
		</g>
	</g>
	<path fill="#934D84" d="M13.886,25.758c0.495,1.221,1.114,2.317,1.773,3.25h18.1c0.658-0.933,1.277-2.029,1.772-3.25H13.886"/>
	<g>
		<g>
			<defs>
				<polyline id="SVGID_3_" points="12.766,5.577 12.766,32.287 35.744,32.287 35.744,5.577 				"/>
			</defs>
			<clipPath id="SVGID_4_">
				<use xlink:href="#SVGID_3_"  overflow="visible"/>
			</clipPath>
			<path clip-path="url(#SVGID_4_)" fill="#C35152" d="M12.91,22.184c0.184,1.271,0.529,2.474,0.976,3.574h21.646
				c0.074-0.182,0.145-0.365,0.213-0.555c-1.425-0.445-2.598-1.561-3.23-3.02H12.91"/>
		</g>
		<g>
			<defs>
				<polyline id="SVGID_5_" points="12.766,5.577 12.766,32.287 35.744,32.287 35.744,5.577 				"/>
			</defs>
			<clipPath id="SVGID_6_">
				<use xlink:href="#SVGID_5_"  overflow="visible"/>
			</clipPath>
			<path clip-path="url(#SVGID_6_)" fill="#E09333" d="M12.855,18.608c-0.065,0.538-0.097,1.117-0.089,1.74
				c0.008,0.625,0.058,1.238,0.144,1.835h19.604c-0.326-0.752-0.51-1.596-0.51-2.487c0-0.375,0.033-0.739,0.096-1.09L12.855,18.608"
				/>
		</g>
	</g>
	<path fill="#F1BC2F" d="M14.057,15.034c-0.576,0.916-1.019,2.085-1.201,3.574H32.1c0.269-1.515,1.094-2.765,2.231-3.574H14.057"/>
	<g>
		<g>
			<defs>
				<polyline id="SVGID_7_" points="12.766,5.577 12.766,32.287 35.744,32.287 35.744,5.577 				"/>
			</defs>
			<clipPath id="SVGID_8_">
				<use xlink:href="#SVGID_7_"  overflow="visible"/>
			</clipPath>
			<path clip-path="url(#SVGID_8_)" fill="#76B745" d="M24.726,12.939h-0.034c-1.308-0.022-3.715-1.347-5.426-1.17
				c-0.851,0.089-3.57,0.653-5.209,3.265h20.274c0.204-0.145,0.417-0.275,0.639-0.391c-1.535-2.419-4.033-2.792-4.819-2.875
				C28.441,11.592,26.033,12.917,24.726,12.939"/>
		</g>
		<g>
			<defs>
				<polyline id="SVGID_9_" points="12.766,5.577 12.766,32.287 35.744,32.287 35.744,5.577 				"/>
			</defs>
			<clipPath id="SVGID_10_">
				<use xlink:href="#SVGID_9_"  overflow="visible"/>
			</clipPath>
			<path clip-path="url(#SVGID_10_)" fill="#76B745" d="M29.349,5.593c-0.132-0.111-2.562,0.334-4.067,2.017
				c-1.505,1.683-1.412,4.245-1.28,4.356c0.133,0.111,2.6-0.276,4.068-2.018C29.538,8.209,29.481,5.704,29.349,5.593"/>
		</g>
	</g>
</g>
</svg>
