<?xml version="1.0" encoding="utf-8"?>
<!-- Generator: Adobe Illustrator 16.0.0, SVG Export Plug-In . SVG Version: 6.00 Build 0)  -->
<!DOCTYPE svg PUBLIC "-//W3C//DTD SVG 1.1//EN" "http://www.w3.org/Graphics/SVG/1.1/DTD/svg11.dtd">
<svg version="1.1" id="Layer_1" xmlns="http://www.w3.org/2000/svg" xmlns:xlink="http://www.w3.org/1999/xlink" x="0px" y="0px"
	 width="40px" height="40px" viewBox="0 0 40 40" enable-background="new 0 0 40 40" xml:space="preserve">
<g>
	<rect x="10.502" y="4.115" fill="#FFFFFF" width="19.854" height="31.913"/>
	<path fill="#4267B2" d="M39.975,33.98V5.699c0-0.699,0-1.5-0.1-2.099c-0.3-1.1-0.898-2.099-1.799-2.698
		c-1.299-1-2.598-0.899-4.797-0.899H4.104c-0.1,0.1-0.399,0-0.5,0.1c-0.3,0.1-0.6,0.2-0.899,0.3C1.706,0.801,0.806,1.701,0.406,2.7
		c-0.4,0.899-0.4,2-0.4,3.297v27.782c0,1.398-0.1,2.799,0.5,3.697c0.699,1.1,1.599,2,2.998,2.397c0.6,0.101,1.499,0.101,2.198,0.101
		h28.077c0.801,0,1.8,0.101,2.498-0.101c0.899-0.3,1.5-0.699,2.199-1.199c0.698-0.499,1.198-1.696,1.397-2.696
		C40.074,35.48,39.975,34.58,39.975,33.98z M27.385,7.796c0,1.5,0,1.5,0,2.999c-1.1,0-2.299-0.099-3.396,0
		c-1.1,0.2-1.6,0.7-1.799,1.799c-0.201,1.3,0,3.897,0,3.897s0.799,0,1,0h3.996l-0.699,5.097h-4.297V34.98h-5.294V21.788h-4.497
		V16.69h4.497v-0.999c0-1.999-0.1-4.498,0.6-6.096c0.799-1.6,2.198-2.699,3.896-3.199c1.998-0.5,4.098-0.199,6.096-0.1
		C27.385,7.796,27.385,6.897,27.385,7.796z"/>
</g>
</svg>
