<?xml version="1.0" encoding="utf-8"?>
<!-- Generator: Adobe Illustrator 16.0.0, SVG Export Plug-In . SVG Version: 6.00 Build 0)  -->
<!DOCTYPE svg PUBLIC "-//W3C//DTD SVG 1.1//EN" "http://www.w3.org/Graphics/SVG/1.1/DTD/svg11.dtd">
<svg version="1.1" id="Layer_1" xmlns="http://www.w3.org/2000/svg" xmlns:xlink="http://www.w3.org/1999/xlink" x="0px" y="0px"
	 width="117px" height="40px" viewBox="0 0 117 40" enable-background="new 0 0 117 40" xml:space="preserve">
<g>
	<path fill="#010101" d="M117,35c0,2.75-2.25,5-5,5H5c-2.75,0-5-2.25-5-5V5c0-2.75,2.25-5,5-5h107c2.75,0,5,2.25,5,5V35z"/>
	<g>
		<path fill="#FFFFFF" d="M77.32,24.075c0.352-0.13,0.535-0.238,0.535-0.493c0-0.729-0.83-1.577-1.816-1.577
			c-0.734,0-2.111,0.571-2.111,2.554c0,0.309,0.039,0.637,0.057,0.969L77.32,24.075L77.32,24.075z M79.924,28.712l-0.879,0.826
			c-0.201,0.11-0.404,0.241-0.604,0.332c-0.609,0.276-1.23,0.349-1.779,0.349c-0.588,0-1.506-0.039-2.439-0.715
			c-1.305-0.919-1.873-2.493-1.873-3.868c0-2.844,2.318-4.235,4.201-4.235c0.664,0,1.34,0.166,1.891,0.515
			c0.916,0.604,1.154,1.394,1.285,1.813l-4.311,1.74l-1.412,0.111c0.459,2.33,2.035,3.684,3.777,3.684
			c0.871,0,1.516-0.281,2.109-0.574C79.891,28.688,80.008,28.628,79.924,28.712L79.924,28.712z"/>
		<path fill="#FFFFFF" d="M70.912,28.568c0,0.711,0.125,0.826,0.727,0.881c0.314,0.037,0.629,0.055,0.939,0.093L71.9,29.943h-3.23
			c0.424-0.549,0.494-0.604,0.494-0.971v-0.41l-0.008-10.9h-1.428l1.373-0.664h2.623c-0.566,0.329-0.738,0.531-0.813,1.17V28.568
			L70.912,28.568z"/>
		<path fill="#FFFFFF" d="M65.125,26.956c0.426-0.424,0.461-1.009,0.461-1.34c0-1.319-0.785-3.373-2.307-3.373
			c-0.479,0-0.994,0.237-1.287,0.608c-0.309,0.381-0.398,0.875-0.398,1.352c0,1.229,0.713,3.268,2.287,3.268
			C64.344,27.471,64.836,27.245,65.125,26.956L65.125,26.956z M64.6,30.439c-0.146-0.021-0.242-0.021-0.422-0.021
			c-0.166,0-1.158,0.037-1.924,0.294c-0.406,0.148-1.58,0.589-1.58,1.891c0,1.301,1.268,2.239,3.23,2.239
			c1.758,0,2.693-0.846,2.693-1.981C66.594,31.925,65.992,31.434,64.6,30.439L64.6,30.439z M65.898,22.299
			c0.42,0.348,1.299,1.08,1.299,2.475c0,1.355-0.764,1.998-1.535,2.605c-0.24,0.238-0.512,0.496-0.512,0.896
			c0,0.401,0.271,0.625,0.475,0.789l0.662,0.511c0.805,0.679,1.541,1.304,1.541,2.567c0,1.727-1.67,3.467-4.824,3.467
			c-2.66,0-3.945-1.267-3.945-2.621c0-0.662,0.33-1.6,1.414-2.24c1.137-0.693,2.676-0.788,3.504-0.84
			c-0.258-0.333-0.551-0.684-0.551-1.251c0-0.31,0.092-0.495,0.184-0.714c-0.201,0.021-0.402,0.039-0.59,0.039
			c-1.941,0-3.043-1.453-3.043-2.881c0-0.844,0.385-1.776,1.174-2.457c1.049-0.858,2.293-1.01,3.279-1.01h3.779l-1.172,0.662
			L65.898,22.299L65.898,22.299L65.898,22.299z"/>
		<path fill="#FFFFFF" d="M56.823,28.695c0.442-0.584,0.552-1.316,0.552-2.033c0-1.615-0.77-4.694-3.045-4.694
			c-0.605,0-1.216,0.236-1.652,0.622c-0.718,0.643-0.843,1.447-0.843,2.237c0,1.815,0.893,4.801,3.118,4.801
			C55.669,29.628,56.399,29.283,56.823,28.695L56.823,28.695z M54.529,30.18c-2.914,0-4.475-2.268-4.475-4.322
			c0-2.401,1.963-4.457,4.751-4.457c2.694,0,4.382,2.108,4.382,4.328C59.188,27.889,57.519,30.18,54.529,30.18L54.529,30.18z"/>
		<path fill="#FFFFFF" d="M47.064,28.695c0.438-0.584,0.55-1.316,0.55-2.033c0-1.615-0.772-4.694-3.045-4.694
			c-0.608,0-1.211,0.236-1.647,0.622c-0.72,0.643-0.846,1.447-0.846,2.237c0,1.815,0.897,4.801,3.12,4.801
			C45.908,29.628,46.64,29.283,47.064,28.695L47.064,28.695z M44.77,30.18c-2.916,0-4.472-2.268-4.472-4.322
			c0-2.401,1.96-4.457,4.75-4.457c2.691,0,4.379,2.108,4.379,4.328C49.427,27.889,47.76,30.18,44.77,30.18L44.77,30.18z"/>
		<path fill="#FFFFFF" d="M39.131,29.545l-2.458,0.563c-0.994,0.158-1.889,0.295-2.836,0.295c-4.742,0-6.551-3.487-6.551-6.221
			c0-3.336,2.561-6.43,6.945-6.43c0.925,0,1.817,0.136,2.634,0.357c1.284,0.361,1.89,0.81,2.266,1.069l-1.428,1.357l-0.605,0.135
			l0.433-0.685c-0.583-0.567-1.65-1.616-3.679-1.616c-2.714,0-4.759,2.059-4.759,5.072c0,3.23,2.337,6.272,6.084,6.272
			c1.101,0,1.667-0.223,2.18-0.429v-2.771l-2.594,0.137l1.375-0.736h3.642l-0.445,0.428c-0.121,0.105-0.135,0.137-0.17,0.274
			c-0.018,0.157-0.033,0.655-0.033,0.827L39.131,29.545L39.131,29.545L39.131,29.545L39.131,29.545z"/>
		<path fill="#FFFFFF" d="M91.055,25.87c0-2.084-1.088-3.673-3.01-3.673c-1.195,0-2.338,0.938-2.834,1.759v3.805
			c0.496,0.821,1.639,1.794,2.834,1.794C89.967,29.555,91.055,27.953,91.055,25.87L91.055,25.87z M85.211,28.79v4.673h-0.928V21.578
			h0.928v1.352c0.602-0.877,1.707-1.568,2.99-1.568c2.299,0,3.848,1.746,3.848,4.508c0,2.742-1.549,4.523-3.848,4.523
			C86.99,30.395,85.908,29.77,85.211,28.79L85.211,28.79z"/>
		<polygon fill="#FFFFFF" points="93.316,30.18 93.316,18.294 94.244,18.294 94.244,30.18 		"/>
		<path fill="#FFFFFF" d="M104.654,32.693c0.199,0.089,0.535,0.143,0.75,0.143c0.566,0,0.963-0.232,1.313-1.053l0.68-1.531
			l-3.654-8.674h1.037l3.133,7.516l3.104-7.516h1.051l-4.457,10.492c-0.463,1.082-1.188,1.602-2.188,1.602
			c-0.303,0-0.697-0.054-0.928-0.123L104.654,32.693L104.654,32.693z"/>
		<path fill="#FFFFFF" d="M98.648,29.479c0.791,0,1.355-0.176,1.938-0.526c0.574-0.343,0.965-0.795,1.17-1.343v-1.651H99.58
			c-0.83,0-1.516,0.187-2.059,0.556c-0.541,0.369-0.816,0.814-0.816,1.338c0,0.49,0.174,0.883,0.518,1.18
			C97.57,29.33,98.047,29.479,98.648,29.479L98.648,29.479z M101.941,30.154c-0.063-0.301-0.105-0.563-0.143-0.781
			c-0.025-0.219-0.045-0.443-0.045-0.672c-0.316,0.466-0.771,0.854-1.342,1.162c-0.576,0.308-1.123,0.459-1.875,0.459
			c-0.9,0-1.604-0.223-2.104-0.674c-0.498-0.451-0.75-1.063-0.75-1.834c0-0.771,0.361-1.397,1.088-1.875
			c0.727-0.481,1.664-0.719,2.824-0.719h2.158v-1.07c0-0.617-0.207-1.103-0.629-1.455c-0.42-0.35-1.01-0.526-1.773-0.526
			c-0.703,0-1.27,0.161-1.697,0.479c-0.432,0.319-0.646,0.723-0.646,1.205h-0.947l-0.02-0.047c-0.031-0.649,0.264-1.221,0.896-1.715
			c0.627-0.488,1.453-0.736,2.465-0.736s1.834,0.244,2.449,0.729c0.613,0.48,0.924,1.177,0.924,2.087v4.243
			c0,0.303,0.016,0.6,0.053,0.885c0.041,0.288,0.102,0.573,0.186,0.854L101.941,30.154L101.941,30.154L101.941,30.154z"/>
	</g>
	<g>
		<path fill="#FFFFFF" d="M27.327,8.544c0-1.827,1.358-3.001,3.045-3.001c1.128,0,1.87,0.539,2.332,1.201l-0.829,0.477
			c-0.312-0.433-0.859-0.771-1.503-0.771c-1.148,0-2.001,0.869-2.001,2.093c0,1.211,0.853,2.097,2.001,2.097
			c0.59,0,1.111-0.27,1.373-0.519V9.222h-1.738V8.327h2.748v2.167c-0.564,0.634-1.384,1.06-2.387,1.06
			C28.685,11.554,27.327,10.362,27.327,8.544L27.327,8.544z"/>
		<polygon fill="#FFFFFF" points="34.012,11.442 34.012,5.637 37.988,5.637 37.988,6.536 35.031,6.536 35.031,8.03 37.927,8.03 
			37.927,8.926 35.031,8.926 35.031,10.545 37.988,10.545 37.988,11.44 		"/>
		<polygon fill="#FFFFFF" points="40.806,11.442 40.806,6.536 39.045,6.536 39.045,5.64 43.58,5.64 43.58,6.536 41.821,6.536 
			41.821,11.442 		"/>
		<polygon fill="#FFFFFF" points="47.116,11.442 47.116,5.637 48.131,5.637 48.131,11.442 		"/>
		<polygon fill="#FFFFFF" points="50.968,11.442 50.968,6.536 49.211,6.536 49.211,5.64 53.741,5.64 53.741,6.536 51.983,6.536 
			51.983,11.442 		"/>
		<path fill="#FFFFFF" d="M61.914,8.544c0-1.199-0.756-2.094-1.922-2.094c-1.171,0-1.923,0.895-1.923,2.094
			c0,1.193,0.752,2.096,1.923,2.096C61.158,10.64,61.914,9.737,61.914,8.544L61.914,8.544z M57.026,8.544
			c0-1.73,1.229-3.001,2.966-3.001c1.73,0,2.965,1.271,2.965,3.001c0,1.731-1.234,3.002-2.965,3.002
			C58.255,11.546,57.026,10.275,57.026,8.544L57.026,8.544z"/>
		<polygon fill="#FFFFFF" points="68.189,11.442 65.166,7.292 65.166,11.442 64.15,11.442 64.15,5.637 65.191,5.637 68.156,9.657 
			68.156,5.637 69.176,5.637 69.176,11.442 		"/>
	</g>
	<path fill="#FFFFFF" d="M17.692,22.157L6.555,16.033c-0.012-0.006-0.022-0.006-0.034-0.012l8.653,8.655L17.692,22.157z
		 M22.124,24.593l-3.519-1.935l-2.724,2.725l2.74,2.741l3.503-1.929C22.924,25.754,22.924,25.033,22.124,24.593z M5.282,16.196
		c-0.116,0.175-0.187,0.408-0.187,0.699l0.006,17.001c0,0.282,0.064,0.51,0.173,0.683l9.193-9.196L5.282,16.196z M6.482,34.785
		c0.025-0.013,0.048-0.013,0.074-0.026l11.152-6.134l-2.534-2.535L6.482,34.785z"/>
</g>
</svg>
