<?xml version="1.0" encoding="utf-8"?>
<!-- Generator: Adobe Illustrator 16.0.0, SVG Export Plug-In . SVG Version: 6.00 Build 0)  -->
<!DOCTYPE svg PUBLIC "-//W3C//DTD SVG 1.1//EN" "http://www.w3.org/Graphics/SVG/1.1/DTD/svg11.dtd">
<svg version="1.1" id="Layer_1" xmlns="http://www.w3.org/2000/svg" xmlns:xlink="http://www.w3.org/1999/xlink" x="0px" y="0px"
	 width="40px" height="40px" viewBox="0 0 40 40" enable-background="new 0 0 40 40" xml:space="preserve">
<g>
	<rect x="3.368" y="3.031" fill="#FFFFFF" width="33.264" height="33.938"/>
	<g>
		<g>
			<g>
				<defs>
					<path id="SVGID_1_" d="M39.959,33.988V5.682c0-0.708,0.066-1.509-0.093-2.092c-0.315-1.148-0.925-2.102-1.777-2.715
						c-1.313-0.945-2.601-0.876-4.838-0.872H4.088C3.952,0.086,3.732,0.047,3.559,0.092c-0.281,0.097-0.565,0.19-0.843,0.283
						c-1.003,0.433-1.901,1.34-2.341,2.341C0.001,3.572,0.001,4.687,0.001,5.961v27.777c0,1.438-0.056,2.813,0.47,3.716
						c0.667,1.146,1.596,1.982,2.991,2.398c0.626,0.188,1.492,0.123,2.279,0.123h28.134c0.82,0,1.789,0.096,2.468-0.09
						c0.911-0.251,1.532-0.662,2.183-1.156c0.689-0.521,1.166-1.683,1.399-2.683C40.07,35.456,39.959,34.64,39.959,33.988z"/>
				</defs>
				<clipPath id="SVGID_2_">
					<use xlink:href="#SVGID_1_"  overflow="visible"/>
				</clipPath>
				<g clip-path="url(#SVGID_2_)">
					<g>
						<defs>
							<rect id="SVGID_3_" x="-0.001" y="0.001" width="40.001" height="40.001"/>
						</defs>
						<clipPath id="SVGID_4_">
							<use xlink:href="#SVGID_3_"  overflow="visible"/>
						</clipPath>
						<g transform="matrix(1 0 0 1 0 3.814697e-006)" clip-path="url(#SVGID_4_)">
							
								<image overflow="visible" enable-background="new    " width="915" height="915" xlink:href="63101042.jpg"  transform="matrix(0.0448 0 0 -0.0448 -0.4775 40.5332)">
							</image>
						</g>
					</g>
					<g>
						<defs>
							<path id="SVGID_5_" d="M39.959,33.988V5.682c0-0.708,0.066-1.509-0.093-2.092c-0.315-1.148-0.925-2.102-1.777-2.715
								c-1.313-0.945-2.601-0.876-4.838-0.872H4.088C3.952,0.086,3.732,0.047,3.559,0.092c-0.281,0.097-0.565,0.19-0.843,0.283
								c-1.003,0.433-1.901,1.34-2.341,2.341C0.001,3.572,0.001,4.687,0.001,5.961v27.777c0,1.438-0.056,2.813,0.47,3.716
								c0.667,1.146,1.596,1.982,2.991,2.398c0.626,0.188,1.492,0.123,2.279,0.123h28.134c0.82,0,1.789,0.096,2.468-0.09
								c0.911-0.251,1.532-0.662,2.183-1.156c0.689-0.521,1.166-1.683,1.399-2.683C40.07,35.456,39.959,34.64,39.959,33.988z"/>
						</defs>
						<clipPath id="SVGID_6_">
							<use xlink:href="#SVGID_5_"  overflow="visible"/>
						</clipPath>
					</g>
				</g>
				<path clip-path="url(#SVGID_2_)" fill="#FFFFFF" d="M28.59,9.517c-1.051,0-1.902,0.852-1.902,1.898
					c0,1.05,0.853,1.897,1.902,1.897c1.047,0,1.896-0.849,1.896-1.897C30.486,10.368,29.637,9.517,28.59,9.517z M20.001,11.741
					c-4.556,0-8.259,3.704-8.259,8.26c0,4.555,3.704,8.259,8.259,8.259c4.554,0,8.257-3.704,8.257-8.259
					C28.258,15.444,24.555,11.741,20.001,11.741z M20.001,25.551c-3.062,0-5.549-2.491-5.549-5.55s2.487-5.547,5.549-5.547
					s5.547,2.488,5.547,5.547S23.063,25.551,20.001,25.551z M26.275,4H13.725C8.36,4,3.998,8.363,3.998,13.724v12.553
					c0,5.365,4.362,9.728,9.727,9.728h12.553c5.359,0,9.724-4.362,9.724-9.728V13.724C36,8.363,31.637,4,26.275,4z M33.289,26.274
					c0,3.867-3.145,7.018-7.014,7.018H13.725c-3.864,0-7.013-3.148-7.013-7.018V13.724c0-3.864,3.148-7.01,7.013-7.01h12.553
					c3.867,0,7.013,3.146,7.013,7.01L33.289,26.274L33.289,26.274z"/>
			</g>
		</g>
	</g>
</g>
</svg>
