<?xml version="1.0" encoding="utf-8"?>
<!-- Generator: Adobe Illustrator 18.0.0, SVG Export Plug-In . SVG Version: 6.00 Build 0)  -->
<!DOCTYPE svg PUBLIC "-//W3C//DTD SVG 1.1//EN" "http://www.w3.org/Graphics/SVG/1.1/DTD/svg11.dtd">
<svg version="1.1" id="Layer_1" xmlns="http://www.w3.org/2000/svg" xmlns:xlink="http://www.w3.org/1999/xlink" x="0px" y="0px"
	 viewBox="0 0 300 15" enable-background="new 0 0 300 15" xml:space="preserve">
<g>
	<rect x="2.1" y="-0.2" fill="none" width="296.6" height="15.8"/>
	<g>
		<path fill="#FFFFFF" d="M76.8,5.4c1.5,0,2.9,0.6,4,1.5L81.6,6c-1.3-1.1-2.9-1.9-4.7-1.9c-1.8,0-3.5,0.8-4.7,1.9l0.7,0.8
			C73.9,5.9,75.3,5.4,76.8,5.4"/>
		<path fill="#FFFFFF" d="M76.8,7.8c0.9,0,1.8,0.3,2.4,0.9L80,7.8c-0.9-0.7-2-1.2-3.2-1.2c-1.2,0-2.3,0.5-3.2,1.2l0.8,0.9
			C75.1,8.1,75.9,7.8,76.8,7.8"/>
		<path fill="#FFFFFF" d="M78.5,9.5c-0.4-0.4-1-0.6-1.6-0.6s-1.2,0.3-1.6,0.6l1.6,1.8L78.5,9.5z"/>
		<path fill-rule="evenodd" clip-rule="evenodd" fill="#FFFFFF" d="M9.4,5.7c1.2,0,2.2,1,2.2,2.2c0,1.2-1,2.2-2.2,2.2
			c-1.2,0-2.2-1-2.2-2.2C7.2,6.7,8.2,5.7,9.4,5.7"/>
		<path fill-rule="evenodd" clip-rule="evenodd" fill="#FFFFFF" d="M14.9,5.7c1.2,0,2.2,1,2.2,2.2c0,1.2-1,2.2-2.2,2.2
			c-1.2,0-2.2-1-2.2-2.2C12.8,6.7,13.7,5.7,14.9,5.7"/>
		<path fill-rule="evenodd" clip-rule="evenodd" fill="#FFFFFF" d="M20.5,5.7c1.2,0,2.2,1,2.2,2.2c0,1.2-1,2.2-2.2,2.2
			c-1.2,0-2.2-1-2.2-2.2C18.3,6.7,19.3,5.7,20.5,5.7"/>
		<path fill="#FFFFFF" d="M26,5.7c-1.2,0-2.2,1-2.2,2.2c0,1.2,1,2.2,2.2,2.2c1.2,0,2.2-1,2.2-2.2C28.2,6.7,27.2,5.7,26,5.7"/>
		<path fill="#FFFFFF" d="M31.6,5.9c1.1,0,2,0.9,2,2c0,1.1-0.9,2-2,2c-1.1,0-2-0.9-2-2C29.6,6.8,30.5,5.9,31.6,5.9 M31.6,5.7
			c-1.2,0-2.2,1-2.2,2.2c0,1.2,1,2.2,2.2,2.2c1.2,0,2.2-1,2.2-2.2C33.7,6.7,32.8,5.7,31.6,5.7"/>
		<g>
			<path fill="#FFFFFF" d="M42.1,10.9c-0.3,0.2-0.9,0.3-1.7,0.3c-1.8,0-3.2-1.1-3.2-3.2c0-2,1.4-3.4,3.3-3.4c0.8,0,1.3,0.2,1.5,0.3
				l-0.2,0.7c-0.3-0.2-0.8-0.3-1.3-0.3c-1.5,0-2.5,1-2.5,2.6c0,1.6,0.9,2.6,2.5,2.6c0.5,0,1-0.1,1.3-0.3L42.1,10.9z"/>
			<path fill="#FFFFFF" d="M45.9,11.1l-0.1-0.6h0c-0.3,0.4-0.8,0.7-1.4,0.7c-0.9,0-1.4-0.7-1.4-1.3c0-1.1,1-1.7,2.8-1.7V8.1
				c0-0.4-0.1-1.1-1-1.1c-0.4,0-0.9,0.1-1.2,0.3l-0.2-0.6c0.4-0.2,0.9-0.4,1.5-0.4c1.4,0,1.7,1,1.7,1.9V10c0,0.4,0,0.8,0.1,1.1H45.9
				z M45.8,8.7c-0.9,0-1.9,0.1-1.9,1c0,0.5,0.4,0.8,0.8,0.8c0.6,0,1-0.4,1.1-0.8c0-0.1,0-0.2,0-0.3V8.7z"/>
			<path fill="#FFFFFF" d="M48.2,7.9c0-0.5,0-1,0-1.4h0.7l0,0.9h0c0.2-0.6,0.7-1,1.3-1c0.1,0,0.2,0,0.2,0v0.8c-0.1,0-0.2,0-0.3,0
				c-0.6,0-1,0.4-1.1,1.1c0,0.1,0,0.2,0,0.4v2.4h-0.8V7.9z"/>
			<path fill="#FFFFFF" d="M51.6,7.9c0-0.5,0-1,0-1.4h0.7l0,0.9h0c0.2-0.6,0.7-1,1.3-1c0.1,0,0.2,0,0.2,0v0.8c-0.1,0-0.2,0-0.3,0
				c-0.6,0-1,0.4-1.1,1.1c0,0.1,0,0.2,0,0.4v2.4h-0.8V7.9z"/>
			<path fill="#FFFFFF" d="M55.8,5.2c0,0.3-0.2,0.5-0.5,0.5c-0.3,0-0.5-0.2-0.5-0.5c0-0.3,0.2-0.5,0.5-0.5
				C55.6,4.7,55.8,4.9,55.8,5.2z M54.9,11.1V6.5h0.8v4.6H54.9z"/>
			<path fill="#FFFFFF" d="M57.9,8.9c0,1.1,0.7,1.6,1.6,1.6c0.6,0,1-0.1,1.3-0.2l0.1,0.6c-0.3,0.1-0.8,0.3-1.5,0.3
				c-1.4,0-2.3-0.9-2.3-2.3c0-1.4,0.8-2.5,2.2-2.5c1.5,0,1.9,1.3,1.9,2.2c0,0.2,0,0.3,0,0.4H57.9z M60.3,8.3c0-0.5-0.2-1.4-1.2-1.4
				c-0.8,0-1.2,0.8-1.3,1.4H60.3z"/>
			<path fill="#FFFFFF" d="M62.4,7.9c0-0.5,0-1,0-1.4h0.7l0,0.9h0c0.2-0.6,0.7-1,1.3-1c0.1,0,0.2,0,0.2,0v0.8c-0.1,0-0.2,0-0.3,0
				c-0.6,0-1,0.4-1.1,1.1c0,0.1,0,0.2,0,0.4v2.4h-0.8V7.9z"/>
		</g>
	</g>
	<g>
		<path fill-rule="evenodd" clip-rule="evenodd" fill="#FFFFFF" d="M293.2,6.5c0.8,0,1.2,0.6,1.2,1.4c0,0.8-0.4,1.4-1.2,1.4V6.5z"/>
		<path fill="#FFFFFF" d="M291.6,4.5c0.4,0,0.8,0.4,0.8,0.8v5.1c0,0.4-0.4,0.8-0.8,0.8h-15.4c-0.4,0-0.8-0.4-0.8-0.8V5.3
			c0-0.4,0.4-0.8,0.8-0.8H291.6 M291.6,4.1h-15.4c-0.7,0-1.2,0.5-1.2,1.2v5.1c0,0.7,0.5,1.2,1.2,1.2h15.4c0.7,0,1.2-0.5,1.2-1.2V5.3
			C292.8,4.7,292.2,4.1,291.6,4.1"/>
		<path fill-rule="evenodd" clip-rule="evenodd" fill="#FFFFFF" d="M276.5,4.9h14.6c0.4,0,0.8,0.4,0.8,0.8v4.3
			c0,0.4-0.4,0.8-0.8,0.8h-14.6c-0.4,0-0.8-0.4-0.8-0.8V5.7C275.8,5.3,276.1,4.9,276.5,4.9"/>
		<g>
			<path fill="#FFFFFF" d="M249.2,5.7L249.2,5.7l-1.1,0.6L248,5.6l1.3-0.7h0.7v6.2h-0.8V5.7z"/>
			<path fill="#FFFFFF" d="M256.4,7.9c0,2.1-0.8,3.3-2.1,3.3c-1.2,0-2-1.1-2-3.2c0-2.1,0.9-3.2,2.1-3.2C255.7,4.8,256.4,6,256.4,7.9
				z M253,8c0,1.6,0.5,2.5,1.3,2.5c0.9,0,1.3-1,1.3-2.6c0-1.5-0.4-2.5-1.3-2.5C253.6,5.5,253,6.3,253,8z"/>
			<path fill="#FFFFFF" d="M261.3,7.9c0,2.1-0.8,3.3-2.1,3.3c-1.2,0-2-1.1-2-3.2c0-2.1,0.9-3.2,2.1-3.2C260.5,4.8,261.3,6,261.3,7.9
				z M257.9,8c0,1.6,0.5,2.5,1.3,2.5c0.9,0,1.3-1,1.3-2.6c0-1.5-0.4-2.5-1.3-2.5C258.4,5.5,257.9,6.3,257.9,8z"/>
			<path fill="#FFFFFF" d="M264.8,6.7c0,1.3-0.7,1.9-1.5,1.9c-0.8,0-1.4-0.6-1.4-1.9c0-1.2,0.7-1.9,1.5-1.9
				C264.2,4.8,264.8,5.5,264.8,6.7z M262.6,6.7c0,0.8,0.3,1.4,0.8,1.4c0.6,0,0.8-0.6,0.8-1.4c0-0.8-0.2-1.4-0.8-1.4
				C262.8,5.3,262.6,5.9,262.6,6.7z M263.3,11.2l3.6-6.4h0.5l-3.6,6.4H263.3z M268.8,9.2c0,1.3-0.7,1.9-1.5,1.9
				c-0.8,0-1.4-0.6-1.4-1.9c0-1.2,0.7-1.9,1.5-1.9C268.3,7.4,268.8,8,268.8,9.2z M266.6,9.3c0,0.8,0.3,1.4,0.8,1.4
				c0.6,0,0.8-0.6,0.8-1.4c0-0.8-0.2-1.4-0.8-1.4C266.9,7.9,266.6,8.5,266.6,9.3z"/>
		</g>
	</g>
	<g>
		<path fill="#FFFFFF" d="M134,11.1c-0.3-0.1-0.5-0.2-0.7-0.4c-0.2-0.2-0.4-0.4-0.5-0.7c-0.1-0.3-0.2-0.6-0.2-0.9
			c0-0.4,0.1-0.8,0.3-1.1c0.2-0.3,0.5-0.5,0.9-0.6v0c-0.3-0.1-0.5-0.3-0.7-0.5c-0.2-0.2-0.2-0.5-0.2-0.8c0-0.6,0.2-1,0.5-1.3
			c0.4-0.3,0.9-0.5,1.5-0.5c0.7,0,1.2,0.2,1.5,0.5c0.4,0.3,0.5,0.8,0.5,1.3c0,0.3-0.1,0.6-0.2,0.8c-0.2,0.2-0.4,0.4-0.7,0.5v0
			c0.4,0.1,0.7,0.3,0.9,0.6c0.2,0.3,0.3,0.6,0.3,1.1c0,0.3-0.1,0.6-0.2,0.9c-0.1,0.3-0.3,0.5-0.5,0.7c-0.2,0.2-0.5,0.3-0.7,0.4
			c-0.3,0.1-0.6,0.1-0.9,0.1C134.6,11.2,134.3,11.2,134,11.1z M135.8,10c0.2-0.2,0.4-0.5,0.4-0.9c0-0.4-0.1-0.7-0.4-0.9
			c-0.2-0.2-0.5-0.3-0.9-0.3c-0.4,0-0.7,0.1-0.9,0.3c-0.2,0.2-0.4,0.5-0.4,0.9c0,0.4,0.1,0.7,0.4,0.9c0.2,0.2,0.5,0.3,0.9,0.3
			C135.3,10.4,135.6,10.3,135.8,10z M134.2,5.4c-0.2,0.2-0.3,0.4-0.3,0.8c0,0.3,0.1,0.6,0.3,0.7c0.2,0.2,0.4,0.3,0.8,0.3
			c0.3,0,0.6-0.1,0.8-0.3c0.2-0.2,0.3-0.4,0.3-0.7c0-0.3-0.1-0.6-0.3-0.8c-0.2-0.2-0.4-0.3-0.7-0.3S134.4,5.2,134.2,5.4z"/>
		<path fill="#FFFFFF" d="M139.6,6.3v1.3h-1.3V6.3H139.6z M139.6,9.8v1.3h-1.3V9.8H139.6z"/>
		<path fill="#FFFFFF" d="M144.1,4.6c0.3,0.2,0.5,0.5,0.7,0.8c0.2,0.3,0.3,0.7,0.3,1.1c0.1,0.4,0.1,0.8,0.1,1.2c0,0.4,0,0.8-0.1,1.2
			c-0.1,0.4-0.2,0.8-0.3,1.1c-0.2,0.3-0.4,0.6-0.7,0.8c-0.3,0.2-0.7,0.3-1.2,0.3c-0.5,0-0.9-0.1-1.2-0.3c-0.3-0.2-0.5-0.5-0.7-0.8
			c-0.2-0.3-0.3-0.7-0.3-1.1c-0.1-0.4-0.1-0.8-0.1-1.2c0-0.4,0-0.8,0.1-1.2c0.1-0.4,0.2-0.8,0.3-1.1c0.2-0.3,0.4-0.6,0.7-0.8
			c0.3-0.2,0.7-0.3,1.2-0.3C143.4,4.3,143.8,4.4,144.1,4.6z M143.5,10.1c0.2-0.1,0.3-0.3,0.4-0.5c0.1-0.2,0.2-0.5,0.2-0.8
			c0-0.3,0.1-0.6,0.1-1c0-0.3,0-0.7-0.1-1c0-0.3-0.1-0.6-0.2-0.8c-0.1-0.2-0.2-0.4-0.4-0.6c-0.2-0.1-0.4-0.2-0.6-0.2
			c-0.2,0-0.4,0.1-0.6,0.2c-0.2,0.1-0.3,0.3-0.4,0.6c-0.1,0.2-0.2,0.5-0.2,0.8c0,0.3-0.1,0.6-0.1,1c0,0.3,0,0.7,0.1,1
			c0,0.3,0.1,0.6,0.2,0.8c0.1,0.2,0.2,0.4,0.4,0.5c0.2,0.1,0.4,0.2,0.6,0.2C143.2,10.3,143.4,10.2,143.5,10.1z"/>
		<path fill="#FFFFFF" d="M147.3,11.1c-0.3-0.1-0.5-0.2-0.7-0.4c-0.2-0.2-0.4-0.4-0.5-0.7c-0.1-0.3-0.2-0.6-0.2-0.9
			c0-0.4,0.1-0.8,0.3-1.1c0.2-0.3,0.5-0.5,0.9-0.6v0c-0.3-0.1-0.5-0.3-0.7-0.5c-0.2-0.2-0.2-0.5-0.2-0.8c0-0.6,0.2-1,0.5-1.3
			c0.4-0.3,0.9-0.5,1.5-0.5c0.7,0,1.2,0.2,1.5,0.5c0.4,0.3,0.5,0.8,0.5,1.3c0,0.3-0.1,0.6-0.2,0.8c-0.2,0.2-0.4,0.4-0.7,0.5v0
			c0.4,0.1,0.7,0.3,0.9,0.6c0.2,0.3,0.3,0.6,0.3,1.1c0,0.3-0.1,0.6-0.2,0.9c-0.1,0.3-0.3,0.5-0.5,0.7c-0.2,0.2-0.5,0.3-0.7,0.4
			c-0.3,0.1-0.6,0.1-0.9,0.1C147.9,11.2,147.6,11.2,147.3,11.1z M149.2,10c0.2-0.2,0.4-0.5,0.4-0.9c0-0.4-0.1-0.7-0.4-0.9
			c-0.2-0.2-0.5-0.3-0.9-0.3c-0.4,0-0.7,0.1-0.9,0.3c-0.2,0.2-0.4,0.5-0.4,0.9c0,0.4,0.1,0.7,0.4,0.9c0.2,0.2,0.5,0.3,0.9,0.3
			C148.6,10.4,148.9,10.3,149.2,10z M147.5,5.4c-0.2,0.2-0.3,0.4-0.3,0.8c0,0.3,0.1,0.6,0.3,0.7c0.2,0.2,0.4,0.3,0.8,0.3
			c0.3,0,0.6-0.1,0.8-0.3c0.2-0.2,0.3-0.4,0.3-0.7c0-0.3-0.1-0.6-0.3-0.8c-0.2-0.2-0.4-0.3-0.7-0.3S147.7,5.2,147.5,5.4z"/>
		<path fill="#FFFFFF" d="M157.5,4.3l2.6,6.8h-1.3l-0.6-1.8h-2.7l-0.6,1.8h-1.2l2.6-6.8H157.5z M157.8,8.4l-1-2.9h0l-1,2.9H157.8z"
			/>
		<path fill="#FFFFFF" d="M162.4,4.3l1.9,5.3h0l1.8-5.3h1.7v6.8h-1.1V5.9h0l-1.9,5.2h-1l-1.9-5.2h0v5.2h-1.1V4.3H162.4z"/>
	</g>
</g>
</svg>
