<?xml version="1.0" encoding="utf-8"?>
<!-- Generator: Adobe Illustrator 16.0.0, SVG Export Plug-In . SVG Version: 6.00 Build 0)  -->
<!DOCTYPE svg PUBLIC "-//W3C//DTD SVG 1.1//EN" "http://www.w3.org/Graphics/SVG/1.1/DTD/svg11.dtd">
<svg version="1.1" id="Layer_1" xmlns="http://www.w3.org/2000/svg" xmlns:xlink="http://www.w3.org/1999/xlink" x="0px" y="0px"
	 width="40px" height="40px" viewBox="0 0 40 40" enable-background="new 0 0 40 40" xml:space="preserve">
<g>
	<rect x="3.122" y="9.209" fill-rule="evenodd" clip-rule="evenodd" fill="#FFFFFF" width="35.031" height="23.908"/>
	<path fill="#5E81A8" d="M39.97,33.978V5.685c0-0.682,0-1.48-0.08-2.082c-0.278-1.08-0.88-2.08-1.8-2.681
		c-1.28-1-2.601-0.92-4.801-0.92H4.125c-0.12,0.12-0.4,0-0.521,0.12c-0.279,0.08-0.6,0.2-0.879,0.279c-1,0.4-1.92,1.322-2.32,2.322
		c-0.4,0.879-0.4,1.961-0.4,3.281v27.813c0,1.4-0.08,2.802,0.48,3.683c0.68,1.08,1.6,2.001,3,2.399
		c0.601,0.08,1.479,0.08,2.199,0.08h28.084c0.802,0,1.802,0.082,2.48-0.08c0.881-0.279,1.48-0.68,2.2-1.199
		c0.681-0.479,1.2-1.68,1.399-2.682C40.09,35.497,39.97,34.577,39.97,33.978z M34.81,30.094h-4.32c-2.4,0-2.8-1.398-4.802-3.401
		c-1.8-1.799-2.8-0.398-2.681,2.082c0,0.681-0.279,1.201-1.08,1.201c-2.479,0-6.2,0.398-9.801-3.603
		c-4.121-4.162-7.401-11.687-7.722-12.366c-0.279-0.8,0.08-1.201,1-1.201h4.281c1.08,0,1.199,0.602,1.601,1.281
		c1.28,3.001,4.479,9.084,5.399,5.684c0.48-2,0.682-6.084-1.399-6.483c-1.479-0.28,2.2-2.201,6.281-1.201
		c1.479,0.4,1.479,1.001,1.479,2.081c-0.041,3.842-0.439,6.043,0.561,6.643c1,0.602,3.479-3.4,4.801-6.603
		c0.399-0.88,0.399-1.481,1.479-1.481c5.2,0,4.802,0,5.28,0c2.801,0-0.398,4.002-2.8,7.084c-1.881,2.48-1.801,2.602,0.398,4.602
		C35.209,26.812,38.17,30.094,34.81,30.094z"/>
</g>
</svg>
