<?xml version="1.0" encoding="utf-8"?>
<!-- Generator: Adobe Illustrator 19.0.0, SVG Export Plug-In . SVG Version: 6.00 Build 0)  -->
<svg version="1.1" id="Layer_1" xmlns="http://www.w3.org/2000/svg" xmlns:xlink="http://www.w3.org/1999/xlink" x="0px" y="0px"
	 viewBox="0 0 202 43" style="enable-background:new 0 0 202 43;" xml:space="preserve">
<style type="text/css">
	.st0{fill:#FFFFFF;}
</style>
<path id="XMLID_2_" class="st0" d="M18.3,0.6H7.6c-1.6,0-3,1.2-3.2,2.8L0,37.6c-0.1,0.9,0.2,1.8,0.8,2.5c0.6,0.7,1.5,1.1,2.4,1.1H14
	c9.1,0,17.4-7.1,18.5-15.7l1.1-8.3c0.5-4.2-0.7-8.3-3.4-11.4C27.3,2.5,23,0.6,18.3,0.6z M27.2,16.4l-1.1,8.3
	c-0.7,5.5-6.3,10.2-12.2,10.2H6.8L10.4,7h8c2.8,0,5.3,1,7,3C26.9,11.7,27.5,14,27.2,16.4z M38.7,10.2c0.8,0.7,2,1.1,3.6,1.1
	c0.9,0,1.7-0.1,2.3-0.4c0.6-0.3,1.1-0.6,1.5-1.1c0.4-0.4,0.6-1,0.7-1.5c0.1-0.6,0.1-1.2,0-1.8c-0.1-0.7-0.3-1.2-0.6-1.7
	c-0.3-0.5-0.7-0.9-1.1-1.2c-0.4-0.3-1-0.5-1.5-0.7c-0.6-0.1-1.2-0.2-1.8-0.2c-1,0-1.8,0.2-2.4,0.5c-0.6,0.3-1.1,0.7-1.4,1.2
	c-0.3,0.5-0.6,0.9-0.7,1.5c-0.1,0.5-0.1,1-0.1,1.4C37.3,8.5,37.8,9.4,38.7,10.2z M201.3,35.1c-1-1.5-2.9-1.9-4.4-1
	c-0.8,0.5-3.2,1.1-5.2,0.4c-1.1-0.4-1.9-1.1-2.3-2.4c-0.9-2.6,0.7-10.9,2.3-18.4l5.1-0.2c1.5,0,2.7-1.3,2.7-2.9
	c0-1.5-1.3-2.7-2.9-2.7L193,8.1c0.3-1.6,0.7-3,0.9-4.2c0.4-1.7-0.8-3.4-2.5-3.8c-1.7-0.3-3.4,0.8-3.8,2.5c-0.2,0.9-0.7,3-1.3,5.7
	l-4.1,0.1c-1.5,0-2.7,1.3-2.7,2.9c0,1.5,1.3,2.7,2.8,2.7c0,0,0.1,0,0.1,0l2.7-0.1c-1.6,7.4-3,16.4-1.7,20.3c1,3.1,3.2,5.3,6.2,6.4
	c1.4,0.5,2.8,0.7,4.2,0.7c2.6,0,5-0.7,6.6-1.7C201.9,38.6,202.3,36.6,201.3,35.1z M170.6,14.5c-2.5-0.2-5,0.5-7.1,1.9l0,0
	c-0.1,0.1-0.2,0.2-0.3,0.2c-0.2,0.1-0.4,0.3-0.6,0.4c-3.5,2.6-3.7,2.8-6.5,3.8c-0.7,0.2-1.6,0.3-2.5,0.3c-1.5-2.3-3.8-3.9-6.6-4.6
	c2.8-2.7,5.3-6.1,5.9-9.5c0.7-3.9-2.3-8.1-8.4-6.5c-5,1.3-6.7,9.5-7.4,13.4c-0.4,2.1-0.6,3.5-0.9,4.7c0,0.1,0,0.1,0,0.2
	c0,0.1,0,0.2-0.1,0.4c-0.2,1-0.3,1.9-0.5,3.2c-0.1,0.8-0.2,1.6-0.3,2.5c-0.7,2.7-2.3,6.6-6.4,9.2c-0.8,0.5-3.2,1.1-5.2,0.4
	c-1.1-0.4-1.9-1.1-2.3-2.4c-0.9-2.6,0.7-10.9,2.3-18.4l5.1-0.2c1.5,0,2.7-1.3,2.7-2.8c0-1.5-1.3-2.7-2.8-2.7L125,8.1
	c0.3-1.6,0.7-3,0.9-4.2c0.3-1.7-0.8-3.4-2.5-3.8c-1.7-0.4-3.4,0.8-3.8,2.5c-0.2,0.9-0.7,3-1.3,5.7l-4.1,0.1c-1.5,0-2.7,1.3-2.7,2.8
	c0,1.5,1.3,2.7,2.8,2.7c0,0,0.1,0,0.1,0l2.7-0.1c-1.1,5-2,10.7-2.2,15.1c-0.7,0.1-1.5,0.7-2,1.2c-0.9,1-1.8,1.8-2.7,2.6
	c-1,0.8-1.9,1.5-2.9,2c-1,0.5-1.9,0.8-2.7,0.8c-0.9,0-1.6-0.2-2.2-0.6c-0.6-0.4-1.1-0.9-1.5-1.4c-0.4-0.6-0.7-1.2-0.9-1.9
	c-0.2-0.7-0.3-1.4-0.3-2c0-0.4-0.1-0.9-0.1-1.6c0-0.6,0-1.3,0.1-2c0.1-0.7,0.3-1.5,0.5-2.6c0.3-1,0.6-1.8,0.9-2.4
	c0.3-0.6,0.7-1,1.2-1.4c0.5-0.3,1.1-0.5,1.8-0.5c0.3,0,0.5,0.1,0.6,0.4c0.1,0.3,0.2,0.6,0.2,1.1c0.1,0.5,0.1,0.8,0.1,1
	c-0.2,1-0.3,1.7-0.3,2c-0.1,0.5,0.1,1.1,0.6,1.8c0.3,0.4,0.9,0.7,1.8,0.7c0.6,0,1.1-0.1,1.6-0.4c0.4-0.3,0.9-0.8,1.3-1.6
	c0.4-0.8,0.7-1.5,0.8-2.1c0.1-0.6,0.2-1.2,0.1-1.8c-0.1-0.9-0.3-1.7-0.8-2.4c-0.4-0.8-1-1.4-1.7-1.9c-0.7-0.6-1.5-1-2.5-1.3
	c-0.9-0.3-1.9-0.5-3-0.5c-1.2,0-2.3,0.2-3.2,0.7c-1,0.4-1.8,1-2.6,1.8c-0.7,0.7-1.4,1.6-1.9,2.6c-0.5,1-1,2-1.3,3.1
	c-0.3,1.1-0.6,2.3-0.8,3.8c-0.2,1.4-0.3,2.7-0.2,3.7c0,0.3,0.1,0.5,0.1,0.8c-0.9,0.7-1.9,1.4-3,2c-1.1,0.6-2.2,1.1-3.3,1.6
	c-1.1,0.4-2.2,0.6-3.3,0.6c-0.3,0-0.7,0-1-0.1c-0.3-0.1-0.6-0.2-0.9-0.4c-0.3-0.2-0.6-0.4-0.9-0.7c-0.3-0.3-0.6-0.7-0.9-1.2
	c1.5-0.4,2.9-1,4.1-1.7c1.3-0.7,2.3-1.6,3.2-2.5c0.9-1,1.6-2.1,2.2-3.4c0.6-1.3,0.9-2.5,0.8-3.6c-0.1-1-0.3-1.9-0.8-2.7
	c-0.4-0.8-1-1.5-1.7-2.1c-0.7-0.6-1.5-1-2.3-1.3c-0.9-0.3-1.8-0.5-2.8-0.5c-1.2,0-2.3,0.2-3.3,0.6c-1,0.4-1.8,1-2.5,1.7
	c-0.7,0.7-1.4,1.6-1.9,2.5c-0.5,0.9-0.9,1.9-1.2,3c-0.3,1-0.6,2.2-0.8,3.6c0,0.1,0,0.2,0,0.3c-0.2,0.1-0.4,0.2-0.7,0.3
	c-0.8,0.4-1.6,0.5-2.4,0.5c-0.3,0-0.6-0.1-0.8-0.2c-0.3-0.1-0.5-0.3-0.7-0.5c-0.2-0.3-0.4-0.6-0.6-1c-0.2-0.4-0.3-1-0.3-1.6
	c0-0.4,0-0.8,0-1.4c0-0.6,0.1-1.3,0.2-2.1c0.1-0.9,0.2-1.6,0.2-2.1c0-0.5,0-1,0-1.3c0-0.4-0.1-0.7-0.3-1c-0.2-0.3-0.4-0.6-0.6-0.8
	c-0.3-0.2-0.6-0.4-0.9-0.5c-0.3-0.1-0.7-0.2-1-0.2c-1,0-1.8,0.3-2.5,0.8c-0.7,0.5-1.3,1.2-1.8,1.9c-0.5,0.8-1,1.7-1.4,2.9
	c-0.4,1.2-0.8,2.1-1.1,2.8h-0.3c-0.1-0.9-0.2-2-0.2-3.2c0-1.2-0.1-2.1-0.1-2.8c0-0.5-0.1-1-0.2-1.3c-0.1-0.3-0.2-0.6-0.3-0.7
	c-0.1-0.2-0.3-0.3-0.6-0.3c-0.3,0-0.6-0.1-1.1-0.1c-0.4,0-0.7,0-1,0.1c-0.3,0-0.5,0.1-0.7,0.3c-0.2,0.1-0.3,0.3-0.4,0.5
	c-0.1,0.2-0.2,0.5-0.3,0.9c-0.2,0.6-0.3,1.3-0.5,2.2c-0.2,0.9-0.3,2-0.5,3.4c-0.2,1.4-0.3,2.6-0.5,3.8c-0.1,1.2-0.2,2.4-0.2,3.5
	c0,0.5,0,1,0,1.5c-0.2,0.2-0.5,0.5-0.8,0.7c-0.7,0.7-1.4,1.3-2.1,1.9c-0.7,0.6-1.4,1.2-2.1,1.6c-0.7,0.4-1.4,0.7-2,0.7
	c-0.6,0-0.9-0.2-1.2-0.7c-0.2-0.5-0.4-1.1-0.5-1.9c-0.1-0.8-0.1-1.7,0-2.7c0.1-1,0.2-2,0.2-3c0-1,0.2-2.2,0.4-3.7
	c0.3-1.4,0.4-2.6,0.5-3.5c0.1-0.9,0.2-1.7,0.3-2.4c0.1-0.7,0.1-1.3,0-1.7c-0.1-0.5-0.2-0.8-0.5-1.1c-0.3-0.3-0.8-0.4-1.5-0.4
	c-0.4,0-0.8,0.1-1.3,0.1c-0.5,0.1-0.9,0.2-1.4,0.5c-0.4,0.2-0.8,0.5-1.1,0.8c-0.4,0.4-0.5,0.8-0.6,1.2c-0.1,0.6-0.3,2-0.7,4.1
	c-0.4,2.6-0.6,4.3-0.7,5c-0.1,0.4-0.2,2.1-0.3,5.2c0,1.5,0,2.8,0.2,3.9c0.1,0.8,0.3,1.5,0.6,2.2c0.3,0.7,0.6,1.2,1.1,1.7
	c0.5,0.5,1,0.8,1.7,1.1c0.7,0.3,1.5,0.4,2.4,0.4c1,0,2.1-0.2,3.2-0.6c1.1-0.4,2.1-0.8,3.2-1.4c1-0.6,2-1.2,2.8-1.8
	c0.2-0.2,0.4-0.3,0.6-0.5c0,0.3,0.1,0.5,0.1,0.8c0.1,0.7,0.4,1.3,0.6,1.8c0.3,0.5,0.7,0.9,1.1,1.2c0.5,0.3,1.1,0.5,1.8,0.5
	c0.3,0,0.6-0.1,0.9-0.2c0.3-0.1,0.5-0.3,0.7-0.6c0.2-0.3,0.4-0.7,0.6-1.1c0.2-0.5,0.4-1,0.6-1.7l3.6-13.2h0.4
	c0.2,1.1,0.5,2.2,0.8,3.3c0.3,1.1,0.8,2.1,1.3,2.9c0.6,0.9,1.3,1.6,2.1,2.1c0.9,0.5,2,0.8,3.3,0.8c0.7,0,1.5-0.1,2.2-0.3
	c0.5-0.2,1.1-0.4,1.6-0.6c0.1,0.5,0.3,1.1,0.5,1.6c0.5,1.4,1.3,2.6,2.2,3.6c0.9,1,2,1.9,3.3,2.5c1.3,0.6,2.8,0.9,4.4,0.9
	c1.1,0,2.1-0.1,3.1-0.4c1-0.2,2-0.6,2.9-1c0.9-0.4,1.8-0.9,2.6-1.4c0.8-0.5,1.6-1.1,2.3-1.6c0.2-0.1,0.3-0.3,0.5-0.4
	c0.3,0.5,0.7,1,1.1,1.5c0.9,1,2,1.8,3.3,2.4c1.3,0.6,2.8,0.9,4.4,0.9c0.9,0,1.8-0.1,2.7-0.4c0.9-0.3,1.7-0.7,2.5-1.1
	c0.6-0.3,4.4-2.7,6.2-5.5c0,0.2,0.1,0.3,0.1,0.5c1,3.1,3.2,5.3,6.2,6.4c1.4,0.5,2.8,0.7,4.2,0.7c2.6,0,4-0.6,5.4-1.7
	c1.7-1.3,3-2.9,3.8-4.5c0.6,1.8,1.6,3.1,2.5,3.8c1.2,1,3.1,2.1,6,2.1c0.7,0,1.5-0.1,2.3-0.2c3.5-0.6,6.8-3.4,8.5-7.3
	c1-2.2,1.4-4.5,1.2-6.7c0.7-0.3,1.3-0.7,2-1.1c-0.1,0.3-0.1,0.6-0.2,0.9c-0.5,3.7,0.5,7.4,2.7,10.1c1.9,2.4,4.6,3.8,7.6,4
	c0.3,0,0.5,0,0.8,0c6.2,0,11.6-5.3,12.5-12.1c0.5-3.7-0.5-7.4-2.7-10.1C176.3,16.2,173.6,14.8,170.6,14.5z M78.8,28.1
	c0-0.4-0.1-0.8-0.1-1.4c0-0.5,0.1-1.2,0.3-2.1c0.2-0.8,0.4-1.5,0.6-2.1c0.2-0.6,0.4-1.1,0.8-1.5c0.3-0.4,0.7-0.8,1.3-1.1
	c0.5-0.3,1.2-0.4,1.9-0.4c0.4,0,0.8,0.2,1.1,0.8c0.3,0.5,0.5,1.1,0.6,1.9c0,0.6-0.2,1.3-0.8,2.1c-0.5,0.8-1.1,1.5-1.7,2
	c-0.6,0.5-1.3,0.9-2,1.2C80.1,27.9,79.4,28.1,78.8,28.1z M142.1,13.3c2.1-5.2,2.7-7.3,4.1-7.7c2.1-0.6,2,4.7-3.3,9
	C141.4,15.8,140.8,16.4,142.1,13.3z M149.4,28c0,0.1-0.1,0.5-0.1,0.6c-0.1,1.1-0.4,1.6-0.7,2.1c-0.9,2.1-2.7,3.7-4.3,4
	c-1.4,0.2-2.4,0.1-3-0.4c-0.5-0.5-0.8-1.5-0.8-2.8c0.1-1.4,0.5-4.2,0.9-7.3c0.2-1,0.6-1.5,1.1-1.7c0.4-0.2,1.3-0.4,2.4-0.3l0,0
	c0,0,1.4-0.1,2.5,0.9C148.7,24.2,149.6,26,149.4,28z M174.6,27.9c-0.5,3.7-3.4,6.6-6.4,6.4c-1.5-0.1-2.5-1-3.1-1.7
	c-1.1-1.3-1.6-3.2-1.3-5.2c0.5-3.5,3.2-6.4,6.1-6.4c0.1,0,0.2,0,0.3,0c1.5,0.1,2.5,1,3.1,1.7C174.3,24,174.8,25.9,174.6,27.9z"/>
</svg>
