<?xml version="1.0" encoding="utf-8"?>
<!-- Generator: Adobe Illustrator 19.0.0, SVG Export Plug-In . SVG Version: 6.00 Build 0)  -->
<svg version="1.1" id="Layer_1" xmlns="http://www.w3.org/2000/svg" xmlns:xlink="http://www.w3.org/1999/xlink" x="0px" y="0px"
	 viewBox="0 0 510 100" style="enable-background:new 0 0 510 100;" xml:space="preserve">
<style type="text/css">
	.st0{fill:#EF3C5A;}
	.st1{fill:#FBD051;}
	.st2{fill:#5EA76F;}
	.st3{fill:#618AC7;}
	.st4{fill:#FFFFFF;}
</style>
<g>
	<g>
		<path class="st0" d="M479.1,0.4c-15.8,0-28.5,12.8-28.5,28.5c0,8.2,3.4,15.5,8.9,20.7c-0.9,1.4-2,2.7-3.1,3.8
			c-1.7,1.6-3.6,2.7-5.7,3.6c1.5,0.2,2.9,0.3,4.1,0.3c2,0,3.9-0.3,6.4-1c1.7-0.5,3.3-1.2,4.9-1.9c3.9,2,8.3,3.1,13,3.1
			c15.8,0,28.5-12.8,28.5-28.5C507.7,13.2,494.9,0.4,479.1,0.4z"/>
		<path class="st1" d="M479.1,4.4c13.8,0,24.9,11.2,24.9,24.9c0,13.8-11.2,24.9-24.9,24.9c-13.8,0-24.9-11.2-24.9-24.9
			C454.2,15.6,465.4,4.4,479.1,4.4z"/>
		<path class="st2" d="M479.1,50.7c-11.8,0-21.4-9.6-21.4-21.4c0-11.8,9.6-21.4,21.4-21.4c11.8,0,21.4,9.6,21.4,21.4
			C500.5,41.1,490.9,50.7,479.1,50.7z"/>
		<path class="st3" d="M479.1,47.1c-9.8,0-17.8-8-17.8-17.8c0-9.8,8-17.8,17.8-17.8c9.8,0,17.8,8,17.8,17.8
			C497,39.2,489,47.1,479.1,47.1z"/>
		<path class="st0" d="M479.1,43.6c-7.9,0-14.3-6.4-14.3-14.2c0-7.9,6.4-14.2,14.3-14.2c7.9,0,14.3,6.4,14.3,14.2
			C493.4,37.2,487,43.6,479.1,43.6z"/>
		<path class="st1" d="M479.1,40c-5.9,0-10.7-4.8-10.7-10.7c0-5.9,4.8-10.7,10.7-10.7c5.9,0,10.7,4.8,10.7,10.7
			C489.8,35.2,485,40,479.1,40z"/>
		<path class="st2" d="M479.1,22.2c3.9,0,7.1,3.2,7.1,7.1c0,3.9-3.2,7.1-7.1,7.1c-3.9,0-7.1-3.2-7.1-7.1
			C472,25.4,475.2,22.2,479.1,22.2z"/>
		<path class="st3" d="M479.1,25.8c2,0,3.6,1.6,3.6,3.6c0,2-1.6,3.6-3.6,3.6c-2,0-3.6-1.6-3.6-3.6C475.6,27.4,477.2,25.8,479.1,25.8
			z"/>
	</g>
	<g>
		<path class="st4" d="M117.7,84.8c-1.2,1.3-2.8,2.6-4.6,4.1c-1.9,1.5-3.9,2.8-6.2,4c-2.2,1.2-4.5,2.2-6.9,3.1
			c-2.4,0.8-4.7,1.2-7,1.2c-2,0-3.8-0.3-5.2-0.8c-1.5-0.6-2.7-1.3-3.7-2.4c-1-1-1.8-2.2-2.3-3.7c-0.6-1.5-1-3.1-1.2-4.8
			c-0.3-2.4-0.5-5.3-0.4-8.6c0.2-6.7,0.4-10.5,0.6-11.4c0.3-1.7,0.8-5.3,1.6-11c0.8-4.6,1.3-7.6,1.5-9c0.1-1,0.5-1.9,1.2-2.6
			c0.7-0.7,1.5-1.3,2.5-1.7c0.9-0.5,1.9-0.8,3-1c1.1-0.2,2-0.3,2.9-0.3c1.6,0,2.7,0.3,3.4,0.9c0.7,0.6,1.1,1.4,1.2,2.4
			c0.1,0.9,0.1,2.1-0.1,3.6c-0.2,1.6-0.4,3.3-0.6,5.3c-0.2,2-0.6,4.6-1.2,7.7c-0.6,3.1-0.9,5.8-0.9,8c-0.1,2.2-0.2,4.4-0.5,6.6
			c-0.3,2.2-0.3,4.2,0,5.9c0.2,1.7,0.6,3.1,1.2,4.2c0.5,1,1.4,1.5,2.6,1.5c1.4,0,2.9-0.5,4.4-1.5c1.6-1,3.1-2.1,4.7-3.5
			c1.6-1.4,3.1-2.8,4.5-4.3c1.5-1.5,2.8-2.7,3.9-3.8L117.7,84.8z M83.1,23.7c-0.1-0.9-0.1-1.9,0.2-3.1c0.2-1.1,0.7-2.2,1.4-3.2
			c0.7-1,1.8-1.8,3.1-2.5c1.4-0.7,3.1-1,5.3-1c1.4,0,2.7,0.2,3.9,0.5c1.2,0.3,2.4,0.8,3.3,1.4c1,0.6,1.8,1.5,2.5,2.6
			c0.7,1.1,1.1,2.3,1.3,3.8c0.2,1.3,0.2,2.6-0.1,3.9c-0.3,1.3-0.8,2.4-1.6,3.3c-0.8,1-1.9,1.8-3.2,2.4c-1.3,0.6-3,0.9-5,0.9
			c-3.4,0-6-0.8-7.9-2.4C84.6,28.6,83.5,26.4,83.1,23.7z"/>
		<path class="st4" d="M114,85c-0.1-1.7-0.2-3.7-0.2-6c0-2.3,0-4.7,0.2-7.2c0.1-2.5,0.3-5.1,0.5-7.7c0.2-2.6,0.5-5.4,1-8.4
			c0.4-3,0.8-5.4,1.2-7.4c0.3-2,0.7-3.6,1.1-4.9c0.2-0.9,0.5-1.5,0.8-2c0.3-0.5,0.6-0.9,1-1.2c0.4-0.3,0.9-0.5,1.5-0.6
			c0.6-0.1,1.3-0.1,2.2-0.1c1,0,1.8,0,2.4,0.1c0.6,0.1,1,0.3,1.3,0.7c0.3,0.4,0.5,0.9,0.6,1.6c0.1,0.7,0.2,1.6,0.3,2.9
			c0.1,1.4,0.2,3.5,0.2,6.1c0,2.6,0.2,4.9,0.4,6.9h0.6c0.6-1.5,1.4-3.6,2.4-6.1c0.9-2.5,2-4.6,3.1-6.3c1.1-1.7,2.5-3.1,4-4.2
			c1.5-1.1,3.4-1.7,5.5-1.7c0.7,0,1.5,0.1,2.2,0.4c0.7,0.3,1.4,0.6,1.9,1.1c0.6,0.5,1,1,1.4,1.7c0.4,0.7,0.6,1.4,0.7,2.3
			c0.1,0.7,0,1.6-0.1,2.8c-0.1,1.2-0.3,2.7-0.5,4.6c-0.3,1.9-0.4,3.5-0.5,4.7c-0.1,1.2-0.1,2.2,0,3.1c0.1,1.4,0.4,2.6,0.7,3.5
			c0.3,0.9,0.8,1.7,1.3,2.2c0.5,0.6,1,1,1.6,1.2c0.6,0.2,1.2,0.3,1.8,0.3c1.7,0,3.5-0.4,5.3-1.2c1.8-0.8,3.4-1.6,4.9-2.6
			c1.7-1.1,3.4-2.4,5-3.8l0.3,13.6c-1,0.7-2,1.4-3.2,2.2c-1.2,0.8-2.5,1.6-3.9,2.3c-1.4,0.7-2.9,1.3-4.4,1.8
			c-1.5,0.5-3.1,0.7-4.7,0.7c-2.9,0-5.3-0.6-7.2-1.8c-1.9-1.2-3.4-2.7-4.7-4.7c-1.2-1.9-2.2-4.1-2.9-6.5c-0.7-2.4-1.3-4.8-1.9-7.2
			h-0.9l-7.9,29c-0.4,1.5-0.8,2.8-1.2,3.8c-0.4,1-0.8,1.8-1.3,2.4c-0.5,0.6-1,1.1-1.5,1.3c-0.6,0.3-1.2,0.4-1.9,0.4
			c-1.6,0-2.9-0.3-3.9-1c-1-0.7-1.9-1.6-2.5-2.7c-0.6-1.1-1.1-2.4-1.4-3.9C114.3,88.1,114.1,86.6,114,85z"/>
		<path class="st4" d="M184.7,97.2c-3.6,0-6.8-0.7-9.7-2c-2.8-1.3-5.3-3.1-7.3-5.4c-2-2.3-3.6-4.9-4.8-7.9c-1.2-3-1.9-6.1-2.2-9.4
			c-0.2-2.1,0-4.7,0.5-7.7c0.6-3,1.2-5.6,1.8-7.9c0.7-2.3,1.6-4.5,2.7-6.6c1.1-2.1,2.5-3.9,4.1-5.5c1.6-1.6,3.5-2.9,5.6-3.8
			c2.1-0.9,4.5-1.4,7.1-1.4c2.2,0,4.2,0.3,6.1,1c1.9,0.7,3.6,1.7,5.1,2.9c1.5,1.3,2.7,2.8,3.6,4.6c0.9,1.8,1.5,3.8,1.7,6
			c0.2,2.4-0.4,5-1.7,7.9c-1.3,2.9-2.9,5.4-4.9,7.5c-1.9,2.1-4.3,3.9-7,5.6c-2.8,1.6-5.8,2.9-9.1,3.8c0.7,1,1.3,1.9,1.9,2.6
			c0.6,0.7,1.2,1.2,1.9,1.6c0.6,0.4,1.3,0.6,1.9,0.8c0.7,0.2,1.4,0.2,2.1,0.2c2.3,0,4.7-0.5,7.2-1.4c2.5-0.9,4.9-2,7.2-3.4
			c2.3-1.4,4.5-2.9,6.5-4.5c2-1.6,3.7-3.1,5.1-4.6l8.2,7.6c-3.1,3.6-6.4,6.8-10,9.6c-1.6,1.2-3.3,2.4-5.1,3.5
			c-1.8,1.2-3.7,2.2-5.8,3.1c-2,0.9-4.2,1.6-6.4,2.2C189.3,96.9,187,97.2,184.7,97.2z M174.5,69.5c1.4,0,2.9-0.4,4.5-1.1
			c1.6-0.7,3.1-1.6,4.4-2.7c1.3-1.1,2.6-2.6,3.8-4.4c1.2-1.9,1.7-3.4,1.6-4.6c-0.1-1.7-0.6-3.1-1.3-4.2c-0.7-1.1-1.6-1.6-2.5-1.6
			c-1.7,0-3.1,0.3-4.2,0.9c-1.1,0.6-2.1,1.4-2.8,2.4c-0.7,1-1.3,2.1-1.6,3.3c-0.4,1.2-0.8,2.8-1.3,4.6c-0.5,1.8-0.7,3.3-0.7,4.5
			C174.4,67.6,174.4,68.6,174.5,69.5z"/>
		<path class="st4" d="M229.1,97.2c-3.6,0-6.8-0.7-9.6-2c-2.8-1.3-5.3-3.1-7.3-5.3c-2-2.2-3.6-4.8-4.8-7.7c-1.2-2.9-1.9-5.9-2.2-9.1
			c-0.2-2.2,0-4.9,0.5-8.1c0.5-3.1,1.1-5.9,1.8-8.2c0.7-2.3,1.6-4.6,2.8-6.7c1.2-2.1,2.6-4,4.2-5.6c1.6-1.6,3.5-2.9,5.6-3.8
			c2.1-0.9,4.5-1.4,7.1-1.4c2.3,0,4.6,0.3,6.6,1c2.1,0.7,3.9,1.6,5.4,2.8c1.5,1.2,2.8,2.6,3.7,4.3c0.9,1.6,1.5,3.4,1.7,5.3
			c0.1,1.3,0,2.6-0.2,3.9c-0.3,1.3-0.9,2.8-1.8,4.5c-0.9,1.7-1.9,2.9-2.9,3.5c-1,0.6-2.1,0.9-3.4,0.9c-2,0-3.3-0.5-3.9-1.5
			c-1.1-1.5-1.5-2.8-1.2-4c0.1-0.6,0.3-2.1,0.7-4.3c0.1-0.3,0-1-0.1-2.1c-0.1-0.9-0.2-1.7-0.5-2.3c-0.2-0.6-0.7-0.9-1.4-0.9
			c-1.6,0-2.9,0.4-4,1.1c-1.1,0.8-1.9,1.7-2.6,3c-0.7,1.2-1.3,2.9-1.9,5.2c-0.6,2.2-1,4.1-1.2,5.6c-0.2,1.5-0.3,3-0.2,4.3
			c0,1.4,0.1,2.5,0.2,3.5c0.1,1.4,0.4,2.8,0.8,4.4c0.4,1.5,1,2.9,1.9,4.2c0.9,1.3,1.9,2.3,3.2,3.1c1.3,0.8,2.8,1.3,4.7,1.3
			c1.9,0,3.9-0.6,6-1.7c2.1-1.1,4.3-2.6,6.4-4.3c2.1-1.7,4.1-3.7,6-5.8c1.9-2.1,6.3-5,7.1,0.1c1.5,9.1-13.7,18.4-15.5,19.4
			c-1.8,1-3.6,1.9-5.5,2.5C233.2,96.8,231.2,97.2,229.1,97.2z"/>
		<path class="st4" d="M277.4,98.3c-3.1,0-6.3-0.5-9.3-1.5c-6.6-2.4-11.3-7.2-13.6-14c-4.9-14.7,7.7-61.4,9.3-69.2
			c0.8-3.8,4.5-6.3,8.3-5.5c3.8,0.8,6.3,4.5,5.5,8.3c-3.4,16.7-12.6,53.3-9.8,61.9c0.9,2.6,2.4,4.3,4.9,5.2
			c4.2,1.5,9.6,0.3,11.3-0.8c16.3-10.2,14.2-29.9,16.3-26.6c2.1,3.3,5,26-11.2,38.5C286.1,97,283,98.3,277.4,98.3z"/>
		<path class="st4" d="M252.1,38.5c-3.3,0-5.9-2.6-6.1-5.9c-0.1-3.3,2.5-6.1,5.9-6.2l31.8-1c3.3-0.1,6.1,2.5,6.2,5.9
			s-2.5,6.1-5.9,6.2l-31.8,1C252.2,38.5,252.2,38.5,252.1,38.5z"/>
		<path class="st4" d="M426.6,98.3c-3.1,0-6.3-0.5-9.3-1.5c-6.6-2.4-11.3-7.2-13.6-14c-4.9-14.7,7.7-61.4,9.3-69.2
			c0.8-3.8,4.5-6.3,8.3-5.5c3.8,0.8,6.3,4.5,5.5,8.3c-3.4,16.7-12.6,53.3-9.8,61.9c0.9,2.6,2.4,4.3,4.9,5.2
			c4.2,1.5,9.6,0.3,11.3-0.8c3.3-2.1,7.7-1.1,9.8,2.2c2.1,3.3,1.1,7.7-2.2,9.8C437.5,96.8,432.2,98.3,426.6,98.3z"/>
		<path class="st4" d="M401.3,38.5c-3.3,0-5.9-2.6-6.1-5.9c-0.1-3.3,2.5-6.1,5.9-6.2l31.8-1c3.3-0.1,6.1,2.5,6.2,5.9
			c0.1,3.3-2.5,6.1-5.9,6.2l-31.8,1C401.4,38.5,401.4,38.5,401.3,38.5z"/>
		<path class="st4" d="M371,97.2c-0.6,0-1.2,0-1.8-0.1c-6.5-0.5-12.4-3.6-16.7-8.8c-4.8-5.9-7-14-6-22.2c2-15.5,15-27.4,29.2-26.4
			c6.5,0.5,12.4,3.6,16.7,8.8c4.8,5.9,7,14,6,22.2C396.6,85.6,384.5,97.2,371,97.2z M374,53.8c-6.4,0-12.4,6.3-13.4,14.1
			c-0.6,4.4,0.5,8.5,2.9,11.5c1.2,1.5,3.4,3.4,6.8,3.7c6.7,0.5,13.1-6,14.1-14.1c0.6-4.4-0.5-8.5-2.9-11.5c-1.2-1.5-3.4-3.4-6.8-3.6
			C374.5,53.9,374.3,53.8,374,53.8z"/>
		<path class="st4" d="M315.7,51c8.5-5.9,19.1-16.9,21.1-27.6c1.6-8.6-5-17.8-18.5-14.3c-11,2.9-14.7,20.7-16.2,29.3
			c-2,11.6-2.9,12.8-3.7,24.4C304.4,59.6,311.4,56,315.7,51C316.2,50.5,311.1,54.3,315.7,51z M313.2,37.1c4.7-11.3,6-16,9-16.9
			c4.6-1.4,4.4,10.2-7.3,19.7C311.6,42.5,310.4,43.8,313.2,37.1z"/>
		<path class="st4" d="M316.3,97.6c-6.3,0-10.5-2.3-13.1-4.6c-3.2-2.8-6.9-8-6.5-17.2c0.3-5.7,3.1-24.5,3.5-26.7
			c0.5-3.6,4-5.9,7.7-5.2c0.8,0.1,1.5,0.4,2.1,0.8c3.6-1.2,8.3-1.6,12.7-0.8c7.2,1.3,13.1,5.3,16.6,11.5c4.5,7.8,4.8,17.2,0.9,25.8
			c-3.8,8.5-11,14.6-18.7,15.9C319.6,97.4,317.9,97.6,316.3,97.6z M312.2,61.1c-1,6.8-1.9,13-2.1,16c-0.1,2.9,0.5,5.2,1.7,6.2
			c1.2,1,3.6,1.3,6.5,0.8c3.5-0.6,7.3-4.2,9.4-8.8c1-2.3,3.1-8.2-0.2-13.9c-1.2-2.1-2.9-3.4-5.2-4.2c-3.3-1-6.7-0.4-7.8,0.1
			C313.9,57.8,312.7,58.9,312.2,61.1z"/>
		<path class="st4" d="M344.1,53.6c-5.3,1.8-16.8-0.8-16.8-0.8l2.5,2.4c-2.7-0.6-6-0.6-6.5,2.3c0,0-1.7,5,1.6,8.7
			c3.3,3.6,8.9,3.6,10.8,2.2c1.1-0.8,0.2-5-0.8-8.2l6.8,6.7c10.1-3.7,17.8-15.8,17.8-15.8l0.9-7.3C350.6,50.9,350.8,51.3,344.1,53.6
			z"/>
		<path class="st4" d="M32.4,98.3H8.8c-2,0-3.9-0.9-5.3-2.4c-1.3-1.5-1.9-3.5-1.7-5.5l9.6-75c0.4-3.5,3.4-6.1,6.9-6.1h23.6
			c10.2,0,19.6,4.1,25.9,11.2c6,6.8,8.7,15.7,7.5,25L73,63.8C70.6,82.8,52.4,98.3,32.4,98.3z M16.7,84.3h15.7
			c13,0,25.2-10.2,26.7-22.3l2.3-18.2c0.7-5.3-0.8-10.2-4.1-14c-3.7-4.2-9.1-6.5-15.4-6.5H24.5L16.7,84.3z"/>
	</g>
</g>
</svg>
