<?xml version="1.0" encoding="utf-8"?>
<!-- Generator: Adobe Illustrator 19.0.0, SVG Export Plug-In . SVG Version: 6.00 Build 0)  -->
<svg version="1.1" id="Layer_1" xmlns="http://www.w3.org/2000/svg" xmlns:xlink="http://www.w3.org/1999/xlink" x="0px" y="0px"
	 viewBox="0 0 445 345" style="enable-background:new 0 0 445 345;" xml:space="preserve">
<style type="text/css">
	.st0{fill:#FFFFFF;}
</style>
<g>
	<path class="st0" d="M43.3,250H19.9c-3.5,0-6.4,2.6-6.9,6.1l-9.5,74.4c-0.3,2,0.4,4,1.7,5.5c1.3,1.5,3.2,2.4,5.2,2.4h23.4
		c19.8,0,37.9-15.4,40.3-34.2l2.3-18.1c1.2-9.2-1.5-18.1-7.4-24.8C62.8,254.1,53.4,250,43.3,250z M62.7,284.3l-2.3,18.1
		c-1.5,12-13.7,22.1-26.5,22.1H18.3l7.7-60.5h17.3c6.2,0,11.6,2.3,15.3,6.4C61.9,274.1,63.3,279,62.7,284.3z M87.5,270.8
		c1.8,1.6,4.5,2.4,7.8,2.4c2,0,3.6-0.3,4.9-0.9c1.3-0.6,2.4-1.4,3.2-2.4c0.8-1,1.3-2.1,1.6-3.3c0.2-1.2,0.3-2.5,0.1-3.8
		c-0.2-1.4-0.6-2.7-1.3-3.7c-0.7-1-1.5-1.9-2.5-2.5c-1-0.6-2.1-1.1-3.3-1.4c-1.2-0.3-2.5-0.5-3.9-0.5c-2.2,0-3.9,0.3-5.3,1
		c-1.3,0.7-2.4,1.5-3.1,2.5c-0.7,1-1.2,2-1.4,3.2c-0.2,1.1-0.3,2.1-0.1,3C84.6,267,85.7,269.2,87.5,270.8z M441.5,325
		c-2.1-3.3-6.4-4.2-9.7-2.2c-1.7,1.1-7,2.3-11.2,0.8c-2.5-0.9-4-2.5-4.9-5.1c-1.9-5.7,1.6-23.8,5.1-40.1l11-0.3
		c3.3-0.1,5.9-2.9,5.8-6.2c-0.1-3.3-2.9-5.9-6.2-5.8l-8,0.3c0.8-3.4,1.4-6.6,2-9.2c0.8-3.8-1.7-7.5-5.5-8.3
		c-3.8-0.8-7.5,1.7-8.3,5.5c-0.4,2-1.5,6.6-2.9,12.5l-8.9,0.3c-3.3,0.1-5.9,2.9-5.8,6.2c0.1,3.3,2.8,5.8,6,5.8c0.1,0,0.1,0,0.2,0
		l5.8-0.2c-3.4,16.2-6.5,35.6-3.7,44.1c2.2,6.8,6.9,11.6,13.5,13.9c3,1.1,6.1,1.5,9.2,1.5c5.6,0,10.9-1.5,14.3-3.7
		C442.6,332.6,443.6,328.2,441.5,325z M374.7,280.3c-5.5-0.4-10.8,1.2-15.3,4.1l0,0c-0.3,0.2-0.5,0.4-0.7,0.5
		c-0.4,0.3-0.8,0.6-1.2,0.9c-7.7,5.6-8,6.1-14.2,8.2c-1.5,0.5-3.5,0.7-5.5,0.6c-3.3-5.1-8.4-8.6-14.4-10c6-5.9,11.5-13.3,12.9-20.6
		c1.6-8.6-4.9-17.7-18.4-14.2c-10.9,2.9-14.6,20.6-16.1,29.1c-0.8,4.6-1.4,7.5-1.9,10.1c0,0.1-0.1,0.3-0.1,0.4
		c0,0.2-0.1,0.5-0.1,0.8c-0.4,2.2-0.7,4.2-1,7c-0.2,1.7-0.5,3.5-0.8,5.4c-1.6,5.9-4.9,14.4-13.9,20c-1.7,1.1-7,2.3-11.2,0.8
		c-2.5-0.9-4-2.5-4.9-5.1c-1.9-5.7,1.6-23.8,5.1-40.1l11-0.3c3.3-0.1,5.9-2.9,5.8-6.2c-0.1-3.3-2.9-5.9-6.2-5.8l-8,0.3
		c0.8-3.4,1.4-6.6,2-9.2c0.8-3.8-1.7-7.5-5.5-8.3c-3.8-0.8-7.5,1.7-8.3,5.5c-0.4,2-1.5,6.6-2.9,12.5l-8.9,0.3
		c-3.3,0.1-5.9,2.9-5.8,6.2c0.1,3.3,2.8,5.8,6,5.8c0.1,0,0.1,0,0.2,0l5.8-0.2c-2.3,11-4.5,23.4-4.7,32.9c-1.5,0.2-3.3,1.5-4.3,2.7
		c-1.9,2.1-3.8,4-5.9,5.7c-2.1,1.7-4.2,3.2-6.3,4.3c-2.1,1.1-4.1,1.7-6,1.7c-1.9,0-3.4-0.4-4.7-1.2c-1.3-0.8-2.3-1.9-3.2-3.1
		c-0.9-1.2-1.5-2.6-1.9-4.1c-0.4-1.5-0.6-2.9-0.8-4.3c-0.1-0.9-0.1-2.1-0.2-3.4c0-1.4,0-2.8,0.2-4.3c0.2-1.5,0.6-3.4,1.2-5.6
		c0.6-2.2,1.2-3.9,1.9-5.1c0.7-1.2,1.5-2.2,2.6-2.9c1.1-0.8,2.4-1.1,3.9-1.1c0.6,0,1.1,0.3,1.3,0.9c0.3,0.6,0.4,1.4,0.5,2.3
		c0.1,1.1,0.2,1.8,0.1,2.1c-0.4,2.2-0.6,3.7-0.7,4.3c-0.2,1.2,0.2,2.5,1.2,4c0.7,1,1.9,1.4,3.9,1.4c1.3,0,2.4-0.3,3.4-0.9
		c1-0.6,1.9-1.8,2.8-3.5c0.9-1.7,1.5-3.2,1.8-4.5c0.3-1.3,0.3-2.6,0.2-3.9c-0.2-1.9-0.7-3.6-1.7-5.3c-0.9-1.6-2.2-3-3.7-4.2
		c-1.5-1.2-3.3-2.1-5.3-2.8c-2-0.7-4.2-1-6.6-1c-2.6,0-4.9,0.5-7,1.4c-2.1,0.9-3.9,2.2-5.6,3.8c-1.6,1.6-3,3.5-4.1,5.6
		c-1.1,2.1-2.1,4.3-2.8,6.7c-0.7,2.3-1.3,5.1-1.8,8.2c-0.5,3.1-0.7,5.8-0.5,8c0,0.6,0.1,1.2,0.2,1.8c-2,1.6-4.2,3.1-6.5,4.4
		c-2.3,1.4-4.7,2.5-7.2,3.4c-2.5,0.9-4.9,1.4-7.2,1.4c-0.7,0-1.4-0.1-2.1-0.2c-0.7-0.2-1.3-0.4-1.9-0.8c-0.6-0.4-1.2-0.9-1.9-1.6
		c-0.6-0.7-1.3-1.5-1.9-2.5c3.3-0.9,6.3-2.2,9-3.8c2.7-1.6,5-3.5,7-5.5c1.9-2.1,3.5-4.6,4.8-7.4c1.3-2.9,1.9-5.5,1.7-7.8
		c-0.2-2.2-0.8-4.2-1.7-5.9c-0.9-1.8-2.1-3.3-3.6-4.5c-1.5-1.2-3.2-2.2-5.1-2.9c-1.9-0.7-3.9-1-6.1-1c-2.6,0-5,0.5-7.1,1.4
		c-2.1,0.9-3.9,2.2-5.5,3.8c-1.6,1.6-3,3.4-4.1,5.5c-1.1,2.1-2,4.2-2.7,6.5c-0.7,2.3-1.3,4.9-1.8,7.8c0,0.2-0.1,0.4-0.1,0.7
		c-0.5,0.2-1,0.5-1.5,0.7c-1.8,0.8-3.5,1.2-5.3,1.2c-0.6,0-1.2-0.1-1.8-0.4c-0.6-0.2-1.1-0.6-1.6-1.2c-0.5-0.6-0.9-1.3-1.3-2.2
		c-0.3-0.9-0.6-2.1-0.7-3.5c-0.1-0.8-0.1-1.8,0-3c0.1-1.2,0.3-2.8,0.5-4.6c0.3-1.9,0.4-3.4,0.5-4.6c0.1-1.2,0.1-2.1,0.1-2.7
		c-0.1-0.8-0.3-1.6-0.7-2.3c-0.4-0.7-0.8-1.2-1.4-1.7c-0.6-0.5-1.2-0.8-1.9-1.1c-0.7-0.3-1.4-0.4-2.2-0.4c-2.1,0-3.9,0.6-5.5,1.7
		c-1.5,1.1-2.8,2.5-4,4.2c-1.1,1.7-2.2,3.7-3.1,6.2c-0.9,2.5-1.7,4.5-2.4,6.1h-0.6c-0.2-2-0.4-4.2-0.4-6.9c0-2.6-0.1-4.6-0.2-6.1
		c-0.1-1.2-0.2-2.1-0.3-2.8c-0.1-0.7-0.3-1.2-0.6-1.6c-0.3-0.4-0.7-0.6-1.3-0.7c-0.6-0.1-1.4-0.1-2.4-0.1c-0.9,0-1.6,0.1-2.2,0.1
		c-0.6,0.1-1.1,0.3-1.5,0.6c-0.4,0.3-0.7,0.7-1,1.2c-0.3,0.5-0.5,1.2-0.7,2c-0.4,1.3-0.8,2.9-1.1,4.8c-0.3,2-0.7,4.4-1.1,7.4
		c-0.4,2.9-0.8,5.7-1,8.3c-0.2,2.6-0.4,5.1-0.5,7.7c0,1.1-0.1,2.2-0.1,3.2c-0.5,0.5-1.1,1-1.6,1.6c-1.5,1.5-3,2.9-4.5,4.2
		c-1.5,1.4-3.1,2.5-4.6,3.5c-1.6,1-3,1.4-4.4,1.4c-1.2,0-2.1-0.5-2.6-1.5c-0.5-1-0.9-2.4-1.2-4.1c-0.2-1.8-0.2-3.7,0-5.9
		c0.3-2.2,0.4-4.3,0.5-6.5c0.1-2.2,0.4-4.8,0.9-8c0.6-3.1,0.9-5.7,1.2-7.6c0.2-2,0.4-3.7,0.6-5.3c0.2-1.5,0.2-2.7,0.1-3.6
		c-0.1-1-0.5-1.8-1.2-2.4c-0.6-0.6-1.8-0.9-3.4-0.9c-0.9,0-1.8,0.1-2.9,0.3c-1,0.2-2,0.5-3,1c-0.9,0.4-1.8,1-2.5,1.7
		c-0.8,0.8-1.2,1.7-1.2,2.6c-0.1,1.4-0.6,4.4-1.5,9c-0.8,5.6-1.3,9.3-1.6,10.9c-0.2,0.8-0.4,4.6-0.6,11.3c-0.1,3.2,0,6.1,0.4,8.5
		c0.2,1.7,0.6,3.3,1.2,4.8c0.6,1.4,1.3,2.7,2.3,3.7c1,1,2.2,1.8,3.6,2.3c1.4,0.6,3.2,0.8,5.2,0.8c2.2,0,4.5-0.4,6.9-1.2
		c2.4-0.8,4.7-1.8,6.9-3c2.2-1.2,4.3-2.5,6.1-4c0.5-0.3,0.9-0.7,1.3-1c0.1,0.6,0.2,1.1,0.3,1.7c0.3,1.4,0.8,2.7,1.4,3.9
		c0.6,1.1,1.4,2,2.5,2.7c1,0.7,2.3,1,3.9,1c0.7,0,1.3-0.1,1.9-0.4c0.6-0.2,1.1-0.7,1.5-1.3c0.5-0.6,0.9-1.4,1.3-2.4
		c0.4-1,0.8-2.2,1.2-3.7l7.8-28.8h0.9c0.5,2.4,1.1,4.8,1.8,7.2c0.7,2.4,1.7,4.5,2.9,6.4c1.2,1.9,2.7,3.4,4.6,4.6
		c1.9,1.2,4.3,1.8,7.1,1.8c1.6,0,3.2-0.2,4.7-0.7c1.2-0.4,2.3-0.8,3.4-1.3c0.3,1.2,0.7,2.4,1.1,3.5c1.2,3,2.7,5.6,4.7,7.8
		c2,2.3,4.4,4,7.2,5.4c2.8,1.3,6,2,9.6,2c2.3,0,4.6-0.3,6.8-0.8c2.2-0.5,4.3-1.2,6.3-2.1c2-0.9,3.9-1.9,5.7-3.1
		c1.8-1.2,3.5-2.3,5-3.5c0.4-0.3,0.7-0.6,1-0.9c0.7,1.1,1.5,2.2,2.4,3.2c2,2.2,4.4,3.9,7.2,5.3c2.8,1.3,6,2,9.6,2c2,0,4-0.3,5.9-0.9
		c1.9-0.6,3.8-1.5,5.5-2.5c1.3-0.7,9.5-5.8,13.4-11.9c0.1,0.4,0.2,0.7,0.3,1.1c2.3,6.8,6.9,11.6,13.5,13.9c3,1.1,6.1,1.5,9.2,1.5
		c5.6,0,8.6-1.3,11.8-3.7c3.7-2.9,6.4-6.3,8.4-9.9c1.3,4,3.5,6.6,5.4,8.4c2.5,2.2,6.7,4.5,13,4.5c1.6,0,3.2-0.1,5.1-0.5
		c7.7-1.4,14.8-7.4,18.6-15.8c2.1-4.7,2.9-9.7,2.5-14.5c1.5-0.6,2.9-1.4,4.3-2.3c-0.1,0.6-0.3,1.3-0.3,2c-1,8.1,1.1,16.1,5.9,22
		c4.2,5.2,10.1,8.3,16.5,8.7c0.6,0,1.2,0.1,1.8,0.1c13.4,0,25.3-11.5,27.2-26.2c1-8.1-1.1-16.1-5.9-22
		C387,283.9,381.1,280.8,374.7,280.3z M174.8,309.7c-0.1-0.8-0.1-1.8-0.1-3c0-1.2,0.2-2.7,0.7-4.5c0.5-1.8,0.9-3.3,1.3-4.5
		c0.4-1.2,0.9-2.3,1.6-3.3c0.7-1,1.6-1.7,2.7-2.3c1.1-0.6,2.5-0.9,4.2-0.9c0.9,0,1.8,0.5,2.5,1.6c0.7,1.1,1.2,2.5,1.3,4.2
		c0.1,1.2-0.4,2.7-1.6,4.6c-1.2,1.8-2.4,3.3-3.8,4.4c-1.3,1.1-2.8,2-4.3,2.7C177.7,309.4,176.2,309.7,174.8,309.7z M312.5,277.6
		c4.6-11.2,6-15.9,8.9-16.8c4.6-1.4,4.3,10.2-7.2,19.5C311,283,309.7,284.3,312.5,277.6z M328.6,309.6c0,0.2-0.1,1.1-0.2,1.3
		c-0.3,2.3-0.9,3.6-1.4,4.7c-2,4.5-5.9,8.1-9.3,8.7c-2.9,0.5-5.3,0.2-6.5-0.8c-1.2-1-1.8-3.3-1.6-6.2c0.1-3,1.1-9.1,2-15.9
		c0.4-2.2,1.3-3.3,2.3-3.7c0.8-0.3,2.9-0.8,5.2-0.6v0c0,0,3-0.1,5.4,2.1C326.8,301.3,329,305.2,328.6,309.6z M383.2,309.3
		c-1,8-7.4,14.4-14,13.9c-3.3-0.2-5.5-2.1-6.7-3.6c-2.4-2.9-3.4-7.1-2.9-11.4c1-7.7,6.9-14,13.3-14c0.2,0,0.5,0,0.7,0
		c3.3,0.2,5.5,2.1,6.7,3.6C382.7,300.8,383.8,304.9,383.2,309.3z"/>
	<path class="st0" d="M312.3,107.3h-8.6v-3.2c0-25.3-20.6-45.9-45.9-45.9h-10.1c-5.8,6.4-14.8,10.2-24.7,10.2
		c-10,0-18.9-3.9-24.7-10.2h-10.1c-25.3,0-45.9,20.6-45.9,45.9v3.2h-8.6c-3.9,0-7.1,3.2-7.1,7.1v49.5c0,3.9,3.2,7.1,7.1,7.1h8.6v2.7
		c0,25.3,20.6,45.9,45.9,45.9h69.5c25.3,0,45.9-20.6,45.9-45.9V171h8.6c3.9,0,7.1-3.2,7.1-7.1v-49.5
		C319.4,110.5,316.2,107.3,312.3,107.3z M291.3,173.6c0,18.5-15,33.5-33.5,33.5h-69.5c-18.5,0-33.5-15-33.5-33.5v-69.5
		c0-18.5,15-33.5,33.5-33.5h69.5c18.5,0,33.5,15,33.5,33.5V173.6z M266.1,87.1c-4.8,0-8.7,3.9-8.7,8.7c0,4.8,3.9,8.7,8.7,8.7
		c4.8,0,8.7-3.9,8.7-8.7C274.8,91,270.9,87.1,266.1,87.1z M223,65.2c9.2,0,15.9-3.8,20.4-9.4l-7.8-5c-2.6,3.4-7.3,5.6-12.6,5.6
		c-5.4,0-10.1-2.3-12.6-5.6l-7.7,5C207.1,61.4,213.8,65.2,223,65.2z M223,53c4,0,7.5-1.7,9.4-4.3l-5.4-3.5V9.6c0-2.2-1.8-4-4-4
		c-2.2,0-4,1.8-4,4v35.5l-5.4,3.5C215.5,51.2,219,53,223,53z M223,98.7c-22.2,0-40.2,18-40.2,40.2c0,22.2,18,40.2,40.2,40.2
		c22.2,0,40.2-18,40.2-40.2C263.2,116.7,245.2,98.7,223,98.7z M223,166.7c-15.3,0-27.8-12.5-27.8-27.8c0-15.3,12.5-27.8,27.8-27.8
		c15.3,0,27.8,12.5,27.8,27.8C250.8,154.2,238.3,166.7,223,166.7z"/>
</g>
</svg>
