<?xml version="1.0" encoding="utf-8"?>
<!-- Generator: Adobe Illustrator 19.0.0, SVG Export Plug-In . SVG Version: 6.00 Build 0)  -->
<svg version="1.1" id="Layer_1" xmlns="http://www.w3.org/2000/svg" xmlns:xlink="http://www.w3.org/1999/xlink" x="0px" y="0px"
	 viewBox="0 0 150 170" style="enable-background:new 0 0 150 170;" xml:space="preserve">
<style type="text/css">
	.st0{opacity:0.5;fill:#FFFFFF;}
</style>
<path class="st0" d="M144.5,80.9h-6.7v-2.5c0-19.7-16-35.7-35.7-35.7h-7.8c-4.5,5-11.5,8-19.2,8c-7.8,0-14.7-3-19.2-8H48
	c-19.7,0-35.7,16-35.7,35.7v2.5H5.5c-3,0-5.5,2.5-5.5,5.5v38.5c0,3,2.5,5.5,5.5,5.5h6.7v2.1c0,19.7,16,35.7,35.7,35.7H102
	c19.7,0,35.7-16,35.7-35.7v-2.1h6.7c3,0,5.5-2.5,5.5-5.5V86.4C150,83.3,147.5,80.9,144.5,80.9z M128.1,132.5
	c0,14.4-11.7,26.1-26.1,26.1H48c-14.4,0-26.1-11.7-26.1-26.1V78.4C21.9,64,33.6,52.3,48,52.3H102c14.4,0,26.1,11.7,26.1,26.1V132.5z
	 M108.5,65.2c-3.7,0-6.8,3-6.8,6.8c0,3.7,3,6.8,6.8,6.8c3.7,0,6.8-3,6.8-6.8C115.3,68.2,112.3,65.2,108.5,65.2z M75,48.1
	c7.1,0,12.3-2.9,15.9-7.3l-6-3.9c-2,2.6-5.7,4.4-9.8,4.4s-7.8-1.8-9.8-4.4l-6,3.9C62.7,45.2,67.9,48.1,75,48.1z M75,38.6
	c3.1,0,5.8-1.4,7.3-3.4l-4.2-2.7V4.9c0-1.7-1.4-3.1-3.1-3.1c-1.7,0-3.1,1.4-3.1,3.1v27.6l-4.2,2.7C69.2,37.2,71.9,38.6,75,38.6z
	 M75,74.2c-17.2,0-31.3,14-31.3,31.3c0,17.2,14,31.3,31.3,31.3c17.2,0,31.3-14,31.3-31.3C106.3,88.2,92.2,74.2,75,74.2z M75,127.1
	c-11.9,0-21.6-9.7-21.6-21.6c0-11.9,9.7-21.6,21.6-21.6c11.9,0,21.6,9.7,21.6,21.6C96.6,117.4,86.9,127.1,75,127.1z"/>
</svg>
