<?xml version="1.0" encoding="utf-8"?>
<!-- Generator: Adobe Illustrator 16.0.0, SVG Export Plug-In . SVG Version: 6.00 Build 0)  -->
<!DOCTYPE svg PUBLIC "-//W3C//DTD SVG 1.1//EN" "http://www.w3.org/Graphics/SVG/1.1/DTD/svg11.dtd">
<svg version="1.1" id="Layer_1" xmlns="http://www.w3.org/2000/svg" xmlns:xlink="http://www.w3.org/1999/xlink" x="0px" y="0px"
	 width="690px" height="905.095px" viewBox="0 0 690 905.095" enable-background="new 0 0 690 905.095" xml:space="preserve">
<g>
	<path fill="none" stroke="#5E8BCE" stroke-width="6" stroke-linecap="round" stroke-linejoin="round" stroke-miterlimit="10" d="
		M459.99,647.116h94.936c6.555,0,11.916-5.362,11.916-11.917l0,0c0-6.554-5.361-11.916-11.916-11.916H451.082"/>
	<path fill="none" stroke="#5E8BCE" stroke-width="6" stroke-linecap="round" stroke-linejoin="round" stroke-miterlimit="10" d="
		M360,662.362h4.936c6.555,0,11.916-5.362,11.916-11.917l0,0c0-6.554-5.361-11.917-11.916-11.917H361.5"/>
	<path fill="none" stroke="#5E8BCE" stroke-width="6" stroke-linecap="round" stroke-linejoin="round" stroke-miterlimit="10" d="
		M346.148,626.612L346.148,626.612c0,6.554,5.363,11.916,11.918,11.916h3.434"/>
	<g>
		
			<line fill="none" stroke="#5E8BCE" stroke-width="6" stroke-linecap="round" stroke-linejoin="round" stroke-miterlimit="10" x1="659.189" y1="682.867" x2="659.189" y2="804.867"/>
		<path fill="none" stroke="#5E8BCE" stroke-width="6" stroke-linecap="round" stroke-linejoin="round" stroke-miterlimit="10" d="
			M659.189,682.866L659.189,682.866c0-6.554-5.361-11.916-11.916-11.916H457.131"/>
	</g>
	<path fill="none" stroke="#5E8BCE" stroke-width="6" stroke-linecap="round" stroke-linejoin="round" stroke-miterlimit="10" d="
		M459.99,647.116h-6.898c-6.555,0-11.918,5.363-11.918,11.917l0,0c0,6.555,5.363,11.917,11.918,11.917h4.039"/>
	<path fill="none" stroke="#5E8BCE" stroke-width="6" stroke-linecap="round" stroke-linejoin="round" stroke-miterlimit="10" d="
		M391.879,686.195h-54.934c-6.555,0-11.918-5.362-11.918-11.917l0,0c0-6.554,5.363-11.916,10.418-11.916H360"/>
	<path fill="none" stroke="#5E8BCE" stroke-width="6" stroke-linecap="round" stroke-linejoin="round" stroke-miterlimit="10" d="
		M449.504,623.283H394.57c-6.555,0-11.918-5.362-11.918-11.917l0,0"/>
	<path fill="none" stroke="#5E8BCE" stroke-width="6" stroke-linecap="round" stroke-linejoin="round" stroke-miterlimit="10" d="
		M285.488,612.522v4.935c0,6.555,5.363,11.917,11.918,11.917l0,0c6.553,0,11.916-5.362,11.916-11.917v-3.435"/>
	<path fill="none" stroke="#5E8BCE" stroke-width="6" stroke-linecap="round" stroke-linejoin="round" stroke-miterlimit="10" d="
		M261.656,660.401v-55.935c0-6.555,5.361-11.917,11.916-11.917l0,0c6.555,0,11.916,5.362,11.916,10.417v9.556"/>
	<path fill="none" stroke="#5E8BCE" stroke-width="6" stroke-linecap="round" stroke-linejoin="round" stroke-miterlimit="10" d="
		M46,663.15h85.921c6.555,0,11.916-5.361,11.916-11.916l0,0c0-6.555-5.361-11.917-10.416-11.917h-9.557"/>
	<path fill="none" stroke="#5E8BCE" stroke-width="6" stroke-linecap="round" stroke-linejoin="round" stroke-miterlimit="10" d="
		M34.084,798.19V675.066c0-6.555,5.361-11.916,11.916-11.916l0,0"/>
	<path fill="none" stroke="#5E8BCE" stroke-width="6" stroke-linecap="round" stroke-linejoin="round" stroke-miterlimit="10" d="
		M173.744,615.484H86.809c-6.555,0-11.917,5.361-11.917,11.916l0,0c0,6.555,5.362,11.917,10.417,11.917h38.556"/>
	<path fill="none" stroke="#5E8BCE" stroke-width="6" stroke-linecap="round" stroke-linejoin="round" stroke-miterlimit="10" d="
		M391.879,686.195h6.9c6.555,0,11.916,5.363,11.916,11.917l0,0"/>
	<path fill="none" stroke="#5E8BCE" stroke-width="6" stroke-linecap="round" stroke-linejoin="round" stroke-miterlimit="10" d="
		M261.656,660.401v6.899c0,6.555-5.363,11.917-11.918,11.917l0,0"/>
	<path fill="none" stroke="#5E8BCE" stroke-width="6" stroke-linecap="round" stroke-linejoin="round" stroke-miterlimit="10" d="
		M204.476,679.218h-6.9c-6.555,0-11.916-5.363-11.916-11.917l0,0"/>
	<path fill="none" stroke="#5E8BCE" stroke-width="6" stroke-linecap="round" stroke-linejoin="round" stroke-miterlimit="10" d="
		M185.66,667.301v-39.9c0-6.555-5.363-11.916-11.916-11.916l0,0"/>
	
		<polyline fill="none" stroke="#5E8BCE" stroke-width="6" stroke-linecap="round" stroke-linejoin="round" stroke-miterlimit="10" points="
		382.652,611.366 382.652,611.366 382.652,555.831 	"/>
	<path fill="none" stroke="#5E8BCE" stroke-width="11" stroke-linejoin="round" stroke-miterlimit="10" d="M683.363,435.69v-164.89
		c0-9.49,1-20-12-41"/>
	<g>
		
			<rect x="658.318" y="218.912" transform="matrix(-0.471 -0.8821 0.8821 -0.471 784.8463 926.8304)" fill="#FFFFFF" stroke="#5E8BCE" stroke-width="2.4979" stroke-linecap="round" stroke-linejoin="round" stroke-miterlimit="10" width="24.023" height="18.341"/>
		
			<rect x="642.185" y="188.073" transform="matrix(-0.471 -0.8821 0.8821 -0.471 787.1638 880.0669)" fill="#FFFFFF" stroke="#5E8BCE" stroke-width="2.4979" stroke-linecap="round" stroke-linejoin="round" stroke-miterlimit="10" width="30.576" height="31.854"/>
	</g>
	<g>
		
			<line fill="none" stroke="#5E8BCE" stroke-width="11" stroke-linejoin="round" stroke-miterlimit="10" x1="416.156" y1="510.611" x2="536.5" y2="510.611"/>
		<g>
			
				<rect x="434.641" y="502.335" fill="#FFFFFF" stroke="#5E8BCE" stroke-width="2.4979" stroke-linecap="round" stroke-linejoin="round" stroke-miterlimit="10" width="20.586" height="15.627"/>
			
				<rect x="408.438" y="496.577" fill="#FFFFFF" stroke="#5E8BCE" stroke-width="2.4979" stroke-linecap="round" stroke-linejoin="round" stroke-miterlimit="10" width="26.203" height="27.143"/>
		</g>
	</g>
	<path fill="none" stroke="#5E8BCE" stroke-width="11" stroke-linejoin="round" stroke-miterlimit="10" d="M640.152,483.492h-53.248
		c-7.457,0-13.559-6.103-13.559-13.561l0,0c0-7.457,6.102-13.56,13.559-13.56h70.422"/>
	<path fill="none" stroke="#5E8BCE" stroke-width="11" stroke-linejoin="round" stroke-miterlimit="10" d="M640.152,483.492h3.246
		c7.459,0,13.561,6.102,13.561,13.56l0,0c0,7.458-6.102,13.56-13.561,13.56h-110.42"/>
	<path fill="none" stroke="#5E8BCE" stroke-width="11" stroke-linejoin="round" stroke-miterlimit="10" d="M649.789,456.372h12.893
		c11.375,0,20.682-9.307,20.682-20.682l0,0"/>
	
		<line fill="none" stroke="#5E8BCE" stroke-width="6" stroke-linecap="round" stroke-linejoin="round" stroke-miterlimit="10" x1="346.15" y1="626.613" x2="346.15" y2="554.376"/>
	
		<polyline fill="none" stroke="#5E8BCE" stroke-width="6" stroke-linecap="round" stroke-linejoin="round" stroke-miterlimit="10" points="
		410.695,698.112 410.695,734.801 410.695,807.801 	"/>
	
		<polyline fill="none" stroke="#5E8BCE" stroke-width="6" stroke-linecap="round" stroke-linejoin="round" stroke-miterlimit="10" points="
		309.322,614.022 309.322,614.022 309.322,572.801 	"/>
	<g>
		<text transform="matrix(1 0 0 1 72.6602 278.5068)"><tspan x="0" y="0" fill="#5E8BCE" font-family="'SFUIDisplay-Bold'" font-size="36">СКАНИРУЕТ КОММЕНТАРИИ</tspan><tspan x="0" y="43.2" fill="#5E8BCE" font-family="'SFUIDisplay-Bold'" font-size="36">И DIRECT В INSTAGRAM </tspan></text>
	</g>
	<g>
		<text transform="matrix(1 0 0 1 72.6602 396.5186)"><tspan x="0" y="0" fill="#5E8BCE" font-family="'SFUIDisplay-Bold'" font-size="36">БЫСТРО ОТВЕЧАЕТ</tspan><tspan x="0" y="43.2" fill="#5E8BCE" font-family="'SFUIDisplay-Bold'" font-size="36">КЛИЕНТАМ В DIRECT</tspan></text>
	</g>
	
		<linearGradient id="SVGID_1_" gradientUnits="userSpaceOnUse" x1="3457.6074" y1="189.5015" x2="3584.0613" y2="63.0476" gradientTransform="matrix(1 0 0 1 -3429.4883 0)">
		<stop  offset="0" style="stop-color:#F4A44E"/>
		<stop  offset="0.35" style="stop-color:#E6483B"/>
		<stop  offset="0.6989" style="stop-color:#C30F7A"/>
		<stop  offset="1" style="stop-color:#A7178C"/>
	</linearGradient>
	<path fill="url(#SVGID_1_)" d="M91.347,88.211c-20.689,0-37.52,17.073-37.52,38.058c0,20.994,16.83,38.07,37.52,38.07
		s37.518-17.076,37.518-38.07C128.865,105.284,112.036,88.211,91.347,88.211z M91.347,152.581c-14.298,0-25.93-11.805-25.93-26.311
		c0-14.498,11.631-26.301,25.93-26.301c14.292,0,25.927,11.803,25.927,26.301C117.273,140.776,105.639,152.581,91.347,152.581z
		 M131.577,77.222c-4.481,0-8.114,3.689-8.114,8.236c0,4.545,3.633,8.233,8.114,8.233c4.481,0,8.113-3.688,8.113-8.233
		C139.69,80.912,136.059,77.222,131.577,77.222z M123.803,49.831h-6.117l0,0h-55.89l0,0H58.89C35.24,49.831,16,69.355,16,93.342
		v65.864c0,23.989,19.24,43.509,42.89,43.509h64.913c23.651,0,42.887-19.52,42.887-43.509V93.342
		C166.69,69.355,147.454,49.831,123.803,49.831z M93.565,59.432c-0.734,0.046-1.473,0.079-2.218,0.079
		c-0.747,0-1.486-0.032-2.22-0.079H93.565z M155.099,159.207c0,17.503-14.042,31.751-31.296,31.751H58.89
		c-17.26,0-31.297-14.248-31.297-31.751V93.342c0-17.506,14.037-31.75,31.297-31.75h64.913c17.254,0,31.296,14.244,31.296,31.75
		V159.207z"/>
	<g>
		<g>
			
				<rect x="304.869" y="568.152" fill="#FFFFFF" stroke="#5E8BCE" stroke-width="2.4979" stroke-linecap="round" stroke-linejoin="round" stroke-miterlimit="10" width="9.664" height="12.1"/>
			
				<rect x="301.308" y="553.252" fill="#FFFFFF" stroke="#5E8BCE" stroke-width="2.4979" stroke-linecap="round" stroke-linejoin="round" stroke-miterlimit="10" width="16.785" height="14.9"/>
		</g>
		<g>
			
				<rect x="341.285" y="568.152" fill="#FFFFFF" stroke="#5E8BCE" stroke-width="2.4979" stroke-linecap="round" stroke-linejoin="round" stroke-miterlimit="10" width="9.667" height="12.1"/>
			
				<rect x="337.724" y="553.252" fill="#FFFFFF" stroke="#5E8BCE" stroke-width="2.4979" stroke-linecap="round" stroke-linejoin="round" stroke-miterlimit="10" width="16.788" height="14.9"/>
		</g>
		<g>
			
				<rect x="377.701" y="568.152" fill="#FFFFFF" stroke="#5E8BCE" stroke-width="2.4979" stroke-linecap="round" stroke-linejoin="round" stroke-miterlimit="10" width="9.664" height="12.1"/>
			
				<rect x="374.141" y="553.252" fill="#FFFFFF" stroke="#5E8BCE" stroke-width="2.4979" stroke-linecap="round" stroke-linejoin="round" stroke-miterlimit="10" width="16.787" height="14.9"/>
		</g>
	</g>
	<g>
		<path fill="none" d="M632.457,61.597h-64.911c-17.26,0-31.296,14.243-31.296,31.749v65.861c0,17.503,14.036,31.749,31.296,31.749
			h64.911c17.252,0,31.295-14.246,31.295-31.749V93.346C663.752,75.839,649.709,61.597,632.457,61.597z M600,164.341
			c-20.686,0-37.516-17.076-37.516-38.07c0-20.984,16.83-38.057,37.516-38.057c20.689,0,37.518,17.073,37.518,38.057
			C637.518,147.265,620.689,164.341,600,164.341z M640.23,93.695c-4.48,0-8.113-3.688-8.113-8.234s3.633-8.234,8.113-8.234
			s8.111,3.688,8.111,8.234S644.711,93.695,640.23,93.695z"/>
		<path fill="none" d="M600,99.971c-14.298,0-25.928,11.804-25.928,26.3c0,14.506,11.63,26.312,25.928,26.312
			c14.293,0,25.928-11.805,25.928-26.312C625.928,111.774,614.293,99.971,600,99.971z"/>
		<path fill="#5E8BCE" d="M600.004,56.448c8.561,0,14.808-3.553,19.039-8.892l-7.236-4.778c-2.42,3.191-6.79,5.327-11.807,5.327
			c-5.015,0-9.388-2.136-11.809-5.327l-7.23,4.778C585.195,52.895,591.439,56.448,600.004,56.448z"/>
		<path fill="#5E8BCE" d="M591.224,40.776c1.811,2.458,5.057,4.103,8.78,4.103c3.716,0,6.959-1.645,8.777-4.103l-5.007-3.31h-7.547
			L591.224,40.776z"/>
		<path fill="#5E8BCE" d="M683.396,96.34h-8.055v-2.994c0-23.987-19.236-43.511-42.885-43.511h-9.405
			c-5.424,6.032-13.811,9.68-23.052,9.68c-9.311,0-17.684-3.705-23.067-9.68h-9.387c-23.651,0-42.889,19.523-42.889,43.511v2.994
			h-8.053c-3.632,0-6.604,3.018-6.604,6.703v46.911c0,3.688,2.973,6.705,6.604,6.705h8.053v2.549
			c0,23.988,19.237,43.508,42.889,43.508h64.911c23.648,0,42.885-19.52,42.885-43.508v-2.549h8.055c3.631,0,6.604-3.018,6.604-6.705
			v-46.911C690,99.357,687.027,96.34,683.396,96.34z M663.752,159.207c0,17.503-14.043,31.749-31.295,31.749h-64.911
			c-17.26,0-31.296-14.246-31.296-31.749V93.346c0-17.506,14.036-31.749,31.296-31.749h64.911c17.252,0,31.295,14.243,31.295,31.749
			V159.207z"/>
		<ellipse fill="#5E8BCE" cx="640.23" cy="85.461" rx="8.113" ry="8.234"/>
		<path fill="#5E8BCE" d="M600,88.214c-20.686,0-37.516,17.073-37.516,38.057c0,20.994,16.83,38.07,37.516,38.07
			c20.689,0,37.518-17.076,37.518-38.07C637.518,105.287,620.689,88.214,600,88.214z M600,152.583
			c-14.298,0-25.928-11.805-25.928-26.312c0-14.497,11.63-26.3,25.928-26.3c14.293,0,25.928,11.804,25.928,26.3
			C625.928,140.777,614.293,152.583,600,152.583z"/>
		<path fill="#5E8BCE" d="M600,0c-2.073,0-3.772,1.726-3.772,3.831v33.636h7.547V3.831C603.774,1.726,602.075,0,600,0z"/>
	</g>
	
		<rect x="280.75" y="489.879" fill="#FFFFFF" stroke="#5E8BCE" stroke-width="2.4979" stroke-linecap="round" stroke-linejoin="round" stroke-miterlimit="10" width="128.5" height="64.496"/>
	<g>
		
			<circle fill="#FFFFFF" stroke="#5E8BCE" stroke-width="2.4979" stroke-linecap="round" stroke-linejoin="round" stroke-miterlimit="10" cx="361.793" cy="511.598" r="3.959"/>
		
			<circle fill="#FFFFFF" stroke="#5E8BCE" stroke-width="2.4979" stroke-linecap="round" stroke-linejoin="round" stroke-miterlimit="10" cx="378.4" cy="511.598" r="3.959"/>
		
			<circle fill="#FFFFFF" stroke="#5E8BCE" stroke-width="2.4979" stroke-linecap="round" stroke-linejoin="round" stroke-miterlimit="10" cx="395.008" cy="511.598" r="3.959"/>
	</g>
	<g>
		<g>
			<g>
				
					<path fill="#FFFFFF" stroke="#5E8BCE" stroke-width="2.4979" stroke-linecap="round" stroke-linejoin="round" stroke-miterlimit="10" d="
					M211.412,880.911v-98.525c0-4.566-3.736-8.302-8.301-8.302H21.365c-4.564,0-8.301,3.735-8.301,8.302v98.525H211.412z"/>
				
					<path fill="#FFFFFF" stroke="#5E8BCE" stroke-width="2.4979" stroke-linecap="round" stroke-linejoin="round" stroke-miterlimit="10" d="
					M0.078,875.358C0.031,875.809,0,876.266,0,876.736c0,4.815,2.526,8.718,5.641,8.718h213.195c3.115,0,5.641-3.902,5.641-8.718
					c0-0.471-0.031-0.928-0.076-1.378H0.078z"/>
				
					<rect x="20.637" y="782.124" fill="#FFFFFF" stroke="#5E8BCE" stroke-width="2.4979" stroke-linecap="round" stroke-linejoin="round" stroke-miterlimit="10" width="183.203" height="88.78"/>
			</g>
			
				<path fill="none" stroke="#5E8BCE" stroke-width="2.4979" stroke-linecap="round" stroke-linejoin="round" stroke-miterlimit="10" d="
				M70.529,741.035c-1.785,5.169-3.539,9.021-4.211,18.728c-0.117,1.688,0.083,6.268,0.244,7.915"/>
			
				<path fill="none" stroke="#5E8BCE" stroke-width="2.4979" stroke-linecap="round" stroke-linejoin="round" stroke-miterlimit="10" d="
				M153.007,732.905c-8.433-13.345-22.97-22.157-39.49-22.156c-10.667,0-20.508,3.674-28.412,9.871"/>
			
				<path fill="none" stroke="#5E8BCE" stroke-width="2.4979" stroke-linecap="round" stroke-linejoin="round" stroke-miterlimit="10" d="
				M160.474,766.226c0.16-1.646,0.242-4.771,0.242-6.463c0-9.916-2.834-19.144-7.709-26.857"/>
			
				<path fill="none" stroke="#5E8BCE" stroke-width="2.4979" stroke-linecap="round" stroke-linejoin="round" stroke-miterlimit="10" d="
				M91.465,795.958c-11.038,0-13.268-5.901-17.4-10.66"/>
			
				<path fill="#FFFFFF" stroke="#5E8BCE" stroke-width="2.4979" stroke-linecap="round" stroke-linejoin="round" stroke-miterlimit="10" d="
				M148.572,755.632l1.24-26.429c0,0-2.596-3.325-8.782-6.716c-8.007-4.391-23.198-8.418-42.302-5.504
				c-14.941,2.28-21.523,8.103-21.523,8.103c8.266-2.065,2.279,2.28-3.072,5.15c-6.515,3.496-9.813,0.518-9.813,0.518
				s0.475,6.995,6.301,10.287c8.195,4.632,8.522,4.118,8.527,4.02c0.005,0.131,0.248,7.212,0.465,12.909l-3.047,5.225l6.257,21.938
				c4.288,9.675,17.06,19.195,31.379,19.195c14.591,0,26.86-9.233,30.923-19.195l3.611-24.788L148.572,755.632z"/>
			<g>
				
					<path fill="#FFFFFF" stroke="#5E8BCE" stroke-width="2.4979" stroke-linecap="round" stroke-linejoin="round" stroke-miterlimit="10" d="
					M148.49,757.296l5.398,0.652c3.281,0.396,5.641,3.404,5.242,6.686l-0.271,2.25l1.137,0.137c1.344,0.162,2.313,1.396,2.148,2.74
					l-0.787,6.519c-0.164,1.346-1.396,2.313-2.74,2.15l-1.137-0.138l-0.271,2.249c-0.398,3.281-3.406,5.641-6.688,5.244
					l-5.396-0.653L148.49,757.296z"/>
				
					<path fill="#FFFFFF" stroke="#5E8BCE" stroke-width="2.4979" stroke-linecap="round" stroke-linejoin="round" stroke-miterlimit="10" d="
					M79.457,757.296l-5.396,0.652c-3.281,0.396-5.641,3.404-5.244,6.686l0.273,2.25l-1.139,0.137
					c-1.342,0.162-2.311,1.396-2.147,2.74l0.788,6.519c0.162,1.346,1.396,2.313,2.74,2.15l1.137-0.138l0.271,2.249
					c0.396,3.281,3.405,5.641,6.686,5.244l5.397-0.653L79.457,757.296z"/>
			</g>
			
				<path fill="#FFFFFF" stroke="#5E8BCE" stroke-width="2.4979" stroke-linecap="round" stroke-linejoin="round" stroke-miterlimit="10" d="
				M147.445,889.546l4.455-36.819c0,0,12.471,34.443,23.457,36.521c6.715,1.271,12.766-2.078,14.549-8.313
				c1.781-6.235-2.969-18.112-7.424-29.99c-4.453-11.876-14.549-33.849-22.566-38.006c-8.016-4.156-28.208-8.907-28.208-8.907
				c-3.69,2.539-12.438,4.786-16.839,4.786c-4.715,0-15.119-1.896-19.002-4.786c0,0-20.191,4.751-28.208,8.907
				c-8.017,4.157-18.112,26.13-22.565,38.006c-4.455,11.878-9.206,23.755-7.424,29.99c1.781,6.235,7.833,9.585,14.549,8.313
				c10.986-2.078,23.457-36.521,23.457-36.521l4.454,36.819"/>
			
				<path fill="none" stroke="#5E8BCE" stroke-width="2.4979" stroke-linecap="round" stroke-linejoin="round" stroke-miterlimit="10" d="
				M66.805,891.363c13.699-1.382,29.39-2.167,46.065-2.167c18.062,0,34.967,0.922,49.44,2.525"/>
		</g>
		<g>
			<g>
				
					<path fill="#FFFFFF" stroke="#5E8BCE" stroke-width="2.4979" stroke-linecap="round" stroke-linejoin="round" stroke-miterlimit="10" d="
					M444.172,880.911v-98.525c0-4.566-3.732-8.302-8.299-8.302H254.128c-4.566,0-8.303,3.735-8.303,8.302v98.525H444.172z"/>
				
					<path fill="#FFFFFF" stroke="#5E8BCE" stroke-width="2.4979" stroke-linecap="round" stroke-linejoin="round" stroke-miterlimit="10" d="
					M232.839,875.358c-0.047,0.45-0.078,0.907-0.078,1.378c0,4.815,2.527,8.718,5.643,8.718h213.194
					c3.115,0,5.641-3.902,5.641-8.718c0-0.471-0.031-0.928-0.076-1.378H232.839z"/>
				
					<rect x="253.398" y="782.124" fill="#FFFFFF" stroke="#5E8BCE" stroke-width="2.4979" stroke-linecap="round" stroke-linejoin="round" stroke-miterlimit="10" width="183.204" height="88.78"/>
			</g>
			
				<path fill="none" stroke="#5E8BCE" stroke-width="2.4979" stroke-linecap="round" stroke-linejoin="round" stroke-miterlimit="10" d="
				M303.291,741.035c-1.785,5.169-3.537,9.021-4.209,18.728c-0.117,1.688,0.082,6.268,0.242,7.915"/>
			
				<path fill="none" stroke="#5E8BCE" stroke-width="2.4979" stroke-linecap="round" stroke-linejoin="round" stroke-miterlimit="10" d="
				M385.77,732.905c-8.434-13.345-22.971-22.157-39.49-22.156c-10.667,0-20.506,3.674-28.413,9.871"/>
			
				<path fill="none" stroke="#5E8BCE" stroke-width="2.4979" stroke-linecap="round" stroke-linejoin="round" stroke-miterlimit="10" d="
				M393.236,766.226c0.16-1.646,0.242-4.771,0.242-6.463c0-9.916-2.834-19.144-7.709-26.857"/>
			
				<path fill="none" stroke="#5E8BCE" stroke-width="2.4979" stroke-linecap="round" stroke-linejoin="round" stroke-miterlimit="10" d="
				M324.226,795.958c-11.037,0-13.268-5.901-17.4-10.66"/>
			
				<path fill="#FFFFFF" stroke="#5E8BCE" stroke-width="2.4979" stroke-linecap="round" stroke-linejoin="round" stroke-miterlimit="10" d="
				M381.334,755.632l1.24-26.429c0,0-2.596-3.325-8.781-6.716c-8.008-4.391-23.199-8.418-42.303-5.504
				c-14.939,2.28-21.523,8.103-21.523,8.103c8.266-2.065,2.279,2.28-3.072,5.15c-6.514,3.496-9.813,0.518-9.813,0.518
				s0.477,6.995,6.301,10.287c8.195,4.632,8.523,4.118,8.527,4.02c0.006,0.131,0.248,7.212,0.467,12.909l-3.049,5.225l6.258,21.938
				c4.287,9.675,17.059,19.195,31.379,19.195c14.592,0,26.859-9.233,30.922-19.195l3.613-24.788L381.334,755.632z"/>
			<g>
				
					<path fill="#FFFFFF" stroke="#5E8BCE" stroke-width="2.4979" stroke-linecap="round" stroke-linejoin="round" stroke-miterlimit="10" d="
					M381.254,757.296l5.396,0.652c3.281,0.396,5.641,3.404,5.244,6.686l-0.271,2.25l1.135,0.137c1.344,0.162,2.313,1.396,2.148,2.74
					l-0.787,6.519c-0.164,1.346-1.396,2.313-2.74,2.15l-1.137-0.138l-0.271,2.249c-0.396,3.281-3.404,5.641-6.686,5.244
					l-5.398-0.653L381.254,757.296z"/>
				
					<path fill="#FFFFFF" stroke="#5E8BCE" stroke-width="2.4979" stroke-linecap="round" stroke-linejoin="round" stroke-miterlimit="10" d="
					M312.218,757.296l-5.396,0.652c-3.281,0.396-5.641,3.404-5.244,6.686l0.273,2.25l-1.137,0.137
					c-1.344,0.162-2.311,1.396-2.148,2.74l0.787,6.519c0.162,1.346,1.396,2.313,2.742,2.15l1.135-0.138l0.271,2.249
					c0.398,3.281,3.406,5.641,6.688,5.244l5.396-0.653L312.218,757.296z"/>
			</g>
			
				<path fill="#FFFFFF" stroke="#5E8BCE" stroke-width="2.4979" stroke-linecap="round" stroke-linejoin="round" stroke-miterlimit="10" d="
				M380.207,889.546l4.455-36.819c0,0,12.471,34.443,23.457,36.521c6.717,1.271,12.768-2.078,14.549-8.313
				s-2.969-18.112-7.424-29.99c-4.453-11.876-14.549-33.849-22.566-38.006c-8.016-4.156-28.207-8.907-28.207-8.907
				c-3.691,2.539-12.439,4.786-16.84,4.786c-4.715,0-15.12-1.896-19.002-4.786c0,0-20.189,4.751-28.207,8.907
				c-8.018,4.157-18.113,26.13-22.566,38.006c-4.453,11.878-9.205,23.755-7.424,29.99s7.834,9.585,14.549,8.313
				c10.986-2.078,23.459-36.521,23.459-36.521l4.453,36.819"/>
			
				<path fill="none" stroke="#5E8BCE" stroke-width="2.4979" stroke-linecap="round" stroke-linejoin="round" stroke-miterlimit="10" d="
				M299.568,891.363c13.699-1.382,29.389-2.167,46.065-2.167c18.061,0,34.967,0.922,49.439,2.525"/>
		</g>
		<g>
			<g>
				
					<path fill="#FFFFFF" stroke="#5E8BCE" stroke-width="2.4979" stroke-linecap="round" stroke-linejoin="round" stroke-miterlimit="10" d="
					M676.936,880.911v-98.525c0-4.566-3.734-8.302-8.301-8.302H486.891c-4.566,0-8.301,3.735-8.301,8.302v98.525H676.936z"/>
				
					<path fill="#FFFFFF" stroke="#5E8BCE" stroke-width="2.4979" stroke-linecap="round" stroke-linejoin="round" stroke-miterlimit="10" d="
					M465.602,875.358c-0.047,0.45-0.078,0.907-0.078,1.378c0,4.815,2.527,8.718,5.643,8.718h213.193
					c3.115,0,5.641-3.902,5.641-8.718c0-0.471-0.031-0.928-0.076-1.378H465.602z"/>
				
					<rect x="486.16" y="782.124" fill="#FFFFFF" stroke="#5E8BCE" stroke-width="2.4979" stroke-linecap="round" stroke-linejoin="round" stroke-miterlimit="10" width="183.203" height="88.78"/>
			</g>
			
				<path fill="none" stroke="#5E8BCE" stroke-width="2.4979" stroke-linecap="round" stroke-linejoin="round" stroke-miterlimit="10" d="
				M536.055,741.035c-1.787,5.169-3.541,9.021-4.211,18.728c-0.117,1.688,0.082,6.268,0.242,7.915"/>
			
				<path fill="none" stroke="#5E8BCE" stroke-width="2.4979" stroke-linecap="round" stroke-linejoin="round" stroke-miterlimit="10" d="
				M618.531,732.905c-8.432-13.345-22.971-22.157-39.488-22.156c-10.668,0-20.508,3.674-28.414,9.871"/>
			
				<path fill="none" stroke="#5E8BCE" stroke-width="2.4979" stroke-linecap="round" stroke-linejoin="round" stroke-miterlimit="10" d="
				M625.998,766.226c0.16-1.646,0.244-4.771,0.244-6.463c0-9.916-2.836-19.144-7.711-26.857"/>
			
				<path fill="none" stroke="#5E8BCE" stroke-width="2.4979" stroke-linecap="round" stroke-linejoin="round" stroke-miterlimit="10" d="
				M556.99,795.958c-11.039,0-13.27-5.901-17.4-10.66"/>
			
				<path fill="#FFFFFF" stroke="#5E8BCE" stroke-width="2.4979" stroke-linecap="round" stroke-linejoin="round" stroke-miterlimit="10" d="
				M614.096,755.632l1.24-26.429c0,0-2.596-3.325-8.781-6.716c-8.008-4.391-23.199-8.418-42.301-5.504
				c-14.943,2.28-21.525,8.103-21.525,8.103c8.266-2.065,2.279,2.28-3.07,5.15c-6.516,3.496-9.814,0.518-9.814,0.518
				s0.475,6.995,6.303,10.287c8.193,4.632,8.521,4.118,8.527,4.02c0.004,0.131,0.248,7.212,0.465,12.909l-3.047,5.225l6.256,21.938
				c4.287,9.675,17.061,19.195,31.379,19.195c14.592,0,26.859-9.233,30.924-19.195l3.611-24.788L614.096,755.632z"/>
			<g>
				
					<path fill="#FFFFFF" stroke="#5E8BCE" stroke-width="2.4979" stroke-linecap="round" stroke-linejoin="round" stroke-miterlimit="10" d="
					M614.016,757.296l5.398,0.652c3.279,0.396,5.639,3.404,5.242,6.686l-0.271,2.25l1.137,0.137c1.342,0.162,2.311,1.396,2.146,2.74
					l-0.787,6.519c-0.162,1.346-1.396,2.313-2.74,2.15l-1.137-0.138l-0.271,2.249c-0.396,3.281-3.404,5.641-6.686,5.244
					l-5.396-0.653L614.016,757.296z"/>
				
					<path fill="#FFFFFF" stroke="#5E8BCE" stroke-width="2.4979" stroke-linecap="round" stroke-linejoin="round" stroke-miterlimit="10" d="
					M544.982,757.296l-5.398,0.652c-3.281,0.396-5.641,3.404-5.242,6.686l0.271,2.25l-1.137,0.137
					c-1.344,0.162-2.313,1.396-2.148,2.74l0.787,6.519c0.164,1.346,1.396,2.313,2.742,2.15l1.135-0.138l0.273,2.249
					c0.396,3.281,3.404,5.641,6.686,5.244l5.396-0.653L544.982,757.296z"/>
			</g>
			
				<path fill="#FFFFFF" stroke="#5E8BCE" stroke-width="2.4979" stroke-linecap="round" stroke-linejoin="round" stroke-miterlimit="10" d="
				M612.969,889.546l4.455-36.819c0,0,12.471,34.443,23.457,36.521c6.717,1.271,12.768-2.078,14.549-8.313
				s-2.969-18.112-7.424-29.99c-4.453-11.876-14.549-33.849-22.566-38.006c-8.016-4.156-28.207-8.907-28.207-8.907
				c-3.689,2.539-12.439,4.786-16.838,4.786c-4.715,0-15.119-1.896-19.004-4.786c0,0-20.191,4.751-28.207,8.907
				c-8.016,4.157-18.111,26.13-22.566,38.006c-4.453,11.878-9.205,23.755-7.424,29.99c1.783,6.235,7.834,9.585,14.551,8.313
				c10.986-2.078,23.455-36.521,23.455-36.521l4.455,36.819"/>
			
				<path fill="none" stroke="#5E8BCE" stroke-width="2.4979" stroke-linecap="round" stroke-linejoin="round" stroke-miterlimit="10" d="
				M532.33,891.363c13.699-1.382,29.389-2.167,46.064-2.167c18.063,0,34.969,0.922,49.439,2.525"/>
		</g>
	</g>
	
		<line fill="none" stroke="#5E8BCE" stroke-width="6" stroke-linecap="round" stroke-linejoin="round" stroke-miterlimit="10" x1="249.738" y1="679.218" x2="204.476" y2="679.218"/>
	<g>
		<linearGradient id="SVGID_2_" gradientUnits="userSpaceOnUse" x1="214.6421" y1="126.2729" x2="325.9346" y2="126.2729">
			<stop  offset="0" style="stop-color:#F4A44E"/>
			<stop  offset="0.35" style="stop-color:#E6483B"/>
			<stop  offset="0.6989" style="stop-color:#5E8BCE"/>
			<stop  offset="1" style="stop-color:#5E8BCE"/>
		</linearGradient>
		<path fill="url(#SVGID_2_)" d="M235.919,100.172c-1.744,1.308-2.094,3.773-0.791,5.513c4.48,5.979,6.846,13.097,6.848,20.587
			c0,7.49-2.367,14.609-6.848,20.587c-1.305,1.741-0.951,4.209,0.789,5.514c1.588,1.189,3.781,1,5.145-0.363
			c0.131-0.131,0.254-0.274,0.369-0.427c5.51-7.352,8.422-16.104,8.422-25.311c0-9.206-2.912-17.958-8.422-25.311
			C240.128,99.222,237.659,98.868,235.919,100.172z M216.194,114.833c-1.736,1.32-2.063,3.79-0.742,5.519
			c1.313,1.721,2.006,3.769,2.006,5.922c0,2.152-0.693,4.198-2.006,5.918c-1.32,1.729-0.988,4.201,0.742,5.521
			c1.586,1.211,3.797,1.031,5.17-0.343c0.125-0.124,0.242-0.257,0.35-0.399c2.369-3.105,3.621-6.804,3.621-10.697
			c0-3.895-1.252-7.593-3.621-10.698C220.396,113.847,217.923,113.514,216.194,114.833z M261.257,87.226
			c-1.305-1.74-3.773-2.095-5.514-0.79c-1.742,1.307-2.094,3.774-0.789,5.514c7.469,9.965,11.416,21.834,11.416,34.323
			s-3.947,24.358-11.418,34.324c-1.303,1.74-0.951,4.209,0.791,5.513c1.588,1.19,3.781,1,5.143-0.362
			c0.133-0.131,0.256-0.274,0.369-0.427c8.5-11.339,12.992-24.842,12.992-39.047C274.247,112.066,269.755,98.564,261.257,87.226z
			 M281.028,73.175c-1.305-1.74-3.773-2.094-5.514-0.79c-1.74,1.305-2.094,3.772-0.789,5.514
			c10.523,14.046,16.088,30.773,16.09,48.375c0,17.6-5.564,34.328-16.092,48.374c-1.303,1.74-0.951,4.208,0.791,5.513
			c1.588,1.19,3.781,1,5.145-0.363c0.131-0.131,0.254-0.274,0.369-0.427c11.555-15.42,17.664-33.781,17.664-53.098
			C298.69,106.955,292.583,88.594,281.028,73.175z M301.241,60.148c-0.877,0-1.711,0.278-2.412,0.805
			c-1.781,1.333-2.143,3.867-0.811,5.646c12.984,17.326,19.85,37.961,19.852,59.673c0,21.713-6.865,42.348-19.852,59.675
			c-1.334,1.778-0.971,4.311,0.809,5.645c0.703,0.527,1.537,0.806,2.414,0.806c1.08,0,2.094-0.418,2.852-1.177
			c0.135-0.135,0.262-0.281,0.381-0.438c14.039-18.733,21.461-41.04,21.461-64.509c-0.002-23.471-7.424-45.779-21.463-64.511
			C303.704,60.736,302.524,60.148,301.241,60.148z"/>
		<linearGradient id="SVGID_3_" gradientUnits="userSpaceOnUse" x1="351.1357" y1="126.2725" x2="462.4277" y2="126.2725">
			<stop  offset="0" style="stop-color:#F4A44E"/>
			<stop  offset="0.35" style="stop-color:#E6483B"/>
			<stop  offset="0.6989" style="stop-color:#5E8BCE"/>
			<stop  offset="1" style="stop-color:#5E8BCE"/>
		</linearGradient>
		<path fill="url(#SVGID_3_)" d="M359.201,126.272c0.002-21.711,6.865-42.346,19.85-59.672c1.334-1.78,0.971-4.313-0.809-5.646
			c-0.703-0.527-1.537-0.805-2.414-0.805c-1.283,0-2.461,0.588-3.23,1.614c-14.04,18.732-21.46,41.04-21.462,64.511
			c0,23.47,7.422,45.776,21.462,64.509c0.119,0.157,0.246,0.304,0.379,0.438c0.76,0.759,1.771,1.177,2.852,1.177
			c0.877,0,1.713-0.279,2.416-0.806c1.777-1.334,2.141-3.866,0.809-5.645C366.066,168.62,359.201,147.985,359.201,126.272z
			 M386.254,126.273c0.002-17.602,5.566-34.329,16.092-48.375c1.305-1.741,0.951-4.21-0.789-5.514
			c-1.74-1.305-4.209-0.951-5.514,0.79c-11.557,15.419-17.664,33.78-17.666,53.099c0,19.316,6.109,37.678,17.666,53.098
			c0.115,0.152,0.238,0.296,0.369,0.427c1.363,1.362,3.557,1.553,5.145,0.362c1.742-1.305,2.094-3.772,0.791-5.513
			C391.818,160.602,386.254,143.873,386.254,126.273z M441.152,100.172c-1.742-1.304-4.211-0.95-5.514,0.79
			c-5.51,7.353-8.42,16.104-8.42,25.31c-0.002,9.207,2.91,17.959,8.42,25.31c0.115,0.154,0.238,0.297,0.369,0.428
			c1.363,1.363,3.557,1.552,5.145,0.362c1.74-1.304,2.094-3.771,0.789-5.513c-4.48-5.979-6.848-13.097-6.848-20.587
			c0.002-7.49,2.369-14.608,6.848-20.586C443.246,103.944,442.896,101.48,441.152,100.172z M421.328,86.436
			c-1.742-1.305-4.209-0.951-5.514,0.79c-8.498,11.338-12.99,24.841-12.99,39.047s4.492,27.708,12.99,39.048
			c0.115,0.153,0.238,0.296,0.369,0.427c1.363,1.363,3.557,1.553,5.145,0.362c1.74-1.305,2.094-3.773,0.789-5.513
			c-7.469-9.966-11.418-21.835-11.418-34.324s3.949-24.358,11.418-34.323C423.422,90.21,423.07,87.742,421.328,86.436z
			 M459.613,126.273c0-2.153,0.693-4.201,2.006-5.922c1.318-1.729,0.994-4.198-0.744-5.52c-1.729-1.319-4.199-0.986-5.52,0.743
			c-2.367,3.104-3.619,6.803-3.619,10.698c0,3.893,1.252,7.592,3.619,10.697c0.109,0.142,0.227,0.275,0.35,0.399
			c1.373,1.374,3.584,1.554,5.17,0.343c1.73-1.32,2.063-3.791,0.744-5.521C460.307,130.472,459.611,128.425,459.613,126.273z"/>
	</g>
</g>
</svg>
