<svg id="Layer_1" data-name="Layer 1" xmlns="http://www.w3.org/2000/svg" viewBox="0 0 143.67 32.39"><defs><style>.cls-1{fill:#ee3959;}.cls-2{fill:#fbd050;}.cls-3{fill:#5fa76e;}.cls-4{fill:#608ac7;}.cls-5{fill:#fff;}</style></defs><title>logo</title><path class="cls-1" d="M355.82,115.82a7.46,7.46,0,0,0-5.13,12.89,4.71,4.71,0,0,1-.82,1,5,5,0,0,1-1.5.94c0.4,0,.75.07,1.08,0.07a5.55,5.55,0,0,0,1.69-.27,8.3,8.3,0,0,0,1.27-.5A7.47,7.47,0,1,0,355.82,115.82Z" transform="translate(-225 -112.94)"/><circle class="cls-2" cx="130.82" cy="10.45" r="6.54"/><path class="cls-3" d="M355.82,129a5.6,5.6,0,1,1,5.6-5.6A5.61,5.61,0,0,1,355.82,129Z" transform="translate(-225 -112.94)"/><path class="cls-4" d="M355.82,128.06a4.67,4.67,0,1,1,4.67-4.67A4.67,4.67,0,0,1,355.82,128.06Z" transform="translate(-225 -112.94)"/><path class="cls-1" d="M355.82,127.13a3.73,3.73,0,1,1,3.73-3.73A3.74,3.74,0,0,1,355.82,127.13Z" transform="translate(-225 -112.94)"/><path class="cls-2" d="M355.82,126.2a2.8,2.8,0,1,1,2.8-2.8A2.81,2.81,0,0,1,355.82,126.2Z" transform="translate(-225 -112.94)"/><circle class="cls-3" cx="130.82" cy="10.45" r="1.87"/><circle class="cls-4" cx="130.82" cy="10.45" r="0.93"/><path class="cls-5" d="M225.21,122.34a4.45,4.45,0,0,1-.07-2.4,3.57,3.57,0,0,1,1.14-1.75,6.75,6.75,0,0,1,2.17-1.19,16.93,16.93,0,0,1,3-.73,33.55,33.55,0,0,1,3.63-.35q2-.09,4.09-0.09,2.85,0,6,.21t6.72,0.77a2.45,2.45,0,0,1,1.25.55,1.85,1.85,0,0,1,.56.88,1.67,1.67,0,0,1,0,.71,1.84,1.84,0,0,1-.22.63,1.29,1.29,0,0,1-.45.46,1.21,1.21,0,0,1-.64.17,23.51,23.51,0,0,1-2.67-.16l-2.95-.37-3.16-.41q-1.63-.2-3.33-0.3a40.82,40.82,0,0,1,.29,4.6c0,1.39.08,2.92,0.09,4.38s0,2.45,0,3.91,0,2.85,0,4.19,0,2.57,0,3.7,0,1.89,0,2.7a4.25,4.25,0,0,1-.15,1.22,2,2,0,0,1-.42.79,1.71,1.71,0,0,1-.65.5,2.6,2.6,0,0,1-2.28-.16,2.11,2.11,0,0,1-1-1.36,4,4,0,0,1-.09-0.83q0-1.44-.06-2.89c0-1,.06-2.38,0-3.43,0-.6.06-1.66,0.14-4,0-1.38.08-1.87,0.14-3.27,0.09-2.08.14-2.31,0.18-3.46,0.07-1.74.4-4.49,0.5-6.62l-1.72.15q-0.87.09-1.67,0.23a11.94,11.94,0,0,0-1.5.37,5.14,5.14,0,0,0-1.23.57,2.1,2.1,0,0,0-.77.82,1.59,1.59,0,0,0-.06,1.13s0,0.15.06,0.38a1.67,1.67,0,0,1-.07.75,1.55,1.55,0,0,1-.54.74,2.13,2.13,0,0,1-1.34.33,3.14,3.14,0,0,1-1.52-.33,3.32,3.32,0,0,1-.94-0.72A2.91,2.91,0,0,1,225.21,122.34Z" transform="translate(-225 -112.94)"/><path class="cls-5" d="M244.08,142c0-.45-0.06-1-0.06-1.56s0-1.22,0-1.88,0.07-1.34.13-2,0.14-1.42.26-2.2,0.22-1.42.3-1.94a10,10,0,0,1,.28-1.28,2.81,2.81,0,0,1,.2-0.53,0.92,0.92,0,0,1,.26-0.31,0.85,0.85,0,0,1,.38-0.15,3.72,3.72,0,0,1,.58,0,4,4,0,0,1,.62,0,0.54,0.54,0,0,1,.34.18,0.87,0.87,0,0,1,.17.42c0,0.18.06,0.43,0.09,0.75s0.05,0.91.06,1.6a16.61,16.61,0,0,0,.11,1.82H248q0.25-.61.62-1.6a7.76,7.76,0,0,1,.82-1.65,4.57,4.57,0,0,1,1-1.1,2.33,2.33,0,0,1,1.44-.45,1.74,1.74,0,0,1,.57.1,1.63,1.63,0,0,1,.5.28,1.57,1.57,0,0,1,.37.45,1.49,1.49,0,0,1,.17.6,4.84,4.84,0,0,1,0,.72c0,0.31-.07.71-0.14,1.21s-0.12.91-.14,1.23a5.37,5.37,0,0,0,0,.8,3.52,3.52,0,0,0,.19.92,1.91,1.91,0,0,0,.33.59,1.13,1.13,0,0,0,.42.31,1.29,1.29,0,0,0,.47.09,3.49,3.49,0,0,0,1.39-.3,8.34,8.34,0,0,0,1.28-.69,11.2,11.2,0,0,0,1.32-1l0.08,3.57-0.85.58a10.43,10.43,0,0,1-1,.6,7.2,7.2,0,0,1-1.15.47,4.05,4.05,0,0,1-1.24.19,3.5,3.5,0,0,1-1.89-.46,3.87,3.87,0,0,1-1.22-1.22,6.84,6.84,0,0,1-.76-1.69c-0.19-.63-0.35-1.26-0.49-1.9H249.9l-2.06,7.61a9,9,0,0,1-.32,1,3,3,0,0,1-.33.63,1,1,0,0,1-.4.34,1.21,1.21,0,0,1-.5.1,1.84,1.84,0,0,1-1-.27,2,2,0,0,1-.65-0.72,3.69,3.69,0,0,1-.36-1A9.7,9.7,0,0,1,244.08,142Z" transform="translate(-225 -112.94)"/><path class="cls-5" d="M262.63,145.17a5.75,5.75,0,0,1-4.44-1.95,6.79,6.79,0,0,1-1.25-2.06,8.83,8.83,0,0,1-.57-2.46,7.53,7.53,0,0,1,.14-2,21,21,0,0,1,.48-2.07,8.73,8.73,0,0,1,.71-1.73,6,6,0,0,1,1.08-1.44,4.94,4.94,0,0,1,1.46-1,4.55,4.55,0,0,1,1.87-.37,4.71,4.71,0,0,1,1.61.27,4.36,4.36,0,0,1,1.34.77,4,4,0,0,1,1,1.19,4.17,4.17,0,0,1,.45,1.57A4.21,4.21,0,0,1,266,136a7.36,7.36,0,0,1-1.27,2,8.09,8.09,0,0,1-1.84,1.46,9.81,9.81,0,0,1-2.38,1,5.61,5.61,0,0,0,.51.67,2.35,2.35,0,0,0,.49.42,1.67,1.67,0,0,0,.5.21,2.31,2.31,0,0,0,.55.06,5.51,5.51,0,0,0,1.9-.36,11.57,11.57,0,0,0,1.9-.89,15.05,15.05,0,0,0,1.71-1.17,13.73,13.73,0,0,0,1.35-1.2l2.14,2a17.82,17.82,0,0,1-2.63,2.53q-0.62.47-1.33,0.93a11.31,11.31,0,0,1-1.52.81,10,10,0,0,1-1.67.56A7.45,7.45,0,0,1,262.63,145.17ZM260,137.9a3,3,0,0,0,1.18-.28,4.9,4.9,0,0,0,1.15-.71,5.11,5.11,0,0,0,1-1.16,2.06,2.06,0,0,0,.43-1.21,2.34,2.34,0,0,0-.35-1.1,0.81,0.81,0,0,0-.66-0.43,2.3,2.3,0,0,0-1.1.24,2.15,2.15,0,0,0-.73.62,2.78,2.78,0,0,0-.43.87c-0.1.32-.21,0.72-0.34,1.2a4.38,4.38,0,0,0-.18,1.18C259.92,137.42,259.94,137.68,260,137.9Z" transform="translate(-225 -112.94)"/><path class="cls-5" d="M268.73,142c-0.06-.67-0.09-1.45-0.08-2.33s0-1.84.05-2.9,0.08-2,.16-2.84,0.16-1.57.25-2.17a2.15,2.15,0,0,1,.55-1.17,1.64,1.64,0,0,1,1.26-.47,1.36,1.36,0,0,1,1.19.5,2.65,2.65,0,0,1,.44,1.34,5.16,5.16,0,0,1,0,.62c0,0.26,0,.54,0,0.85s0,0.63-.06,1,0,0.71,0,1.13,0,0.74,0,.94a3.17,3.17,0,0,0,0,.42h0.3l0.24-.54a8.54,8.54,0,0,0,.36-1.08,8.59,8.59,0,0,1,.45-1.24c0.17-.36.32-0.71,0.47-1s0.27-.62.4-0.88l0.27-.56a2.42,2.42,0,0,1,1-1.13,3,3,0,0,1,1.36-.3,1.56,1.56,0,0,1,1.27.64,3.27,3.27,0,0,1,.6,1.77,3.56,3.56,0,0,1,0,.57c0,0.27-.05.58-0.09,0.95s-0.08.84-.11,1.42-0.07,1.1-.1,1.56-0.05.91-.06,1.36,0,0.86,0,1.23a4.54,4.54,0,0,0,.37,1.56,0.88,0.88,0,0,0,.79.61,1.42,1.42,0,0,0,.51-0.14,1.79,1.79,0,0,0,.61-0.32,4.54,4.54,0,0,1,.66-0.5,6.51,6.51,0,0,0,1-.61q1.15-.78,2.75-1.91l0.28,3.42-0.71.58q-0.09.08-1.37,0.79-1.85,1-2.32,1.25a12.61,12.61,0,0,1-1.43.61,5,5,0,0,1-1.58.24A1.89,1.89,0,0,1,276.8,144a9,9,0,0,1-.88-3.54,17.19,17.19,0,0,1-.05-2q0-1.06.1-2.28h-0.25l-3.3,7.93a1.76,1.76,0,0,1-.61.85,1.6,1.6,0,0,1-.87.23,1.85,1.85,0,0,1-1-.27,2,2,0,0,1-.65-0.72,3.66,3.66,0,0,1-.36-1A9.91,9.91,0,0,1,268.73,142Z" transform="translate(-225 -112.94)"/><path class="cls-5" d="M300.83,142a22.49,22.49,0,0,1-2,1.59c-0.28.2-.57,0.39-0.88,0.57s-0.61.36-.92,0.5a7.07,7.07,0,0,1-.89.36,2.74,2.74,0,0,1-.81.14,3.27,3.27,0,0,1-.65-0.1,3.71,3.71,0,0,1-1-.4,5,5,0,0,1-1.09-.87,5.71,5.71,0,0,1-1-1.51,13,13,0,0,1-1.1,1.11,8.31,8.31,0,0,1-1.24.92,7.13,7.13,0,0,1-1.32.63,4.22,4.22,0,0,1-1.38.23,3.62,3.62,0,0,1-1.75-.41,4.2,4.2,0,0,1-1.3-1.1,5.54,5.54,0,0,1-.85-1.55,7.19,7.19,0,0,1-.39-1.8,8.16,8.16,0,0,1,.08-2,8.6,8.6,0,0,1,.56-2q0.4-1,.89-2a6.89,6.89,0,0,1,3.27-3.17,6.84,6.84,0,0,1,2.13-.54,15.71,15.71,0,0,1,.11-3.49l0.52-3.25a16.31,16.31,0,0,1,.84-3.2,12.29,12.29,0,0,1,1.27-2.53,6.27,6.27,0,0,1,1.59-1.67,3.19,3.19,0,0,1,1.85-.6,2.14,2.14,0,0,1,1.25.37,3.15,3.15,0,0,1,.9,1,5.4,5.4,0,0,1,.58,1.44,10.66,10.66,0,0,1,.28,1.69c0,0.36.06,0.73,0.09,1.12a13.22,13.22,0,0,1-.32,4.08l-0.92,3.73a28.62,28.62,0,0,1-1.17,3.65q-1.09,2.76-1.37,3.75a5,5,0,0,0-.11.52q-0.05.31-.09,0.67c0,0.24,0,.49-0.06.74a5.84,5.84,0,0,0,0,.73,6.88,6.88,0,0,0,.13.85,3.36,3.36,0,0,0,.24.72,1.43,1.43,0,0,0,.36.5,0.77,0.77,0,0,0,.51.18,1.92,1.92,0,0,0,.62-0.11,4.58,4.58,0,0,0,.7-0.32,7.8,7.8,0,0,0,.73-0.45l0.71-.51q0.79-.62,1.63-1.4Zm-11.37-9a5.36,5.36,0,0,0-2.81,3.43,23.37,23.37,0,0,0-.6,2.28,6.11,6.11,0,0,0-.12,1.72,1.79,1.79,0,0,0,.11.48,1.12,1.12,0,0,0,.29.43,1.49,1.49,0,0,0,.55.31,2.76,2.76,0,0,0,.88.12,1.2,1.2,0,0,0,.53-0.12,2.11,2.11,0,0,0,.49-0.32,3.4,3.4,0,0,0,.43-0.45,4.56,4.56,0,0,0,.36-0.52,7.91,7.91,0,0,0,.65-1.41,5.31,5.31,0,0,1-.14-0.68c0-.31-0.11-0.79-0.17-1.43s-0.12-1.17-.17-1.58-0.08-.78-0.12-1.12-0.07-.62-0.1-0.83A0.94,0.94,0,0,0,289.46,133Zm6.29-10.4c0-.71,0-1.28-0.05-1.69a3.15,3.15,0,0,0-.25-1.15,0.52,0.52,0,0,0-.45-0.32,1,1,0,0,0-.85.62,4.88,4.88,0,0,0-.51,1.59l-0.35,2.12a16.89,16.89,0,0,0-.22,2.24c0,0.73,0,1.39,0,2s0,1,0,1.25c0,0.51,0,1,0,1.46s0,0.9.06,1.28,0,0.72.07,1l0.06,0.66v0.15q0.67-2,1.21-4c0.15-.57.29-1.17,0.43-1.79l0.42-1.85c0.14-.61.25-1.22,0.33-1.82A14.4,14.4,0,0,0,295.75,122.58Z" transform="translate(-225 -112.94)"/><path class="cls-5" d="M305.37,145.17a5.75,5.75,0,0,1-4.45-1.95,6.81,6.81,0,0,1-1.25-2.06,8.83,8.83,0,0,1-.57-2.46,7.6,7.6,0,0,1,.14-2c0.14-.78.3-1.47,0.48-2.07a8.63,8.63,0,0,1,.71-1.73,6,6,0,0,1,1.08-1.44,5,5,0,0,1,1.46-1,4.55,4.55,0,0,1,1.87-.37,4.71,4.71,0,0,1,1.61.27,4.34,4.34,0,0,1,1.34.77,4,4,0,0,1,1,1.19,3.91,3.91,0,0,1,0,3.64,7.35,7.35,0,0,1-1.27,2,8.06,8.06,0,0,1-1.84,1.46,9.82,9.82,0,0,1-2.38,1,5.26,5.26,0,0,0,.51.67,2.33,2.33,0,0,0,.49.42,1.66,1.66,0,0,0,.5.21,2.32,2.32,0,0,0,.55.06,5.49,5.49,0,0,0,1.9-.36,11.4,11.4,0,0,0,1.9-.89,15,15,0,0,0,1.71-1.17,13.61,13.61,0,0,0,1.34-1.2l2.14,2a17.87,17.87,0,0,1-2.63,2.53c-0.41.31-.85,0.62-1.33,0.93a11.4,11.4,0,0,1-1.52.81,10,10,0,0,1-1.67.56A7.45,7.45,0,0,1,305.37,145.17Zm-2.67-7.26a3,3,0,0,0,1.18-.28,4.91,4.91,0,0,0,1.15-.71,5.1,5.1,0,0,0,1-1.16,2.06,2.06,0,0,0,.43-1.21,2.29,2.29,0,0,0-.35-1.1,0.81,0.81,0,0,0-.66-0.43,2.3,2.3,0,0,0-1.11.24,2.14,2.14,0,0,0-.73.62,2.82,2.82,0,0,0-.43.87c-0.1.32-.21,0.72-0.34,1.2a4.53,4.53,0,0,0-.18,1.18C302.66,137.42,302.67,137.68,302.69,137.9Z" transform="translate(-225 -112.94)"/><path class="cls-5" d="M311.32,140.22q-0.15-1.14-.27-2l-0.22-1.53c-0.07-.46-0.12-0.88-0.16-1.27s-0.08-.78-0.12-1.19a18.86,18.86,0,0,1-.1-2.91,0.87,0.87,0,0,1,.59-1l1.92-.29,0.14,0h0.16a0.76,0.76,0,0,1,.63.3,1.4,1.4,0,0,1,.29.7l0.6,10.11,0.1,0L318.16,131a0.94,0.94,0,0,1,.16-0.41,1.25,1.25,0,0,1,.37-0.34,2.31,2.31,0,0,1,.52-0.23,2,2,0,0,1,.63-0.09,2.66,2.66,0,0,1,1.45.36,1.19,1.19,0,0,1,.61.92,2.57,2.57,0,0,1-.05.81,4,4,0,0,1-.23.84q-0.33.78-.4,1c-0.36,1.1-.57,1.73-0.61,1.91l-0.13.56a4.91,4.91,0,0,0-.08.59,3.86,3.86,0,0,0,0,.68,2.91,2.91,0,0,0,.15.72,1.88,1.88,0,0,0,.38.63,1.79,1.79,0,0,0,.67.45,2.75,2.75,0,0,0,1,.17,2.82,2.82,0,0,0,1-.24,8,8,0,0,0,1.09-.54c0.4-.23.8-0.5,1.21-0.79l0.31,3.58a9.21,9.21,0,0,1-2,1,5.89,5.89,0,0,1-2,.38,4.24,4.24,0,0,1-1.5-.25,3.77,3.77,0,0,1-1.16-.68,3.63,3.63,0,0,1-.78-1,2.9,2.9,0,0,1-.37-1.11q-0.36.92-.84,1.88a14.31,14.31,0,0,1-1,1.74,7.28,7.28,0,0,1-1.08,1.27,1.6,1.6,0,0,1-1,.5,2.34,2.34,0,0,1-1.5-.45,3.06,3.06,0,0,1-.87-1.14,6.14,6.14,0,0,1-.46-1.49q-0.14-.81-0.26-1.54Z" transform="translate(-225 -112.94)"/><path class="cls-5" d="M330,145.17a5.76,5.76,0,0,1-4.45-1.95,6.76,6.76,0,0,1-1.25-2.06,8.82,8.82,0,0,1-.57-2.46,7.61,7.61,0,0,1,.14-2,21.12,21.12,0,0,1,.48-2.07,8.73,8.73,0,0,1,.71-1.73,6,6,0,0,1,1.08-1.44,4.94,4.94,0,0,1,1.46-1,4.54,4.54,0,0,1,1.87-.37,4.71,4.71,0,0,1,1.61.27,4.36,4.36,0,0,1,1.34.77,4,4,0,0,1,1,1.19,4.14,4.14,0,0,1,.44,1.57,4.18,4.18,0,0,1-.44,2.07,7.36,7.36,0,0,1-1.27,2,8.06,8.06,0,0,1-1.84,1.46,9.77,9.77,0,0,1-2.38,1,5.71,5.71,0,0,0,.51.67,2.37,2.37,0,0,0,.49.42,1.64,1.64,0,0,0,.5.21,2.33,2.33,0,0,0,.55.06,5.52,5.52,0,0,0,1.9-.36,11.5,11.5,0,0,0,1.9-.89,15,15,0,0,0,1.71-1.17,13.44,13.44,0,0,0,1.34-1.2l2.14,2a18,18,0,0,1-2.63,2.53q-0.61.47-1.33,0.93a11.15,11.15,0,0,1-1.52.81,10,10,0,0,1-1.67.56A7.48,7.48,0,0,1,330,145.17Zm-2.67-7.26a3,3,0,0,0,1.18-.28,4.94,4.94,0,0,0,1.15-.71,5.16,5.16,0,0,0,1-1.16,2.05,2.05,0,0,0,.43-1.21,2.3,2.3,0,0,0-.35-1.1,0.81,0.81,0,0,0-.66-0.43,2.29,2.29,0,0,0-1.1.24,2.11,2.11,0,0,0-.73.62,2.82,2.82,0,0,0-.43.87c-0.1.32-.21,0.72-0.34,1.2a4.42,4.42,0,0,0-.18,1.18C327.32,137.42,327.33,137.68,327.35,137.9Z" transform="translate(-225 -112.94)"/><path class="cls-5" d="M342.2,135.5c0.14,0.64.3,1.27,0.49,1.9a6.7,6.7,0,0,0,.71,1.61c1.17,1.62,4.6-.57,2.12-2.61v0a3.45,3.45,0,0,1-.19-0.91,5.2,5.2,0,0,1,0-.8c0-.32.07-0.73,0.14-1.23s0.12-.9.14-1.21a5.11,5.11,0,0,0,0-.72,1.49,1.49,0,0,0-.18-0.6,1.51,1.51,0,0,0-.37-0.45,1.7,1.7,0,0,0-.51-0.28,1.73,1.73,0,0,0-.57-0.1,2.33,2.33,0,0,0-1.44.45,4.59,4.59,0,0,0-1,1.11,7.83,7.83,0,0,0-.82,1.65c-0.25.66-.46,1.19-0.62,1.6H339.9a16,16,0,0,1-.11-1.82c0-.69,0-1.22-0.06-1.6s-0.06-.56-0.09-0.75a0.86,0.86,0,0,0-.17-0.42,0.54,0.54,0,0,0-.34-0.18,4,4,0,0,0-.62,0,3.81,3.81,0,0,0-.59,0,0.84,0.84,0,0,0-.38.15,0.9,0.9,0,0,0-.25.31,2.72,2.72,0,0,0-.2.53,10.47,10.47,0,0,0-.28,1.28q-0.13.78-.3,1.94t-0.26,2.2q-0.08,1-.13,2t0,1.88c0,0.6,0,1.12.06,1.56a10.23,10.23,0,0,0,.17,1.18,3.7,3.7,0,0,0,.36,1,2,2,0,0,0,.65.72,1.84,1.84,0,0,0,1,.27,1.22,1.22,0,0,0,.5-0.1,1,1,0,0,0,.4-0.34,3.08,3.08,0,0,0,.33-0.64,8.9,8.9,0,0,0,.32-1L342,135.5h0.24Z" transform="translate(-225 -112.94)"/><path class="cls-5" d="M321.9,123.11a1.85,1.85,0,0,1-.13-1.83l3.58-7.3a1.84,1.84,0,0,1,2.46-.84l39.83,19.49a1.81,1.81,0,0,1,.71.62,1.84,1.84,0,0,1,.13,1.83l-3.58,7.3a1.84,1.84,0,0,1-2.46.84l-39.83-19.49A1.84,1.84,0,0,1,321.9,123.11Zm46,10.42a1.3,1.3,0,0,0-.51-0.44L327.58,113.6a1.32,1.32,0,0,0-1.76.6l-3.58,7.3a1.32,1.32,0,0,0,.6,1.75l39.83,19.49a1.32,1.32,0,0,0,1.76-.6l3.58-7.3A1.32,1.32,0,0,0,367.92,133.53Z" transform="translate(-225 -112.94)"/><path class="cls-5" d="M328.12,118.19c0.09-.19.11-0.22,0-0.36a0.16,0.16,0,0,1,0-.19,0.2,0.2,0,0,1,.27-0.07l1.35,0.66-1.59,3.25c-0.09.19-.11,0.22,0,0.36a0.16,0.16,0,0,1,0,.19,0.2,0.2,0,0,1-.27.07l-1.45-.71a0.2,0.2,0,0,1-.11-0.25,0.16,0.16,0,0,1,.18-0.08c0.21,0,.22,0,0.31-0.19Zm1.77,0.15a2.16,2.16,0,0,1,.92.68,1.33,1.33,0,0,1-1,2,2.16,2.16,0,0,1-1.11-.31l0.14-.3a0.46,0.46,0,0,0,.57-0.36l0.38-.77a0.44,0.44,0,0,0-.08-0.64Z" transform="translate(-225 -112.94)"/><path class="cls-5" d="M331.8,124.11a2.23,2.23,0,0,1-1-.72,0.82,0.82,0,0,1-.18-1l1.19-2.42c0.09-.19.11-0.22,0-0.36a0.16,0.16,0,0,1,0-.19,0.2,0.2,0,0,1,.27-0.07l1.45,0.71a0.2,0.2,0,0,1,.11.25,0.16,0.16,0,0,1-.18.08c-0.21,0-.22,0-0.31.19l-1.2,2.46a0.57,0.57,0,0,0,.06.73Zm2.43-2.65c0.23-.68-0.19-0.64-0.09-0.86s0.28,0,.34,0l0.58,0.29c0.06,0,.27.12,0.19,0.28s-0.34-.14-0.73.46l-0.94,1.93a1.24,1.24,0,0,1-1.55.67l0.15-.3a1,1,0,0,0,1.11-.53Z" transform="translate(-225 -112.94)"/><path class="cls-5" d="M335.33,125.75l-1.38-.67a0.17,0.17,0,0,1-.09-0.24,0.16,0.16,0,0,1,.18-0.08c0.21,0,.22,0,0.31-0.19l1.31-2.68c0.09-.19.11-0.22,0-0.36a0.16,0.16,0,0,1,0-.19,0.17,0.17,0,0,1,.24-0.08l1.38,0.67Zm2.1-3.71,0.16,0.08a2.37,2.37,0,0,1,.87.61,0.94,0.94,0,0,1,.12,1,1.08,1.08,0,0,1-1.41.43h0a1.11,1.11,0,0,1,.54,1.48,1,1,0,0,1-.89.59,2.12,2.12,0,0,1-1.1-.33l-0.16-.08,0.15-.3a0.38,0.38,0,0,0,.58-0.21l0.32-.66a0.44,0.44,0,0,0-.15-0.67l0.15-.3a0.4,0.4,0,0,0,.6-0.25l0.25-.51a0.44,0.44,0,0,0-.16-0.64Z" transform="translate(-225 -112.94)"/><path class="cls-5" d="M339.21,127.64l-1.35-.66a0.2,0.2,0,0,1-.11-0.25,0.16,0.16,0,0,1,.18-0.08c0.21,0,.22,0,0.31-0.19l1.31-2.68c0.09-.19.11-0.22,0-0.36a0.16,0.16,0,0,1,0-.19,0.2,0.2,0,0,1,.27-0.07l1.45,0.71a0.2,0.2,0,0,1,.11.25,0.16,0.16,0,0,1-.18.08c-0.21,0-.22,0-0.31.19Zm0.38-.18a1.1,1.1,0,0,0,1.19-.52,0.18,0.18,0,0,1,.26,0c0.12,0.06.08,0.16,0,.26l-0.56,1.14-1.08-.53Z" transform="translate(-225 -112.94)"/><path class="cls-5" d="M342.57,128.58c-0.09.19-.11,0.22,0,0.36a0.16,0.16,0,0,1,0,.19,0.2,0.2,0,0,1-.27.07l-1.45-.71a0.2,0.2,0,0,1-.11-0.25,0.16,0.16,0,0,1,.18-0.08c0.21,0,.22,0,0.31-0.19l1.31-2.68c0.09-.19.11-0.22,0-0.36a0.16,0.16,0,0,1,0-.19,0.2,0.2,0,0,1,.27-0.07l1.45,0.71a0.2,0.2,0,0,1,.11.25,0.16,0.16,0,0,1-.18.08c-0.21,0-.22,0-0.31.19Z" transform="translate(-225 -112.94)"/><path class="cls-5" d="M344.54,130.35a1.89,1.89,0,0,1-.72-2.73,2,2,0,0,1,2.67-1.25l-0.15.3a0.48,0.48,0,0,0-.56.32l-1.19,2.42a0.5,0.5,0,0,0,.09.65Zm2.18-3.87c0.19,0.1.48,0.49,0.62,0.55a0.15,0.15,0,0,0,.19,0,0.16,0.16,0,0,1,.19,0,0.18,0.18,0,0,1,.07.26l-0.58,1.19a0.18,0.18,0,0,1-.25.1,0.23,0.23,0,0,1-.1-0.28,1.48,1.48,0,0,0-.28-1.47Zm-0.36,3.29a0.18,0.18,0,0,1,.07.25,1.45,1.45,0,0,1-1.66.44l0.15-.3a1.22,1.22,0,0,0,1.2-.32A0.2,0.2,0,0,1,346.36,129.77Z" transform="translate(-225 -112.94)"/><path class="cls-5" d="M349.61,132.73l-1.38-.67a0.17,0.17,0,0,1-.09-0.24,0.16,0.16,0,0,1,.18-0.08c0.21,0,.22,0,0.31-0.19l1.31-2.68c0.09-.19.11-0.22,0-0.36a0.16,0.16,0,0,1,0-.19,0.17,0.17,0,0,1,.24-0.08l1.38,0.67Zm2.1-3.71,0.16,0.08a2.37,2.37,0,0,1,.87.61,0.93,0.93,0,0,1,.12,1,1.08,1.08,0,0,1-1.41.43h0a1.11,1.11,0,0,1,.54,1.48,1,1,0,0,1-.89.59,2.13,2.13,0,0,1-1.1-.33l-0.16-.08,0.14-.3a0.38,0.38,0,0,0,.58-0.21l0.32-.66a0.44,0.44,0,0,0-.15-0.67l0.15-.3a0.4,0.4,0,0,0,.6-0.25l0.25-.51a0.44,0.44,0,0,0-.16-0.64Z" transform="translate(-225 -112.94)"/><path class="cls-5" d="M354,130.14l1.35,0.66-1.87,3.83-1.35-.66a0.2,0.2,0,0,1-.11-0.25,0.16,0.16,0,0,1,.18-0.08c0.21,0,.22,0,0.31-0.19l1.31-2.68c0.09-.19.11-0.22,0-0.36a0.16,0.16,0,0,1,0-.19A0.2,0.2,0,0,1,354,130.14Zm1.58,0.77,1.14,0.56-0.51,1a0.14,0.14,0,0,1-.22,0,0.16,0.16,0,0,1-.08-0.2,1.09,1.09,0,0,0-.48-1.15Zm-0.84,1.71a0.61,0.61,0,0,0,.58-0.27,0.2,0.2,0,0,1,.25-0.09c0.16,0.08,0,.25,0,0.29l-0.54,1.1s-0.08.24-.24,0.16a0.2,0.2,0,0,1-.08-0.25,0.61,0.61,0,0,0-.14-0.63Zm-0.89,1.82a1.17,1.17,0,0,0,1.23-.32,0.22,0.22,0,0,1,.24-0.08,0.16,0.16,0,0,1,.06.25l-0.5,1-1.18-.58Z" transform="translate(-225 -112.94)"/><path class="cls-5" d="M357.1,131.65l0.74,0.36-0.15.3a1.29,1.29,0,0,0-.77.61,0.24,0.24,0,0,1-.3.16,0.17,0.17,0,0,1-.1-0.23Zm1,0.47,1.25,0.61L357.73,136c-0.09.19-.11,0.22,0,0.36a0.16,0.16,0,0,1,0,.19,0.2,0.2,0,0,1-.27.07l-1.45-.71a0.2,0.2,0,0,1-.11-0.25,0.16,0.16,0,0,1,.18-0.08c0.21,0,.22,0,0.31-0.19Zm1.64,2.28a0.17,0.17,0,0,1-.24.07,0.24,0.24,0,0,1-.06-0.34,1.3,1.3,0,0,0,0-1l0.15-.3,0.74,0.36Z" transform="translate(-225 -112.94)"/><path class="cls-5" d="M361,135.18l-1.34,1.51c-0.23.27-.21,0.39-0.07,0.56a0.21,0.21,0,0,1,.07.24c-0.07.14-.23,0.06-0.33,0l-0.59-.29c-0.1,0-.28-0.15-0.21-0.29s0.14-.08.28-0.08a0.83,0.83,0,0,0,.61-0.37l1.71-1.94h0ZM360.82,137l-0.75-.37,0.22-.26,0.62,0.31,0.59-2.51,0.2-.24,1.13,0.55L362,138.07a0.36,0.36,0,0,0,0,.39,0.18,0.18,0,0,1,0,.22c-0.07.14-.25,0-0.35,0l-1.27-.62c-0.1,0-.25-0.13-0.18-0.27a0.15,0.15,0,0,1,.17-0.09c0.17,0,.21,0,0.26-0.26Z" transform="translate(-225 -112.94)"/></svg>