<?xml version="1.0" encoding="utf-8"?>
<!-- Generator: Adobe Illustrator 19.0.0, SVG Export Plug-In . SVG Version: 6.00 Build 0)  -->
<svg version="1.1" id="Layer_1" xmlns="http://www.w3.org/2000/svg" xmlns:xlink="http://www.w3.org/1999/xlink" x="0px" y="0px"
	 viewBox="0 0 700 1145" style="enable-background:new 0 0 700 1145;" xml:space="preserve">
<style type="text/css">
	.st0{fill:none;stroke:#618BC8;stroke-width:6;stroke-linecap:round;stroke-linejoin:round;stroke-miterlimit:10;}
	.st1{fill:none;stroke:#618BC8;stroke-width:11;stroke-linejoin:round;stroke-miterlimit:10;}
	.st2{fill:#FFFFFF;stroke:#618BC8;stroke-width:2.4979;stroke-linecap:round;stroke-linejoin:round;stroke-miterlimit:10;}
	.st3{fill:url(#XMLID_137_);}
	.st4{fill:none;}
	.st5{fill:#618BC8;}
	.st6{fill:none;stroke:#618BC8;stroke-width:2.4979;stroke-linecap:round;stroke-linejoin:round;stroke-miterlimit:10;}
	.st7{fill:url(#XMLID_138_);}
	.st8{fill:url(#XMLID_139_);}
</style>
<path id="XMLID_134_" class="st0" d="M463.7,871.5h94.9c6.6,0,11.9-5.4,11.9-11.9l0,0c0-6.6-5.4-11.9-11.9-11.9H454.8"/>
<path id="XMLID_133_" class="st0" d="M363.7,916.8h4.9c6.6,0,11.9-5.4,11.9-11.9l0,0c0-6.6-5.4-11.9-11.9-11.9h-3.4"/>
<path id="XMLID_132_" class="st0" d="M349.9,881L349.9,881c0,6.6,5.4,11.9,11.9,11.9h3.4"/>
<g id="XMLID_129_">
	<line id="XMLID_131_" class="st0" x1="662.9" y1="907.3" x2="662.9" y2="1055.3"/>
	<path id="XMLID_130_" class="st0" d="M662.9,907.3L662.9,907.3c0-6.6-5.4-11.9-11.9-11.9H460.9"/>
</g>
<path id="XMLID_128_" class="st0" d="M463.7,871.5h-6.9c-6.6,0-11.9,5.4-11.9,11.9l0,0c0,6.6,5.4,11.9,11.9,11.9h4"/>
<path id="XMLID_127_" class="st0" d="M395.6,940.6h-54.9c-6.6,0-11.9-5.4-11.9-11.9l0,0c0-6.6,5.4-11.9,10.4-11.9h24.6"/>
<path id="XMLID_126_" class="st0" d="M453.2,847.7h-54.9c-6.6,0-11.9-5.4-11.9-11.9l0,0"/>
<path id="XMLID_125_" class="st0" d="M289.2,836.9v4.9c0,6.6,5.4,11.9,11.9,11.9l0,0c6.6,0,11.9-5.4,11.9-11.9v-3.4"/>
<path id="XMLID_124_" class="st0" d="M265.4,884.8v-55.9c0-6.6,5.4-11.9,11.9-11.9l0,0c6.6,0,11.9,5.4,11.9,10.4v9.6"/>
<path id="XMLID_123_" class="st0" d="M49.7,887.5h85.9c6.6,0,11.9-5.4,11.9-11.9l0,0c0-6.6-5.4-11.9-10.4-11.9h-9.6"/>
<path id="XMLID_122_" class="st0" d="M37.8,1048.6V899.5c0-6.6,5.4-11.9,11.9-11.9l0,0"/>
<path id="XMLID_121_" class="st0" d="M177.5,839.9H90.5c-6.6,0-11.9,5.4-11.9,11.9l0,0c0,6.6,5.4,11.9,10.4,11.9h38.6"/>
<path id="XMLID_120_" class="st0" d="M395.6,940.6h6.9c6.6,0,11.9,5.4,11.9,11.9l0,0"/>
<path id="XMLID_119_" class="st0" d="M265.4,884.8v6.9c0,6.6-5.4,11.9-11.9,11.9l0,0"/>
<path id="XMLID_118_" class="st0" d="M208.2,903.6h-6.9c-6.6,0-11.9-5.4-11.9-11.9l0,0"/>
<path id="XMLID_117_" class="st0" d="M189.4,891.7v-39.9c0-6.6-5.4-11.9-11.9-11.9l0,0"/>
<polyline id="XMLID_116_" class="st0" points="386.4,835.8 386.4,835.8 386.4,750.2 "/>
<path id="XMLID_115_" class="st1" d="M687.1,630.1V307.2c0-9.5,1-20-12-41"/>
<g id="XMLID_112_">
	
		<rect id="XMLID_114_" x="662" y="255.3" transform="matrix(-0.471 -0.8821 0.8821 -0.471 758.2187 983.6602)" class="st2" width="24" height="18.3"/>
	
		<rect id="XMLID_113_" x="645.9" y="224.5" transform="matrix(-0.471 -0.8822 0.8822 -0.471 760.5282 936.8972)" class="st2" width="30.6" height="31.9"/>
</g>
<g id="XMLID_107_">
	<line id="XMLID_111_" class="st1" x1="419.9" y1="705" x2="540.2" y2="705"/>
	<g id="XMLID_108_">
		<rect id="XMLID_110_" x="438.4" y="696.7" class="st2" width="20.6" height="15.6"/>
		<rect id="XMLID_109_" x="412.2" y="691" class="st2" width="26.2" height="27.1"/>
	</g>
</g>
<path id="XMLID_106_" class="st1" d="M643.9,677.9h-53.2c-7.5,0-13.6-6.1-13.6-13.6l0,0c0-7.5,6.1-13.6,13.6-13.6h70.4"/>
<path id="XMLID_105_" class="st1" d="M643.9,677.9h3.2c7.5,0,13.6,6.1,13.6,13.6l0,0c0,7.5-6.1,13.6-13.6,13.6H536.7"/>
<path id="XMLID_104_" class="st1" d="M653.5,650.8h12.9c11.4,0,20.7-9.3,20.7-20.7l0,0"/>
<line id="XMLID_103_" class="st0" x1="349.9" y1="881" x2="349.9" y2="748.8"/>
<polyline id="XMLID_102_" class="st0" points="414.4,952.5 414.4,985.2 414.4,1058.2 "/>
<polyline id="XMLID_101_" class="st0" points="313,838.4 313,838.4 313,767.2 "/>
<linearGradient id="XMLID_137_" gradientUnits="userSpaceOnUse" x1="3447.885" y1="232.1182" x2="3600.9541" y2="79.0492" gradientTransform="matrix(1 0 0 1 -3429.4883 0)">
	<stop  offset="0" style="stop-color:#F4A44F"/>
	<stop  offset="0.35" style="stop-color:#E5493B"/>
	<stop  offset="0.6989" style="stop-color:#C21A7A"/>
	<stop  offset="1" style="stop-color:#A5228B"/>
</linearGradient>
<path id="XMLID_92_" class="st3" d="M94.9,109.5c-25,0-45.4,20.7-45.4,46.1c0,25.4,20.4,46.1,45.4,46.1c25,0,45.4-20.7,45.4-46.1
	C140.3,130.2,120,109.5,94.9,109.5z M94.9,187.4c-17.3,0-31.4-14.3-31.4-31.8c0-17.5,14.1-31.8,31.4-31.8
	c17.3,0,31.4,14.3,31.4,31.8C126.3,173.1,112.2,187.4,94.9,187.4z M143.6,96.2c-5.4,0-9.8,4.5-9.8,10c0,5.5,4.4,10,9.8,10
	c5.4,0,9.8-4.5,9.8-10C153.5,100.7,149.1,96.2,143.6,96.2z M134.2,63.1h-7.4l0,0H59.2l0,0h-3.5C27,63.1,3.7,86.7,3.7,115.7v79.7
	c0,29,23.3,52.7,51.9,52.7h78.6c28.6,0,51.9-23.6,51.9-52.7v-79.7C186.1,86.7,162.8,63.1,134.2,63.1z M97.6,74.7
	c-0.9,0.1-1.8,0.1-2.7,0.1c-0.9,0-1.8,0-2.7-0.1H97.6z M172.1,195.4c0,21.2-17,38.4-37.9,38.4H55.6c-20.9,0-37.9-17.2-37.9-38.4
	v-79.7c0-21.2,17-38.4,37.9-38.4h78.6c20.9,0,37.9,17.2,37.9,38.4V195.4z"/>
<g id="XMLID_82_">
	<g id="XMLID_89_">
		<rect id="XMLID_91_" x="308.6" y="762.6" class="st2" width="9.7" height="12.1"/>
		<rect id="XMLID_90_" x="305" y="747.7" class="st2" width="16.8" height="14.9"/>
	</g>
	<g id="XMLID_86_">
		<rect id="XMLID_88_" x="345" y="762.6" class="st2" width="9.7" height="12.1"/>
		<rect id="XMLID_87_" x="341.5" y="747.7" class="st2" width="16.8" height="14.9"/>
	</g>
	<g id="XMLID_83_">
		<rect id="XMLID_85_" x="381.4" y="762.6" class="st2" width="9.7" height="12.1"/>
		<rect id="XMLID_84_" x="377.9" y="747.7" class="st2" width="16.8" height="14.9"/>
	</g>
</g>
<g id="XMLID_66_">
	<path id="XMLID_78_" class="st4" d="M624.1,77.3h-78.6c-20.9,0-37.9,17.2-37.9,38.4v79.7c0,21.2,17,38.4,37.9,38.4h78.6
		c20.9,0,37.9-17.2,37.9-38.4v-79.7C662,94.5,645,77.3,624.1,77.3z M584.8,201.7c-25,0-45.4-20.7-45.4-46.1
		c0-25.4,20.4-46.1,45.4-46.1c25,0,45.4,20.7,45.4,46.1C630.2,181,609.8,201.7,584.8,201.7z M633.5,116.2c-5.4,0-9.8-4.5-9.8-10
		c0-5.5,4.4-10,9.8-10c5.4,0,9.8,4.5,9.8,10C643.3,111.7,638.9,116.2,633.5,116.2z"/>
	<path id="XMLID_77_" class="st4" d="M584.8,123.7c-17.3,0-31.4,14.3-31.4,31.8c0,17.6,14.1,31.8,31.4,31.8
		c17.3,0,31.4-14.3,31.4-31.8C616.2,138,602.1,123.7,584.8,123.7z"/>
	<path id="XMLID_76_" class="st5" d="M584.8,71.1c10.4,0,17.9-4.3,23-10.8l-8.8-5.8c-2.9,3.9-8.2,6.4-14.3,6.4
		c-6.1,0-11.4-2.6-14.3-6.4l-8.8,5.8C566.9,66.8,574.4,71.1,584.8,71.1z"/>
	<path id="XMLID_75_" class="st5" d="M574.2,52.1c2.2,3,6.1,5,10.6,5c4.5,0,8.4-2,10.6-5l-6.1-4h-9.1L574.2,52.1z"/>
	<path id="XMLID_72_" class="st5" d="M685.7,119.4H676v-3.6c0-29-23.3-52.7-51.9-52.7h-11.4c-6.6,7.3-16.7,11.7-27.9,11.7
		c-11.3,0-21.4-4.5-27.9-11.7h-11.4c-28.6,0-51.9,23.6-51.9,52.7v3.6h-9.7c-4.4,0-8,3.7-8,8.1v56.8c0,4.5,3.6,8.1,8,8.1h9.7v3.1
		c0,29,23.3,52.7,51.9,52.7h78.6c28.6,0,51.9-23.6,51.9-52.7v-3.1h9.8c4.4,0,8-3.7,8-8.1v-56.8C693.7,123,690.1,119.4,685.7,119.4z
		 M662,195.5c0,21.2-17,38.4-37.9,38.4h-78.6c-20.9,0-37.9-17.2-37.9-38.4v-79.7c0-21.2,17-38.4,37.9-38.4h78.6
		c20.9,0,37.9,17.2,37.9,38.4V195.5z"/>
	<ellipse id="XMLID_71_" class="st5" cx="633.5" cy="106.2" rx="9.8" ry="10"/>
	<path id="XMLID_68_" class="st5" d="M584.8,109.5c-25,0-45.4,20.7-45.4,46.1c0,25.4,20.4,46.1,45.4,46.1c25,0,45.4-20.7,45.4-46.1
		C630.2,130.2,609.8,109.5,584.8,109.5z M584.8,187.4c-17.3,0-31.4-14.3-31.4-31.8c0-17.5,14.1-31.8,31.4-31.8
		c17.3,0,31.4,14.3,31.4,31.8C616.2,173.1,602.1,187.4,584.8,187.4z"/>
	<path id="XMLID_67_" class="st5" d="M584.8,2.7c-2.5,0-4.6,2.1-4.6,4.6v40.7h9.1V7.4C589.4,4.8,587.3,2.7,584.8,2.7z"/>
</g>
<rect id="XMLID_65_" x="284.5" y="684.3" class="st2" width="128.5" height="64.5"/>
<g id="XMLID_61_">
	<circle id="XMLID_64_" class="st2" cx="365.5" cy="706" r="4"/>
	<circle id="XMLID_63_" class="st2" cx="382.1" cy="706" r="4"/>
	<circle id="XMLID_62_" class="st2" cx="398.7" cy="706" r="4"/>
</g>
<g id="XMLID_15_">
	<g id="XMLID_46_">
		<g id="XMLID_57_">
			<path id="XMLID_60_" class="st2" d="M215.1,1131.3v-98.5c0-4.6-3.7-8.3-8.3-8.3H25.1c-4.6,0-8.3,3.7-8.3,8.3v98.5H215.1z"/>
			<path id="XMLID_59_" class="st2" d="M3.8,1125.8c0,0.5-0.1,0.9-0.1,1.4c0,4.8,2.5,8.7,5.6,8.7h213.2c3.1,0,5.6-3.9,5.6-8.7
				c0-0.5,0-0.9-0.1-1.4H3.8z"/>
			<rect id="XMLID_58_" x="24.4" y="1032.5" class="st2" width="183.2" height="88.8"/>
		</g>
		<path id="XMLID_56_" class="st6" d="M74.3,991.4c-1.8,5.2-3.5,9-4.2,18.7c-0.1,1.7,0.1,6.3,0.2,7.9"/>
		<path id="XMLID_55_" class="st6" d="M156.7,983.3c-8.4-13.3-23-22.2-39.5-22.2c-10.7,0-20.5,3.7-28.4,9.9"/>
		<path id="XMLID_54_" class="st6" d="M164.2,1016.6c0.2-1.6,0.2-4.8,0.2-6.5c0-9.9-2.8-19.1-7.7-26.9"/>
		<path id="XMLID_53_" class="st6" d="M95.2,1046.4c-11,0-13.3-5.9-17.4-10.7"/>
		<path id="XMLID_52_" class="st2" d="M152.3,1006l1.2-26.4c0,0-2.6-3.3-8.8-6.7c-8-4.4-23.2-8.4-42.3-5.5
			c-14.9,2.3-21.5,8.1-21.5,8.1c8.3-2.1,2.3,2.3-3.1,5.2c-6.5,3.5-9.8,0.5-9.8,0.5s0.5,7,6.3,10.3c8.2,4.6,8.5,4.1,8.5,4
			c0,0.1,0.2,7.2,0.5,12.9l-3,5.2l6.3,21.9c4.3,9.7,17.1,19.2,31.4,19.2c14.6,0,26.9-9.2,30.9-19.2l3.6-24.8L152.3,1006z"/>
		<g id="XMLID_49_">
			<path id="XMLID_51_" class="st2" d="M152.2,1007.7l5.4,0.7c3.3,0.4,5.6,3.4,5.2,6.7l-0.3,2.2l1.1,0.1c1.3,0.2,2.3,1.4,2.1,2.7
				l-0.8,6.5c-0.2,1.3-1.4,2.3-2.7,2.2l-1.1-0.1l-0.3,2.2c-0.4,3.3-3.4,5.6-6.7,5.2l-5.4-0.7L152.2,1007.7z"/>
			<path id="XMLID_50_" class="st2" d="M83.2,1007.7l-5.4,0.7c-3.3,0.4-5.6,3.4-5.2,6.7l0.3,2.2l-1.1,0.1c-1.3,0.2-2.3,1.4-2.1,2.7
				l0.8,6.5c0.2,1.3,1.4,2.3,2.7,2.2l1.1-0.1l0.3,2.2c0.4,3.3,3.4,5.6,6.7,5.2l5.4-0.7L83.2,1007.7z"/>
		</g>
		<path id="XMLID_48_" class="st2" d="M151.2,1139.9l4.5-36.8c0,0,12.5,34.4,23.5,36.5c6.7,1.3,12.8-2.1,14.5-8.3
			c1.8-6.2-3-18.1-7.4-30c-4.5-11.9-14.5-33.8-22.6-38c-8-4.2-28.2-8.9-28.2-8.9c-3.7,2.5-12.4,4.8-16.8,4.8c-4.7,0-15.1-1.9-19-4.8
			c0,0-20.2,4.8-28.2,8.9c-8,4.2-18.1,26.1-22.6,38c-4.5,11.9-9.2,23.8-7.4,30c1.8,6.2,7.8,9.6,14.5,8.3c11-2.1,23.5-36.5,23.5-36.5
			l4.5,36.8"/>
		<path id="XMLID_47_" class="st6" d="M70.5,1141.8c13.7-1.4,29.4-2.2,46.1-2.2c18.1,0,35,0.9,49.4,2.5"/>
	</g>
	<g id="XMLID_31_">
		<g id="XMLID_42_">
			<path id="XMLID_45_" class="st2" d="M447.9,1131.3v-98.5c0-4.6-3.7-8.3-8.3-8.3H257.9c-4.6,0-8.3,3.7-8.3,8.3v98.5H447.9z"/>
			<path id="XMLID_44_" class="st2" d="M236.6,1125.8c0,0.5-0.1,0.9-0.1,1.4c0,4.8,2.5,8.7,5.6,8.7h213.2c3.1,0,5.6-3.9,5.6-8.7
				c0-0.5,0-0.9-0.1-1.4H236.6z"/>
			<rect id="XMLID_43_" x="257.1" y="1032.5" class="st2" width="183.2" height="88.8"/>
		</g>
		<path id="XMLID_41_" class="st6" d="M307,991.4c-1.8,5.2-3.5,9-4.2,18.7c-0.1,1.7,0.1,6.3,0.2,7.9"/>
		<path id="XMLID_40_" class="st6" d="M389.5,983.3c-8.4-13.3-23-22.2-39.5-22.2c-10.7,0-20.5,3.7-28.4,9.9"/>
		<path id="XMLID_39_" class="st6" d="M397,1016.6c0.2-1.6,0.2-4.8,0.2-6.5c0-9.9-2.8-19.1-7.7-26.9"/>
		<path id="XMLID_38_" class="st6" d="M328,1046.4c-11,0-13.3-5.9-17.4-10.7"/>
		<path id="XMLID_37_" class="st2" d="M385.1,1006l1.2-26.4c0,0-2.6-3.3-8.8-6.7c-8-4.4-23.2-8.4-42.3-5.5
			c-14.9,2.3-21.5,8.1-21.5,8.1c8.3-2.1,2.3,2.3-3.1,5.2c-6.5,3.5-9.8,0.5-9.8,0.5s0.5,7,6.3,10.3c8.2,4.6,8.5,4.1,8.5,4
			c0,0.1,0.2,7.2,0.5,12.9l-3,5.2l6.3,21.9c4.3,9.7,17.1,19.2,31.4,19.2c14.6,0,26.9-9.2,30.9-19.2l3.6-24.8L385.1,1006z"/>
		<g id="XMLID_34_">
			<path id="XMLID_36_" class="st2" d="M385,1007.7l5.4,0.7c3.3,0.4,5.6,3.4,5.2,6.7l-0.3,2.2l1.1,0.1c1.3,0.2,2.3,1.4,2.1,2.7
				l-0.8,6.5c-0.2,1.3-1.4,2.3-2.7,2.2l-1.1-0.1l-0.3,2.2c-0.4,3.3-3.4,5.6-6.7,5.2l-5.4-0.7L385,1007.7z"/>
			<path id="XMLID_35_" class="st2" d="M315.9,1007.7l-5.4,0.7c-3.3,0.4-5.6,3.4-5.2,6.7l0.3,2.2l-1.1,0.1c-1.3,0.2-2.3,1.4-2.1,2.7
				l0.8,6.5c0.2,1.3,1.4,2.3,2.7,2.2l1.1-0.1l0.3,2.2c0.4,3.3,3.4,5.6,6.7,5.2l5.4-0.7L315.9,1007.7z"/>
		</g>
		<path id="XMLID_33_" class="st2" d="M383.9,1139.9l4.5-36.8c0,0,12.5,34.4,23.5,36.5c6.7,1.3,12.8-2.1,14.5-8.3
			c1.8-6.2-3-18.1-7.4-30c-4.5-11.9-14.5-33.8-22.6-38c-8-4.2-28.2-8.9-28.2-8.9c-3.7,2.5-12.4,4.8-16.8,4.8c-4.7,0-15.1-1.9-19-4.8
			c0,0-20.2,4.8-28.2,8.9c-8,4.2-18.1,26.1-22.6,38c-4.5,11.9-9.2,23.8-7.4,30c1.8,6.2,7.8,9.6,14.5,8.3c11-2.1,23.5-36.5,23.5-36.5
			l4.5,36.8"/>
		<path id="XMLID_32_" class="st6" d="M303.3,1141.8c13.7-1.4,29.4-2.2,46.1-2.2c18.1,0,35,0.9,49.4,2.5"/>
	</g>
	<g id="XMLID_16_">
		<g id="XMLID_27_">
			<path id="XMLID_30_" class="st2" d="M680.7,1131.3v-98.5c0-4.6-3.7-8.3-8.3-8.3H490.6c-4.6,0-8.3,3.7-8.3,8.3v98.5H680.7z"/>
			<path id="XMLID_29_" class="st2" d="M469.3,1125.8c0,0.5-0.1,0.9-0.1,1.4c0,4.8,2.5,8.7,5.6,8.7h213.2c3.1,0,5.6-3.9,5.6-8.7
				c0-0.5,0-0.9-0.1-1.4H469.3z"/>
			<rect id="XMLID_28_" x="489.9" y="1032.5" class="st2" width="183.2" height="88.8"/>
		</g>
		<path id="XMLID_26_" class="st6" d="M539.8,991.4c-1.8,5.2-3.5,9-4.2,18.7c-0.1,1.7,0.1,6.3,0.2,7.9"/>
		<path id="XMLID_25_" class="st6" d="M622.3,983.3c-8.4-13.3-23-22.2-39.5-22.2c-10.7,0-20.5,3.7-28.4,9.9"/>
		<path id="XMLID_24_" class="st6" d="M629.7,1016.6c0.2-1.6,0.2-4.8,0.2-6.5c0-9.9-2.8-19.1-7.7-26.9"/>
		<path id="XMLID_23_" class="st6" d="M560.7,1046.4c-11,0-13.3-5.9-17.4-10.7"/>
		<path id="XMLID_22_" class="st2" d="M617.8,1006l1.2-26.4c0,0-2.6-3.3-8.8-6.7c-8-4.4-23.2-8.4-42.3-5.5
			c-14.9,2.3-21.5,8.1-21.5,8.1c8.3-2.1,2.3,2.3-3.1,5.2c-6.5,3.5-9.8,0.5-9.8,0.5s0.5,7,6.3,10.3c8.2,4.6,8.5,4.1,8.5,4
			c0,0.1,0.2,7.2,0.5,12.9l-3,5.2l6.3,21.9c4.3,9.7,17.1,19.2,31.4,19.2c14.6,0,26.9-9.2,30.9-19.2l3.6-24.8L617.8,1006z"/>
		<g id="XMLID_19_">
			<path id="XMLID_21_" class="st2" d="M617.7,1007.7l5.4,0.7c3.3,0.4,5.6,3.4,5.2,6.7l-0.3,2.2l1.1,0.1c1.3,0.2,2.3,1.4,2.1,2.7
				l-0.8,6.5c-0.2,1.3-1.4,2.3-2.7,2.2l-1.1-0.1l-0.3,2.2c-0.4,3.3-3.4,5.6-6.7,5.2l-5.4-0.7L617.7,1007.7z"/>
			<path id="XMLID_20_" class="st2" d="M548.7,1007.7l-5.4,0.7c-3.3,0.4-5.6,3.4-5.2,6.7l0.3,2.2l-1.1,0.1c-1.3,0.2-2.3,1.4-2.1,2.7
				l0.8,6.5c0.2,1.3,1.4,2.3,2.7,2.2l1.1-0.1l0.3,2.2c0.4,3.3,3.4,5.6,6.7,5.2l5.4-0.7L548.7,1007.7z"/>
		</g>
		<path id="XMLID_18_" class="st2" d="M616.7,1139.9l4.5-36.8c0,0,12.5,34.4,23.5,36.5c6.7,1.3,12.8-2.1,14.5-8.3
			c1.8-6.2-3-18.1-7.4-30c-4.5-11.9-14.5-33.8-22.6-38c-8-4.2-28.2-8.9-28.2-8.9c-3.7,2.5-12.4,4.8-16.8,4.8c-4.7,0-15.1-1.9-19-4.8
			c0,0-20.2,4.8-28.2,8.9c-8,4.2-18.1,26.1-22.6,38c-4.5,11.9-9.2,23.8-7.4,30c1.8,6.2,7.8,9.6,14.6,8.3c11-2.1,23.5-36.5,23.5-36.5
			l4.5,36.8"/>
		<path id="XMLID_17_" class="st6" d="M536.1,1141.8c13.7-1.4,29.4-2.2,46.1-2.2c18.1,0,35,0.9,49.4,2.5"/>
	</g>
</g>
<line id="XMLID_14_" class="st0" x1="253.5" y1="903.6" x2="208.2" y2="903.6"/>
<linearGradient id="XMLID_138_" gradientUnits="userSpaceOnUse" x1="205.7781" y1="155.5826" x2="317.0706" y2="155.5826">
	<stop  offset="0" style="stop-color:#F4A44F"/>
	<stop  offset="0.35" style="stop-color:#E5493B"/>
	<stop  offset="0.6989" style="stop-color:#618BC8"/>
	<stop  offset="1" style="stop-color:#618BC8"/>
</linearGradient>
<path id="XMLID_8_" class="st7" d="M227.1,129.5c-1.7,1.3-2.1,3.8-0.8,5.5c4.5,6,6.8,13.1,6.8,20.6c0,7.5-2.4,14.6-6.8,20.6
	c-1.3,1.7-1,4.2,0.8,5.5c1.6,1.2,3.8,1,5.1-0.4c0.1-0.1,0.3-0.3,0.4-0.4c5.5-7.4,8.4-16.1,8.4-25.3c0-9.2-2.9-18-8.4-25.3
	C231.3,128.5,228.8,128.2,227.1,129.5z M207.3,144.1c-1.7,1.3-2.1,3.8-0.7,5.5c1.3,1.7,2,3.8,2,5.9c0,2.2-0.7,4.2-2,5.9
	c-1.3,1.7-1,4.2,0.7,5.5c1.6,1.2,3.8,1,5.2-0.3c0.1-0.1,0.2-0.3,0.3-0.4c2.4-3.1,3.6-6.8,3.6-10.7c0-3.9-1.3-7.6-3.6-10.7
	C211.5,143.2,209.1,142.8,207.3,144.1z M252.4,116.5c-1.3-1.7-3.8-2.1-5.5-0.8c-1.7,1.3-2.1,3.8-0.8,5.5c7.5,10,11.4,21.8,11.4,34.3
	c0,12.5-3.9,24.4-11.4,34.3c-1.3,1.7-1,4.2,0.8,5.5c1.6,1.2,3.8,1,5.1-0.4c0.1-0.1,0.3-0.3,0.4-0.4c8.5-11.3,13-24.8,13-39
	C265.4,141.4,260.9,127.9,252.4,116.5z M272.2,102.5c-1.3-1.7-3.8-2.1-5.5-0.8c-1.7,1.3-2.1,3.8-0.8,5.5
	c10.5,14,16.1,30.8,16.1,48.4c0,17.6-5.6,34.3-16.1,48.4c-1.3,1.7-1,4.2,0.8,5.5c1.6,1.2,3.8,1,5.1-0.4c0.1-0.1,0.3-0.3,0.4-0.4
	c11.6-15.4,17.7-33.8,17.7-53.1C289.8,136.3,283.7,117.9,272.2,102.5z M292.4,89.5c-0.9,0-1.7,0.3-2.4,0.8c-1.8,1.3-2.1,3.9-0.8,5.6
	c13,17.3,19.8,38,19.9,59.7c0,21.7-6.9,42.3-19.9,59.7c-1.3,1.8-1,4.3,0.8,5.6c0.7,0.5,1.5,0.8,2.4,0.8c1.1,0,2.1-0.4,2.9-1.2
	c0.1-0.1,0.3-0.3,0.4-0.4c14-18.7,21.5-41,21.5-64.5c0-23.5-7.4-45.8-21.5-64.5C294.8,90,293.7,89.5,292.4,89.5z"/>
<linearGradient id="XMLID_139_" gradientUnits="userSpaceOnUse" x1="342.2717" y1="155.5824" x2="453.5636" y2="155.5824">
	<stop  offset="0" style="stop-color:#F4A44F"/>
	<stop  offset="0.35" style="stop-color:#E5493B"/>
	<stop  offset="0.6989" style="stop-color:#618BC8"/>
	<stop  offset="1" style="stop-color:#618BC8"/>
</linearGradient>
<path id="XMLID_2_" class="st8" d="M350.3,155.6c0-21.7,6.9-42.3,19.8-59.7c1.3-1.8,1-4.3-0.8-5.6c-0.7-0.5-1.5-0.8-2.4-0.8
	c-1.3,0-2.5,0.6-3.2,1.6c-14,18.7-21.5,41-21.5,64.5c0,23.5,7.4,45.8,21.5,64.5c0.1,0.2,0.2,0.3,0.4,0.4c0.8,0.8,1.8,1.2,2.9,1.2
	c0.9,0,1.7-0.3,2.4-0.8c1.8-1.3,2.1-3.9,0.8-5.6C357.2,197.9,350.3,177.3,350.3,155.6z M377.4,155.6c0-17.6,5.6-34.3,16.1-48.4
	c1.3-1.7,1-4.2-0.8-5.5c-1.7-1.3-4.2-1-5.5,0.8c-11.6,15.4-17.7,33.8-17.7,53.1c0,19.3,6.1,37.7,17.7,53.1c0.1,0.2,0.2,0.3,0.4,0.4
	c1.4,1.4,3.6,1.6,5.1,0.4c1.7-1.3,2.1-3.8,0.8-5.5C383,189.9,377.4,173.2,377.4,155.6z M432.3,129.5c-1.7-1.3-4.2-0.9-5.5,0.8
	c-5.5,7.4-8.4,16.1-8.4,25.3c0,9.2,2.9,18,8.4,25.3c0.1,0.2,0.2,0.3,0.4,0.4c1.4,1.4,3.6,1.6,5.1,0.4c1.7-1.3,2.1-3.8,0.8-5.5
	c-4.5-6-6.8-13.1-6.8-20.6c0-7.5,2.4-14.6,6.8-20.6C434.4,133.3,434,130.8,432.3,129.5z M412.5,115.7c-1.7-1.3-4.2-1-5.5,0.8
	c-8.5,11.3-13,24.8-13,39c0,14.2,4.5,27.7,13,39c0.1,0.2,0.2,0.3,0.4,0.4c1.4,1.4,3.6,1.6,5.1,0.4c1.7-1.3,2.1-3.8,0.8-5.5
	c-7.5-10-11.4-21.8-11.4-34.3c0-12.5,3.9-24.4,11.4-34.3C414.6,119.5,414.2,117.1,412.5,115.7z M450.7,155.6c0-2.2,0.7-4.2,2-5.9
	c1.3-1.7,1-4.2-0.7-5.5c-1.7-1.3-4.2-1-5.5,0.7c-2.4,3.1-3.6,6.8-3.6,10.7c0,3.9,1.3,7.6,3.6,10.7c0.1,0.1,0.2,0.3,0.3,0.4
	c1.4,1.4,3.6,1.6,5.2,0.3c1.7-1.3,2.1-3.8,0.7-5.5C451.4,159.8,450.7,157.7,450.7,155.6z"/>
</svg>
