<?xml version="1.0" encoding="utf-8"?>
<!-- Generator: Adobe Illustrator 19.0.0, SVG Export Plug-In . SVG Version: 6.00 Build 0)  -->
<svg version="1.1" id="Layer_1" xmlns="http://www.w3.org/2000/svg" xmlns:xlink="http://www.w3.org/1999/xlink" x="0px" y="0px"
	 viewBox="0 0 695 900" style="enable-background:new 0 0 695 900;" xml:space="preserve">
<style type="text/css">
	.st0{fill:none;stroke:#618BC8;stroke-width:6;stroke-linecap:round;stroke-linejoin:round;stroke-miterlimit:10;}
	.st1{fill:none;stroke:#618BC8;stroke-width:11;stroke-linejoin:round;stroke-miterlimit:10;}
	.st2{fill:#FFFFFF;stroke:#618BC8;stroke-width:2.4979;stroke-linecap:round;stroke-linejoin:round;stroke-miterlimit:10;}
	.st3{fill:url(#XMLID_138_);}
	.st4{fill:none;}
	.st5{fill:#618BC8;}
	.st6{fill:none;stroke:#618BC8;stroke-width:2.4979;stroke-linecap:round;stroke-linejoin:round;stroke-miterlimit:10;}
	.st7{fill:url(#XMLID_139_);}
	.st8{fill:url(#XMLID_140_);}
</style>
<path id="XMLID_135_" class="st0" d="M461.6,650.5h94.9c6.6,0,11.9-5.4,11.9-11.9l0,0c0-6.6-5.4-11.9-11.9-11.9H452.7"/>
<path id="XMLID_134_" class="st0" d="M361.6,665.7h4.9c6.6,0,11.9-5.4,11.9-11.9l0,0c0-6.6-5.4-11.9-11.9-11.9h-3.4"/>
<path id="XMLID_133_" class="st0" d="M347.7,630L347.7,630c0,6.6,5.4,11.9,11.9,11.9h3.4"/>
<g id="XMLID_130_">
	<line id="XMLID_132_" class="st0" x1="660.8" y1="686.2" x2="660.8" y2="808.2"/>
	<path id="XMLID_131_" class="st0" d="M660.8,686.2L660.8,686.2c0-6.6-5.4-11.9-11.9-11.9H458.7"/>
</g>
<path id="XMLID_129_" class="st0" d="M461.6,650.5h-6.9c-6.6,0-11.9,5.4-11.9,11.9l0,0c0,6.6,5.4,11.9,11.9,11.9h4"/>
<path id="XMLID_128_" class="st0" d="M393.5,689.5h-54.9c-6.6,0-11.9-5.4-11.9-11.9l0,0c0-6.6,5.4-11.9,10.4-11.9h24.6"/>
<path id="XMLID_127_" class="st0" d="M451.1,626.6h-54.9c-6.6,0-11.9-5.4-11.9-11.9l0,0"/>
<path id="XMLID_126_" class="st0" d="M287.1,615.9v4.9c0,6.6,5.4,11.9,11.9,11.9l0,0c6.6,0,11.9-5.4,11.9-11.9v-3.4"/>
<path id="XMLID_125_" class="st0" d="M263.2,663.7v-55.9c0-6.6,5.4-11.9,11.9-11.9l0,0c6.6,0,11.9,5.4,11.9,10.4v9.6"/>
<path id="XMLID_124_" class="st0" d="M47.6,666.5h85.9c6.6,0,11.9-5.4,11.9-11.9l0,0c0-6.6-5.4-11.9-10.4-11.9h-9.6"/>
<path id="XMLID_123_" class="st0" d="M35.7,801.5V678.4c0-6.6,5.4-11.9,11.9-11.9l0,0"/>
<path id="XMLID_122_" class="st0" d="M175.3,618.8H88.4c-6.6,0-11.9,5.4-11.9,11.9l0,0c0,6.6,5.4,11.9,10.4,11.9h38.6"/>
<path id="XMLID_121_" class="st0" d="M393.5,689.5h6.9c6.6,0,11.9,5.4,11.9,11.9l0,0"/>
<path id="XMLID_120_" class="st0" d="M263.2,663.7v6.9c0,6.6-5.4,11.9-11.9,11.9l0,0"/>
<path id="XMLID_119_" class="st0" d="M206,682.6h-6.9c-6.6,0-11.9-5.4-11.9-11.9l0,0"/>
<path id="XMLID_118_" class="st0" d="M187.2,670.6v-39.9c0-6.6-5.4-11.9-11.9-11.9l0,0"/>
<polyline id="XMLID_117_" class="st0" points="384.2,614.7 384.2,614.7 384.2,559.2 "/>
<path id="XMLID_116_" class="st1" d="M684.9,439V274.1c0-9.5,1-20-12-41"/>
<g id="XMLID_113_">
	
		<rect id="XMLID_115_" x="659.9" y="222.3" transform="matrix(-0.471 -0.8821 0.8821 -0.471 784.2041 933.1392)" class="st2" width="24" height="18.3"/>
	
		<rect id="XMLID_114_" x="643.8" y="191.4" transform="matrix(-0.471 -0.8822 0.8822 -0.471 786.5162 886.377)" class="st2" width="30.6" height="31.9"/>
</g>
<g id="XMLID_108_">
	<line id="XMLID_112_" class="st1" x1="417.7" y1="514" x2="538.1" y2="514"/>
	<g id="XMLID_109_">
		<rect id="XMLID_111_" x="436.2" y="505.7" class="st2" width="20.6" height="15.6"/>
		<rect id="XMLID_110_" x="410" y="499.9" class="st2" width="26.2" height="27.1"/>
	</g>
</g>
<path id="XMLID_107_" class="st1" d="M641.7,486.8h-53.2c-7.5,0-13.6-6.1-13.6-13.6l0,0c0-7.5,6.1-13.6,13.6-13.6h70.4"/>
<path id="XMLID_106_" class="st1" d="M641.7,486.8h3.2c7.5,0,13.6,6.1,13.6,13.6l0,0c0,7.5-6.1,13.6-13.6,13.6H534.5"/>
<path id="XMLID_105_" class="st1" d="M651.4,459.7h12.9c11.4,0,20.7-9.3,20.7-20.7l0,0"/>
<line id="XMLID_104_" class="st0" x1="347.7" y1="630" x2="347.7" y2="557.7"/>
<polyline id="XMLID_103_" class="st0" points="412.3,701.5 412.3,738.1 412.3,811.1 "/>
<polyline id="XMLID_102_" class="st0" points="310.9,617.4 310.9,617.4 310.9,576.1 "/>
<linearGradient id="XMLID_138_" gradientUnits="userSpaceOnUse" x1="3459.1785" y1="192.8475" x2="3585.6326" y2="66.3934" gradientTransform="matrix(1 0 0 1 -3429.4883 0)">
	<stop  offset="0" style="stop-color:#F4A44F"/>
	<stop  offset="0.35" style="stop-color:#E5493B"/>
	<stop  offset="0.6989" style="stop-color:#C21A7A"/>
	<stop  offset="1" style="stop-color:#A5228B"/>
</linearGradient>
<path id="XMLID_93_" class="st3" d="M92.9,91.6c-20.7,0-37.5,17.1-37.5,38.1c0,21,16.8,38.1,37.5,38.1c20.7,0,37.5-17.1,37.5-38.1
	C130.4,108.6,113.6,91.6,92.9,91.6z M92.9,155.9c-14.3,0-25.9-11.8-25.9-26.3c0-14.5,11.6-26.3,25.9-26.3
	c14.3,0,25.9,11.8,25.9,26.3C118.8,144.1,107.2,155.9,92.9,155.9z M133.1,80.6c-4.5,0-8.1,3.7-8.1,8.2c0,4.5,3.6,8.2,8.1,8.2
	c4.5,0,8.1-3.7,8.1-8.2C141.3,84.3,137.6,80.6,133.1,80.6z M125.4,53.2h-6.1l0,0H63.4l0,0h-2.9c-23.6,0-42.9,19.5-42.9,43.5v65.9
	c0,24,19.2,43.5,42.9,43.5h64.9c23.7,0,42.9-19.5,42.9-43.5V96.7C168.3,72.7,149,53.2,125.4,53.2z M95.1,62.8
	c-0.7,0-1.5,0.1-2.2,0.1c-0.7,0-1.5,0-2.2-0.1H95.1z M156.7,162.6c0,17.5-14,31.8-31.3,31.8H60.5c-17.3,0-31.3-14.2-31.3-31.8V96.7
	c0-17.5,14-31.8,31.3-31.8h64.9c17.3,0,31.3,14.2,31.3,31.8V162.6z"/>
<g id="XMLID_83_">
	<g id="XMLID_90_">
		<rect id="XMLID_92_" x="306.4" y="571.5" class="st2" width="9.7" height="12.1"/>
		<rect id="XMLID_91_" x="302.9" y="556.6" class="st2" width="16.8" height="14.9"/>
	</g>
	<g id="XMLID_87_">
		<rect id="XMLID_89_" x="342.9" y="571.5" class="st2" width="9.7" height="12.1"/>
		<rect id="XMLID_88_" x="339.3" y="556.6" class="st2" width="16.8" height="14.9"/>
	</g>
	<g id="XMLID_84_">
		<rect id="XMLID_86_" x="379.3" y="571.5" class="st2" width="9.7" height="12.1"/>
		<rect id="XMLID_85_" x="375.7" y="556.6" class="st2" width="16.8" height="14.9"/>
	</g>
</g>
<g id="XMLID_67_">
	<path id="XMLID_79_" class="st4" d="M634,64.9h-64.9c-17.3,0-31.3,14.2-31.3,31.7v65.9c0,17.5,14,31.7,31.3,31.7H634
		c17.3,0,31.3-14.2,31.3-31.7V96.7C665.3,79.2,651.3,64.9,634,64.9z M601.6,167.7c-20.7,0-37.5-17.1-37.5-38.1
		c0-21,16.8-38.1,37.5-38.1c20.7,0,37.5,17.1,37.5,38.1C639.1,150.6,622.3,167.7,601.6,167.7z M641.8,97c-4.5,0-8.1-3.7-8.1-8.2
		c0-4.5,3.6-8.2,8.1-8.2c4.5,0,8.1,3.7,8.1,8.2C649.9,93.4,646.3,97,641.8,97z"/>
	<path id="XMLID_78_" class="st4" d="M601.6,103.3c-14.3,0-25.9,11.8-25.9,26.3c0,14.5,11.6,26.3,25.9,26.3
		c14.3,0,25.9-11.8,25.9-26.3C627.5,115.1,615.9,103.3,601.6,103.3z"/>
	<path id="XMLID_77_" class="st5" d="M601.6,59.8c8.6,0,14.8-3.6,19-8.9l-7.2-4.8c-2.4,3.2-6.8,5.3-11.8,5.3c-5,0-9.4-2.1-11.8-5.3
		l-7.2,4.8C586.8,56.2,593,59.8,601.6,59.8z"/>
	<path id="XMLID_76_" class="st5" d="M592.8,44.1c1.8,2.5,5.1,4.1,8.8,4.1c3.7,0,7-1.6,8.8-4.1l-5-3.3h-7.5L592.8,44.1z"/>
	<path id="XMLID_73_" class="st5" d="M685,99.7h-8.1v-3c0-24-19.2-43.5-42.9-43.5h-9.4c-5.4,6-13.8,9.7-23.1,9.7
		c-9.3,0-17.7-3.7-23.1-9.7h-9.4c-23.7,0-42.9,19.5-42.9,43.5v3h-8.1c-3.6,0-6.6,3-6.6,6.7v46.9c0,3.7,3,6.7,6.6,6.7h8.1v2.5
		c0,24,19.2,43.5,42.9,43.5H634c23.6,0,42.9-19.5,42.9-43.5V160h8.1c3.6,0,6.6-3,6.6-6.7v-46.9C691.6,102.7,688.6,99.7,685,99.7z
		 M665.3,162.6c0,17.5-14,31.7-31.3,31.7h-64.9c-17.3,0-31.3-14.2-31.3-31.7V96.7c0-17.5,14-31.7,31.3-31.7H634
		c17.3,0,31.3,14.2,31.3,31.7V162.6z"/>
	<ellipse id="XMLID_72_" class="st5" cx="641.8" cy="88.8" rx="8.1" ry="8.2"/>
	<path id="XMLID_69_" class="st5" d="M601.6,91.6c-20.7,0-37.5,17.1-37.5,38.1c0,21,16.8,38.1,37.5,38.1c20.7,0,37.5-17.1,37.5-38.1
		C639.1,108.6,622.3,91.6,601.6,91.6z M601.6,155.9c-14.3,0-25.9-11.8-25.9-26.3c0-14.5,11.6-26.3,25.9-26.3
		c14.3,0,25.9,11.8,25.9,26.3C627.5,144.1,615.9,155.9,601.6,155.9z"/>
	<path id="XMLID_68_" class="st5" d="M601.6,3.3c-2.1,0-3.8,1.7-3.8,3.8v33.6h7.5V7.2C605.3,5.1,603.6,3.3,601.6,3.3z"/>
</g>
<rect id="XMLID_66_" x="282.3" y="493.2" class="st2" width="128.5" height="64.5"/>
<g id="XMLID_62_">
	<circle id="XMLID_65_" class="st2" cx="363.4" cy="514.9" r="4"/>
	<circle id="XMLID_64_" class="st2" cx="380" cy="514.9" r="4"/>
	<circle id="XMLID_63_" class="st2" cx="396.6" cy="514.9" r="4"/>
</g>
<g id="XMLID_16_">
	<g id="XMLID_47_">
		<g id="XMLID_58_">
			<path id="XMLID_61_" class="st2" d="M213,884.3v-98.5c0-4.6-3.7-8.3-8.3-8.3H22.9c-4.6,0-8.3,3.7-8.3,8.3v98.5H213z"/>
			<path id="XMLID_60_" class="st2" d="M1.6,878.7c0,0.5-0.1,0.9-0.1,1.4c0,4.8,2.5,8.7,5.6,8.7h213.2c3.1,0,5.6-3.9,5.6-8.7
				c0-0.5,0-0.9-0.1-1.4H1.6z"/>
			<rect id="XMLID_59_" x="22.2" y="785.5" class="st2" width="183.2" height="88.8"/>
		</g>
		<path id="XMLID_57_" class="st6" d="M72.1,744.4c-1.8,5.2-3.5,9-4.2,18.7c-0.1,1.7,0.1,6.3,0.2,7.9"/>
		<path id="XMLID_56_" class="st6" d="M154.6,736.3c-8.4-13.3-23-22.2-39.5-22.2c-10.7,0-20.5,3.7-28.4,9.9"/>
		<path id="XMLID_55_" class="st6" d="M162,769.6c0.2-1.6,0.2-4.8,0.2-6.5c0-9.9-2.8-19.1-7.7-26.9"/>
		<path id="XMLID_54_" class="st6" d="M93,799.3c-11,0-13.3-5.9-17.4-10.7"/>
		<path id="XMLID_53_" class="st2" d="M150.1,759l1.2-26.4c0,0-2.6-3.3-8.8-6.7c-8-4.4-23.2-8.4-42.3-5.5
			c-14.9,2.3-21.5,8.1-21.5,8.1c8.3-2.1,2.3,2.3-3.1,5.2c-6.5,3.5-9.8,0.5-9.8,0.5s0.5,7,6.3,10.3c8.2,4.6,8.5,4.1,8.5,4
			c0,0.1,0.2,7.2,0.5,12.9l-3,5.2l6.3,21.9c4.3,9.7,17.1,19.2,31.4,19.2c14.6,0,26.9-9.2,30.9-19.2l3.6-24.8L150.1,759z"/>
		<g id="XMLID_50_">
			<path id="XMLID_52_" class="st2" d="M150.1,760.6l5.4,0.7c3.3,0.4,5.6,3.4,5.2,6.7l-0.3,2.2l1.1,0.1c1.3,0.2,2.3,1.4,2.1,2.7
				l-0.8,6.5c-0.2,1.3-1.4,2.3-2.7,2.2l-1.1-0.1l-0.3,2.2c-0.4,3.3-3.4,5.6-6.7,5.2l-5.4-0.7L150.1,760.6z"/>
			<path id="XMLID_51_" class="st2" d="M81,760.6l-5.4,0.7c-3.3,0.4-5.6,3.4-5.2,6.7l0.3,2.2l-1.1,0.1c-1.3,0.2-2.3,1.4-2.1,2.7
				l0.8,6.5c0.2,1.3,1.4,2.3,2.7,2.2l1.1-0.1l0.3,2.2c0.4,3.3,3.4,5.6,6.7,5.2l5.4-0.7L81,760.6z"/>
		</g>
		<path id="XMLID_49_" class="st2" d="M149,892.9l4.5-36.8c0,0,12.5,34.4,23.5,36.5c6.7,1.3,12.8-2.1,14.5-8.3
			c1.8-6.2-3-18.1-7.4-30c-4.5-11.9-14.5-33.8-22.6-38c-8-4.2-28.2-8.9-28.2-8.9c-3.7,2.5-12.4,4.8-16.8,4.8c-4.7,0-15.1-1.9-19-4.8
			c0,0-20.2,4.8-28.2,8.9c-8,4.2-18.1,26.1-22.6,38c-4.5,11.9-9.2,23.8-7.4,30c1.8,6.2,7.8,9.6,14.5,8.3c11-2.1,23.5-36.5,23.5-36.5
			l4.5,36.8"/>
		<path id="XMLID_48_" class="st6" d="M68.4,894.7c13.7-1.4,29.4-2.2,46.1-2.2c18.1,0,35,0.9,49.4,2.5"/>
	</g>
	<g id="XMLID_32_">
		<g id="XMLID_43_">
			<path id="XMLID_46_" class="st2" d="M445.7,884.3v-98.5c0-4.6-3.7-8.3-8.3-8.3H255.7c-4.6,0-8.3,3.7-8.3,8.3v98.5H445.7z"/>
			<path id="XMLID_45_" class="st2" d="M234.4,878.7c0,0.5-0.1,0.9-0.1,1.4c0,4.8,2.5,8.7,5.6,8.7h213.2c3.1,0,5.6-3.9,5.6-8.7
				c0-0.5,0-0.9-0.1-1.4H234.4z"/>
			<rect id="XMLID_44_" x="255" y="785.5" class="st2" width="183.2" height="88.8"/>
		</g>
		<path id="XMLID_42_" class="st6" d="M304.9,744.4c-1.8,5.2-3.5,9-4.2,18.7c-0.1,1.7,0.1,6.3,0.2,7.9"/>
		<path id="XMLID_41_" class="st6" d="M387.3,736.3c-8.4-13.3-23-22.2-39.5-22.2c-10.7,0-20.5,3.7-28.4,9.9"/>
		<path id="XMLID_40_" class="st6" d="M394.8,769.6c0.2-1.6,0.2-4.8,0.2-6.5c0-9.9-2.8-19.1-7.7-26.9"/>
		<path id="XMLID_39_" class="st6" d="M325.8,799.3c-11,0-13.3-5.9-17.4-10.7"/>
		<path id="XMLID_38_" class="st2" d="M382.9,759l1.2-26.4c0,0-2.6-3.3-8.8-6.7c-8-4.4-23.2-8.4-42.3-5.5
			c-14.9,2.3-21.5,8.1-21.5,8.1c8.3-2.1,2.3,2.3-3.1,5.2c-6.5,3.5-9.8,0.5-9.8,0.5s0.5,7,6.3,10.3c8.2,4.6,8.5,4.1,8.5,4
			c0,0.1,0.2,7.2,0.5,12.9l-3,5.2l6.3,21.9c4.3,9.7,17.1,19.2,31.4,19.2c14.6,0,26.9-9.2,30.9-19.2l3.6-24.8L382.9,759z"/>
		<g id="XMLID_35_">
			<path id="XMLID_37_" class="st2" d="M382.8,760.6l5.4,0.7c3.3,0.4,5.6,3.4,5.2,6.7l-0.3,2.2l1.1,0.1c1.3,0.2,2.3,1.4,2.1,2.7
				l-0.8,6.5c-0.2,1.3-1.4,2.3-2.7,2.2l-1.1-0.1l-0.3,2.2c-0.4,3.3-3.4,5.6-6.7,5.2l-5.4-0.7L382.8,760.6z"/>
			<path id="XMLID_36_" class="st2" d="M313.8,760.6l-5.4,0.7c-3.3,0.4-5.6,3.4-5.2,6.7l0.3,2.2l-1.1,0.1c-1.3,0.2-2.3,1.4-2.1,2.7
				l0.8,6.5c0.2,1.3,1.4,2.3,2.7,2.2l1.1-0.1l0.3,2.2c0.4,3.3,3.4,5.6,6.7,5.2l5.4-0.7L313.8,760.6z"/>
		</g>
		<path id="XMLID_34_" class="st2" d="M381.8,892.9l4.5-36.8c0,0,12.5,34.4,23.5,36.5c6.7,1.3,12.8-2.1,14.5-8.3
			c1.8-6.2-3-18.1-7.4-30c-4.5-11.9-14.5-33.8-22.6-38c-8-4.2-28.2-8.9-28.2-8.9c-3.7,2.5-12.4,4.8-16.8,4.8c-4.7,0-15.1-1.9-19-4.8
			c0,0-20.2,4.8-28.2,8.9c-8,4.2-18.1,26.1-22.6,38c-4.5,11.9-9.2,23.8-7.4,30c1.8,6.2,7.8,9.6,14.5,8.3c11-2.1,23.5-36.5,23.5-36.5
			l4.5,36.8"/>
		<path id="XMLID_33_" class="st6" d="M301.1,894.7c13.7-1.4,29.4-2.2,46.1-2.2c18.1,0,35,0.9,49.4,2.5"/>
	</g>
	<g id="XMLID_17_">
		<g id="XMLID_28_">
			<path id="XMLID_31_" class="st2" d="M678.5,884.3v-98.5c0-4.6-3.7-8.3-8.3-8.3H488.5c-4.6,0-8.3,3.7-8.3,8.3v98.5H678.5z"/>
			<path id="XMLID_30_" class="st2" d="M467.2,878.7c0,0.5-0.1,0.9-0.1,1.4c0,4.8,2.5,8.7,5.6,8.7h213.2c3.1,0,5.6-3.9,5.6-8.7
				c0-0.5,0-0.9-0.1-1.4H467.2z"/>
			<rect id="XMLID_29_" x="487.7" y="785.5" class="st2" width="183.2" height="88.8"/>
		</g>
		<path id="XMLID_27_" class="st6" d="M537.6,744.4c-1.8,5.2-3.5,9-4.2,18.7c-0.1,1.7,0.1,6.3,0.2,7.9"/>
		<path id="XMLID_26_" class="st6" d="M620.1,736.3c-8.4-13.3-23-22.2-39.5-22.2c-10.7,0-20.5,3.7-28.4,9.9"/>
		<path id="XMLID_25_" class="st6" d="M627.6,769.6c0.2-1.6,0.2-4.8,0.2-6.5c0-9.9-2.8-19.1-7.7-26.9"/>
		<path id="XMLID_24_" class="st6" d="M558.6,799.3c-11,0-13.3-5.9-17.4-10.7"/>
		<path id="XMLID_23_" class="st2" d="M615.7,759l1.2-26.4c0,0-2.6-3.3-8.8-6.7c-8-4.4-23.2-8.4-42.3-5.5
			c-14.9,2.3-21.5,8.1-21.5,8.1c8.3-2.1,2.3,2.3-3.1,5.2c-6.5,3.5-9.8,0.5-9.8,0.5s0.5,7,6.3,10.3c8.2,4.6,8.5,4.1,8.5,4
			c0,0.1,0.2,7.2,0.5,12.9l-3,5.2l6.3,21.9c4.3,9.7,17.1,19.2,31.4,19.2c14.6,0,26.9-9.2,30.9-19.2l3.6-24.8L615.7,759z"/>
		<g id="XMLID_20_">
			<path id="XMLID_22_" class="st2" d="M615.6,760.6l5.4,0.7c3.3,0.4,5.6,3.4,5.2,6.7l-0.3,2.2l1.1,0.1c1.3,0.2,2.3,1.4,2.1,2.7
				l-0.8,6.5c-0.2,1.3-1.4,2.3-2.7,2.2l-1.1-0.1l-0.3,2.2c-0.4,3.3-3.4,5.6-6.7,5.2l-5.4-0.7L615.6,760.6z"/>
			<path id="XMLID_21_" class="st2" d="M546.6,760.6l-5.4,0.7c-3.3,0.4-5.6,3.4-5.2,6.7l0.3,2.2l-1.1,0.1c-1.3,0.2-2.3,1.4-2.1,2.7
				l0.8,6.5c0.2,1.3,1.4,2.3,2.7,2.2l1.1-0.1l0.3,2.2c0.4,3.3,3.4,5.6,6.7,5.2l5.4-0.7L546.6,760.6z"/>
		</g>
		<path id="XMLID_19_" class="st2" d="M614.5,892.9l4.5-36.8c0,0,12.5,34.4,23.5,36.5c6.7,1.3,12.8-2.1,14.5-8.3
			c1.8-6.2-3-18.1-7.4-30c-4.5-11.9-14.5-33.8-22.6-38c-8-4.2-28.2-8.9-28.2-8.9c-3.7,2.5-12.4,4.8-16.8,4.8c-4.7,0-15.1-1.9-19-4.8
			c0,0-20.2,4.8-28.2,8.9c-8,4.2-18.1,26.1-22.6,38c-4.5,11.9-9.2,23.8-7.4,30c1.8,6.2,7.8,9.6,14.6,8.3c11-2.1,23.5-36.5,23.5-36.5
			l4.5,36.8"/>
		<path id="XMLID_18_" class="st6" d="M533.9,894.7c13.7-1.4,29.4-2.2,46.1-2.2c18.1,0,35,0.9,49.4,2.5"/>
	</g>
</g>
<line id="XMLID_15_" class="st0" x1="251.3" y1="682.6" x2="206" y2="682.6"/>
<g id="XMLID_2_">
	<linearGradient id="XMLID_139_" gradientUnits="userSpaceOnUse" x1="216.2135" y1="129.6192" x2="327.506" y2="129.6192">
		<stop  offset="0" style="stop-color:#F4A44F"/>
		<stop  offset="0.35" style="stop-color:#E5493B"/>
		<stop  offset="0.6989" style="stop-color:#618BC8"/>
		<stop  offset="1" style="stop-color:#618BC8"/>
	</linearGradient>
	<path id="XMLID_9_" class="st7" d="M237.5,103.5c-1.7,1.3-2.1,3.8-0.8,5.5c4.5,6,6.8,13.1,6.8,20.6c0,7.5-2.4,14.6-6.8,20.6
		c-1.3,1.7-1,4.2,0.8,5.5c1.6,1.2,3.8,1,5.1-0.4c0.1-0.1,0.3-0.3,0.4-0.4c5.5-7.4,8.4-16.1,8.4-25.3s-2.9-18-8.4-25.3
		C241.7,102.6,239.2,102.2,237.5,103.5z M217.8,118.2c-1.7,1.3-2.1,3.8-0.7,5.5c1.3,1.7,2,3.8,2,5.9c0,2.2-0.7,4.2-2,5.9
		c-1.3,1.7-1,4.2,0.7,5.5c1.6,1.2,3.8,1,5.2-0.3c0.1-0.1,0.2-0.3,0.3-0.4c2.4-3.1,3.6-6.8,3.6-10.7c0-3.9-1.3-7.6-3.6-10.7
		C222,117.2,219.5,116.9,217.8,118.2z M262.8,90.6c-1.3-1.7-3.8-2.1-5.5-0.8c-1.7,1.3-2.1,3.8-0.8,5.5c7.5,10,11.4,21.8,11.4,34.3
		c0,12.5-3.9,24.4-11.4,34.3c-1.3,1.7-1,4.2,0.8,5.5c1.6,1.2,3.8,1,5.1-0.4c0.1-0.1,0.3-0.3,0.4-0.4c8.5-11.3,13-24.8,13-39
		C275.8,115.4,271.3,101.9,262.8,90.6z M282.6,76.5c-1.3-1.7-3.8-2.1-5.5-0.8c-1.7,1.3-2.1,3.8-0.8,5.5c10.5,14,16.1,30.8,16.1,48.4
		c0,17.6-5.6,34.3-16.1,48.4c-1.3,1.7-1,4.2,0.8,5.5c1.6,1.2,3.8,1,5.1-0.4c0.1-0.1,0.3-0.3,0.4-0.4c11.6-15.4,17.7-33.8,17.7-53.1
		C300.3,110.3,294.2,91.9,282.6,76.5z M302.8,63.5c-0.9,0-1.7,0.3-2.4,0.8c-1.8,1.3-2.1,3.9-0.8,5.6c13,17.3,19.8,38,19.9,59.7
		c0,21.7-6.9,42.3-19.9,59.7c-1.3,1.8-1,4.3,0.8,5.6c0.7,0.5,1.5,0.8,2.4,0.8c1.1,0,2.1-0.4,2.9-1.2c0.1-0.1,0.3-0.3,0.4-0.4
		c14-18.7,21.5-41,21.5-64.5c0-23.5-7.4-45.8-21.5-64.5C305.3,64.1,304.1,63.5,302.8,63.5z"/>
	<linearGradient id="XMLID_140_" gradientUnits="userSpaceOnUse" x1="352.7071" y1="129.6191" x2="463.9996" y2="129.6191">
		<stop  offset="0" style="stop-color:#F4A44F"/>
		<stop  offset="0.35" style="stop-color:#E5493B"/>
		<stop  offset="0.6989" style="stop-color:#618BC8"/>
		<stop  offset="1" style="stop-color:#618BC8"/>
	</linearGradient>
	<path id="XMLID_3_" class="st8" d="M360.8,129.6c0-21.7,6.9-42.3,19.8-59.7c1.3-1.8,1-4.3-0.8-5.6c-0.7-0.5-1.5-0.8-2.4-0.8
		c-1.3,0-2.5,0.6-3.2,1.6c-14,18.7-21.5,41-21.5,64.5c0,23.5,7.4,45.8,21.5,64.5c0.1,0.2,0.2,0.3,0.4,0.4c0.8,0.8,1.8,1.2,2.9,1.2
		c0.9,0,1.7-0.3,2.4-0.8c1.8-1.3,2.1-3.9,0.8-5.6C367.6,172,360.8,151.3,360.8,129.6z M387.8,129.6c0-17.6,5.6-34.3,16.1-48.4
		c1.3-1.7,1-4.2-0.8-5.5c-1.7-1.3-4.2-1-5.5,0.8c-11.6,15.4-17.7,33.8-17.7,53.1c0,19.3,6.1,37.7,17.7,53.1c0.1,0.2,0.2,0.3,0.4,0.4
		c1.4,1.4,3.6,1.6,5.1,0.4c1.7-1.3,2.1-3.8,0.8-5.5C393.4,163.9,387.8,147.2,387.8,129.6z M442.7,103.5c-1.7-1.3-4.2-1-5.5,0.8
		c-5.5,7.4-8.4,16.1-8.4,25.3c0,9.2,2.9,18,8.4,25.3c0.1,0.2,0.2,0.3,0.4,0.4c1.4,1.4,3.6,1.6,5.1,0.4c1.7-1.3,2.1-3.8,0.8-5.5
		c-4.5-6-6.8-13.1-6.8-20.6c0-7.5,2.4-14.6,6.8-20.6C444.8,107.3,444.5,104.8,442.7,103.5z M422.9,89.8c-1.7-1.3-4.2-1-5.5,0.8
		c-8.5,11.3-13,24.8-13,39s4.5,27.7,13,39c0.1,0.2,0.2,0.3,0.4,0.4c1.4,1.4,3.6,1.6,5.1,0.4c1.7-1.3,2.1-3.8,0.8-5.5
		c-7.5-10-11.4-21.8-11.4-34.3s3.9-24.4,11.4-34.3C425,93.6,424.6,91.1,422.9,89.8z M461.2,129.6c0-2.2,0.7-4.2,2-5.9
		c1.3-1.7,1-4.2-0.7-5.5c-1.7-1.3-4.2-1-5.5,0.7c-2.4,3.1-3.6,6.8-3.6,10.7c0,3.9,1.3,7.6,3.6,10.7c0.1,0.1,0.2,0.3,0.3,0.4
		c1.4,1.4,3.6,1.6,5.2,0.3c1.7-1.3,2.1-3.8,0.7-5.5C461.9,133.8,461.2,131.8,461.2,129.6z"/>
</g>
</svg>
