<svg id="Layer_1" data-name="Layer 1" xmlns="http://www.w3.org/2000/svg" viewBox="0 0 370 79"><defs><style>.cls-1{fill:#ee3959;}.cls-2{fill:#fbd050;}.cls-3{fill:#5fa76e;}.cls-4{fill:#608ac7;}.cls-5{fill:#399;}</style></defs><title>about-us-logo</title><path class="cls-1" d="M885,4869.86a20,20,0,0,0-13.73,34.51,12.69,12.69,0,0,1-2.2,2.64,13.23,13.23,0,0,1-4,2.51c1.08,0.1,2,.18,2.9.18a15,15,0,0,0,4.51-.71,22.91,22.91,0,0,0,3.41-1.34A20,20,0,1,0,885,4869.86Z" transform="translate(-535 -4869.86)"/><circle class="cls-2" cx="350.01" cy="20.28" r="17.49"/><path class="cls-3" d="M885,4905.13a15,15,0,1,1,15-15A15,15,0,0,1,885,4905.13Z" transform="translate(-535 -4869.86)"/><path class="cls-4" d="M885,4902.64a12.49,12.49,0,1,1,12.5-12.49A12.51,12.51,0,0,1,885,4902.64Z" transform="translate(-535 -4869.86)"/><path class="cls-1" d="M885,4900.14a10,10,0,1,1,10-10A10,10,0,0,1,885,4900.14Z" transform="translate(-535 -4869.86)"/><path class="cls-2" d="M885,4897.64a7.5,7.5,0,1,1,7.5-7.5A7.51,7.51,0,0,1,885,4897.64Z" transform="translate(-535 -4869.86)"/><circle class="cls-3" cx="350.01" cy="20.28" r="5"/><circle class="cls-4" cx="350.01" cy="20.28" r="2.5"/><path class="cls-5" d="M593.39,4880.2q4.11,0.54,7.89,1a62.82,62.82,0,0,0,7.15.44,3.26,3.26,0,0,0,1.72-.46,3.43,3.43,0,0,0,1.2-1.24,5,5,0,0,0,.6-1.7,4.47,4.47,0,0,0-.11-1.89,5,5,0,0,0-1.49-2.36,6.55,6.55,0,0,0-3.35-1.46q-9.48-1.5-18-2.07t-16.13-.57q-5.67,0-10.94.24a89.27,89.27,0,0,0-9.73.95,45.2,45.2,0,0,0-8,2,18.07,18.07,0,0,0-5.8,3.18,9.57,9.57,0,0,0-3,4.67,11.92,11.92,0,0,0,.19,6.43,7.81,7.81,0,0,0,1.58,2.81,8.9,8.9,0,0,0,2.5,1.93,8.41,8.41,0,0,0,4.08.88,5.72,5.72,0,0,0,3.59-.89,4.15,4.15,0,0,0,1.44-2,4.47,4.47,0,0,0,.19-2c-0.1-.62-0.15-1-0.17-1a4.26,4.26,0,0,1,.16-3,5.61,5.61,0,0,1,2.07-2.2,13.62,13.62,0,0,1,3.29-1.52,32,32,0,0,1,4-1q2.15-.39,4.48-0.62t4.6-.41c-0.25,5.72-1.14,13.06-1.33,17.73-0.12,3.08-.24,3.7-0.49,9.26-0.16,3.76-.24,5.06-0.37,8.77-0.2,6.18-.4,9-0.37,10.61,0.05,2.82-.15,6.6-0.1,9.19s0.1,5.16.15,7.74a10.48,10.48,0,0,0,.24,2.22,5.65,5.65,0,0,0,2.73,3.63,6.95,6.95,0,0,0,6.11.43,4.58,4.58,0,0,0,1.74-1.34,5.3,5.3,0,0,0,1.12-2.12,11.39,11.39,0,0,0,.42-3.26c0-2.18-.06-4.21-0.08-7.23s0-6.32-.08-9.9-0.05-7.31-.09-11.22,0.09-6.55.06-10.46-0.16-8-.24-11.73a109.9,109.9,0,0,0-.77-12.3q4.54,0.27,8.9.81Zm264.07,44.73,0-.07a9.25,9.25,0,0,1-.5-2.45,14.08,14.08,0,0,1,0-2.14c0.06-.86.18-2,0.36-3.29s0.31-2.41.37-3.24a11.89,11.89,0,0,0,0-1.94,4,4,0,0,0-.47-1.61,4.19,4.19,0,0,0-1-1.2,4.56,4.56,0,0,0-2.89-1,6.24,6.24,0,0,0-3.85,1.2,12.46,12.46,0,0,0-2.81,3,21.21,21.21,0,0,0-2.18,4.41c-0.66,1.77-1.22,3.2-1.67,4.29h-0.45a42,42,0,0,1-.3-4.86c0-1.85-.08-3.28-0.17-4.29-0.07-.84-0.16-1.51-0.24-2a2.38,2.38,0,0,0-.44-1.12,1.47,1.47,0,0,0-.92-0.49,11.05,11.05,0,0,0-1.66-.1,10.57,10.57,0,0,0-1.57.1,2.28,2.28,0,0,0-1,.41,2.4,2.4,0,0,0-.68.84,7,7,0,0,0-.53,1.43,27.29,27.29,0,0,0-.76,3.43q-0.35,2.08-.81,5.2c-0.3,2.08-.54,4-0.69,5.88s-0.26,3.64-.34,5.41c0,0.25,0,.48,0,0.72-0.52.45-1.07,0.92-1.67,1.39a39.76,39.76,0,0,1-4.58,3.13,30.6,30.6,0,0,1-5.07,2.39,14.68,14.68,0,0,1-5.08,1,6.16,6.16,0,0,1-1.47-.16,4.38,4.38,0,0,1-1.34-.56,6.33,6.33,0,0,1-1.31-1.12,14.94,14.94,0,0,1-1.37-1.8,26.17,26.17,0,0,0,6.37-2.67,21.56,21.56,0,0,0,4.91-3.91,19.7,19.7,0,0,0,3.41-5.27,11.19,11.19,0,0,0,1.17-5.55A11,11,0,0,0,825,4914a10.53,10.53,0,0,0-2.55-3.2,11.58,11.58,0,0,0-3.6-2.06,12.57,12.57,0,0,0-4.31-.73,12.09,12.09,0,0,0-5,1,13.13,13.13,0,0,0-3.91,2.66,16,16,0,0,0-2.89,3.87,23.44,23.44,0,0,0-1.89,4.62c-0.47,1.61-.9,3.45-1.29,5.54a20.27,20.27,0,0,0-.38,5.38c0,0.49.11,1,.18,1.45l-0.43.19a7.52,7.52,0,0,1-2.78.63,7.29,7.29,0,0,1-2.77-.45,4.75,4.75,0,0,1-1.78-1.2,5.12,5.12,0,0,1-1-1.7,8.32,8.32,0,0,1-.41-1.92,10.5,10.5,0,0,1,0-1.82,12.22,12.22,0,0,1,.21-1.57c0.12-.52.24-1,0.36-1.51s0.67-2.16,1.64-5.1c0.13-.38.49-1.27,1.08-2.65a10.43,10.43,0,0,0,.61-2.24,6.88,6.88,0,0,0,.14-2.17,3.2,3.2,0,0,0-1.65-2.46,7.08,7.08,0,0,0-3.88-1,5.41,5.41,0,0,0-1.67.24,6.14,6.14,0,0,0-1.4.63,3.37,3.37,0,0,0-1,.92,2.55,2.55,0,0,0-.43,1.11l-8.76,27.23-0.28,0-1.59-27.07a3.78,3.78,0,0,0-.77-1.88,2,2,0,0,0-1.68-.81h-0.44l-0.38.08-5.13.77c-0.91.13-1.44,1-1.58,2.55a50.48,50.48,0,0,0,.27,7.78c0.09,1.09.2,2.15,0.32,3.18s0.26,2.16.44,3.39l0.59,4.1c0.09,0.67.2,1.4,0.3,2.17l-0.92.75a39.3,39.3,0,0,1-4.59,3.13,30.39,30.39,0,0,1-5.08,2.39,14.61,14.61,0,0,1-5.08,1,6.16,6.16,0,0,1-1.47-.16,4.4,4.4,0,0,1-1.34-.56,6.19,6.19,0,0,1-1.3-1.12,14.36,14.36,0,0,1-1.37-1.8,26.2,26.2,0,0,0,6.37-2.67,21.55,21.55,0,0,0,4.92-3.91,19.77,19.77,0,0,0,3.4-5.27,11.25,11.25,0,0,0,1.17-5.55,11.09,11.09,0,0,0-1.19-4.2,10.66,10.66,0,0,0-2.55-3.2,11.57,11.57,0,0,0-3.59-2.06,12.6,12.6,0,0,0-4.31-.73,12.09,12.09,0,0,0-5,1,13.24,13.24,0,0,0-3.91,2.66,16.07,16.07,0,0,0-2.89,3.87,23.15,23.15,0,0,0-1.89,4.62c-0.46,1.61-.9,3.45-1.28,5.54a20.31,20.31,0,0,0-.38,5.38c0.07,0.81.19,1.6,0.34,2.38q-1,.9-2.06,1.69c-0.61.47-1.25,0.93-1.9,1.38a21.58,21.58,0,0,1-2,1.22,12.33,12.33,0,0,1-1.86.85,5.14,5.14,0,0,1-1.67.31,2.05,2.05,0,0,1-1.37-.49,3.81,3.81,0,0,1-1-1.34,9,9,0,0,1-.63-1.93,18.06,18.06,0,0,1-.34-2.27,16,16,0,0,1,0-2c0-.67.08-1.34,0.15-2s0.15-1.25.25-1.8a12.83,12.83,0,0,1,.3-1.4q0.74-2.65,3.66-10a76.7,76.7,0,0,0,3.13-9.76q1.22-4.94,2.47-10a35.37,35.37,0,0,0,.86-10.91c-0.08-1-.15-2-0.24-3a27.82,27.82,0,0,0-.76-4.52,14.46,14.46,0,0,0-1.54-3.84,8.45,8.45,0,0,0-2.42-2.66,5.72,5.72,0,0,0-3.36-1,8.54,8.54,0,0,0-4.95,1.62,16.71,16.71,0,0,0-4.24,4.47,33,33,0,0,0-3.41,6.78,43.58,43.58,0,0,0-2.24,8.57q-0.75,4.66-1.4,8.7a42.1,42.1,0,0,0-.31,9.35A18.05,18.05,0,0,0,701,4911a17.38,17.38,0,0,0-5,3.43,17.18,17.18,0,0,0-3.72,5.05c-0.89,1.85-1.69,3.63-2.39,5.32a23.2,23.2,0,0,0-1.5,5.26,21.88,21.88,0,0,0-.2,5.37c0,0.14,0,.27,0,0.41a7.77,7.77,0,0,1-1.49.89,11.88,11.88,0,0,0-1.76,1.35,4.78,4.78,0,0,1-1.64.86,3.82,3.82,0,0,1-1.36.37,2.36,2.36,0,0,1-2.12-1.63,12.21,12.21,0,0,1-1-4.17q-0.13-1.5-.1-3.3t0.15-3.64q0.13-1.83.27-4.16c0.1-1.55.19-2.81,0.3-3.8s0.19-1.82.25-2.54a9.52,9.52,0,0,0,.05-1.51,8.74,8.74,0,0,0-1.62-4.73,4.17,4.17,0,0,0-3.4-1.71,8,8,0,0,0-3.64.81,6.51,6.51,0,0,0-2.72,3c-0.16.32-.4,0.82-0.73,1.51s-0.68,1.46-1.06,2.35-0.8,1.8-1.25,2.77a23.18,23.18,0,0,0-1.19,3.33,23.64,23.64,0,0,1-1,2.88l-0.65,1.44h-0.81a8.6,8.6,0,0,1,0-1.12c0-.56.06-1.4,0.08-2.53s0.06-2.14.13-3,0.11-1.74.16-2.57,0.08-1.59.1-2.28a13.83,13.83,0,0,0,0-1.66,7.1,7.1,0,0,0-1.17-3.59,3.65,3.65,0,0,0-3.18-1.34,4.39,4.39,0,0,0-3.38,1.26,5.77,5.77,0,0,0-1.46,3.14q-0.36,2.41-.68,5.8t-0.43,7.62q-0.09,3-.12,5.59c-0.48.42-1,.85-1.55,1.29a39.76,39.76,0,0,1-4.58,3.13,30.76,30.76,0,0,1-5.08,2.39,14.66,14.66,0,0,1-5.08,1,6.13,6.13,0,0,1-1.47-.16,4.38,4.38,0,0,1-1.34-.56,6.21,6.21,0,0,1-1.3-1.12,14.54,14.54,0,0,1-1.37-1.8,26.21,26.21,0,0,0,6.38-2.67,21.55,21.55,0,0,0,4.92-3.91,19.76,19.76,0,0,0,3.4-5.27,10.45,10.45,0,0,0,0-9.75,10.64,10.64,0,0,0-2.55-3.2,11.56,11.56,0,0,0-3.59-2.06,12.58,12.58,0,0,0-4.32-.73,12.17,12.17,0,0,0-5,1,13.18,13.18,0,0,0-3.91,2.66,16.06,16.06,0,0,0-2.89,3.87,23.31,23.31,0,0,0-1.89,4.62,56.72,56.72,0,0,0-1.28,5.54c0,0.16,0,.31-0.08.47-0.35.17-.69,0.35-1.06,0.51a9.36,9.36,0,0,1-3.73.82,3.38,3.38,0,0,1-1.27-.25,3,3,0,0,1-1.13-.84,5.17,5.17,0,0,1-.89-1.57,9.42,9.42,0,0,1-.5-2.45,14.23,14.23,0,0,1,0-2.14c0.06-.86.19-2,0.37-3.29s0.3-2.42.37-3.24a12.94,12.94,0,0,0,0-1.93,4,4,0,0,0-.47-1.62,4.19,4.19,0,0,0-1-1.21,4.4,4.4,0,0,0-1.35-.76,4.67,4.67,0,0,0-1.53-.26,6.22,6.22,0,0,0-3.86,1.2,12.23,12.23,0,0,0-2.8,3,20.8,20.8,0,0,0-2.19,4.41q-1,2.65-1.66,4.29h-0.45a44.41,44.41,0,0,1-.3-4.86q0-2.77-.17-4.28c-0.08-.84-0.15-1.52-0.24-2a2.31,2.31,0,0,0-.45-1.12,1.44,1.44,0,0,0-.92-0.49,11,11,0,0,0-1.66-.1,10.47,10.47,0,0,0-1.56.1,2.26,2.26,0,0,0-1,.41,2.46,2.46,0,0,0-.68.84,7.4,7.4,0,0,0-.53,1.43,26.62,26.62,0,0,0-.76,3.43c-0.23,1.39-.5,3.12-0.81,5.2s-0.54,4-.69,5.88-0.26,3.64-.34,5.41-0.11,3.45-.11,5,0.05,3,.16,4.19a26.48,26.48,0,0,0,.45,3.15,9.77,9.77,0,0,0,1,2.74,5.21,5.21,0,0,0,1.74,1.92,4.9,4.9,0,0,0,2.76.71,3.22,3.22,0,0,0,1.32-.26,2.67,2.67,0,0,0,1.06-.92,8,8,0,0,0,.89-1.7,24,24,0,0,0,.85-2.63l5.52-20.37h0.65c0.37,1.72.8,3.4,1.3,5.08a18.29,18.29,0,0,0,2,4.53,10.3,10.3,0,0,0,3.26,3.26,9.33,9.33,0,0,0,5.05,1.25,10.83,10.83,0,0,0,3.33-.51,19.28,19.28,0,0,0,2.39-.94,23.36,23.36,0,0,0,.8,2.48,18.22,18.22,0,0,0,3.34,5.53,15.41,15.41,0,0,0,11.89,5.22,19.79,19.79,0,0,0,4.79-.57,26.61,26.61,0,0,0,4.48-1.51,29.67,29.67,0,0,0,4.06-2.17c1.17-.74,2.25-1.5,3.27-2.26,0.06,0.39.12,0.77,0.2,1.15a9.71,9.71,0,0,0,1,2.73,5.23,5.23,0,0,0,1.74,1.93,5,5,0,0,0,2.75.71,4.28,4.28,0,0,0,2.32-.61,4.71,4.71,0,0,0,1.64-2.29l8.83-21.23h0.66q-0.2,3.27-.28,6.1a46.19,46.19,0,0,0,.14,5.29q0.54,6.24,2.36,9.49t4.06,3.25a13.38,13.38,0,0,0,4.23-.65,33.42,33.42,0,0,0,3.81-1.63c0.74-.34,2.45-1.25,5.12-2.74q0.33,0.51.71,1a11.26,11.26,0,0,0,3.49,2.94,9.69,9.69,0,0,0,4.69,1.1,11.32,11.32,0,0,0,3.7-.62,19.16,19.16,0,0,0,3.54-1.67,22,22,0,0,0,3.31-2.45,33.85,33.85,0,0,0,3-3,15.32,15.32,0,0,0,2.71,4,13.26,13.26,0,0,0,2.92,2.31,9.72,9.72,0,0,0,2.6,1.06,8.63,8.63,0,0,0,1.75.26,7.4,7.4,0,0,0,2.16-.36,18.82,18.82,0,0,0,2.37-1c0.81-.39,1.63-0.84,2.45-1.34s1.61-1,2.36-1.54q2-1.4,4-3.09a17.49,17.49,0,0,0,1.59,2.13,15.41,15.41,0,0,0,11.89,5.22,19.77,19.77,0,0,0,4.79-.57,26.86,26.86,0,0,0,4.48-1.51,29.88,29.88,0,0,0,4.06-2.17q1.91-1.22,3.56-2.47l0.14-.12a15.87,15.87,0,0,0,1,3,8.24,8.24,0,0,0,2.34,3,6.26,6.26,0,0,0,4,1.2,4.27,4.27,0,0,0,2.77-1.32,19.6,19.6,0,0,0,2.89-3.4,39.16,39.16,0,0,0,2.72-4.65c0.85-1.71,1.61-3.39,2.25-5a7.79,7.79,0,0,0,1,3,9.68,9.68,0,0,0,2.1,2.57,10.05,10.05,0,0,0,3.1,1.82,11.34,11.34,0,0,0,4,.68,15.78,15.78,0,0,0,5.4-1c0.56-.21,1.12-0.44,1.67-0.69a17.65,17.65,0,0,0,1.78,2.41,15.44,15.44,0,0,0,11.9,5.22,19.88,19.88,0,0,0,4.79-.57,27,27,0,0,0,4.48-1.51,29.56,29.56,0,0,0,4.06-2.17c1.17-.74,2.25-1.49,3.27-2.26,0.06,0.39.13,0.78,0.2,1.15a9.85,9.85,0,0,0,1,2.73,5.3,5.3,0,0,0,1.74,1.92,4.92,4.92,0,0,0,2.75.71,3.24,3.24,0,0,0,1.32-.26,2.75,2.75,0,0,0,1.07-.92,8.17,8.17,0,0,0,.89-1.7,23,23,0,0,0,.85-2.63l5.53-20.37h0.65c0.37,1.72.8,3.41,1.3,5.08a18,18,0,0,0,1.91,4.3C854.9,4936.26,864.09,4930.38,857.46,4924.93Zm-228.93,4c-0.05-.59-0.09-1.29-0.1-2.12a11.75,11.75,0,0,1,.48-3.15c0.34-1.27.64-2.35,0.91-3.21a7.44,7.44,0,0,1,1.15-2.32,5.72,5.72,0,0,1,1.95-1.65,6.15,6.15,0,0,1,3-.64,2.15,2.15,0,0,1,1.76,1.15,6.23,6.23,0,0,1,.94,3,5.53,5.53,0,0,1-1.15,3.23,13.68,13.68,0,0,1-2.66,3.11,13.08,13.08,0,0,1-3.07,1.9A7.93,7.93,0,0,1,628.53,4929Zm79.2,6.53a12.18,12.18,0,0,1-1,1.4,9.37,9.37,0,0,1-1.14,1.2,5.78,5.78,0,0,1-1.3.85,3.25,3.25,0,0,1-1.42.33,7.48,7.48,0,0,1-2.35-.32,4,4,0,0,1-1.46-.84,3,3,0,0,1-.77-1.15,4.84,4.84,0,0,1-.3-1.27,16.35,16.35,0,0,1,.33-4.61A62.93,62.93,0,0,1,700,4925a14.34,14.34,0,0,1,7.51-9.18,2.68,2.68,0,0,1,.15.82c0.08,0.57.17,1.32,0.26,2.22s0.2,1.91.32,3,0.28,2.5.45,4.22,0.33,3,.46,3.83a14,14,0,0,0,.37,1.83A21.48,21.48,0,0,1,707.72,4935.5Zm9.86-17.51,0-.42c0-.41-0.09-1-0.16-1.78s-0.13-1.68-.19-2.71-0.11-2.18-.15-3.43-0.06-2.56-.05-3.91q0-1,0-3.35c0-1.57,0-3.34.11-5.29a45.79,45.79,0,0,1,.6-6c0.33-2,.64-3.93.93-5.67a13.12,13.12,0,0,1,1.36-4.26,2.68,2.68,0,0,1,2.26-1.65,1.38,1.38,0,0,1,1.21.86,8.49,8.49,0,0,1,.67,3.07c0.09,1.12.15,2.62,0.14,4.53a38.61,38.61,0,0,1-.34,4.57c-0.21,1.6-.51,3.23-0.87,4.87l-1.11,5c-0.37,1.66-.76,3.27-1.15,4.8Q719.37,4912.56,717.58,4918Zm25.29,11c0-.59-0.08-1.29-0.1-2.12a12.13,12.13,0,0,1,.48-3.15c0.34-1.27.64-2.35,0.91-3.21a7.53,7.53,0,0,1,1.15-2.32,5.71,5.71,0,0,1,1.94-1.65,6.17,6.17,0,0,1,3-.64A2.16,2.16,0,0,1,752,4917a6.18,6.18,0,0,1,.93,3,5.57,5.57,0,0,1-1.15,3.23,13.63,13.63,0,0,1-2.66,3.11,13.13,13.13,0,0,1-3.07,1.9A7.93,7.93,0,0,1,742.86,4929Zm66,0c-0.06-.59-0.09-1.29-0.1-2.12a11.8,11.8,0,0,1,.48-3.15c0.34-1.27.64-2.35,0.9-3.21a7.64,7.64,0,0,1,1.15-2.32,5.65,5.65,0,0,1,1.95-1.65,6.16,6.16,0,0,1,3-.64,2.15,2.15,0,0,1,1.76,1.15,6.16,6.16,0,0,1,.93,3,5.54,5.54,0,0,1-1.15,3.23,13.6,13.6,0,0,1-2.66,3.11,13.19,13.19,0,0,1-3.07,1.9A7.94,7.94,0,0,1,808.84,4929Z" transform="translate(-535 -4869.86)"/></svg>