<svg id="Layer_1" data-name="Layer 1" xmlns="http://www.w3.org/2000/svg" viewBox="0 0 280 111.01"><defs><style>.cls-1{fill:#de1ba7;}.cls-2{fill:#fe3941;}.cls-3{fill:#ef3758;}.cls-4{fill:#fbd150;}.cls-5{fill:#61a96f;}.cls-6{fill:#5e8bce;}</style></defs><title>arithmetic</title><path class="cls-1" d="M257,641.43a4.3,4.3,0,0,1,8.6,0v17.2h17.2a4.3,4.3,0,0,1,0,8.6h-17.2v17.2a4.3,4.3,0,0,1-8.6,0v-17.2h-17.2a4.3,4.3,0,0,1,0-8.6H257v-17.2Z" transform="translate(-235.52 -603.35)"/><path class="cls-2" d="M472.52,654.63a4.3,4.3,0,0,1,0-8.6h38.7a4.3,4.3,0,0,1,0,8.6h-38.7Zm38.7,17.2a4.29,4.29,0,0,1,3,7.34,4.33,4.33,0,0,1-3,1.32h-38.7a4.34,4.34,0,0,1-3-1.32,4.3,4.3,0,0,1,3-7.34h38.7Z" transform="translate(-235.52 -603.35)"/><path class="cls-3" d="M370.28,603.35a55.5,55.5,0,0,0-38.12,95.83,35.43,35.43,0,0,1-6.11,7.32,36.9,36.9,0,0,1-11.11,7,80.16,80.16,0,0,0,8,.5,41.23,41.23,0,0,0,12.53-2,62.35,62.35,0,0,0,9.47-3.73A55.5,55.5,0,1,0,370.28,603.35Z" transform="translate(-235.52 -603.35)"/><circle class="cls-4" cx="135.17" cy="55.51" r="48.57"/><path class="cls-5" d="M370.69,700.49a41.63,41.63,0,1,1,41.63-41.63A41.68,41.68,0,0,1,370.69,700.49Z" transform="translate(-235.52 -603.35)"/><path class="cls-6" d="M370.69,693.55a34.69,34.69,0,1,1,34.69-34.69A34.73,34.73,0,0,1,370.69,693.55Z" transform="translate(-235.52 -603.35)"/><path class="cls-3" d="M370.69,686.61a27.75,27.75,0,1,1,27.75-27.75A27.79,27.79,0,0,1,370.69,686.61Z" transform="translate(-235.52 -603.35)"/><path class="cls-4" d="M370.69,679.67a20.82,20.82,0,1,1,20.82-20.82A20.84,20.84,0,0,1,370.69,679.67Z" transform="translate(-235.52 -603.35)"/><path class="cls-5" d="M370.69,672.74a13.88,13.88,0,1,1,13.88-13.88A13.89,13.89,0,0,1,370.69,672.74Z" transform="translate(-235.52 -603.35)"/><circle class="cls-6" cx="135.17" cy="55.51" r="6.94"/></svg>