<?xml version="1.0" encoding="utf-8"?>
<!-- Generator: Adobe Illustrator 19.2.0, SVG Export Plug-In . SVG Version: 6.00 Build 0)  -->
<svg version="1.1" id="Layer_1" xmlns="http://www.w3.org/2000/svg" xmlns:xlink="http://www.w3.org/1999/xlink" x="0px" y="0px"
	 viewBox="0 0 2048 2048" style="enable-background:new 0 0 2048 2048;" xml:space="preserve">
<style type="text/css">
	.st0{fill:#EF3758;}
	.st1{fill:#FBD150;}
	.st2{fill:#61A96F;}
	.st3{fill:#5E8BCE;}
</style>
<g>
	<path class="st0" d="M1024,209c-450.2,0-815,364.9-815,815c0,233.3,98.1,443.5,255.2,592.1c-25.9,41.2-56.9,77.8-89.6,107.5
		c-48.4,44.2-103.4,77.9-163.1,102.1c43.9,4.4,81.7,7.4,118.2,7.4c58.2,0,112.9-7.5,184-28.9c49.2-14.8,95.6-33.4,139.1-54.7
		c111.3,57.2,237.5,89.6,371.2,89.6c450.1,0,815-364.9,815-815.1C1839,573.8,1474.1,209,1024,209z"/>
	<path class="st1" d="M1737.1,1024c0,393.8-319.3,713.1-713.1,713.1c-393.8,0-713.1-319.3-713.1-713.1S630.2,310.9,1024,310.9
		C1417.9,310.9,1737.1,630.2,1737.1,1024z"/>
	<path class="st2" d="M1024,1635.2c-337.1,0-611.2-274.2-611.2-611.2S686.9,412.8,1024,412.8c337,0,611.2,274.2,611.2,611.2
		S1361,1635.2,1024,1635.2z"/>
	<path class="st3" d="M1024,1533.4c-280.9,0-509.4-228.5-509.4-509.4c0-280.9,228.5-509.4,509.4-509.4
		c280.9,0,509.4,228.5,509.4,509.4C1533.4,1304.9,1304.9,1533.4,1024,1533.4z"/>
	<path class="st0" d="M1024,1431.5c-224.7,0-407.5-182.8-407.5-407.5S799.3,616.5,1024,616.5s407.5,182.8,407.5,407.5
		S1248.7,1431.5,1024,1431.5z"/>
	<path class="st1" d="M1024,1329.6c-168.5,0-305.6-137.1-305.6-305.6c0-168.5,137.1-305.6,305.6-305.6
		c168.5,0,305.6,137.1,305.6,305.6C1329.6,1192.5,1192.5,1329.6,1024,1329.6z"/>
	<path class="st2" d="M1024,1227.8c-112.3,0-203.8-91.4-203.8-203.8s91.4-203.8,203.8-203.8s203.8,91.4,203.8,203.8
		S1136.3,1227.8,1024,1227.8z"/>
	<path class="st3" d="M1024,1125.9c-56.2,0-101.9-45.7-101.9-101.9c0-56.2,45.7-101.9,101.9-101.9c56.2,0,101.9,45.7,101.9,101.9
		C1125.9,1080.2,1080.2,1125.9,1024,1125.9z"/>
</g>
</svg>
