<?xml version="1.0" encoding="utf-8"?>
<!-- Generator: Adobe Illustrator 19.2.0, SVG Export Plug-In . SVG Version: 6.00 Build 0)  -->
<svg version="1.1" id="Layer_1" xmlns:sketch="http://www.bohemiancoding.com/sketch/ns"
	 xmlns="http://www.w3.org/2000/svg" xmlns:xlink="http://www.w3.org/1999/xlink" x="0px" y="0px" viewBox="0 0 300 300"
	 style="enable-background:new 0 0 300 300;" xml:space="preserve">
<style type="text/css">
	.st0{fill:#EF3758;}
	.st1{fill:#FBD150;}
	.st2{fill:#61A96F;}
	.st3{fill:#5E8BCE;}
</style>
<g id="Page-1" sketch:type="MSPage">
	<g id="logo-round-notail" sketch:type="MSLayerGroup">
		<g id="Group" sketch:type="MSShapeGroup">
			<circle id="Oval" class="st0" cx="150" cy="150" r="150"/>
			<circle id="Oval_1_" class="st1" cx="150" cy="150" r="131.2"/>
			<path id="Shape" class="st2" d="M150,262.5C88,262.5,37.5,212,37.5,150S88,37.5,150,37.5c62,0,112.5,50.5,112.5,112.5
				S212,262.5,150,262.5L150,262.5z"/>
			<path id="Shape_1_" class="st3" d="M150,243.8c-51.7,0-93.8-42.1-93.8-93.8c0-51.7,42.1-93.8,93.8-93.8
				c51.7,0,93.8,42.1,93.8,93.8C243.8,201.7,201.7,243.8,150,243.8L150,243.8z"/>
			<path id="Shape_2_" class="st0" d="M150,225c-41.4,0-75-33.6-75-75s33.6-75,75-75s75,33.6,75,75S191.4,225,150,225L150,225z"/>
			<path id="Shape_3_" class="st1" d="M150,206.2c-31,0-56.2-25.2-56.2-56.2c0-31,25.2-56.2,56.2-56.2c31,0,56.2,25.2,56.2,56.2
				C206.2,181,181,206.2,150,206.2L150,206.2z"/>
			<path id="Shape_4_" class="st2" d="M150,187.5c-20.7,0-37.5-16.8-37.5-37.5s16.8-37.5,37.5-37.5s37.5,16.8,37.5,37.5
				S170.7,187.5,150,187.5L150,187.5z"/>
			<path id="Shape_5_" class="st3" d="M150,168.8c-10.3,0-18.8-8.4-18.8-18.8c0-10.3,8.4-18.8,18.8-18.8c10.3,0,18.8,8.4,18.8,18.8
				C168.8,160.3,160.3,168.8,150,168.8L150,168.8z"/>
		</g>
	</g>
</g>
</svg>
