<?xml version="1.0" encoding="utf-8"?>
<!-- Generator: Adobe Illustrator 16.0.0, SVG Export Plug-In . SVG Version: 6.00 Build 0)  -->
<!DOCTYPE svg PUBLIC "-//W3C//DTD SVG 1.1//EN" "http://www.w3.org/Graphics/SVG/1.1/DTD/svg11.dtd">
<svg version="1.1" id="Layer_1" xmlns="http://www.w3.org/2000/svg" xmlns:xlink="http://www.w3.org/1999/xlink" x="0px" y="0px"
	 width="190px" height="190px" viewBox="0 0 40 50" enable-background="new 0 0 50 50" xml:space="preserve">
<path fill="#ececec" d="M22,0C9.85,0,0,9.85,0,22s9.85,22,22,22c12.152,0,22-9.85,22-22S34.152,0,22,0z M22,41.25c-4.071,0-7.846-1.279-10.96-3.445
	c1.89-0.781,3.872-1.242,6.315-1.481c0.33-1.847,0.354-3.751,0.145-5.664c-0.588-0.616-1.574-2.392-1.939-3.999
	c-0.102-0.455-0.289-1.277-0.469-2.231c-1.189,0.331-1.313-2.443-1.313-2.443s-0.74-1.805-0.889-2.579
	c-0.148-0.773,1.037-0.899,1.037-0.899l0.156,0.026c-0.002-0.006-0.006-0.026-0.006-0.026s-0.592-1.93-0.445-5.19
	c0.148-3.261,2.766-4.494,2.766-4.494s1.303-1.738,4.943-2.177c3.082-0.371,3.93,0.667,3.93,0.667s1.705-0.08,3.188,1.405
	c2.473,2.477,1.928,5.191,1.779,7.712c-0.039,0.677-0.121,1.396-0.221,2.088l0.059-0.011c0,0,1.184,0.126,1.037,0.899
	c-0.148,0.774-0.889,2.579-0.889,2.579s-0.127,2.873-1.379,2.421c-0.459,3.735-2.063,5.881-2.473,6.253
	c-0.203,1.905-0.127,3.868,0.189,5.655c2.473,0.238,4.482,0.7,6.396,1.491C29.845,39.971,26.071,41.25,22,41.25z"/>
</svg>
