<?xml version="1.0" encoding="utf-8"?>
<!-- Generator: Adobe Illustrator 16.0.0, SVG Export Plug-In . SVG Version: 6.00 Build 0)  -->
<!DOCTYPE svg PUBLIC "-//W3C//DTD SVG 1.1//EN" "http://www.w3.org/Graphics/SVG/1.1/DTD/svg11.dtd">
<svg version="1.1" id="Layer_1" xmlns="http://www.w3.org/2000/svg" xmlns:xlink="http://www.w3.org/1999/xlink" x="0px" y="0px"
	 width="50px" height="50px" viewBox="0 0 50 50" enable-background="new 0 0 50 50" xml:space="preserve">
<g>
	<path fill="#EF3758" d="M25,0C11.19,0,0,11.192,0,24.998c0,7.156,3.01,13.604,7.828,18.161c-0.795,1.263-1.746,2.386-2.749,3.298
		c-1.485,1.355-3.172,2.39-5.003,3.132c1.347,0.136,2.506,0.228,3.626,0.228c1.785,0,3.463-0.23,5.645-0.887
		c1.509-0.453,2.933-1.024,4.267-1.678C17.027,49.007,20.898,50,25,50c13.807,0,25-11.192,25-25.001C50,11.189,38.807,0,25,0z"/>
	<path fill="#FBD150" d="M46.875,24.998c0,12.079-9.795,21.873-21.875,21.873S3.125,37.077,3.125,24.998
		C3.125,12.92,12.92,3.125,25,3.125C37.083,3.125,46.875,12.92,46.875,24.998z"/>
	<path fill="#61A96F" d="M25,43.745c-10.341,0-18.749-8.41-18.749-18.747C6.251,14.66,14.659,6.252,25,6.252
		c10.338,0,18.748,8.408,18.748,18.746C43.748,35.335,35.338,43.745,25,43.745z"/>
	<path fill="#5E8BCE" d="M25,40.623c-8.616,0-15.625-7.01-15.625-15.625S16.384,9.373,25,9.373s15.626,7.01,15.626,15.625
		C40.626,33.614,33.616,40.623,25,40.623z"/>
	<path fill="#EF3758" d="M25,37.497c-6.893,0-12.5-5.606-12.5-12.499S18.107,12.5,25,12.5s12.5,5.605,12.5,12.498
		S31.893,37.497,25,37.497z"/>
	<path fill="#FBD150" d="M25,34.372c-5.168,0-9.375-4.206-9.375-9.374s4.206-9.373,9.375-9.373c5.168,0,9.374,4.205,9.374,9.373
		S30.168,34.372,25,34.372z"/>
	<path fill="#61A96F" d="M25,31.249c-3.445,0-6.251-2.803-6.251-6.251c0-3.447,2.803-6.251,6.251-6.251s6.252,2.803,6.252,6.251
		S28.445,31.249,25,31.249z"/>
	<path fill="#5E8BCE" d="M25,28.124c-1.724,0-3.125-1.402-3.125-3.126s1.402-3.125,3.125-3.125c1.725,0,3.126,1.401,3.126,3.125
		S26.725,28.124,25,28.124z"/>
</g>
</svg>
