<?xml version="1.0" encoding="utf-8"?>
<!-- Generator: Adobe Illustrator 16.0.0, SVG Export Plug-In . SVG Version: 6.00 Build 0)  -->
<!DOCTYPE svg PUBLIC "-//W3C//DTD SVG 1.1//EN" "http://www.w3.org/Graphics/SVG/1.1/DTD/svg11.dtd">
<svg version="1.1" id="Layer_1" xmlns="http://www.w3.org/2000/svg" xmlns:xlink="http://www.w3.org/1999/xlink" x="0px" y="0px"
	 width="44px" height="44px" viewBox="0 0 50 50" enable-background="new 0 0 50 50" xml:space="preserve">
<path class="feed" fill="#b2b2b2" d="M49.771,28.895C48.022,13.88,36.118,1.975,21.107,0.227C19.855,0.081,18.582,0,17.289,0c-1.295,0-2.568,0.081-3.82,0.227
	C9.057,0.742,4.918,2.132,1.228,4.218C0.108,5.065,0,6.946,0,8.524v33.182C0,46.27,3.734,50,8.296,50h33.178
	c1.578,0,3.475-0.003,4.306-1.222c2.088-3.693,3.475-7.833,3.99-12.245C49.916,35.281,50,34.008,50,32.715
	C50,31.42,49.916,30.146,49.771,28.895z M13.315,38.94c-1.247,0-2.256-1.009-2.256-2.251c0-1.246,1.009-2.256,2.256-2.256
	c1.241,0,2.25,1.01,2.25,2.256C15.565,37.932,14.556,38.94,13.315,38.94z M26.319,38.94c-0.831,0-1.5-0.669-1.5-1.503
	c0-6.757-5.499-12.256-12.254-12.256c-0.831,0-1.506-0.671-1.506-1.497c0-0.832,0.675-1.506,1.506-1.506
	c8.41,0,15.257,6.846,15.257,15.26C27.822,38.271,27.15,38.94,26.319,38.94z M37.211,38.94c-0.833,0-1.505-0.669-1.505-1.503
	c0-12.761-10.379-23.142-23.141-23.142c-0.831,0-1.506-0.672-1.506-1.503c0-0.831,0.675-1.506,1.506-1.506
	c14.417,0,26.146,11.735,26.146,26.15C38.711,38.271,38.034,38.94,37.211,38.94z"/>
</svg>
