<?xml version="1.0" encoding="utf-8"?>
<!-- Generator: Adobe Illustrator 16.0.0, SVG Export Plug-In . SVG Version: 6.00 Build 0)  -->
<!DOCTYPE svg PUBLIC "-//W3C//DTD SVG 1.1//EN" "http://www.w3.org/Graphics/SVG/1.1/DTD/svg11.dtd">
<svg version="1.1" id="Layer_1" xmlns="http://www.w3.org/2000/svg" xmlns:xlink="http://www.w3.org/1999/xlink" x="0px" y="0px"
	 width="44px" height="44px" viewBox="0 0 44 44" enable-background="new 0 0 44 44" xml:space="preserve">
<g>
	<path d="M25.676,43.688c0.093-0.016,0.186-0.032,0.277-0.05c0.558-0.101,1.109-0.219,1.651-0.361
		c0.026-0.007,0.052-0.016,0.078-0.022c0.563-0.149,1.115-0.322,1.659-0.515c0.023-0.008,0.048-0.016,0.071-0.023
		c0.546-0.195,1.081-0.415,1.606-0.651c0.043-0.02,0.087-0.039,0.131-0.06c0.531-0.243,1.052-0.506,1.559-0.789
		c0.004-0.002,0.008-0.004,0.012-0.006C39.449,37.447,44,30.257,44,22C44,9.85,34.152,0,22,0C9.85,0,0,9.85,0,22
		c0,8.893,5.279,16.548,12.872,20.016c0.03,0.014,0.06,0.027,0.089,0.041c0.536,0.241,1.081,0.465,1.638,0.664
		c0.013,0.004,0.025,0.008,0.039,0.013c0.556,0.197,1.121,0.374,1.697,0.526c0.019,0.005,0.037,0.012,0.056,0.017
		c0.545,0.143,1.1,0.262,1.661,0.363c0.09,0.017,0.18,0.033,0.27,0.049c0.544,0.091,1.094,0.164,1.65,0.215
		c0.092,0.009,0.184,0.014,0.275,0.021C20.827,43.97,21.41,44,22,44s1.173-0.03,1.752-0.076c0.092-0.007,0.185-0.012,0.276-0.021
		C24.584,43.853,25.133,43.78,25.676,43.688z M2.75,22C2.75,11.386,11.386,2.75,22,2.75S41.25,11.386,41.25,22
		c0,6.543-3.288,12.326-8.291,15.806c-1.914-0.791-3.924-1.253-6.396-1.491c-0.316-1.787-0.393-3.75-0.189-5.655
		c0.41-0.372,2.014-2.518,2.473-6.253c1.252,0.452,1.379-2.421,1.379-2.421s0.74-1.805,0.889-2.579
		c0.146-0.773-1.037-0.899-1.037-0.899l-0.059,0.011c0.1-0.691,0.182-1.411,0.221-2.088c0.148-2.521,0.693-5.235-1.779-7.712
		c-1.482-1.485-3.188-1.405-3.188-1.405s-0.848-1.038-3.93-0.667c-3.641,0.438-4.943,2.177-4.943,2.177s-2.617,1.233-2.766,4.494
		c-0.146,3.261,0.445,5.19,0.445,5.19s0.004,0.021,0.006,0.026l-0.156-0.026c0,0-1.186,0.126-1.037,0.899
		c0.148,0.774,0.889,2.579,0.889,2.579s0.123,2.774,1.313,2.443c0.18,0.954,0.367,1.776,0.469,2.231
		c0.365,1.607,1.352,3.383,1.939,3.999c0.209,1.913,0.186,3.817-0.145,5.664c-2.443,0.239-4.426,0.699-6.315,1.481
		C6.038,34.325,2.75,28.543,2.75,22z"/>
</g>
</svg>
