<?xml version="1.0" standalone="no"?>
<!DOCTYPE svg PUBLIC "-//W3C//DTD SVG 1.1//EN" "http://www.w3.org/Graphics/SVG/1.1/DTD/svg11.dtd" >
<svg xmlns="http://www.w3.org/2000/svg">
<metadata>Generated by IcoMoon</metadata>
<defs>
<font id="trendever" horiz-adv-x="1024">
<font-face units-per-em="1024" ascent="960" descent="-64" />
<missing-glyph horiz-adv-x="1024" />
<glyph unicode="&#x20;" horiz-adv-x="512" d="" />
<glyph unicode="&#xe900;" glyph-name="arrow-down" d="M92.611 719.575l-92.611-92.59 512-512 512 512-92.621 92.59-419.379-419.379z" />
<glyph unicode="&#xe901;" glyph-name="arrow-down-left" d="M998.589 841.846c-268.288 0-482.146-80.723-618.449-233.425-107.804-120.753-160.484-280.371-153.049-462.753l-183.753 182.823c-9.594 9.547-26.325 9.547-35.919 0-9.893-9.846-9.893-25.884 0-35.73l233.834-232.416c1.89-1.575 3.765-2.584 4.647-2.977l2.536-1.418c3.040-1.197 6.176-1.796 9.326-1.796 0.961 0 1.938 0.063 3.025 0.173 1.591 0.205 2.773 0.693 3.056 0.866 1.292 0.331 3.025 0.756 4.915 1.654 1.827 0.882 3.261 1.953 4.096 2.615l235.221 233.314c4.805 4.773 7.452 11.122 7.452 17.865 0 6.758-2.647 13.091-7.452 17.865-9.594 9.547-26.325 9.547-35.919 0l-193.804-192.859c-9.704 174.159 38.424 325.711 139.768 439.217 126.377 141.596 327.113 216.426 580.466 216.426 14.021 0 25.411 11.343 25.411 25.269s-11.406 25.285-25.411 25.285z" />
<glyph unicode="&#xe902;" glyph-name="arrow-down-right" d="M25.411 841.846c268.272 0 482.131-80.723 618.449-233.425 107.804-120.753 160.484-280.371 153.049-462.753l183.737 182.808c9.594 9.547 26.34 9.547 35.919 0 9.909-9.846 9.909-25.884 0-35.73l-233.834-232.401c-1.89-1.575-3.765-2.584-4.663-2.977l-2.536-1.418c-3.025-1.197-6.144-1.796-9.295-1.796-0.977 0-1.938 0.063-3.025 0.173-1.591 0.205-2.773 0.693-3.056 0.866-1.292 0.331-3.009 0.756-4.915 1.654-1.827 0.882-3.261 1.953-4.112 2.615l-235.221 233.314c-4.805 4.773-7.452 11.122-7.452 17.865 0 6.758 2.647 13.091 7.452 17.865 9.594 9.547 26.325 9.547 35.919 0l193.835-192.843c9.704 174.159-38.424 325.711-139.768 439.217-126.409 141.58-327.129 216.411-580.482 216.411-14.021 0-25.411 11.343-25.411 25.285s11.39 25.269 25.411 25.269z" />
<glyph unicode="&#xe903;" glyph-name="arrow-left" d="M814.295 867.389l-92.59 92.611-512-512 512-512 92.59 92.621-419.379 419.379z" />
<glyph unicode="&#xe904;" glyph-name="arrow-right" d="M209.705 867.389l92.59 92.611 512-512-512-512-92.59 92.621 419.379 419.379z" />
<glyph unicode="&#xe905;" glyph-name="arrow-up" d="M92.611 145.705l-92.611 92.59 512 512 512-512-92.621-92.59-419.379 419.379z" />
<glyph unicode="&#xe906;" glyph-name="bag" d="M355.388 671.148c21.179 0 36.141 16.902 36.141 37.768v52.959c0 65.403 54.814 118.603 120.471 118.603 65.669 0 120.471-53.2 120.471-118.603v-52.959c0-20.853 14.962-37.768 36.141-37.768 21.191 0 36.141 16.902 36.141 37.768v52.959c0 107.038-84.799 194.114-192.753 194.114s-192.753-87.088-192.753-194.114v-52.959c0-20.853 14.962-37.768 36.141-37.768zM1023.325-22.968l-118.411 631.013c-4.084 21.48-25.576 44.755-47.779 44.755h-690.272c-22.203 0-43.695-25.299-47.779-46.779l-118.411-625.134c-4.072-21.492 10.758-38.864 32.973-38.864h956.705c22.215 0 37.045 13.529 32.973 35.009zM358.605 447.928c-33.431 0-60.549 26.684-60.549 59.609 0 32.913 27.118 59.621 60.549 59.621 33.443 0 60.549-26.708 60.549-59.621 0-32.925-27.106-59.609-60.549-59.609zM673.467 447.928c-33.431 0-60.549 26.684-60.549 59.609 0 32.913 27.118 59.621 60.549 59.621 33.443 0 60.549-26.708 60.549-59.621 0.012-32.925-27.094-59.609-60.549-59.609z" />
<glyph unicode="&#xe907;" glyph-name="check" d="M953.379 889.379l-603.807-730.924-274.538 281.6-75.034-75.034 358.4-358.4 668.248 809.49z" />
<glyph unicode="&#xe908;" glyph-name="check-double" d="M708.923 776.205l-448.985-543.508-204.144 209.395-55.795-55.795 266.503-266.503 496.903 601.928zM970.831 776.205l-447.672-542.195-29.538 26.913-47.918-58.421 82.708-82.708 496.903 601.928z" />
<glyph unicode="&#xe909;" glyph-name="close" d="M1024 891.75l-68.27 68.25-443.73-443.73-443.75 443.73-68.25-68.25 443.73-443.75-443.73-443.73 68.25-68.27 443.75 443.73 443.73-443.73 68.27 68.27-443.73 443.73z" />
<glyph unicode="&#xe90a;" glyph-name="currency-rub" d="M151.040 499.2h-51.2v-102.4h51.2v-61.44h-51.2v-102.4h51.2v-296.96h102.4v296.96h389.12v102.4h-389.12v61.44h307.2c155.523 0 281.6 126.077 281.6 281.6s-126.077 281.6-281.6 281.6h-409.6zM253.44 857.6h307.2c98.969 0 179.2-80.231 179.2-179.2s-80.231-179.2-179.2-179.2h-307.2z" />
<glyph unicode="&#xe90b;" glyph-name="email" d="M895.657 651.208c-1.797 25.953-23.347 46.705-49.741 46.705h-667.832c-26.383 0-47.959-20.751-49.746-46.705l383.662-247.398 383.657 247.398zM512 334.269l-384 247.629v-333.722c0-27.561 22.538-50.094 50.084-50.094h667.832c27.556 0 50.084 22.533 50.084 50.094v333.711l-384-247.619z" />
<glyph unicode="&#xe90c;" glyph-name="heart" d="M1006.437 704.419c-39.92 128.621-183.187 234.387-346.981 177.974-61.331-21.132-111.895-60.975-147.456-95.946-35.561 34.971-86.125 74.814-147.472 95.946-163.778 56.413-307.060-49.354-346.981-177.974-42.558-137.185-49.323-397.126 483.84-700.4 3.506-1.986 7.059-3.987 10.612-5.958 3.553 1.97 7.106 3.972 10.597 5.958 533.163 303.275 526.398 563.216 483.84 700.4z" />
<glyph unicode="&#xe90d;" glyph-name="instagram-icon" d="M1022.955 90.155v724.245c0 18.176 1.707 38.571-2.389 53.504-8.064 29.355-23.701 53.824-45.525 69.461-33.621 24.107-66.56 22.357-123.776 22.357h-746.624c-3.499-2.219-9.131-1.152-13.568-2.389-7.189-2.389-14.379-4.8-21.568-7.168-25.643-11.115-48.704-34.261-59.883-59.904-9.536-21.888-9.579-50.432-9.579-83.051v-710.699c0-36.843-1.408-71.979 11.989-95.019 17.088-29.397 40.832-50.795 76.651-61.483 16.021-4.779 38.123-3.179 58.283-3.179h720.277c20.885 0 45.76-2.368 63.083 2.389 23.339 6.4 39.275 16.96 55.893 29.547 17.621 13.312 29.867 43.072 35.947 68.672 3.605 15.189 0.789 36.011 0.789 52.715zM512 644.437c108.501 0 196.437-87.957 196.437-196.437 0-108.459-87.936-196.437-196.437-196.437-108.48 0-196.437 87.957-196.437 196.437s87.957 196.437 196.437 196.437zM905.685 89.408c0-18.667-15.296-33.963-33.963-33.963h-719.445c-18.667 0-33.963 15.296-33.963 33.963v437.184h88.96c-6.443-25.131-9.899-51.456-9.899-78.592 0-173.739 140.864-314.624 314.624-314.624 173.781 0 314.624 140.885 314.624 314.624 0 27.136-3.435 53.483-9.92 78.613h88.981v-437.205zM905.685 680.32c0-18.667-15.296-33.963-33.963-33.963h-126.933c-18.667 0-33.963 15.275-33.963 33.963v126.933c0 18.667 15.296 33.941 33.963 33.941h126.933c18.667 0 33.963-15.275 33.963-33.941v-126.933z" />
<glyph unicode="&#xe90e;" glyph-name="logo" d="M184.063 539.953c8.638-1.138 16.923-2.169 24.876-3.092 7.939-0.906 15.446-1.37 22.539-1.37 2.030 0 3.83 0.478 5.416 1.447 1.584 0.953 2.844 2.262 3.791 3.893 0.947 1.629 1.57 3.416 1.886 5.354 0.307 1.923 0.191 3.923-0.355 5.953-0.73 2.737-2.291 5.2-4.692 7.432-2.385 2.23-5.907 3.752-10.554 4.615-19.922 3.154-38.816 5.338-56.686 6.538s-34.823 1.8-50.854 1.8c-11.931 0-23.422-0.262-34.477-0.769-11.046-0.521-21.27-1.506-30.663-2.986-9.4-1.477-17.815-3.538-25.277-6.169-7.443-2.631-13.535-5.969-18.282-10.031-4.74-4.046-7.946-8.984-9.607-14.739-1.677-5.771-1.477-12.525 0.601-20.277 1.060-3.338 2.724-6.294 4.983-8.863 1.9-2.216 4.524-4.244 7.892-6.092 3.37-1.848 7.655-2.769 12.877-2.769 5.216 0 8.984 0.938 11.307 2.829 2.323 1.877 3.832 3.955 4.524 6.215 0.708 2.262 0.908 4.355 0.601 6.294-0.3 1.939-0.476 2.999-0.523 3.17-0.985 3.677-0.815 6.863 0.507 9.569 1.324 2.694 3.493 5.015 6.485 6.94 2.999 1.923 6.46 3.523 10.377 4.77 3.923 1.261 8.137 2.291 12.661 3.122 4.524 0.815 9.232 1.463 14.124 1.952 4.892 0.478 9.723 0.908 14.507 1.293-0.785-18.032-3.577-41.185-4.169-55.908-0.394-9.721-0.785-11.676-1.554-29.184-0.523-11.86-0.785-15.954-1.17-27.63-0.646-19.479-1.263-28.447-1.17-33.462 0.171-8.893-0.453-20.815-0.307-28.954 0.152-8.14 0.314-16.277 0.462-24.401 0.016-2.125 0.291-5.263 0.769-7.016 1.477-5.525 4.408-8.941 8.608-11.43 3.054-1.8 7.591-3.309 12.454-2.922 1.814 0.152 4.931 0.628 6.815 1.568 2.724 1.354 3.955 2.369 5.477 4.217 2.307 2.785 2.631 4.137 3.516 6.706 0.892 2.585 1.377 7.2 1.315 10.279-0.061 6.861-0.184 13.276-0.262 22.815-0.068 9.523-0.146 19.938-0.232 31.216-0.093 11.275-0.184 23.060-0.278 35.369-0.093 12.29 0.284 20.646 0.184 32.984-0.093 12.338-0.507 25.215-0.776 36.969-0.385 16.737-0.869 26.815-2.423 38.785 9.555-0.569 18.901-1.431 28.055-2.569 9.143-1.151 18.043-2.305 26.699-3.459zM1016.577 398.937c-0.032 0.077-0.061 0.141-0.1 0.216-0.785 2.062-1.308 4.631-1.577 7.726-0.152 1.8-0.139 4.044 0.061 6.738 0.184 2.722 0.569 6.169 1.147 10.383 0.569 4.201 0.963 7.616 1.17 10.215 0.193 2.631 0.232 4.663 0.1 6.108-0.162 1.909-0.653 3.6-1.47 5.093-0.815 1.49-1.852 2.769-3.099 3.8s-2.669 1.816-4.269 2.385c-1.584 0.553-3.209 0.831-4.831 0.831-4.724 0-8.763-1.263-12.147-3.8-3.384-2.524-6.331-5.646-8.838-9.325-2.51-3.691-4.808-8.472-6.899-14.058-2.078-5.568-3.841-9.107-5.241-13.658h-1.422c-0.562 4.551-0.878 9.626-0.953 15.476-0.084 5.832-0.262 10.395-0.539 13.581-0.23 2.646-0.485 4.808-0.744 6.331-0.262 1.554-0.73 2.756-1.399 3.557-0.678 0.831-1.648 1.349-2.899 1.563-1.27 0.216-3.015 0.33-5.247 0.33-1.968 0-3.616-0.107-4.931-0.323-1.306-0.214-2.385-0.628-3.231-1.274s-1.561-1.525-2.146-2.646c-0.592-1.122-1.145-2.615-1.668-4.506-0.869-2.815-1.668-6.431-2.401-10.816-0.73-4.371-1.584-9.83-2.553-16.4-0.969-6.556-1.691-12.741-2.178-18.525-0.476-5.8-0.837-11.492-1.076-17.060-0.036-0.796-0.048-1.538-0.077-2.321-1.636-1.434-3.366-2.892-5.254-4.39-4.494-3.554-9.307-6.863-14.454-9.878-5.131-3.013-10.477-5.539-15.999-7.539-5.532-2.032-10.868-3.031-16.015-3.031-1.638 0-3.184 0.155-4.638 0.51-1.447 0.323-2.847 0.906-4.217 1.754-1.372 0.831-2.74 2.016-4.126 3.523-1.384 1.509-2.815 3.4-4.308 5.662 7.307 2.016 13.999 4.831 20.091 8.431 6.094 3.616 11.262 7.723 15.494 12.338 4.237 4.615 7.823 10.154 10.747 16.616 2.906 6.447 4.137 12.293 3.684 17.494-0.43 4.877-1.668 9.291-3.732 13.244-2.062 3.925-4.747 7.293-8.037 10.078-3.293 2.785-7.070 4.954-11.325 6.494-4.262 1.538-8.79 2.307-13.606 2.307-5.885 0-11.146-1.031-15.792-3.106-4.631-2.078-8.738-4.863-12.315-8.385-3.575-3.509-6.622-7.571-9.116-12.186-2.492-4.613-4.485-9.475-5.953-14.554-1.477-5.074-2.831-10.891-4.046-17.46-1.215-6.572-1.616-12.215-1.199-16.955 0.134-1.531 0.332-3.040 0.555-4.542-0.457-0.198-0.89-0.421-1.356-0.612-3.27-1.322-6.192-1.984-8.77-1.984-3.516 0-6.431 0.462-8.747 1.415-2.317 0.938-4.176 2.216-5.607 3.8-1.424 1.584-2.485 3.368-3.17 5.338s-1.124 3.984-1.299 6.046c-0.177 1.968-0.193 3.878-0.052 5.723 0.139 1.848 0.36 3.509 0.66 4.956 0.369 1.629 0.753 3.215 1.124 4.77 0.391 1.461 2.107 6.815 5.161 16.090 0.41 1.199 1.541 3.984 3.384 8.356 0.856 2.059 1.5 4.412 1.962 7.075 0.494 2.153 0.637 4.431 0.43 6.831-0.278 3.17-2.016 5.769-5.184 7.769-3.184 2.032-7.261 3.031-12.24 3.031-1.884 0-3.639-0.246-5.268-0.769-1.629-0.51-3.099-1.186-4.401-1.984-1.306-0.815-2.33-1.784-3.090-2.892-0.762-1.122-1.215-2.276-1.37-3.491l-27.625-85.848-0.869-0.123-5.015 85.338c-0.259 2.216-1.060 4.308-2.417 6.044-1.333 1.709-3.102 2.692-5.302 2.692h-1.37l-1.199-0.382-16.193-2.508c-2.879-0.43-4.537-3.136-4.963-8.076-0.444-4.922-0.152-13.123 0.84-24.537 0.3-3.432 0.637-6.779 1.006-10.040s0.831-6.818 1.384-10.679c0.555-3.859 1.17-8.172 1.848-12.941 0.296-2.114 0.612-4.415 0.942-6.854-0.933-0.781-1.891-1.566-2.895-2.364-4.494-3.554-9.316-6.863-14.461-9.878-5.138-3.013-10.47-5.539-15.999-7.539-5.532-2.032-10.868-3.031-16.015-3.031-1.638 0-3.184 0.155-4.631 0.51-1.445 0.323-2.86 0.906-4.228 1.754-1.356 0.831-2.731 2.016-4.11 3.523-1.384 1.509-2.815 3.4-4.308 5.662 7.307 2.016 13.999 4.831 20.091 8.431 6.085 3.616 11.253 7.723 15.494 12.338 4.237 4.615 7.817 10.154 10.738 16.616 2.906 6.447 4.137 12.293 3.693 17.494-0.43 4.877-1.677 9.291-3.741 13.244-2.059 3.925-4.747 7.293-8.037 10.078-3.293 2.785-7.068 4.954-11.33 6.494-4.246 1.538-8.784 2.307-13.594 2.307-5.885 0-11.143-1.031-15.79-3.106-4.638-2.078-8.754-4.863-12.322-8.385-3.584-3.509-6.615-7.571-9.109-12.186-2.508-4.613-4.492-9.475-5.969-14.554-1.47-5.074-2.815-10.891-4.030-17.46-1.222-6.572-1.622-12.215-1.206-16.955 0.221-2.546 0.608-5.038 1.070-7.505-2.205-1.882-4.371-3.661-6.494-5.327-1.923-1.475-3.923-2.922-5.985-4.337-2.059-1.447-4.123-2.722-6.169-3.832-2.046-1.138-4-2.016-5.878-2.676-1.875-0.646-3.63-0.969-5.261-0.969-1.661 0-3.115 0.521-4.33 1.554-1.222 1.047-2.237 2.46-3.063 4.23-0.831 1.784-1.484 3.8-1.975 6.060-0.494 2.262-0.847 4.631-1.063 7.157-0.168 2-0.225 4.044-0.139 6.185 0.075 2.123 0.23 4.217 0.453 6.244 0.223 2.032 0.485 3.925 0.776 5.662 0.294 1.739 0.61 3.215 0.956 4.415 1.561 5.568 5.416 16.106 11.553 31.63 4.016 10.138 7.307 20.416 9.878 30.768 2.56 10.37 5.161 20.862 7.785 31.475 2.628 10.615 3.523 22.077 2.701 34.4-0.239 3.231-0.478 6.372-0.746 9.432-0.43 4.908-1.231 9.646-2.41 14.247-1.17 4.585-2.792 8.631-4.854 12.122-2.068 3.461-4.599 6.262-7.623 8.372-3.008 2.107-6.531 3.154-10.57 3.154-5.525 0-10.732-1.693-15.608-5.077s-9.346-8.092-13.392-14.090c-4.055-6.001-7.639-13.125-10.757-21.356-3.122-8.244-5.468-17.244-7.038-27.029s-3.047-18.924-4.415-27.416c-1.354-8.492-1.684-18.323-0.969-29.462-6.463-0.617-12.463-2.137-18-4.585-5.539-2.417-10.823-6.030-15.847-10.832-5.029-4.785-8.938-10.106-11.737-15.938-2.792-5.832-5.3-11.43-7.539-16.784-2.23-5.368-3.8-10.893-4.724-16.6-0.915-5.693-1.138-11.325-0.646-16.91 0.039-0.428 0.105-0.844 0.152-1.267-2.926-1.939-4.492-2.879-4.692-2.808-0.177 0.075-2.023-1.34-5.539-4.246-0.708-0.769-2.43-1.677-5.17-2.706-1.823-0.771-3.245-1.156-4.276-1.156-2.831 0-5.061 1.709-6.692 5.14-1.632 3.429-2.676 7.817-3.138 13.137-0.284 3.17-0.391 6.647-0.337 10.415 0.052 3.784 0.216 7.6 0.476 11.462 0.262 3.859 0.546 8.228 0.847 13.123 0.3 4.89 0.617 8.877 0.953 11.969 0.323 3.092 0.585 5.737 0.769 7.985 0.2 2.23 0.246 3.816 0.171 4.77-0.555 6.34-2.262 11.325-5.109 14.925s-6.415 5.4-10.709 5.4c-4.278 0-8.108-0.862-11.478-2.569-3.368-1.725-6.23-4.892-8.561-9.539-0.517-1.015-1.27-2.601-2.285-4.754-1.015-2.137-2.139-4.615-3.347-7.4-1.222-2.785-2.521-5.693-3.93-8.738-1.399-3.047-2.662-6.556-3.777-10.493-1.115-3.953-2.137-6.606-3.070-8.713-0.931-2.094-1.616-4.178-2.046-4.178h-2.569c-0.061 0-0.030 1.393 0.077 3.163 0.093 1.754 0.184 4.226 0.262 7.78 0.077 3.568 0.2 6.645 0.391 9.444 0.177 2.769 0.353 5.445 0.517 8.060 0.152 2.615 0.262 4.993 0.323 7.177 0.077 2.185 0.046 3.909-0.061 5.202-0.416 4.706-1.645 8.472-3.693 11.316-2.046 2.831-5.393 4.244-10.031 4.244-4.631 0-8.185-1.327-10.645-3.987-2.476-2.66-4.007-5.971-4.599-9.91-0.769-5.063-1.477-11.152-2.139-18.275-0.662-7.125-1.122-15.123-1.377-24-0.18-6.258-0.296-12.131-0.371-17.656-1.527-1.327-3.127-2.672-4.87-4.053-4.492-3.554-9.307-6.863-14.445-9.878-5.138-3.013-10.477-5.539-16.009-7.539-5.532-2.032-10.868-3.031-16.009-3.031-1.645 0-3.193 0.155-4.64 0.51-1.445 0.323-2.854 0.906-4.221 1.754-1.37 0.831-2.74 2.016-4.116 3.523-1.384 1.509-2.824 3.4-4.314 5.662 7.316 2.016 13.999 4.831 20.1 8.431 6.085 3.616 11.253 7.723 15.492 12.338s7.817 10.154 10.732 16.616c2.924 6.447 4.153 12.293 3.7 17.494-0.43 4.877-1.684 9.291-3.746 13.244-2.062 3.925-4.738 7.293-8.030 10.078s-7.070 4.954-11.323 6.494c-4.255 1.538-8.793 2.307-13.601 2.307-5.891 0-11.155-1.031-15.799-3.106-4.631-2.078-8.738-4.863-12.315-8.385-3.577-3.509-6.624-7.571-9.116-12.186-2.492-4.613-4.485-9.475-5.955-14.554-1.477-5.074-2.831-10.891-4.037-17.46-0.102-0.546-0.164-1.049-0.255-1.582-1.081-0.528-2.18-1.047-3.322-1.543-3.971-1.707-7.876-2.569-11.746-2.569-1.377 0-2.701 0.262-3.991 0.769-1.293 0.523-2.476 1.399-3.568 2.646-1.108 1.231-2.046 2.892-2.824 4.954s-1.299 4.631-1.577 7.726c-0.155 1.8-0.139 4.044 0.061 6.738 0.184 2.722 0.569 6.169 1.147 10.383 0.576 4.201 0.96 7.616 1.17 10.215 0.191 2.631 0.232 4.663 0.1 6.108-0.162 1.909-0.655 3.6-1.47 5.093-0.824 1.49-1.855 2.769-3.099 3.8-1.247 1.031-2.669 1.816-4.262 2.385-1.6 0.553-3.215 0.831-4.831 0.831-4.724 0-8.77-1.263-12.154-3.8-3.384-2.524-6.331-5.646-8.838-9.325-2.514-3.691-4.806-8.472-6.899-14.058-2.075-5.573-3.83-9.111-5.245-13.662h-1.415c-0.553 4.551-0.876 9.626-0.953 15.476-0.086 5.832-0.262 10.395-0.539 13.581-0.232 2.646-0.485 4.808-0.746 6.331-0.262 1.554-0.73 2.756-1.406 3.557-0.669 0.831-1.638 1.349-2.892 1.563-1.27 0.216-3.015 0.33-5.245 0.33-1.968 0-3.616-0.107-4.924-0.323-1.315-0.214-2.392-0.628-3.238-1.274-0.84-0.646-1.563-1.525-2.146-2.646-0.592-1.122-1.147-2.615-1.668-4.506-0.869-2.815-1.668-6.431-2.401-10.816-0.73-4.371-1.584-9.83-2.555-16.4-0.969-6.556-1.7-12.741-2.178-18.525-0.476-5.8-0.84-11.492-1.076-17.060-0.246-5.586-0.362-10.861-0.346-15.892 0.007-5.031 0.177-9.432 0.517-13.2 0.291-3.432 0.776-6.754 1.447-9.969 0.662-3.215 1.693-6.094 3.077-8.615 1.37-2.537 3.199-4.553 5.477-6.062 2.276-1.49 5.17-2.246 8.693-2.246 1.538 0 2.931 0.278 4.169 0.831 1.238 0.555 2.355 1.525 3.354 2.892 0.992 1.384 1.932 3.154 2.815 5.354 0.876 2.185 1.768 5.227 2.685 8.57l17.422 64.501h2.053c1.163-6.827 2.53-11.014 4.101-16.302 1.577-5.279 3.707-10.169 6.401-14.432 2.692-4.23 6.124-7.746 10.292-10.347 4.176-2.628 9.485-3.957 15.924-3.957 3.6 0 7.093 0.507 10.477 1.584 2.61 0.821 5.109 1.848 7.543 2.986 0.708-2.646 1.516-5.263 2.51-7.814 2.576-6.599 6.085-12.402 10.531-17.417s9.801-9.016 16.077-11.985c6.26-2.988 13.401-4.465 21.415-4.465 5.154 0 10.185 0.587 15.107 1.8 4.906 1.186 9.614 2.772 14.122 4.756 4.492 1.984 8.77 4.26 12.784 6.831 3.689 2.351 7.102 4.731 10.306 7.145 0.196-1.211 0.389-2.423 0.633-3.607 0.676-3.215 1.693-6.094 3.077-8.615 1.37-2.537 3.199-4.553 5.484-6.062 2.271-1.49 5.163-2.246 8.686-2.246 2.831 0 5.268 0.646 7.3 1.925 1.952 1.199 3.668 3.247 5.161 6.847l27.86 66.549h2.062c-0.43-6.827-0.724-12.907-0.892-18.862-0.171-5.969-0.016-11.35 0.43-16.489 1.154-13.125 3.632-23.017 7.446-29.819 3.816-6.831 8.076-10.199 12.793-10.199 4.724 0 9.168 0.703 13.339 2.087 1.593 0.43 5.607 2.148 12.038 5.166 2.328 1.049 7.721 3.941 16.127 8.645 0.705-1.074 1.447-2.109 2.235-3.111 3.038-3.846 6.699-6.94 10.977-9.262s9.207-3.475 14.784-3.475c3.953 0 7.837 0.662 11.646 1.971 3.8 1.322 7.516 3.090 11.152 5.275 3.632 2.185 7.109 4.77 10.431 7.726 3.306 2.954 6.415 6.060 9.307 9.353 2.571-5.293 5.425-9.525 8.556-12.725 3.138-3.184 6.201-5.614 9.2-7.307 3.006-1.677 5.737-2.785 8.206-3.338 2.462-0.555 4.301-0.815 5.532-0.815 2.091 0 4.353 0.385 6.799 1.138 2.446 0.785 4.938 1.8 7.491 3.015 2.555 1.247 5.125 2.646 7.739 4.246 2.601 1.584 5.074 3.199 7.416 4.847 4.194 2.947 8.406 6.196 12.638 9.758 1.527-2.357 3.174-4.613 5.022-6.697 4.44-5.015 9.801-9.016 16.063-11.985 6.269-2.986 13.417-4.462 21.422-4.462 5.147 0 10.192 0.587 15.101 1.8 4.924 1.186 9.63 2.772 14.124 4.756 4.506 1.984 8.77 4.26 12.8 6.831 4.016 2.569 7.753 5.168 11.216 7.814 0.146 0.114 0.284 0.239 0.43 0.353 0.794-3.395 1.857-6.592 3.222-9.582 1.748-3.862 4.208-7.063 7.352-9.601 3.147-2.524 7.377-3.784 12.684-3.784 2.756 0 5.678 1.399 8.747 4.185 3.079 2.785 6.117 6.369 9.132 10.738 2.999 4.369 5.853 9.277 8.563 14.677 2.701 5.4 5.070 10.675 7.1 15.829 0.369-3.261 1.399-6.401 3.077-9.4s3.893-5.691 6.631-8.108c2.737-2.401 6.001-4.31 9.769-5.723 3.768-1.415 7.978-2.125 12.6-2.125 5.493 0 11.168 1.079 17.030 3.215 1.784 0.651 3.538 1.393 5.275 2.182 1.677-2.706 3.543-5.257 5.634-7.614 4.444-5.015 9.801-9.016 16.070-11.985 6.269-2.986 13.408-4.462 21.422-4.462 5.154 0 10.185 0.587 15.11 1.8 4.906 1.186 9.614 2.772 14.122 4.756 4.501 1.984 8.763 4.26 12.784 6.831 3.682 2.351 7.097 4.733 10.308 7.15 0.198-1.213 0.391-2.426 0.637-3.611 0.66-3.215 1.691-6.094 3.070-8.615 1.377-2.537 3.206-4.553 5.484-6.062 2.278-1.49 5.168-2.246 8.684-2.246 1.547 0 2.947 0.278 4.178 0.831 1.238 0.555 2.353 1.525 3.354 2.892 0.992 1.384 1.932 3.154 2.815 5.354 0.876 2.185 1.768 5.227 2.685 8.57l17.424 64.503h2.046c1.17-6.827 2.537-11.014 4.11-16.302 1.49-4.999 3.529-9.63 6.021-13.708 9.862-13.692 38.832 4.708 17.9 21.907zM294.846 386.185c-0.168 1.848-0.278 4.078-0.332 6.679-0.052 2.601 0.455 5.907 1.516 9.937 1.076 4.016 2.032 7.4 2.869 10.122 0.84 2.74 2.039 5.168 3.623 7.309 1.577 2.137 3.623 3.875 6.13 5.216 2.508 1.354 5.607 2.016 9.316 2.016 2.068 0 3.923-1.215 5.552-3.648 1.632-2.43 2.615-5.539 2.947-9.325 0.237-2.676-0.969-6.060-3.632-10.185-2.653-4.107-5.439-7.368-8.376-9.814-2.931-2.428-6.162-4.412-9.685-5.985-3.52-1.536-6.836-2.321-9.928-2.321zM544.54 365.6c-0.908-1.538-1.916-2.999-3.040-4.401-1.122-1.399-2.317-2.662-3.591-3.768-1.293-1.108-2.646-2-4.094-2.678-1.431-0.692-2.931-1.031-4.476-1.031-2.999 0-5.477 0.339-7.425 0.999-1.946 0.678-3.484 1.556-4.606 2.631-1.124 1.079-1.941 2.278-2.43 3.632-0.51 1.322-0.815 2.678-0.94 4.016-0.378 4.337-0.032 9.168 1.044 14.523 1.079 5.368 2.772 11.769 5.077 19.215s5.468 13.43 9.494 17.968c4.014 4.54 8.745 8.201 14.161 10.97 0.077 0.075 0.239-0.771 0.485-2.601 0.246-1.8 0.517-4.139 0.808-7 0.291-2.863 0.637-6.017 1.022-9.478 0.4-3.461 0.869-7.894 1.431-13.294 0.553-5.416 1.038-9.444 1.447-12.076 0.4-2.646 0.785-4.553 1.154-5.769-1.584-4.41-3.429-8.367-5.52-11.858zM575.593 420.8l-0.116 1.306c-0.109 1.308-0.278 3.172-0.494 5.6-0.207 2.446-0.416 5.293-0.601 8.556-0.2 3.261-0.337 6.861-0.46 10.816-0.109 3.953-0.168 8.060-0.162 12.338 0.007 2.075 0.007 5.6 0.032 10.554 0.007 4.97 0.123 10.522 0.337 16.691 0.209 6.187 0.837 12.493 1.893 18.939 1.054 6.431 2.030 12.4 2.931 17.89 0.899 5.461 2.328 9.956 4.292 13.43 1.968 3.477 4.337 5.216 7.138 5.216 1.57 0 2.847-0.906 3.832-2.706s1.684-5.015 2.084-9.662c0.316-3.523 0.462-8.278 0.455-14.293-0.048-4.553-0.41-9.353-1.079-14.429-0.669-5.047-1.584-10.172-2.737-15.34-1.156-5.154-2.323-10.37-3.509-15.615-1.17-5.245-2.392-10.306-3.632-15.137-3.036-11.341-6.431-22.726-10.206-34.156zM655.324 386.185c-0.155 1.848-0.262 4.078-0.325 6.679-0.059 2.601 0.453 5.907 1.525 9.937 1.070 4.016 2.016 7.4 2.86 10.122 0.831 2.74 2.046 5.168 3.616 7.309 1.584 2.137 3.632 3.875 6.139 5.216 2.508 1.354 5.616 2.016 9.314 2.016 2.071 0 3.916-1.215 5.548-3.648 1.648-2.43 2.624-5.539 2.956-9.325 0.23-2.676-0.972-6.060-3.632-10.185-2.662-4.107-5.448-7.368-8.385-9.814-2.924-2.428-6.155-4.412-9.678-5.985-3.52-1.536-6.829-2.321-9.937-2.321zM863.3 386.185c-0.159 1.848-0.269 4.078-0.323 6.679s0.446 5.907 1.516 9.937c1.076 4.016 2.023 7.4 2.863 10.122 0.837 2.74 2.043 5.168 3.63 7.309 1.57 2.137 3.616 3.875 6.13 5.216 2.51 1.354 5.609 2.016 9.316 2.016 2.062 0 3.916-1.215 5.552-3.648 1.632-2.43 2.615-5.539 2.94-9.325 0.243-2.676-0.969-6.060-3.625-10.185-2.653-4.107-5.452-7.368-8.376-9.814-2.94-2.428-6.162-4.412-9.685-5.985-3.529-1.536-6.838-2.321-9.937-2.321z" />
<glyph unicode="&#xe90f;" glyph-name="menu" d="M0 960v-204.8h1024v204.8h-1024zM0 345.6h1024v204.8h-1024v-204.8zM0-64h1024v204.8h-1024v-204.8z" />
<glyph unicode="&#xe910;" glyph-name="menu-light" d="M256 704h512v-51.2h-512v51.2zM256 473.6h512v-51.2h-512v51.2zM256 243.2h512v-51.2h-512v51.2z" />
<glyph unicode="&#xe911;" glyph-name="mobile-phone" d="M689.244 862.147h-354.478c-43.325 0-78.766-35.441-78.766-78.766v-670.771c0-43.315 35.441-78.756 78.766-78.756h354.458c43.325 0 78.766 35.441 78.766 78.756v670.761c0.010 43.325-35.42 78.776-78.746 78.776zM451.686 783.37h120.617v-40.612h-120.617v40.612zM690.463 192.573h-356.925v512h356.915l0.010-512z" />
<glyph unicode="&#xe912;" glyph-name="plus" d="M1024 540.16h-440.32v419.84h-163.84v-419.84h-419.84v-163.84h419.84v-440.32h163.84v440.32h440.32z" />
<glyph unicode="&#xe913;" glyph-name="question" d="M512 908.8c254.085 0 460.8-206.715 460.8-460.8s-206.715-460.8-460.8-460.8c-254.085 0-460.8 206.715-460.8 460.8s206.715 460.8 460.8 460.8zM512 960c-282.767 0-512-229.233-512-512s229.233-512 512-512 512 229.233 512 512-229.233 512-512 512v0zM388.526 561.234c0-8.489-3.031-15.759-9.073-21.791-6.042-6.052-13.312-9.073-21.791-9.073-8.489 0-15.77 3.021-21.801 9.073-6.052 6.042-9.073 13.312-9.073 21.791 0 51.19 18.074 94.863 54.221 131.011 36.137 36.137 79.811 54.2 130.99 54.2s94.863-18.074 131-54.2c36.137-36.147 54.221-79.821 54.221-131.011s-18.135-94.925-54.415-131.185l-63.662-59.044c-24.177-24.177-36.26-53.381-36.26-87.603 0-8.479-3.041-15.749-9.083-21.791-6.042-6.062-13.302-9.073-21.801-9.073-8.479 0-15.759 3.011-21.791 9.073-6.052 6.042-9.073 13.312-9.073 21.791 0 51.19 18.135 94.925 54.405 131.205l63.683 59.023c24.156 24.177 36.26 53.371 36.26 87.593 0 34.212-12.022 63.345-36.076 87.398-24.064 24.054-53.176 36.086-87.398 36.086-34.212 0-63.345-12.032-87.398-36.086-24.064-24.044-36.086-53.176-36.086-87.388zM558.295 175.37c0-12.861-4.495-23.798-13.496-32.788-9.001-9.011-19.937-13.507-32.799-13.507s-23.798 4.495-32.788 13.507c-9.011 8.991-13.517 19.927-13.517 32.788s4.506 23.788 13.517 32.799c8.991 9.001 19.927 13.507 32.788 13.507s23.798-4.506 32.799-13.507c9.001-9.011 13.496-19.937 13.496-32.799z" />
<glyph unicode="&#xe914;" glyph-name="search" d="M398.474 163.052c-219.699 0-398.474 178.749-398.474 398.5 0 219.699 178.775 398.449 398.474 398.449 219.725 0 398.474-178.749 398.474-398.449 0-219.75-178.749-398.5-398.474-398.5zM398.474 895.401c-184.1 0-333.901-149.775-333.901-333.85 0-184.125 149.801-333.901 333.901-333.901s333.875 149.775 333.875 333.901c0 184.074-149.775 333.85-333.875 333.85zM680.271 325.448l343.76-343.76-45.663-45.663-343.76 343.76 45.663 45.663z" />
<glyph unicode="&#xe915;" glyph-name="send-plane" d="M838.523 443.884c0.143 0.42 0.276 0.829 0.389 1.26 0.451 1.679 0.768 3.41 0.768 5.233 0 0.020-0.010 0.041-0.010 0.061s0.010 0.031 0.010 0.041c0 0.072-0.031 0.133-0.031 0.205-0.020 1.772-0.328 3.461-0.768 5.11-0.123 0.42-0.236 0.819-0.379 1.229-0.563 1.618-1.249 3.174-2.171 4.577-0.031 0.051-0.051 0.113-0.092 0.164-0.973 1.464-2.171 2.734-3.471 3.891-0.317 0.287-0.645 0.543-0.983 0.809-1.434 1.116-2.949 2.12-4.639 2.826l-614.308 262.246c-7.24 3.092-15.585 1.761-21.514-3.41s-8.356-13.271-6.277-20.859l70.42-256.061-70.461-262.615c-2.038-7.598 0.451-15.688 6.41-20.818 3.789-3.267 8.55-4.966 13.373-4.966 2.765 0 5.54 0.563 8.161 1.7l614.164 267.018c0.031 0.010 0.051 0.020 0.072 0.031l0.174 0.072c0.082 0.041 0.154 0.102 0.225 0.143 1.536 0.696 2.939 1.608 4.25 2.652 0.348 0.266 0.676 0.543 1.014 0.829 1.28 1.147 2.447 2.417 3.4 3.86 0.113 0.164 0.184 0.348 0.276 0.512 0.84 1.321 1.485 2.755 1.997 4.26zM235.807 677.202l482.888-206.152-426.383 0.686-56.504 205.466zM292.403 430.776l428.677-0.686-485.499-211.087 56.822 211.773z" />
<glyph unicode="&#xe916;" glyph-name="swipe-left" d="M722.286-69.486l-457.143 502.857v23.771l457.143 502.857 27.429-23.771-446.171-491.886 446.171-490.057z" />
<glyph unicode="&#xe917;" glyph-name="swipe-right" d="M292.571-69.486l457.143 502.857v23.771l-457.143 502.857-27.429-23.771 446.171-491.886-446.171-490.057z" />
<glyph unicode="&#xe918;" glyph-name="tail-left" d="M75.025 914.022c208.145-192 410.351-276.787 580.267-309.009 0 0 205.005-34.85 270.404-174.217 64.341-137.148 14.268-494.933-393.728-443.904-354.167 270.438-456.943 927.13-456.943 927.13z" />
<glyph unicode="&#xe919;" glyph-name="tail-right" d="M948.975 914.022c-208.145-192-410.385-276.787-580.267-309.009 0 0-205.005-34.85-270.404-174.217-64.341-137.114-14.268-494.933 393.728-443.904 354.133 270.438 456.943 927.13 456.943 927.13z" />
<glyph unicode="&#xe91a;" glyph-name="update" d="M902.261 460.495c-6.665 241.88-205.357 436.628-448.817 436.628-247.646 0-449.123-201.476-449.123-449.123 0-247.637 201.476-449.123 449.123-449.123v36.774c-227.373 0-412.349 184.976-412.349 412.349s184.976 412.349 412.349 412.349c223.187 0 405.387-178.266 412.043-399.854h-112.335l131.027-170.864 131 170.864h-112.918z" />
</font>
</defs>
</svg>
