<?xml version="1.0" encoding="utf-8"?>
<!-- Generator: Adobe Illustrator 19.0.0, SVG Export Plug-In . SVG Version: 6.00 Build 0)  -->
<svg version="1.1" id="Layer_1" xmlns="http://www.w3.org/2000/svg" xmlns:xlink="http://www.w3.org/1999/xlink" x="0px" y="0px"
	 viewBox="0 0 505 45" style="enable-background:new 0 0 505 45;" xml:space="preserve">
<style type="text/css">
	.st0{fill:#FFFFFF;}
	.st1{fill:#3CB65E;}
	.st2{fill:#046B72;}
	.st3{enable-background:new    ;}
	.st4{fill:#53B949;}
</style>
<g>
	<g>
		<g id="Letters" transform="translate(101.995804, 41.349650)">
			<path id="Oval-1" class="st0" d="M344.5-30.4c2,0,3.7-1.6,3.7-3.5c0-1.9-1.6-3.5-3.7-3.5s-3.7,1.6-3.7,3.5
				C340.9-32,342.5-30.4,344.5-30.4z M341.5-28.9h6v15.7h-6V-28.9z"/>
			<path id="Path-3" class="st0" d="M338.6-24.3C338.6-24.3,338.6-24.3,338.6-24.3l0.1-4c0-0.1,0-0.1-0.1-0.1c0,0-0.8-0.5-3.2-0.7
				c-0.1-0.1-2.2-0.1-2.8,0c-8.7,0.7-9.1,7-9.1,7.3v1.5c0,0.2,0,6.7,9.1,7.2c0.9,0.1,2.6,0,2.8,0c2.1,0,3.5-0.6,3.5-0.6
				c0,0,0.1-0.1,0.1-0.1v-3.7c0,0,0-0.1-0.1,0c0,0-0.6,0.5-3.5,0.8c-0.8,0.1-1.2,0-1.5,0c-4-0.7-4.2-3.6-4.2-3.6c0,0,0-0.1,0-0.2
				v-1.1c0-0.1,0-0.1,0-0.2c0,0,0.3-3.2,4.2-3.5h1.5C337.1-25.2,338.6-24.3,338.6-24.3z"/>
			<path id="Path-1" class="st0" d="M306.8-13.3C306.8-13.2,306.8-13.2,306.8-13.3l5.9,0.1c0,0,0.1,0,0.1-0.1v-4.6
				c0,0,0-0.1,0.1-0.1c0,0,9.3,0.7,9.3-5.6c0-5-5.9-5.5-7.8-5.4c0,0-7.6,0-7.6,0c0,0-0.1,0-0.1,0.1V-13.3z M312.7-21.4v-4.1h1.4
				c0,0,2.1,0.1,2.2,1.5c0,0.1,0,0.8,0,0.8c-0.3,1.7-2.1,1.8-2.1,1.8L312.7-21.4z"/>
		</g>
		<path class="st0" d="M446.7,37.3c-2,0-2.9-0.5-3.5-1.1c0,0,0,0,0,0l-0.1-0.1l-0.1-0.1c-2.1-2-4.6-5.4-5.2-6.4
			c-0.2-0.4-0.3-1-0.3-1.2v0c0-0.8,0-1.7,1-2.7c0.8-0.8,2.1-1.2,2.7-1.2l0,0c0.1,0,0.1,0,0.2,0c0.4,0,0.9,0.1,1.2,0.3
			c1.4,0.7,2.8,2,3.8,3c0.4-0.6,0.8-1.3,1.2-2c4.2-7,10-16.7,16.5-16.7c0.1,0,0.1,0,0.2,0c2.7,0,2.7,1.8,2.7,2v0l0,0
			c0,0.2-0.1,0.6-0.3,1c-0.1,0.2-0.3,0.4-0.5,0.5l0,0c-4.5,3.2-9.2,11.6-12.3,17.1c-2.6,4.6-3.6,6.4-4.8,7.1l0,0l0,0
			C447.9,37.3,447.3,37.3,446.7,37.3z"/>
		<path id="Path-7_2_" class="st1" d="M446.7,35.7c0.5,0,0.9,0,1.5-0.3c2.1-1.1,9.3-18.7,16.9-24.1c0,0,0.1-0.1,0.1-0.1
			c0-0.1,0.1-0.1,0.1-0.1s0-0.4-1.1-0.4c-6.7-0.2-13.8,14-17.5,19.6c0,0.1-0.3,0-0.3,0s-2.5-2.9-4.6-4c0,0-0.3-0.1-0.5-0.1
			c-0.2,0-1.2,0.2-1.6,0.7c-0.6,0.6-0.5,0.9-0.5,1.6c0,0.1,0,0.3,0.1,0.4c0.5,0.9,2.9,4.2,4.9,6C444.4,35.1,444.8,35.7,446.7,35.7z"
			/>
		<path class="st2" d="M416.2,15.8h-1.4V20l1.6,0c0,0,1.8-0.1,2.1-1.8c0,0,0-0.7,0-0.8C418.3,15.9,416.2,15.8,416.2,15.8z
			 M458.1,22.7c-0.8,1-1.6,2.3-2.3,3.5l3.4-1.1L458.1,22.7z M399.5,3L413,39.7l25.9-8.1c-0.7-1-1.2-2.2-1.4-3.2c0,0,0,0,0,0
			c-0.2,0-1.9,0.1-2.8,0c-9.1-0.6-9.1-7-9.1-7.2v-1.5c0-0.3,0.3-6.6,9.1-7.3c0.6-0.1,2.7-0.1,2.8,0c2.4,0.1,3.2,0.7,3.2,0.7
			c0,0,0.1,0.1,0.1,0.1v4c0,0,0,0.1-0.1,0c0,0-1.4-0.9-3.2-1.1h-1.5c-4,0.3-4.2,3.5-4.2,3.5c0,0,0,0.1,0,0.2v1.1c0,0,0,0.1,0,0.2
			c0,0,0.2,3,4.2,3.6c0.3,0,0.7,0.1,1.5,0c2.9-0.3,3.5-0.8,3.5-0.8c0,0,0.1,0,0.1,0v0.7c0.8,0.1,1.7,0.5,2.5,1.1V12.4h6v9.8
			c2.1-3.1,4.4-6.2,5.1-7.2L448,0.3L399.5,3z M414.9,23.4C414.9,23.4,414.8,23.5,414.9,23.4l-0.1,4.6c0,0,0,0.1-0.1,0.1h-5.9
			c-0.1,0-0.1,0-0.1-0.1V12.5c0,0,0-0.1,0.1-0.1c0,0,7.6,0,7.6,0c1.9-0.1,7.8,0.5,7.8,5.4C424.3,24.1,414.9,23.4,414.9,23.4z
			 M450.2,7.5c0,1.9-1.6,3.5-3.7,3.5s-3.7-1.6-3.7-3.5c0-1.9,1.6-3.5,3.7-3.5S450.2,5.6,450.2,7.5z"/>
		<g>
			<g class="st3">
				<path class="st0" d="M469.8,22.6l1,0.3c-0.1,0.3-0.2,0.5-0.3,0.7c-0.1,0.2-0.3,0.3-0.6,0.4c-0.2,0.1-0.5,0.1-0.8,0.1
					c-0.4,0-0.7-0.1-1-0.2c-0.3-0.1-0.5-0.3-0.7-0.6c-0.2-0.3-0.3-0.7-0.3-1.2c0-0.6,0.2-1.1,0.5-1.4c0.3-0.3,0.8-0.5,1.4-0.5
					c0.5,0,0.8,0.1,1.1,0.3c0.3,0.2,0.5,0.5,0.6,0.9l-1,0.2c0-0.1-0.1-0.2-0.1-0.3c-0.1-0.1-0.1-0.2-0.2-0.2c-0.1,0-0.2-0.1-0.3-0.1
					c-0.3,0-0.5,0.1-0.6,0.3c-0.1,0.2-0.2,0.4-0.2,0.7c0,0.4,0.1,0.7,0.2,0.9c0.1,0.2,0.3,0.2,0.5,0.2c0.2,0,0.4-0.1,0.5-0.2
					C469.7,23.1,469.8,22.9,469.8,22.6z"/>
				<path class="st0" d="M471.3,22.3c0-0.6,0.2-1.1,0.5-1.4c0.3-0.3,0.8-0.5,1.4-0.5c0.6,0,1.1,0.2,1.5,0.5c0.3,0.3,0.5,0.8,0.5,1.4
					c0,0.4-0.1,0.8-0.2,1.1c-0.1,0.3-0.4,0.5-0.6,0.7c-0.3,0.2-0.6,0.2-1,0.2c-0.4,0-0.8-0.1-1.1-0.2c-0.3-0.1-0.5-0.3-0.7-0.6
					C471.4,23.1,471.3,22.7,471.3,22.3z M472.4,22.3c0,0.4,0.1,0.7,0.2,0.8c0.1,0.2,0.3,0.2,0.6,0.2c0.2,0,0.4-0.1,0.6-0.2
					c0.1-0.2,0.2-0.5,0.2-0.9c0-0.4-0.1-0.6-0.2-0.8c-0.1-0.2-0.3-0.2-0.6-0.2c-0.2,0-0.4,0.1-0.6,0.3
					C472.5,21.7,472.4,21.9,472.4,22.3z"/>
				<path class="st0" d="M475.8,20.4h1.5l0.6,2.3l0.6-2.3h1.5v3.8h-1v-2.9l-0.7,2.9h-0.9l-0.7-2.9v2.9h-1V20.4z"/>
				<path class="st0" d="M480.8,20.4h1.9c0.4,0,0.7,0.1,0.9,0.3c0.2,0.2,0.3,0.5,0.3,0.9c0,0.4-0.1,0.7-0.3,0.9
					c-0.2,0.2-0.6,0.3-1,0.3H482v1.4h-1.2V20.4z M482,22h0.3c0.2,0,0.4,0,0.5-0.1c0.1-0.1,0.1-0.2,0.1-0.3c0-0.1,0-0.2-0.1-0.3
					c-0.1-0.1-0.2-0.1-0.4-0.1H482V22z"/>
				<path class="st0" d="M484.6,20.4h1.2v2.8h1.8v0.9h-3V20.4z"/>
				<path class="st0" d="M488.2,20.4h1.2v3.8h-1.2V20.4z"/>
				<path class="st0" d="M492.5,23.6h-1.3l-0.2,0.6h-1.2l1.4-3.8h1.3l1.4,3.8h-1.2L492.5,23.6z M492.2,22.8l-0.4-1.4l-0.4,1.4H492.2
					z"/>
				<path class="st0" d="M494.3,20.4h1.1l1.4,2.1v-2.1h1.1v3.8h-1.1l-1.4-2.1v2.1h-1.1V20.4z"/>
				<path class="st0" d="M498.4,20.4h3.5v0.9h-1.2v2.8h-1.2v-2.8h-1.2V20.4z"/>
			</g>
			<g class="st3">
				<path class="st0" d="M467.1,6.1h5.6c1.1,0,2,0.2,2.7,0.5c0.7,0.3,1.2,0.7,1.7,1.3c0.4,0.6,0.8,1.2,1,2c0.2,0.7,0.3,1.5,0.3,2.4
					c0,1.3-0.1,2.3-0.4,3c-0.3,0.7-0.7,1.3-1.2,1.8c-0.5,0.5-1.1,0.8-1.7,1c-0.8,0.2-1.6,0.3-2.3,0.3h-5.6V6.1z M470.8,8.8v6.7h0.9
					c0.8,0,1.3-0.1,1.7-0.3c0.3-0.2,0.6-0.5,0.8-0.9c0.2-0.4,0.3-1.1,0.3-2.1c0-1.3-0.2-2.2-0.6-2.7c-0.4-0.5-1.1-0.7-2.1-0.7H470.8
					z"/>
				<path class="st0" d="M479.4,14.2l3.6-0.2c0.1,0.6,0.2,1,0.5,1.3c0.4,0.5,0.9,0.7,1.7,0.7c0.5,0,1-0.1,1.2-0.4
					c0.3-0.3,0.4-0.5,0.4-0.9c0-0.3-0.1-0.6-0.4-0.9c-0.3-0.2-0.9-0.5-1.9-0.7c-1.7-0.4-2.8-0.9-3.5-1.5c-0.7-0.6-1.1-1.4-1.1-2.4
					c0-0.6,0.2-1.2,0.5-1.8s0.9-1,1.6-1.3c0.7-0.3,1.7-0.5,3-0.5c1.6,0,2.8,0.3,3.6,0.9c0.8,0.6,1.3,1.5,1.5,2.8l-3.6,0.2
					c-0.1-0.6-0.3-1-0.6-1.2c-0.3-0.3-0.7-0.4-1.3-0.4c-0.4,0-0.8,0.1-1,0.3c-0.2,0.2-0.3,0.4-0.3,0.7c0,0.2,0.1,0.4,0.3,0.5
					c0.2,0.2,0.6,0.3,1.3,0.5c1.7,0.4,2.8,0.7,3.5,1.1c0.7,0.4,1.2,0.8,1.6,1.4c0.3,0.5,0.5,1.1,0.5,1.8c0,0.8-0.2,1.5-0.7,2.2
					c-0.4,0.7-1,1.2-1.8,1.5c-0.8,0.3-1.8,0.5-2.9,0.5c-2.1,0-3.5-0.4-4.3-1.2C479.9,16.5,479.5,15.5,479.4,14.2z"/>
			</g>
			<g class="st3">
				<path class="st0" d="M491.4,14.2L495,14c0.1,0.6,0.2,1,0.5,1.3c0.4,0.5,0.9,0.7,1.7,0.7c0.5,0,1-0.1,1.2-0.4
					c0.3-0.3,0.4-0.5,0.4-0.9c0-0.3-0.1-0.6-0.4-0.9c-0.3-0.2-0.9-0.5-1.9-0.7c-1.7-0.4-2.8-0.9-3.5-1.5c-0.7-0.6-1.1-1.4-1.1-2.4
					c0-0.6,0.2-1.2,0.5-1.8c0.4-0.6,0.9-1,1.6-1.3c0.7-0.3,1.7-0.5,3-0.5c1.6,0,2.8,0.3,3.6,0.9c0.8,0.6,1.3,1.5,1.5,2.8l-3.6,0.2
					c-0.1-0.6-0.3-1-0.6-1.2c-0.3-0.3-0.7-0.4-1.3-0.4c-0.4,0-0.8,0.1-1,0.3c-0.2,0.2-0.3,0.4-0.3,0.7c0,0.2,0.1,0.4,0.3,0.5
					c0.2,0.2,0.6,0.3,1.3,0.5c1.7,0.4,2.8,0.7,3.6,1.1c0.7,0.4,1.2,0.8,1.6,1.4c0.3,0.5,0.5,1.1,0.5,1.8c0,0.8-0.2,1.5-0.7,2.2
					c-0.4,0.7-1,1.2-1.8,1.5c-0.8,0.3-1.8,0.5-2.9,0.5c-2.1,0-3.5-0.4-4.3-1.2C492,16.5,491.5,15.5,491.4,14.2z"/>
			</g>
		</g>
	</g>
	<g>
		<g>
			<g id="XMLID_233_">
				<path id="XMLID_239_" class="st0" d="M6.7,1.6h2.6l1.6,9.8l5.8-9.8h2.8l-2.5,11.9h-1.7l2.2-10.2h0l-6.1,10.2H9.6L7.9,3.3h0
					L5.6,13.5H4L6.7,1.6z M21.6,5.1c0.8-0.3,1.6-0.4,2.4-0.4c1.8,0,3.5,0.7,3.5,2.8c0,0.5-0.1,0.9-0.2,1.4c-0.3,1.6-0.7,3.2-0.9,4.8
					h-1.5l0.3-1.5h0c-0.6,1-1.7,1.7-2.8,1.6c-1.5,0-2.8-0.8-2.8-2.4c0-2.5,2.2-3.2,5.2-3.2c0.3,0,0.8,0,1.2,0.1
					c0-0.2,0.1-0.4,0.1-0.6c0-1.2-0.8-1.7-2-1.7c-0.9,0-1.9,0.3-2.7,0.7L21.6,5.1z M24.3,9.4c-1.2,0-3,0.3-3,1.9
					c0,0.8,0.7,1.2,1.4,1.2c1.6,0,2.6-1.6,2.8-3.1H24.3z M34.3,6.4c-0.5-0.3-1.1-0.4-1.7-0.4C31.9,5.9,31,6.1,31,7c0,1.5,3,1.6,3,4
					c0,2.1-1.9,2.8-3.3,2.8c-0.9,0-1.7-0.1-2.5-0.4l0.3-1.4c0.6,0.3,1.3,0.5,2,0.5c0.9,0,1.8-0.4,1.8-1.3c0-1.5-3-1.7-3-3.9
					c0-1.8,1.8-2.6,3.3-2.6c0.8,0,1.6,0.2,2.3,0.5L34.3,6.4z M36.1,4.8H38l0.4-2l1.7-0.6l-0.5,2.6H42l-0.3,1.3h-2.4l-0.8,3.7
					c-0.1,0.5-0.2,1.1-0.3,1.6c0,0.6,0.3,0.9,1.2,0.9c0.4,0,0.8-0.1,1.1-0.2l-0.2,1.3c-0.5,0.1-1,0.2-1.6,0.2c-1.5,0-2.1-1-2.1-1.9
					c0-0.7,0.2-1.4,0.3-2.1l0.8-3.6h-1.9L36.1,4.8z M48.6,13.4c-0.8,0.2-1.7,0.3-2.6,0.4c-2.1,0-4-0.9-4-3.9c0-2.4,1.7-5.2,4.8-5.2
					c2.1,0,3.3,1.3,3.3,3.3c0,0.5-0.1,1.1-0.2,1.6h-6.1c0,0.2-0.1,0.4-0.1,0.5c0,1.8,1.1,2.4,2.7,2.4c0.8,0,1.7-0.2,2.5-0.5
					L48.6,13.4z M48.4,8.4c0-0.2,0.1-0.4,0.1-0.7c0-1-0.6-1.8-1.8-1.8c-1.3,0-2.3,1.1-2.7,2.4L48.4,8.4z M52.5,6.2
					c0.1-0.4,0.2-0.8,0.2-1.3h1.5L54,6.2h0c0.6-1,1.8-1.6,3-1.6c0.3,0,0.5,0.1,0.7,0.2l-0.4,1.4C57.2,6.1,56.9,6,56.7,6
					c-2,0-3,2.2-3.2,3.2l-0.9,4.3H51L52.5,6.2z M66.2,13.4c-0.7,0.2-1.4,0.3-2.2,0.3c-3.2,0-5.6-1.7-5.6-5.5c0-2.9,2-6.9,7.2-6.9
					c1,0,1.9,0.2,2.8,0.5l-0.5,1.5c-0.7-0.3-1.5-0.5-2.3-0.5c-3.6,0-5.4,2.7-5.4,5.5c0,2.6,1.7,3.9,4.1,3.9c0.7,0,1.5-0.1,2.1-0.4
					L66.2,13.4z M69.8,5.1c0.8-0.3,1.6-0.4,2.4-0.4c1.8,0,3.5,0.7,3.5,2.8c0,0.5-0.1,0.9-0.2,1.4c-0.3,1.6-0.7,3.2-0.9,4.8h-1.5
					l0.3-1.5h0c-0.6,1-1.7,1.7-2.8,1.6c-1.5,0-2.8-0.8-2.8-2.4c0-2.5,2.2-3.2,5.2-3.2c0.3,0,0.8,0,1.2,0.1c0.1-0.2,0.1-0.4,0.1-0.6
					c0-1.2-0.8-1.7-2-1.7c-0.9,0-1.9,0.3-2.7,0.7L69.8,5.1z M72.5,9.4c-1.2,0-3,0.3-3,1.9c0,0.8,0.7,1.2,1.4,1.2
					c1.6,0,2.7-1.6,2.8-3.1H72.5z M78.5,6.2c0.1-0.4,0.2-0.8,0.2-1.3h1.5L80,6.2h0c0.6-1,1.8-1.6,3-1.6c0.3,0,0.5,0.1,0.7,0.2
					l-0.4,1.4C83.1,6.1,82.9,6,82.6,6c-2,0-3,2.2-3.2,3.2l-0.9,4.3H77L78.5,6.2z M91.6,10.7c-0.2,1-0.4,1.9-0.5,2.9h-1.5
					c0.1-0.4,0.2-0.9,0.3-1.3h0c-0.6,1.2-1.6,1.5-3,1.5c-2.1,0-3.2-1.7-3.2-3.7c0-2.7,1.5-5.5,4.5-5.5c1.2,0,2.3,0.5,2.8,1.6h0
					l1.1-5.5h1.6L91.6,10.7z M87.5,12.5c2,0,2.9-2.5,2.9-4.2c0-1.3-0.8-2.4-2.2-2.4c-1.9,0-2.9,2.4-2.9,4
					C85.3,11.4,86,12.5,87.5,12.5z M7.9,19.6h4.1l2.6,15.8l9.4-15.8h4.5l-4.1,19.3h-2.8l3.5-16.5h-0.1l-9.9,16.5h-2.7L9.9,22.4H9.9
					L6.2,38.9H3.5L7.9,19.6z M37.2,24.5c3.8,0,6.2,2.3,6.2,6.2c0,4.8-2.8,8.6-7.9,8.6c-3.9,0-6.4-2.1-6.4-6.3
					C29.2,28.2,32,24.5,37.2,24.5z M35.5,37.1c2.9,0,5.1-3.3,5.1-6.5c0-2.1-1.2-4.1-3.6-4.1c-3.5,0-5.2,3.6-5.2,6.6
					C31.9,35.4,33.1,37.1,35.5,37.1L35.5,37.1z M47.3,26.9c0.1-0.6,0.3-1.3,0.4-2.2h2.4L49.7,27h0.1c1-1.7,2.9-2.6,4.8-2.6
					c2.7,0,4.7,1.4,4.7,4.4c0,0.9-0.1,1.7-0.3,2.6l-1.5,7.4h-2.6l1.7-8.4c0.1-0.4,0.1-0.9,0.1-1.3c0.1-1.3-1-2.5-2.3-2.6
					c-0.1,0-0.2,0-0.3,0c-3.2,0-4.8,3.5-5.1,5.2l-1.5,7.1h-2.6L47.3,26.9z M72.1,38.6c-1.4,0.4-2.8,0.6-4.2,0.6
					c-3.4,0-6.5-1.4-6.5-6.4c0-3.9,2.7-8.4,7.7-8.4c3.4,0,5.3,2,5.3,5.4c0,0.9-0.1,1.7-0.3,2.6h-9.9c-0.1,0.3-0.1,0.6-0.1,0.9
					c0,3,1.8,3.8,4.3,3.8c1.4,0,2.7-0.3,4-0.9L72.1,38.6z M71.8,30.5c0.1-0.4,0.1-0.7,0.1-1.1c0-1.6-1-2.8-3-2.8
					c-2.1,0-3.8,1.9-4.3,3.9H71.8z M73.8,42.7c0.4,0.2,0.7,0.2,1.1,0.2c1.6,0,2.7-1.1,3.7-3.3l-2.3-14.9h2.7L80.7,36h0.1l6.1-11.2
					h2.8l-9.6,16.7c-1.2,2.2-2.2,3.5-4.8,3.5c-0.7,0-1.3-0.1-2-0.2L73.8,42.7z"/>
				<path id="XMLID_234_" class="st0" d="M95.4,2.7c0-1,0.8-1.9,1.9-1.9c1,0,1.9,0.9,1.9,1.9s-0.9,1.9-1.9,1.9l0,0
					C96.3,4.6,95.4,3.7,95.4,2.7z M98.8,2.7c-0.1-0.8-0.7-1.4-1.5-1.3c-0.8,0.1-1.4,0.7-1.3,1.5c0.1,0.8,0.7,1.3,1.4,1.3
					C98.1,4.2,98.8,3.5,98.8,2.7C98.8,2.7,98.8,2.7,98.8,2.7L98.8,2.7z M96.6,1.6h0.8c0.5,0,0.8,0.2,0.8,0.6c0,0.3-0.2,0.6-0.5,0.6
					c0,0,0,0-0.1,0l0.6,0.9h-0.4l-0.6-0.9H97v0.9h-0.4L96.6,1.6z M97,2.5h0.3c0.2,0,0.4,0,0.4-0.3c0-0.3-0.2-0.3-0.4-0.3H97L97,2.5z
					"/>
			</g>
		</g>
		<g>
			<g id="XMLID_80_">
				<path id="XMLID_84_" class="st4" d="M105.5,24c-1.3-0.6-2.8-0.9-4.3-0.9c-2,0-3.7,0.3-3.7,1.8c0,2.7,7.5,1.7,7.5,7.6
					c0,5.3-4.9,6.7-9.4,6.7c-2,0-4-0.4-6-1l1.2-3.9c1,0.7,3.1,1.1,4.8,1.1c1.6,0,4.1-0.3,4.1-2.3c0-3.1-7.5-1.9-7.5-7.4
					c0-5,4.4-6.5,8.6-6.5c2.4,0,4.6,0.2,5.9,0.9L105.5,24z M118.9,38.4c-1.6,0.5-3.3,0.8-5,0.8c-4.8,0-7.4-3-7.4-6.6
					c0-3.3,2.2-8.5,8.6-8.5c3.8,0,6.6,1.9,6.6,6.3c0,0.9-0.2,1.8-0.4,2.7h-10.2c0.1,1.5,0.8,2.8,3.9,2.8c1.6,0,3.1-0.4,4.5-1
					L118.9,38.4z M117.5,30.3c0-1.5-0.6-2.8-2.4-2.8c-1.7,0-3.3,1.1-3.7,2.8H117.5z M124.3,28.2c0.2-1.2,0.5-2.5,0.6-3.8h4.6
					l-0.4,2.3h0.1c1.4-1.6,2.9-2.7,5.5-2.7c2.9,0,4.5,2.2,4.5,5c0,1-0.1,2-0.4,3l-1.3,6.7h-5.1l1.4-6.7c0.2-0.7,0.3-1.4,0.3-2.2
					c0-0.9-0.6-1.7-1.9-1.6c-2.1,0-3.3,1.8-3.7,3.9l-1.4,6.6h-5L124.3,28.2z M151.4,36.6L151.4,36.6c-1.3,1.6-2.5,2.6-5.3,2.6
					c-3.1,0-5.4-2.7-5.4-5.9c0-4.7,2.4-9.1,7.3-9.1c2.5,0,4.3,1.1,5,2.7h0.1l1.7-8.6h4.9l-3.9,18.6c-0.2,0.9-0.2,1.6-0.3,2.2H151
					L151.4,36.6z M152,30.9c0-1.4-0.7-2.9-2.4-2.9c-2.3,0-3.8,2.2-3.8,4.5c0,1.8,0.8,3,2.4,3C150.6,35.4,152,32.8,152,30.9L152,30.9
					z"/>
				<path id="XMLID_81_" class="st4" d="M163.9,18.7h-1l-0.6,2.8h-0.5l0.6-2.8h-1l0.1-0.4h2.5L163.9,18.7z M164.5,18.3h0.7l0.4,2.6
					l1.6-2.6h0.8l-0.7,3.2h-0.5l0.6-2.8l-1.6,2.8h-0.4l-0.4-2.8l-0.6,2.8h-0.4L164.5,18.3z"/>
			</g>
		</g>
	</g>
	<g>
		<g id="XMLID_150_">
			<path id="XMLID_161_" class="st0" d="M226.6,38.9l6-19.6h5.3l-6,19.6H226.6z M224.2,19.3l-4.8,8.3c-1.2,2.2-1.9,3.3-2.3,4.7h-0.1
				c0.1-1.7-0.2-3.9-0.2-5.1l-0.5-7.9h-8.9l-0.1,0.5c2.3,0,3.7,1.1,4,3.5l1.7,15.6h5.5l11.1-19.6H224.2z M265.6,38.9l-0.1-2.9h-6.6
				l-1.4,2.9h-5.8l10.5-19.6h7.1l1.8,19.6H265.6z M264.9,27.3c-0.1-1.5-0.1-3.1,0-4.6h-0.1c-0.3,1-1.7,3.9-2.3,5.3l-2,4.3h4.6
				L264.9,27.3L264.9,27.3z M243.4,39.5c-2.8,0-5.6-0.8-8-2.3l2.5-3.9c1.6,0.9,2.9,1.9,5.7,1.9c0.9,0,1.8-0.2,2.3-1.1
				c0.7-1.3-0.2-2-2.2-3.1l-1-0.7c-3.1-2.1-4.4-4.1-3-7.6c0.9-2.2,3.4-3.9,7.4-3.9c2.5,0.1,4.9,0.9,6.9,2.4l-2.9,3.4
				c-1.5-1.2-2.7-1.8-4.1-1.8c-1.1,0-2,0.4-2.3,1c-0.6,1.1,0.2,1.8,1.8,2.9l1.2,0.8c3.7,2.4,4.6,4.8,3.7,7.1
				C249.9,38.6,246.7,39.5,243.4,39.5L243.4,39.5z M272.4,22.3h-0.3v-2.1h0.8c0.5,0,0.8,0.2,0.8,0.6c0,0.3-0.2,0.6-0.5,0.6
				c0,0,0,0-0.1,0l0.6,0.9h-0.4l-0.5-0.9h-0.3V22.3L272.4,22.3z M272.8,21.1c0.3,0,0.5,0,0.5-0.3c0-0.3-0.3-0.3-0.5-0.3h-0.4v0.6
				H272.8z M272.8,23.1c-1,0-1.9-0.8-1.9-1.8c0,0,0-0.1,0-0.1c0-1,0.8-1.9,1.8-2c1,0,1.9,0.8,2,1.8c0,0.1,0,0.1,0,0.2
				C274.7,22.2,273.9,23.1,272.8,23.1C272.8,23.1,272.8,23.1,272.8,23.1z M272.8,19.6c-0.8,0-1.5,0.7-1.5,1.5c0,0,0,0.1,0,0.1
				c0,0.8,0.6,1.5,1.4,1.6c0.8,0,1.5-0.6,1.6-1.4c0,0,0-0.1,0-0.2C274.3,20.4,273.7,19.7,272.8,19.6
				C272.9,19.6,272.8,19.6,272.8,19.6L272.8,19.6z"/>
			<path id="XMLID_151_" class="st0" d="M296.9,21c1.6,1.5,2.4,3.6,2.4,6.4c0,3.8-1.1,6.7-3.3,8.9c-2.2,2.1-5.4,3.2-9.6,3.2
				c-2.3,0-4.1-0.1-5.5-0.2c-0.2,0-0.4-0.1-0.5-0.3c-0.1-0.2-0.2-0.3-0.1-0.5l3.2-18.6c0-0.2,0.1-0.4,0.3-0.5
				c0.2-0.2,0.4-0.3,0.6-0.3c1.6-0.2,3.4-0.2,5.5-0.2C293,18.8,295.3,19.5,296.9,21L296.9,21z M285.8,35.3c0.6,0,1.1,0.1,1.7,0.1
				c1.8,0.1,3.6-0.7,4.7-2.1c1.2-1.4,1.8-3.4,1.8-5.9c0-3-1.5-4.6-4.5-4.6c-0.5,0-1,0-1.5,0.1L285.8,35.3z M307.1,24.5
				c0.2,0,0.4,0.1,0.5,0.2c0.1,0.1,0.2,0.3,0.2,0.5l-2.3,13.4c0,0.2-0.1,0.4-0.3,0.5c-0.2,0.1-0.4,0.2-0.6,0.2H301
				c-0.2,0-0.4-0.1-0.5-0.2c-0.1-0.1-0.2-0.3-0.2-0.5l2.3-13.3c0-0.2,0.1-0.4,0.3-0.5c0.2-0.1,0.4-0.2,0.6-0.2L307.1,24.5z
				 M308.1,17.8c0.4,0.4,0.6,1,0.6,1.6c0,0.8-0.3,1.6-0.9,2.2c-0.5,0.6-1.3,1-2.1,1c-0.6,0-1.2-0.2-1.6-0.6c-0.4-0.4-0.6-1-0.6-1.6
				c0-0.8,0.3-1.6,0.9-2.1c0.5-0.6,1.3-1,2.2-1C307.1,17.2,307.7,17.4,308.1,17.8z M320.3,24.3c0.1,0.1,0.2,0.3,0.1,0.5l-0.6,3.3
				c-0.1,0.5-0.5,0.8-0.9,0.7c-1.1,0-2.1,0.5-2.9,1.3c-0.8,0.9-1.3,2-1.4,3.1l-0.9,5.5c0,0.2-0.1,0.4-0.3,0.5
				c-0.2,0.1-0.4,0.2-0.6,0.2h-3.5c-0.2,0-0.4-0.1-0.5-0.2c-0.1-0.1-0.2-0.3-0.2-0.5l1.4-8.2c0.1-0.6,0.2-1.5,0.4-2.7
				c0.2-1.2,0.3-2,0.4-2.4c0-0.4,0.4-0.8,0.9-0.8l2.9,0c0.2,0,0.4,0,0.5,0.2c0.1,0.1,0.2,0.3,0.1,0.5l-0.4,2.6h0.1
				c1.2-2.2,2.8-3.4,4.8-3.7C320,24.1,320.2,24.1,320.3,24.3L320.3,24.3z M326.1,35.3c0.6,0.4,1.4,0.5,2.1,0.5
				c1.3,0,2.5-0.2,3.7-0.6c0.2-0.1,0.3-0.1,0.5,0c0.1,0.1,0.2,0.3,0.3,0.5l0.2,2c0.1,0.4-0.2,0.8-0.6,1c-1.8,0.6-3.6,0.9-5.5,0.9
				c-2.1,0-3.7-0.5-4.8-1.5c-1.1-1-1.7-2.6-1.7-4.6c-0.1-2.4,0.8-4.8,2.4-6.7c1.6-1.8,3.8-2.7,6.5-2.7c1.6,0,2.9,0.4,3.9,1.2
				c1,0.8,1.5,2,1.5,3.2c0,3.2-2.4,4.8-7.3,4.8c-0.7,0-1.4,0-2.1-0.1c0,0.1,0,0.3,0,0.4C325.2,34.4,325.5,35,326.1,35.3z M329.2,30
				c0.5-0.3,0.8-0.7,0.8-1.1c0-0.3-0.1-0.6-0.4-0.8c-0.3-0.2-0.7-0.3-1.1-0.3c-0.7,0-1.4,0.2-1.9,0.7c-0.5,0.5-0.9,1.1-1,1.8
				c0.5,0.1,1,0.1,1.5,0.1C327.8,30.5,328.5,30.3,329.2,30L329.2,30z M341.8,35.1c0.6,0.5,1.2,0.7,2,0.7c0.9,0,1.8-0.1,2.7-0.4
				c0.2-0.1,0.4,0,0.5,0.1c0.1,0.1,0.2,0.3,0.2,0.4l0.1,2.2c0,0.2,0,0.4-0.2,0.6c-0.1,0.2-0.3,0.3-0.5,0.4c-1.5,0.4-3,0.6-4.5,0.6
				c-2,0-3.5-0.5-4.7-1.6c-1.2-1-1.8-2.6-1.8-4.6c-0.1-2.5,0.9-4.9,2.7-6.7c1.8-1.8,4.1-2.6,7-2.6c1,0,1.9,0.1,2.9,0.4
				c0.2,0,0.4,0.2,0.5,0.3c0.1,0.2,0.1,0.4,0.1,0.5l-0.6,2.3c0,0.4-0.3,0.6-0.7,0.6c-0.1,0-0.1,0-0.2,0c-0.6-0.2-1.2-0.2-1.8-0.2
				c-1.2,0-2.4,0.4-3.3,1.2c-0.9,0.8-1.3,2-1.3,3.6C341,34,341.2,34.7,341.8,35.1z M350.7,28.2c-0.2,0-0.4-0.1-0.5-0.2
				c-0.1-0.1-0.2-0.3-0.1-0.5l0.5-2.1c0.1-0.4,0.5-0.7,0.9-0.8l0.7,0l0.7-2.7c0.1-0.4,0.5-0.8,0.9-0.9l3.3-0.6c0.2,0,0.3,0,0.5,0.1
				c0.1,0.1,0.2,0.3,0.2,0.5l-0.6,3.6h2.4c0.2,0,0.4,0.1,0.5,0.2c0.1,0.1,0.2,0.3,0.1,0.5l-0.6,2.2c0,0.2-0.2,0.4-0.3,0.5
				c-0.2,0.1-0.4,0.2-0.6,0.2h-2.1l-0.8,4.2c-0.2,1.2-0.3,2-0.1,2.4c0.2,0.4,0.6,0.7,1.1,0.6c0.2,0,0.5,0,0.7,0c0.2,0,0.4,0,0.5,0.2
				c0.1,0.1,0.2,0.3,0.1,0.5c0,0.3-0.1,0.7-0.2,1.2c-0.1,0.5-0.2,0.9-0.2,1.2c0,0.2-0.1,0.4-0.3,0.6c-0.2,0.2-0.4,0.3-0.6,0.3
				c-0.8,0.2-1.7,0.2-2.5,0.2c-1.2,0-2.2-0.3-2.9-0.8c-0.7-0.5-1.1-1.4-1.1-2.3c0-0.7,0.1-1.5,0.2-2.2c0.1-0.9,0.3-2,0.6-3.4
				c0.3-1.3,0.4-2.3,0.5-2.8L350.7,28.2z"/>
		</g>
	</g>
</g>
</svg>
